<?xml version="1.0" standalone="no"?>
<!DOCTYPE svg PUBLIC "-//W3C//DTD SVG 1.1//EN" "http://www.w3.org/Graphics/SVG/1.1/DTD/svg11.dtd" >
<svg xmlns="http://www.w3.org/2000/svg">
<metadata>Generated by IcoMoon</metadata>
<defs>
<font id="icomoon" horiz-adv-x="1024">
<font-face units-per-em="1024" ascent="960" descent="-64" />
<missing-glyph horiz-adv-x="1024" />
<glyph unicode="&#x20;" horiz-adv-x="512" d="" />
<glyph unicode="&#xe000;" glyph-name="uniE000" d="M512.571 957.143q104 0 198.286-40.286t162.571-108.571 108.571-162.571 40.286-197.714-40.286-197.429-108.571-162-162.571-108.286-198.286-40.286-198.286 40.286-162.571 108.286-108.571 162-40.286 197.429 40.286 197.714 108.571 162.571 162.571 108.571 198.286 40.286zM516 824.571q-46.286 0-78.857-32.571t-32.571-78.857 32.571-78.857 78.857-32.571 79.143 32.571 32.857 78.857-32.857 78.857-79.143 32.571zM774.286 420q46.286 0 79.143 32.857t32.857 78.571q0 46.286-32.857 79.143t-79.143 32.857-78.857-32.571-32.571-78.857 32.571-79.143 78.857-32.857zM138.857 531.429q0-45.714 32.857-78.571t79.143-32.857 78.857 32.857 32.571 79.143-32.571 78.571-78.857 32.286-79.143-32.571-32.857-78.857zM512.571 397.714q19.429 0 33.143 13.714t13.714 33.143-13.714 33.143-33.143 13.714-33.143-13.714-13.714-33.143 13.714-33.143 33.143-13.714zM362.286 113.714q46.286 0 79.143 32.857t32.857 78.571q0 46.286-32.857 78.857t-79.143 32.571-78.857-32.571-32.571-78.857q0-45.714 32.571-78.571t78.857-32.857zM662.857 113.714q46.286 0 78.857 32.857t32.571 78.571q0 46.286-32.571 78.857t-78.857 32.571-79.143-32.571-32.857-78.857q0-45.714 32.857-78.571t79.143-32.857z" />
<glyph unicode="&#xe001;" glyph-name="uniE001" d="M481.143-56.571l-478.857 506.286 478.857 508 146.857-143.429-233.143-268h624v-191.429h-624l233.143-268z" />
<glyph unicode="&#xe002;" glyph-name="uniE002" d="M628.571 545.143l-233.714 268.571 146.857 143.429 478.857-508-478.857-506.857-146.857 143.429 233.714 268.571h-624v190.857h624z" />
<glyph unicode="&#xe003;" glyph-name="uniE003" d="M120.571 817.714h-118.286v87.429h175.429l64-185.143h781.714l-174.857-382.286h-613.143l-88 413.714h0.571zM302.857 254.857q36.571 0 62.286-25.429t25.714-62-25.714-62-62.286-25.429q-36 0-61.714 25.429t-25.714 62 25.714 62 61.714 25.429zM766.857 254.857q-36.571 0-62-25.429t-25.429-62 25.429-62 62-25.429q36 0 61.714 25.429t25.714 62-25.714 62-61.714 25.429z" />
<glyph unicode="&#xe004;" glyph-name="uniE004" d="M512.571 56q31.429 0 55.429 21.143 29.714 26.286 63.429 57.143t95.714 90 111.143 109.714 94.286 105.143 61.143 88.286q26.286 54.857 29.143 114.571t-17.714 116.857-60.857 101.143-95.143 70.286q-84.571 38.857-177.714 23.143t-158.857-77.429q-65.714 61.714-158.857 77.429t-177.714-23.143q-55.429-26.286-96-72t-60-99.714-17.143-114.857 28.571-116.286q16-33.714 61.143-88.286t94.286-105.143 111.143-109.714 95.714-90 63.429-57.143q11.429-9.143 19.429-12.571l2.286-1.143q15.429-7.429 33.714-7.429zM304.571 792.571q39.429 0 73.143-21.429t50.286-56.857q1.143-1.714 2.286-6.286t1.714-6.286q6.857-28 29.429-45.714t51.143-17.714 51.143 17.714 29.429 45.143q0.571 1.714 1.714 6.571t2.286 6.571q23.429 49.143 77.429 68.857t103.714-3.714q50.857-23.429 70.286-77.143 18.286-53.143-5.143-104-18.857-39.429-116.571-140t-214.286-206.857q-116.571 106.286-214.286 206.857t-116.571 140q-24 50.857-4.857 104t70 77.143q28 13.143 57.714 13.143z" />
<glyph unicode="&#xe005;" glyph-name="uniE005" d="M509.714 959.429q82.857 0 160.857-25.714t140.571-72.857 109.714-110 72.857-140.571 25.714-160.571q0-104-40.286-198.286t-108.571-162.571-162.571-108.571-198.286-40.286q-138.286 0-255.429 68.286t-185.429 185.714-68.286 255.714q0 103.429 40.286 198t108.571 162.857 162.571 108.571 197.714 40.286zM509.714 854.286q-82.286 0-157.143-32t-129.143-86.286-86.286-129.143-32-157.143q0-65.714 20.571-127.714t58-111.714 87.143-87.143 111.429-58 127.429-20.571 127.714 20.571 111.714 58 87.143 87.143 58 111.714 20.571 127.714q0 82.286-32 157.143t-86.286 129.143-129.429 86.286-157.429 32zM299.429 596h421.143q16.571 0 28.571 12.286t12 30q0 17.143-12 29.429t-28.571 12.286h-421.143q-16.571 0-28.571-12.286t-12-29.429q0-17.714 12-30t28.571-12.286zM299.429 470.286h421.143q16.571 0 28.571 12.286t12 30q0 17.143-12 29.429t-28.571 12.286h-421.143q-16.571 0-28.571-12.286t-12-29.429q0-17.714 12-30t28.571-12.286zM299.429 345.143h421.143q16.571 0 28.571 12t12 29.714q0 17.143-12 29.429t-28.571 12.286h-421.143q-16.571 0-28.571-12.286t-12-29.429q0-17.714 12-29.714t28.571-12zM299.429 219.429h421.143q16.571 0 28.571 12t12 29.714q0 17.143-12 29.429t-28.571 12.286h-421.143q-16.571 0-28.571-12.286t-12-29.429q0-17.714 12-29.714t28.571-12z" />
<glyph unicode="&#xe006;" glyph-name="uniE006" d="M513.143 959.429q104 0 198.286-40.286t162.857-108.857 108.857-162.857 40.286-198.286-40.286-198.286-108.857-162.857-162.857-108.857-198.286-40.286-198.286 40.286-162.571 108.857-108.571 162.857-40.286 198.286 40.286 198.286 108.571 162.857 162.571 108.857 198.286 40.286zM370.857 672.571h280l-140 142.286zM290.286 309.143v280l-142.857-140zM736.571 309.143l142.857 140-142.857 140v-280zM376.571 443.429q0-55.429 39.429-94.857t94.857-39.429q56 0 95.143 39.143t39.143 95.143-39.143 95.143-95.143 39.143q-55.429 0-94.857-39.429t-39.429-94.857zM510.857 83.429l140 142.857h-280z" />
<glyph unicode="&#xe007;" glyph-name="uniE007" d="M126.286 956.571h770.857q41.143 0 64-9.714 8.571-3.429 14.857-29.714t6.286-46.286v-834.857q0-20-6.286-46.286t-14.857-29.714q-22.857-9.714-64-9.714h-770.857q-20 0-46.286 6.571t-29.714 15.143q-9.714 21.714-9.714 64v834.857q0 19.429 6.571 46t14.571 30q22.857 9.714 64.571 9.714zM358.286 228l349.143 204q15.429 9.143 15.429 21.714t-15.429 21.143l-349.143 204q-14.857 9.143-25.714 2.857t-10.857-24v-408q0-17.714 10.857-24t25.714 2.286z" />
<glyph unicode="&#xe008;" glyph-name="uniE008" d="M381.714 601.714l112 341.714q4 13.714 18.857 13.714 14.286 0 18.286-13.714l111.429-341.714h360q13.714 0 18.857-13.714 4-13.714-7.429-22.286l-291.429-211.429 112-344q4.571-13.143-6.857-21.714-4.571-4-12-4-6.857 0-11.429 4l-291.429 212-292.571-212q-12-8.571-23.429 0t-6.857 21.714l112 344-290.857 211.429q-11.429 8.571-6.857 22.286 4 13.714 18.857 13.714h358.857z" />
<glyph unicode="&#xe009;" glyph-name="uniE009" d="M511.429 958.286q104 0 198.286-40.286t162.857-108.857 108.857-162.857 40.286-198.286-40.286-198.286-108.857-162.857-162.857-108.857-198.286-40.286-198.286 40.286-162.857 108.857-108.857 162.857-40.286 198.286 40.286 198.286 108.857 162.857 162.857 108.857 198.286 40.286zM642.857 374.857l181.714 132.571q7.429 4.571 4.571 13.714-2.857 8.571-11.429 8.571h-225.143l-69.714 213.714q-2.857 8.571-11.429 8.571-9.143 0-12-8.571l-69.714-213.714h-224.571q-9.143 0-12-8.571-2.857-9.143 4.571-13.714l181.714-132.571-70.286-214.857q-2.857-8.571 4.571-13.714 7.429-5.714 14.857 0l182.857 132.571 182.286-132.571q2.857-2.286 7.429-2.286t6.857 2.286q7.429 4.571 4.571 13.714z" />
<glyph unicode="&#xe010;" glyph-name="uniE010" d="M589.714 890.857l-97.143-334.286q-4.571 2.857-12.286 8t-30.857 17.429-45.143 21.429-50.571 15.714-50.857 4.286q-36-3.429-83.143-15.143t-75.714-22l-29.143-9.714 97.714 337.143q8 4.571 22.857 11.143t59.429 18.571 87.714 14 100.857-13.429 106.286-53.143zM544 522.857l97.143 332.571q77.143-54.857 164.571-65.143 37.714-4.571 90.857 6.571t87.429 24.286l34.857 13.143-97.143-336q-1.143-0.571-13.429-6t-27.143-10.857-36-11.714-50-11.143-60.286-6.571-62.571 4.857-53.143 17.143-39.714 21.714-26.286 19.143zM1.143 180.571l96.571 337.143q4.571 2.286 12.286 5.429t31.429 11.429 46.857 14.571 53.429 10.286 56 2.286q90.286-6.286 178.857-66.286l-98.857-338.286q-4.571 2.857-12.286 7.714t-30.857 16.857-44.857 20.571-49.429 14.857-49.429 4.571q-129.714-10.286-189.714-41.143zM430.286 127.429l97.143 335.429q11.429-7.429 30.571-18.857t65.143-29.714 76.286-17.714q56 1.714 98.286 9.714t105.714 33.143l1.714 0.571-97.143-334.857q-12-5.714-32.571-13.714t-74.571-20.857-97.429-10.571-81.143 17.143-64 32.286-28 18z" />
<glyph unicode="&#xe011;" glyph-name="uniE011" d="M661.714 793.714q-28.571-34.286-69.429-54.857t-82-17.143q-5.714 41.143 10.571 83.429t43.714 74.286 69.429 53.714 80.286 23.429q5.143-42.857-9.714-85.714t-42.857-77.143zM713.143 710.286q124-8.571 186.857-101.143-5.143-2.857-13.714-8.857t-27.143-23.714-32.857-38.286-25.714-54-10.857-69.429q0.571-43.429 15.143-80.571t32.857-58.571 40.857-38.286 33.143-21.714 15.143-6.571q0-0.571-1.714-5.429t-4.571-12.571-6.857-18.286-9.714-23.143-12.571-26.286-16-29.143-19.429-30.286q-16-23.429-26-37.429t-26.571-32.571-30.857-28.857-33.429-18-39.143-8.286q-22.857-0.571-44.286 5.429t-36 13.714-38.286 14.286-49.429 6.571q-41.714 0-90-20.286t-77.429-21.429q-24-0.571-46.286 9.714t-43.714 32-35.714 39.714-34.857 47.714q-34.286 49.143-59.714 112.571t-39.143 132.857-6 140.857 40.286 127.429q33.714 58.286 89.714 92.571t121.143 35.429q36 0.571 93.714-22t74.286-22.571q14.857 0 46.857 13.143t71.714 24.857 76.286 8.857z" />
<glyph unicode="&#xe012;" glyph-name="uniE012" d="M297.714 916v-156.571q0-17.714-12.857-30.571t-30.571-12.857-30.571 12.857-12.857 30.571v156.571q0 17.714 12.857 30.571t30.571 12.857 30.571-12.857 12.857-30.571zM821.143 916v-156.571q0-17.714-12.857-30.571t-30.571-12.857-30.571 12.857-12.857 30.571v156.571q0 17.714 12.857 30.571t30.571 12.857 30.571-12.857 12.857-30.571zM1.714-61.143v893.143h194.286q-29.143-26.286-29.143-65.143 0-36.571 26.286-62.857h121.714q26.857 25.714 26.857 62.857 0 38.857-29.143 65.143h407.429q-29.143-25.714-29.143-65.143 0-37.714 26.286-62.857h121.714q26.286 26.286 26.286 62.857 0 38.857-29.143 65.143h186.286v-893.143h-1020.571zM321.143 449.143h127.429v127.429h-127.429v-127.429zM512 449.143h127.429v127.429h-127.429v-127.429zM703.429 449.143h127.429v127.429h-127.429v-127.429zM129.714 257.714h127.429v127.429h-127.429v-127.429zM321.143 257.714h127.429v127.429h-127.429v-127.429zM512 257.714h127.429v127.429h-127.429v-127.429zM703.429 257.714h127.429v127.429h-127.429v-127.429zM129.714 66.286h127.429v128h-127.429v-128zM321.143 66.286h127.429v128h-127.429v-128zM512 66.286h127.429v128h-127.429v-128z" />
<glyph unicode="&#xe013;" glyph-name="uniE013" d="M53.714 854.857l80-66.857 16.571 17.143q71.429 72 166 111.714t195.714 39.714h0.571q87.429 0 170.571-29.714t151.143-85.714l2.857-2.286q86.857-72.571 134.857-174.286t48.571-214.857l-96-18.286v16q0 92.571-38.857 175.714t-109.714 142q-115.429 95.429-264 95.429-79.429 0-153.143-29.429t-131.429-83.714l-20.571-20 88.571-74.286-241.714-45.714v247.429zM481.143 167.429v50.857q-136 10.286-148.571 148.571h84.571q-0.571-32 17.429-52.571t46.571-26.286v125.143q-6.286 2.286-19.429 5.143-26.286 6.857-44.286 14.571t-36.857 20.857-28.571 34-9.714 49.429q0 57.714 40.286 91.143t98.571 36.857v45.714h34.857v-45.714q57.714-6.286 94.286-37.714t40-89.714h-84.571q-0.571 23.429-15.143 40.286t-34.571 16.857v-105.714q24.571-5.714 30.857-7.429 28-8 49.143-18.571t33.429-23.429 20.286-24.286 11.143-26.286 4-24 0.857-22.286q0-11.429-4-25.143t-14.571-30.857-26.857-31.143-43.429-24.571-60.857-12.857v-50.857h-34.857zM481.143 497.714v97.143q-21.714 0-37.714-13.143t-16-36q0-19.429 12.286-30.286t41.429-17.714zM968 47.429l-75.429 62.286-16.571-17.143q-71.429-73.143-166.857-113.143t-197.143-40h-0.571q-88.571 0-172.571 30.286t-152 86.857q-87.429 72.571-135.429 175.143t-48 216.286v5.143l96.571 18.286q-0.571-8-0.571-23.429 0-92 38.857-175.143t109.714-142.571q114.286-94.857 263.429-94.857 81.143 0 155.143 29.714t131.714 85.714l20.571 20-93.714 77.714 242.857 46.286v-247.429zM516 402.857v-114.857q25.143 2.286 44.857 17.429t19.714 41.429q0 22.857-14 34.286t-50.571 21.714z" />
<glyph unicode="&#xe014;" glyph-name="uniE014" d="M182.286 890.857h256.571v68.571h146.286v-68.571h256.571v-92h-659.429v92zM836 657.714l-44.571-713.714h-558.857l-44.571 713.714h-76v91.429h800v-91.429h-76zM281.143 656.571l38.857-620h56l-13.143 620h-81.714zM484 36.571h56l12.571 620h-81.714zM648 36.571h56l38.857 620h-81.714z" />
<glyph unicode="&#xe015;" glyph-name="uniE015" d="M572.571 418.857v-474.857h-180.571v474.857h-125.714v170.857h125.714v145.714q0 44.571 14.571 83.143t43.429 69.714 76.857 49.143 109.714 18q30.857 0 60.857-1.714t44.857-3.429l14.857-1.714-4-159.429q-52.571 0.571-109.143 0.571-42.857 0-57.143-18t-14.286-57.429v-124.571h185.143l-8-170.857h-177.143z" />
<glyph unicode="&#xe016;" glyph-name="uniE016" d="M1007.429 251.429q17.714-29.714 7.143-67.429t-45.429-76.571h12l-9.714-48h-56q-20.571-15.429-45.143-28.571-85.143-46.857-164.571-47.714t-107.429 44.286q-17.143 29.143-7.714 65.429t42 74.571h-17.714l9.714 47.429h12q26.286 0.571 41.429 8t26 26.286h32.571q84.571 45.714 163.714 46.571t107.143-44.286zM846.286 23.429q37.714 16 65.714 36h-180.571q6.286 26.286 18.286 45.714t28.571 30.857 32.571 18 36 10.571l58.286 12q15.429 2.857 18.286 14.857 1.714 8-6 11.429t-22 3.429q-12.571 0-20.857-1.143t-16.857-7.429-12-17.714h-81.714q22.286 74.286 132.571 74.286 74.286 0 97.143-23.429-23.429 41.143-90.857 47.429t-144-25.714l-8-3.429h10.857l-40.571-189.714h-72l23.429 108h-34.286q-51.429-61.714-31.429-111.429 17.714-47.429 88-56.857t151.429 24.286zM509.143 163.429q2.857-1.714 17.143-3.143t28.286-2.571 25.714-8 11.714-18.857q0-20.571-17.429-35.714t-62-15.143q-37.143 0-51.429 6.286t-17.143 17.143q-1.143 4-1.143 8t0.571 6.286l0.571 1.714h54.286q-0.571-1.143-0.286-2.857t4.857-4.857 14.286-3.143 14.286 2.857 4.571 4v4.571q0 4.571-10.286 6.571t-26.286 3.143-22.857 3.429q-22.857 8-22.857 25.143l-38.857-73.714h-45.714v62.857l-29.714-62.857h-45.714l-4.571 86.286h-72l-3.429-14.857h70.857l-6.286-28h-70.857l-4-15.429h76.571l-6.857-28h-121.714l27.429 114.286h152.571l-1.143-69.143 32.571 69.143h37.143v-69.143l30.286 69.143h44.571l-5.714-10.857q20 14.857 62.286 14.857 62.857 1.143 65.714-28l-1.143-9.143h-53.143q-0.571 0.571 0.286 3.143t-3.714 5.429-14.286 2.857q-20 0-18.857-9.143 0-2.857 2.857-4.571zM172.571 198.857l-26.857-114.286h-49.143l-33.714 65.143-14.857-65.143h-42.857l26.286 114.286h52l30.286-62.857 15.429 62.857h43.429zM822.857 107.429h142.857q36 42.286 37.714 82.857-9.714-44-76.571-56l-71.429-12.571q-22.857-4-32.571-14.286z" />
<glyph unicode="&#xe017;" glyph-name="uniE017" d="M705.143 215.429v-49.714q-9.143 10.286-35.429 10.286-32 0-45.714-17.714-10.286-12-10.286-29.714 0-18.857 10.286-30.286 13.714-16.571 43.429-16.571t39.429 13.143l3.429-12h41.143q-1.714 8.571-1.714 14.286v118.286h-44.571zM103.429 214.286v-69.143l-50.286 69.143h-51.429v-131.429h46.286v70.286l52.571-70.286h48.571v131.429h-45.714zM530.286 113.143h-44q0-1.143 0.286-2.571l0.571-2.857t0.857-3.143q7.429-23.429 64.571-23.429 60 0 60 29.143 0 22.857-38.286 28l-28.571 4q-14.286 2.286-14.286 5.143 0 4.571 16.571 4.571 13.143 0 16-3.429 0.571-0.571 1.143-2t0.571-2h42.286q1.143 4-1.714 10.857-9.714 21.714-60 21.714-28 0-43.143-7.714t-15.143-21.429q0-23.429 36.571-28l26.857-3.429q17.714-2.857 17.714-6.286 0-5.714-16.571-5.714-18.286 0-20.571 4.571-0.571 1.143-1.143 2.857-0.571 0.571-0.571 1.143zM200.571 119.429h91.429q1.143 16.571-4.571 28.571-15.429 28.571-61.714 28.571-40 0-57.714-18.857-11.429-11.429-11.429-28.571t10.857-29.143q15.429-18.857 57.714-18.857 38.857 0 55.429 15.429 8 7.429 10.286 17.143h-43.429q0-2.286-5.143-5.143-6.857-3.429-17.143-3.429-14.857 0-20.571 5.714-2.857 2.857-4 8.571zM845.714 82.857h42.286q-2.286 2.857-2.286 21.143 0 17.714 0.571 23.429 0 16.571-2.286 23.429-6.286 25.714-57.714 25.714-45.714 0-59.429-19.429-4-6.286-5.143-15.429h42.857q0 3.429 4.571 6.286 4.571 3.429 15.429 3.429 13.143 0 16-6.286 1.714-3.429 1.714-6.286-19.429 1.143-27.429 1.143-56-1.714-58.286-28-0.571-2.857-0.571-7.429 1.714-22.857 42.857-22.857 32 0 44.571 9.143 0-8 2.286-8zM432.571 116l-17.714 58.286h-49.143l-17.714-58.286-18.857 58.286h-45.714l37.143-91.429h50.857q15.429 39.429 16 44l1.714 9.714q1.143-8 1.143-9.714l16-44h50.857l37.714 91.429h-44zM1022.857 174.286h-46.286q0-0.571-12.286-28t-12.857-28.571q0 1.143-12.571 28.571t-12.571 28h-47.429l48.571-92-14.857-28.571h47.429zM248 138.286h-47.429q1.714 5.143 4.571 8 7.429 6.286 20 6.286 14.286 0 19.429-6.857 3.429-2.857 3.429-7.429zM662.857 142.286q6.857 6.857 20 6.857 12 0 18.286-6.286 5.143-4.571 5.143-14.286 0-9.143-5.143-14.286-5.143-6.286-19.429-6.286t-19.429 7.429q-4 4.571-4 13.143 0 8 4.571 13.714zM824 121.714q8.571 0 18.857-2.286-4.571-14.857-26.286-14.857-14.857 0-14.857 6.286 0 10.857 22.286 10.857z" />
<glyph unicode="&#xe018;" glyph-name="uniE018" d="M59.429 101.714h-0.571q-4.571-19.429-26.857-19.429-16.571 0-22.857 9.429t-6.286 29.429q0 21.714 4.286 29.143t23.143 17.714q3.429 1.714 8.857 4.571t7.429 4.286 5.429 3.429 4.571 4 2 4.571 0.857 6q0 10.857-8 10.857-8.571 0-8.571-12v-16h-40v18.857q0 16.571 12.857 26t36.286 9.429q46.857 0 46.857-40.571v-93.143q0-2.857 1.143-13.143h-38.857zM146.857 228.571v-16.571q8 20 28.571 20 21.714 0 26.857-20 8 20 28 20 17.714 0 23.143-9.714t5.429-31.429v-105.714h-7.429l-0.571 4-1.714 4q0 1.143-1.143 3.429v0.571l-1.714 4.571v0.571q0 1.143-2.286 5.714l-3.429 4-0.571 1.714q0 1.143-1.143 1.714l-0.571 1.143v3.429q0 1.714-0.571 2.857-1.143 1.143-0.571 1.714 0 0.571 1.143 1.714 0.571 0.571 0.571 2.571t1.143 2.571q1.143 0 1.143 2.286l0.571 0.571 0.571 1.143h8l-6.857 1.714v2.286l-0.571 1.143 9.714 2.286h-10.857q0 0.571-0.571 0.571l9.714 8-11.429-6.286q-3.429 1.143-4 1.143l4 10.857-6.857-9.714h-2.857l-5.143 9.714 2.286-10.857-2.857-1.714q0 1.143-1.714 1.143-0.571 1.143-0.571 7.429 1.143 5.714 1.143 9.143 0 1.143-0.286 4t-0.286 4q0 4 1.143 5.143 1.714 2.857 1.143 4v2.286l-0.571 1.143q-1.143 1.143-1.143 2.857l5.143 2.286q0 0.571 0.286 0.571t0.286 0.571v0.571q-0.571 0.571-0.571 1.143l-0.571 0.571v1.143t0.286 0.571 0.286 0.571q0 1.143-0.571 1.714-3.429 1.143-5.143 1.143v1.143l1.143 1.143 2.857 5.143-1.143 1.714-0.571 0.571q-0.571 0.571-0.571 1.143l-0.571 0.571q-0.571 0.571-1.143 2.857-1.143 4-2.286 0l-1.143-3.429-0.571-1.143v-0.571l-0.571-0.571h-0.571v-1.714q-0.571-0.571-0.571-1.143h-0.571v-3.429h0.571q0-1.714 0.571-2.286l-4.571-1.143-1.143-1.143v-1.714q0.571-0.571 0.571-2.286l-0.571-0.571q-1.143-1.714 2.286-3.429l1.143-0.571v-0.571l-0.571-1.143v-1.143q0.571-0.571 0.571-1.143l-0.571-1.143v-3.429q1.143-2.286 1.143-3.429v-2.286q-0.571-0.571-0.571-1.714 0-0.571-0.571-1.714t-0.571-1.714q-0.571-2.857-0.571-8.571v-2.286l-0.571-6.286-1.143-10.286-2.857-2.857q-4.571-5.714-2.857-10.857 0-0.571 0.571-1.143t0.571-1.143q-1.714-1.714-1.714-5.143-0.571-1.143-0.571-2.857t-0.571-2.286q-1.143-1.714 0.857-3.429t1.429-2.857-0.571-2.286q-0.571-3.429-1.143-4-1.714-5.714 0-7.429 2.286-2.286 1.143-6.286v-1.143h-41.143v101.714q0 12-8.571 12-8 0-8-12v-101.714h-39.429v143.429h38.286zM768 82.857q-30.286 0-40 14t-9.714 60.286q0 46.857 9.714 60.571t40 13.714 39.714-13.714 9.429-60q0-46.857-9.429-60.857t-39.714-14zM269.143 85.143v144h30.857l32.571-69.143v69.143h30.857v-144h-28.571l-34.857 74.286v-74.286h-30.857zM441.143 172v-28.571h-31.429v-28.571h44v-29.714h-77.714v144h77.714v-29.714h-44v-27.429h31.429zM462.857 229.143h33.714l12.571-77.714 15.429 66.286h20l16.571-67.429 12.571 78.857h31.429l-28-144h-26.857l-16.571 70.857-16-70.857h-26.857zM687.429 129.143v-44h-33.714v44l-36 100h34.857l18.857-57.143 18.857 57.143h33.143zM825.714 229.143h53.143q20 0 28.571-11.429t8.571-37.714q0-34.286-18.857-42.857l24-52h-34.857l-20 43.429h-7.429v-43.429h-33.143v144zM987.429 229.143h32.571l-36-54.286 37.714-89.714h-35.429l-24 57.143-3.429-4.571v-52.571h-33.143v144h33.143v-42.286zM752 164v-14.286q0-25.714 3.143-32.286t12.857-6.571 12.571 6.286 2.857 32v14.286q0 26.286-2.857 32.571t-12.571 6.286q-10.286 0-13.143-6.286t-2.857-32zM858.857 156.571h14.857q9.714 0 9.714 23.429 0 21.143-9.714 21.143h-14.857v-44.571zM59.429 126.857v30.857q-2.286-2.286-5.429-4.857t-4.857-3.714-3.429-3.143-2.286-4-0.571-4.286v-10.857q0-12 8-12 8.571 0 8.571 12z" />
<glyph unicode="&#xe019;" glyph-name="uniE019" d="M233.714 288.571h-9.714l-2.857 5.143q-8-7.429-26.857-7.429-26.857 0-34.857 15.429-4-15.429-36.571-15.429-29.143 0-35.429 12v-9.714h-21.143v41.714l-12.571-41.714h-17.714l-12 41.714v-41.714h-21.143v58.286h32.571l9.714-33.714 9.714 33.714h32.571v-10.857q4.571 13.143 32.571 13.143 36 0 37.714-19.429h-26.857q0 3.429-3.429 4.571-2.286 1.143-7.429 1.143-9.143 0-9.143-4 0-2.857 2.857-2.857l27.429-4q10.857-1.714 14.857-6.857 0.571 31.429 38.286 31.429 36.571 0 40-22.286h-26.286q-1.143 4.571-4.571 5.714-3.429 1.714-8 1.714-15.429 0-15.429-16.571t17.143-16.571q10.286 0 13.143 7.429h-9.143v13.143h32.571v-33.143zM87.429 306.286h25.714q0-2.286 2.286-4.571 3.429-1.143 8-1.143 9.143 0 9.143 4.571 0 3.429-4 4l-26.286 4q-12 1.714-14.857 10.286v-17.143zM2.857 85.143v186.857h78.286l-50.286-158.857 74.286 158.857h128.571l-186.286-186.857h-44.571zM607.429 85.143l42.286 146.286h-85.714q-18.857 0-23.429-13.143v-1.714l-0.571-1.143q0-5.143 6.286-8.571 4-2.286 14.857-4 30.857-5.714 41.714-12 18.857-9.143 18.857-28.571 0-6.857-2.857-17.143-7.429-24.571-26.857-40.571-25.714-19.429-71.429-19.429h-120.571l-21.143 98.857-29.143-98.857h-91.429v25.714h-79.429l41.714 41.714h38.286v53.714l-122.857-121.143h-72l186.857 186.857h56.571v-142.286l41.143 142.286h86.857q29.714 0 41.714-5.714 19.429-10.857 17.143-37.143l4.571 6.857q25.714 36 80 36h138.857l-54.286-186.857h-56zM889.714 85.143h-54.857l19.429 68-21.714 72.571h-21.714l-41.143-140.571h-55.429l40.571 140.571h-41.714l13.714 46.286h156l16-62.286 54.286 62.286h68l-111.429-118.857zM380 189.143h22.857q26.857 0 33.143 21.714 2.857 6.286 1.143 10.571t-2.857 6.571-5.714 3.143-6.857 1.143-6.286 0.286h-22.857zM450.286 125.714h86.286q8 0 14.857 2.286 9.143 2.857 12.571 10.857v2.857q0 4.571-5.714 6.857-1.143 0.571-4 1.143t-7.714 1.714-8.286 2.286l-12.857 2.857t-8.857 1.714q-16 6.286-21.714 10.857-10.857 9.143-12.571 22.857-4.571-8-14.857-17.143-9.143-8-26.857-14.286z" />
<glyph unicode="&#xe020;" glyph-name="uniE020" d="M340.571 957.143h-57.714l-43.429-141.714-43.429 141.714h-60l76-216.571v-159.429h54.286v159.429zM346.857 721.714q0-73.714 10.857-102.857 17.143-45.714 65.714-45.714t65.143 45.143q10.857 30.286 10.857 103.429 0 74.286-10.857 103.429-16.571 45.714-65.143 45.714t-65.714-45.714q-10.857-29.143-10.857-103.429zM629.714 863.429v-180.571q0-23.429-2.857-34.857-5.143-18.286-20.571-18.286-14.286 0-18.286 16.571-2.857 10.286-2.857 32.571v184.571h-48.571v-221.714q0-68.571 48.571-68.571 29.714 0 45.714 36v-28h49.143v282.286h-50.286zM398.286 718.286v26.286q0 38.286 1.714 47.429 4 28 23.429 28t23.429-32q1.143-5.714 1.143-51.429v-28q0-48-0.571-52.571-5.143-32.571-24.571-32.571t-24 37.714q-0.571 3.429-0.571 57.143zM216.571 526.286h591.429q61.714 0 105.714-43.714t44-105.429v-289.143q0-61.714-44-105.429t-105.714-43.714h-591.429q-62.286 0-106 43.714t-43.714 105.429v289.143q0 61.714 43.714 105.429t106 43.714zM153.714 369.714h61.714v-312h53.714v312h61.714v61.714h-177.143v-61.714zM588.571 57.714v29.143q12-36.571 44-36.571 38.286 0 50.286 52.571 6.286 25.714 6.286 93.714 0 68.571-5.714 94.857-12 54.286-49.714 54.286-30.286 0-42.857-31.429v117.143h-49.714v-373.714h47.429zM870.857 189.143v21.143q0 77.143-14.857 103.429-18.286 32-58.857 32-41.143 0-60-29.143-11.429-18.286-14.857-52.571-1.714-17.143-1.714-57.143 0-49.143 1.714-67.429 4.571-41.143 17.714-62.286 16.571-26.857 56-26.857 37.143 0 55.429 21.714 18.286 22.857 18.286 70.857 0 3.429-0.571 5.714v5.143h-46.857q0-54.857-25.143-54.857-16.571 0-22.857 27.429-2.286 12-2.286 44.571 0 14.857 0.571 18.286h98.286zM447.429 338.286v-179.429q0-25.714-2.286-34.857-5.143-18.286-20.571-18.286-13.714 0-18.286 16.571-2.857 11.429-2.857 32.571v183.429h-48v-220.571q0-67.429 48-67.429 30.286 0 45.714 35.429v-28h48.571v280.571h-50.286zM772 241.714l-0.571 3.429q-1.143 26.286 5.714 39.429 6.286 11.429 18.857 11.429 16 0 21.143-16 3.429-10.286 3.429-34.857v-11.429h-48.571v8zM616 291.429q17.714 0 22.286-38.857 0.571-4.571 0.571-55.429 0-44-1.143-55.429-3.429-38.286-21.714-38.286-20 0-24.571 31.429-1.714 10.286-1.714 51.429 0 56 0.571 61.714 5.143 43.429 25.714 43.429z" />
<glyph unicode="&#xe021;" glyph-name="uniE021" d="M512.571 957.143q-104 0-198.286-40.286t-162.571-108.571-108.571-162.571-40.286-198.286q0-138.286 68.286-255.429t185.714-185.429 255.714-68.286q103.429 0 197.714 40.286t162.571 108.571 108.571 162.571 40.286 197.714q0 138.286-68.286 255.714t-185.429 185.714-255.429 68.286z" />
<glyph unicode="&#xe022;" glyph-name="uniE022" d="M512.571-65.714l-149.714 257.143q-110.857 45.143-179.714 145.429t-68.857 223.714q0 80.571 31.429 154.286t84.571 127.143 126.857 84.857 154.857 31.429q80.571 0 154.286-31.429t126.857-84.857 84.571-127.143 31.429-154.286q0-126.286-72.286-228.571t-187.143-144.571z" />
<glyph unicode="&#xe023;" glyph-name="uniE023" d="M1022.857 410.857h-65.143q-8.571-107.429-64.571-198.286t-146.571-146.857-198.571-64.571v-65.143h-72v65.143q-107.429 8.571-198.286 64.571t-146.857 146.857-64.571 198.286h-65.143v72h65.143q8.571 107.429 64.571 198.286t146.857 146.857 198.286 64.571v65.143h72v-65.143q108-8.571 198.571-64.571t146.571-146.857 64.571-198.286h65.143v-72zM722.857 482.857h85.714q-12.571 101.714-85.429 174.857t-175.143 85.714v-85.714h-72v85.714q-102.286-12.571-175.143-85.429t-85.429-175.143h85.714v-72h-85.714q12.571-101.714 85.429-174.857t175.143-85.714v85.714h72v-85.714q102.286 12.571 175.143 85.714t85.429 174.857h-85.714v72zM512 523.429q32 0 54.286-22.286t22.286-54.286-22.286-54.286-54.286-22.286-54.286 22.286-22.286 54.286 22.286 54.286 54.286 22.286z" />
<glyph unicode="&#xe024;" glyph-name="uniE024" d="M512 958.286q103.429 0 197.714-40.286t162.571-108.571 108.571-162.571 40.286-197.714-40.286-197.714-108.571-162.571-162.571-108.571-197.714-40.286q-104 0-198.286 40.286t-162.286 108.571-108.286 162.571-40.286 197.714 40.286 197.714 108.286 162.571 162.286 108.571 198.286 40.286zM517.143 644.571l121.714-156h-392.571v-79.429h392.571l-121.714-155.429 6.857-54.857 299.429 249.714-299.429 250.857z" />
<glyph unicode="&#xe025;" glyph-name="uniE025" d="M880.571 540.571h98.286q14.286 0 25.714-10t13.714-24.286q3.429-26.286 3.429-58.286l-3.429-57.714q-2.286-14.286-13.714-24.286t-25.714-10h-98.286q-12.571 0-30-19.429t-24.857-33.714q-5.143-10.286-1.714-25.143t13.714-24.571l69.714-69.714q9.714-9.714 10.571-24.857t-8.286-26l-81.714-81.714q-11.429-9.143-26.286-8.571t-25.143 10.857l-69.143 69.143q-14.286 9.143-37.429 8t-38.571-6.286q-10.857-4-18.857-16.857t-8-27.143v-98.286q0-14.286-10-26t-24.286-13.429q-26.857-4-58.286-4-13.714 0-28.286 1.143t-22 2.286l-8 0.571q-14.286 1.714-24.286 13.429t-10 26v98.286q0 12.571-19.143 29.714t-33.429 24.571q-10.857 5.143-25.429 1.714t-24.857-13.714l-69.143-69.143q-10.286-10.286-25.429-11.143t-26 8.286l-81.714 82.286q-9.143 10.857-8.286 26t10.571 24.857l69.714 69.714q8.571 13.714 7.429 37.429t-6.286 38.571q-4 10.857-16.857 18.857t-27.143 8h-98.286q-14.286 0-25.714 10t-13.714 24.286q-3.429 26.286-3.429 58.286l3.429 57.714q2.286 14.286 13.714 24.286t25.714 10h98.286q12.571 0 30.286 19.429t24.571 33.714q5.143 10.286 1.429 25.143t-13.429 24.571l-69.714 69.714q-9.714 9.714-10.571 24.857t8.286 26l81.714 81.714q11.429 9.143 26.286 8.571t25.143-10.857l69.143-69.143q14.286-9.143 37.429-8t38.571 6.286q10.857 4 18.857 16.857t8 27.143v98.286q0 14.286 10 26t24.286 13.429q26.857 4 58.286 4 13.714 0 28.286-0.857t22-2l7.429-1.143q14.286-1.714 24.286-13.143t10-26.286v-98.286q0-12.571 19.429-29.714t33.714-24.571q10.857-5.143 25.429-1.714t24.857 13.714l69.143 69.143q10.286 10.286 25.143 10.857t26.286-8.571l81.714-81.714q9.143-10.857 8.286-26t-10.571-24.857l-69.714-69.714q-6.286-6.286-7.429-22.286t1.143-30.571 5.143-23.143q4-10.857 16.857-18.857t27.143-8zM512 261.714q77.143 0 131.714 54.571t54.571 132.286q0 77.143-54.571 131.714t-131.714 54.571-132-54.571-54.857-131.714q0-77.714 54.857-132.286t132-54.571z" />
<glyph unicode="&#xe026;" glyph-name="uniE026" d="M170.857 960h681.714q70.857 0 120.857-49.714t50-120.571v-681.714q0-70.857-50-120.571t-120.857-49.714h-681.714q-70.286 0-120.286 49.714t-50 120.571v681.714q0 70.857 50 120.571t120.286 49.714zM494.286 188.571l276 464q0.571 1.143 9.143 3.143t9.143 3.143q1.714 2.857 12 12.571t10.286 15.429q0 22.857-23.714 40.286t-48.857 17.429q-28.571 0-45.143-22.286h-0.571q-4-5.143-7.429-12.571l-240.571-394.286-110.857 135.429q-17.143 25.714-48 25.714-24 0-40.857-16.857t-16.857-40.857q0-25.143 17.143-41.143l161.714-198.286q1.143-1.714 4-6.286t3.714-6 3.429-4.571 4.286-4.286 4.571-2.571 6.286-2 8-0.571q17.714 0 32.286 9.714t20.857 25.714z" />
<glyph unicode="&#xe027;" glyph-name="uniE027" d="M852.571 959.429h-681.714q-70.286 0-120.286-50t-50-120.286v-681.714q0-70.857 50-120.857t120.286-50h681.714q70.857 0 120.857 50t50 120.857v681.714q0 70.286-50 120.286t-120.857 50z" />
<glyph unicode="&#xe028;" glyph-name="uniE028" d="M512 958.286q-104 0-198.286-40.571t-162.857-108.857-108.857-162.857-40.286-198.571 40.286-198.286 108.857-162.857 162.857-108.857 198.286-40.286 198.571 40.286 162.857 108.857 108.857 162.857 40.571 198.286-40.571 198.571-108.857 162.857-162.857 108.857-198.571 40.571z" />
<glyph unicode="&#xe029;" glyph-name="uniE029" d="M512 957.714q104 0 198.571-40.571t163.143-108.857 109.143-163.143 40.571-198.857-40.571-198.571-109.143-162.857-163.143-108.857-198.571-40.571-198.571 40.571-162.857 108.857-108.857 162.857-40.571 198.571 40.571 198.857 108.857 163.143 162.857 108.857 198.571 40.571zM512 227.429q90.857 0 155.143 64.286t64.286 154.571q0 90.857-64.286 155.143t-155.143 64.286-154.857-64.286-64-155.143q0-90.286 64-154.571t154.857-64.286z" />
<glyph unicode="&#xe030;" glyph-name="uniE030" d="M41.714 320.571l160 68.571q53.143-17.143 110.857-17.714h19.429q-1.143 62.857 27.429 120.286t82.857 101.429q74.857 61.143 181.143 81.714-25.714 80-109.429 132.857t-191.714 55.143q-85.714 1.714-159.143-29.429t-116.571-87.143-44.286-122.857q-1.714-68.571 44-129.714 13.714-17.714 18.571-42t1.429-46.571-8.571-41.714-10.857-30.857zM821.714 159.429l159.429-77.714q-2.286 4.571-5.429 12.286t-10 30-9.143 42.571 2 45.429 18 42.857q45.143 58.857 44.571 129.714-1.143 49.714-27.143 94.857t-68.857 77.143-101.714 50.286-122.857 17.143q-86.286-1.714-157.714-33.714t-112.571-87.143-40-122q1.143-49.714 27.143-94.857t68.857-77.143 101.429-50.286 122.571-17.143q57.143 0.571 111.429 17.714z" />
<glyph unicode="&#xe031;" glyph-name="uniE031" d="M1023.429 816q-42.857-65.143-104.571-108.571 0.571-9.143 0.571-27.429 0-84-24.571-168.286t-74.857-161.429-120-136.571-167.429-94.857-209.714-35.429q-173.714 0-321.714 94.286 20.571-2.857 50.286-2.857 146.857 0 260 89.714-68 1.143-121.714 41.714t-73.714 104q17.714-4 39.429-4 26.857 0 54.857 7.429-72.571 14.857-120.286 72.571t-47.714 133.143v2.286q45.714-24.571 94.857-26.286-42.857 28.571-68 74.857t-25.143 100q0 57.143 28.571 105.143 78.857-96.571 191.143-154.571t240.857-64.286q-5.143 23.429-5.143 48 0 86.857 61.429 148.286t148.286 61.429q44 0 84-17.714t69.143-48.571q69.714 13.714 133.143 50.857-24.571-76-92.571-116 65.143 8 120.571 33.143z" />
<glyph unicode="&#xe032;" glyph-name="uniE032" d="M198.857 60l-140.571-89.143-22.857 22.857 89.143 140.571 52.571 42.286 10.286-10.286 275.429 276-56 56 63.429 64q51.429-5.714 87.429 30.286 36.571 36.571 30.857 87.429l278.857 278.857 156-156-278.857-278.857q-50.857 5.714-87.429-30.857-36-36-30.286-87.429l-64-63.429-56 56-275.429-275.429 9.714-10.286zM391.429 406.857l-102.857 102.857q0 0.571-0.571 0.571-56-19.429-116.857-5.429t-104.857 58.571q-42.286 41.714-56.857 99.143t0.857 111.143l123.429-122.857 120.571 32 32.571 121.143-123.429 122.857q53.714 15.429 111.143 0.857t99.714-56.857 56.857-100.286-1.429-112.286l4.571-3.429 65.714-66.286q-8.571-1.714-17.714-1.714h-9.143l-12 1.714-89.714-89.714 17.714-17.714 38.286-38.857zM652.571 436.571l288.571-288.571q30.286-30.286 30.286-73.143t-30.286-72.571q-29.714-29.714-72.571-29.714t-72.571 29.714l-325.714 325.714 36 36 56-56.571 81.714 81.143 8 8.571-1.143 12q-1.714 13.714 1.714 27.429zM824 116l-13.714-52 41.714-41.714 52 13.714 13.714 52-42.286 41.714z" />
<glyph unicode="&#xe033;" glyph-name="uniE033" d="M512.571 704v63.429q-64 0-122.571-25.143t-100.857-67.429-67.429-100.857-25.143-122.571q0-130.286 92.571-224l-89.143-89.714q-62.857 62.857-96.571 144t-33.714 169.714q0 89.714 35.143 171.714t94.571 141.143 141.429 94.286 171.714 35.143v63.429l197.143-134.286zM735.429 674.857l89.143 89.714q62.857-62.286 96.571-143.429t33.714-169.714q0-89.714-35.143-171.714t-94.286-141.429-141.143-94.571-171.714-35.143v-62.857l-177.143 157.143 177.143 95.429v-62.857q64 0 122.571 25.143t100.857 67.429 67.429 100.857 25.143 122.571q0 63.429-24 121.143t-69.143 102.286z" />
<glyph unicode="&#xe034;" glyph-name="uniE034" d="M829.143 942.857q95.429-95.429 144.857-217.143t49.429-251.429q0-130.286-49.429-252.571t-144.857-217.714q-14.857-14.857-36-14.857-21.714 0-36 14.857-14.857 14.857-14.857 36t14.857 36q81.143 81.143 122.857 184.286t41.714 214q0 109.714-41.714 212.571t-122.857 184q-14.857 14.857-14.857 36t14.857 36 36 14.857 36-14.857zM490.286 53.714l-338.286 251.429h-151.429v336.571h151.429l338.286 251.429v-839.429zM668.571 781.714q62.286-62.286 94.857-142.571t32.571-165.429-32.286-165.429-95.143-143.143q-14.857-14.857-36-14.857-21.714 0-36 14.857-14.857 14.857-14.857 36t14.857 36q48 48 72.857 109.429t24.857 127.143-24.857 126.857-72.857 109.143q-14.857 14.857-14.857 36t14.857 36 36 14.857 36-14.857z" />
<glyph unicode="&#xe035;" glyph-name="uniE035" d="M512 957.714q104 0 198.286-40.286t162.857-108.571 108.857-162.857 40.286-198.571-40.286-198.286-108.857-162.857-162.857-108.857-198.286-40.286-198.286 40.286-162.857 108.857-108.857 162.857-40.286 198.286 40.286 198.571 108.857 162.857 162.857 108.571 198.286 40.286zM596 650.286q32 0 54.571 21.429t22.571 52.857q0 28.571-18 45.714t-46 17.143q-30.857 0-53.714-21.714t-22.857-52.571q0-28.571 17.429-45.714t46-17.143zM482.286 530.286l-64.571-164q-5.714-13.143-13.143-32.857t-16.286-51.714-8.857-52q0-50.857 56.571-50.857 42.857 0 92.571 30.286t80 63.714 30.286 48.286q0 5.714-3.714 9.714t-7.714 4q-5.143 0-22.286-19.714t-37.429-39.429-32.286-19.714q-10.857 0-10.857 12.571 0 9.714 15.429 52.571l66.857 181.143q12 32 12.286 55.714t-9.429 35.714-22.571 17.429-29.429 5.429q-74.286 0-139.429-62.286-53.143-53.143-53.143-68 0-4.571 3.714-8.286t8.286-3.714q6.857 0 23.714 20.286t37.143 40.571 35.143 20.286q6.857 0 10-6.286t-0.857-18.857z" />
<glyph unicode="&#xe036;" glyph-name="uniE036" d="M1023.429 725.714l-514.286-416.571-508.571 416.571h1022.857zM33.143 84.571v599.429l476-455.429 488 450.857v-594.857h-964z" />
<glyph unicode="&#xe037;" glyph-name="uniE037" d="M639.429 197.143l133.143 133.143q37.143-8 100.286-39.143t107.714-58.571l44.571-27.429q-16.571-121.714-94.571-189.714t-200.286-54.857q-18.857 1.143-51.429 9.143t-87.143 28.857-112 51.429-124.286 82.571-126.571 116.571-116.857 159.714-96 205.429q-11.429 33.714-13.143 74.286t8 81.429 27.714 76.857 48.286 63.714 68 39.714q28 10.286 52.286 5.429t44.571-17.429 37.429-34.857 30.571-46.857 24-54 17.429-56 10.857-52.857l-114.286-114.857q0-2.857 0.571-8.571t8.571-26.571 22.286-44.857 46.286-64 76-84 83.429-76 64.857-46.286 44.286-22.286 26.857-8.571z" />
<glyph unicode="&#xe038;" glyph-name="uniE038" d="M404.571 958.857q82.286 0 156.857-32t128.571-86 86-128.857 32-157.143-32-156.857-86-128.571-128.571-86-156.857-32-156.857 32-128.857 86-86.286 128.571-32 156.857 32 157.143 86.286 128.857 128.857 86 156.857 32zM404.571 283.429q55.429 0 105.429 21.429t86.571 58 58 86.571 21.429 105.429-21.429 105.714-58 86.857-86.571 58-105.429 21.429q-73.714 0-136.286-36.286t-98.857-98.857-36.286-136.286q0-112.571 79.429-192.286t192-79.714zM571.429 258.857l314.286-314.286q15.429-15.429 45.429-7.714t56.286 34q26.286 26.857 34 56.286t-8.286 45.429l-313.714 313.714q-16 16-45.429 8.286t-56.286-34q-26.286-26.286-34-56.286t7.714-45.429z" />
<glyph unicode="&#xe039;" glyph-name="uniE039" d="M1005.143 760q20-56.571 17.429-116.571t-28.857-114.857q-16-33.714-61.143-88.286t-94.286-105.143-111.429-110-95.714-90-63.714-57.429q-23.429-20.571-54.857-20.571-18.857 0-34.286 7.429l-0.571 0.571h-1.714q-10.857 5.714-18.857 12.571-30.286 26.857-63.714 57.429t-95.714 90-111.429 110-94.286 105.143-61.143 88.286q-26.286 55.429-28.571 116.286t17.143 114.857 60 99.714 96 72q84.571 38.857 177.714 23.429t158.857-77.714q66.286 62.286 159.429 77.714t177.714-23.429q54.857-25.714 95.143-70t60.857-101.429z" />
<glyph unicode="&#xe040;" glyph-name="uniE040" d="M1.714 702.857h255.429v255.429h-255.429v-255.429zM384.571 702.857h255.429v255.429h-255.429v-255.429zM767.429 702.857h255.429v255.429h-255.429v-255.429zM1.714 320h255.429v255.429h-255.429v-255.429zM384.571 320h255.429v255.429h-255.429v-255.429zM767.429 320h255.429v255.429h-255.429v-255.429zM1.714-62.857h255.429v255.429h-255.429v-255.429zM384.571-62.857h255.429v255.429h-255.429v-255.429zM767.429-62.857h255.429v255.429h-255.429v-255.429z" />
<glyph unicode="&#xe041;" glyph-name="uniE041" d="M-1.143 832.571h1022.857v127.429h-1022.857v-127.429zM-1.143 576.571h1022.857v128h-1022.857v-128zM-1.143 321.143h1022.857v127.429h-1022.857v-127.429zM-1.143 65.143h1022.857v128h-1022.857v-128z" />
<glyph unicode="&#xe042;" glyph-name="uniE042" d="M513.143 269.714l305.714-305.714q20.571-20.571 40.571-20.571 22.286 0 44.571 22.286l96 96q25.143 25.714 23.429 43.429-1.714 17.143-23.429 40l-306.286 305.714 296 295.429q21.143 21.714 21.714 41.714 0 19.429-25.143 45.714l-101.143 100.571q-22.857 22.857-46.286 22.857-21.143 0-40.571-19.429l-295.429-295.429-292 292q-10.857 10.857-20.571 17.143-9.143 5.714-18.857 5.714-18.286 0-42.857-24.571l-95.429-96q-21.143-20-22.857-40.571-3.429-20 19.429-42.857l292-292-300.571-300.571q-20.571-20.571-20-42.857 0.571-21.714 23.429-44.571l100.571-98.857q26.286-26.286 46.857-26.286 10.857 0 20 5.714 9.143 5.143 20.571 15.429z" />
<glyph unicode="&#xe043;" glyph-name="uniE043" d="M138.286 832.571v-522.286q0-42.286 20.571-85.429t53.429-78.571 72.857-68.286 80-57.429 72.857-43.143 53.429-27.714l20.571-9.714q8 3.429 21.429 9.714t52.286 27.429 74.286 43.714 78.571 56.857 74 68.857 52.286 78 21.429 85.714v522.286q-66.286 0-122.571 7.143t-93.714 18.286-67.143 24.571-46 27.143-27.143 24.857-14.286 18.571l-3.429 6.857q-1.143-2.857-3.714-7.429t-14-17.714-27.429-25.143-46-26.857-66.857-25.429-93.143-17.714-122.571-7.143z" />
<glyph unicode="&#xe044;" glyph-name="uniE044" d="M608.571 588h-42.286q-40.571 0-58.286-33.714-11.429-20.571-11.429-59.429t11.429-59.429q3.429-6.857 6.286-10.286-29.714-5.143-44-32-10.857-21.143-10.857-59.429t10.857-59.429q14.286-27.429 45.143-32.571-5.714-6.857-8-12-10.857-21.143-10.857-59.429t10.857-60q14.286-28 47.429-32-6.286-6.286-11.429-15.429-10.857-21.714-10.857-60 0-37.714 10.857-59.429l3.429-5.714h-161.714q-89.143 0-152.286 62.857t-63.143 152.571v229.714q0 57.143 27.143 102.286t74.571 69.143q22.857 18.857 46.286 39.429t62.286 58.286 68.857 71.429 56.286 72.571 34.286 68.571v93.714q3.429 0.571 9.143 0.857t22.286-1.143 32-4.857 33.714-12.857 31.714-23.143 22.571-37.714 9.143-54.857q0-47.429-13.714-90.571t-30.286-68-31.429-46.857-16-31.143zM777.143 426.857h-207.429q-26.286 0-35.429 17.714t-9.143 50.286 9.143 50.286 35.429 17.714h207.429q26.286 0 35.429-17.714t9.143-50.286-9.143-50.286-35.429-17.714zM809.714 265.714h-277.714q-26.286 0-35.429 17.714t-9.143 50.286 9.143 50.286 35.429 17.714h277.714q25.714 0 35.143-17.714t9.429-50.286-9.429-50.286-35.143-17.714zM788 102.286h-218.857q-26.286 0-35.429 17.714t-9.143 50.286q0 32 9.429 50t35.143 18h218.857q25.714 0 35.143-18t9.429-50q0-32.571-9.143-50.286t-35.429-17.714zM730.286-65.143h-125.143q-25.714 0-35.143 18t-9.429 50q0 32.571 9.429 50.286t35.143 17.714h125.143q25.714 0 35.143-17.714t9.429-50.286q0-32-9.429-50t-35.143-18z" />
<glyph unicode="&#xe045;" glyph-name="uniE045" d="M987.429 810.286v-0.571q-3.429-6.286-6.857-10.857l-498.857-797.714q-12-27.429-36.857-44.571t-55.143-17.143q-53.714 0-83.429 45.714l-253.143 340.571q-29.714 29.714-29.714 70.857 0 41.714 28.857 70.857t70.571 29.143q25.143 0 46.857-12t35.429-32.571l190.857-232.571 413.714 677.714q5.143 12 12.571 21.143l0.571 0.571q29.714 38.286 77.714 38.286 41.714 0 70.857-29.143t29.143-70.286q0-25.143-13.143-47.429z" />
<glyph unicode="&#xe046;" glyph-name="uniE046" d="M512 960q138.286 0 256-68.571t186.286-186.286 68.571-256-68.571-256-186.286-186.286-256-68.571q-103.429 0-198 40.571t-162.857 108.857-108.857 162.857-40.571 198.571 40.571 198.571 108.857 162.857 162.857 108.857 198 40.571zM495.429 138.857l8.571 58.286q4.571-0.571 13.714-0.571 76 0 122.571 42t46.571 100.857q0 51.429-26.571 85.714t-93.429 66.857l-14.286 7.429q1.714 5.143 1.714 10.857 0 1.143-0.286 3.143t-0.286 3.143l14.286 97.143q30.857-13.143 58.286-44.571l60 68.571q-42.286 48-104 64.571l8.571 57.143h-45.143l-7.429-49.143q-2.857 0-8.571 0.286t-8.571 0.286q-68 0-115.143-38.286t-47.143-100q0-45.714 24.286-78.571t76.857-58.571l33.714-16.571-19.429-126.286q-52 16.571-84 55.429l-52.571-76.571q18.857-21.714 50.857-40.857t72-27.714l-9.714-64h44.571zM514.286 552h-2.286q-18.286 0-30.857-14.286-19.429 16-19.429 38.857 0 18.857 15.714 32.857t46.571 14h1.143zM517.714 285.143l17.714 113.143q24.571-13.714 35.714-27.143t11.143-31.714q0-23.429-18.571-38.857t-46-15.429z" />
<glyph unicode="&#xe047;" glyph-name="uniE047" d="M529.143 693.714v264q100.571-3.429 191.143-44.286t156.857-108.286 105.143-160.571 38.857-196.571-40.571-197.714-108.857-162.571-162.571-108.857-197.714-40.571-197.714 40.571-162.571 108.857-108.571 162.571-40.286 197.714 38.857 196.571 104.857 160.571 156.571 108.286 191.143 44.286v-264h-17.714q-37.714-2.286-66-11.143t-43.714-20-24.571-26.571-11.714-28.286-2.571-27.714v-61.714h166.286v175.429h35.429v-175.429h174.857v61.714q0 104-148.571 113.714h-26.286zM327.429 483.429v-158.857q0-60 47.429-104t118.857-44h44q66.286 0 116.286 44.571t50 103.429v158.857h-376.571z" />
<glyph unicode="&#xe048;" glyph-name="uniE048" d="M518.857 960q101.714 0 194.286-39.429t160.571-106.571 108.286-161.714 40.286-200.286q0-104-40.286-198.857t-108.286-163.429-160.857-109.143-194-40.571q-104 0-199.429 40.571t-164.857 109.143-110.571 163.429-41.143 198.857q0 105.714 41.143 200.286t110.571 161.714 164.571 106.571 199.714 39.429zM757.143 514.857h94.286q-45.143 98.857-49.714 134.857-6.286 22.857-20.571 31.714t-42.286 8.857h-449.143q-54.286 0-71.429-40.571-2.286-16-8.857-49.714t-12.286-59.429l-5.714-25.714h85.143l17.714 67.429q10.286 31.429 36 31.429h364q12.571 0 22.286-6t12.571-10.286 9.714-15.143zM321.143 214.286h400q6.286 0 12 14.571t5.714 26l-53.714 282.857q0 20-4 28t-13.714 8h-301.143q-17.714 0-17.714-36l-58.857-282.857q0-13.714 4.571-27.429 2.857-9.143 8.857-11.143t18-2zM456 443.429h-58.286v36h58.286v-36zM541.714 443.429h-58.857v36h58.857v-36zM626.857 443.429h-58.286v36h58.286v-36zM456 380.571h-58.286v26.857h58.286v-26.857zM541.714 380.571h-58.857v26.857h58.857v-26.857zM626.857 380.571h-58.286v26.857h58.286v-26.857zM456 317.714h-58.286v26.857h58.286v-26.857zM541.714 317.714h-58.857v26.857h58.857v-26.857zM626.857 317.714h-58.286v26.857h58.286v-26.857z" />
<glyph unicode="&#xe049;" glyph-name="uniE049" d="M505.714 959.429q104 0 199.143-39.714t164.286-107.143 110.286-161.714 41.143-199.429q0-104.571-41.143-199.429t-110.286-163.143-164.286-108.571-199.143-40.286q-106.286 0-200 40.286t-159.429 108.857-103.714 162.857-38 199.429q0 105.714 38 199.429t103.714 161.714 159.429 107.429 200 39.429zM825.143 348v282.857q0 20.571-30.286 20.571h-227.429l85.714 98.857-35.429 20-108.571-118.857h-3.429l-114.286 118.857-19.429-20 85.714-98.857h-227.429q-13.714 0-20.286-4.286t-6.571-16.286v-282.857q0-20 26.857-20h564.571q11.429 0 20.857 5.143t9.429 14.857zM633.714 348h-39.429v36.571h39.429v-36.571zM707.429 348h-47.429v36.571h47.429v-36.571zM788 348h-46.857v36.571h46.857v-36.571zM594.286 277.143h-156.571v-37.143h-126.857v-48.571h396.571v48.571h-113.143v37.143z" />
<glyph unicode="&#xe050;" glyph-name="uniE050" d="M1.714 744.571v214.857h1020.571v-214.857h-1020.571zM1.714 422.286v214.857h1020.571v-214.857h-1020.571zM1.714 100v214.857h1020.571v-214.857h-1020.571z" />
<glyph unicode="&#xe051;" glyph-name="uniE051" d="M553.143 836.571l18.857 77.143q5.714 22.286 25.429 34t41.429 6q22.286-5.714 34-25.143t6-41.714l-18.857-76.571q-5.714-22.286-25.429-34t-41.429-6.571q-22.857 6.286-34.286 25.714-11.429 20-5.714 41.143zM318.857 876.571l41.143-68.571q11.429-19.429 6-41.429t-24.857-34q-20-11.429-42-6t-34 24.857l-40.571 68.571q-11.429 19.429-6 41.429t24.857 34q20 11.429 42 6t33.429-24.857zM941.143 640l-68-40.571q-20-12-42-6.571t-33.429 25.429q-12 19.429-6.571 41.714t25.429 33.714l68 40.571q20 12 42 6.571t33.429-25.429q12-19.429 6.571-41.714t-25.429-33.714zM753.143 591.429q38.857-65.714 40-140.571t-35.143-140.286-102-104.286q-65.143-38.857-140-40t-140.286 35.143-104.286 101.429q-39.429 65.143-40.286 140t35.143 140.571 101.714 104.571q65.143 38.857 140 40t140.286-35.143 104.857-101.429zM337.143 342.286q43.429-72.571 125.143-93.143t154.857 22.857q72.571 43.429 92.857 125.429t-23.143 154.571-125.143 93.143-154.857-22.857q-72.571-44-92.857-125.714t23.143-154.286zM72 614.286l77.143-19.429q21.714-5.714 33.714-25.143t6.286-41.714q-5.714-21.714-25.143-33.714t-41.714-6.286l-77.143 19.429q-22.286 5.143-33.714 25.143-11.429 18.857-6.286 41.714 5.714 21.714 25.143 33.714t41.714 6.286zM952 280l-77.143 19.429q-21.143 5.143-33.714 25.143-11.429 18.857-6.286 41.714 5.714 21.714 25.143 33.714t41.714 6.286l77.143-19.429q21.714-5.714 33.714-25.143t6.286-41.714-25.143-34-41.714-6zM82.857 254.286l68 40.571q19.429 11.429 41.714 6t33.714-24.857q12-20 6.571-42t-25.429-33.429l-68-41.143q-19.429-11.429-41.714-5.714t-33.714 25.143q-12 19.429-6.571 41.429t25.429 34zM758.857 142.286l40.571-68q11.429-19.429 6-41.714t-24.857-33.714-41.714-6-33.714 24.857l-41.143 68q-11.429 20-6 42t24.857 34q19.429 11.429 41.714 5.714t34.286-25.143zM470.857 57.143l-18.857-77.143q-5.714-21.714-25.429-33.429t-41.429-6q-22.286 5.143-34.286 24.571-11.429 21.143-5.714 41.714l18.857 77.143q5.714 22.286 25.429 34t41.429 6q22.286-5.714 34-25.143t6-41.714z" />
<glyph unicode="&#xe052;" glyph-name="uniE052" d="M452 916v-61.714q0-17.714-12.286-30.286t-30.571-12.571q-17.714 0-30.286 12.571t-12.571 30.286v61.714q0 17.714 12.571 30.286t30.286 12.571q18.286 0 30.571-12.571t12.286-30.286zM165.143 735.429l-44 43.429q-12.571 13.143-12.571 30.857t12.571 30.286q13.143 12.571 30.857 12.571t30.286-12.571l43.429-44q12.571-12.571 12.571-30.286t-12.571-30.286-30.286-12.571-30.286 12.571zM697.143 778.857l-44-43.429q-12-12.571-30.286-12.571-17.714 0-30.286 12.571t-12.571 30.286 12.571 30.286l44 44q12.571 12.571 30.286 12.571t30.286-12.571q12.571-13.143 12.571-30.571t-12.571-30.571zM350.286 404q-21.714-22.857-34.286-50.286-56.571 26.857-91.143 80.286t-34.571 118q0 90.286 64.286 154.571t154.571 64.286 154.571-64.286 64.286-154.571q0-32.571-8.571-61.714-32-19.429-54.857-47.429-16.571 8-29.714 11.429 33.714 42.857 33.714 97.714 0 65.714-46.571 112.286t-112.857 46.571-112.571-46.286-46.286-112.571q0-49.714 27.714-90t72.286-58zM45.143 594.857h61.714q17.714 0 30.286-12.571t12.571-30.286-12.571-30.286-30.286-12.571h-61.714q-17.714 0-30.286 12.286t-12.571 30.571q0 17.714 12.571 30.286t30.286 12.571zM711.429 594.857h62.286q17.714 0 30.286-12.571t12.571-30.286q0-20-14.857-32-31.429 6.857-56.571 6.857-30.286 0-60.571-8-16 13.143-16 33.143 0 17.714 12.571 30.286t30.286 12.571zM873.143-46.286h-459.429q-61.714 0-105.429 43.714t-43.714 105.429q0 47.429 27.143 85.714t70.571 54.286q-5.143 16.571-5.143 34.286 0 52.571 37.143 89.714t89.714 37.143q58.286 0 96-44.571 21.143 49.143 65.714 79.429t99.429 30.286q74.286 0 126.571-52.286t52.286-126.571q0-22.857-6.286-45.143 45.714-14.857 75.143-54t29.429-88.286q0-61.714-43.714-105.429t-105.429-43.714zM121.143 324.571l44 44q12.571 12.571 30.286 12.571t30.286-12.571q12.571-13.143 12.571-30.571t-12.571-30l-43.429-44q-12.571-12.571-30.857-12.571-17.714 0-30.286 12.571t-12.571 30.286 12.571 30.286z" />
<glyph unicode="&#xe053;" glyph-name="uniE053" d="M774.857 367.429h-525.714q-70.286 0-120.286 50t-50 120.286q0 54.286 31.143 98.286t80.857 62.286q-5.714 21.143-5.714 39.429 0 60 42.286 102.286t102.286 42.286q66.857 0 110.286-50.857 23.429 56 74.571 90.571t114 34.571q84.571 0 144.571-59.714t60-144.286q0-23.429-6.857-52 52.571-16.571 85.714-61.429t33.143-101.429q0-70.286-49.714-120.286t-120.571-50zM589.143 218.857h7.429q11.429 0 20-8.571t8.571-20q0-12-8.571-20.286t-20-8.286h-7.429l5.143-5.143q8.571-8.571 8.571-20.286t-8.571-20.286-20-8.571q-12 0-20 8.571l-5.143 5.143v-7.429q0-11.429-8.571-20t-20-8.571q-12 0-20.286 8.571t-8.286 20v7.429l-5.143-5.143q-8.571-8.571-20-8.571-12 0-20.571 8.571-8 8.571-8 20.286t8 20.286l5.143 5.143h-6.857q-12 0-20.286 8.286t-8.286 20.286q0 11.429 8.286 20t20.286 8.571h6.857l-5.143 4.571q-8 8.571-8 20.571t8 20q8.571 8.571 20.286 8.571t20.286-8.571l5.143-5.143v7.429q0 11.429 8.286 20t20.286 8.571q11.429 0 20-8.571t8.571-20v-7.429l5.143 5.143q8 8.571 20 8.571t20-8.571q8.571-8 8.571-20t-8.571-20.571zM295.429 73.143h6.857q12 0 20.286-8.571t8.286-20q0-12-8.286-20.286t-20.286-8.286h-6.857l5.143-5.143q8-8 8-20t-8-20.571q-9.143-8-20.571-8-10.857 0-20 8l-5.143 5.143v-6.857q0-12-8.286-20.286t-20.286-8.286-20.286 8.286-8.286 20.286v6.857l-5.143-5.143q-9.143-8-20-8-12 0-20 8-8.571 8.571-8.571 20.571t8.571 20l4.571 5.143h-6.857q-12 0-20.286 8.286t-8.286 20.286q0 11.429 8.286 20t20.286 8.571h6.857l-4.571 5.143q-8.571 8-8.571 20t8.571 20q8 8.571 20 8.571t20-8.571l5.143-4.571v6.857q0 12 8.286 20.286t20.286 8.286 20.286-8.286 8.286-20.286v-6.857l5.143 4.571q8 8.571 20 8.571t20.571-8.571q8-8 8-20t-8-20zM872.571 73.143h7.429q11.429 0 20-8.571t8.571-20q0-12-8.571-20.286t-20-8.286h-7.429l5.143-5.143q8.571-8 8.571-20t-8.571-20.571q-9.143-8-20-8-11.429 0-20.571 8l-4.571 5.143v-6.857q0-12-8.571-20.286t-20-8.286q-12 0-20.571 8.286t-8.571 20.286v6.857l-4.571-5.143q-9.143-8-20.571-8-10.857 0-20 8-8 8.571-8 20.571t8 20l5.143 5.143h-7.429q-11.429 0-20 8.286t-8.571 20.286q0 11.429 8.571 20t20 8.571h7.429l-5.143 5.143q-8 8-8 20t8 20q8.571 8.571 20.286 8.571t20.286-8.571l4.571-4.571v6.857q0 12 8.571 20.286t20.571 8.286q11.429 0 20-8.286t8.571-20.286v-6.857l4.571 4.571q8.571 8.571 20.571 8.571t20-8.571q8.571-8 8.571-20t-8.571-20z" />
<glyph unicode="&#xe054;" glyph-name="uniE054" d="M779.429 357.714h-534.857q-72 0-122.571 50.857t-50.571 122.286q0 55.429 31.714 100t82 62.857q-5.714 18.857-5.714 40.571 0 61.143 43.143 104.286t103.714 43.143q67.429 0 112-52 24.571 57.143 76.286 92.286t115.714 35.143q86.286 0 147.143-60.857t60.857-147.143q0-28-6.857-52.571 53.714-17.143 87.714-62.571t34-103.143q0-71.429-50.857-122.286t-122.857-50.857zM413.714 152.571q0 14.286 9.429 36t22.857 42.571 27.143 39.714 22.857 30.286l9.714 11.429q10.286-12 25.714-31.714t41.143-62.571 25.714-65.714q0-38.286-27.143-65.143t-65.429-26.857-65.143 26.857-26.857 65.143zM120 24q0 22.857 23.143 62.571t46.571 68.286l22.857 28.571q4-4.571 10-12t22-29.143 28-40.571 22-41.143 10-36.571q0-38.286-26.857-65.429t-65.143-27.143-65.429 27.143-27.143 65.429zM707.429 24q0 22.857 22.857 62.571t45.714 68.286l23.429 28.571q10.286-12 25.714-31.429t41.143-62.286 25.714-65.714q0-38.286-27.143-65.429t-65.429-27.143-65.143 27.143-26.857 65.429z" />
<glyph unicode="&#xe055;" glyph-name="uniE055" d="M756.571 408.571h-489.714q-65.714 0-112.286 46.571t-46.571 112.286q0 50.857 28.857 91.429t75.143 57.714q-5.143 18.286-5.143 37.143 0 55.429 39.429 95.143t95.429 39.714q62.286 0 102.857-47.429 21.714 52 69.429 84.286t106.571 32.286q78.857 0 134.571-55.714t55.714-134.571q0-24.571-6.286-48.571 49.143-15.429 80.286-56.857t31.143-94.571q0-65.714-46.571-112.286t-112.857-46.571zM287.429-60l111.429 223.429-111.429-23.429 106.857 192.571h186.286l-44-76.571 116 24z" />
<glyph unicode="&#xe056;" glyph-name="uniE056" d="M874.857 441.714h-172.571q-26.286 68-86.571 110.286t-134.571 42.286q-52.571 0-100-22.286t-80.571-61.714q-9.143 4.571-14.286 6.286-20 34.286-20 74.286 0 49.714 29.429 88.857t75.143 53.429q-6.286 23.429-6.286 45.143 0 74.286 52.286 126.571t126.571 52.286q54.857 0 99.429-30.286t65.714-79.429q37.143 44.571 96 44.571 52.571 0 89.714-37.143t37.143-89.143q0-17.714-5.143-34.857 43.429-15.429 70.571-53.714t27.143-86.286q0-61.714-43.714-105.429t-105.429-43.714zM609.143 21.143h-459.429q-61.714 0-105.429 43.714t-43.714 105.429q0 47.429 27.143 85.714t70.571 54.286q-5.143 16.571-5.143 34.286 0 52.571 37.143 89.714t89.714 37.143q58.286 0 96-44.571 21.143 48.571 65.714 78.857t99.429 30.286q74.286 0 126.571-52.286t52.286-126q0-21.143-5.714-45.714 45.714-14.286 74.857-53.429t29.143-88.286q0-61.714-43.714-105.429t-105.429-43.714z" />
<glyph unicode="&#xe057;" glyph-name="uniE057" d="M480.571 692v504.571h55.429l-1.714-504.571h-53.714zM480.571 692h-26.857q-57.143-4-100-16.857t-66.571-29.429-38-38.571-18.286-39.143-4-36v-94.286h253.714v254.286zM801.714 437.714v94.286q0 22.857-4.286 41.429t-18.286 40-38 36.286-66.571 26.571-100.286 15.714h-40v-254.286h267.429zM226.857 385.714v-241.143q0-101.714 72-171.143t181.714-69.429h66.857q67.429 6.286 124.857 37.143t93.429 84.571 36 118.857v241.143h-574.857z" />
<glyph unicode="&#xe058;" glyph-name="uniE058" d="M853.143 538.857h123.429q-44.571 146.857-56 192.571-8 32-30.286 44.286t-59.429 12.286h-646.857q-33.714 0-53.429-11.714t-36.286-44.857l-56-192.571h134.857l22.857 90.286q6.857 14.286 12 22.286t16.857 15.429 27.714 7.429h521.143q15.429 0 31.429-13.429t25.714-31.714zM229.714 108h566.286q16 0 25.429 13.429t9.429 31.714v11.429l-68.571 420q-9.143 17.143-19.143 25.143t-26 8h-419.429q-10.286 0-22-9.143t-11.714-24l-80-420q0-22.286 12-33.714 21.714-22.857 33.714-22.857zM422.286 436.571h-78.857v45.143h78.857v-45.143zM546.857 436.571h-78.857v45.143h78.857v-45.143zM671.429 436.571h-78.857v45.143h78.857v-45.143zM422.286 345.714h-78.857v45.714h78.857v-45.714zM546.857 345.714h-78.857v45.714h78.857v-45.714zM671.429 345.714h-78.857v45.714h78.857v-45.714zM422.286 244.571h-78.857v56.571h78.857v-56.571zM546.857 244.571h-78.857v56.571h78.857v-56.571zM671.429 244.571h-78.857v56.571h78.857v-56.571z" />
<glyph unicode="&#xe059;" glyph-name="uniE059" d="M988.571 279.429v414.857q0 22.286-18.857 36.857t-46.857 14.571h-326.857l132 122.857-44 44-168-166.857h-7.429l-168.571 166.857-36-44 124-122.857h-327.429q-50.286 0-50.286-51.429v-414.857q0-12.571 12.571-21.143t37.714-8.571h822.286q27.429 0 46.571 8.857t19.143 20.857zM690.857 279.429h-65.714v72.571h65.714v-72.571zM806.857 279.429h-72v72.571h72v-72.571zM916 279.429h-72v72.571h72v-72.571zM625.143 169.714h-219.429v-57.714h-189.143v-58.286h590.286v58.286h-181.714v57.714z" />
<glyph unicode="&#xe060;" glyph-name="uniE060" d="M485.143-60.571l13.714 95.429q6.857-1.143 21.714-1.143 62.857 0 115.429 19.143t87.429 51.143 54.286 74.286 19.429 88.571q0 83.429-43.429 139.714t-152.571 109.429l-23.429 11.429q2.857 9.714 2.857 17.714 0 4-1.143 10.857l24 158.286q49.143-20.571 94.857-73.143l97.714 112.571q-68 77.714-169.714 105.714l13.714 92.571h-72.571l-13.143-80q-4.571 0-13.714 0.571t-13.714 0.571q-72 0-132-27.429t-96.286-79.714-36.286-119.143q0-74.286 39.429-128.286t125.143-95.143l54.286-26.857-30.857-206.286q-40.571 12.571-77.143 36.857t-60 53.429l-85.714-125.143q30.286-36 82.571-66.857t118-44.571l-16-104.571h73.143zM533.714 730.857l-18.857-117.714-1.143 0.571h-1.714q-30.286 0-50.857-23.429-32 26.286-32 64 0 30.857 25.714 53.714t76.571 22.857h2.286zM520.571 178.286l29.143 184.571q41.143-22.286 58.857-44.286t17.714-51.714q0-38.857-30.286-63.714t-75.429-24.857z" />
<glyph unicode="&#xe061;" glyph-name="instagram" d="M854 960h-684c-93.5 0-170-76.5-170-170v-684c0-93.5 76.5-170 170-170h684c93.5 0 170 76.5 170 170v684c0 93.5-76.5 170-170 170zM327.8 512h368.4c6.988-20.058 10.8-41.59 10.8-64 0-107.524-87.476-195-195-195s-195 87.476-195 195c0 22.41 3.812 43.942 10.8 64zM896 511.95v-383.95c0-35.2-28.8-64-64-64h-640c-35.2 0-64 28.8-64 64v384h100.108c-4.642-20.602-7.108-42.016-7.108-64 0-160.458 130.542-291 291-291s291 130.542 291 291c0 21.984-2.464 43.398-7.108 64l100.108-0.050zM896 736c0-17.6-14.4-32-32-32h-64c-17.6 0-32 14.4-32 32v64c0 17.6 14.4 32 32 32h64c17.6 0 32-14.4 32-32v-64z" />
<glyph unicode="&#xe901;" glyph-name="notdef" d="M33.714 82.286v682.286h270.857v-682.286h-270.857zM67.429 116h203.429v614.857h-203.429v-614.857z" />
</font>
</defs>
</svg>
