<?xml version="1.0" encoding="utf-8"?>
<!-- Generator: Adobe Illustrator 16.0.0, SVG Export Plug-In . SVG Version: 6.00 Build 0)  -->
<!DOCTYPE svg PUBLIC "-//W3C//DTD SVG 1.1//EN" "http://www.w3.org/Graphics/SVG/1.1/DTD/svg11.dtd">
<svg version="1.1" id="Layer_1" xmlns="http://www.w3.org/2000/svg" xmlns:xlink="http://www.w3.org/1999/xlink" x="0px" y="0px"
	 width="492.5px" height="43px" viewBox="0 0 492.5 43" enable-background="new 0 0 492.5 43" xml:space="preserve">
<g>
	<polygon fill="#E1F2EE" points="481.801,35.135 489.881,35.135 485.839,39.173 	"/>
	<path fill="#FFFFFF" d="M228,28.055l-6.443,11.118h12.885L228,28.055z M228.649,37.821h-1.362v-1.316h1.362V37.821z
		 M228.312,35.963h-0.678l-0.378-3.13v-1.701h1.425v1.701L228.312,35.963z"/>
	<path fill="#FFFFFF" d="M152.253,24.556c-0.751,0.333-1.558,0.557-2.405,0.659c0.865-0.518,1.527-1.339,1.84-2.317
		c-0.809,0.48-1.705,0.829-2.658,1.017c-0.763-0.814-1.851-1.324-3.055-1.324c-2.311,0-4.187,1.875-4.187,4.187
		c0,0.329,0.038,0.648,0.109,0.954c-3.479-0.174-6.563-1.84-8.628-4.374c-0.36,0.618-0.566,1.337-0.566,2.104
		c0,1.453,0.739,2.735,1.862,3.484c-0.687-0.021-1.332-0.209-1.896-0.523c0,0.018,0,0.036,0,0.054c0,2.028,1.442,3.718,3.356,4.104
		c-0.351,0.095-0.721,0.147-1.103,0.147c-0.269,0-0.532-0.027-0.786-0.075c0.532,1.663,2.078,2.873,3.91,2.907
		c-1.433,1.122-3.237,1.792-5.199,1.792c-0.337,0-0.671-0.021-0.999-0.059c1.854,1.186,4.054,1.879,6.417,1.879
		c7.7,0,11.91-6.377,11.91-11.908c0-0.182-0.004-0.363-0.013-0.542C150.981,26.131,151.691,25.395,152.253,24.556z"/>
	<g>
		<path fill="#FFFFFF" d="M180.01,27.145c0.006,0.004,0.01,0.011,0.016,0.017l2.293,2.293l0.799-0.8l-0.863-0.864l-0.391-0.39
			l2.002-2.002l0.263,0.03c0.067,0.008,0.137,0.012,0.206,0.012c0.137,0,0.272-0.018,0.404-0.047l-1.472-1.473
			c-0.031-0.03-0.062-0.058-0.094-0.085c0.454-1.631,0.042-3.454-1.243-4.737c-1.272-1.272-3.078-1.689-4.7-1.25l2.75,2.748
			l-0.722,2.694l-2.693,0.722l-2.75-2.749c-0.438,1.623-0.021,3.427,1.252,4.702C176.403,27.303,178.328,27.695,180.01,27.145
			 M188.133,28.791c-0.044,0.197-0.056,0.403-0.033,0.61l0.028,0.264l-0.188,0.188l-1.422,1.422l-0.391,0.391l-1.253-1.254l-0.8,0.8
			l7.257,7.257c0.448,0.447,1.035,0.671,1.621,0.671c0.585,0,1.171-0.225,1.619-0.671c0.895-0.895,0.895-2.345,0-3.24
			L188.133,28.791z M193.736,37.716l-1.151,0.308l-0.935-0.935l0.308-1.149l1.151-0.309l0.935,0.934L193.736,37.716z
			 M184.883,29.639l1.253,1.253l1.422-1.422c-0.077-0.693,0.149-1.414,0.681-1.945c0.532-0.532,1.252-0.758,1.947-0.681l6.218-6.218
			l-3.483-3.484l-6.219,6.219c0.078,0.694-0.148,1.415-0.68,1.946c-0.533,0.533-1.253,0.757-1.947,0.681l-1.422,1.422l1.252,1.253
			l-6.145,6.145l-0.224-0.225l-1.18,0.951l-1.983,3.133l0.507,0.506l3.133-1.984l0.949-1.18l-0.225-0.225L184.883,29.639z"/>
	</g>
	<path fill="#FFFFFF" d="M46.544,26.589c3.667,10.355,12.374,12.447,13.708,12.546c3.2,0.339,5.258-1.666,5.66-4.7
		c0,0-3.235-2.058-4.85-2.396l-2.551,2.552c0,0-1.374,0.061-4.381-2.948c-3.006-3.006-2.947-4.378-2.947-4.378l2.198-2.198
		c-0.367-2.226-1.657-5.747-4.176-4.933C46.721,20.917,45.803,24.417,46.544,26.589"/>
	<g>
		<path fill="#1D6557" d="M432.033,8.074c0,0,7.407-4.029,13.746,0.826l-3.547,12.186c0,0-3.97-2.733-6.916-2.438
			c-2.947,0.294-6.83,1.706-6.83,1.706L432.033,8.074z"/>
		<path fill="#1D6557" d="M427.861,22.501c0,0,3.976-1.85,7.277-1.614c3.301,0.236,5.938,2.013,6.505,2.421l-3.582,12.313
			c0,0-3.984-2.59-6.813-2.355c-2.829,0.236-5.283,0.666-6.914,1.511L427.861,22.501z"/>
		<path fill="#1D6557" d="M443.5,24.5c0,0,3.781,2.459,6.257,2.4c2.44-0.059,4.126-0.25,7.437-1.548
			c0.025-0.01,0.093-0.058,0.07-0.044c-0.07,0.044-3.547,12.204-3.547,12.204s-3.899,1.824-7.438,1.648
			c-3.537-0.177-5.66-2.199-6.309-2.455L443.5,24.5z"/>
		<path fill="#1D6557" d="M447.654,10.185l-3.556,12.118c0,0,2.888,2.829,6.955,2.593c4.068-0.235,6.278-1.518,6.815-1.699
			l3.53-12.223c0,0-4.686,1.955-7.752,1.602C450.583,12.222,448.674,10.919,447.654,10.185z"/>
	</g>
	<g>
		<path fill="#1D6557" d="M407.021,11.848c-2.966-0.219-5.483,1.658-6.886,1.658c-1.426,0-3.621-1.61-5.95-1.566
			c-3.058,0.044-5.876,1.78-7.452,4.517c-3.177,5.511-0.811,13.681,2.283,18.154c1.512,2.187,3.316,4.648,5.688,4.56
			c2.28-0.089,3.144-1.474,5.901-1.474c2.756,0,3.535,1.474,5.947,1.429c2.457-0.044,4.013-2.23,5.515-4.429
			c1.737-2.536,2.452-4.992,2.495-5.123c-0.055-0.019-4.787-1.835-4.836-7.289c-0.041-4.559,3.722-6.751,3.894-6.856
			C411.482,12.282,408.184,11.935,407.021,11.848"/>
		<path fill="#1D6557" d="M405.189,8.896c1.261-1.524,2.107-3.643,1.876-5.753c-1.815,0.071-4.007,1.208-5.308,2.729
			c-1.164,1.348-2.188,3.507-1.909,5.573C401.869,11.602,403.932,10.419,405.189,8.896"/>
	</g>
	<path fill="#FFFFFF" d="M110.629,25.131H87.653l11.427,9.325L110.629,25.131z M99.076,36.14l-11.722-9.564v12.597h23.448V26.671
		L99.076,36.14z"/>
	<g>
		<path fill-rule="evenodd" clip-rule="evenodd" fill="#FFFFFF" d="M313.945,7.708c8.689,0,15.732,7.044,15.732,15.733
			c0,8.688-7.043,15.731-15.732,15.731s-15.731-7.043-15.731-15.731C298.214,14.752,305.256,7.708,313.945,7.708z"/>
		<path fill="#662264" d="M311.42,34.062v-9.967h-2.635v-3.588h2.635c0,0,0-1.47,0-3.064c0-2.409,1.557-4.622,5.145-4.622
			c1.453,0,2.525,0.14,2.525,0.14l-0.084,3.351c0,0-1.096-0.011-2.291-0.011c-1.293,0-1.502,0.596-1.502,1.585
			c0,0.782,0-1.666,0,2.621h3.895l-0.17,3.588h-3.725v9.967H311.42z"/>
	</g>
	<g>
		<path fill-rule="evenodd" clip-rule="evenodd" fill="#FFFFFF" d="M270.973,7.708c8.688,0,15.731,7.044,15.731,15.733
			c0,8.688-7.042,15.731-15.731,15.731c-8.69,0-15.733-7.043-15.733-15.731C255.24,14.752,262.283,7.708,270.973,7.708z"/>
		<g>
			<path fill="#662264" d="M272.964,26.448c-0.264,0-0.425,0.278-0.485,0.83c-0.013,0.112-0.018,0.509-0.018,1.189
				c0,0.526,0.011,0.854,0.032,0.984c0.062,0.401,0.22,0.601,0.471,0.601c0.232,0,0.375-0.245,0.426-0.735
				c0.012-0.103,0.017-0.457,0.017-1.059c0-0.625-0.004-0.981-0.014-1.067C273.344,26.696,273.199,26.448,272.964,26.448z"/>
			<path fill="#662264" d="M276.427,26.358c-0.17,0-0.291,0.071-0.363,0.214c-0.085,0.177-0.123,0.43-0.107,0.759l0.004,0.074
				c0.004,0.054,0.005,0.104,0.005,0.154h0.93v-0.228c0-0.311-0.022-0.53-0.064-0.662C276.766,26.462,276.63,26.358,276.427,26.358z
				"/>
			<path fill="#662264" d="M276.657,21.93h-11.368c-1.586,0-2.873,1.286-2.873,2.873v5.55c0,1.586,1.287,2.873,2.873,2.873h11.368
				c1.586,0,2.874-1.286,2.874-2.873v-5.55C279.531,23.216,278.244,21.93,276.657,21.93z M267.484,24.941h-1.185v5.999h-1.029
				v-5.999h-1.185v-1.185h3.399V24.941z M270.699,30.939h-0.94v-0.536c-0.199,0.452-0.49,0.679-0.873,0.679
				c-0.618,0-0.926-0.433-0.926-1.3v-4.238h0.927v3.524c0,0.291,0.018,0.496,0.051,0.621c0.059,0.215,0.178,0.322,0.356,0.322
				c0.194,0,0.322-0.117,0.387-0.349c0.036-0.135,0.054-0.358,0.054-0.671v-3.447h0.965V30.939z M274.253,30.066
				c-0.158,0.678-0.48,1.017-0.969,1.017c-0.407,0-0.687-0.236-0.842-0.708v0.564h-0.914v-7.183h0.961v2.245
				c0.161-0.4,0.433-0.6,0.815-0.6c0.487,0,0.808,0.348,0.959,1.044c0.077,0.351,0.115,0.958,0.115,1.822
				C274.379,29.108,274.337,29.706,274.253,30.066z M277.862,28.415h-1.886c-0.007,0.059-0.012,0.174-0.012,0.345
				c0,0.401,0.017,0.688,0.051,0.859c0.069,0.351,0.213,0.527,0.431,0.527c0.322,0,0.483-0.354,0.483-1.058h0.904
				c0,0.024,0.002,0.059,0.004,0.105c0.003,0.044,0.003,0.08,0.003,0.104c0,0.622-0.114,1.074-0.344,1.358
				c-0.229,0.285-0.584,0.427-1.069,0.427c-0.5,0-0.86-0.173-1.079-0.518c-0.176-0.272-0.287-0.672-0.334-1.197
				c-0.022-0.23-0.031-0.664-0.031-1.3c0-0.514,0.009-0.878,0.031-1.096c0.044-0.441,0.137-0.777,0.284-1.007
				c0.24-0.375,0.625-0.563,1.155-0.563c0.513,0,0.886,0.203,1.123,0.61c0.191,0.329,0.287,0.993,0.287,1.992V28.415z"/>
			<path fill="#662264" d="M265.203,20.882v-3.063l-1.458-4.162h1.147l0.841,2.718l0.83-2.718h1.114l-1.43,4.162v3.063H265.203z"/>
			<path fill="#662264" d="M267.795,18.172c0-0.936,0.071-1.598,0.212-1.988c0.213-0.581,0.63-0.873,1.255-0.873
				s1.045,0.292,1.259,0.873c0.141,0.386,0.212,1.049,0.212,1.988c0,0.937-0.071,1.599-0.212,1.986
				c-0.214,0.578-0.635,0.867-1.259,0.867s-1.042-0.291-1.255-0.871C267.866,19.767,267.795,19.106,267.795,18.172z M268.786,18.242
				c0,0.671,0.003,1.037,0.011,1.097c0.051,0.484,0.203,0.726,0.458,0.726s0.413-0.207,0.47-0.623
				c0.013-0.091,0.018-0.429,0.018-1.017v-0.529c0-0.549-0.006-0.881-0.022-0.993c-0.059-0.412-0.212-0.618-0.459-0.618
				c-0.238,0-0.388,0.181-0.448,0.542c-0.019,0.117-0.028,0.42-0.028,0.914V18.242z"/>
			<path fill="#662264" d="M274.198,15.457v5.425h-0.948v-0.54c-0.2,0.456-0.492,0.684-0.876,0.684
				c-0.621,0-0.931-0.436-0.931-1.309v-4.261h0.933v3.544c0,0.292,0.018,0.499,0.051,0.623c0.06,0.216,0.18,0.325,0.359,0.325
				c0.194,0,0.323-0.118,0.388-0.352c0.035-0.134,0.054-0.359,0.054-0.676v-3.465H274.198z"/>
		</g>
	</g>
	<g>
		<path fill-rule="evenodd" clip-rule="evenodd" fill="#FFFFFF" d="M356.919,7.708c8.689,0,15.734,7.044,15.734,15.733
			c0,8.689-7.045,15.732-15.734,15.732s-15.732-7.043-15.732-15.732C341.187,14.752,348.229,7.708,356.919,7.708z"/>
		<path fill="#662264" d="M366.048,17.779c-0.672,0.297-1.395,0.499-2.15,0.589c0.771-0.463,1.367-1.198,1.646-2.072
			c-0.725,0.429-1.527,0.741-2.379,0.908c-0.684-0.728-1.656-1.182-2.734-1.182c-2.066,0-3.746,1.677-3.746,3.746
			c0,0.293,0.035,0.58,0.098,0.854c-3.113-0.156-5.871-1.648-7.721-3.915c-0.322,0.554-0.506,1.198-0.506,1.884
			c0,1.299,0.66,2.446,1.666,3.119c-0.615-0.021-1.191-0.189-1.697-0.47c0,0.016,0,0.031,0,0.047c0,1.814,1.291,3.328,3.006,3.672
			c-0.316,0.086-0.646,0.131-0.986,0.131c-0.244,0-0.477-0.023-0.707-0.067c0.477,1.488,1.861,2.572,3.5,2.602
			c-1.283,1.004-2.896,1.603-4.65,1.603c-0.303,0-0.602-0.018-0.896-0.052c1.658,1.063,3.627,1.683,5.742,1.683
			c6.891,0,10.658-5.708,10.658-10.656c0-0.164-0.004-0.323-0.012-0.485C364.911,19.19,365.546,18.529,366.048,17.779z"/>
	</g>
	<g id="search">
		<g>
			<path fill="#FFFFFF" d="M11.253,21.314c-3.887,0-7.038,3.151-7.038,7.038c0,3.888,3.151,7.038,7.038,7.038
				s7.039-3.15,7.039-7.038C18.292,24.465,15.14,21.314,11.253,21.314z M11.253,33.084c-2.613,0-4.732-2.119-4.732-4.732
				c0-2.613,2.119-4.732,4.732-4.732s4.732,2.119,4.732,4.732C15.985,30.966,13.866,33.084,11.253,33.084z"/>
		</g>
		<path fill="#FFFFFF" d="M21.411,38.539c-0.614,0.614-1.407,0.817-1.771,0.454l-5.475-5.475c-0.363-0.363-0.16-1.156,0.454-1.771
			l0,0c0.614-0.614,1.408-0.817,1.771-0.453l5.474,5.474C22.229,37.132,22.025,37.924,21.411,38.539L21.411,38.539z"/>
	</g>
</g>
</svg>
