<?xml version="1.0" standalone="no"?><!DOCTYPE svg PUBLIC "-//W3C//DTD SVG 1.1//EN" "http://www.w3.org/Graphics/SVG/1.1/DTD/svg11.dtd" ><svg version="1.1" xmlns="http://www.w3.org/2000/svg"><defs><font horiz-adv-x="0" id="font"><font-face ascent="750" bbox="-293 -316 1189 997" cap-height="700" descent="-250" font-family="Regular Extrabold Italic" font-stretch="normal" font-style="italic" font-weight="600" units-per-em="1000" x-height="465" /><missing-glyph d="M164 408H118L136 604H146ZM0 671Q0 683 8 691.5Q16 700 28 700H473Q484 700 492 691.5Q500 683 500 671V29Q500 17 492 8.5Q484 0 473 0H28Q16 0 8 8.5Q0 17 0 29ZM415 392Q415 407 429 407H435Q449 407 449 392V388H438V389Q438 392 437.5 394.5Q437 397 432 397Q426 397 426 389V377Q426 369 432 369Q437 369 437.5 371.5Q438 374 438 377V378H449V374Q449 359 435 359H429Q415 359 415 374ZM178 270H244L201 657H83L40 270H105L112 347H170ZM434 470Q445 484 452.5 503Q460 522 460 551V567Q460 609 434 634Q408 659 373 659H356Q321 659 294.5 634Q268 609 268 567V517H330V559Q330 572 336 585.5Q342 599 363 599H366Q386 599 391.5 585.5Q397 572 397 559V552Q396 522 376 495L298 391Q283 371 276 354Q269 337 269 313V270H461V331H339V335Q339 339 342 345.5Q345 352 355 365ZM264 42H292V113H316Q332 113 342 124.5Q352 136 352 154V187Q352 206 342 217Q332 228 316 228H264ZM380 42H465V69H410V123H442V150H410V202H465V228H380ZM237 228H208L191 151L171 228H141L174 107V42H205V107ZM65 42H93V202H123V228H35V202H65ZM460 393Q460 404 454.5 410.5Q449 417 437 417H428Q416 417 410 410.5Q404 404 404 393V373Q404 362 410 355.5Q416 349 428 349H437Q449 349 454.5 355.5Q460 362 460 373ZM292 202H309Q318 202 320.5 195.5Q323 189 323 184V158Q323 153 320.5 147Q318 141 309 141H292Z" horiz-adv-x="500" /><glyph d="M379 506H375L288 312H398ZM603 0H430L411 163H226L152 0H-33L305 700H505Z" glyph-name="A" horiz-adv-x="645" unicode="A" /><glyph d="M318 251 308 373H304L252 251ZM240 560H427L500 0H338L328 110H195L146 0H-28Z" glyph-name="A.smcp" horiz-adv-x="548" unicode="&#62257;" /><glyph d="M474 543H468L340 323H434ZM250 175 147 0H-51L389 700H1036L1010 551H642L621 431H858L832 283H596L572 149H941L915 0H378L409 175Z" glyph-name="AE" horiz-adv-x="990" unicode="&#198;" /><glyph d="M335 242 367 408H363L276 242ZM290 560H839L815 420H525L513 356H700L675 216H490L476 141H767L743 0H294L312 103H193L142 0H-40Z" glyph-name="AE.smcp" horiz-adv-x="819" unicode="&#62296;" /><glyph d="M416 935H621L495 758H346ZM379 506H375L288 312H398ZM603 0H430L411 163H226L152 0H-33L305 700H505Z" glyph-name="Aacute" horiz-adv-x="645" unicode="&#193;" /><glyph d="M334 730H511L408 605H278ZM318 251 308 373H304L252 251ZM240 560H427L500 0H338L328 110H195L146 0H-28Z" glyph-name="Aacute.smcp" horiz-adv-x="548" unicode="&#62503;" /><glyph d="M475 942H597L591 900Q584 859 568 830.5Q552 802 529 784.5Q506 767 477 759.5Q448 752 415 752Q382 752 353 762.5Q324 773 303.5 793Q283 813 274 842Q265 871 271 909L278 942H401L395 901Q392 886 400 875Q408 864 426 864Q444 864 454 874Q464 884 467 899ZM379 506H375L288 312H398ZM603 0H430L411 163H226L152 0H-33L305 700H505Z" glyph-name="Abreve" horiz-adv-x="645" unicode="&#258;" /><glyph d="M339 700Q369 700 372 734H479Q479 699 467.5 674Q456 649 436 633.5Q416 618 389 610.5Q362 603 331 603Q275 603 242 629Q209 655 209 700Q209 705 209.5 711.5Q210 718 211 723Q212 729 214 734H314Q308 714 316.5 707Q325 700 339 700ZM318 251 308 373H304L252 251ZM240 560H427L500 0H338L328 110H195L146 0H-28Z" glyph-name="Abreve.smcp" horiz-adv-x="548" unicode="&#62504;" /><glyph d="M351 935H524L602 758H447L424 816L389 758H217ZM379 506H375L288 312H398ZM603 0H430L411 163H226L152 0H-33L305 700H505Z" glyph-name="Acircumflex" horiz-adv-x="645" unicode="&#194;" /><glyph d="M347 650 308 605H176L271 730H442L491 605H368ZM318 251 308 373H304L252 251ZM240 560H427L500 0H338L328 110H195L146 0H-28Z" glyph-name="Acircumflex.smcp" horiz-adv-x="548" unicode="&#62505;" /><glyph d="M426 829Q426 847 433 863.5Q440 880 452.5 892.5Q465 905 481.5 912.5Q498 920 516 920Q534 920 550.5 912.5Q567 905 579.5 892.5Q592 880 599.5 863.5Q607 847 607 829Q607 811 599.5 795Q592 779 579.5 766.5Q567 754 550.5 747Q534 740 516 740Q498 740 481.5 747Q465 754 452.5 766.5Q440 779 433 795Q426 811 426 829ZM218 829Q218 847 225 863.5Q232 880 244.5 892.5Q257 905 273.5 912.5Q290 920 309 920Q327 920 343.5 912.5Q360 905 372.5 892.5Q385 880 392.5 863.5Q400 847 400 829Q400 811 392.5 795Q385 779 372.5 766.5Q360 754 343.5 747Q327 740 309 740Q290 740 273.5 747Q257 754 244.5 766.5Q232 779 225 795Q218 811 218 829ZM379 506H375L288 312H398ZM603 0H430L411 163H226L152 0H-33L305 700H505Z" glyph-name="Adieresis" horiz-adv-x="645" unicode="&#196;" /><glyph d="M347 681Q347 712 370.5 735Q394 758 425 758Q440 758 454 751.5Q468 745 478.5 734.5Q489 724 495.5 710Q502 696 502 681Q502 666 495.5 652.5Q489 639 478.5 628.5Q468 618 454 612Q440 606 425 606Q410 606 395.5 612Q381 618 370.5 628.5Q360 639 353.5 652.5Q347 666 347 681ZM172 681Q172 696 178.5 710Q185 724 196 734.5Q207 745 221 751.5Q235 758 250 758Q265 758 279 751.5Q293 745 303.5 734.5Q314 724 320.5 710Q327 696 327 681Q327 666 320.5 652.5Q314 639 303.5 628.5Q293 618 279 612Q265 606 250 606Q235 606 221 612Q207 618 196 628.5Q185 639 178.5 652.5Q172 666 172 681ZM318 251 308 373H304L252 251ZM240 560H427L500 0H338L328 110H195L146 0H-28Z" glyph-name="Adieresis.smcp" horiz-adv-x="548" unicode="&#62512;" /><glyph d="M477 758H328L222 935H426ZM379 506H375L288 312H398ZM603 0H430L411 163H226L152 0H-33L305 700H505Z" glyph-name="Agrave" horiz-adv-x="645" unicode="&#192;" /><glyph d="M397 605H267L175 730H351ZM318 251 308 373H304L252 251ZM240 560H427L500 0H338L328 110H195L146 0H-28Z" glyph-name="Agrave.smcp" horiz-adv-x="548" unicode="&#62513;" /><glyph d="M263 905H604L580 767H239ZM379 506H375L288 312H398ZM603 0H430L411 163H226L152 0H-33L305 700H505Z" glyph-name="Amacron" horiz-adv-x="645" unicode="&#256;" /><glyph d="M217 723H498L478 613H197ZM318 251 308 373H304L252 251ZM240 560H427L500 0H338L328 110H195L146 0H-28Z" glyph-name="Amacron.smcp" horiz-adv-x="548" unicode="&#62309;" /><glyph d="M379 506H375L288 312H398ZM603 0H547Q516 -20 506 -37.5Q496 -55 496 -68Q496 -84 508.5 -90.5Q521 -97 535 -97Q555 -97 576 -91.5Q597 -86 607 -84L584 -175Q556 -186 526.5 -194.5Q497 -203 458 -203Q406 -203 370.5 -177.5Q335 -152 335 -107Q335 -72 360.5 -43.5Q386 -15 440 0H430L411 163H226L152 0H-33L305 700H505Z" glyph-name="Aogonek" horiz-adv-x="645" unicode="&#260;" /><glyph d="M318 251 308 373H304L252 251ZM240 560H427L500 0H441Q408 -16 396.5 -31Q385 -46 385 -57Q385 -68 394.5 -74Q404 -80 415 -80Q431 -80 444.5 -77.5Q458 -75 464 -73L448 -150Q444 -152 421 -158.5Q398 -165 356 -165Q309 -165 278 -146.5Q247 -128 247 -95Q247 -63 272 -37.5Q297 -12 354 0H338L328 110H195L146 0H-28Z" glyph-name="Aogonek.smcp" horiz-adv-x="548" unicode="&#62310;" /><glyph d="M415 908Q397 908 383.5 894Q370 880 370 859Q370 839 383.5 825Q397 811 415 811Q434 811 447 825Q460 839 460 859Q460 880 447 894Q434 908 415 908ZM415 729Q386 729 360.5 739Q335 749 316.5 766.5Q298 784 287.5 807.5Q277 831 277 859Q277 888 287.5 912Q298 936 316.5 953.5Q335 971 360.5 980.5Q386 990 415 990Q444 990 469.5 980.5Q495 971 513.5 953.5Q532 936 543 912Q554 888 554 859Q554 831 543 807.5Q532 784 513.5 766.5Q495 749 469.5 739Q444 729 415 729ZM379 506H375L288 312H398ZM603 0H430L411 163H226L152 0H-33L305 700H505Z" glyph-name="Aring" horiz-adv-x="645" unicode="&#197;" /><glyph d="M346 664Q361 664 371.5 675Q382 686 382 702Q382 719 371.5 730Q361 741 346 741Q331 741 321 730.5Q311 720 311 704Q311 687 320 675.5Q329 664 346 664ZM346 598Q299 598 267.5 627Q236 656 236 700Q236 747 266.5 777Q297 807 346 807Q394 807 425.5 777.5Q457 748 457 702Q457 657 425.5 627.5Q394 598 346 598ZM318 251 308 373H304L252 251ZM240 560H427L500 0H338L328 110H195L146 0H-28Z" glyph-name="Aring.smcp" horiz-adv-x="548" unicode="&#62311;" /><glyph d="M368 906Q384 906 400.5 900.5Q417 895 432.5 889Q448 883 461 877.5Q474 872 485 872Q506 872 510 891L512 904L632 884Q630 864 625 839Q620 814 607 792.5Q594 771 571 756Q548 741 509 741Q494 741 476.5 746Q459 751 443 757Q427 763 413.5 768Q400 773 393 773Q372 773 368 754L366 741L246 761Q248 781 253 806Q258 831 271 853.5Q284 876 307 891Q330 906 368 906ZM379 506H375L288 312H398ZM603 0H430L411 163H226L152 0H-33L305 700H505Z" glyph-name="Atilde" horiz-adv-x="645" unicode="&#195;" /><glyph d="M389 604Q377 604 363 607.5Q349 611 336 615.5Q323 620 312 624Q301 628 295 628Q289 628 284.5 624.5Q280 621 280 613V609H182L185 631Q187 643 191.5 661Q196 679 207.5 695.5Q219 712 238 724Q257 736 289 736Q301 736 315 732Q329 728 342 723.5Q355 719 366.5 715.5Q378 712 384 712Q389 712 393.5 715.5Q398 719 398 727V731H496L493 709Q491 697 487 679Q483 661 471.5 644.5Q460 628 440.5 616Q421 604 389 604ZM318 251 308 373H304L252 251ZM240 560H427L500 0H338L328 110H195L146 0H-28Z" glyph-name="Atilde.smcp" horiz-adv-x="548" unicode="&#62312;" /><glyph d="M289 553 271 441H330Q345 441 359 444Q373 447 384 454Q395 461 401.5 473Q408 485 408 502Q408 525 389.5 539Q371 553 347 553ZM220 147H279Q337 147 363 168.5Q389 190 389 225Q389 251 369.5 272.5Q350 294 306 294H245ZM584 537Q584 484 558 439.5Q532 395 463 370Q510 350 538 311Q566 272 566 224Q566 177 548 136Q530 95 497 65Q464 35 416.5 17.5Q369 0 310 0H26L146 700H367Q420 700 460.5 686Q501 672 528.5 649.5Q556 627 570 597.5Q584 568 584 537Z" glyph-name="B" horiz-adv-x="595" unicode="B" /><glyph d="M202 132H248Q267 132 279.5 137.5Q292 143 299.5 150.5Q307 158 310 167Q313 176 313 183Q313 197 301.5 212.5Q290 228 261 228H218ZM276 345Q300 345 313.5 357.5Q327 370 327 388Q327 402 317 412.5Q307 423 286 423H251L238 345ZM115 560H311Q354 560 387.5 549Q421 538 443.5 520Q466 502 478 478Q490 454 490 427Q490 382 466 347Q442 312 396 297Q432 281 453.5 248.5Q475 216 475 181Q475 143 459 110.5Q443 78 414.5 53Q386 28 346.5 14Q307 0 259 0H20Z" glyph-name="B.smcp" horiz-adv-x="512" unicode="&#62258;" /><glyph d="M759 265Q744 200 708.5 148.5Q673 97 624 61.5Q575 26 516 7Q457 -12 394 -12Q319 -12 255.5 14Q192 40 146 86.5Q100 133 74 195.5Q48 258 48 332Q48 414 79 484Q110 554 162.5 604.5Q215 655 283 683.5Q351 712 426 712Q492 712 549.5 691.5Q607 671 652 634Q697 597 726.5 546Q756 495 766 435H574Q561 484 523.5 517Q486 550 422 550Q381 550 345.5 533Q310 516 283.5 486.5Q257 457 242 416Q227 375 227 327Q227 291 238 259Q249 227 270.5 202.5Q292 178 324 164Q356 150 398 150Q455 150 496 177.5Q537 205 561 265Z" glyph-name="C" horiz-adv-x="763" unicode="C" /><glyph d="M319 -10Q258 -10 206.5 11.5Q155 33 117.5 70.5Q80 108 58.5 159Q37 210 37 270Q37 334 62 389Q87 444 129 484.5Q171 525 226 547.5Q281 570 341 570Q396 570 444 552.5Q492 535 529.5 504Q567 473 591.5 430Q616 387 624 336H440Q432 368 407 391.5Q382 415 337 415Q310 415 286.5 404.5Q263 394 245.5 374.5Q228 355 218 328.5Q208 302 208 269Q208 245 215 223Q222 201 236 183.5Q250 166 271.5 155.5Q293 145 322 145Q362 145 391.5 167.5Q421 190 432 225H621Q610 169 581.5 125.5Q553 82 512.5 52Q472 22 422 6Q372 -10 319 -10Z" glyph-name="C.smcp" horiz-adv-x="637" unicode="&#62259;" /><glyph d="M469 942H674L548 765H399ZM759 265Q744 200 708.5 148.5Q673 97 624 61.5Q575 26 516 7Q457 -12 394 -12Q319 -12 255.5 14Q192 40 146 86.5Q100 133 74 195.5Q48 258 48 332Q48 414 79 484Q110 554 162.5 604.5Q215 655 283 683.5Q351 712 426 712Q492 712 549.5 691.5Q607 671 652 634Q697 597 726.5 546Q756 495 766 435H574Q561 484 523.5 517Q486 550 422 550Q381 550 345.5 533Q310 516 283.5 486.5Q257 457 242 416Q227 375 227 327Q227 291 238 259Q249 227 270.5 202.5Q292 178 324 164Q356 150 398 150Q455 150 496 177.5Q537 205 561 265Z" glyph-name="Cacute" horiz-adv-x="763" unicode="&#262;" /><glyph d="M350 730H527L424 605H294ZM319 -10Q258 -10 206.5 11.5Q155 33 117.5 70.5Q80 108 58.5 159Q37 210 37 270Q37 334 62 389Q87 444 129 484.5Q171 525 226 547.5Q281 570 341 570Q396 570 444 552.5Q492 535 529.5 504Q567 473 591.5 430Q616 387 624 336H440Q432 368 407 391.5Q382 415 337 415Q310 415 286.5 404.5Q263 394 245.5 374.5Q228 355 218 328.5Q208 302 208 269Q208 245 215 223Q222 201 236 183.5Q250 166 271.5 155.5Q293 145 322 145Q362 145 391.5 167.5Q421 190 432 225H621Q610 169 581.5 125.5Q553 82 512.5 52Q472 22 422 6Q372 -10 319 -10Z" glyph-name="Cacute.smcp" horiz-adv-x="637" unicode="&#62313;" /><glyph d="M535 765H362L291 942H444L464 884L506 942H676ZM759 265Q744 200 708.5 148.5Q673 97 624 61.5Q575 26 516 7Q457 -12 394 -12Q319 -12 255.5 14Q192 40 146 86.5Q100 133 74 195.5Q48 258 48 332Q48 414 79 484Q110 554 162.5 604.5Q215 655 283 683.5Q351 712 426 712Q492 712 549.5 691.5Q607 671 652 634Q697 597 726.5 546Q756 495 766 435H574Q561 484 523.5 517Q486 550 422 550Q381 550 345.5 533Q310 516 283.5 486.5Q257 457 242 416Q227 375 227 327Q227 291 238 259Q249 227 270.5 202.5Q292 178 324 164Q356 150 398 150Q455 150 496 177.5Q537 205 561 265Z" glyph-name="Ccaron" horiz-adv-x="763" unicode="&#268;" /><glyph d="M418 730H550L455 605H284L235 730H357L379 684ZM319 -10Q258 -10 206.5 11.5Q155 33 117.5 70.5Q80 108 58.5 159Q37 210 37 270Q37 334 62 389Q87 444 129 484.5Q171 525 226 547.5Q281 570 341 570Q396 570 444 552.5Q492 535 529.5 504Q567 473 591.5 430Q616 387 624 336H440Q432 368 407 391.5Q382 415 337 415Q310 415 286.5 404.5Q263 394 245.5 374.5Q228 355 218 328.5Q208 302 208 269Q208 245 215 223Q222 201 236 183.5Q250 166 271.5 155.5Q293 145 322 145Q362 145 391.5 167.5Q421 190 432 225H621Q610 169 581.5 125.5Q553 82 512.5 52Q472 22 422 6Q372 -10 319 -10Z" glyph-name="Ccaron.smcp" horiz-adv-x="637" unicode="&#62320;" /><glyph d="M302 -1Q245 13 198.5 43.5Q152 74 119 117.5Q86 161 67.5 215.5Q49 270 49 332Q49 414 80 484Q111 554 163.5 604.5Q216 655 284 683.5Q352 712 427 712Q493 712 550.5 691.5Q608 671 653 634Q698 597 727.5 546Q757 495 767 435H575Q562 484 524.5 517Q487 550 423 550Q382 550 346.5 533Q311 516 284.5 486.5Q258 457 243 416Q228 375 228 327Q228 291 239 259Q250 227 271.5 202.5Q293 178 325 164Q357 150 399 150Q456 150 497 177.5Q538 205 562 265H760Q747 210 719.5 164.5Q692 119 653.5 84.5Q615 50 568.5 27.5Q522 5 470 -5L386 -136H244Z" glyph-name="Ccedilla" horiz-adv-x="765" unicode="&#199;" /><glyph d="M233 2Q189 15 153 40Q117 65 91 100Q65 135 51 178Q37 221 37 270Q37 334 62 389Q87 444 129 484.5Q171 525 226 547.5Q281 570 341 570Q396 570 444 552.5Q492 535 529.5 504Q567 473 591.5 430Q616 387 624 336H440Q432 368 407 391.5Q382 415 337 415Q310 415 286.5 404.5Q263 394 245.5 374.5Q228 355 218 328.5Q208 302 208 269Q208 245 215 223Q222 201 236 183.5Q250 166 271.5 155.5Q293 145 322 145Q362 145 391.5 167.5Q421 190 432 225H621Q612 178 590.5 140Q569 102 538 73Q507 44 468.5 25Q430 6 387 -3L304 -133H174Z" glyph-name="Ccedilla.smcp" horiz-adv-x="638" unicode="&#62321;" /><glyph d="M399 942H572L650 765H495L472 823L437 765H265ZM759 265Q744 200 708.5 148.5Q673 97 624 61.5Q575 26 516 7Q457 -12 394 -12Q319 -12 255.5 14Q192 40 146 86.5Q100 133 74 195.5Q48 258 48 332Q48 414 79 484Q110 554 162.5 604.5Q215 655 283 683.5Q351 712 426 712Q492 712 549.5 691.5Q607 671 652 634Q697 597 726.5 546Q756 495 766 435H574Q561 484 523.5 517Q486 550 422 550Q381 550 345.5 533Q310 516 283.5 486.5Q257 457 242 416Q227 375 227 327Q227 291 238 259Q249 227 270.5 202.5Q292 178 324 164Q356 150 398 150Q455 150 496 177.5Q537 205 561 265Z" glyph-name="Ccircumflex" horiz-adv-x="763" unicode="&#264;" /><glyph d="M380 650 341 605H209L304 730H475L524 605H401ZM319 -10Q258 -10 206.5 11.5Q155 33 117.5 70.5Q80 108 58.5 159Q37 210 37 270Q37 334 62 389Q87 444 129 484.5Q171 525 226 547.5Q281 570 341 570Q396 570 444 552.5Q492 535 529.5 504Q567 473 591.5 430Q616 387 624 336H440Q432 368 407 391.5Q382 415 337 415Q310 415 286.5 404.5Q263 394 245.5 374.5Q228 355 218 328.5Q208 302 208 269Q208 245 215 223Q222 201 236 183.5Q250 166 271.5 155.5Q293 145 322 145Q362 145 391.5 167.5Q421 190 432 225H621Q610 169 581.5 125.5Q553 82 512.5 52Q472 22 422 6Q372 -10 319 -10Z" glyph-name="Ccircumflex.smcp" horiz-adv-x="637" unicode="&#62322;" /><glyph d="M475 945Q494 945 510.5 938Q527 931 539.5 918.5Q552 906 559 890Q566 874 566 856Q566 838 559 822Q552 806 539.5 793.5Q527 781 510.5 774Q494 767 475 767Q456 767 439.5 774Q423 781 410.5 793.5Q398 806 391 822Q384 838 384 856Q384 874 391 890Q398 906 410.5 918.5Q423 931 439.5 938Q456 945 475 945ZM759 265Q744 200 708.5 148.5Q673 97 624 61.5Q575 26 516 7Q457 -12 394 -12Q319 -12 255.5 14Q192 40 146 86.5Q100 133 74 195.5Q48 258 48 332Q48 414 79 484Q110 554 162.5 604.5Q215 655 283 683.5Q351 712 426 712Q492 712 549.5 691.5Q607 671 652 634Q697 597 726.5 546Q756 495 766 435H574Q561 484 523.5 517Q486 550 422 550Q381 550 345.5 533Q310 516 283.5 486.5Q257 457 242 416Q227 375 227 327Q227 291 238 259Q249 227 270.5 202.5Q292 178 324 164Q356 150 398 150Q455 150 496 177.5Q537 205 561 265Z" glyph-name="Cdotaccent" horiz-adv-x="763" unicode="&#266;" /><glyph d="M288 681Q288 696 294.5 710Q301 724 311.5 734.5Q322 745 336 751.5Q350 758 365 758Q396 758 419 735Q442 712 442 681Q442 651 419 628.5Q396 606 365 606Q350 606 336 612Q322 618 311.5 628.5Q301 639 294.5 652.5Q288 666 288 681ZM319 -10Q258 -10 206.5 11.5Q155 33 117.5 70.5Q80 108 58.5 159Q37 210 37 270Q37 334 62 389Q87 444 129 484.5Q171 525 226 547.5Q281 570 341 570Q396 570 444 552.5Q492 535 529.5 504Q567 473 591.5 430Q616 387 624 336H440Q432 368 407 391.5Q382 415 337 415Q310 415 286.5 404.5Q263 394 245.5 374.5Q228 355 218 328.5Q208 302 208 269Q208 245 215 223Q222 201 236 183.5Q250 166 271.5 155.5Q293 145 322 145Q362 145 391.5 167.5Q421 190 432 225H621Q610 169 581.5 125.5Q553 82 512.5 52Q472 22 422 6Q372 -10 319 -10Z" glyph-name="Cdotaccent.smcp" horiz-adv-x="637" unicode="&#62323;" /><glyph d="M289 551 219 149H307Q354 149 395.5 165Q437 181 468 211Q499 241 517 283Q535 325 535 378Q535 424 518.5 456.5Q502 489 476 510Q450 531 418 541Q386 551 355 551ZM25 0 146 700H376Q451 700 513 677.5Q575 655 618.5 614.5Q662 574 686 518.5Q710 463 710 397Q710 310 682 237.5Q654 165 602.5 112Q551 59 477.5 29.5Q404 0 314 0Z" glyph-name="D" horiz-adv-x="716" unicode="D" /><glyph d="M116 560H316Q376 560 425.5 542Q475 524 511 491.5Q547 459 566.5 414.5Q586 370 586 318Q586 250 564 191.5Q542 133 501 90.5Q460 48 402 24Q344 0 272 0H18ZM268 142Q298 142 325.5 153.5Q353 165 374.5 185.5Q396 206 408.5 234.5Q421 263 421 297Q421 331 408 354.5Q395 378 376 392Q357 406 336 412.5Q315 419 299 419H250L201 142Z" glyph-name="D.smcp" horiz-adv-x="605" unicode="&#62260;" /><glyph d="M510 765H337L266 942H419L439 884L481 942H651ZM289 551 219 149H307Q354 149 395.5 165Q437 181 468 211Q499 241 517 283Q535 325 535 378Q535 424 518.5 456.5Q502 489 476 510Q450 531 418 541Q386 551 355 551ZM25 0 146 700H376Q451 700 513 677.5Q575 655 618.5 614.5Q662 574 686 518.5Q710 463 710 397Q710 310 682 237.5Q654 165 602.5 112Q551 59 477.5 29.5Q404 0 314 0Z" glyph-name="Dcaron" horiz-adv-x="716" unicode="&#270;" /><glyph d="M384 730H516L421 605H250L201 730H323L345 684ZM116 560H316Q376 560 425.5 542Q475 524 511 491.5Q547 459 566.5 414.5Q586 370 586 318Q586 250 564 191.5Q542 133 501 90.5Q460 48 402 24Q344 0 272 0H18ZM268 142Q298 142 325.5 153.5Q353 165 374.5 185.5Q396 206 408.5 234.5Q421 263 421 297Q421 331 408 354.5Q395 378 376 392Q357 406 336 412.5Q315 419 299 419H250L201 142Z" glyph-name="Dcaron.smcp" horiz-adv-x="605" unicode="&#62324;" /><glyph d="M300 551 279 431H445L418 283H253L230 149H318Q365 149 406.5 165Q448 181 479 211Q510 241 528 283Q546 325 546 378Q546 424 529.5 456.5Q513 489 487 510Q461 531 429 541Q397 551 366 551ZM39 431H110L157 700H387Q462 700 524 677.5Q586 655 629.5 614.5Q673 574 697 518.5Q721 463 721 397Q721 310 693 237.5Q665 165 613.5 112Q562 59 488.5 29.5Q415 0 325 0H36L85 283H13Z" glyph-name="Dcroat" horiz-adv-x="727" unicode="&#272;" /><glyph d="M277 142Q307 142 334.5 153.5Q362 165 383.5 185.5Q405 206 417.5 234.5Q430 263 430 297Q430 331 417 354.5Q404 378 385 392Q366 406 345 412.5Q324 419 308 419H259L245 341H350L331 229H225L210 142ZM28 341H86L125 560H325Q385 560 434.5 542Q484 524 520 491.5Q556 459 575.5 414.5Q595 370 595 318Q595 250 573 191.5Q551 133 510 90.5Q469 48 411 24Q353 0 281 0H27L67 229H9Z" glyph-name="Dcroat.smcp" horiz-adv-x="614" unicode="&#62497;" /><glyph d="M404 507 203 149H483ZM653 152 628 0H-7L17 152L341 700H517Z" glyph-name="Delta" horiz-adv-x="700" unicode="&#8710;" /><glyph d="M657 551H289L269 431H466L440 283H243L220 149H587L562 0H26L146 700H682Z" glyph-name="E" horiz-adv-x="637" unicode="E" /><glyph d="M115 560H563L539 420H250L239 356H382L357 216H215L202 141H490L467 0H20Z" glyph-name="E.smcp" horiz-adv-x="543" unicode="&#62261;" /><glyph d="M394 935H599L473 758H324ZM657 551H289L269 431H466L440 283H243L220 149H587L562 0H26L146 700H682Z" glyph-name="Eacute" horiz-adv-x="637" unicode="&#201;" /><glyph d="M322 730H499L396 605H266ZM115 560H563L539 420H250L239 356H382L357 216H215L202 141H490L467 0H20Z" glyph-name="Eacute.smcp" horiz-adv-x="543" unicode="&#62514;" /><glyph d="M479 942H601L595 900Q588 859 572 830.5Q556 802 533 784.5Q510 767 481 759.5Q452 752 419 752Q386 752 357 762.5Q328 773 307.5 793Q287 813 278 842Q269 871 275 909L282 942H405L399 901Q396 886 404 875Q412 864 430 864Q448 864 458 874Q468 884 471 899ZM657 551H289L269 431H466L440 283H243L220 149H587L562 0H26L146 700H682Z" glyph-name="Ebreve" horiz-adv-x="637" unicode="&#276;" /><glyph d="M339 700Q369 700 372 734H479Q479 699 467.5 674Q456 649 436 633.5Q416 618 389 610.5Q362 603 331 603Q275 603 242 629Q209 655 209 700Q209 705 209.5 711.5Q210 718 211 723Q212 729 214 734H314Q308 714 316.5 707Q325 700 339 700ZM115 560H563L539 420H250L239 356H382L357 216H215L202 141H490L467 0H20Z" glyph-name="Ebreve.smcp" horiz-adv-x="543" unicode="&#62515;" /><glyph d="M515 765H342L271 942H424L444 884L486 942H656ZM657 551H289L269 431H466L440 283H243L220 149H587L562 0H26L146 700H682Z" glyph-name="Ecaron" horiz-adv-x="637" unicode="&#282;" /><glyph d="M384 730H516L421 605H250L201 730H323L345 684ZM115 560H563L539 420H250L239 356H382L357 216H215L202 141H490L467 0H20Z" glyph-name="Ecaron.smcp" horiz-adv-x="543" unicode="&#62516;" /><glyph d="M360 935H533L611 758H456L433 816L398 758H226ZM657 551H289L269 431H466L440 283H243L220 149H587L562 0H26L146 700H682Z" glyph-name="Ecircumflex" horiz-adv-x="637" unicode="&#202;" /><glyph d="M354 650 315 605H183L278 730H449L498 605H375ZM115 560H563L539 420H250L239 356H382L357 216H215L202 141H490L467 0H20Z" glyph-name="Ecircumflex.smcp" horiz-adv-x="543" unicode="&#62517;" /><glyph d="M437 829Q437 847 444 863.5Q451 880 463.5 892.5Q476 905 492.5 912.5Q509 920 527 920Q545 920 561.5 912.5Q578 905 590.5 892.5Q603 880 610.5 863.5Q618 847 618 829Q618 811 610.5 795Q603 779 590.5 766.5Q578 754 561.5 747Q545 740 527 740Q509 740 492.5 747Q476 754 463.5 766.5Q451 779 444 795Q437 811 437 829ZM229 829Q229 847 236 863.5Q243 880 255.5 892.5Q268 905 284.5 912.5Q301 920 320 920Q338 920 354.5 912.5Q371 905 383.5 892.5Q396 880 403.5 863.5Q411 847 411 829Q411 811 403.5 795Q396 779 383.5 766.5Q371 754 354.5 747Q338 740 320 740Q301 740 284.5 747Q268 754 255.5 766.5Q243 779 236 795Q229 811 229 829ZM657 551H289L269 431H466L440 283H243L220 149H587L562 0H26L146 700H682Z" glyph-name="Edieresis" horiz-adv-x="637" unicode="&#203;" /><glyph d="M353 681Q353 712 376.5 735Q400 758 431 758Q446 758 460 751.5Q474 745 484.5 734.5Q495 724 501.5 710Q508 696 508 681Q508 666 501.5 652.5Q495 639 484.5 628.5Q474 618 460 612Q446 606 431 606Q416 606 401.5 612Q387 618 376.5 628.5Q366 639 359.5 652.5Q353 666 353 681ZM178 681Q178 696 184.5 710Q191 724 202 734.5Q213 745 227 751.5Q241 758 256 758Q271 758 285 751.5Q299 745 309.5 734.5Q320 724 326.5 710Q333 696 333 681Q333 666 326.5 652.5Q320 639 309.5 628.5Q299 618 285 612Q271 606 256 606Q241 606 227 612Q213 618 202 628.5Q191 639 184.5 652.5Q178 666 178 681ZM115 560H563L539 420H250L239 356H382L357 216H215L202 141H490L467 0H20Z" glyph-name="Edieresis.smcp" horiz-adv-x="543" unicode="&#62518;" /><glyph d="M419 945Q438 945 454.5 938Q471 931 483.5 918.5Q496 906 503 890Q510 874 510 856Q510 838 503 822Q496 806 483.5 793.5Q471 781 454.5 774Q438 767 419 767Q400 767 383.5 774Q367 781 354.5 793.5Q342 806 335 822Q328 838 328 856Q328 874 335 890Q342 906 354.5 918.5Q367 931 383.5 938Q400 945 419 945ZM657 551H289L269 431H466L440 283H243L220 149H587L562 0H26L146 700H682Z" glyph-name="Edotaccent" horiz-adv-x="637" unicode="&#278;" /><glyph d="M263 681Q263 696 269.5 710Q276 724 286.5 734.5Q297 745 311 751.5Q325 758 340 758Q371 758 394 735Q417 712 417 681Q417 651 394 628.5Q371 606 340 606Q325 606 311 612Q297 618 286.5 628.5Q276 639 269.5 652.5Q263 666 263 681ZM115 560H563L539 420H250L239 356H382L357 216H215L202 141H490L467 0H20Z" glyph-name="Edotaccent.smcp" horiz-adv-x="543" unicode="&#62519;" /><glyph d="M489 758H340L234 935H438ZM657 551H289L269 431H466L440 283H243L220 149H587L562 0H26L146 700H682Z" glyph-name="Egrave" horiz-adv-x="637" unicode="&#200;" /><glyph d="M402 605H272L180 730H356ZM115 560H563L539 420H250L239 356H382L357 216H215L202 141H490L467 0H20Z" glyph-name="Egrave.smcp" horiz-adv-x="543" unicode="&#62520;" /><glyph d="M268 905H609L585 767H244ZM657 551H289L269 431H466L440 283H243L220 149H587L562 0H26L146 700H682Z" glyph-name="Emacron" horiz-adv-x="637" unicode="&#274;" /><glyph d="M218 723H499L479 613H198ZM115 560H563L539 420H250L239 356H382L357 216H215L202 141H490L467 0H20Z" glyph-name="Emacron.smcp" horiz-adv-x="543" unicode="&#62521;" /><glyph d="M192 0H25L146 700H375L481 285L556 700H723L597 -31Q585 -102 545 -139Q505 -176 420 -176H313L340 -26H386Q403 -26 413 -21.5Q423 -17 426 -4L427 0H408L281 481Z" glyph-name="Eng" horiz-adv-x="708" unicode="&#330;" /><glyph d="M116 560H334L390 272L443 560H601L494 -49Q483 -107 452 -137.5Q421 -168 351 -168H257L282 -26H318Q331 -26 336.5 -20.5Q342 -15 345 0H319L244 358L176 0H18Z" glyph-name="Eng.smcp" horiz-adv-x="602" unicode="&#62487;" /><glyph d="M657 551H289L269 431H466L440 283H243L220 149H587L562 0H454Q423 -20 413 -37.5Q403 -55 403 -68Q403 -84 415.5 -90.5Q428 -97 442 -97Q462 -97 483 -91.5Q504 -86 514 -84L491 -175Q463 -186 433.5 -194.5Q404 -203 365 -203Q313 -203 277.5 -177.5Q242 -152 242 -107Q242 -72 267.5 -43.5Q293 -15 347 0H26L146 700H682Z" glyph-name="Eogonek" horiz-adv-x="637" unicode="&#280;" /><glyph d="M115 560H563L539 420H250L239 356H382L357 216H215L202 141H490L467 0H387Q354 -16 342.5 -31Q331 -46 331 -57Q331 -68 340.5 -74Q350 -80 361 -80Q377 -80 390.5 -77.5Q404 -75 410 -73L394 -150Q390 -152 367 -158.5Q344 -165 302 -165Q255 -165 224 -146.5Q193 -128 193 -95Q193 -63 218 -37.5Q243 -12 300 0H20Z" glyph-name="Eogonek.smcp" horiz-adv-x="543" unicode="&#62528;" /><glyph d="M300 551 279 431H445L418 283H253L230 149H318Q365 149 406.5 165Q448 181 479 211Q510 241 528 283Q546 325 546 378Q546 424 529.5 456.5Q513 489 487 510Q461 531 429 541Q397 551 366 551ZM39 431H110L157 700H387Q462 700 524 677.5Q586 655 629.5 614.5Q673 574 697 518.5Q721 463 721 397Q721 310 693 237.5Q665 165 613.5 112Q562 59 488.5 29.5Q415 0 325 0H36L85 283H13Z" glyph-name="Eth" horiz-adv-x="727" unicode="&#208;" /><glyph d="M277 142Q307 142 334.5 153.5Q362 165 383.5 185.5Q405 206 417.5 234.5Q430 263 430 297Q430 331 417 354.5Q404 378 385 392Q366 406 345 412.5Q324 419 308 419H259L245 341H350L331 229H225L210 142ZM28 341H86L125 560H325Q385 560 434.5 542Q484 524 520 491.5Q556 459 575.5 414.5Q595 370 595 318Q595 250 573 191.5Q551 133 510 90.5Q469 48 411 24Q353 0 281 0H27L67 229H9Z" glyph-name="Eth.smcp" horiz-adv-x="614" unicode="&#62498;" /><glyph d="M84 483H146Q167 535 200.5 577Q234 619 277 649Q320 679 370.5 695Q421 711 477 711Q537 711 591.5 692.5Q646 674 688 639Q730 604 757.5 552Q785 500 792 434H604Q595 487 564.5 518.5Q534 550 472 550Q431 550 398 532.5Q365 515 342 483H508L489 375H298Q294 351 292 325H481L462 218H311Q328 186 358 167.5Q388 149 435 149Q486 149 524.5 181Q563 213 580 265H786Q765 199 729 147.5Q693 96 645.5 60.5Q598 25 542.5 6.5Q487 -12 428 -12Q369 -12 319.5 5Q270 22 231 52Q192 82 165 124.5Q138 167 125 218H38L56 325H114Q115 338 115.5 350Q116 362 118 375H65Z" glyph-name="Euro" horiz-adv-x="812" unicode="&#8364;" /><glyph d="M60 363H102Q117 410 145 448Q173 486 210 513Q247 540 292 554.5Q337 569 386 569Q435 569 481.5 554Q528 539 564.5 509Q601 479 624.5 435Q648 391 653 334H474Q466 373 444 394Q422 415 381 415Q349 415 325 401Q301 387 284 363H402L390 295H258Q256 287 256 280.5Q256 274 255 266H385L373 198H266Q277 174 299 159.5Q321 145 355 145Q390 145 418.5 167Q447 189 458 226H656Q639 170 607.5 126Q576 82 535 52Q494 22 446.5 6.5Q399 -9 350 -9Q299 -9 256 6Q213 21 179.5 48.5Q146 76 123.5 114Q101 152 92 198H31L43 266H86Q86 274 86 280.5Q86 287 87 295H48Z" glyph-name="Euro.smcp" horiz-adv-x="688" unicode="&#63111;" /><glyph d="M239 264 194 0H26L146 700H663L638 551H289L266 413H530L504 264Z" glyph-name="F" horiz-adv-x="594" unicode="F" /><glyph d="M115 560H547L523 420H250L237 341H448L423 201H211L177 0H20Z" glyph-name="F.smcp" horiz-adv-x="508" unicode="&#62262;" /><glyph d="M228 327Q228 291 240 257.5Q252 224 274.5 198Q297 172 329 156.5Q361 141 402 141Q436 141 463.5 150Q491 159 511.5 173Q532 187 546 203Q560 219 566 234H411L435 370H756L692 0H562L575 78Q535 37 484.5 12.5Q434 -12 366 -12Q304 -12 247 12Q190 36 146 80.5Q102 125 75.5 188.5Q49 252 49 332Q49 414 80 484Q111 554 163.5 604.5Q216 655 284 683.5Q352 712 427 712Q493 712 550.5 691.5Q608 671 653 634Q698 597 727.5 546Q757 495 767 435H575Q562 484 524.5 517Q487 550 423 550Q382 550 346.5 533Q311 516 284.5 486.5Q258 457 243 416Q228 375 228 327Z" glyph-name="G" horiz-adv-x="771" unicode="G" /><glyph d="M300 -10Q245 -10 197 10.5Q149 31 113.5 68Q78 105 57.5 156.5Q37 208 37 270Q37 334 63 389Q89 444 132.5 484.5Q176 525 231.5 547.5Q287 570 347 570Q402 570 450 552.5Q498 535 535 504Q572 473 595.5 430Q619 387 627 336H444Q436 368 412 391.5Q388 415 343 415Q316 415 291.5 403.5Q267 392 248.5 372Q230 352 219 324.5Q208 297 208 264Q208 240 215.5 218Q223 196 237.5 179Q252 162 274 151.5Q296 141 325 141Q370 141 396.5 155.5Q423 170 434 187H315L338 314H612L558 0H441L449 55Q425 29 389 9.5Q353 -10 300 -10Z" glyph-name="G.smcp" horiz-adv-x="639" unicode="&#62263;" /><glyph d="M525 942H647L641 900Q634 859 618 830.5Q602 802 579 784.5Q556 767 527 759.5Q498 752 465 752Q432 752 403 762.5Q374 773 353.5 793Q333 813 324 842Q315 871 321 909L328 942H451L445 901Q442 886 450 875Q458 864 476 864Q494 864 504 874Q514 884 517 899ZM228 327Q228 291 240 257.5Q252 224 274.5 198Q297 172 329 156.5Q361 141 402 141Q436 141 463.5 150Q491 159 511.5 173Q532 187 546 203Q560 219 566 234H411L435 370H756L692 0H562L575 78Q535 37 484.5 12.5Q434 -12 366 -12Q304 -12 247 12Q190 36 146 80.5Q102 125 75.5 188.5Q49 252 49 332Q49 414 80 484Q111 554 163.5 604.5Q216 655 284 683.5Q352 712 427 712Q493 712 550.5 691.5Q608 671 653 634Q698 597 727.5 546Q757 495 767 435H575Q562 484 524.5 517Q487 550 423 550Q382 550 346.5 533Q311 516 284.5 486.5Q258 457 243 416Q228 375 228 327Z" glyph-name="Gbreve" horiz-adv-x="771" unicode="&#286;" /><glyph d="M388 700Q418 700 421 734H528Q528 699 516.5 674Q505 649 485 633.5Q465 618 438 610.5Q411 603 380 603Q324 603 291 629Q258 655 258 700Q258 705 258.5 711.5Q259 718 260 723Q261 729 263 734H363Q357 714 365.5 707Q374 700 388 700ZM300 -10Q245 -10 197 10.5Q149 31 113.5 68Q78 105 57.5 156.5Q37 208 37 270Q37 334 63 389Q89 444 132.5 484.5Q176 525 231.5 547.5Q287 570 347 570Q402 570 450 552.5Q498 535 535 504Q572 473 595.5 430Q619 387 627 336H444Q436 368 412 391.5Q388 415 343 415Q316 415 291.5 403.5Q267 392 248.5 372Q230 352 219 324.5Q208 297 208 264Q208 240 215.5 218Q223 196 237.5 179Q252 162 274 151.5Q296 141 325 141Q370 141 396.5 155.5Q423 170 434 187H315L338 314H612L558 0H441L449 55Q425 29 389 9.5Q353 -10 300 -10Z" glyph-name="Gbreve.smcp" horiz-adv-x="639" unicode="&#62325;" /><glyph d="M397 942H570L648 765H493L470 823L435 765H263ZM228 327Q228 291 240 257.5Q252 224 274.5 198Q297 172 329 156.5Q361 141 402 141Q436 141 463.5 150Q491 159 511.5 173Q532 187 546 203Q560 219 566 234H411L435 370H756L692 0H562L575 78Q535 37 484.5 12.5Q434 -12 366 -12Q304 -12 247 12Q190 36 146 80.5Q102 125 75.5 188.5Q49 252 49 332Q49 414 80 484Q111 554 163.5 604.5Q216 655 284 683.5Q352 712 427 712Q493 712 550.5 691.5Q608 671 653 634Q698 597 727.5 546Q757 495 767 435H575Q562 484 524.5 517Q487 550 423 550Q382 550 346.5 533Q311 516 284.5 486.5Q258 457 243 416Q228 375 228 327Z" glyph-name="Gcircumflex" horiz-adv-x="771" unicode="&#284;" /><glyph d="M391 650 352 605H220L315 730H486L535 605H412ZM300 -10Q245 -10 197 10.5Q149 31 113.5 68Q78 105 57.5 156.5Q37 208 37 270Q37 334 63 389Q89 444 132.5 484.5Q176 525 231.5 547.5Q287 570 347 570Q402 570 450 552.5Q498 535 535 504Q572 473 595.5 430Q619 387 627 336H444Q436 368 412 391.5Q388 415 343 415Q316 415 291.5 403.5Q267 392 248.5 372Q230 352 219 324.5Q208 297 208 264Q208 240 215.5 218Q223 196 237.5 179Q252 162 274 151.5Q296 141 325 141Q370 141 396.5 155.5Q423 170 434 187H315L338 314H612L558 0H441L449 55Q425 29 389 9.5Q353 -10 300 -10Z" glyph-name="Gcircumflex.smcp" horiz-adv-x="639" unicode="&#62326;" /><glyph d="M264 -137Q264 -121 270 -106Q276 -91 287.5 -79.5Q299 -68 314 -61Q329 -54 347 -54Q366 -54 382 -61Q398 -68 409.5 -80Q421 -92 427.5 -107.5Q434 -123 434 -139Q434 -153 428 -169Q422 -185 411 -198L320 -316L234 -298L286 -194Q264 -170 264 -137ZM228 327Q228 291 240 257.5Q252 224 274.5 198Q297 172 329 156.5Q361 141 402 141Q436 141 463.5 150Q491 159 511.5 173Q532 187 546 203Q560 219 566 234H411L435 370H756L692 0H562L575 78Q535 37 484.5 12.5Q434 -12 366 -12Q304 -12 247 12Q190 36 146 80.5Q102 125 75.5 188.5Q49 252 49 332Q49 414 80 484Q111 554 163.5 604.5Q216 655 284 683.5Q352 712 427 712Q493 712 550.5 691.5Q608 671 653 634Q698 597 727.5 546Q757 495 767 435H575Q562 484 524.5 517Q487 550 423 550Q382 550 346.5 533Q311 516 284.5 486.5Q258 457 243 416Q228 375 228 327Z" glyph-name="Gcommaaccent" horiz-adv-x="771" unicode="&#290;" /><glyph d="M190 -115Q190 -83 213 -60.5Q236 -38 268 -38Q305 -38 327 -62Q349 -86 349 -116Q349 -151 320 -183L246 -266L164 -245L209 -165Q190 -144 190 -115ZM300 -10Q245 -10 197 10.5Q149 31 113.5 68Q78 105 57.5 156.5Q37 208 37 270Q37 334 63 389Q89 444 132.5 484.5Q176 525 231.5 547.5Q287 570 347 570Q402 570 450 552.5Q498 535 535 504Q572 473 595.5 430Q619 387 627 336H444Q436 368 412 391.5Q388 415 343 415Q316 415 291.5 403.5Q267 392 248.5 372Q230 352 219 324.5Q208 297 208 264Q208 240 215.5 218Q223 196 237.5 179Q252 162 274 151.5Q296 141 325 141Q370 141 396.5 155.5Q423 170 434 187H315L338 314H612L558 0H441L449 55Q425 29 389 9.5Q353 -10 300 -10Z" glyph-name="Gcommaaccent.smcp" horiz-adv-x="639" unicode="&#62484;" /><glyph d="M469 945Q488 945 504.5 938Q521 931 533.5 918.5Q546 906 553 890Q560 874 560 856Q560 838 553 822Q546 806 533.5 793.5Q521 781 504.5 774Q488 767 469 767Q450 767 433.5 774Q417 781 404.5 793.5Q392 806 385 822Q378 838 378 856Q378 874 385 890Q392 906 404.5 918.5Q417 931 433.5 938Q450 945 469 945ZM228 327Q228 291 240 257.5Q252 224 274.5 198Q297 172 329 156.5Q361 141 402 141Q436 141 463.5 150Q491 159 511.5 173Q532 187 546 203Q560 219 566 234H411L435 370H756L692 0H562L575 78Q535 37 484.5 12.5Q434 -12 366 -12Q304 -12 247 12Q190 36 146 80.5Q102 125 75.5 188.5Q49 252 49 332Q49 414 80 484Q111 554 163.5 604.5Q216 655 284 683.5Q352 712 427 712Q493 712 550.5 691.5Q608 671 653 634Q698 597 727.5 546Q757 495 767 435H575Q562 484 524.5 517Q487 550 423 550Q382 550 346.5 533Q311 516 284.5 486.5Q258 457 243 416Q228 375 228 327Z" glyph-name="Gdotaccent" horiz-adv-x="771" unicode="&#288;" /><glyph d="M306 681Q306 696 312.5 710Q319 724 329.5 734.5Q340 745 354 751.5Q368 758 383 758Q414 758 437 735Q460 712 460 681Q460 651 437 628.5Q414 606 383 606Q368 606 354 612Q340 618 329.5 628.5Q319 639 312.5 652.5Q306 666 306 681ZM300 -10Q245 -10 197 10.5Q149 31 113.5 68Q78 105 57.5 156.5Q37 208 37 270Q37 334 63 389Q89 444 132.5 484.5Q176 525 231.5 547.5Q287 570 347 570Q402 570 450 552.5Q498 535 535 504Q572 473 595.5 430Q619 387 627 336H444Q436 368 412 391.5Q388 415 343 415Q316 415 291.5 403.5Q267 392 248.5 372Q230 352 219 324.5Q208 297 208 264Q208 240 215.5 218Q223 196 237.5 179Q252 162 274 151.5Q296 141 325 141Q370 141 396.5 155.5Q423 170 434 187H315L338 314H612L558 0H441L449 55Q425 29 389 9.5Q353 -10 300 -10Z" glyph-name="Gdotaccent.smcp" horiz-adv-x="639" unicode="&#62327;" /><glyph d="M434 0 483 283H243L194 0H25L146 700H314L268 431H508L554 700H723L602 0Z" glyph-name="H" horiz-adv-x="707" unicode="H" /><glyph d="M116 560H273L239 356H407L442 560H601L504 0H346L383 216H215L177 0H18Z" glyph-name="H.smcp" horiz-adv-x="603" unicode="&#62264;" /><glyph d="M522 431 533 499H293L282 431ZM75 641H150L160 700H328L318 641H558L568 700H737L727 641H794L769 499H702L616 0H448L497 283H257L208 0H39L125 499H51Z" glyph-name="Hbar" horiz-adv-x="729" unicode="&#294;" /><glyph d="M411 356 418 397H250L243 356ZM67 498H109L120 560H277L266 498H435L446 560H605L594 498H638L621 397H577L508 0H350L387 216H219L181 0H22L91 397H50Z" glyph-name="Hbar.smcp" horiz-adv-x="610" unicode="&#62499;" /><glyph d="M374 942H547L625 765H470L447 823L412 765H240ZM434 0 483 283H243L194 0H25L146 700H314L268 431H508L554 700H723L602 0Z" glyph-name="Hcircumflex" horiz-adv-x="707" unicode="&#292;" /><glyph d="M375 650 336 605H204L299 730H470L519 605H396ZM116 560H273L239 356H407L442 560H601L504 0H346L383 216H215L177 0H18Z" glyph-name="Hcircumflex.smcp" horiz-adv-x="603" unicode="&#62328;" /><glyph d="M146 700H315L195 0H26Z" glyph-name="I" horiz-adv-x="299" unicode="I" /><glyph d="M115 560H274L179 0H19Z" glyph-name="I.smcp" horiz-adv-x="277" unicode="&#62265;" /><glyph d="M496 315 488 269Q484 245 487 222Q490 199 501.5 181Q513 163 533 152Q553 141 582 141Q629 141 655.5 171Q682 201 690 251L767 700H936L851 211Q843 163 820.5 122Q798 81 763 51Q728 21 681 4Q634 -13 576 -13Q514 -13 462 8Q410 29 374.5 66.5Q339 104 323.5 156.5Q308 209 319 273L326 315ZM146 700H315L195 0H26Z" glyph-name="IJ" horiz-adv-x="914" unicode="&#306;" /><glyph d="M302 2Q325 2 334 12Q343 22 348 51L459 700H628L506 -3Q495 -74 456.5 -111Q418 -148 335 -148H231L257 2ZM146 700H315L195 0H26Z" glyph-name="IJ.alt" horiz-adv-x="612" unicode="&#59530;" /><glyph d="M451 256 446 227Q444 216 443 203Q442 190 444 181Q449 161 464.5 148Q480 135 507 135Q565 135 579 210L640 560H797L731 170Q725 132 708 99Q691 66 662.5 41.5Q634 17 594 3Q554 -11 502 -11Q446 -11 402.5 6.5Q359 24 330.5 56Q302 88 290.5 132Q279 176 288 229L293 256ZM115 560H274L179 0H19Z" glyph-name="IJ.smcp" horiz-adv-x="795" unicode="&#62341;" /><glyph d="M234 935H439L313 758H164ZM146 700H315L195 0H26Z" glyph-name="Iacute" horiz-adv-x="299" unicode="&#205;" /><glyph d="M191 730H368L265 605H135ZM115 560H274L179 0H19Z" glyph-name="Iacute.smcp" horiz-adv-x="277" unicode="&#62329;" /><glyph d="M309 942H431L425 900Q418 859 402 830.5Q386 802 363 784.5Q340 767 311 759.5Q282 752 249 752Q216 752 187 762.5Q158 773 137.5 793Q117 813 108 842Q99 871 105 909L112 942H235L229 901Q226 886 234 875Q242 864 260 864Q278 864 288 874Q298 884 301 899ZM146 700H315L195 0H26Z" glyph-name="Ibreve" horiz-adv-x="299" unicode="&#300;" /><glyph d="M210 700Q240 700 243 734H350Q350 699 338.5 674Q327 649 307 633.5Q287 618 260 610.5Q233 603 202 603Q146 603 113 629Q80 655 80 700Q80 705 80.5 711.5Q81 718 82 723Q83 729 85 734H185Q179 714 187.5 707Q196 700 210 700ZM115 560H274L179 0H19Z" glyph-name="Ibreve.smcp" horiz-adv-x="277" unicode="&#62336;" /><glyph d="M177 935H350L428 758H273L250 816L215 758H43ZM146 700H315L195 0H26Z" glyph-name="Icircumflex" horiz-adv-x="299" unicode="&#206;" /><glyph d="M212 650 173 605H41L136 730H307L356 605H233ZM115 560H274L179 0H19Z" glyph-name="Icircumflex.smcp" horiz-adv-x="277" unicode="&#62337;" /><glyph d="M262 829Q262 847 269 863.5Q276 880 288.5 892.5Q301 905 317.5 912.5Q334 920 352 920Q370 920 386.5 912.5Q403 905 415.5 892.5Q428 880 435.5 863.5Q443 847 443 829Q443 811 435.5 795Q428 779 415.5 766.5Q403 754 386.5 747Q370 740 352 740Q334 740 317.5 747Q301 754 288.5 766.5Q276 779 269 795Q262 811 262 829ZM54 829Q54 847 61 863.5Q68 880 80.5 892.5Q93 905 109.5 912.5Q126 920 145 920Q163 920 179.5 912.5Q196 905 208.5 892.5Q221 880 228.5 863.5Q236 847 236 829Q236 811 228.5 795Q221 779 208.5 766.5Q196 754 179.5 747Q163 740 145 740Q126 740 109.5 747Q93 754 80.5 766.5Q68 779 61 795Q54 811 54 829ZM146 700H315L195 0H26Z" glyph-name="Idieresis" horiz-adv-x="299" unicode="&#207;" /><glyph d="M221 681Q221 712 244.5 735Q268 758 299 758Q314 758 328 751.5Q342 745 352.5 734.5Q363 724 369.5 710Q376 696 376 681Q376 666 369.5 652.5Q363 639 352.5 628.5Q342 618 328 612Q314 606 299 606Q284 606 269.5 612Q255 618 244.5 628.5Q234 639 227.5 652.5Q221 666 221 681ZM46 681Q46 696 52.5 710Q59 724 70 734.5Q81 745 95 751.5Q109 758 124 758Q139 758 153 751.5Q167 745 177.5 734.5Q188 724 194.5 710Q201 696 201 681Q201 666 194.5 652.5Q188 639 177.5 628.5Q167 618 153 612Q139 606 124 606Q109 606 95 612Q81 618 70 628.5Q59 639 52.5 652.5Q46 666 46 681ZM115 560H274L179 0H19Z" glyph-name="Idieresis.smcp" horiz-adv-x="277" unicode="&#62338;" /><glyph d="M245 945Q264 945 280.5 938Q297 931 309.5 918.5Q322 906 329 890Q336 874 336 856Q336 838 329 822Q322 806 309.5 793.5Q297 781 280.5 774Q264 767 245 767Q226 767 209.5 774Q193 781 180.5 793.5Q168 806 161 822Q154 838 154 856Q154 874 161 890Q168 906 180.5 918.5Q193 931 209.5 938Q226 945 245 945ZM146 700H315L195 0H26Z" glyph-name="Idotaccent" horiz-adv-x="299" unicode="&#304;" /><glyph d="M131 681Q131 696 137.5 710Q144 724 154.5 734.5Q165 745 179 751.5Q193 758 208 758Q239 758 262 735Q285 712 285 681Q285 651 262 628.5Q239 606 208 606Q193 606 179 612Q165 618 154.5 628.5Q144 639 137.5 652.5Q131 666 131 681ZM115 560H274L179 0H19Z" glyph-name="Idotaccent.smcp" horiz-adv-x="277" unicode="&#62339;" /><glyph d="M310 758H161L55 935H259ZM146 700H315L195 0H26Z" glyph-name="Igrave" horiz-adv-x="299" unicode="&#204;" /><glyph d="M257 605H127L35 730H211ZM115 560H274L179 0H19Z" glyph-name="Igrave.smcp" horiz-adv-x="277" unicode="&#62340;" /><glyph d="M97 905H438L414 767H73ZM146 700H315L195 0H26Z" glyph-name="Imacron" horiz-adv-x="299" unicode="&#298;" /><glyph d="M78 723H359L339 613H58ZM115 560H274L179 0H19Z" glyph-name="Imacron.smcp" horiz-adv-x="277" unicode="&#62489;" /><glyph d="M146 700H315L195 0H167Q136 -20 126 -37.5Q116 -55 116 -68Q116 -84 128.5 -90.5Q141 -97 155 -97Q175 -97 196 -91.5Q217 -86 227 -84L204 -175Q176 -186 146.5 -194.5Q117 -203 78 -203Q26 -203 -9.5 -177.5Q-45 -152 -45 -107Q-45 -72 -19 -43.5Q7 -15 60 0H26Z" glyph-name="Iogonek" horiz-adv-x="299" unicode="&#302;" /><glyph d="M115 560H274L179 0H142Q109 -16 97.5 -31Q86 -46 86 -57Q86 -68 95.5 -74Q105 -80 116 -80Q132 -80 145.5 -77.5Q159 -75 165 -73L149 -150Q145 -152 122 -158.5Q99 -165 57 -165Q10 -165 -21 -146.5Q-52 -128 -52 -95Q-52 -63 -27 -37.5Q-2 -12 55 0H19Z" glyph-name="Iogonek.smcp" horiz-adv-x="277" unicode="&#62342;" /><glyph d="M172 913Q188 913 204.5 907.5Q221 902 236.5 896Q252 890 265 884.5Q278 879 289 879Q310 879 314 898L316 911L436 891Q434 871 429 846Q424 821 411 799.5Q398 778 375 763Q352 748 313 748Q298 748 280.5 753Q263 758 247 764Q231 770 217.5 775Q204 780 197 780Q176 780 172 761L170 748L50 768Q52 788 57 813Q62 838 75 860.5Q88 883 111 898Q134 913 172 913ZM146 700H315L195 0H26Z" glyph-name="Itilde" horiz-adv-x="299" unicode="&#296;" /><glyph d="M256 604Q244 604 230 607.5Q216 611 203 615.5Q190 620 179 624Q168 628 162 628Q156 628 151.5 624.5Q147 621 147 613V609H49L52 631Q54 643 58.5 661Q63 679 74.5 695.5Q86 712 105 724Q124 736 156 736Q168 736 182 732Q196 728 209 723.5Q222 719 233.5 715.5Q245 712 251 712Q256 712 260.5 715.5Q265 719 265 727V731H363L360 709Q358 697 354 679Q350 661 338.5 644.5Q327 628 307.5 616Q288 604 256 604ZM115 560H274L179 0H19Z" glyph-name="Itilde.smcp" horiz-adv-x="277" unicode="&#62343;" /><glyph d="M197 315 189 269Q185 245 188 222Q191 199 202.5 181Q214 163 234 152Q254 141 283 141Q330 141 356.5 171Q383 201 391 251L468 700H637L552 211Q544 163 521.5 122Q499 81 464 51Q429 21 382 4Q335 -13 277 -13Q215 -13 163 8Q111 29 75.5 66.5Q40 104 24.5 156.5Q9 209 20 273L27 315Z" glyph-name="J" horiz-adv-x="615" unicode="J" /><glyph d="M3 2Q26 2 35 12Q44 22 49 51L160 700H329L207 -3Q196 -74 157.5 -111Q119 -148 36 -148H-68L-42 2Z" glyph-name="J.alt" horiz-adv-x="313" unicode="&#58505;" /><glyph d="M174 256 169 227Q167 216 166 203Q165 190 167 181Q172 161 187.5 148Q203 135 230 135Q288 135 302 210L363 560H520L454 170Q448 132 431 99Q414 66 385.5 41.5Q357 17 317 3Q277 -11 225 -11Q169 -11 125.5 6.5Q82 24 53.5 56Q25 88 13.5 132Q2 176 11 229L16 256Z" glyph-name="J.smcp" horiz-adv-x="518" unicode="&#62272;" /><glyph d="M312 935H485L563 758H408L385 816L350 758H178ZM197 315 189 269Q185 245 188 222Q191 199 202.5 181Q214 163 234 152Q254 141 283 141Q330 141 356.5 171Q383 201 391 251L468 700H637L552 211Q544 163 521.5 122Q499 81 464 51Q429 21 382 4Q335 -13 277 -13Q215 -13 163 8Q111 29 75.5 66.5Q40 104 24.5 156.5Q9 209 20 273L27 315Z" glyph-name="Jcircumflex" horiz-adv-x="615" unicode="&#308;" /><glyph d="M295 650 256 605H124L219 730H390L439 605H316ZM174 256 169 227Q167 216 166 203Q165 190 167 181Q172 161 187.5 148Q203 135 230 135Q288 135 302 210L363 560H520L454 170Q448 132 431 99Q414 66 385.5 41.5Q357 17 317 3Q277 -11 225 -11Q169 -11 125.5 6.5Q82 24 53.5 56Q25 88 13.5 132Q2 176 11 229L16 256Z" glyph-name="Jcircumflex.smcp" horiz-adv-x="518" unicode="&#62344;" /><glyph d="M268 435H303L529 700H739L430 355L607 0H412L278 287H244L194 0H25L146 700H314Z" glyph-name="K" horiz-adv-x="647" unicode="K" /><glyph d="M116 560H273L238 357H267L419 560H613L386 280L508 0H326L241 217H216L177 0H18Z" glyph-name="K.smcp" horiz-adv-x="559" unicode="&#62273;" /><glyph d="M192 -137Q192 -121 198 -106Q204 -91 215.5 -79.5Q227 -68 242 -61Q257 -54 275 -54Q294 -54 310 -61Q326 -68 337.5 -80Q349 -92 355.5 -107.5Q362 -123 362 -139Q362 -153 356 -169Q350 -185 339 -198L248 -316L162 -298L214 -194Q192 -170 192 -137ZM268 435H303L529 700H739L430 355L607 0H412L278 287H244L194 0H25L146 700H314Z" glyph-name="Kcommaaccent" horiz-adv-x="647" unicode="&#310;" /><glyph d="M149 -115Q149 -83 172 -60.5Q195 -38 227 -38Q264 -38 286 -62Q308 -86 308 -116Q308 -151 279 -183L205 -266L123 -245L168 -165Q149 -144 149 -115ZM116 560H273L238 357H267L419 560H613L386 280L508 0H326L241 217H216L177 0H18Z" glyph-name="Kcommaaccent.smcp" horiz-adv-x="559" unicode="&#62345;" /><glyph d="M26 0 146 700H315L220 149H506L481 0Z" glyph-name="L" horiz-adv-x="530" unicode="L" /><glyph d="M115 560H274L202 141H427L403 0H20Z" glyph-name="L.smcp" horiz-adv-x="455" unicode="&#62274;" /><glyph d="M295 942H500L374 765H225ZM26 0 146 700H315L220 149H506L481 0Z" glyph-name="Lacute" horiz-adv-x="530" unicode="&#313;" /><glyph d="M248 730H425L322 605H192ZM115 560H274L202 141H427L403 0H20Z" glyph-name="Lacute.smcp" horiz-adv-x="455" unicode="&#62352;" /><glyph d="M393 556Q393 572 399 587Q405 602 416.5 613.5Q428 625 443 632Q458 639 476 639Q495 639 511 632Q527 625 538.5 613Q550 601 556.5 585.5Q563 570 563 554Q563 540 557 524Q551 508 540 495L449 377L363 395L415 499Q393 523 393 556ZM26 0 146 700H315L220 149H506L481 0Z" glyph-name="Lcaron" horiz-adv-x="535" unicode="&#317;" /><glyph d="M335 494Q335 526 358 548.5Q381 571 413 571Q450 571 472 547Q494 523 494 493Q494 458 465 426L391 343L309 364L354 444Q335 465 335 494ZM115 560H274L202 141H427L403 0H20Z" glyph-name="Lcaron.smcp" horiz-adv-x="461" unicode="&#62496;" /><glyph d="M147 -137Q147 -121 153 -106Q159 -91 170.5 -79.5Q182 -68 197 -61Q212 -54 230 -54Q249 -54 265 -61Q281 -68 292.5 -80Q304 -92 310.5 -107.5Q317 -123 317 -139Q317 -153 311 -169Q305 -185 294 -198L203 -316L117 -298L169 -194Q147 -170 147 -137ZM26 0 146 700H315L220 149H506L481 0Z" glyph-name="Lcommaaccent" horiz-adv-x="530" unicode="&#315;" /><glyph d="M113 -115Q113 -83 136 -60.5Q159 -38 191 -38Q228 -38 250 -62Q272 -86 272 -116Q272 -151 243 -183L169 -266L87 -245L132 -165Q113 -144 113 -115ZM115 560H274L202 141H427L403 0H20Z" glyph-name="Lcommaaccent.smcp" horiz-adv-x="455" unicode="&#62488;" /><glyph d="M330 357Q330 378 338 396.5Q346 415 359.5 428.5Q373 442 391 450Q409 458 430 458Q451 458 469.5 450Q488 442 501.5 428.5Q515 415 523 396.5Q531 378 531 357Q531 336 523 318Q515 300 501.5 286.5Q488 273 469.5 265Q451 257 430 257Q388 257 359 286Q330 315 330 357ZM26 0 146 700H315L220 149H506L481 0Z" glyph-name="Ldot" horiz-adv-x="531" unicode="&#319;" /><glyph d="M289 330Q289 345 295.5 359Q302 373 312.5 383.5Q323 394 337 400.5Q351 407 366 407Q397 407 420 384Q443 361 443 330Q443 300 420 277.5Q397 255 366 255Q351 255 337 261Q323 267 312.5 277.5Q302 288 295.5 301.5Q289 315 289 330ZM115 560H274L202 141H427L403 0H20Z" glyph-name="Ldot.smcp" horiz-adv-x="456" unicode="&#62501;" /><glyph d="M34 332 91 351 151 700H320L270 410L440 467L417 359L251 304L225 149H511L486 0H31L73 244L12 224Z" glyph-name="Lslash" horiz-adv-x="535" unicode="&#321;" /><glyph d="M19 274 75 291 121 560H280L243 344L357 380L337 270L224 234L208 141H433L409 0H26L57 182L0 164Z" glyph-name="Lslash.smcp" horiz-adv-x="461" unicode="&#62502;" /><glyph d="M319 150 264 424 190 0H25L146 700H360L429 344L623 700H847L726 0H558L632 424L480 150Z" glyph-name="M" horiz-adv-x="831" unicode="M" /><glyph d="M116 560H312L355 316L490 560H693L596 0H439L489 288L396 120H258L226 288L175 0H19Z" glyph-name="M.smcp" horiz-adv-x="695" unicode="&#62275;" /><glyph d="M192 0H25L146 700H375L481 285L556 700H723L602 0H408L281 481Z" glyph-name="N" horiz-adv-x="707" unicode="N" /><glyph d="M116 560H334L390 272L443 560H601L504 0H321L244 358L176 0H18Z" glyph-name="N.smcp" horiz-adv-x="603" unicode="&#62276;" /><glyph d="M423 942H628L502 765H353ZM192 0H25L146 700H375L481 285L556 700H723L602 0H408L281 481Z" glyph-name="Nacute" horiz-adv-x="707" unicode="&#323;" /><glyph d="M345 730H522L419 605H289ZM116 560H334L390 272L443 560H601L504 0H321L244 358L176 0H18Z" glyph-name="Nacute.smcp" horiz-adv-x="603" unicode="&#62353;" /><glyph d="M533 765H360L289 942H442L462 884L504 942H674ZM192 0H25L146 700H375L481 285L556 700H723L602 0H408L281 481Z" glyph-name="Ncaron" horiz-adv-x="707" unicode="&#327;" /><glyph d="M409 730H541L446 605H275L226 730H348L370 684ZM116 560H334L390 272L443 560H601L504 0H321L244 358L176 0H18Z" glyph-name="Ncaron.smcp" horiz-adv-x="603" unicode="&#62354;" /><glyph d="M210 -137Q210 -121 216 -106Q222 -91 233.5 -79.5Q245 -68 260 -61Q275 -54 293 -54Q312 -54 328 -61Q344 -68 355.5 -80Q367 -92 373.5 -107.5Q380 -123 380 -139Q380 -153 374 -169Q368 -185 357 -198L266 -316L180 -298L232 -194Q210 -170 210 -137ZM192 0H25L146 700H375L481 285L556 700H723L602 0H408L281 481Z" glyph-name="Ncommaaccent" horiz-adv-x="707" unicode="&#325;" /><glyph d="M174 -115Q174 -83 197 -60.5Q220 -38 252 -38Q289 -38 311 -62Q333 -86 333 -116Q333 -151 304 -183L230 -266L148 -245L193 -165Q174 -144 174 -115ZM116 560H334L390 272L443 560H601L504 0H321L244 358L176 0H18Z" glyph-name="Ncommaaccent.smcp" horiz-adv-x="603" unicode="&#62355;" /><glyph d="M372 906Q388 906 404.5 900.5Q421 895 436.5 889Q452 883 465 877.5Q478 872 489 872Q510 872 514 891L516 904L636 884Q634 864 629 839Q624 814 611 792.5Q598 771 575 756Q552 741 513 741Q498 741 480.5 746Q463 751 447 757Q431 763 417.5 768Q404 773 397 773Q376 773 372 754L370 741L250 761Q252 781 257 806Q262 831 275 853.5Q288 876 311 891Q334 906 372 906ZM192 0H25L146 700H375L481 285L556 700H723L602 0H408L281 481Z" glyph-name="Ntilde" horiz-adv-x="707" unicode="&#209;" /><glyph d="M425 604Q413 604 399 607.5Q385 611 372 615.5Q359 620 348 624Q337 628 331 628Q325 628 320.5 624.5Q316 621 316 613V609H218L221 631Q223 643 227.5 661Q232 679 243.5 695.5Q255 712 274 724Q293 736 325 736Q337 736 351 732Q365 728 378 723.5Q391 719 402.5 715.5Q414 712 420 712Q425 712 429.5 715.5Q434 719 434 727V731H532L529 709Q527 697 523 679Q519 661 507.5 644.5Q496 628 476.5 616Q457 604 425 604ZM116 560H334L390 272L443 560H601L504 0H321L244 358L176 0H18Z" glyph-name="Ntilde.smcp" horiz-adv-x="603" unicode="&#62356;" /><glyph d="M394 -12Q319 -12 255.5 14Q192 40 146 86.5Q100 133 74 195.5Q48 258 48 332Q48 414 79 484Q110 554 162.5 604.5Q215 655 283 683.5Q351 712 426 712Q501 712 564.5 686Q628 660 674 613.5Q720 567 746 504Q772 441 772 368Q772 285 741 215.5Q710 146 657.5 95.5Q605 45 537 16.5Q469 -12 394 -12ZM398 150Q439 150 474.5 167Q510 184 536.5 213.5Q563 243 578 284Q593 325 593 373Q593 409 582 441Q571 473 549 497.5Q527 522 495.5 536Q464 550 422 550Q381 550 345.5 533Q310 516 283.5 486.5Q257 457 242 416Q227 375 227 327Q227 291 238 259Q249 227 271 202.5Q293 178 324.5 164Q356 150 398 150Z" glyph-name="O" horiz-adv-x="779" unicode="O" /><glyph d="M319 -10Q258 -10 206.5 11.5Q155 33 117.5 70.5Q80 108 58.5 159Q37 210 37 270Q37 334 62 389Q87 444 128.5 484.5Q170 525 225 547.5Q280 570 340 570Q401 570 453 548.5Q505 527 542.5 489.5Q580 452 601 401Q622 350 622 292Q622 227 597 171.5Q572 116 530.5 75.5Q489 35 434 12.5Q379 -10 319 -10ZM323 146Q350 146 373.5 157.5Q397 169 414.5 189Q432 209 442 236.5Q452 264 452 297Q452 321 444.5 342Q437 363 423 379.5Q409 396 387 405.5Q365 415 337 415Q310 415 286.5 403.5Q263 392 245 372Q227 352 217 324.5Q207 297 207 264Q207 240 214.5 219Q222 198 236.5 181.5Q251 165 272.5 155.5Q294 146 323 146Z" glyph-name="O.smcp" horiz-adv-x="642" unicode="&#62277;" /><glyph d="M446 551Q393 551 351 531Q309 511 280 477.5Q251 444 236 400Q221 356 221 308Q221 269 233.5 239.5Q246 210 267 189.5Q288 169 315.5 159Q343 149 373 149H462L532 551ZM1068 551H700L680 431H877L851 283H654L631 149H998L973 0H360Q286 0 228 24Q170 48 129.5 90Q89 132 68 188.5Q47 245 47 310Q47 388 74 458.5Q101 529 152 582.5Q203 636 276.5 668Q350 700 443 700H1093Z" glyph-name="OE" horiz-adv-x="1048" unicode="&#338;" /><glyph d="M367 141 416 420H346Q309 420 282 404.5Q255 389 237 365Q219 341 210 311.5Q201 282 201 253Q201 226 210 205Q219 184 233 170Q247 156 263.5 148.5Q280 141 296 141ZM291 0Q232 0 185 20Q138 40 105 74.5Q72 109 54.5 154.5Q37 200 37 252Q37 312 57.5 368Q78 424 118 466.5Q158 509 216 534.5Q274 560 348 560H886L863 420H574L564 356H706L681 216H539L527 141H815L791 0Z" glyph-name="OE.smcp" horiz-adv-x="867" unicode="&#62295;" /><glyph d="M445 935H650L524 758H375ZM394 -12Q319 -12 255.5 14Q192 40 146 86.5Q100 133 74 195.5Q48 258 48 332Q48 414 79 484Q110 554 162.5 604.5Q215 655 283 683.5Q351 712 426 712Q501 712 564.5 686Q628 660 674 613.5Q720 567 746 504Q772 441 772 368Q772 285 741 215.5Q710 146 657.5 95.5Q605 45 537 16.5Q469 -12 394 -12ZM398 150Q439 150 474.5 167Q510 184 536.5 213.5Q563 243 578 284Q593 325 593 373Q593 409 582 441Q571 473 549 497.5Q527 522 495.5 536Q464 550 422 550Q381 550 345.5 533Q310 516 283.5 486.5Q257 457 242 416Q227 375 227 327Q227 291 238 259Q249 227 271 202.5Q293 178 324.5 164Q356 150 398 150Z" glyph-name="Oacute" horiz-adv-x="779" unicode="&#211;" /><glyph d="M360 730H537L434 605H304ZM319 -10Q258 -10 206.5 11.5Q155 33 117.5 70.5Q80 108 58.5 159Q37 210 37 270Q37 334 62 389Q87 444 128.5 484.5Q170 525 225 547.5Q280 570 340 570Q401 570 453 548.5Q505 527 542.5 489.5Q580 452 601 401Q622 350 622 292Q622 227 597 171.5Q572 116 530.5 75.5Q489 35 434 12.5Q379 -10 319 -10ZM323 146Q350 146 373.5 157.5Q397 169 414.5 189Q432 209 442 236.5Q452 264 452 297Q452 321 444.5 342Q437 363 423 379.5Q409 396 387 405.5Q365 415 337 415Q310 415 286.5 403.5Q263 392 245 372Q227 352 217 324.5Q207 297 207 264Q207 240 214.5 219Q222 198 236.5 181.5Q251 165 272.5 155.5Q294 146 323 146Z" glyph-name="Oacute.smcp" horiz-adv-x="642" unicode="&#62357;" /><glyph d="M506 942H628L622 900Q615 859 599 830.5Q583 802 560 784.5Q537 767 508 759.5Q479 752 446 752Q413 752 384 762.5Q355 773 334.5 793Q314 813 305 842Q296 871 302 909L309 942H432L426 901Q423 886 431 875Q439 864 457 864Q475 864 485 874Q495 884 498 899ZM394 -12Q319 -12 255.5 14Q192 40 146 86.5Q100 133 74 195.5Q48 258 48 332Q48 414 79 484Q110 554 162.5 604.5Q215 655 283 683.5Q351 712 426 712Q501 712 564.5 686Q628 660 674 613.5Q720 567 746 504Q772 441 772 368Q772 285 741 215.5Q710 146 657.5 95.5Q605 45 537 16.5Q469 -12 394 -12ZM398 150Q439 150 474.5 167Q510 184 536.5 213.5Q563 243 578 284Q593 325 593 373Q593 409 582 441Q571 473 549 497.5Q527 522 495.5 536Q464 550 422 550Q381 550 345.5 533Q310 516 283.5 486.5Q257 457 242 416Q227 375 227 327Q227 291 238 259Q249 227 271 202.5Q293 178 324.5 164Q356 150 398 150Z" glyph-name="Obreve" horiz-adv-x="779" unicode="&#334;" /><glyph d="M376 700Q406 700 409 734H516Q516 699 504.5 674Q493 649 473 633.5Q453 618 426 610.5Q399 603 368 603Q312 603 279 629Q246 655 246 700Q246 705 246.5 711.5Q247 718 248 723Q249 729 251 734H351Q345 714 353.5 707Q362 700 376 700ZM319 -10Q258 -10 206.5 11.5Q155 33 117.5 70.5Q80 108 58.5 159Q37 210 37 270Q37 334 62 389Q87 444 128.5 484.5Q170 525 225 547.5Q280 570 340 570Q401 570 453 548.5Q505 527 542.5 489.5Q580 452 601 401Q622 350 622 292Q622 227 597 171.5Q572 116 530.5 75.5Q489 35 434 12.5Q379 -10 319 -10ZM323 146Q350 146 373.5 157.5Q397 169 414.5 189Q432 209 442 236.5Q452 264 452 297Q452 321 444.5 342Q437 363 423 379.5Q409 396 387 405.5Q365 415 337 415Q310 415 286.5 403.5Q263 392 245 372Q227 352 217 324.5Q207 297 207 264Q207 240 214.5 219Q222 198 236.5 181.5Q251 165 272.5 155.5Q294 146 323 146Z" glyph-name="Obreve.smcp" horiz-adv-x="642" unicode="&#62534;" /><glyph d="M391 935H564L642 758H487L464 816L429 758H257ZM394 -12Q319 -12 255.5 14Q192 40 146 86.5Q100 133 74 195.5Q48 258 48 332Q48 414 79 484Q110 554 162.5 604.5Q215 655 283 683.5Q351 712 426 712Q501 712 564.5 686Q628 660 674 613.5Q720 567 746 504Q772 441 772 368Q772 285 741 215.5Q710 146 657.5 95.5Q605 45 537 16.5Q469 -12 394 -12ZM398 150Q439 150 474.5 167Q510 184 536.5 213.5Q563 243 578 284Q593 325 593 373Q593 409 582 441Q571 473 549 497.5Q527 522 495.5 536Q464 550 422 550Q381 550 345.5 533Q310 516 283.5 486.5Q257 457 242 416Q227 375 227 327Q227 291 238 259Q249 227 271 202.5Q293 178 324.5 164Q356 150 398 150Z" glyph-name="Ocircumflex" horiz-adv-x="779" unicode="&#212;" /><glyph d="M374 650 335 605H203L298 730H469L518 605H395ZM319 -10Q258 -10 206.5 11.5Q155 33 117.5 70.5Q80 108 58.5 159Q37 210 37 270Q37 334 62 389Q87 444 128.5 484.5Q170 525 225 547.5Q280 570 340 570Q401 570 453 548.5Q505 527 542.5 489.5Q580 452 601 401Q622 350 622 292Q622 227 597 171.5Q572 116 530.5 75.5Q489 35 434 12.5Q379 -10 319 -10ZM323 146Q350 146 373.5 157.5Q397 169 414.5 189Q432 209 442 236.5Q452 264 452 297Q452 321 444.5 342Q437 363 423 379.5Q409 396 387 405.5Q365 415 337 415Q310 415 286.5 403.5Q263 392 245 372Q227 352 217 324.5Q207 297 207 264Q207 240 214.5 219Q222 198 236.5 181.5Q251 165 272.5 155.5Q294 146 323 146Z" glyph-name="Ocircumflex.smcp" horiz-adv-x="642" unicode="&#62535;" /><glyph d="M470 829Q470 847 477 863.5Q484 880 496.5 892.5Q509 905 525.5 912.5Q542 920 560 920Q578 920 594.5 912.5Q611 905 623.5 892.5Q636 880 643.5 863.5Q651 847 651 829Q651 811 643.5 795Q636 779 623.5 766.5Q611 754 594.5 747Q578 740 560 740Q542 740 525.5 747Q509 754 496.5 766.5Q484 779 477 795Q470 811 470 829ZM262 829Q262 847 269 863.5Q276 880 288.5 892.5Q301 905 317.5 912.5Q334 920 353 920Q371 920 387.5 912.5Q404 905 416.5 892.5Q429 880 436.5 863.5Q444 847 444 829Q444 811 436.5 795Q429 779 416.5 766.5Q404 754 387.5 747Q371 740 353 740Q334 740 317.5 747Q301 754 288.5 766.5Q276 779 269 795Q262 811 262 829ZM394 -12Q319 -12 255.5 14Q192 40 146 86.5Q100 133 74 195.5Q48 258 48 332Q48 414 79 484Q110 554 162.5 604.5Q215 655 283 683.5Q351 712 426 712Q501 712 564.5 686Q628 660 674 613.5Q720 567 746 504Q772 441 772 368Q772 285 741 215.5Q710 146 657.5 95.5Q605 45 537 16.5Q469 -12 394 -12ZM398 150Q439 150 474.5 167Q510 184 536.5 213.5Q563 243 578 284Q593 325 593 373Q593 409 582 441Q571 473 549 497.5Q527 522 495.5 536Q464 550 422 550Q381 550 345.5 533Q310 516 283.5 486.5Q257 457 242 416Q227 375 227 327Q227 291 238 259Q249 227 271 202.5Q293 178 324.5 164Q356 150 398 150Z" glyph-name="Odieresis" horiz-adv-x="779" unicode="&#214;" /><glyph d="M387 681Q387 712 410.5 735Q434 758 465 758Q480 758 494 751.5Q508 745 518.5 734.5Q529 724 535.5 710Q542 696 542 681Q542 666 535.5 652.5Q529 639 518.5 628.5Q508 618 494 612Q480 606 465 606Q450 606 435.5 612Q421 618 410.5 628.5Q400 639 393.5 652.5Q387 666 387 681ZM212 681Q212 696 218.5 710Q225 724 236 734.5Q247 745 261 751.5Q275 758 290 758Q305 758 319 751.5Q333 745 343.5 734.5Q354 724 360.5 710Q367 696 367 681Q367 666 360.5 652.5Q354 639 343.5 628.5Q333 618 319 612Q305 606 290 606Q275 606 261 612Q247 618 236 628.5Q225 639 218.5 652.5Q212 666 212 681ZM319 -10Q258 -10 206.5 11.5Q155 33 117.5 70.5Q80 108 58.5 159Q37 210 37 270Q37 334 62 389Q87 444 128.5 484.5Q170 525 225 547.5Q280 570 340 570Q401 570 453 548.5Q505 527 542.5 489.5Q580 452 601 401Q622 350 622 292Q622 227 597 171.5Q572 116 530.5 75.5Q489 35 434 12.5Q379 -10 319 -10ZM323 146Q350 146 373.5 157.5Q397 169 414.5 189Q432 209 442 236.5Q452 264 452 297Q452 321 444.5 342Q437 363 423 379.5Q409 396 387 405.5Q365 415 337 415Q310 415 286.5 403.5Q263 392 245 372Q227 352 217 324.5Q207 297 207 264Q207 240 214.5 219Q222 198 236.5 181.5Q251 165 272.5 155.5Q294 146 323 146Z" glyph-name="Odieresis.smcp" horiz-adv-x="642" unicode="&#62536;" /><glyph d="M498 758H349L243 935H447ZM394 -12Q319 -12 255.5 14Q192 40 146 86.5Q100 133 74 195.5Q48 258 48 332Q48 414 79 484Q110 554 162.5 604.5Q215 655 283 683.5Q351 712 426 712Q501 712 564.5 686Q628 660 674 613.5Q720 567 746 504Q772 441 772 368Q772 285 741 215.5Q710 146 657.5 95.5Q605 45 537 16.5Q469 -12 394 -12ZM398 150Q439 150 474.5 167Q510 184 536.5 213.5Q563 243 578 284Q593 325 593 373Q593 409 582 441Q571 473 549 497.5Q527 522 495.5 536Q464 550 422 550Q381 550 345.5 533Q310 516 283.5 486.5Q257 457 242 416Q227 375 227 327Q227 291 238 259Q249 227 271 202.5Q293 178 324.5 164Q356 150 398 150Z" glyph-name="Ograve" horiz-adv-x="779" unicode="&#210;" /><glyph d="M407 605H277L185 730H361ZM319 -10Q258 -10 206.5 11.5Q155 33 117.5 70.5Q80 108 58.5 159Q37 210 37 270Q37 334 62 389Q87 444 128.5 484.5Q170 525 225 547.5Q280 570 340 570Q401 570 453 548.5Q505 527 542.5 489.5Q580 452 601 401Q622 350 622 292Q622 227 597 171.5Q572 116 530.5 75.5Q489 35 434 12.5Q379 -10 319 -10ZM323 146Q350 146 373.5 157.5Q397 169 414.5 189Q432 209 442 236.5Q452 264 452 297Q452 321 444.5 342Q437 363 423 379.5Q409 396 387 405.5Q365 415 337 415Q310 415 286.5 403.5Q263 392 245 372Q227 352 217 324.5Q207 297 207 264Q207 240 214.5 219Q222 198 236.5 181.5Q251 165 272.5 155.5Q294 146 323 146Z" glyph-name="Ograve.smcp" horiz-adv-x="642" unicode="&#62358;" /><glyph d="M560 942H765L640 765H490ZM343 942H547L421 765H271ZM394 -12Q319 -12 255.5 14Q192 40 146 86.5Q100 133 74 195.5Q48 258 48 332Q48 414 79 484Q110 554 162.5 604.5Q215 655 283 683.5Q351 712 426 712Q501 712 564.5 686Q628 660 674 613.5Q720 567 746 504Q772 441 772 368Q772 285 741 215.5Q710 146 657.5 95.5Q605 45 537 16.5Q469 -12 394 -12ZM398 150Q439 150 474.5 167Q510 184 536.5 213.5Q563 243 578 284Q593 325 593 373Q593 409 582 441Q571 473 549 497.5Q527 522 495.5 536Q464 550 422 550Q381 550 345.5 533Q310 516 283.5 486.5Q257 457 242 416Q227 375 227 327Q227 291 238 259Q249 227 271 202.5Q293 178 324.5 164Q356 150 398 150Z" glyph-name="Ohungarumlaut" horiz-adv-x="779" unicode="&#336;" /><glyph d="M465 730H642L539 605H409ZM266 730H443L340 605H211ZM319 -10Q258 -10 206.5 11.5Q155 33 117.5 70.5Q80 108 58.5 159Q37 210 37 270Q37 334 62 389Q87 444 128.5 484.5Q170 525 225 547.5Q280 570 340 570Q401 570 453 548.5Q505 527 542.5 489.5Q580 452 601 401Q622 350 622 292Q622 227 597 171.5Q572 116 530.5 75.5Q489 35 434 12.5Q379 -10 319 -10ZM323 146Q350 146 373.5 157.5Q397 169 414.5 189Q432 209 442 236.5Q452 264 452 297Q452 321 444.5 342Q437 363 423 379.5Q409 396 387 405.5Q365 415 337 415Q310 415 286.5 403.5Q263 392 245 372Q227 352 217 324.5Q207 297 207 264Q207 240 214.5 219Q222 198 236.5 181.5Q251 165 272.5 155.5Q294 146 323 146Z" glyph-name="Ohungarumlaut.smcp" horiz-adv-x="642" unicode="&#62485;" /><glyph d="M310 905H651L627 767H286ZM394 -12Q319 -12 255.5 14Q192 40 146 86.5Q100 133 74 195.5Q48 258 48 332Q48 414 79 484Q110 554 162.5 604.5Q215 655 283 683.5Q351 712 426 712Q501 712 564.5 686Q628 660 674 613.5Q720 567 746 504Q772 441 772 368Q772 285 741 215.5Q710 146 657.5 95.5Q605 45 537 16.5Q469 -12 394 -12ZM398 150Q439 150 474.5 167Q510 184 536.5 213.5Q563 243 578 284Q593 325 593 373Q593 409 582 441Q571 473 549 497.5Q527 522 495.5 536Q464 550 422 550Q381 550 345.5 533Q310 516 283.5 486.5Q257 457 242 416Q227 375 227 327Q227 291 238 259Q249 227 271 202.5Q293 178 324.5 164Q356 150 398 150Z" glyph-name="Omacron" horiz-adv-x="779" unicode="&#332;" /><glyph d="M249 723H530L510 613H229ZM319 -10Q258 -10 206.5 11.5Q155 33 117.5 70.5Q80 108 58.5 159Q37 210 37 270Q37 334 62 389Q87 444 128.5 484.5Q170 525 225 547.5Q280 570 340 570Q401 570 453 548.5Q505 527 542.5 489.5Q580 452 601 401Q622 350 622 292Q622 227 597 171.5Q572 116 530.5 75.5Q489 35 434 12.5Q379 -10 319 -10ZM323 146Q350 146 373.5 157.5Q397 169 414.5 189Q432 209 442 236.5Q452 264 452 297Q452 321 444.5 342Q437 363 423 379.5Q409 396 387 405.5Q365 415 337 415Q310 415 286.5 403.5Q263 392 245 372Q227 352 217 324.5Q207 297 207 264Q207 240 214.5 219Q222 198 236.5 181.5Q251 165 272.5 155.5Q294 146 323 146Z" glyph-name="Omacron.smcp" horiz-adv-x="642" unicode="&#62537;" /><glyph d="M415 712Q470 712 528.5 696.5Q587 681 635 648Q683 615 713.5 565Q744 515 744 446Q744 378 723 328.5Q702 279 669 246.5Q636 214 596 197Q556 180 518 177L513 149H653L627 0H353L396 284Q429 284 458.5 292.5Q488 301 510.5 319Q533 337 546 364Q559 391 559 429Q559 459 546 481.5Q533 504 512.5 520Q492 536 465.5 544Q439 552 412 552Q385 552 357.5 544Q330 536 308 519Q286 502 272 475.5Q258 449 258 412Q258 386 268 364.5Q278 343 294.5 327Q311 311 332 300.5Q353 290 374 286L329 0H55L81 149H209L220 203Q191 210 164 227.5Q137 245 116.5 271.5Q96 298 84 333Q72 368 72 411Q72 481 99 537Q126 593 172.5 632Q219 671 281.5 691.5Q344 712 415 712Z" glyph-name="Omega" horiz-adv-x="750" unicode="&#937;" /><glyph d="M398 150Q439 150 474.5 167Q510 184 536.5 213.5Q563 243 578 284Q593 325 593 373Q593 405 584 434L321 165Q354 150 398 150ZM227 327Q227 287 240 254L508 529Q490 539 468.5 544.5Q447 550 422 550Q381 550 345.5 533Q310 516 283.5 486.5Q257 457 242 416Q227 375 227 327ZM394 -12Q283 -12 200 42L147 -12H-20L113 124Q81 167 64.5 219.5Q48 272 48 332Q48 414 79 484Q110 554 162.5 604.5Q215 655 283 683.5Q351 712 426 712Q484 712 535 696Q586 680 628 651L687 712H856L713 566Q741 524 756.5 474.5Q772 425 772 368Q772 285 741 215.5Q710 146 657.5 95.5Q605 45 537 16.5Q469 -12 394 -12Z" glyph-name="Oslash" horiz-adv-x="780" unicode="&#216;" /><glyph d="M323 146Q350 146 373.5 157.5Q397 169 414.5 189Q432 209 442 236.5Q452 264 452 297Q452 316 448 331L274 154Q296 146 323 146ZM207 264Q207 244 212 224L389 404Q365 415 337 415Q310 415 286.5 403.5Q263 392 245 372Q227 352 217 324.5Q207 297 207 264ZM319 -10Q273 -10 232.5 2Q192 14 158 36L113 -10H-16L91 100Q65 135 51 178Q37 221 37 270Q37 334 62 389Q87 444 128.5 484.5Q170 525 225 547.5Q280 570 340 570Q388 570 428.5 557Q469 544 504 521L546 564H676L570 456Q595 421 608.5 380Q622 339 622 292Q622 227 597 171.5Q572 116 530.5 75.5Q489 35 434 12.5Q379 -10 319 -10Z" glyph-name="Oslash.smcp" horiz-adv-x="642" unicode="&#62500;" /><glyph d="M383 906Q399 906 415.5 900.5Q432 895 447.5 889Q463 883 476 877.5Q489 872 500 872Q521 872 525 891L527 904L647 884Q645 864 640 839Q635 814 622 792.5Q609 771 586 756Q563 741 524 741Q509 741 491.5 746Q474 751 458 757Q442 763 428.5 768Q415 773 408 773Q387 773 383 754L381 741L261 761Q263 781 268 806Q273 831 286 853.5Q299 876 322 891Q345 906 383 906ZM394 -12Q319 -12 255.5 14Q192 40 146 86.5Q100 133 74 195.5Q48 258 48 332Q48 414 79 484Q110 554 162.5 604.5Q215 655 283 683.5Q351 712 426 712Q501 712 564.5 686Q628 660 674 613.5Q720 567 746 504Q772 441 772 368Q772 285 741 215.5Q710 146 657.5 95.5Q605 45 537 16.5Q469 -12 394 -12ZM398 150Q439 150 474.5 167Q510 184 536.5 213.5Q563 243 578 284Q593 325 593 373Q593 409 582 441Q571 473 549 497.5Q527 522 495.5 536Q464 550 422 550Q381 550 345.5 533Q310 516 283.5 486.5Q257 457 242 416Q227 375 227 327Q227 291 238 259Q249 227 271 202.5Q293 178 324.5 164Q356 150 398 150Z" glyph-name="Otilde" horiz-adv-x="779" unicode="&#213;" /><glyph d="M431 604Q419 604 405 607.5Q391 611 378 615.5Q365 620 354 624Q343 628 337 628Q331 628 326.5 624.5Q322 621 322 613V609H224L227 631Q229 643 233.5 661Q238 679 249.5 695.5Q261 712 280 724Q299 736 331 736Q343 736 357 732Q371 728 384 723.5Q397 719 408.5 715.5Q420 712 426 712Q431 712 435.5 715.5Q440 719 440 727V731H538L535 709Q533 697 529 679Q525 661 513.5 644.5Q502 628 482.5 616Q463 604 431 604ZM319 -10Q258 -10 206.5 11.5Q155 33 117.5 70.5Q80 108 58.5 159Q37 210 37 270Q37 334 62 389Q87 444 128.5 484.5Q170 525 225 547.5Q280 570 340 570Q401 570 453 548.5Q505 527 542.5 489.5Q580 452 601 401Q622 350 622 292Q622 227 597 171.5Q572 116 530.5 75.5Q489 35 434 12.5Q379 -10 319 -10ZM323 146Q350 146 373.5 157.5Q397 169 414.5 189Q432 209 442 236.5Q452 264 452 297Q452 321 444.5 342Q437 363 423 379.5Q409 396 387 405.5Q365 415 337 415Q310 415 286.5 403.5Q263 392 245 372Q227 352 217 324.5Q207 297 207 264Q207 240 214.5 219Q222 198 236.5 181.5Q251 165 272.5 155.5Q294 146 323 146Z" glyph-name="Otilde.smcp" horiz-adv-x="642" unicode="&#62359;" /><glyph d="M288 551 255 364H302Q329 364 354 368.5Q379 373 398.5 384.5Q418 396 429.5 416Q441 436 441 468Q441 509 409.5 530Q378 551 332 551ZM193 0H25L146 700H355Q413 700 461 682.5Q509 665 543 634.5Q577 604 595.5 562Q614 520 614 472Q614 414 593.5 366.5Q573 319 534.5 285.5Q496 252 441.5 233.5Q387 215 319 215H230Z" glyph-name="P" horiz-adv-x="592" unicode="P" /><glyph d="M245 297Q264 297 282 299Q300 301 314.5 308.5Q329 316 337.5 329Q346 342 346 365Q346 393 323.5 406.5Q301 420 269 420H249L227 297ZM116 560H290Q339 560 379.5 545.5Q420 531 448.5 505Q477 479 493 444Q509 409 509 368Q509 320 491.5 281Q474 242 442 214Q410 186 365 171Q320 156 264 156H204L177 0H19Z" glyph-name="P.smcp" horiz-adv-x="506" unicode="&#62278;" /><glyph d="M398 150Q439 150 474.5 167Q510 184 536.5 213.5Q563 243 578 284Q593 325 593 373Q593 409 582 441Q571 473 549 497.5Q527 522 495.5 536Q464 550 422 550Q381 550 345.5 533Q310 516 283.5 486.5Q257 457 242 416Q227 375 227 327Q227 291 238 259Q249 227 271 202.5Q293 178 324.5 164Q356 150 398 150ZM394 -12Q319 -12 255.5 14Q192 40 146 86.5Q100 133 74 195.5Q48 258 48 332Q48 414 79 484Q110 554 162.5 604.5Q215 655 283 683.5Q351 712 426 712Q501 712 564.5 686Q628 660 674 613.5Q720 567 746 504Q772 441 772 368Q772 274 733 198Q694 122 629 71L635 60Q646 37 665 29Q684 21 710 21Q727 21 742 24Q751 25 760 27L733 -126Q711 -128 691 -129Q674 -131 655 -131.5Q636 -132 622 -132Q580 -132 545 -111Q510 -90 489 -50L464 -5Q447 -8 429.5 -10Q412 -12 394 -12Z" glyph-name="Q" horiz-adv-x="780" unicode="Q" /><glyph d="M323 146Q350 146 373.5 157.5Q397 169 414.5 189Q432 209 442 236.5Q452 264 452 297Q452 321 444.5 342Q437 363 423 379.5Q409 396 387 405.5Q365 415 337 415Q310 415 286.5 403.5Q263 392 245 372Q227 352 217 324.5Q207 297 207 264Q207 240 214.5 219Q222 198 236.5 181.5Q251 165 272.5 155.5Q294 146 323 146ZM319 -10Q258 -10 206.5 11.5Q155 33 117.5 70.5Q80 108 58.5 159Q37 210 37 270Q37 334 62 389Q87 444 128.5 484.5Q170 525 225 547.5Q280 570 340 570Q401 570 453 548.5Q505 527 542.5 489.5Q580 452 601 401Q622 350 622 292Q622 223 594.5 165.5Q567 108 521 67L526 61Q537 44 551.5 40Q566 36 580 36Q584 36 591.5 37Q599 38 606 39Q613 40 618 41Q623 42 623 42L596 -103Q586 -105 575 -106Q555 -109 521 -109Q479 -109 443 -95Q407 -81 382 -40L361 -7Q340 -10 319 -10Z" glyph-name="Q.smcp" horiz-adv-x="644" unicode="&#62279;" /><glyph d="M358 397Q376 397 395 401Q414 405 429.5 415Q445 425 455 441Q465 457 465 480Q465 511 443 531Q421 551 375 551H289L262 397ZM321 245H236L194 0H25L146 700H384Q445 700 492 684Q539 668 571.5 639.5Q604 611 621 572Q638 533 638 488Q638 438 622 401.5Q606 365 583 339.5Q560 314 532.5 299Q505 284 483 277L625 0H441Z" glyph-name="R" horiz-adv-x="647" unicode="R" /><glyph d="M231 314H288Q330 314 346.5 330.5Q363 347 363 372Q363 391 348.5 406.5Q334 422 300 422H251ZM116 560H305Q411 560 468.5 511Q526 462 526 381Q526 338 513 308Q500 278 481.5 258.5Q463 239 442.5 228.5Q422 218 407 214L516 0H342L257 179H208L178 0H19Z" glyph-name="R.smcp" horiz-adv-x="551" unicode="&#62280;" /><glyph d="M369 942H574L448 765H299ZM358 397Q376 397 395 401Q414 405 429.5 415Q445 425 455 441Q465 457 465 480Q465 511 443 531Q421 551 375 551H289L262 397ZM321 245H236L194 0H25L146 700H384Q445 700 492 684Q539 668 571.5 639.5Q604 611 621 572Q638 533 638 488Q638 438 622 401.5Q606 365 583 339.5Q560 314 532.5 299Q505 284 483 277L625 0H441Z" glyph-name="Racute" horiz-adv-x="647" unicode="&#340;" /><glyph d="M311 730H488L385 605H255ZM231 314H288Q330 314 346.5 330.5Q363 347 363 372Q363 391 348.5 406.5Q334 422 300 422H251ZM116 560H305Q411 560 468.5 511Q526 462 526 381Q526 338 513 308Q500 278 481.5 258.5Q463 239 442.5 228.5Q422 218 407 214L516 0H342L257 179H208L178 0H19Z" glyph-name="Racute.smcp" horiz-adv-x="551" unicode="&#62360;" /><glyph d="M487 765H314L243 942H396L416 884L458 942H628ZM358 397Q376 397 395 401Q414 405 429.5 415Q445 425 455 441Q465 457 465 480Q465 511 443 531Q421 551 375 551H289L262 397ZM321 245H236L194 0H25L146 700H384Q445 700 492 684Q539 668 571.5 639.5Q604 611 621 572Q638 533 638 488Q638 438 622 401.5Q606 365 583 339.5Q560 314 532.5 299Q505 284 483 277L625 0H441Z" glyph-name="Rcaron" horiz-adv-x="647" unicode="&#344;" /><glyph d="M375 730H507L412 605H241L192 730H314L336 684ZM231 314H288Q330 314 346.5 330.5Q363 347 363 372Q363 391 348.5 406.5Q334 422 300 422H251ZM116 560H305Q411 560 468.5 511Q526 462 526 381Q526 338 513 308Q500 278 481.5 258.5Q463 239 442.5 228.5Q422 218 407 214L516 0H342L257 179H208L178 0H19Z" glyph-name="Rcaron.smcp" horiz-adv-x="551" unicode="&#62361;" /><glyph d="M189 -137Q189 -121 195 -106Q201 -91 212.5 -79.5Q224 -68 239 -61Q254 -54 272 -54Q291 -54 307 -61Q323 -68 334.5 -80Q346 -92 352.5 -107.5Q359 -123 359 -139Q359 -153 353 -169Q347 -185 336 -198L245 -316L159 -298L211 -194Q189 -170 189 -137ZM358 397Q376 397 395 401Q414 405 429.5 415Q445 425 455 441Q465 457 465 480Q465 511 443 531Q421 551 375 551H289L262 397ZM321 245H236L194 0H25L146 700H384Q445 700 492 684Q539 668 571.5 639.5Q604 611 621 572Q638 533 638 488Q638 438 622 401.5Q606 365 583 339.5Q560 314 532.5 299Q505 284 483 277L625 0H441Z" glyph-name="Rcommaaccent" horiz-adv-x="647" unicode="&#342;" /><glyph d="M152 -115Q152 -83 175 -60.5Q198 -38 230 -38Q267 -38 289 -62Q311 -86 311 -116Q311 -151 282 -183L208 -266L126 -245L171 -165Q152 -144 152 -115ZM231 314H288Q330 314 346.5 330.5Q363 347 363 372Q363 391 348.5 406.5Q334 422 300 422H251ZM116 560H305Q411 560 468.5 511Q526 462 526 381Q526 338 513 308Q500 278 481.5 258.5Q463 239 442.5 228.5Q422 218 407 214L516 0H342L257 179H208L178 0H19Z" glyph-name="Rcommaaccent.smcp" horiz-adv-x="551" unicode="&#62464;" /><glyph d="M483 485Q447 530 407 547Q367 564 335 564Q298 564 281 546Q264 528 264 510Q264 497 271.5 484.5Q279 472 307 455L389 407Q428 384 456 362.5Q484 341 502 317.5Q520 294 528.5 266Q537 238 537 202Q537 165 521.5 127Q506 89 475 58Q444 27 396.5 7.5Q349 -12 285 -12Q229 -12 182 2Q135 16 99 36.5Q63 57 37.5 79.5Q12 102 -1 119L101 233Q115 218 134 200.5Q153 183 175.5 168.5Q198 154 224 144.5Q250 135 279 135Q314 135 335.5 153Q357 171 357 197Q357 221 341 238Q325 255 289 275L209 320Q146 355 116.5 402.5Q87 450 87 500Q87 547 105 586Q123 625 155.5 653Q188 681 232.5 696.5Q277 712 331 712Q364 712 399 704.5Q434 697 468 682.5Q502 668 533 645.5Q564 623 589 593Z" glyph-name="S" horiz-adv-x="567" unicode="S" /><glyph d="M239 -8Q197 -8 158.5 4Q120 16 88.5 33Q57 50 34 67.5Q11 85 1 97L87 207Q100 195 116 181Q132 167 150.5 156Q169 145 189.5 137.5Q210 130 231 130Q251 130 264.5 138.5Q278 147 278 164Q278 179 267 189Q256 199 240 207L163 248Q115 274 88.5 312Q62 350 62 392Q62 430 76.5 462.5Q91 495 118 519Q145 543 183 557Q221 571 268 571Q296 571 325.5 564.5Q355 558 383 546Q411 534 436.5 516.5Q462 499 481 477L386 374Q355 406 324.5 419Q294 432 269 432Q250 432 239.5 423.5Q229 415 229 405Q229 398 233 389Q237 380 260 368L315 339Q352 319 377 300Q402 281 417.5 259.5Q433 238 440 214Q447 190 447 161Q447 137 435.5 107.5Q424 78 399 52.5Q374 27 334.5 9.5Q295 -8 239 -8Z" glyph-name="S.smcp" horiz-adv-x="481" unicode="&#62281;" /><glyph d="M368 942H573L447 765H298ZM483 485Q447 530 407 547Q367 564 335 564Q298 564 281 546Q264 528 264 510Q264 497 271.5 484.5Q279 472 307 455L389 407Q428 384 456 362.5Q484 341 502 317.5Q520 294 528.5 266Q537 238 537 202Q537 165 521.5 127Q506 89 475 58Q444 27 396.5 7.5Q349 -12 285 -12Q229 -12 182 2Q135 16 99 36.5Q63 57 37.5 79.5Q12 102 -1 119L101 233Q115 218 134 200.5Q153 183 175.5 168.5Q198 154 224 144.5Q250 135 279 135Q314 135 335.5 153Q357 171 357 197Q357 221 341 238Q325 255 289 275L209 320Q146 355 116.5 402.5Q87 450 87 500Q87 547 105 586Q123 625 155.5 653Q188 681 232.5 696.5Q277 712 331 712Q364 712 399 704.5Q434 697 468 682.5Q502 668 533 645.5Q564 623 589 593Z" glyph-name="Sacute" horiz-adv-x="567" unicode="&#346;" /><glyph d="M287 730H464L361 605H231ZM239 -8Q197 -8 158.5 4Q120 16 88.5 33Q57 50 34 67.5Q11 85 1 97L87 207Q100 195 116 181Q132 167 150.5 156Q169 145 189.5 137.5Q210 130 231 130Q251 130 264.5 138.5Q278 147 278 164Q278 179 267 189Q256 199 240 207L163 248Q115 274 88.5 312Q62 350 62 392Q62 430 76.5 462.5Q91 495 118 519Q145 543 183 557Q221 571 268 571Q296 571 325.5 564.5Q355 558 383 546Q411 534 436.5 516.5Q462 499 481 477L386 374Q355 406 324.5 419Q294 432 269 432Q250 432 239.5 423.5Q229 415 229 405Q229 398 233 389Q237 380 260 368L315 339Q352 319 377 300Q402 281 417.5 259.5Q433 238 440 214Q447 190 447 161Q447 137 435.5 107.5Q424 78 399 52.5Q374 27 334.5 9.5Q295 -8 239 -8Z" glyph-name="Sacute.smcp" horiz-adv-x="481" unicode="&#62465;" /><glyph d="M459 758H286L215 935H368L388 877L430 935H600ZM483 485Q447 530 407 547Q367 564 335 564Q298 564 281 546Q264 528 264 510Q264 497 271.5 484.5Q279 472 307 455L389 407Q428 384 456 362.5Q484 341 502 317.5Q520 294 528.5 266Q537 238 537 202Q537 165 521.5 127Q506 89 475 58Q444 27 396.5 7.5Q349 -12 285 -12Q229 -12 182 2Q135 16 99 36.5Q63 57 37.5 79.5Q12 102 -1 119L101 233Q115 218 134 200.5Q153 183 175.5 168.5Q198 154 224 144.5Q250 135 279 135Q314 135 335.5 153Q357 171 357 197Q357 221 341 238Q325 255 289 275L209 320Q146 355 116.5 402.5Q87 450 87 500Q87 547 105 586Q123 625 155.5 653Q188 681 232.5 696.5Q277 712 331 712Q364 712 399 704.5Q434 697 468 682.5Q502 668 533 645.5Q564 623 589 593Z" glyph-name="Scaron" horiz-adv-x="567" unicode="&#352;" /><glyph d="M355 730H487L392 605H221L172 730H294L316 684ZM239 -8Q197 -8 158.5 4Q120 16 88.5 33Q57 50 34 67.5Q11 85 1 97L87 207Q100 195 116 181Q132 167 150.5 156Q169 145 189.5 137.5Q210 130 231 130Q251 130 264.5 138.5Q278 147 278 164Q278 179 267 189Q256 199 240 207L163 248Q115 274 88.5 312Q62 350 62 392Q62 430 76.5 462.5Q91 495 118 519Q145 543 183 557Q221 571 268 571Q296 571 325.5 564.5Q355 558 383 546Q411 534 436.5 516.5Q462 499 481 477L386 374Q355 406 324.5 419Q294 432 269 432Q250 432 239.5 423.5Q229 415 229 405Q229 398 233 389Q237 380 260 368L315 339Q352 319 377 300Q402 281 417.5 259.5Q433 238 440 214Q447 190 447 161Q447 137 435.5 107.5Q424 78 399 52.5Q374 27 334.5 9.5Q295 -8 239 -8Z" glyph-name="Scaron.smcp" horiz-adv-x="481" unicode="&#62466;" /><glyph d="M163 8Q101 29 60 62Q19 95 0 119L102 233Q116 218 135 200.5Q154 183 176.5 168.5Q199 154 225 144.5Q251 135 280 135Q315 135 336.5 153Q358 171 358 197Q358 221 342 238Q326 255 290 275L210 320Q147 355 117.5 402.5Q88 450 88 500Q88 547 106 586Q124 625 156.5 653Q189 681 233.5 696.5Q278 712 332 712Q365 712 400 704.5Q435 697 469 682.5Q503 668 534 645.5Q565 623 590 593L484 485Q448 530 408 547Q368 564 336 564Q299 564 282 546Q265 528 265 510Q265 497 272.5 484.5Q280 472 308 455L390 407Q429 384 457 362.5Q485 341 503 317.5Q521 294 529.5 266Q538 238 538 202Q538 168 525 133Q512 98 485.5 68Q459 38 418.5 17Q378 -4 324 -10L243 -136H101Z" glyph-name="Scedilla" horiz-adv-x="568" unicode="&#350;" /><glyph d="M135 12Q87 30 51.5 55.5Q16 81 2 97L88 207Q101 195 117 181Q133 167 151.5 156Q170 145 190.5 137.5Q211 130 232 130Q252 130 265.5 138.5Q279 147 279 164Q279 179 268 189Q257 199 241 207L164 248Q116 274 89.5 312Q63 350 63 392Q63 430 77.5 462.5Q92 495 119 519Q146 543 184 557Q222 571 269 571Q297 571 326.5 564.5Q356 558 384 546Q412 534 437.5 516.5Q463 499 482 477L387 374Q356 406 325.5 419Q295 432 270 432Q251 432 240.5 423.5Q230 415 230 405Q230 398 234 389Q238 380 261 368L316 339Q353 319 378 300Q403 281 418.5 259.5Q434 238 441 214Q448 190 448 161Q448 139 439 112.5Q430 86 410 62Q390 38 358.5 19.5Q327 1 283 -5L201 -133H71Z" glyph-name="Scedilla.smcp" horiz-adv-x="483" unicode="&#62467;" /><glyph d="M305 942H478L556 765H401L378 823L343 765H171ZM483 485Q447 530 407 547Q367 564 335 564Q298 564 281 546Q264 528 264 510Q264 497 271.5 484.5Q279 472 307 455L389 407Q428 384 456 362.5Q484 341 502 317.5Q520 294 528.5 266Q537 238 537 202Q537 165 521.5 127Q506 89 475 58Q444 27 396.5 7.5Q349 -12 285 -12Q229 -12 182 2Q135 16 99 36.5Q63 57 37.5 79.5Q12 102 -1 119L101 233Q115 218 134 200.5Q153 183 175.5 168.5Q198 154 224 144.5Q250 135 279 135Q314 135 335.5 153Q357 171 357 197Q357 221 341 238Q325 255 289 275L209 320Q146 355 116.5 402.5Q87 450 87 500Q87 547 105 586Q123 625 155.5 653Q188 681 232.5 696.5Q277 712 331 712Q364 712 399 704.5Q434 697 468 682.5Q502 668 533 645.5Q564 623 589 593Z" glyph-name="Scircumflex" horiz-adv-x="567" unicode="&#348;" /><glyph d="M317 650 278 605H146L241 730H412L461 605H338ZM239 -8Q197 -8 158.5 4Q120 16 88.5 33Q57 50 34 67.5Q11 85 1 97L87 207Q100 195 116 181Q132 167 150.5 156Q169 145 189.5 137.5Q210 130 231 130Q251 130 264.5 138.5Q278 147 278 164Q278 179 267 189Q256 199 240 207L163 248Q115 274 88.5 312Q62 350 62 392Q62 430 76.5 462.5Q91 495 118 519Q145 543 183 557Q221 571 268 571Q296 571 325.5 564.5Q355 558 383 546Q411 534 436.5 516.5Q462 499 481 477L386 374Q355 406 324.5 419Q294 432 269 432Q250 432 239.5 423.5Q229 415 229 405Q229 398 233 389Q237 380 260 368L315 339Q352 319 377 300Q402 281 417.5 259.5Q433 238 440 214Q447 190 447 161Q447 137 435.5 107.5Q424 78 399 52.5Q374 27 334.5 9.5Q295 -8 239 -8Z" glyph-name="Scircumflex.smcp" horiz-adv-x="481" unicode="&#62468;" /><glyph d="M127 -137Q127 -121 133 -106Q139 -91 150.5 -79.5Q162 -68 177 -61Q192 -54 210 -54Q229 -54 245 -61Q261 -68 272.5 -80Q284 -92 290.5 -107.5Q297 -123 297 -139Q297 -153 291 -169Q285 -185 274 -198L183 -316L97 -298L149 -194Q127 -170 127 -137ZM483 485Q447 530 407 547Q367 564 335 564Q298 564 281 546Q264 528 264 510Q264 497 271.5 484.5Q279 472 307 455L389 407Q428 384 456 362.5Q484 341 502 317.5Q520 294 528.5 266Q537 238 537 202Q537 165 521.5 127Q506 89 475 58Q444 27 396.5 7.5Q349 -12 285 -12Q229 -12 182 2Q135 16 99 36.5Q63 57 37.5 79.5Q12 102 -1 119L101 233Q115 218 134 200.5Q153 183 175.5 168.5Q198 154 224 144.5Q250 135 279 135Q314 135 335.5 153Q357 171 357 197Q357 221 341 238Q325 255 289 275L209 320Q146 355 116.5 402.5Q87 450 87 500Q87 547 105 586Q123 625 155.5 653Q188 681 232.5 696.5Q277 712 331 712Q364 712 399 704.5Q434 697 468 682.5Q502 668 533 645.5Q564 623 589 593Z" glyph-name="Scommaaccent" horiz-adv-x="567" unicode="&#536;" /><glyph d="M126 -115Q126 -83 149 -60.5Q172 -38 204 -38Q241 -38 263 -62Q285 -86 285 -116Q285 -151 256 -183L182 -266L100 -245L145 -165Q126 -144 126 -115ZM239 -8Q197 -8 158.5 4Q120 16 88.5 33Q57 50 34 67.5Q11 85 1 97L87 207Q100 195 116 181Q132 167 150.5 156Q169 145 189.5 137.5Q210 130 231 130Q251 130 264.5 138.5Q278 147 278 164Q278 179 267 189Q256 199 240 207L163 248Q115 274 88.5 312Q62 350 62 392Q62 430 76.5 462.5Q91 495 118 519Q145 543 183 557Q221 571 268 571Q296 571 325.5 564.5Q355 558 383 546Q411 534 436.5 516.5Q462 499 481 477L386 374Q355 406 324.5 419Q294 432 269 432Q250 432 239.5 423.5Q229 415 229 405Q229 398 233 389Q237 380 260 368L315 339Q352 319 377 300Q402 281 417.5 259.5Q433 238 440 214Q447 190 447 161Q447 137 435.5 107.5Q424 78 399 52.5Q374 27 334.5 9.5Q295 -8 239 -8Z" glyph-name="Scommaaccent.smcp" horiz-adv-x="481" unicode="&#62469;" /><glyph d="M663 700 636 545H437L342 0H175L269 545H68L95 700Z" glyph-name="T" horiz-adv-x="593" unicode="T" /><glyph d="M206 414H48L73 560H545L519 414H363L291 0H134Z" glyph-name="T.smcp" horiz-adv-x="502" unicode="&#62288;" /><glyph d="M667 700 640 545H441L421 431H555L528 283H395L346 0H179L228 283H99L126 431H253L273 545H72L99 700Z" glyph-name="Tbar" horiz-adv-x="602" unicode="&#358;" /><glyph d="M117 341H194L207 414H49L74 560H546L520 414H364L351 341H427L408 230H332L292 0H135L175 230H98Z" glyph-name="Tbar.smcp" horiz-adv-x="505" unicode="&#62470;" /><glyph d="M478 765H305L234 942H387L407 884L449 942H619ZM663 700 636 545H437L342 0H175L269 545H68L95 700Z" glyph-name="Tcaron" horiz-adv-x="593" unicode="&#356;" /><glyph d="M361 730H493L398 605H227L178 730H300L322 684ZM206 414H48L73 560H545L519 414H363L291 0H134Z" glyph-name="Tcaron.smcp" horiz-adv-x="502" unicode="&#62471;" /><glyph d="M153 -137Q153 -121 159 -106Q165 -91 176.5 -79.5Q188 -68 203 -61Q218 -54 236 -54Q255 -54 271 -61Q287 -68 298.5 -80Q310 -92 316.5 -107.5Q323 -123 323 -139Q323 -153 317 -169Q311 -185 300 -198L209 -316L123 -298L175 -194Q153 -170 153 -137ZM663 700 636 545H437L342 0H175L269 545H68L95 700Z" glyph-name="Tcommaaccent" horiz-adv-x="593" unicode="&#354;" /><glyph d="M118 -115Q118 -83 141 -60.5Q164 -38 196 -38Q233 -38 255 -62Q277 -86 277 -116Q277 -151 248 -183L174 -266L92 -245L137 -165Q118 -144 118 -115ZM206 414H48L73 560H545L519 414H363L291 0H134Z" glyph-name="Tcommaaccent.smcp" horiz-adv-x="502" unicode="&#62308;" /><glyph d="M238 264H286Q313 264 337.5 268Q362 272 381.5 283.5Q401 295 412.5 315.5Q424 336 424 368Q424 409 393 430Q362 451 315 451H271ZM193 0H26L146 700H314L297 600H338Q396 600 444 582.5Q492 565 526 534Q560 503 578.5 461.5Q597 420 597 372Q597 314 576.5 266.5Q556 219 517.5 185.5Q479 152 424.5 133.5Q370 115 302 115H213Z" glyph-name="Thorn" horiz-adv-x="593" unicode="&#222;" /><glyph d="M233 227Q254 227 272.5 230Q291 233 304.5 240.5Q318 248 326 260.5Q334 273 334 293Q334 321 311 335Q288 349 256 349H237L215 227ZM115 560H273L261 490H279Q328 490 368.5 475Q409 460 438 434.5Q467 409 482.5 373.5Q498 338 498 298Q498 250 480.5 210.5Q463 171 430.5 143.5Q398 116 352.5 101Q307 86 251 86H191L177 0H20Z" glyph-name="Thorn.smcp" horiz-adv-x="513" unicode="&#62472;" /><glyph d="M306 700 233 269Q229 245 232 222Q235 199 246.5 181Q258 163 278 152Q298 141 327 141Q374 141 400 171Q426 201 435 251L511 700H678L593 211Q585 163 563.5 122Q542 81 507.5 51Q473 21 426 4Q379 -13 321 -13Q259 -13 207 8Q155 29 119.5 66.5Q84 104 68.5 156.5Q53 209 64 273L138 700Z" glyph-name="U" horiz-adv-x="656" unicode="U" /><glyph d="M265 -11Q209 -11 165.5 6.5Q122 24 93.5 56Q65 88 53.5 132Q42 176 51 229L109 560H267L209 224Q207 213 206 201.5Q205 190 207 181Q212 161 227.5 148Q243 135 270 135Q328 135 342 210L403 560H561L493 170Q487 132 470 99Q453 66 424.5 41.5Q396 17 356.5 3Q317 -11 265 -11Z" glyph-name="U.smcp" horiz-adv-x="558" unicode="&#62289;" /><glyph d="M410 935H615L489 758H340ZM306 700 233 269Q229 245 232 222Q235 199 246.5 181Q258 163 278 152Q298 141 327 141Q374 141 400 171Q426 201 435 251L511 700H678L593 211Q585 163 563.5 122Q542 81 507.5 51Q473 21 426 4Q379 -13 321 -13Q259 -13 207 8Q155 29 119.5 66.5Q84 104 68.5 156.5Q53 209 64 273L138 700Z" glyph-name="Uacute" horiz-adv-x="656" unicode="&#218;" /><glyph d="M334 730H511L408 605H278ZM265 -11Q209 -11 165.5 6.5Q122 24 93.5 56Q65 88 53.5 132Q42 176 51 229L109 560H267L209 224Q207 213 206 201.5Q205 190 207 181Q212 161 227.5 148Q243 135 270 135Q328 135 342 210L403 560H561L493 170Q487 132 470 99Q453 66 424.5 41.5Q396 17 356.5 3Q317 -11 265 -11Z" glyph-name="Uacute.smcp" horiz-adv-x="558" unicode="&#62473;" /><glyph d="M467 942H589L583 900Q576 859 560 830.5Q544 802 521 784.5Q498 767 469 759.5Q440 752 407 752Q374 752 345 762.5Q316 773 295.5 793Q275 813 266 842Q257 871 263 909L270 942H393L387 901Q384 886 392 875Q400 864 418 864Q436 864 446 874Q456 884 459 899ZM306 700 233 269Q229 245 232 222Q235 199 246.5 181Q258 163 278 152Q298 141 327 141Q374 141 400 171Q426 201 435 251L511 700H678L593 211Q585 163 563.5 122Q542 81 507.5 51Q473 21 426 4Q379 -13 321 -13Q259 -13 207 8Q155 29 119.5 66.5Q84 104 68.5 156.5Q53 209 64 273L138 700Z" glyph-name="Ubreve" horiz-adv-x="656" unicode="&#364;" /><glyph d="M338 700Q368 700 371 734H478Q478 699 466.5 674Q455 649 435 633.5Q415 618 388 610.5Q361 603 330 603Q274 603 241 629Q208 655 208 700Q208 705 208.5 711.5Q209 718 210 723Q211 729 213 734H313Q307 714 315.5 707Q324 700 338 700ZM265 -11Q209 -11 165.5 6.5Q122 24 93.5 56Q65 88 53.5 132Q42 176 51 229L109 560H267L209 224Q207 213 206 201.5Q205 190 207 181Q212 161 227.5 148Q243 135 270 135Q328 135 342 210L403 560H561L493 170Q487 132 470 99Q453 66 424.5 41.5Q396 17 356.5 3Q317 -11 265 -11Z" glyph-name="Ubreve.smcp" horiz-adv-x="558" unicode="&#62480;" /><glyph d="M350 935H523L601 758H446L423 816L388 758H216ZM306 700 233 269Q229 245 232 222Q235 199 246.5 181Q258 163 278 152Q298 141 327 141Q374 141 400 171Q426 201 435 251L511 700H678L593 211Q585 163 563.5 122Q542 81 507.5 51Q473 21 426 4Q379 -13 321 -13Q259 -13 207 8Q155 29 119.5 66.5Q84 104 68.5 156.5Q53 209 64 273L138 700Z" glyph-name="Ucircumflex" horiz-adv-x="656" unicode="&#219;" /><glyph d="M351 650 312 605H180L275 730H446L495 605H372ZM265 -11Q209 -11 165.5 6.5Q122 24 93.5 56Q65 88 53.5 132Q42 176 51 229L109 560H267L209 224Q207 213 206 201.5Q205 190 207 181Q212 161 227.5 148Q243 135 270 135Q328 135 342 210L403 560H561L493 170Q487 132 470 99Q453 66 424.5 41.5Q396 17 356.5 3Q317 -11 265 -11Z" glyph-name="Ucircumflex.smcp" horiz-adv-x="558" unicode="&#62481;" /><glyph d="M431 829Q431 847 438 863.5Q445 880 457.5 892.5Q470 905 486.5 912.5Q503 920 521 920Q539 920 555.5 912.5Q572 905 584.5 892.5Q597 880 604.5 863.5Q612 847 612 829Q612 811 604.5 795Q597 779 584.5 766.5Q572 754 555.5 747Q539 740 521 740Q503 740 486.5 747Q470 754 457.5 766.5Q445 779 438 795Q431 811 431 829ZM223 829Q223 847 230 863.5Q237 880 249.5 892.5Q262 905 278.5 912.5Q295 920 314 920Q332 920 348.5 912.5Q365 905 377.5 892.5Q390 880 397.5 863.5Q405 847 405 829Q405 811 397.5 795Q390 779 377.5 766.5Q365 754 348.5 747Q332 740 314 740Q295 740 278.5 747Q262 754 249.5 766.5Q237 779 230 795Q223 811 223 829ZM306 700 233 269Q229 245 232 222Q235 199 246.5 181Q258 163 278 152Q298 141 327 141Q374 141 400 171Q426 201 435 251L511 700H678L593 211Q585 163 563.5 122Q542 81 507.5 51Q473 21 426 4Q379 -13 321 -13Q259 -13 207 8Q155 29 119.5 66.5Q84 104 68.5 156.5Q53 209 64 273L138 700Z" glyph-name="Udieresis" horiz-adv-x="656" unicode="&#220;" /><glyph d="M357 681Q357 712 380.5 735Q404 758 435 758Q450 758 464 751.5Q478 745 488.5 734.5Q499 724 505.5 710Q512 696 512 681Q512 666 505.5 652.5Q499 639 488.5 628.5Q478 618 464 612Q450 606 435 606Q420 606 405.5 612Q391 618 380.5 628.5Q370 639 363.5 652.5Q357 666 357 681ZM182 681Q182 696 188.5 710Q195 724 206 734.5Q217 745 231 751.5Q245 758 260 758Q275 758 289 751.5Q303 745 313.5 734.5Q324 724 330.5 710Q337 696 337 681Q337 666 330.5 652.5Q324 639 313.5 628.5Q303 618 289 612Q275 606 260 606Q245 606 231 612Q217 618 206 628.5Q195 639 188.5 652.5Q182 666 182 681ZM265 -11Q209 -11 165.5 6.5Q122 24 93.5 56Q65 88 53.5 132Q42 176 51 229L109 560H267L209 224Q207 213 206 201.5Q205 190 207 181Q212 161 227.5 148Q243 135 270 135Q328 135 342 210L403 560H561L493 170Q487 132 470 99Q453 66 424.5 41.5Q396 17 356.5 3Q317 -11 265 -11Z" glyph-name="Udieresis.smcp" horiz-adv-x="558" unicode="&#62529;" /><glyph d="M478 758H329L223 935H427ZM306 700 233 269Q229 245 232 222Q235 199 246.5 181Q258 163 278 152Q298 141 327 141Q374 141 400 171Q426 201 435 251L511 700H678L593 211Q585 163 563.5 122Q542 81 507.5 51Q473 21 426 4Q379 -13 321 -13Q259 -13 207 8Q155 29 119.5 66.5Q84 104 68.5 156.5Q53 209 64 273L138 700Z" glyph-name="Ugrave" horiz-adv-x="656" unicode="&#217;" /><glyph d="M399 605H269L177 730H353ZM265 -11Q209 -11 165.5 6.5Q122 24 93.5 56Q65 88 53.5 132Q42 176 51 229L109 560H267L209 224Q207 213 206 201.5Q205 190 207 181Q212 161 227.5 148Q243 135 270 135Q328 135 342 210L403 560H561L493 170Q487 132 470 99Q453 66 424.5 41.5Q396 17 356.5 3Q317 -11 265 -11Z" glyph-name="Ugrave.smcp" horiz-adv-x="558" unicode="&#62530;" /><glyph d="M512 942H717L592 765H442ZM295 942H499L373 765H223ZM306 700 233 269Q229 245 232 222Q235 199 246.5 181Q258 163 278 152Q298 141 327 141Q374 141 400 171Q426 201 435 251L511 700H678L593 211Q585 163 563.5 122Q542 81 507.5 51Q473 21 426 4Q379 -13 321 -13Q259 -13 207 8Q155 29 119.5 66.5Q84 104 68.5 156.5Q53 209 64 273L138 700Z" glyph-name="Uhungarumlaut" horiz-adv-x="656" unicode="&#368;" /><glyph d="M426 730H603L500 605H370ZM227 730H404L301 605H172ZM265 -11Q209 -11 165.5 6.5Q122 24 93.5 56Q65 88 53.5 132Q42 176 51 229L109 560H267L209 224Q207 213 206 201.5Q205 190 207 181Q212 161 227.5 148Q243 135 270 135Q328 135 342 210L403 560H561L493 170Q487 132 470 99Q453 66 424.5 41.5Q396 17 356.5 3Q317 -11 265 -11Z" glyph-name="Uhungarumlaut.smcp" horiz-adv-x="558" unicode="&#62486;" /><glyph d="M267 905H608L584 767H243ZM306 700 233 269Q229 245 232 222Q235 199 246.5 181Q258 163 278 152Q298 141 327 141Q374 141 400 171Q426 201 435 251L511 700H678L593 211Q585 163 563.5 122Q542 81 507.5 51Q473 21 426 4Q379 -13 321 -13Q259 -13 207 8Q155 29 119.5 66.5Q84 104 68.5 156.5Q53 209 64 273L138 700Z" glyph-name="Umacron" horiz-adv-x="656" unicode="&#362;" /><glyph d="M224 723H505L485 613H204ZM265 -11Q209 -11 165.5 6.5Q122 24 93.5 56Q65 88 53.5 132Q42 176 51 229L109 560H267L209 224Q207 213 206 201.5Q205 190 207 181Q212 161 227.5 148Q243 135 270 135Q328 135 342 210L403 560H561L493 170Q487 132 470 99Q453 66 424.5 41.5Q396 17 356.5 3Q317 -11 265 -11Z" glyph-name="Umacron.smcp" horiz-adv-x="558" unicode="&#62531;" /><glyph d="M307 700 234 269Q230 245 233 222Q236 199 247.5 181Q259 163 279 152Q299 141 328 141Q375 141 401 171Q427 201 436 251L512 700H679L594 211Q586 166 566.5 126.5Q547 87 515.5 57.5Q484 28 441.5 9.5Q399 -9 346 -12Q325 -29 318 -43Q311 -57 311 -68Q311 -84 323.5 -90.5Q336 -97 350 -97Q370 -97 391 -91.5Q412 -86 422 -84L399 -175Q371 -186 341.5 -194.5Q312 -203 273 -203Q221 -203 185.5 -177.5Q150 -152 150 -107Q150 -73 172.5 -46Q195 -19 243 -3Q197 8 160 32.5Q123 57 98.5 93Q74 129 65 174.5Q56 220 65 273L139 700Z" glyph-name="Uogonek" horiz-adv-x="658" unicode="&#370;" /><glyph d="M494 170Q488 135 473.5 104Q459 73 435 49.5Q411 26 377 10.5Q343 -5 299 -9Q276 -23 268.5 -35Q261 -47 261 -57Q261 -68 270.5 -74Q280 -80 291 -80Q307 -80 320.5 -77.5Q334 -75 340 -73L324 -150Q320 -152 297 -158.5Q274 -165 232 -165Q185 -165 154 -146.5Q123 -128 123 -95Q123 -66 143 -42.5Q163 -19 208 -5Q166 3 133 23.5Q100 44 79.5 74.5Q59 105 51.5 144Q44 183 52 229L110 560H268L210 224Q208 213 207 201.5Q206 190 208 181Q213 161 228.5 148Q244 135 271 135Q329 135 343 210L404 560H562Z" glyph-name="Uogonek.smcp" horiz-adv-x="560" unicode="&#62532;" /><glyph d="M419 915Q401 915 387.5 901Q374 887 374 866Q374 846 387.5 832Q401 818 419 818Q438 818 451 832Q464 846 464 866Q464 887 451 901Q438 915 419 915ZM419 736Q390 736 364.5 746Q339 756 320.5 773.5Q302 791 291.5 814.5Q281 838 281 866Q281 895 291.5 919Q302 943 320.5 960.5Q339 978 364.5 987.5Q390 997 419 997Q448 997 473.5 987.5Q499 978 517.5 960.5Q536 943 547 919Q558 895 558 866Q558 838 547 814.5Q536 791 517.5 773.5Q499 756 473.5 746Q448 736 419 736ZM306 700 233 269Q229 245 232 222Q235 199 246.5 181Q258 163 278 152Q298 141 327 141Q374 141 400 171Q426 201 435 251L511 700H678L593 211Q585 163 563.5 122Q542 81 507.5 51Q473 21 426 4Q379 -13 321 -13Q259 -13 207 8Q155 29 119.5 66.5Q84 104 68.5 156.5Q53 209 64 273L138 700Z" glyph-name="Uring" horiz-adv-x="656" unicode="&#366;" /><glyph d="M352 664Q367 664 377.5 675Q388 686 388 702Q388 719 377.5 730Q367 741 352 741Q337 741 327 730.5Q317 720 317 704Q317 687 326 675.5Q335 664 352 664ZM352 598Q305 598 273.5 627Q242 656 242 700Q242 747 272.5 777Q303 807 352 807Q400 807 431.5 777.5Q463 748 463 702Q463 657 431.5 627.5Q400 598 352 598ZM265 -11Q209 -11 165.5 6.5Q122 24 93.5 56Q65 88 53.5 132Q42 176 51 229L109 560H267L209 224Q207 213 206 201.5Q205 190 207 181Q212 161 227.5 148Q243 135 270 135Q328 135 342 210L403 560H561L493 170Q487 132 470 99Q453 66 424.5 41.5Q396 17 356.5 3Q317 -11 265 -11Z" glyph-name="Uring.smcp" horiz-adv-x="558" unicode="&#62533;" /><glyph d="M349 913Q365 913 381.5 907.5Q398 902 413.5 896Q429 890 442 884.5Q455 879 466 879Q487 879 491 898L493 911L613 891Q611 871 606 846Q601 821 588 799.5Q575 778 552 763Q529 748 490 748Q475 748 457.5 753Q440 758 424 764Q408 770 394.5 775Q381 780 374 780Q353 780 349 761L347 748L227 768Q229 788 234 813Q239 838 252 860.5Q265 883 288 898Q311 913 349 913ZM306 700 233 269Q229 245 232 222Q235 199 246.5 181Q258 163 278 152Q298 141 327 141Q374 141 400 171Q426 201 435 251L511 700H678L593 211Q585 163 563.5 122Q542 81 507.5 51Q473 21 426 4Q379 -13 321 -13Q259 -13 207 8Q155 29 119.5 66.5Q84 104 68.5 156.5Q53 209 64 273L138 700Z" glyph-name="Utilde" horiz-adv-x="656" unicode="&#360;" /><glyph d="M405 604Q393 604 379 607.5Q365 611 352 615.5Q339 620 328 624Q317 628 311 628Q305 628 300.5 624.5Q296 621 296 613V609H198L201 631Q203 643 207.5 661Q212 679 223.5 695.5Q235 712 254 724Q273 736 305 736Q317 736 331 732Q345 728 358 723.5Q371 719 382.5 715.5Q394 712 400 712Q405 712 409.5 715.5Q414 719 414 727V731H512L509 709Q507 697 503 679Q499 661 487.5 644.5Q476 628 456.5 616Q437 604 405 604ZM265 -11Q209 -11 165.5 6.5Q122 24 93.5 56Q65 88 53.5 132Q42 176 51 229L109 560H267L209 224Q207 213 206 201.5Q205 190 207 181Q212 161 227.5 148Q243 135 270 135Q328 135 342 210L403 560H561L493 170Q487 132 470 99Q453 66 424.5 41.5Q396 17 356.5 3Q317 -11 265 -11Z" glyph-name="Utilde.smcp" horiz-adv-x="558" unicode="&#62544;" /><glyph d="M94 700H268L296 237H297L549 700H735L336 0H158Z" glyph-name="V" horiz-adv-x="641" unicode="V" /><glyph d="M65 560H227L243 230H244L423 560H599L276 0H112Z" glyph-name="V.smcp" horiz-adv-x="535" unicode="&#62290;" /><glyph d="M669 700 663 267H664L861 700H1035L699 0H509L521 477L280 0H98L104 700H277L265 267H266L491 700Z" glyph-name="W" horiz-adv-x="958" unicode="W" /><glyph d="M85 560H249L233 263H234L399 560H564L544 263H545L681 560H843L569 0H395L421 358L234 0H70Z" glyph-name="W.smcp" horiz-adv-x="793" unicode="&#62291;" /><glyph d="M591 942H796L670 765H521ZM669 700 663 267H664L861 700H1035L699 0H509L521 477L280 0H98L104 700H277L265 267H266L491 700Z" glyph-name="Wacute" horiz-adv-x="958" unicode="&#7810;" /><glyph d="M488 730H665L562 605H432ZM85 560H249L233 263H234L399 560H564L544 263H545L681 560H843L569 0H395L421 358L234 0H70Z" glyph-name="Wacute.smcp" horiz-adv-x="793" unicode="&#62297;" /><glyph d="M516 942H689L767 765H612L589 823L554 765H382ZM669 700 663 267H664L861 700H1035L699 0H509L521 477L280 0H98L104 700H277L265 267H266L491 700Z" glyph-name="Wcircumflex" horiz-adv-x="958" unicode="&#372;" /><glyph d="M498 650 459 605H327L422 730H593L642 605H519ZM85 560H249L233 263H234L399 560H564L544 263H545L681 560H843L569 0H395L421 358L234 0H70Z" glyph-name="Wcircumflex.smcp" horiz-adv-x="793" unicode="&#62545;" /><glyph d="M607 836Q607 854 614 870.5Q621 887 633.5 899.5Q646 912 662.5 919.5Q679 927 697 927Q715 927 731.5 919.5Q748 912 760.5 899.5Q773 887 780.5 870.5Q788 854 788 836Q788 818 780.5 802Q773 786 760.5 773.5Q748 761 731.5 754Q715 747 697 747Q679 747 662.5 754Q646 761 633.5 773.5Q621 786 614 802Q607 818 607 836ZM399 836Q399 854 406 870.5Q413 887 425.5 899.5Q438 912 454.5 919.5Q471 927 490 927Q508 927 524.5 919.5Q541 912 553.5 899.5Q566 887 573.5 870.5Q581 854 581 836Q581 818 573.5 802Q566 786 553.5 773.5Q541 761 524.5 754Q508 747 490 747Q471 747 454.5 754Q438 761 425.5 773.5Q413 786 406 802Q399 818 399 836ZM669 700 663 267H664L861 700H1035L699 0H509L521 477L280 0H98L104 700H277L265 267H266L491 700Z" glyph-name="Wdieresis" horiz-adv-x="958" unicode="&#7812;" /><glyph d="M510 681Q510 712 533.5 735Q557 758 588 758Q603 758 617 751.5Q631 745 641.5 734.5Q652 724 658.5 710Q665 696 665 681Q665 666 658.5 652.5Q652 639 641.5 628.5Q631 618 617 612Q603 606 588 606Q573 606 558.5 612Q544 618 533.5 628.5Q523 639 516.5 652.5Q510 666 510 681ZM335 681Q335 696 341.5 710Q348 724 359 734.5Q370 745 384 751.5Q398 758 413 758Q428 758 442 751.5Q456 745 466.5 734.5Q477 724 483.5 710Q490 696 490 681Q490 666 483.5 652.5Q477 639 466.5 628.5Q456 618 442 612Q428 606 413 606Q398 606 384 612Q370 618 359 628.5Q348 639 341.5 652.5Q335 666 335 681ZM85 560H249L233 263H234L399 560H564L544 263H545L681 560H843L569 0H395L421 358L234 0H70Z" glyph-name="Wdieresis.smcp" horiz-adv-x="793" unicode="&#62304;" /><glyph d="M651 765H502L396 942H600ZM669 700 663 267H664L861 700H1035L699 0H509L521 477L280 0H98L104 700H277L265 267H266L491 700Z" glyph-name="Wgrave" horiz-adv-x="958" unicode="&#7808;" /><glyph d="M544 605H414L322 730H498ZM85 560H249L233 263H234L399 560H564L544 263H545L681 560H843L569 0H395L421 358L234 0H70Z" glyph-name="Wgrave.smcp" horiz-adv-x="793" unicode="&#62305;" /><glyph d="M438 348 594 0H408L320 220L164 0H-42L234 355L84 700H274L356 485L508 700H712Z" glyph-name="X" horiz-adv-x="632" unicode="X" /><glyph d="M181 285 66 560H245L296 410L395 560H588L374 278L492 0H318L262 156L159 0H-34Z" glyph-name="X.smcp" horiz-adv-x="539" unicode="&#62292;" /><glyph d="M75 700H266L363 465H370L549 700H758L429 284L379 0H212L261 281Z" glyph-name="Y" horiz-adv-x="675" unicode="Y" /><glyph d="M211 208 66 560H246L307 394H313L434 560H631L367 211L330 0H174Z" glyph-name="Y.smcp" horiz-adv-x="588" unicode="&#62293;" /><glyph d="M410 935H615L489 758H340ZM75 700H266L363 465H370L549 700H758L429 284L379 0H212L261 281Z" glyph-name="Yacute" horiz-adv-x="675" unicode="&#221;" /><glyph d="M333 730H510L407 605H277ZM211 208 66 560H246L307 394H313L434 560H631L367 211L330 0H174Z" glyph-name="Yacute.smcp" horiz-adv-x="588" unicode="&#62482;" /><glyph d="M354 942H527L605 765H450L427 823L392 765H220ZM75 700H266L363 465H370L549 700H758L429 284L379 0H212L261 281Z" glyph-name="Ycircumflex" horiz-adv-x="675" unicode="&#374;" /><glyph d="M355 650 316 605H184L279 730H450L499 605H376ZM211 208 66 560H246L307 394H313L434 560H631L367 211L330 0H174Z" glyph-name="Ycircumflex.smcp" horiz-adv-x="588" unicode="&#62546;" /><glyph d="M417 829Q417 847 424 863.5Q431 880 443.5 892.5Q456 905 472.5 912.5Q489 920 507 920Q525 920 541.5 912.5Q558 905 570.5 892.5Q583 880 590.5 863.5Q598 847 598 829Q598 811 590.5 795Q583 779 570.5 766.5Q558 754 541.5 747Q525 740 507 740Q489 740 472.5 747Q456 754 443.5 766.5Q431 779 424 795Q417 811 417 829ZM209 829Q209 847 216 863.5Q223 880 235.5 892.5Q248 905 264.5 912.5Q281 920 300 920Q318 920 334.5 912.5Q351 905 363.5 892.5Q376 880 383.5 863.5Q391 847 391 829Q391 811 383.5 795Q376 779 363.5 766.5Q351 754 334.5 747Q318 740 300 740Q281 740 264.5 747Q248 754 235.5 766.5Q223 779 216 795Q209 811 209 829ZM75 700H266L363 465H370L549 700H758L429 284L379 0H212L261 281Z" glyph-name="Ydieresis" horiz-adv-x="675" unicode="&#376;" /><glyph d="M357 681Q357 712 380.5 735Q404 758 435 758Q450 758 464 751.5Q478 745 488.5 734.5Q499 724 505.5 710Q512 696 512 681Q512 666 505.5 652.5Q499 639 488.5 628.5Q478 618 464 612Q450 606 435 606Q420 606 405.5 612Q391 618 380.5 628.5Q370 639 363.5 652.5Q357 666 357 681ZM182 681Q182 696 188.5 710Q195 724 206 734.5Q217 745 231 751.5Q245 758 260 758Q275 758 289 751.5Q303 745 313.5 734.5Q324 724 330.5 710Q337 696 337 681Q337 666 330.5 652.5Q324 639 313.5 628.5Q303 618 289 612Q275 606 260 606Q245 606 231 612Q217 618 206 628.5Q195 639 188.5 652.5Q182 666 182 681ZM211 208 66 560H246L307 394H313L434 560H631L367 211L330 0H174Z" glyph-name="Ydieresis.smcp" horiz-adv-x="588" unicode="&#62547;" /><glyph d="M475 765H326L220 942H424ZM75 700H266L363 465H370L549 700H758L429 284L379 0H212L261 281Z" glyph-name="Ygrave" horiz-adv-x="675" unicode="&#7922;" /><glyph d="M398 605H268L176 730H352ZM211 208 66 560H246L307 394H313L434 560H631L367 211L330 0H174Z" glyph-name="Ygrave.smcp" horiz-adv-x="588" unicode="&#62306;" /><glyph d="M95 545 121 700H689L663 552L246 155H595L568 0H-6L19 142L445 545Z" glyph-name="Z" horiz-adv-x="646" unicode="Z" /><glyph d="M21 134 339 414H74L98 560H570L546 421L238 147H499L473 0H-3Z" glyph-name="Z.smcp" horiz-adv-x="553" unicode="&#62294;" /><glyph d="M390 942H595L469 765H320ZM95 545 121 700H689L663 552L246 155H595L568 0H-6L19 142L445 545Z" glyph-name="Zacute" horiz-adv-x="646" unicode="&#377;" /><glyph d="M315 730H492L389 605H259ZM21 134 339 414H74L98 560H570L546 421L238 147H499L473 0H-3Z" glyph-name="Zacute.smcp" horiz-adv-x="553" unicode="&#62483;" /><glyph d="M501 758H328L257 935H410L430 877L472 935H642ZM95 545 121 700H689L663 552L246 155H595L568 0H-6L19 142L445 545Z" glyph-name="Zcaron" horiz-adv-x="646" unicode="&#381;" /><glyph d="M383 730H515L420 605H249L200 730H322L344 684ZM21 134 339 414H74L98 560H570L546 421L238 147H499L473 0H-3Z" glyph-name="Zcaron.smcp" horiz-adv-x="553" unicode="&#62549;" /><glyph d="M424 945Q443 945 459.5 938Q476 931 488.5 918.5Q501 906 508 890Q515 874 515 856Q515 838 508 822Q501 806 488.5 793.5Q476 781 459.5 774Q443 767 424 767Q405 767 388.5 774Q372 781 359.5 793.5Q347 806 340 822Q333 838 333 856Q333 874 340 890Q347 906 359.5 918.5Q372 931 388.5 938Q405 945 424 945ZM95 545 121 700H689L663 552L246 155H595L568 0H-6L19 142L445 545Z" glyph-name="Zdotaccent" horiz-adv-x="646" unicode="&#379;" /><glyph d="M267 681Q267 696 273.5 710Q280 724 290.5 734.5Q301 745 315 751.5Q329 758 344 758Q375 758 398 735Q421 712 421 681Q421 651 398 628.5Q375 606 344 606Q329 606 315 612Q301 618 290.5 628.5Q280 639 273.5 652.5Q267 666 267 681ZM21 134 339 414H74L98 560H570L546 421L238 147H499L473 0H-3Z" glyph-name="Zdotaccent.smcp" horiz-adv-x="553" unicode="&#62548;" /><glyph d="M24 207Q24 268 43 318Q62 368 94.5 403.5Q127 439 170 458Q213 477 261 477Q295 477 320.5 467.5Q346 458 363.5 444.5Q381 431 391 416.5Q401 402 405 392Q403 409 404 426Q405 443 409 460L410 465H567L487 0H329L340 57Q334 45 323 33Q312 21 296.5 11Q281 1 260 -5.5Q239 -12 214 -12Q173 -12 138.5 4Q104 20 78.5 49.5Q53 79 38.5 119Q24 159 24 207ZM265 128Q284 128 302.5 136.5Q321 145 334.5 160Q348 175 356.5 196.5Q365 218 365 244Q365 283 342 310Q319 337 282 337Q262 337 244 328.5Q226 320 212 305Q198 290 189.5 268.5Q181 247 181 221Q181 182 204.5 155Q228 128 265 128Z" glyph-name="a" horiz-adv-x="577" unicode="a" /><glyph d="M316 700H521L395 523H246ZM24 207Q24 268 43 318Q62 368 94.5 403.5Q127 439 170 458Q213 477 261 477Q295 477 320.5 467.5Q346 458 363.5 444.5Q381 431 391 416.5Q401 402 405 392Q403 409 404 426Q405 443 409 460L410 465H567L487 0H329L340 57Q334 45 323 33Q312 21 296.5 11Q281 1 260 -5.5Q239 -12 214 -12Q173 -12 138.5 4Q104 20 78.5 49.5Q53 79 38.5 119Q24 159 24 207ZM265 128Q284 128 302.5 136.5Q321 145 334.5 160Q348 175 356.5 196.5Q365 218 365 244Q365 283 342 310Q319 337 282 337Q262 337 244 328.5Q226 320 212 305Q198 290 189.5 268.5Q181 247 181 221Q181 182 204.5 155Q228 128 265 128Z" glyph-name="aacute" horiz-adv-x="577" unicode="&#225;" /><glyph d="M395 700H517L511 658Q504 617 488 588.5Q472 560 449 542.5Q426 525 397 517.5Q368 510 335 510Q302 510 273 520.5Q244 531 223.5 551Q203 571 194 600Q185 629 191 667L198 700H321L315 659Q312 644 320 633Q328 622 346 622Q364 622 374 632Q384 642 387 657ZM24 207Q24 268 43 318Q62 368 94.5 403.5Q127 439 170 458Q213 477 261 477Q295 477 320.5 467.5Q346 458 363.5 444.5Q381 431 391 416.5Q401 402 405 392Q403 409 404 426Q405 443 409 460L410 465H567L487 0H329L340 57Q334 45 323 33Q312 21 296.5 11Q281 1 260 -5.5Q239 -12 214 -12Q173 -12 138.5 4Q104 20 78.5 49.5Q53 79 38.5 119Q24 159 24 207ZM265 128Q284 128 302.5 136.5Q321 145 334.5 160Q348 175 356.5 196.5Q365 218 365 244Q365 283 342 310Q319 337 282 337Q262 337 244 328.5Q226 320 212 305Q198 290 189.5 268.5Q181 247 181 221Q181 182 204.5 155Q228 128 265 128Z" glyph-name="abreve" horiz-adv-x="577" unicode="&#259;" /><glyph d="M266 700H439L517 523H362L339 581L304 523H132ZM24 207Q24 268 43 318Q62 368 94.5 403.5Q127 439 170 458Q213 477 261 477Q295 477 320.5 467.5Q346 458 363.5 444.5Q381 431 391 416.5Q401 402 405 392Q403 409 404 426Q405 443 409 460L410 465H567L487 0H329L340 57Q334 45 323 33Q312 21 296.5 11Q281 1 260 -5.5Q239 -12 214 -12Q173 -12 138.5 4Q104 20 78.5 49.5Q53 79 38.5 119Q24 159 24 207ZM265 128Q284 128 302.5 136.5Q321 145 334.5 160Q348 175 356.5 196.5Q365 218 365 244Q365 283 342 310Q319 337 282 337Q262 337 244 328.5Q226 320 212 305Q198 290 189.5 268.5Q181 247 181 221Q181 182 204.5 155Q228 128 265 128Z" glyph-name="acircumflex" horiz-adv-x="577" unicode="&#226;" /><glyph d="M151 700H356L230 523H81Z" glyph-name="acute" horiz-adv-x="278" unicode="&#180;" /><glyph d="M166 730H343L240 605H110Z" glyph-name="acute.smcp" horiz-adv-x="375" unicode="&#63412;" /><glyph d="M358 594Q358 612 365 628.5Q372 645 384.5 657.5Q397 670 413.5 677.5Q430 685 448 685Q466 685 482.5 677.5Q499 670 511.5 657.5Q524 645 531.5 628.5Q539 612 539 594Q539 576 531.5 560Q524 544 511.5 531.5Q499 519 482.5 512Q466 505 448 505Q430 505 413.5 512Q397 519 384.5 531.5Q372 544 365 560Q358 576 358 594ZM150 594Q150 612 157 628.5Q164 645 176.5 657.5Q189 670 205.5 677.5Q222 685 241 685Q259 685 275.5 677.5Q292 670 304.5 657.5Q317 645 324.5 628.5Q332 612 332 594Q332 576 324.5 560Q317 544 304.5 531.5Q292 519 275.5 512Q259 505 241 505Q222 505 205.5 512Q189 519 176.5 531.5Q164 544 157 560Q150 576 150 594ZM24 207Q24 268 43 318Q62 368 94.5 403.5Q127 439 170 458Q213 477 261 477Q295 477 320.5 467.5Q346 458 363.5 444.5Q381 431 391 416.5Q401 402 405 392Q403 409 404 426Q405 443 409 460L410 465H567L487 0H329L340 57Q334 45 323 33Q312 21 296.5 11Q281 1 260 -5.5Q239 -12 214 -12Q173 -12 138.5 4Q104 20 78.5 49.5Q53 79 38.5 119Q24 159 24 207ZM265 128Q284 128 302.5 136.5Q321 145 334.5 160Q348 175 356.5 196.5Q365 218 365 244Q365 283 342 310Q319 337 282 337Q262 337 244 328.5Q226 320 212 305Q198 290 189.5 268.5Q181 247 181 221Q181 182 204.5 155Q228 128 265 128Z" glyph-name="adieresis" horiz-adv-x="577" unicode="&#228;" /><glyph d="M551 349Q525 349 501.5 333.5Q478 318 467 288H625Q623 314 602 331.5Q581 349 551 349ZM215 98Q242 98 266.5 120.5Q291 143 293 190Q287 184 278 182.5Q269 181 260 181H223Q199 181 183 172Q167 163 167 140Q167 123 180.5 110.5Q194 98 215 98ZM532 -12Q475 -12 426.5 11Q378 34 346 76Q338 62 324.5 47Q311 32 289.5 18.5Q268 5 238.5 -3.5Q209 -12 170 -12Q134 -12 103 -1Q72 10 49.5 29.5Q27 49 14.5 75.5Q2 102 2 133Q2 176 16 204.5Q30 233 54.5 250Q79 267 112.5 274Q146 281 185 281H276Q293 281 302.5 288Q312 295 312 311Q312 325 298 333Q284 341 255 341Q226 341 186 333Q146 325 111 311L76 439Q118 455 163.5 466Q209 477 273 477Q316 477 352.5 466.5Q389 456 416 435Q447 455 482 466Q517 477 554 477Q596 477 638.5 462.5Q681 448 715 416.5Q749 385 770 336.5Q791 288 790 220Q790 212 789.5 204Q789 196 788 188H461Q465 159 486.5 141.5Q508 124 537 124Q566 124 584 136Q602 148 613 168L772 139Q762 105 740 77.5Q718 50 687 30Q656 10 616.5 -1Q577 -12 532 -12Z" glyph-name="ae" horiz-adv-x="810" unicode="&#230;" /><glyph d="M187 360Q241 414 270.5 472.5Q300 531 300 594Q300 609 297 626Q294 643 286.5 657.5Q279 672 267 681Q255 690 238 690Q219 690 203 675Q187 660 187 620ZM326 588Q326 548 314.5 512.5Q303 477 284.5 445Q266 413 241 384.5Q216 356 189 330V99Q189 77 195 61.5Q201 46 210.5 36.5Q220 27 232.5 22.5Q245 18 258 18Q319 18 330 91H350Q346 59 332 39Q318 19 300.5 8Q283 -3 264.5 -7Q246 -11 233 -11Q206 -11 181 -3Q156 5 136.5 25Q117 45 105 79Q93 113 93 164V250Q84 242 74 235Q66 229 57 222Q48 215 41 210L24 229Q37 238 49 247Q61 256 71 264Q81 272 87 276.5Q93 281 93 281V541Q93 620 126 666.5Q159 713 224 713Q275 713 300.5 680Q326 647 326 588Z" glyph-name="afii61289" horiz-adv-x="397" unicode="&#8467;" /><glyph d="M406 523H257L151 700H355ZM24 207Q24 268 43 318Q62 368 94.5 403.5Q127 439 170 458Q213 477 261 477Q295 477 320.5 467.5Q346 458 363.5 444.5Q381 431 391 416.5Q401 402 405 392Q403 409 404 426Q405 443 409 460L410 465H567L487 0H329L340 57Q334 45 323 33Q312 21 296.5 11Q281 1 260 -5.5Q239 -12 214 -12Q173 -12 138.5 4Q104 20 78.5 49.5Q53 79 38.5 119Q24 159 24 207ZM265 128Q284 128 302.5 136.5Q321 145 334.5 160Q348 175 356.5 196.5Q365 218 365 244Q365 283 342 310Q319 337 282 337Q262 337 244 328.5Q226 320 212 305Q198 290 189.5 268.5Q181 247 181 221Q181 182 204.5 155Q228 128 265 128Z" glyph-name="agrave" horiz-adv-x="577" unicode="&#224;" /><glyph d="M185 663H526L502 525H161ZM24 207Q24 268 43 318Q62 368 94.5 403.5Q127 439 170 458Q213 477 261 477Q295 477 320.5 467.5Q346 458 363.5 444.5Q381 431 391 416.5Q401 402 405 392Q403 409 404 426Q405 443 409 460L410 465H567L487 0H329L340 57Q334 45 323 33Q312 21 296.5 11Q281 1 260 -5.5Q239 -12 214 -12Q173 -12 138.5 4Q104 20 78.5 49.5Q53 79 38.5 119Q24 159 24 207ZM265 128Q284 128 302.5 136.5Q321 145 334.5 160Q348 175 356.5 196.5Q365 218 365 244Q365 283 342 310Q319 337 282 337Q262 337 244 328.5Q226 320 212 305Q198 290 189.5 268.5Q181 247 181 221Q181 182 204.5 155Q228 128 265 128Z" glyph-name="amacron" horiz-adv-x="577" unicode="&#257;" /><glyph d="M190 192Q190 169 207.5 152.5Q225 136 249 136Q266 136 284.5 145.5Q303 155 318 178L247 271Q212 251 201 231Q190 211 190 192ZM365 469Q374 484 377 497Q380 510 380 519Q380 539 367.5 553Q355 567 332 567Q309 567 294.5 552Q280 537 280 511Q280 490 291.5 472.5Q303 455 314 441L417 307Q431 327 444.5 352.5Q458 378 467 395H664Q648 366 628.5 335.5Q609 305 589 276Q569 247 550 222Q531 197 517 179L630 36L624 0H453L408 61Q373 25 331 6.5Q289 -12 230 -12Q185 -12 147 2.5Q109 17 81.5 43Q54 69 38 104Q22 139 22 180Q22 245 60.5 298.5Q99 352 166 390Q146 414 132.5 448.5Q119 483 119 523Q119 552 131.5 585Q144 618 170 646.5Q196 675 236 693.5Q276 712 331 712Q374 712 411 699Q448 686 475 664.5Q502 643 517 613.5Q532 584 532 551Q532 540 528.5 513.5Q525 487 510 461Z" glyph-name="ampersand" horiz-adv-x="669" unicode="&amp;" /><glyph d="M230 115Q242 115 256.5 121Q271 127 285 141L222 221Q201 210 191 193Q181 176 181 162Q181 142 195.5 128.5Q210 115 230 115ZM205 -10Q169 -10 136.5 1.5Q104 13 79.5 34Q55 55 41 84.5Q27 114 27 149Q27 174 36 198.5Q45 223 61 244Q77 265 99.5 281.5Q122 298 148 308Q135 325 121.5 350.5Q108 376 108 418Q108 436 117 462Q126 488 147.5 512Q169 536 205 553Q241 570 295 570Q331 570 362.5 559Q394 548 417.5 529.5Q441 511 454.5 485.5Q468 460 468 431Q468 410 463 394.5Q458 379 452 367L327 380Q331 386 334 395Q337 404 337 412Q337 429 328 439.5Q319 450 303 450Q286 450 278 439Q270 428 270 414Q270 400 277 387Q284 374 291 366L377 257Q385 268 391.5 281Q398 294 403 305H573Q559 282 544.5 258Q530 234 516 212.5Q502 191 489 172Q476 153 466 140L559 23L552 0H382L348 44Q319 15 280.5 2.5Q242 -10 205 -10Z" glyph-name="ampersand.smcp" horiz-adv-x="596" unicode="&#58369;" /><glyph d="M265 128Q284 128 302.5 136.5Q321 145 334.5 160Q348 175 356.5 196.5Q365 218 365 244Q365 283 342 310Q319 337 282 337Q262 337 244 328.5Q226 320 212 305Q198 290 189.5 268.5Q181 247 181 221Q181 182 204.5 155Q228 128 265 128ZM24 207Q24 268 43 318Q62 368 94.5 403.5Q127 439 170 458Q213 477 261 477Q295 477 320.5 467.5Q346 458 363.5 444.5Q381 431 391 416.5Q401 402 405 392Q403 409 404 426Q405 443 409 460L410 465H567L487 0H443Q412 -20 402 -37.5Q392 -55 392 -68Q392 -84 404.5 -90.5Q417 -97 431 -97Q451 -97 472 -91.5Q493 -86 503 -84L480 -175Q452 -186 422.5 -194.5Q393 -203 354 -203Q302 -203 266.5 -177.5Q231 -152 231 -107Q231 -72 256.5 -43.5Q282 -15 336 0H329L340 57Q334 45 323 33Q312 21 296.5 11Q281 1 260 -5.5Q239 -12 214 -12Q173 -12 138.5 4Q104 20 78.5 49.5Q53 79 38.5 119Q24 159 24 207Z" glyph-name="aogonek" horiz-adv-x="577" unicode="&#261;" /><glyph d="M251 629Q251 645 257 660Q263 675 274.5 686.5Q286 698 301 705Q316 712 334 712Q353 712 369 705Q385 698 396.5 686Q408 674 414.5 658.5Q421 643 421 627Q421 613 415 597Q409 581 398 568L307 450L221 468L273 572Q251 596 251 629Z" glyph-name="apostrophe" horiz-adv-x="518" unicode="&#700;" /><glyph d="M457 655Q457 641 465.5 631.5Q474 622 488 622Q502 622 511 632Q520 642 520 654Q520 668 511 677.5Q502 687 488 687Q474 687 465.5 677.5Q457 668 457 655ZM601 3Q601 -11 610 -20.5Q619 -30 633 -30Q647 -30 656 -20Q665 -10 665 2Q665 16 656 25.5Q647 35 633 35Q619 35 610 25.5Q601 16 601 3ZM858 613 917 645 942 595Q948 583 942 571Q936 559 925 553Q913 548 901.5 549Q890 550 884 561ZM261 412 375 372Q383 369 389.5 372Q396 375 398 383Q401 390 398 397Q395 404 387 406L272 447L287 494Q289 502 286 508.5Q283 515 275 517Q268 519 261.5 516Q255 513 253 505L210 373Q208 366 210.5 359Q213 352 221 350Q229 348 235.5 351Q242 354 244 362ZM289 575Q281 573 277 567Q273 561 275 553Q277 545 283 541Q289 537 297 539L401 562L410 540Q408 536 405.5 531.5Q403 527 403 522Q403 511 410.5 503.5Q418 496 429 496Q440 496 446 504Q454 511 453.5 520.5Q453 530 450 538L387 697Q384 704 377.5 707Q371 710 363 707Q357 704 353.5 697.5Q350 691 353 683L387 597ZM633 506Q585 506 541 520Q561 555 584.5 588.5Q608 622 635 650Q660 624 683 591Q706 558 728 521Q684 506 633 506ZM1026 492Q1023 499 1015 502Q1008 504 1002 501L873 439Q856 431 863 415L910 310Q913 303 920 300.5Q927 298 934 301Q942 304 944.5 311Q947 318 944 324L904 414L937 429L952 396Q955 389 962 386.5Q969 384 976 387Q992 394 985 411L970 445L1001 460L1033 388Q1036 381 1043 378.5Q1050 376 1057 379Q1063 382 1066 389Q1069 396 1065 403ZM852 545Q863 523 887 515Q916 507 942 522Q968 536 977 562Q986 588 974 611L941 678Q938 686 930 687.5Q922 689 916 686L781 612Q774 608 772 601Q770 594 774 587Q778 580 785 578Q792 576 799 580L826 595ZM782 97Q782 105 777 110Q772 115 764 115H585Q610 128 640.5 146Q671 164 697 187.5Q723 211 740.5 240Q758 269 758 304Q758 327 750 349Q742 371 726.5 388.5Q711 406 688 417Q665 428 635 428Q608 428 584 419.5Q560 411 542 396Q524 381 514 359.5Q504 338 504 312Q504 295 510 278.5Q516 262 527.5 248.5Q539 235 555 227Q571 219 591 219Q604 219 618 223Q632 227 643 236Q654 245 661.5 259Q669 273 669 292Q669 318 656 327Q643 336 633 336Q619 336 609.5 326.5Q600 317 600 304Q600 287 615 277Q616 275 612 265Q608 255 589 255Q566 255 554 274.5Q542 294 542 313Q542 349 567 371Q592 393 633 393Q676 393 697 365.5Q718 338 718 305Q718 282 708.5 262.5Q699 243 683.5 225.5Q668 208 648.5 193.5Q629 179 610 166Q572 142 542 127.5Q512 113 510 110Q500 100 505 90Q511 79 522 79H763Q782 79 782 97ZM853 751Q956 751 1025 682Q1065 643 1086.5 588Q1108 533 1108 473Q1108 402 1083.5 339Q1059 276 1024 223Q962 133 859 53Q821 23 784.5 -1.5Q748 -26 717.5 -44Q687 -62 664.5 -74Q642 -86 633 -90Q624 -86 601.5 -74Q579 -62 549 -44Q519 -26 482.5 -1Q446 24 408 54Q305 135 244 226Q205 283 183 346.5Q161 410 161 474Q161 535 183 590Q205 645 245 684Q316 752 417 752Q474 752 523 729.5Q572 707 610 675Q555 619 510 540Q484 495 464 449.5Q444 404 429 361.5Q414 319 403.5 282.5Q393 246 387 221L337 231Q330 233 324 229Q318 225 316 218Q314 211 318 205.5Q322 200 330 198L465 169Q472 167 477.5 171Q483 175 485 182Q488 199 472 203L424 213Q429 234 437.5 264.5Q446 295 458.5 331Q471 367 487 407Q503 447 524 487Q576 468 633 468Q691 468 745 488Q765 449 781 409Q797 369 809 333Q821 297 829.5 265.5Q838 234 843 212L795 202Q779 198 781 182Q783 174 789 170Q795 166 802 168L937 196Q944 198 948 203.5Q952 209 950 216Q949 224 943 228Q937 232 930 230L881 220Q881 221 880.5 221.5Q880 222 880 223Q873 248 862.5 284.5Q852 321 837 363.5Q822 406 802 452Q782 498 757 543Q714 621 662 674Q704 710 752 730.5Q800 751 853 751ZM1145 474Q1145 541 1120.5 602Q1096 663 1051 708Q969 787 853 787Q787 787 732.5 762.5Q678 738 635 700Q585 743 530 765.5Q475 788 414 788Q300 788 219 710Q174 665 149 603.5Q124 542 124 473Q124 400 149 331.5Q174 263 214 205Q247 157 289 112Q331 67 385 25Q430 -11 472 -38.5Q514 -66 547 -85Q580 -104 601 -113.5Q622 -123 624 -124Q633 -128 642 -124Q644 -123 665 -113.5Q686 -104 719.5 -85Q753 -66 795.5 -39Q838 -12 883 24Q937 66 979 110.5Q1021 155 1054 203Q1096 266 1120.5 334.5Q1145 403 1145 474ZM1088 734Q1136 684 1162.5 615.5Q1189 547 1189 473Q1189 400 1166.5 332Q1144 264 1105.5 202Q1067 140 1015.5 85.5Q964 31 906 -15Q848 -61 785.5 -98Q723 -135 664 -162Q646 -170 633 -170Q620 -170 602 -162Q540 -134 477 -96Q414 -58 356 -11Q298 36 247.5 91Q197 146 160 207.5Q123 269 101.5 336.5Q80 404 80 475Q80 550 107 618.5Q134 687 182 737Q228 784 288.5 807Q349 830 417 830Q484 830 539.5 806Q595 782 639 744Q687 787 741.5 807.5Q796 828 856 828Q923 828 983 804.5Q1043 781 1088 734Z" glyph-name="apple" horiz-adv-x="1200" unicode="&#63743;" /><glyph d="M398 368Q381 368 356.5 374Q332 380 307.5 387.5Q283 395 263 401Q243 407 236 407Q222 407 215 400Q208 393 206 370H60L74 446Q77 460 82 480.5Q87 501 100.5 520Q114 539 138 552.5Q162 566 203 566Q219 566 244 560Q269 554 293.5 546.5Q318 539 338 533Q358 527 365 527Q379 527 386 534Q393 541 395 564H541L527 488Q524 474 519 453.5Q514 433 500.5 414Q487 395 462.5 381.5Q438 368 398 368ZM359 147Q342 147 317.5 153Q293 159 268.5 166.5Q244 174 224 180Q204 186 197 186Q183 186 176 179Q169 172 167 149H21L35 225Q38 239 43 259.5Q48 280 61.5 299Q75 318 99 331.5Q123 345 164 345Q180 345 205 339Q230 333 254.5 325.5Q279 318 299 312Q319 306 326 306Q340 306 347 313Q354 320 356 343H502L488 267Q485 253 480 232.5Q475 212 461.5 193Q448 174 423.5 160.5Q399 147 359 147Z" glyph-name="approxequal" horiz-adv-x="520" unicode="&#8776;" /><glyph d="M305 100Q292 100 273 104.5Q254 109 235.5 115Q217 121 202 125.5Q187 130 183 130Q174 130 168.5 124.5Q163 119 161 101H28L41 174Q43 187 47.5 204Q52 221 62.5 237Q73 253 93 264Q113 275 147 275Q160 275 179 270.5Q198 266 216.5 260.5Q235 255 250 250.5Q265 246 270 246Q279 246 284 251Q289 256 291 274H424L412 201Q410 189 405 171.5Q400 154 389 138Q378 122 358 111Q338 100 305 100ZM337 290Q324 290 305 294.5Q286 299 267.5 305Q249 311 234 315.5Q219 320 215 320Q206 320 200.5 314.5Q195 309 193 291H60L73 364Q75 377 79.5 394Q84 411 94.5 427Q105 443 125 454Q145 465 179 465Q192 465 211 460.5Q230 456 248.5 450.5Q267 445 282 440.5Q297 436 302 436Q311 436 316 441Q321 446 323 464H456L444 391Q442 379 437 361.5Q432 344 421 328Q410 312 390 301Q370 290 337 290Z" glyph-name="approxequal.smcp" horiz-adv-x="467" unicode="&#62005;" /><glyph d="M339 673Q321 673 307.5 659Q294 645 294 624Q294 604 307.5 590Q321 576 339 576Q358 576 371 590Q384 604 384 624Q384 645 371 659Q358 673 339 673ZM339 494Q310 494 284.5 504Q259 514 240.5 531.5Q222 549 211.5 572.5Q201 596 201 624Q201 653 211.5 677Q222 701 240.5 718.5Q259 736 284.5 745.5Q310 755 339 755Q368 755 393.5 745.5Q419 736 437.5 718.5Q456 701 467 677Q478 653 478 624Q478 596 467 572.5Q456 549 437.5 531.5Q419 514 393.5 504Q368 494 339 494ZM24 207Q24 268 43 318Q62 368 94.5 403.5Q127 439 170 458Q213 477 261 477Q295 477 320.5 467.5Q346 458 363.5 444.5Q381 431 391 416.5Q401 402 405 392Q403 409 404 426Q405 443 409 460L410 465H567L487 0H329L340 57Q334 45 323 33Q312 21 296.5 11Q281 1 260 -5.5Q239 -12 214 -12Q173 -12 138.5 4Q104 20 78.5 49.5Q53 79 38.5 119Q24 159 24 207ZM265 128Q284 128 302.5 136.5Q321 145 334.5 160Q348 175 356.5 196.5Q365 218 365 244Q365 283 342 310Q319 337 282 337Q262 337 244 328.5Q226 320 212 305Q198 290 189.5 268.5Q181 247 181 221Q181 182 204.5 155Q228 128 265 128Z" glyph-name="aring" horiz-adv-x="577" unicode="&#229;" /><glyph d="M279 676H436V322L579 444L683 337L357 37L32 337L136 444L279 322Z" glyph-name="arrow.down" horiz-adv-x="715" unicode="&#62245;" /><glyph d="M279 391 136 269 32 376 357 676 683 376 579 269 436 391V37H279Z" glyph-name="arrow.up" horiz-adv-x="715" unicode="&#62244;" /><glyph d="M509 600 620 489 370 239 557 224 555 75 112 93 95 535 244 537 259 350Z" glyph-name="arrowdown.left" horiz-adv-x="715" unicode="&#62248;" /><glyph d="M456 350 471 537 620 535 603 93 160 75 158 224 345 239 95 489 206 600Z" glyph-name="arrowdown.right" horiz-adv-x="715" unicode="&#62249;" /><glyph d="M259 325 244 138 95 140 112 582 555 600 557 451 370 436 620 186 509 75Z" glyph-name="arrowup.left" horiz-adv-x="715" unicode="&#62246;" /><glyph d="M206 75 95 186 345 436 158 451 160 600 603 582 620 140 471 138 456 325Z" glyph-name="arrowup.right" horiz-adv-x="715" unicode="&#62247;" /><glyph d="M261 700H450L505 225H350L328 521L199 225H35Z" glyph-name="asciicircum" horiz-adv-x="540" unicode="^" /><glyph d="M381 258Q364 258 339.5 264Q315 270 290.5 277.5Q266 285 246 291Q226 297 219 297Q205 297 198 290Q191 283 189 260H43L57 336Q60 350 65 370.5Q70 391 83.5 410Q97 429 121 442.5Q145 456 186 456Q202 456 227 450Q252 444 276.5 436.5Q301 429 321 423Q341 417 348 417Q362 417 369 424Q376 431 378 454H524L510 378Q507 364 502 343.5Q497 323 483.5 304Q470 285 445.5 271.5Q421 258 381 258Z" glyph-name="asciitilde" horiz-adv-x="520" unicode="~" /><glyph d="M238 483Q233 457 249 434Q265 411 292 407Q305 405 317.5 408Q330 411 340.5 418.5Q351 426 358.5 436.5Q366 447 368 461Q372 487 356.5 509.5Q341 532 314 537Q288 541 265 525.5Q242 510 238 483ZM189 492Q140 506 116 528.5Q92 551 99 592Q102 608 110.5 619.5Q119 631 130.5 637.5Q142 644 155 646.5Q168 649 180 647Q199 644 218 628.5Q237 613 260 586Q259 607 259 624Q259 641 261 652Q267 681 290 697.5Q313 714 345 708Q376 703 392.5 679.5Q409 656 404 627Q402 616 396 600Q390 584 382 565Q414 582 436.5 589Q459 596 479 594Q505 591 523 568Q541 545 536 513Q529 475 498.5 461Q468 447 417 452Q466 438 490 414Q514 390 507 352Q504 336 495.5 324.5Q487 313 475.5 306.5Q464 300 451 297.5Q438 295 426 297Q407 300 388 315.5Q369 331 346 358Q347 337 347 320Q347 303 345 292Q340 263 316.5 246.5Q293 230 261 236Q230 241 213.5 264.5Q197 288 202 317Q204 328 210 344Q216 360 224 379Q192 362 169.5 354Q147 346 127 350Q115 352 104 358.5Q93 365 84.5 375.5Q76 386 71.5 399.5Q67 413 70 429Q77 467 107.5 482Q138 497 189 492Z" glyph-name="asterisk" horiz-adv-x="527" unicode="*" /><glyph d="M455 132Q474 132 492.5 140.5Q511 149 524.5 164Q538 179 546.5 200.5Q555 222 555 248Q555 287 532 314Q509 341 472 341Q452 341 434 332.5Q416 324 402 309Q388 294 379.5 272.5Q371 251 371 225Q371 186 394.5 159Q418 132 455 132ZM696 116Q694 104 698.5 92Q703 80 717 80Q748 80 772 104.5Q796 129 812.5 164Q829 199 837.5 238Q846 277 846 306Q846 372 824 425.5Q802 479 761 517Q720 555 661 576Q602 597 529 597Q448 597 377 569.5Q306 542 253 491Q200 440 169.5 366.5Q139 293 139 201Q139 127 163 69.5Q187 12 231 -28.5Q275 -69 337.5 -90Q400 -111 477 -111Q524 -111 571 -100.5Q618 -90 654 -69L778 -92Q748 -116 712 -135Q676 -154 636 -167Q596 -180 554.5 -187Q513 -194 472 -194Q374 -194 294.5 -165Q215 -136 158.5 -84Q102 -32 71 40Q40 112 40 198Q40 309 79.5 398Q119 487 186 549.5Q253 612 342 645.5Q431 679 530 679Q611 679 684 654.5Q757 630 812.5 583.5Q868 537 900.5 470Q933 403 933 317Q933 251 916.5 191.5Q900 132 867.5 88Q835 44 786 18Q737 -8 672 -8Q637 -8 612.5 -0.5Q588 7 571.5 17.5Q555 28 545 40Q535 52 530 61Q524 49 513 37Q502 25 486.5 15Q471 5 450 -1.5Q429 -8 404 -8Q363 -8 328.5 8Q294 24 268.5 53.5Q243 83 228.5 123Q214 163 214 211Q214 272 233.5 322Q253 372 285.5 407.5Q318 443 361.5 462Q405 481 453 481Q483 481 507.5 472Q532 463 550 449.5Q568 436 579.5 421.5Q591 407 595 396Q593 410 594 428Q595 446 600 469H757Z" glyph-name="at" horiz-adv-x="958" unicode="@" /><glyph d="M458 247Q477 247 495.5 255.5Q514 264 527.5 279Q541 294 549.5 315.5Q558 337 558 363Q558 402 535 429Q512 456 475 456Q455 456 437 447.5Q419 439 405 424Q391 409 382.5 387.5Q374 366 374 340Q374 301 397.5 274Q421 247 458 247ZM699 231Q697 219 701.5 207Q706 195 720 195Q751 195 775 219.5Q799 244 815.5 279Q832 314 840.5 353Q849 392 849 421Q849 487 827 540.5Q805 594 764 632Q723 670 664 691Q605 712 532 712Q451 712 380 684.5Q309 657 256 606Q203 555 172.5 481.5Q142 408 142 316Q142 242 166 184.5Q190 127 234 86.5Q278 46 340.5 25Q403 4 480 4Q527 4 574 14.5Q621 25 657 46L781 23Q751 -1 715 -20Q679 -39 639 -52Q599 -65 557.5 -72Q516 -79 475 -79Q377 -79 297.5 -50Q218 -21 161.5 31Q105 83 74 155Q43 227 43 313Q43 424 82.5 513Q122 602 189 664.5Q256 727 345 760.5Q434 794 533 794Q614 794 687 769.5Q760 745 815.5 698.5Q871 652 903.5 585Q936 518 936 432Q936 366 919.5 306.5Q903 247 870.5 203Q838 159 789 133Q740 107 675 107Q640 107 615.5 114.5Q591 122 574.5 132.5Q558 143 548 155Q538 167 533 176Q527 164 516 152Q505 140 489.5 130Q474 120 453 113.5Q432 107 407 107Q366 107 331.5 123Q297 139 271.5 168.5Q246 198 231.5 238Q217 278 217 326Q217 387 236.5 437Q256 487 288.5 522.5Q321 558 364.5 577Q408 596 456 596Q486 596 510.5 587Q535 578 553 564.5Q571 551 582.5 536.5Q594 522 598 511Q596 525 597 543Q598 561 603 584H760Z" glyph-name="at.alt" horiz-adv-x="920" unicode="&#62208;" /><glyph d="M264 671Q280 671 296.5 665.5Q313 660 328.5 654Q344 648 357 642.5Q370 637 381 637Q402 637 406 656L408 669L528 649Q526 629 521 604Q516 579 503 557.5Q490 536 467 521Q444 506 405 506Q390 506 372.5 511Q355 516 339 522Q323 528 309.5 533Q296 538 289 538Q268 538 264 519L262 506L142 526Q144 546 149 571Q154 596 167 618.5Q180 641 203 656Q226 671 264 671ZM24 207Q24 268 43 318Q62 368 94.5 403.5Q127 439 170 458Q213 477 261 477Q295 477 320.5 467.5Q346 458 363.5 444.5Q381 431 391 416.5Q401 402 405 392Q403 409 404 426Q405 443 409 460L410 465H567L487 0H329L340 57Q334 45 323 33Q312 21 296.5 11Q281 1 260 -5.5Q239 -12 214 -12Q173 -12 138.5 4Q104 20 78.5 49.5Q53 79 38.5 119Q24 159 24 207ZM265 128Q284 128 302.5 136.5Q321 145 334.5 160Q348 175 356.5 196.5Q365 218 365 244Q365 283 342 310Q319 337 282 337Q262 337 244 328.5Q226 320 212 305Q198 290 189.5 268.5Q181 247 181 221Q181 182 204.5 155Q228 128 265 128Z" glyph-name="atilde" horiz-adv-x="577" unicode="&#227;" /><glyph d="M237 408Q243 420 254 432Q265 444 280.5 454Q296 464 316.5 470.5Q337 477 363 477Q404 477 438.5 461Q473 445 498.5 415.5Q524 386 538.5 346Q553 306 553 258Q553 196 534.5 146.5Q516 97 484.5 61.5Q453 26 410.5 7Q368 -12 320 -12Q289 -12 265 -3Q241 6 224 19Q207 32 196.5 46Q186 60 182 70L167 0H10L129 700H289L250 480ZM312 337Q292 337 274 328.5Q256 320 242.5 305Q229 290 220.5 268.5Q212 247 212 221Q212 182 235 155Q258 128 295 128Q314 128 332.5 136.5Q351 145 365 160Q379 175 387.5 196.5Q396 218 396 244Q396 283 372.5 310Q349 337 312 337Z" glyph-name="b" horiz-adv-x="577" unicode="b" /><glyph d="M360 0H216L103 700H248Z" glyph-name="backslash" horiz-adv-x="422" unicode="\" /><glyph d="M85 560H216L316 0H186Z" glyph-name="backslash.smcp" horiz-adv-x="385" unicode="&#58472;" /><glyph d="M9 -93 156 760H271L123 -93Z" glyph-name="bar" horiz-adv-x="243" unicode="|" /><glyph d="M128 608H231L113 -74H11Z" glyph-name="bar.smcp" horiz-adv-x="230" unicode="&#58473;" /><glyph d="M51 363H122L181 700H443L417 555H319L290 384Q288 374 284 361Q280 348 271.5 335Q263 322 249.5 310.5Q236 299 216 293Q234 286 243.5 274.5Q253 263 256.5 250Q260 237 260 224Q260 211 259 201L222 -8H320L295 -153H33L98 222H26Z" glyph-name="braceleft" horiz-adv-x="398" unicode="{" /><glyph d="M60 438H131L190 775H452L426 630H328L299 459Q297 449 293 436Q289 423 280.5 410Q272 397 258.5 385.5Q245 374 225 368Q243 361 252.5 349.5Q262 338 265.5 325Q269 312 269 299Q269 286 268 276L231 67H329L304 -78H42L107 297H35Z" glyph-name="braceleft.cap" horiz-adv-x="391" unicode="&#58517;" /><glyph d="M85 222H29L52 355H108L154 616H374L350 480H283L262 354Q259 340 246 319.5Q233 299 202 289Q219 282 227 271.5Q235 261 237.5 250Q240 239 239 228.5Q238 218 238 212L212 70H279L256 -66H35Z" glyph-name="braceleft.smcp" horiz-adv-x="349" unicode="&#58525;" /><glyph d="M367 222H296L231 -153H-30L-4 -8H93L129 201Q130 211 134.5 224Q139 237 147.5 250Q156 263 169.5 274.5Q183 286 203 293Q185 299 175.5 310.5Q166 322 162 335Q158 348 158 361Q158 374 160 384L190 555H92L117 700H379L320 363H392Z" glyph-name="braceright" horiz-adv-x="397" unicode="}" /><glyph d="M377 297H306L241 -78H-20L6 67H103L139 276Q140 286 144.5 299Q149 312 157.5 325Q166 338 179.5 349.5Q193 361 213 368Q195 374 185.5 385.5Q176 397 172 410Q168 423 168 436Q168 449 170 459L200 630H102L127 775H389L330 438H402Z" glyph-name="braceright.cap" horiz-adv-x="390" unicode="&#58518;" /><glyph d="M15 70H81L107 223Q108 228 111.5 237.5Q115 247 122 256.5Q129 266 140.5 275Q152 284 168 289Q152 295 144 304.5Q136 314 133 325Q130 336 130 346.5Q130 357 131 363L152 480H85L109 616H329L283 355H339L316 222H260L211 -66H-10Z" glyph-name="braceright.smcp" horiz-adv-x="349" unicode="&#58526;" /><glyph d="M283 555 186 -8H313L288 -153H-3L144 700H436L410 555Z" glyph-name="bracketleft" horiz-adv-x="388" unicode="[" /><glyph d="M297 630 200 67H327L302 -78H11L158 775H450L424 630Z" glyph-name="bracketleft.cap" horiz-adv-x="388" unicode="&#58515;" /><glyph d="M130 616H383L359 480H260L190 71H289L265 -66H12Z" glyph-name="bracketleft.smcp" horiz-adv-x="357" unicode="&#58523;" /><glyph d="M89 555 114 700H406L258 -153H-33L-7 -8H119L216 555Z" glyph-name="bracketright" horiz-adv-x="389" unicode="]" /><glyph d="M101 630 126 775H418L270 -78H-21L5 67H131L228 630Z" glyph-name="bracketright.cap" horiz-adv-x="387" unicode="&#58516;" /><glyph d="M13 70H112L182 480H83L107 616H361L242 -66H-11Z" glyph-name="bracketright.smcp" horiz-adv-x="358" unicode="&#58524;" /><glyph d="M296 700H418L412 658Q405 617 389 588.5Q373 560 350 542.5Q327 525 298 517.5Q269 510 236 510Q203 510 174 520.5Q145 531 124.5 551Q104 571 95 600Q86 629 92 667L99 700H222L216 659Q213 644 221 633Q229 622 247 622Q265 622 275 632Q285 642 288 657Z" glyph-name="breve" horiz-adv-x="367" unicode="&#728;" /><glyph d="M226 700Q256 700 259 734H366Q366 699 354.5 674Q343 649 323 633.5Q303 618 276 610.5Q249 603 218 603Q162 603 129 629Q96 655 96 700Q96 705 96.5 711.5Q97 718 98 723Q99 729 101 734H201Q195 714 203.5 707Q212 700 226 700Z" glyph-name="breve.smcp" horiz-adv-x="375" unicode="&#63220;" /><glyph d="M9 -93 72 282H188L123 -93ZM91 385 156 760H271L207 385Z" glyph-name="brokenbar" horiz-adv-x="243" unicode="&#166;" /><glyph d="M129 608H231L179 304H76ZM62 231H165L113 -74H11Z" glyph-name="brokenbar.smcp" horiz-adv-x="230" unicode="&#58475;" /><glyph d="M82 359Q82 385 91.5 408Q101 431 118 448.5Q135 466 158 476Q181 486 207 486Q233 486 256 476Q279 466 296 448.5Q313 431 323 408Q333 385 333 359Q333 333 323 310Q313 287 296 270Q279 253 256 243Q233 233 207 233Q181 233 158 243Q135 253 118 270Q101 287 91.5 310Q82 333 82 359Z" glyph-name="bullet" horiz-adv-x="375" unicode="&#8226;" /><glyph d="M498 169Q486 122 461.5 88Q437 54 405 32Q373 10 334 -1Q295 -12 255 -12Q207 -12 165 4.5Q123 21 91.5 51Q60 81 41.5 123.5Q23 166 23 218Q23 275 42.5 323Q62 371 96.5 405Q131 439 177 458Q223 477 276 477Q321 477 359.5 464Q398 451 428 426.5Q458 402 478 367.5Q498 333 505 290L355 259Q351 294 329.5 315.5Q308 337 275 337Q236 337 207.5 305.5Q179 274 179 221Q179 182 201 155Q223 128 260 128Q291 128 315.5 146Q340 164 348 200Z" glyph-name="c" horiz-adv-x="521" unicode="c" /><glyph d="M302 700H507L381 523H232ZM499 169Q487 122 462.5 88Q438 54 406 32Q374 10 335 -1Q296 -12 256 -12Q208 -12 166 4.5Q124 21 92.5 51Q61 81 42.5 123.5Q24 166 24 218Q24 275 43.5 323Q63 371 97.5 405Q132 439 178 458Q224 477 277 477Q322 477 360.5 464Q399 451 429 426.5Q459 402 479 367.5Q499 333 506 290L356 259Q352 294 330.5 315.5Q309 337 276 337Q237 337 208.5 305.5Q180 274 180 221Q180 182 202 155Q224 128 261 128Q292 128 316.5 146Q341 164 349 200Z" glyph-name="cacute" horiz-adv-x="522" unicode="&#263;" /><glyph d="M338 523H165L94 700H247L267 642L309 700H479Z" glyph-name="caron" horiz-adv-x="427" unicode="&#711;" /><glyph d="M259 730H391L296 605H125L76 730H198L220 684Z" glyph-name="caron.smcp" horiz-adv-x="375" unicode="&#63221;" /><glyph d="M387 523H214L143 700H296L316 642L358 700H528ZM499 169Q487 122 462.5 88Q438 54 406 32Q374 10 335 -1Q296 -12 256 -12Q208 -12 166 4.5Q124 21 92.5 51Q61 81 42.5 123.5Q24 166 24 218Q24 275 43.5 323Q63 371 97.5 405Q132 439 178 458Q224 477 277 477Q322 477 360.5 464Q399 451 429 426.5Q459 402 479 367.5Q499 333 506 290L356 259Q352 294 330.5 315.5Q309 337 276 337Q237 337 208.5 305.5Q180 274 180 221Q180 182 202 155Q224 128 261 128Q292 128 316.5 146Q341 164 349 200Z" glyph-name="ccaron" horiz-adv-x="522" unicode="&#269;" /><glyph d="M162 6Q102 32 63.5 86.5Q25 141 25 218Q25 275 44.5 323Q64 371 98.5 405Q133 439 179 458Q225 477 278 477Q323 477 361.5 464Q400 451 430 426.5Q460 402 480 367.5Q500 333 507 290L357 259Q353 294 331.5 315.5Q310 337 277 337Q238 337 209.5 305.5Q181 274 181 221Q181 182 203 155Q225 128 262 128Q293 128 317.5 146Q342 164 350 200L500 169Q481 97 435 54.5Q389 12 329 -3L243 -136H101Z" glyph-name="ccedilla" horiz-adv-x="524" unicode="&#231;" /><glyph d="M231 700H404L482 523H327L304 581L269 523H97ZM499 169Q487 122 462.5 88Q438 54 406 32Q374 10 335 -1Q296 -12 256 -12Q208 -12 166 4.5Q124 21 92.5 51Q61 81 42.5 123.5Q24 166 24 218Q24 275 43.5 323Q63 371 97.5 405Q132 439 178 458Q224 477 277 477Q322 477 360.5 464Q399 451 429 426.5Q459 402 479 367.5Q499 333 506 290L356 259Q352 294 330.5 315.5Q309 337 276 337Q237 337 208.5 305.5Q180 274 180 221Q180 182 202 155Q224 128 261 128Q292 128 316.5 146Q341 164 349 200Z" glyph-name="ccircumflex" horiz-adv-x="522" unicode="&#265;" /><glyph d="M313 703Q332 703 348.5 696Q365 689 377.5 676.5Q390 664 397 648Q404 632 404 614Q404 596 397 580Q390 564 377.5 551.5Q365 539 348.5 532Q332 525 313 525Q294 525 277.5 532Q261 539 248.5 551.5Q236 564 229 580Q222 596 222 614Q222 632 229 648Q236 664 248.5 676.5Q261 689 277.5 696Q294 703 313 703ZM499 169Q487 122 462.5 88Q438 54 406 32Q374 10 335 -1Q296 -12 256 -12Q208 -12 166 4.5Q124 21 92.5 51Q61 81 42.5 123.5Q24 166 24 218Q24 275 43.5 323Q63 371 97.5 405Q132 439 178 458Q224 477 277 477Q322 477 360.5 464Q399 451 429 426.5Q459 402 479 367.5Q499 333 506 290L356 259Q352 294 330.5 315.5Q309 337 276 337Q237 337 208.5 305.5Q180 274 180 221Q180 182 202 155Q224 128 261 128Q292 128 316.5 146Q341 164 349 200Z" glyph-name="cdotaccent" horiz-adv-x="522" unicode="&#267;" /><glyph d="M36 19H211L111 -136H-31Z" glyph-name="cedilla" horiz-adv-x="311" unicode="&#184;" /><glyph d="M109 15H269L174 -133H44Z" glyph-name="cedilla.smcp" horiz-adv-x="375" unicode="&#63416;" /><glyph d="M211 340Q211 297 235 272L290 454Q256 447 233.5 417Q211 387 211 340ZM530 288Q518 241 493.5 207Q469 173 437 151Q405 129 366 118Q327 107 287 107Q281 107 275.5 107Q270 107 264 108L232 0H153L191 126Q131 151 93 206Q55 261 55 337Q55 394 74.5 442Q94 490 128.5 524Q163 558 209 577Q255 596 308 596Q314 596 320 595.5Q326 595 332 595L364 700H443L406 577Q458 555 492 512Q526 469 537 409L387 378Q385 395 379 409Q373 423 362 433L306 248Q332 252 352.5 269.5Q373 287 380 319Z" glyph-name="cent" horiz-adv-x="551" unicode="&#162;" /><glyph d="M38 141H96Q113 154 121.5 175Q130 196 127 220H45L63 328H99Q96 335 93.5 350.5Q91 366 91 380Q91 419 105 453Q119 487 145.5 513Q172 539 211 554Q250 569 300 569Q340 569 375 558Q410 547 436 527Q462 507 477 477.5Q492 448 492 412Q492 407 492 400Q492 393 491 384H333Q333 386 333.5 388Q334 390 334 395Q334 406 326.5 417Q319 428 301 428Q280 428 269 413.5Q258 399 258 377Q258 364 261.5 350Q265 336 268 328H432L412 220H276Q276 188 262 168Q248 148 239 141H444L420 0H14Z" glyph-name="cent.smcp" horiz-adv-x="503" unicode="&#63109;" /><glyph d="M200 700H373L451 523H296L273 581L238 523H66Z" glyph-name="circumflex" horiz-adv-x="427" unicode="&#710;" /><glyph d="M234 650 195 605H63L158 730H329L378 605H255Z" glyph-name="circumflex.smcp" horiz-adv-x="375" unicode="&#63222;" /><glyph d="M73 364Q73 385 80.5 403.5Q88 422 101.5 435.5Q115 449 133 457Q151 465 172 465Q193 465 211 457Q229 449 242.5 435.5Q256 422 264 403.5Q272 385 272 364Q272 343 264 325Q256 307 242.5 293.5Q229 280 211 272Q193 264 172 264Q130 264 101.5 293Q73 322 73 364ZM23 88Q23 109 30.5 127Q38 145 51.5 158.5Q65 172 83.5 180Q102 188 123 188Q144 188 162 180Q180 172 193.5 158.5Q207 145 214.5 127Q222 109 222 88Q222 67 214.5 48.5Q207 30 193.5 16.5Q180 3 162 -4.5Q144 -12 123 -12Q81 -12 52 17Q23 46 23 88Z" glyph-name="colon" horiz-adv-x="297" unicode=":" /><glyph d="M18 89Q18 108 25.5 126.5Q33 145 46.5 158.5Q60 172 78 180.5Q96 189 118 189Q141 189 160 180.5Q179 172 193 158Q207 144 215 125.5Q223 107 223 87Q223 73 216.5 53Q210 33 198 17L85 -127L-42 -105L44 21Q18 50 18 89Z" glyph-name="comma" horiz-adv-x="287" unicode="," /><glyph d="M-4 -137Q-4 -121 2 -106Q8 -91 19.5 -79.5Q31 -68 46 -61Q61 -54 79 -54Q98 -54 114 -61Q130 -68 141.5 -80Q153 -92 159.5 -107.5Q166 -123 166 -139Q166 -153 160 -169Q154 -185 143 -198L52 -316L-34 -298L18 -194Q-4 -170 -4 -137Z" glyph-name="commaaccent" horiz-adv-x="291" unicode="&#58388;" /><glyph d="M43 -115Q43 -83 66 -60.5Q89 -38 121 -38Q158 -38 180 -62Q202 -86 202 -116Q202 -151 173 -183L99 -266L17 -245L62 -165Q43 -144 43 -115Z" glyph-name="commaaccent.smcp" horiz-adv-x="375" unicode="&#63080;" /><glyph d="M437 59Q498 59 549 80.5Q600 102 636.5 140.5Q673 179 693 232Q713 285 713 348Q713 410 693 462.5Q673 515 636.5 553.5Q600 592 549 613.5Q498 635 437 635Q376 635 325 613.5Q274 592 237.5 553.5Q201 515 181 462.5Q161 410 161 348Q161 285 181 232Q201 179 237.5 140.5Q274 102 325 80.5Q376 59 437 59ZM437 720Q516 720 584.5 692.5Q653 665 703.5 615.5Q754 566 783 497.5Q812 429 812 348Q812 266 783 198Q754 130 703.5 80.5Q653 31 584.5 3.5Q516 -24 437 -24Q358 -24 289.5 3.5Q221 31 170.5 80.5Q120 130 91 198Q62 266 62 348Q62 429 91 497.5Q120 566 170.5 615.5Q221 665 289.5 692.5Q358 720 437 720ZM444 563Q479 563 512 551Q545 539 572 517Q599 495 619 463.5Q639 432 648 392L523 387Q515 418 493.5 436Q472 454 444 454Q399 454 373 424.5Q347 395 347 350Q347 304 373 274Q399 244 444 244Q472 244 493.5 262Q515 280 523 311L648 306Q639 267 619 235Q599 203 572 181Q545 159 512 147Q479 135 444 135Q399 135 359.5 151Q320 167 290 195.5Q260 224 243 263.5Q226 303 226 350Q226 396 242.5 435.5Q259 475 288.5 503Q318 531 357.5 547Q397 563 444 563Z" glyph-name="copyright" horiz-adv-x="833" unicode="&#169;" /><glyph d="M500 169Q488 122 463.5 88Q439 54 407 32Q375 10 336 -1Q297 -12 257 -12Q209 -12 167 4.5Q125 21 93.5 51Q62 81 43.5 123.5Q25 166 25 218Q25 271 42 316Q59 361 89 394.5Q119 428 159.5 449Q200 470 248 475Q234 496 229.5 520.5Q225 545 230 569Q233 588 244.5 609.5Q256 631 277.5 649Q299 667 332.5 679Q366 691 413 691H845L805 465H897L873 328H782L754 167Q751 147 763 141.5Q775 136 789 136Q800 136 810.5 136Q821 136 829 137Q839 138 847 139L822 0Q801 -2 781 -3Q764 -5 744.5 -5.5Q725 -6 711 -6Q684 -6 659 1Q634 8 616.5 23.5Q599 39 591.5 64Q584 89 590 125L625 328H557L581 465H649L666 563H443Q361 563 352 508Q350 498 351.5 487Q353 476 357 465Q417 446 456.5 401Q496 356 507 290L357 259Q353 294 331.5 315.5Q310 337 277 337Q238 337 209.5 305.5Q181 274 181 221Q181 182 203 155Q225 128 262 128Q293 128 317.5 146Q342 164 350 200Z" glyph-name="ct" horiz-adv-x="893" unicode="&#62211;" /><glyph d="M588 333Q595 373 588 410Q581 447 561.5 475.5Q542 504 511 522.5Q480 541 440 544Q399 548 362.5 535.5Q326 523 297.5 498.5Q269 474 249.5 439.5Q230 405 223 365Q216 325 223 288.5Q230 252 249.5 223.5Q269 195 300 176.5Q331 158 372 155Q412 151 448.5 163.5Q485 176 513.5 200Q542 224 561.5 258.5Q581 293 588 333ZM100 376Q108 422 130 466.5Q152 511 184 546L106 642L207 722L283 625Q324 646 369 656Q414 666 460 662Q506 657 547 640Q588 623 620 595L727 676L797 582L688 501Q708 461 713.5 414.5Q719 368 711 322Q703 276 681 232Q659 188 627 153L705 56L604 -24L528 74Q487 52 442 42Q397 32 351 36Q305 41 264 58.5Q223 76 191 104L84 22L15 116L123 198Q103 237 97.5 283.5Q92 330 100 376Z" glyph-name="currency" horiz-adv-x="772" unicode="&#164;" /><glyph d="M214 -12Q173 -12 138.5 4Q104 20 78.5 49.5Q53 79 38.5 119Q24 159 24 207Q24 268 43 318Q62 368 94.5 403.5Q127 439 170 458Q213 477 261 477Q295 477 320.5 467.5Q346 458 363.5 444.5Q381 431 391 416.5Q401 402 405 392Q404 402 405 414Q406 425 407 439.5Q408 454 412 473L452 700H608L487 0H329L340 56Q335 45 324 33.5Q313 22 297 11.5Q281 1 260 -5.5Q239 -12 214 -12ZM265 128Q284 128 302.5 136.5Q321 145 334.5 160Q348 175 356.5 196.5Q365 218 365 244Q365 283 342 310Q319 337 282 337Q262 337 244 328.5Q226 320 212 305Q198 290 189.5 268.5Q181 247 181 221Q181 182 204.5 155Q228 128 265 128Z" glyph-name="d" horiz-adv-x="577" unicode="d" /><glyph d="M89 535H234L263 700H419L390 535H535L509 388H364L296 0H140L208 388H63Z" glyph-name="dagger" horiz-adv-x="520" unicode="&#8224;" /><glyph d="M53 325H198L209 388H64L90 535H235L264 700H420L391 535H536L510 388H365L354 325H499L473 178H328L297 0H141L172 178H27Z" glyph-name="daggerdbl" horiz-adv-x="520" unicode="&#8225;" /><glyph d="M638 629Q638 645 644 660Q650 675 661.5 686.5Q673 698 688 705Q703 712 721 712Q740 712 756 705Q772 698 783.5 686Q795 674 801.5 658.5Q808 643 808 627Q808 613 802 597Q796 581 785 568L694 450L608 468L660 572Q638 596 638 629ZM214 -12Q173 -12 138.5 4Q104 20 78.5 49.5Q53 79 38.5 119Q24 159 24 207Q24 268 43 318Q62 368 94.5 403.5Q127 439 170 458Q213 477 261 477Q295 477 320.5 467.5Q346 458 363.5 444.5Q381 431 391 416.5Q401 402 405 392Q404 402 405 414Q406 425 407 439.5Q408 454 412 473L452 700H608L487 0H329L340 56Q335 45 324 33.5Q313 22 297 11.5Q281 1 260 -5.5Q239 -12 214 -12ZM265 128Q284 128 302.5 136.5Q321 145 334.5 160Q348 175 356.5 196.5Q365 218 365 244Q365 283 342 310Q319 337 282 337Q262 337 244 328.5Q226 320 212 305Q198 290 189.5 268.5Q181 247 181 221Q181 182 204.5 155Q228 128 265 128Z" glyph-name="dcaron" horiz-adv-x="660" unicode="&#271;" /><glyph d="M265 128Q284 128 302.5 136.5Q321 145 334.5 160Q348 175 356.5 196.5Q365 218 365 244Q365 283 342 310Q319 337 282 337Q262 337 244 328.5Q226 320 212 305Q198 290 189.5 268.5Q181 247 181 221Q181 182 204.5 155Q228 128 265 128ZM320 641H441L452 700H608L598 641H658L639 529H578L487 0H329L340 56Q335 45 324 33.5Q313 22 297 11.5Q281 1 260 -5.5Q239 -12 214 -12Q173 -12 138.5 4Q104 20 78.5 49.5Q53 79 38.5 119Q24 159 24 207Q24 268 43 318Q62 368 94.5 403.5Q127 439 170 458Q213 477 261 477Q295 477 320.5 467.5Q346 458 363.5 444.5Q381 431 391 416.5Q401 402 405 392Q404 402 405 414Q406 425 407 439.5Q408 454 412 473L422 529H301Z" glyph-name="dcroat" horiz-adv-x="577" unicode="&#273;" /><glyph d="M190 538Q190 507 210.5 485Q231 463 260 463Q289 463 309.5 485Q330 507 330 538Q330 568 309.5 590.5Q289 613 260 613Q231 613 210.5 590.5Q190 568 190 538ZM86 538Q86 574 99.5 605.5Q113 637 137 661Q161 685 192.5 698.5Q224 712 260 712Q296 712 327.5 698.5Q359 685 383 661Q407 637 420.5 605.5Q434 574 434 538Q434 502 420.5 470.5Q407 439 383 415Q359 391 327.5 377.5Q296 364 260 364Q224 364 192.5 377.5Q161 391 137 415Q113 439 99.5 470.5Q86 502 86 538Z" glyph-name="degree" horiz-adv-x="416" unicode="&#176;" /><glyph d="M283 594Q283 612 290 628.5Q297 645 309.5 657.5Q322 670 338.5 677.5Q355 685 373 685Q391 685 407.5 677.5Q424 670 436.5 657.5Q449 645 456.5 628.5Q464 612 464 594Q464 576 456.5 560Q449 544 436.5 531.5Q424 519 407.5 512Q391 505 373 505Q355 505 338.5 512Q322 519 309.5 531.5Q297 544 290 560Q283 576 283 594ZM75 594Q75 612 82 628.5Q89 645 101.5 657.5Q114 670 130.5 677.5Q147 685 166 685Q184 685 200.5 677.5Q217 670 229.5 657.5Q242 645 249.5 628.5Q257 612 257 594Q257 576 249.5 560Q242 544 229.5 531.5Q217 519 200.5 512Q184 505 166 505Q147 505 130.5 512Q114 519 101.5 531.5Q89 544 82 560Q75 576 75 594Z" glyph-name="dieresis" horiz-adv-x="439" unicode="&#168;" /><glyph d="M236 681Q236 712 259.5 735Q283 758 314 758Q329 758 343 751.5Q357 745 367.5 734.5Q378 724 384.5 710Q391 696 391 681Q391 666 384.5 652.5Q378 639 367.5 628.5Q357 618 343 612Q329 606 314 606Q299 606 284.5 612Q270 618 259.5 628.5Q249 639 242.5 652.5Q236 666 236 681ZM61 681Q61 696 67.5 710Q74 724 85 734.5Q96 745 110 751.5Q124 758 139 758Q154 758 168 751.5Q182 745 192.5 734.5Q203 724 209.5 710Q216 696 216 681Q216 666 209.5 652.5Q203 639 192.5 628.5Q182 618 168 612Q154 606 139 606Q124 606 110 612Q96 618 85 628.5Q74 639 67.5 652.5Q61 666 61 681Z" glyph-name="dieresis.smcp" horiz-adv-x="375" unicode="&#63400;" /><glyph d="M72 430H518L492 283H46ZM216 551Q216 572 224 590.5Q232 609 245.5 622.5Q259 636 277 644Q295 652 316 652Q337 652 355.5 644Q374 636 387.5 622.5Q401 609 409 590.5Q417 572 417 551Q417 530 408.5 512Q400 494 386.5 480.5Q373 467 354.5 459Q336 451 315 451Q294 451 276 459Q258 467 244.5 480.5Q231 494 223.5 512Q216 530 216 551ZM147 162Q147 183 155 201Q163 219 176.5 232.5Q190 246 208 254Q226 262 247 262Q268 262 286.5 254Q305 246 318.5 232.5Q332 219 340 201Q348 183 348 162Q348 141 339.5 122.5Q331 104 317.5 90.5Q304 77 285.5 69.5Q267 62 246 62Q225 62 207 69.5Q189 77 175.5 90.5Q162 104 154.5 122.5Q147 141 147 162Z" glyph-name="divide" horiz-adv-x="520" unicode="&#247;" /><glyph d="M264 363Q246 363 229.5 370Q213 377 201 389Q189 401 182.5 417.5Q176 434 176 452Q176 490 202.5 516.5Q229 543 266 543Q285 543 301.5 536Q318 529 330.5 516.5Q343 504 350 487.5Q357 471 357 452Q357 434 349.5 417.5Q342 401 329.5 389Q317 377 300 370Q283 363 264 363ZM71 354H427L403 216H47ZM205 29Q187 29 170.5 35.5Q154 42 142 54Q130 66 123.5 82.5Q117 99 117 118Q117 156 143.5 181.5Q170 207 207 207Q245 207 271 181.5Q297 156 297 118Q296 80 269.5 54.5Q243 29 205 29Z" glyph-name="divide.smcp" horiz-adv-x="456" unicode="&#62003;" /><glyph d="M278 510Q278 497 284.5 485Q291 473 317 457L349 564Q312 564 295 546Q278 528 278 510ZM371 197Q371 229 336 254L300 135Q332 137 351.5 155Q371 173 371 197ZM497 485Q462 528 422 546L384 418L403 407Q442 384 470 362.5Q498 341 516 317.5Q534 294 542.5 266Q551 238 551 202Q551 165 535.5 127Q520 89 489 58Q458 27 410.5 7.5Q363 -12 299 -12Q278 -12 257 -9L233 -93H154L183 6Q151 16 124 30.5Q97 45 75.5 60.5Q54 76 38.5 91.5Q23 107 13 119L115 233Q134 211 162.5 187.5Q191 164 226 149L269 294L223 320Q160 355 130.5 402.5Q101 450 101 500Q101 547 119 586Q137 625 169.5 653Q202 681 246.5 696.5Q291 712 345 712Q356 712 368 711Q380 710 392 708L413 780H492L465 689Q503 674 539 650.5Q575 627 603 593Z" glyph-name="dollar" horiz-adv-x="594" unicode="$" /><glyph d="M237 405Q237 400 239.5 392.5Q242 385 253 377L269 431Q254 429 245.5 421Q237 413 237 405ZM286 164Q286 174 280.5 181.5Q275 189 267 195L248 130Q265 132 275.5 140.5Q286 149 286 164ZM247 -8Q226 -8 207 -5L188 -70H119L143 12Q94 30 58.5 55.5Q23 81 9 97L95 207Q112 190 134.5 172Q157 154 183 143L208 228L171 248Q123 274 96.5 312Q70 350 70 392Q70 430 84.5 462.5Q99 495 126 519Q153 543 191 557Q229 571 276 571Q293 571 310 568L327 624H396L374 553Q407 541 437 522Q467 503 489 477L394 374Q379 389 363.5 399.5Q348 410 334 418L312 344L323 339Q360 319 385 300Q410 281 425.5 259.5Q441 238 448 214Q455 190 455 161Q455 137 443.5 107.5Q432 78 407 52.5Q382 27 342.5 9.5Q303 -8 247 -8Z" glyph-name="dollar.smcp" horiz-adv-x="502" unicode="&#63110;" /><glyph d="M186 703Q205 703 221.5 696Q238 689 250.5 676.5Q263 664 270 648Q277 632 277 614Q277 596 270 580Q263 564 250.5 551.5Q238 539 221.5 532Q205 525 186 525Q167 525 150.5 532Q134 539 121.5 551.5Q109 564 102 580Q95 596 95 614Q95 632 102 648Q109 664 121.5 676.5Q134 689 150.5 696Q167 703 186 703Z" glyph-name="dotaccent" horiz-adv-x="242" unicode="&#729;" /><glyph d="M149 681Q149 696 155.5 710Q162 724 172.5 734.5Q183 745 197 751.5Q211 758 226 758Q257 758 280 735Q303 712 303 681Q303 651 280 628.5Q257 606 226 606Q211 606 197 612Q183 618 172.5 628.5Q162 639 155.5 652.5Q149 666 149 681Z" glyph-name="dotaccent.smcp" horiz-adv-x="375" unicode="&#63223;" /><glyph d="M200 0H43L100 328H42L64 465H281Z" glyph-name="dotlessi" horiz-adv-x="290" unicode="&#305;" /><glyph d="M100 328H41L64 465H281L190 -57Q182 -100 165 -124Q148 -148 125.5 -159.5Q103 -171 77.5 -173.5Q52 -176 28 -176H-65L-42 -39H2Q22 -39 30.5 -33.5Q39 -28 41 -14Z" glyph-name="dotlessj" horiz-adv-x="290" unicode="&#567;" /><glyph d="M274 349Q248 349 224 333.5Q200 318 190 288H348Q346 314 325 331.5Q304 349 274 349ZM255 -12Q207 -12 165 4.5Q123 21 91.5 51Q60 81 41.5 123.5Q23 166 23 218Q23 275 44.5 323Q66 371 101 405Q136 439 182 458Q228 477 277 477Q316 477 355.5 464.5Q395 452 427.5 425Q460 398 482.5 356.5Q505 315 511 257Q514 225 511 188H184Q188 159 209.5 141.5Q231 124 260 124Q289 124 307 136Q325 148 336 168L495 139Q485 105 463 77.5Q441 50 410 30Q379 10 339.5 -1Q300 -12 255 -12Z" glyph-name="e" horiz-adv-x="532" unicode="e" /><glyph d="M283 700H488L362 523H213ZM274 349Q248 349 224 333.5Q200 318 190 288H348Q346 314 325 331.5Q304 349 274 349ZM255 -12Q207 -12 165 4.5Q123 21 91.5 51Q60 81 41.5 123.5Q23 166 23 218Q23 275 44.5 323Q66 371 101 405Q136 439 182 458Q228 477 277 477Q316 477 355.5 464.5Q395 452 427.5 425Q460 398 482.5 356.5Q505 315 511 257Q514 225 511 188H184Q188 159 209.5 141.5Q231 124 260 124Q289 124 307 136Q325 148 336 168L495 139Q485 105 463 77.5Q441 50 410 30Q379 10 339.5 -1Q300 -12 255 -12Z" glyph-name="eacute" horiz-adv-x="532" unicode="&#233;" /><glyph d="M365 700H487L481 658Q474 617 458 588.5Q442 560 419 542.5Q396 525 367 517.5Q338 510 305 510Q272 510 243 520.5Q214 531 193.5 551Q173 571 164 600Q155 629 161 667L168 700H291L285 659Q282 644 290 633Q298 622 316 622Q334 622 344 632Q354 642 357 657ZM274 349Q248 349 224 333.5Q200 318 190 288H348Q346 314 325 331.5Q304 349 274 349ZM255 -12Q207 -12 165 4.5Q123 21 91.5 51Q60 81 41.5 123.5Q23 166 23 218Q23 275 44.5 323Q66 371 101 405Q136 439 182 458Q228 477 277 477Q316 477 355.5 464.5Q395 452 427.5 425Q460 398 482.5 356.5Q505 315 511 257Q514 225 511 188H184Q188 159 209.5 141.5Q231 124 260 124Q289 124 307 136Q325 148 336 168L495 139Q485 105 463 77.5Q441 50 410 30Q379 10 339.5 -1Q300 -12 255 -12Z" glyph-name="ebreve" horiz-adv-x="532" unicode="&#277;" /><glyph d="M375 523H202L131 700H284L304 642L346 700H516ZM274 349Q248 349 224 333.5Q200 318 190 288H348Q346 314 325 331.5Q304 349 274 349ZM255 -12Q207 -12 165 4.5Q123 21 91.5 51Q60 81 41.5 123.5Q23 166 23 218Q23 275 44.5 323Q66 371 101 405Q136 439 182 458Q228 477 277 477Q316 477 355.5 464.5Q395 452 427.5 425Q460 398 482.5 356.5Q505 315 511 257Q514 225 511 188H184Q188 159 209.5 141.5Q231 124 260 124Q289 124 307 136Q325 148 336 168L495 139Q485 105 463 77.5Q441 50 410 30Q379 10 339.5 -1Q300 -12 255 -12Z" glyph-name="ecaron" horiz-adv-x="532" unicode="&#283;" /><glyph d="M225 700H398L476 523H321L298 581L263 523H91ZM274 349Q248 349 224 333.5Q200 318 190 288H348Q346 314 325 331.5Q304 349 274 349ZM255 -12Q207 -12 165 4.5Q123 21 91.5 51Q60 81 41.5 123.5Q23 166 23 218Q23 275 44.5 323Q66 371 101 405Q136 439 182 458Q228 477 277 477Q316 477 355.5 464.5Q395 452 427.5 425Q460 398 482.5 356.5Q505 315 511 257Q514 225 511 188H184Q188 159 209.5 141.5Q231 124 260 124Q289 124 307 136Q325 148 336 168L495 139Q485 105 463 77.5Q441 50 410 30Q379 10 339.5 -1Q300 -12 255 -12Z" glyph-name="ecircumflex" horiz-adv-x="532" unicode="&#234;" /><glyph d="M306 594Q306 612 313 628.5Q320 645 332.5 657.5Q345 670 361.5 677.5Q378 685 396 685Q414 685 430.5 677.5Q447 670 459.5 657.5Q472 645 479.5 628.5Q487 612 487 594Q487 576 479.5 560Q472 544 459.5 531.5Q447 519 430.5 512Q414 505 396 505Q378 505 361.5 512Q345 519 332.5 531.5Q320 544 313 560Q306 576 306 594ZM98 594Q98 612 105 628.5Q112 645 124.5 657.5Q137 670 153.5 677.5Q170 685 189 685Q207 685 223.5 677.5Q240 670 252.5 657.5Q265 645 272.5 628.5Q280 612 280 594Q280 576 272.5 560Q265 544 252.5 531.5Q240 519 223.5 512Q207 505 189 505Q170 505 153.5 512Q137 519 124.5 531.5Q112 544 105 560Q98 576 98 594ZM274 349Q248 349 224 333.5Q200 318 190 288H348Q346 314 325 331.5Q304 349 274 349ZM255 -12Q207 -12 165 4.5Q123 21 91.5 51Q60 81 41.5 123.5Q23 166 23 218Q23 275 44.5 323Q66 371 101 405Q136 439 182 458Q228 477 277 477Q316 477 355.5 464.5Q395 452 427.5 425Q460 398 482.5 356.5Q505 315 511 257Q514 225 511 188H184Q188 159 209.5 141.5Q231 124 260 124Q289 124 307 136Q325 148 336 168L495 139Q485 105 463 77.5Q441 50 410 30Q379 10 339.5 -1Q300 -12 255 -12Z" glyph-name="edieresis" horiz-adv-x="532" unicode="&#235;" /><glyph d="M306 703Q325 703 341.5 696Q358 689 370.5 676.5Q383 664 390 648Q397 632 397 614Q397 596 390 580Q383 564 370.5 551.5Q358 539 341.5 532Q325 525 306 525Q287 525 270.5 532Q254 539 241.5 551.5Q229 564 222 580Q215 596 215 614Q215 632 222 648Q229 664 241.5 676.5Q254 689 270.5 696Q287 703 306 703ZM274 349Q248 349 224 333.5Q200 318 190 288H348Q346 314 325 331.5Q304 349 274 349ZM255 -12Q207 -12 165 4.5Q123 21 91.5 51Q60 81 41.5 123.5Q23 166 23 218Q23 275 44.5 323Q66 371 101 405Q136 439 182 458Q228 477 277 477Q316 477 355.5 464.5Q395 452 427.5 425Q460 398 482.5 356.5Q505 315 511 257Q514 225 511 188H184Q188 159 209.5 141.5Q231 124 260 124Q289 124 307 136Q325 148 336 168L495 139Q485 105 463 77.5Q441 50 410 30Q379 10 339.5 -1Q300 -12 255 -12Z" glyph-name="edotaccent" horiz-adv-x="532" unicode="&#279;" /><glyph d="M346 523H197L91 700H295ZM274 349Q248 349 224 333.5Q200 318 190 288H348Q346 314 325 331.5Q304 349 274 349ZM255 -12Q207 -12 165 4.5Q123 21 91.5 51Q60 81 41.5 123.5Q23 166 23 218Q23 275 44.5 323Q66 371 101 405Q136 439 182 458Q228 477 277 477Q316 477 355.5 464.5Q395 452 427.5 425Q460 398 482.5 356.5Q505 315 511 257Q514 225 511 188H184Q188 159 209.5 141.5Q231 124 260 124Q289 124 307 136Q325 148 336 168L495 139Q485 105 463 77.5Q441 50 410 30Q379 10 339.5 -1Q300 -12 255 -12Z" glyph-name="egrave" horiz-adv-x="532" unicode="&#232;" /><glyph d="M329 570Q294 570 272.5 545.5Q251 521 251 487Q251 461 267.5 441Q284 421 320 421Q356 421 377.5 445.5Q399 470 399 503Q399 530 382.5 550Q366 570 329 570ZM275 128Q314 128 339 152Q364 176 364 213Q364 242 343 263Q322 284 280 284Q240 284 216.5 260Q193 236 193 202Q193 173 213 150.5Q233 128 275 128ZM274 -12Q227 -12 182.5 -0.5Q138 11 103.5 35.5Q69 60 47.5 97.5Q26 135 26 187Q26 219 35.5 249Q45 279 63 303.5Q81 328 107 347Q133 366 167 376Q128 397 109.5 433Q91 469 91 509Q91 552 109 589Q127 626 158.5 653.5Q190 681 233.5 696.5Q277 712 328 712Q383 712 426 697.5Q469 683 499 657.5Q529 632 545 598Q561 564 561 526Q561 473 530 424Q499 375 436 352Q480 330 501.5 290.5Q523 251 523 205Q523 154 503.5 113.5Q484 73 450 45.5Q416 18 371 3Q326 -12 274 -12Z" glyph-name="eight" horiz-adv-x="560" unicode="8" /><glyph d="M334 570Q299 570 277.5 545.5Q256 521 256 487Q256 461 272.5 441Q289 421 325 421Q361 421 382.5 445.5Q404 470 404 503Q404 530 387.5 550Q371 570 334 570ZM280 128Q319 128 344 152Q369 176 369 213Q369 242 348 263Q327 284 285 284Q245 284 221.5 260Q198 236 198 202Q198 173 218 150.5Q238 128 280 128ZM279 -12Q232 -12 187.5 -0.5Q143 11 108.5 35.5Q74 60 52.5 97.5Q31 135 31 187Q31 219 40.5 249Q50 279 68 303.5Q86 328 112 347Q138 366 172 376Q133 397 114.5 433Q96 469 96 509Q96 552 114 589Q132 626 163.5 653.5Q195 681 238.5 696.5Q282 712 333 712Q388 712 431 697.5Q474 683 504 657.5Q534 632 550 598Q566 564 566 526Q566 473 535 424Q504 375 441 352Q485 330 506.5 290.5Q528 251 528 205Q528 154 508.5 113.5Q489 73 455 45.5Q421 18 376 3Q331 -12 279 -12Z" glyph-name="eight.alt" horiz-adv-x="569" unicode="&#62032;" /><glyph d="M318 531Q285 531 264.5 508.5Q244 486 244 454Q244 429 259.5 410.5Q275 392 310 392Q344 392 364.5 415Q385 438 385 469Q385 494 369 512.5Q353 531 318 531ZM267 119Q304 119 328 141Q352 163 352 198Q352 225 331.5 244.5Q311 264 272 264Q234 264 211.5 242Q189 220 189 188Q189 161 208.5 140Q228 119 267 119ZM266 -12Q222 -12 179.5 -1Q137 10 104 32.5Q71 55 50.5 90.5Q30 126 30 174Q30 234 65 282.5Q100 331 164 350Q127 370 109.5 403.5Q92 437 92 474Q92 514 109 549Q126 584 156 609.5Q186 635 227.5 649.5Q269 664 317 664Q369 664 410.5 650Q452 636 480.5 612.5Q509 589 524 557.5Q539 526 539 490Q539 466 531.5 441.5Q524 417 509.5 395Q495 373 472.5 355.5Q450 338 420 328Q462 308 482.5 270.5Q503 233 503 190Q503 142 484.5 104.5Q466 67 433.5 41Q401 15 358 1.5Q315 -12 266 -12Z" glyph-name="eight.posf" horiz-adv-x="548" unicode="&#62048;" /><glyph d="M189 67Q208 67 219 78.5Q230 90 230 109Q230 123 221.5 133.5Q213 144 193 144Q173 144 162 132Q151 120 151 102Q151 87 160 77Q169 67 189 67ZM161 -112Q184 -112 195.5 -98Q207 -84 207 -66Q207 -51 198 -39.5Q189 -28 166 -28Q144 -28 132 -41.5Q120 -55 120 -74Q120 -88 129.5 -100Q139 -112 161 -112ZM157 -211Q118 -211 88.5 -199.5Q59 -188 39.5 -169Q20 -150 10 -126.5Q0 -103 0 -79Q0 -35 25.5 -5.5Q51 24 89 38Q66 51 53.5 74.5Q41 98 41 122Q41 149 52 171.5Q63 194 83.5 210Q104 226 132 235Q160 244 193 244Q230 244 258.5 234Q287 224 306 208Q325 192 334.5 170.5Q344 149 344 127Q344 111 340 94.5Q336 78 326.5 63.5Q317 49 302 37Q287 25 266 19Q294 4 308.5 -21Q323 -46 323 -75Q323 -105 309.5 -130Q296 -155 273.5 -173Q251 -191 221 -201Q191 -211 157 -211Z" glyph-name="eight.sinf" horiz-adv-x="430" unicode="&#62080;" /><glyph d="M274 344Q296 344 310.5 358.5Q325 373 325 394Q325 411 314.5 424Q304 437 281 437Q260 437 245.5 422Q231 407 231 386Q231 369 241 356.5Q251 344 274 344ZM243 120Q268 120 284.5 133Q301 146 301 172Q301 191 286 203Q271 215 244 215Q217 215 202.5 201.5Q188 188 188 168Q188 150 202 135Q216 120 243 120ZM240 -10Q204 -10 166.5 -1.5Q129 7 99 26.5Q69 46 50 77Q31 108 31 153Q31 205 59 245Q87 285 144 302Q111 319 96.5 347.5Q82 376 82 408Q82 442 97 471.5Q112 501 138 523Q164 545 200.5 557.5Q237 570 280 570Q329 570 365.5 557Q402 544 426.5 522.5Q451 501 463.5 474Q476 447 476 419Q476 399 470.5 378.5Q465 358 453 339.5Q441 321 422 306Q403 291 376 282Q413 264 429 233Q445 202 445 165Q445 124 429.5 91.5Q414 59 386.5 36.5Q359 14 321.5 2Q284 -10 240 -10Z" glyph-name="eight.smcp" horiz-adv-x="500" unicode="&#58881;" /><glyph d="M295 666Q314 666 325 677.5Q336 689 336 708Q336 722 327.5 732.5Q319 743 299 743Q279 743 268 731Q257 719 257 701Q257 686 266 676Q275 666 295 666ZM267 487Q290 487 301.5 501Q313 515 313 533Q313 548 304 559.5Q295 571 272 571Q250 571 238 557.5Q226 544 226 525Q226 511 235.5 499Q245 487 267 487ZM263 388Q224 388 194.5 399.5Q165 411 145.5 430Q126 449 116 472.5Q106 496 106 520Q106 564 131.5 593.5Q157 623 195 637Q172 650 159.5 673.5Q147 697 147 721Q147 748 158 770.5Q169 793 189.5 809Q210 825 238 834Q266 843 299 843Q336 843 364.5 833Q393 823 412 807Q431 791 440.5 769.5Q450 748 450 726Q450 710 446 693.5Q442 677 432.5 662.5Q423 648 408 636Q393 624 372 618Q400 603 414.5 578Q429 553 429 524Q429 494 415.5 469Q402 444 379.5 426Q357 408 327 398Q297 388 263 388Z" glyph-name="eight.sups" horiz-adv-x="430" unicode="&#62064;" /><glyph d="M226 278Q245 278 256 289.5Q267 301 267 320Q267 334 258.5 344.5Q250 355 230 355Q210 355 199 343Q188 331 188 313Q188 298 197 288Q206 278 226 278ZM198 99Q221 99 232.5 113Q244 127 244 145Q244 160 235 171.5Q226 183 203 183Q181 183 169 169.5Q157 156 157 137Q157 123 166.5 111Q176 99 198 99ZM194 0Q155 0 125.5 11.5Q96 23 76.5 42Q57 61 47 84.5Q37 108 37 132Q37 176 62.5 205.5Q88 235 126 249Q103 262 90.5 285.5Q78 309 78 333Q78 360 89 382.5Q100 405 120.5 421Q141 437 169 446Q197 455 230 455Q267 455 295.5 445Q324 435 343 419Q362 403 371.5 381.5Q381 360 381 338Q381 322 377 305.5Q373 289 363.5 274.5Q354 260 339 248Q324 236 303 230Q331 215 345.5 190Q360 165 360 136Q360 106 346.5 81Q333 56 310.5 38Q288 20 258 10Q228 0 194 0Z" glyph-name="eightinferior" horiz-adv-x="430" unicode="&#8328;" /><glyph d="M880 344Q860 344 845 327.5Q830 311 830 290Q830 272 840.5 258.5Q851 245 871 245Q891 245 906 261.5Q921 278 921 299Q921 317 910.5 330.5Q900 344 880 344ZM877 448Q911 448 941.5 437.5Q972 427 995.5 407Q1019 387 1032.5 356.5Q1046 326 1046 287Q1046 239 1027 195Q1008 151 979.5 114Q951 77 917.5 48Q884 19 854 0H689Q692 3 714.5 22Q737 41 766.5 66.5Q796 92 826.5 118.5Q857 145 875 161L872 163Q869 161 856.5 157.5Q844 154 828 154Q776 154 740.5 189Q705 224 705 282Q705 319 718.5 349.5Q732 380 755.5 402Q779 424 810.5 436Q842 448 877 448ZM1002 686 203 -37 155 18 954 741ZM261 530Q280 530 291 541.5Q302 553 302 572Q302 586 293.5 596.5Q285 607 265 607Q245 607 234 595Q223 583 223 565Q223 550 232 540Q241 530 261 530ZM233 351Q256 351 267.5 365Q279 379 279 397Q279 412 270 423.5Q261 435 238 435Q216 435 204 421.5Q192 408 192 389Q192 375 201.5 363Q211 351 233 351ZM229 252Q190 252 160.5 263.5Q131 275 111.5 294Q92 313 82 336.5Q72 360 72 384Q72 428 97.5 457.5Q123 487 161 501Q138 514 125.5 537.5Q113 561 113 585Q113 612 124 634.5Q135 657 155.5 673Q176 689 204 698Q232 707 265 707Q302 707 330.5 697Q359 687 378 671Q397 655 406.5 633.5Q416 612 416 590Q416 574 412 557.5Q408 541 398.5 526.5Q389 512 374 500Q359 488 338 482Q366 467 380.5 442Q395 417 395 388Q395 358 381.5 333Q368 308 345.5 290Q323 272 293 262Q263 252 229 252Z" glyph-name="eightninths" horiz-adv-x="1080" unicode="&#62105;" /><glyph d="M271 530Q290 530 301 541.5Q312 553 312 572Q312 586 303.5 596.5Q295 607 275 607Q255 607 244 595Q233 583 233 565Q233 550 242 540Q251 530 271 530ZM243 351Q266 351 277.5 365Q289 379 289 397Q289 412 280 423.5Q271 435 248 435Q226 435 214 421.5Q202 408 202 389Q202 375 211.5 363Q221 351 243 351ZM239 252Q200 252 170.5 263.5Q141 275 121.5 294Q102 313 92 336.5Q82 360 82 384Q82 428 107.5 457.5Q133 487 171 501Q148 514 135.5 537.5Q123 561 123 585Q123 612 134 634.5Q145 657 165.5 673Q186 689 214 698Q242 707 275 707Q312 707 340.5 697Q369 687 388 671Q407 655 416.5 633.5Q426 612 426 590Q426 574 422 557.5Q418 541 408.5 526.5Q399 512 384 500Q369 488 348 482Q376 467 390.5 442Q405 417 405 388Q405 358 391.5 333Q378 308 355.5 290Q333 272 303 262Q273 252 239 252Z" glyph-name="eightsuperior" horiz-adv-x="430" unicode="&#8312;" /><glyph d="M735 88Q735 109 742.5 127.5Q750 146 763.5 159.5Q777 173 795 181Q813 189 834 189Q855 189 873.5 181Q892 173 905.5 159.5Q919 146 927 127.5Q935 109 935 88Q935 67 927 49Q919 31 905.5 17.5Q892 4 873.5 -4Q855 -12 834 -12Q792 -12 763.5 17Q735 46 735 88ZM376 88Q376 109 384 127.5Q392 146 405.5 159.5Q419 173 437 181Q455 189 476 189Q497 189 515.5 181Q534 173 547.5 159.5Q561 146 569 127.5Q577 109 577 88Q577 67 569 49Q561 31 547.5 17.5Q534 4 515.5 -4Q497 -12 476 -12Q434 -12 405 17Q376 46 376 88ZM18 88Q18 109 25.5 127.5Q33 146 46.5 159.5Q60 173 78 181Q96 189 117 189Q138 189 156.5 181Q175 173 188.5 159.5Q202 146 210 127.5Q218 109 218 88Q218 67 210 49Q202 31 188.5 17.5Q175 4 156.5 -4Q138 -12 117 -12Q75 -12 46.5 17Q18 46 18 88Z" glyph-name="ellipsis" horiz-adv-x="999" unicode="&#8230;" /><glyph d="M159 663H500L476 525H135ZM274 349Q248 349 224 333.5Q200 318 190 288H348Q346 314 325 331.5Q304 349 274 349ZM255 -12Q207 -12 165 4.5Q123 21 91.5 51Q60 81 41.5 123.5Q23 166 23 218Q23 275 44.5 323Q66 371 101 405Q136 439 182 458Q228 477 277 477Q316 477 355.5 464.5Q395 452 427.5 425Q460 398 482.5 356.5Q505 315 511 257Q514 225 511 188H184Q188 159 209.5 141.5Q231 124 260 124Q289 124 307 136Q325 148 336 168L495 139Q485 105 463 77.5Q441 50 410 30Q379 10 339.5 -1Q300 -12 255 -12Z" glyph-name="emacron" horiz-adv-x="532" unicode="&#275;" /><glyph d="M38 342H909L886 205H15Z" glyph-name="emdash" horiz-adv-x="913" unicode="&#8212;" /><glyph d="M74 431H994L967 283H48Z" glyph-name="emdash.alt" horiz-adv-x="1000" unicode="&#62217;" /><glyph d="M39 342H496L472 205H15Z" glyph-name="endash" horiz-adv-x="500" unicode="&#8211;" /><glyph d="M74 431H494L467 283H48Z" glyph-name="endash.alt" horiz-adv-x="500" unicode="&#62216;" /><glyph d="M346 256Q353 295 338 313.5Q323 332 299 332Q287 332 274.5 327Q262 322 251 315.5Q240 309 231 301Q222 293 216 287L166 0H9L90 465H244Q239 436 235.5 425.5Q232 415 231 413Q261 445 299 461Q337 477 373 477Q409 477 438 464.5Q467 452 485.5 428.5Q504 405 511 371Q518 337 511 295L452 -57Q444 -100 426.5 -124Q409 -148 385.5 -159.5Q362 -171 336.5 -173.5Q311 -176 287 -176H194L217 -39H260Q280 -39 288.5 -33.5Q297 -28 299 -14Z" glyph-name="eng" horiz-adv-x="545" unicode="&#331;" /><glyph d="M275 349Q249 349 225 333.5Q201 318 191 288H349Q347 314 326 331.5Q305 349 275 349ZM496 139Q478 79 426 40Q374 1 299 -9Q276 -26 268 -41.5Q260 -57 260 -68Q260 -84 272.5 -90.5Q285 -97 299 -97Q319 -97 340 -91.5Q361 -86 371 -84L348 -175Q320 -186 290.5 -194.5Q261 -203 222 -203Q170 -203 134.5 -177.5Q99 -152 99 -107Q99 -74 121.5 -47Q144 -20 191 -4Q155 5 124.5 25Q94 45 71.5 73.5Q49 102 36.5 138.5Q24 175 24 218Q24 275 45.5 323Q67 371 102 405Q137 439 183 458Q229 477 278 477Q317 477 356.5 464.5Q396 452 428.5 425Q461 398 483.5 356.5Q506 315 512 257Q515 225 512 188H185Q189 159 210.5 141.5Q232 124 261 124Q290 124 308 136Q326 148 337 168Z" glyph-name="eogonek" horiz-adv-x="534" unicode="&#281;" /><glyph d="M53 325H499L473 178H27ZM90 535H536L510 388H64Z" glyph-name="equal" horiz-adv-x="520" unicode="=" /><glyph d="M86 442H442L418 304H61ZM56 266H412L387 129H31Z" glyph-name="equal.smcp" horiz-adv-x="456" unicode="&#62999;" /><glyph d="M698 375Q707 375 707 384V552Q707 585 680.5 609.5Q654 634 616 650Q578 666 535 674Q492 682 459 682Q429 682 386.5 674Q344 666 305.5 650Q267 634 239.5 609.5Q212 585 212 552V384Q212 375 221 375ZM212 160Q212 128 239 102Q266 76 304.5 58Q343 40 385.5 30Q428 20 459 20Q537 20 606.5 48Q676 76 724 131H771Q717 63 637 26Q557 -11 459 -11Q378 -11 306 17.5Q234 46 180.5 95.5Q127 145 95.5 211Q64 277 64 353Q64 427 95 492.5Q126 558 179 606.5Q232 655 304 683.5Q376 712 459 712Q550 712 623 683Q696 654 748 604.5Q800 555 828 487.5Q856 420 856 344H221Q212 344 212 332Z" glyph-name="estimated" horiz-adv-x="867" unicode="&#8494;" /><glyph d="M262 128Q281 128 299 136.5Q317 145 330.5 160Q344 175 352 196.5Q360 218 360 244Q360 283 338 310Q316 337 279 337Q259 337 241.5 328.5Q224 320 210.5 305Q197 290 189 268.5Q181 247 181 221Q181 182 203 155Q225 128 262 128ZM366 700Q372 692 379 683.5Q386 675 394 665L452 691L480 628L432 607Q451 575 469 538.5Q487 502 500.5 461.5Q514 421 522.5 378.5Q531 336 531 293Q531 241 516 187Q501 133 468.5 88.5Q436 44 386 16Q336 -12 266 -12Q213 -12 169 5Q125 22 93 53Q61 84 43 126.5Q25 169 25 219Q25 275 43 321.5Q61 368 92 401Q123 434 164 452.5Q205 471 250 471Q295 471 322 458Q349 445 361 430L365 435Q354 454 336 483.5Q318 513 296 547L240 522L213 586L257 605Q237 633 218.5 657.5Q200 682 184 700Z" glyph-name="eth" horiz-adv-x="552" unicode="&#240;" /><glyph d="M30 88Q30 109 38 127.5Q46 146 59.5 159.5Q73 173 91 181Q109 189 130 189Q151 189 169.5 181Q188 173 201.5 159.5Q215 146 223 127.5Q231 109 231 88Q231 67 223 49Q215 31 201.5 17.5Q188 4 169.5 -4Q151 -12 130 -12Q88 -12 59 17Q30 46 30 88ZM72 227 139 700H318L224 227Z" glyph-name="exclam" horiz-adv-x="297" unicode="!" /><glyph d="M114 560H284L208 193H64ZM117 -10Q99 -10 83 -3Q67 4 54.5 16.5Q42 29 35 45.5Q28 62 28 80Q28 99 35.5 115.5Q43 132 55 144.5Q67 157 83 164Q99 171 117 171Q136 171 152.5 164Q169 157 181.5 144.5Q194 132 201 115.5Q208 99 208 80Q208 62 201 45.5Q194 29 181.5 16.5Q169 4 152.5 -3Q136 -10 117 -10Z" glyph-name="exclam.smcp" horiz-adv-x="284" unicode="&#58434;" /><glyph d="M258 377Q258 356 250 337.5Q242 319 228.5 305.5Q215 292 197 284Q179 276 158 276Q137 276 118.5 284Q100 292 86.5 305.5Q73 319 65 337.5Q57 356 57 377Q57 398 65 416Q73 434 86.5 447.5Q100 461 118.5 469Q137 477 158 477Q200 477 229 448Q258 419 258 377ZM216 238 149 -235H-30L64 238Z" glyph-name="exclamdown" horiz-adv-x="277" unicode="&#161;" /><glyph d="M306 600Q306 579 298 560.5Q290 542 276.5 528.5Q263 515 245 507Q227 499 206 499Q185 499 166.5 507Q148 515 134.5 528.5Q121 542 113 560.5Q105 579 105 600Q105 621 113 639Q121 657 134.5 670.5Q148 684 166.5 692Q185 700 206 700Q248 700 277 671Q306 642 306 600ZM264 461 197 -12H18L112 461Z" glyph-name="exclamdown.alt" horiz-adv-x="296" unicode="&#62214;" /><glyph d="M188 0H18L94 367H238ZM185 570Q203 570 219 563Q235 556 247.5 543.5Q260 531 267 514.5Q274 498 274 480Q274 461 266.5 444.5Q259 428 247 415.5Q235 403 219 396Q203 389 185 389Q166 389 149.5 396Q133 403 120.5 415.5Q108 428 101 444.5Q94 461 94 480Q94 498 101 514.5Q108 531 120.5 543.5Q133 556 149.5 563Q166 570 185 570Z" glyph-name="exclamdown.smcp" horiz-adv-x="286" unicode="&#58435;" /><glyph d="M153 583Q164 653 203 682.5Q242 712 305 712Q318 712 337.5 711Q357 710 376 708Q398 706 422 705L397 557L373 559Q363 560 354.5 561Q346 562 341 562Q326 562 314.5 556.5Q303 551 300 531L289 465H374L351 328H265L208 0H52L108 328H39L62 465H132Z" glyph-name="f" horiz-adv-x="352" unicode="f" /><glyph d="M463 583Q474 653 513 682.5Q552 712 615 712Q628 712 647.5 711Q667 710 686 708Q708 706 732 705L707 557L683 559Q673 560 664.5 561Q656 562 651 562Q636 562 624.5 556.5Q613 551 610 531L599 465H684L661 328H575L518 0H362L418 328H264L207 0H51L107 328H38L61 465H131L152 583Q163 653 202 682.5Q241 712 304 712Q317 712 336.5 711Q356 710 375 708Q397 706 421 705L396 557L372 559Q362 560 353.5 561Q345 562 340 562Q325 562 313.5 556.5Q302 551 299 531L288 465H442Z" glyph-name="f_f" horiz-adv-x="662" unicode="&#64256;" /><glyph d="M774 583Q785 653 824 682.5Q863 712 926 712Q939 712 958.5 711Q978 710 997 708Q1019 706 1043 705L1018 557L994 559Q984 560 975.5 561Q967 562 962 562Q947 562 935.5 556.5Q924 551 921 531L910 465H995L972 328H886L829 0H673L729 328H575L518 0H362L418 328H264L207 0H51L107 328H38L61 465H131L152 583Q163 653 202 682.5Q241 712 304 712Q317 712 336.5 711Q356 710 375 708Q397 706 421 705L396 557L372 559Q362 560 353.5 561Q345 562 340 562Q325 562 313.5 556.5Q302 551 299 531L288 465H442L463 583Q474 653 513 682.5Q552 712 615 712Q628 712 647.5 711Q667 710 686 708Q708 706 732 705L707 557L683 559Q673 560 664.5 561Q656 562 651 562Q636 562 624.5 556.5Q613 551 610 531L599 465H753Z" glyph-name="f_f_f" horiz-adv-x="973" unicode="&#62210;" /><glyph d="M435 616Q435 656 463 684Q491 712 531 712Q571 712 599 684Q627 656 627 616Q627 576 599 548Q571 520 531 520Q491 520 463 548Q435 576 435 616ZM517 0H360L417 328H264L207 0H51L107 328H38L61 465H131L152 583Q163 653 202 682.5Q241 712 304 712Q317 712 336.5 711Q356 710 375 708Q397 706 421 705L396 557L372 559Q362 560 353.5 561Q345 562 340 562Q325 562 313.5 556.5Q302 551 299 531L288 465H598Z" glyph-name="f_i" horiz-adv-x="606" unicode="&#62209;" /><glyph d="M434 616Q434 656 462 684Q490 712 530 712Q570 712 598 684Q626 656 626 616Q626 576 598 548Q570 520 530 520Q490 520 462 548Q434 576 434 616ZM417 328H264L207 0H51L107 328H38L61 465H131L152 583Q163 653 202 682.5Q241 712 304 712Q317 712 336.5 711Q356 710 375 708Q397 706 421 705L396 557L372 559Q362 560 353.5 561Q345 562 340 562Q325 562 313.5 556.5Q302 551 299 531L288 465H598L507 -57Q499 -100 482 -124Q465 -148 442.5 -159.5Q420 -171 394.5 -173.5Q369 -176 345 -176H252L275 -39H319Q339 -39 347.5 -33.5Q356 -28 358 -14Z" glyph-name="f_j" horiz-adv-x="606" unicode="&#58247;" /><glyph d="M461 583Q472 653 511 682.5Q550 712 613 712Q626 712 645.5 711Q665 710 684 708Q706 706 730 705L705 557L681 559Q671 560 662.5 561Q654 562 649 562Q634 562 622.5 556.5Q611 551 608 531L597 465H682L659 328H573L516 0H360L416 328H264L207 0H51L107 328H38L61 465H131L152 583Q163 653 202 682.5Q241 712 304 712Q317 712 336.5 711Q356 710 375 708Q397 706 421 705L396 557L372 559Q362 560 353.5 561Q345 562 340 562Q325 562 313.5 556.5Q302 551 299 531L288 465H440Z" glyph-name="ff" horiz-adv-x="660" unicode="&#58249;" /><glyph d="M744 616Q744 656 772 684Q800 712 840 712Q880 712 908 684Q936 656 936 616Q936 576 908 548Q880 520 840 520Q800 520 772 548Q744 576 744 616ZM826 0H669L726 328H573L516 0H360L416 328H264L207 0H51L107 328H38L61 465H131L152 583Q163 653 202 682.5Q241 712 304 712Q317 712 336.5 711Q356 710 375 708Q397 706 421 705L396 557L372 559Q362 560 353.5 561Q345 562 340 562Q325 562 313.5 556.5Q302 551 299 531L288 465H440L461 583Q472 653 511 682.5Q550 712 613 712Q626 712 645.5 711Q665 710 684 708Q706 706 730 705L705 557L681 559Q671 560 662.5 561Q654 562 649 562Q634 562 622.5 556.5Q611 551 608 531L597 465H907Z" glyph-name="ffi" horiz-adv-x="915" unicode="&#64259;" /><glyph d="M825 0H669L725 328H573L516 0H360L416 328H264L207 0H51L107 328H38L61 465H131L152 583Q163 653 202 682.5Q241 712 304 712Q317 712 336.5 711Q356 710 375 708Q397 706 421 705L396 557L372 559Q362 560 353.5 561Q345 562 340 562Q325 562 313.5 556.5Q302 551 299 531L288 465H440L461 583Q472 653 511 682.5Q550 712 613 712Q626 712 645.5 711Q665 710 684 708Q706 706 730 705L705 557L681 559Q671 560 662.5 561Q654 562 649 562Q634 562 622.5 556.5Q611 551 608 531L597 465H748L788 700H946Z" glyph-name="ffl" horiz-adv-x="915" unicode="&#58251;" /><glyph d="M435 616Q435 656 463 684Q491 712 531 712Q571 712 599 684Q627 656 627 616Q627 576 599 548Q571 520 531 520Q491 520 463 548Q435 576 435 616ZM517 0H360L417 328H264L207 0H51L107 328H38L61 465H131L152 583Q163 653 202 682.5Q241 712 304 712Q317 712 336.5 711Q356 710 375 708Q397 706 421 705L396 557L372 559Q362 560 353.5 561Q345 562 340 562Q325 562 313.5 556.5Q302 551 299 531L288 465H598Z" glyph-name="fi" horiz-adv-x="606" unicode="&#64257;" /><glyph d="M213 235Q209 213 208.5 204Q208 195 208 189Q208 166 219.5 148.5Q231 131 264 131Q303 131 323.5 167Q344 203 344 255Q344 284 330 305.5Q316 327 281 327Q263 327 246 319Q229 311 218 300L83 333L151 700H567L538 547H270L252 448L255 447Q269 455 290 459Q311 463 328 463Q374 463 410 448Q446 433 470.5 406.5Q495 380 507.5 343Q520 306 520 262Q520 203 503 152.5Q486 102 454 65.5Q422 29 376.5 8.5Q331 -12 273 -12Q213 -12 168.5 2.5Q124 17 94.5 43.5Q65 70 50.5 106Q36 142 36 185Q36 195 36.5 206.5Q37 218 40 235Z" glyph-name="five" horiz-adv-x="560" unicode="5" /><glyph d="M202 235Q198 213 197.5 204Q197 195 197 189Q197 166 208.5 148.5Q220 131 253 131Q292 131 312.5 167Q333 203 333 255Q333 284 319 305.5Q305 327 270 327Q252 327 235 319Q218 311 207 300L72 333L140 700H556L527 547H259L241 448L244 447Q258 455 279 459Q300 463 317 463Q363 463 399 448Q435 433 459.5 406.5Q484 380 496.5 343Q509 306 509 262Q509 203 492 152.5Q475 102 443 65.5Q411 29 365.5 8.5Q320 -12 262 -12Q202 -12 157.5 2.5Q113 17 83.5 43.5Q54 70 39.5 106Q25 142 25 185Q25 195 25.5 206.5Q26 218 29 235Z" glyph-name="five.alt" horiz-adv-x="537" unicode="&#62023;" /><glyph d="M209 -42Q230 -42 246.5 -32Q263 -22 274.5 -5.5Q286 11 291.5 32Q297 53 297 75Q297 88 293.5 101.5Q290 115 281 126Q272 137 258 144Q244 151 223 151Q204 151 186 142.5Q168 134 159 126L30 147L92 497H488L462 358H211L190 250Q202 259 226 265.5Q250 272 270 272Q313 272 347.5 257.5Q382 243 405 218Q428 193 440.5 159.5Q453 126 453 89Q453 33 435 -14.5Q417 -62 384.5 -96.5Q352 -131 305.5 -150Q259 -169 202 -169Q146 -169 106 -154.5Q66 -140 40 -115Q14 -90 1.5 -56Q-11 -22 -11 17Q-11 29 -10 39.5Q-9 50 -7 59H151Q148 45 147 35Q146 25 146 20Q146 -4 159.5 -23Q173 -42 209 -42Z" glyph-name="five.posf" horiz-adv-x="503" unicode="&#62039;" /><glyph d="M157 -109Q177 -109 187 -90Q197 -71 197 -43Q197 -29 190.5 -18Q184 -7 166 -7Q144 -7 130 -21L33 3L77 237H356L335 133H165L154 81L156 80Q176 90 201 90Q261 90 293.5 54.5Q326 19 326 -38Q326 -69 315.5 -100Q305 -131 283.5 -155.5Q262 -180 229.5 -195.5Q197 -211 154 -211Q113 -211 84.5 -201.5Q56 -192 38.5 -174.5Q21 -157 13 -134Q5 -111 5 -84Q5 -79 5 -72Q5 -65 7 -54H134Q132 -68 131.5 -73Q131 -78 131 -81Q131 -91 135.5 -100Q140 -109 157 -109Z" glyph-name="five.sinf" horiz-adv-x="430" unicode="&#62071;" /><glyph d="M241 -10Q190 -10 152.5 2.5Q115 15 90.5 36.5Q66 58 54 88Q42 118 42 153Q42 161 42 169.5Q42 178 44 191H208Q205 174 204.5 168Q204 162 204 157Q204 146 208.5 135.5Q213 125 231 125Q255 125 265.5 148Q276 171 276 204Q276 220 269.5 233.5Q263 247 243 247Q231 247 219 241.5Q207 236 199 228L75 261L129 560H479L451 417H242L234 366L236 365Q246 370 261.5 372Q277 374 287 374Q361 374 402 329Q443 284 443 211Q443 164 429.5 123.5Q416 83 390.5 53.5Q365 24 327 7Q289 -10 241 -10Z" glyph-name="five.smcp" horiz-adv-x="500" unicode="&#58432;" /><glyph d="M260 490Q280 490 290 509Q300 528 300 556Q300 570 293.5 581Q287 592 269 592Q247 592 233 578L136 602L180 836H459L438 732H268L257 680L259 679Q279 689 304 689Q364 689 396.5 653.5Q429 618 429 561Q429 530 418.5 499Q408 468 386.5 443.5Q365 419 332.5 403.5Q300 388 257 388Q216 388 187.5 397.5Q159 407 141.5 424.5Q124 442 116 465Q108 488 108 515Q108 520 108 527Q108 534 110 545H237Q235 531 234.5 526Q234 521 234 518Q234 508 238.5 499Q243 490 260 490Z" glyph-name="five.sups" horiz-adv-x="430" unicode="&#62055;" /><glyph d="M874 269Q893 269 904 280.5Q915 292 915 311Q915 325 906.5 335.5Q898 346 878 346Q858 346 847 334Q836 322 836 304Q836 289 845 279Q854 269 874 269ZM846 90Q869 90 880.5 104Q892 118 892 136Q892 151 883 162.5Q874 174 851 174Q829 174 817 160.5Q805 147 805 128Q805 114 814.5 102Q824 90 846 90ZM842 -9Q803 -9 773.5 2.5Q744 14 724.5 33Q705 52 695 75.5Q685 99 685 123Q685 167 710.5 196.5Q736 226 774 240Q751 253 738.5 276.5Q726 300 726 324Q726 351 737 373.5Q748 396 768.5 412Q789 428 817 437Q845 446 878 446Q915 446 943.5 436Q972 426 991 410Q1010 394 1019.5 372.5Q1029 351 1029 329Q1029 313 1025 296.5Q1021 280 1011.5 265.5Q1002 251 987 239Q972 227 951 221Q979 206 993.5 181Q1008 156 1008 127Q1008 97 994.5 72Q981 47 958.5 29Q936 11 906 1Q876 -9 842 -9ZM1000 686 201 -37 153 18 952 741ZM245 354Q265 354 275 373Q285 392 285 420Q285 434 278.5 445Q272 456 254 456Q232 456 218 442L121 466L165 700H444L423 596H253L242 544L244 543Q264 553 289 553Q349 553 381.5 517.5Q414 482 414 425Q414 394 403.5 363Q393 332 371.5 307.5Q350 283 317.5 267.5Q285 252 242 252Q201 252 172.5 261.5Q144 271 126.5 288.5Q109 306 101 329Q93 352 93 379Q93 384 93 391Q93 398 95 409H222Q220 395 219.5 390Q219 385 219 382Q219 372 223.5 363Q228 354 245 354Z" glyph-name="fiveeighths" horiz-adv-x="1080" unicode="&#8541;" /><glyph d="M195 102Q215 102 225 121Q235 140 235 168Q235 182 228.5 193Q222 204 204 204Q182 204 168 190L71 214L115 448H394L373 344H203L192 292L194 291Q214 301 239 301Q299 301 331.5 265.5Q364 230 364 173Q364 142 353.5 111Q343 80 321.5 55.5Q300 31 267.5 15.5Q235 0 192 0Q151 0 122.5 9.5Q94 19 76.5 36.5Q59 54 51 77Q43 100 43 127Q43 132 43 139Q43 146 45 157H172Q170 143 169.5 138Q169 133 169 130Q169 120 173.5 111Q178 102 195 102Z" glyph-name="fiveinferior" horiz-adv-x="430" unicode="&#8325;" /><glyph d="M878 344Q858 344 843 327.5Q828 311 828 290Q828 272 838.5 258.5Q849 245 869 245Q889 245 904 261.5Q919 278 919 299Q919 317 908.5 330.5Q898 344 878 344ZM875 448Q909 448 939.5 437.5Q970 427 993.5 407Q1017 387 1030.5 356.5Q1044 326 1044 287Q1044 239 1025 195Q1006 151 977.5 114Q949 77 915.5 48Q882 19 852 0H687Q690 3 712.5 22Q735 41 764.5 66.5Q794 92 824.5 118.5Q855 145 873 161L870 163Q867 161 854.5 157.5Q842 154 826 154Q774 154 738.5 189Q703 224 703 282Q703 319 716.5 349.5Q730 380 753.5 402Q777 424 808.5 436Q840 448 875 448ZM1000 686 201 -37 153 18 952 741ZM245 354Q265 354 275 373Q285 392 285 420Q285 434 278.5 445Q272 456 254 456Q232 456 218 442L121 466L165 700H444L423 596H253L242 544L244 543Q264 553 289 553Q349 553 381.5 517.5Q414 482 414 425Q414 394 403.5 363Q393 332 371.5 307.5Q350 283 317.5 267.5Q285 252 242 252Q201 252 172.5 261.5Q144 271 126.5 288.5Q109 306 101 329Q93 352 93 379Q93 384 93 391Q93 398 95 409H222Q220 395 219.5 390Q219 385 219 382Q219 372 223.5 363Q228 354 245 354Z" glyph-name="fiveninths" horiz-adv-x="1080" unicode="&#62103;" /><glyph d="M932 330H753L771 440H1084L1064 334L879 0H729ZM1000 686 201 -37 153 18 952 741ZM245 354Q265 354 275 373Q285 392 285 420Q285 434 278.5 445Q272 456 254 456Q232 456 218 442L121 466L165 700H444L423 596H253L242 544L244 543Q264 553 289 553Q349 553 381.5 517.5Q414 482 414 425Q414 394 403.5 363Q393 332 371.5 307.5Q350 283 317.5 267.5Q285 252 242 252Q201 252 172.5 261.5Q144 271 126.5 288.5Q109 306 101 329Q93 352 93 379Q93 384 93 391Q93 398 95 409H222Q220 395 219.5 390Q219 385 219 382Q219 372 223.5 363Q228 354 245 354Z" glyph-name="fivesevenths" horiz-adv-x="1080" unicode="&#62098;" /><glyph d="M853 95Q873 95 888 111.5Q903 128 903 149Q903 167 892.5 180.5Q882 194 862 194Q842 194 827 177.5Q812 161 812 140Q812 122 822.5 108.5Q833 95 853 95ZM856 -9Q822 -9 791.5 1.5Q761 12 737.5 32Q714 52 700.5 82.5Q687 113 687 152Q687 200 706 244Q725 288 753.5 325Q782 362 815.5 391Q849 420 879 439H1044Q1041 436 1018.5 416.5Q996 397 966.5 371.5Q937 346 906.5 320Q876 294 858 278L861 276Q864 278 876.5 281.5Q889 285 905 285Q957 285 992.5 250Q1028 215 1028 157Q1028 120 1014.5 89.5Q1001 59 977.5 37Q954 15 922.5 3Q891 -9 856 -9ZM1000 686 201 -37 153 18 952 741ZM245 354Q265 354 275 373Q285 392 285 420Q285 434 278.5 445Q272 456 254 456Q232 456 218 442L121 466L165 700H444L423 596H253L242 544L244 543Q264 553 289 553Q349 553 381.5 517.5Q414 482 414 425Q414 394 403.5 363Q393 332 371.5 307.5Q350 283 317.5 267.5Q285 252 242 252Q201 252 172.5 261.5Q144 271 126.5 288.5Q109 306 101 329Q93 352 93 379Q93 384 93 391Q93 398 95 409H222Q220 395 219.5 390Q219 385 219 382Q219 372 223.5 363Q228 354 245 354Z" glyph-name="fivesixths" horiz-adv-x="1080" unicode="&#62087;" /><glyph d="M238 354Q258 354 268 373Q278 392 278 420Q278 434 271.5 445Q265 456 247 456Q225 456 211 442L114 466L158 700H437L416 596H246L235 544L237 543Q257 553 282 553Q342 553 374.5 517.5Q407 482 407 425Q407 394 396.5 363Q386 332 364.5 307.5Q343 283 310.5 267.5Q278 252 235 252Q194 252 165.5 261.5Q137 271 119.5 288.5Q102 306 94 329Q86 352 86 379Q86 384 86 391Q86 398 88 409H215Q213 395 212.5 390Q212 385 212 382Q212 372 216.5 363Q221 354 238 354Z" glyph-name="fivesuperior" horiz-adv-x="430" unicode="&#8309;" /><glyph d="M516 0H360L416 328H264L207 0H51L107 328H38L61 465H131L152 583Q163 653 202 682.5Q241 712 304 712Q317 712 336.5 711Q356 710 375 708Q397 706 421 705L396 557L372 559Q362 560 353.5 561Q345 562 340 562Q325 562 313.5 556.5Q302 551 299 531L288 465H439L479 700H637Z" glyph-name="fl" horiz-adv-x="606" unicode="&#64258;" /><glyph d="M294 322H373L347 175H269L231 -41Q227 -67 217.5 -91.5Q208 -116 191 -134.5Q174 -153 148 -164.5Q122 -176 84 -176H-58L-30 -21H3Q15 -21 26.5 -20.5Q38 -20 48.5 -15.5Q59 -11 67 -1.5Q75 8 78 26L103 175H26L51 322H128L171 565Q175 591 184.5 615.5Q194 640 211 658.5Q228 677 254 688.5Q280 700 318 700H461L433 545H399Q387 545 375.5 544.5Q364 544 353.5 539.5Q343 535 335 525.5Q327 516 324 498Z" glyph-name="florin" horiz-adv-x="400" unicode="&#402;" /><glyph d="M-4 8H22Q32 8 41.5 8Q51 8 59 11Q67 14 73 21Q79 28 82 42L93 113H35L59 252H117L152 452Q155 473 162.5 492.5Q170 512 183.5 527Q197 542 218.5 551Q240 560 270 560H407L381 412H354Q345 412 335.5 412Q326 412 317.5 409Q309 406 303 398.5Q297 391 294 377L274 252H334L309 113H250L223 -33Q220 -54 212.5 -73.5Q205 -93 191.5 -108Q178 -123 157 -132Q136 -141 106 -141H-31Z" glyph-name="florin.smcp" horiz-adv-x="389" unicode="&#61840;" /><glyph d="M308 302 348 509 185 302ZM25 304 343 700H547L474 302H553L526 158H449L420 0H254L282 158H0Z" glyph-name="four" horiz-adv-x="560" unicode="4" /><glyph d="M315 302 355 509 192 302ZM32 304 350 700H554L481 302H560L533 158H456L427 0H261L289 158H7Z" glyph-name="four.alt" horiz-adv-x="573" unicode="&#62022;" /><glyph d="M138 134H265L301 341H298ZM-3 138 286 497H474L410 134H489L466 6H387L359 -149H214L242 6H-25Z" glyph-name="four.posf" horiz-adv-x="521" unicode="&#62038;" /><glyph d="M101 -8H177L198 109ZM-6 -1 193 239H340L294 -8H340L321 -110H276L259 -201H141L158 -110H-24Z" glyph-name="four.sinf" horiz-adv-x="430" unicode="&#62070;" /><glyph d="M250 247 275 371 189 247ZM225 111H14L37 250L265 560H463L406 247H454L429 111H382L361 0H205Z" glyph-name="four.smcp" horiz-adv-x="500" unicode="&#58431;" /><glyph d="M207 591H283L304 708ZM100 598 299 838H446L400 591H446L427 489H382L365 398H247L264 489H82Z" glyph-name="four.sups" horiz-adv-x="430" unicode="&#62054;" /><glyph d="M866 93Q886 93 896 112Q906 131 906 159Q906 173 899.5 184Q893 195 875 195Q853 195 839 181L742 205L786 439H1065L1044 335H874L863 283L865 282Q885 292 910 292Q970 292 1002.5 256.5Q1035 221 1035 164Q1035 133 1024.5 102Q1014 71 992.5 46.5Q971 22 938.5 6.5Q906 -9 863 -9Q822 -9 793.5 0.5Q765 10 747.5 27.5Q730 45 722 68Q714 91 714 118Q714 123 714 130Q714 137 716 148H843Q841 134 840.5 129Q840 124 840 121Q840 111 844.5 102Q849 93 866 93ZM1002 686 203 -37 155 18 954 741ZM170 453H246L267 570ZM63 460 262 700H409L363 453H409L390 351H345L328 260H210L227 351H45Z" glyph-name="fourfifths" horiz-adv-x="1080" unicode="&#62085;" /><glyph d="M137 201H213L234 318ZM30 208 229 448H376L330 201H376L357 99H312L295 8H177L194 99H12Z" glyph-name="fourinferior" horiz-adv-x="430" unicode="&#8324;" /><glyph d="M880 344Q860 344 845 327.5Q830 311 830 290Q830 272 840.5 258.5Q851 245 871 245Q891 245 906 261.5Q921 278 921 299Q921 317 910.5 330.5Q900 344 880 344ZM877 448Q911 448 941.5 437.5Q972 427 995.5 407Q1019 387 1032.5 356.5Q1046 326 1046 287Q1046 239 1027 195Q1008 151 979.5 114Q951 77 917.5 48Q884 19 854 0H689Q692 3 714.5 22Q737 41 766.5 66.5Q796 92 826.5 118.5Q857 145 875 161L872 163Q869 161 856.5 157.5Q844 154 828 154Q776 154 740.5 189Q705 224 705 282Q705 319 718.5 349.5Q732 380 755.5 402Q779 424 810.5 436Q842 448 877 448ZM170 453H246L267 570ZM63 460 262 700H409L363 453H409L390 351H345L328 260H210L227 351H45ZM1002 686 203 -37 155 18 954 741Z" glyph-name="fourninths" horiz-adv-x="1080" unicode="&#62102;" /><glyph d="M934 330H755L773 440H1086L1066 334L881 0H731ZM170 453H246L267 570ZM63 460 262 700H409L363 453H409L390 351H345L328 260H210L227 351H45ZM1002 686 203 -37 155 18 954 741Z" glyph-name="foursevenths" horiz-adv-x="1080" unicode="&#62097;" /><glyph d="M182 453H258L279 570ZM75 460 274 700H421L375 453H421L402 351H357L340 260H222L239 351H57Z" glyph-name="foursuperior" horiz-adv-x="430" unicode="&#8308;" /><glyph d="M554 686 -245 -37 -293 18 506 741Z" glyph-name="fraction" horiz-adv-x="220" unicode="&#8260;" /><glyph d="M575 465 489 -32Q484 -59 473.5 -85Q463 -111 444.5 -131.5Q426 -152 397 -164Q368 -176 326 -176H142L165 -39H292Q307 -39 320.5 -33Q334 -27 338 -5L350 62Q333 36 300 18Q267 0 222 0Q180 0 144 17Q108 34 81.5 63.5Q55 93 40 132.5Q25 172 25 217Q25 277 44.5 325Q64 373 97 406.5Q130 440 172.5 458.5Q215 477 261 477Q291 477 315 470Q339 463 356.5 452Q374 441 385.5 428Q397 415 403 404Q403 412 404 422Q406 441 410 465ZM373 250Q373 267 366.5 283Q360 299 348.5 312Q337 325 321 332.5Q305 340 285 340Q264 340 245.5 331.5Q227 323 213.5 308.5Q200 294 192 274Q184 254 184 231Q184 212 190 194.5Q196 177 207.5 164Q219 151 235.5 143Q252 135 273 135Q294 135 312 144.5Q330 154 343.5 169.5Q357 185 365 206Q373 227 373 250Z" glyph-name="g" horiz-adv-x="585" unicode="g" /><glyph d="M390 700H512L506 658Q499 617 483 588.5Q467 560 444 542.5Q421 525 392 517.5Q363 510 330 510Q297 510 268 520.5Q239 531 218.5 551Q198 571 189 600Q180 629 186 667L193 700H316L310 659Q307 644 315 633Q323 622 341 622Q359 622 369 632Q379 642 382 657ZM575 465 489 -32Q484 -59 473.5 -85Q463 -111 444.5 -131.5Q426 -152 397 -164Q368 -176 326 -176H142L165 -39H292Q307 -39 320.5 -33Q334 -27 338 -5L350 62Q333 36 300 18Q267 0 222 0Q180 0 144 17Q108 34 81.5 63.5Q55 93 40 132.5Q25 172 25 217Q25 277 44.5 325Q64 373 97 406.5Q130 440 172.5 458.5Q215 477 261 477Q291 477 315 470Q339 463 356.5 452Q374 441 385.5 428Q397 415 403 404Q403 412 404 422Q406 441 410 465ZM373 250Q373 267 366.5 283Q360 299 348.5 312Q337 325 321 332.5Q305 340 285 340Q264 340 245.5 331.5Q227 323 213.5 308.5Q200 294 192 274Q184 254 184 231Q184 212 190 194.5Q196 177 207.5 164Q219 151 235.5 143Q252 135 273 135Q294 135 312 144.5Q330 154 343.5 169.5Q357 185 365 206Q373 227 373 250Z" glyph-name="gbreve" horiz-adv-x="585" unicode="&#287;" /><glyph d="M285 700H458L536 523H381L358 581L323 523H151ZM575 465 489 -32Q484 -59 473.5 -85Q463 -111 444.5 -131.5Q426 -152 397 -164Q368 -176 326 -176H142L165 -39H292Q307 -39 320.5 -33Q334 -27 338 -5L350 62Q333 36 300 18Q267 0 222 0Q180 0 144 17Q108 34 81.5 63.5Q55 93 40 132.5Q25 172 25 217Q25 277 44.5 325Q64 373 97 406.5Q130 440 172.5 458.5Q215 477 261 477Q291 477 315 470Q339 463 356.5 452Q374 441 385.5 428Q397 415 403 404Q403 412 404 422Q406 441 410 465ZM373 250Q373 267 366.5 283Q360 299 348.5 312Q337 325 321 332.5Q305 340 285 340Q264 340 245.5 331.5Q227 323 213.5 308.5Q200 294 192 274Q184 254 184 231Q184 212 190 194.5Q196 177 207.5 164Q219 151 235.5 143Q252 135 273 135Q294 135 312 144.5Q330 154 343.5 169.5Q357 185 365 206Q373 227 373 250Z" glyph-name="gcircumflex" horiz-adv-x="585" unicode="&#285;" /><glyph d="M416 588Q416 572 410 557Q404 542 392.5 530.5Q381 519 366 512Q351 505 333 505Q314 505 298 512Q282 519 270.5 531Q259 543 252.5 558Q246 573 246 590Q246 604 252 620Q258 636 269 649L360 767L446 749L394 645Q416 621 416 588ZM575 465 489 -32Q484 -59 473.5 -85Q463 -111 444.5 -131.5Q426 -152 397 -164Q368 -176 326 -176H142L165 -39H292Q307 -39 320.5 -33Q334 -27 338 -5L350 62Q333 36 300 18Q267 0 222 0Q180 0 144 17Q108 34 81.5 63.5Q55 93 40 132.5Q25 172 25 217Q25 277 44.5 325Q64 373 97 406.5Q130 440 172.5 458.5Q215 477 261 477Q291 477 315 470Q339 463 356.5 452Q374 441 385.5 428Q397 415 403 404Q403 412 404 422Q406 441 410 465ZM373 250Q373 267 366.5 283Q360 299 348.5 312Q337 325 321 332.5Q305 340 285 340Q264 340 245.5 331.5Q227 323 213.5 308.5Q200 294 192 274Q184 254 184 231Q184 212 190 194.5Q196 177 207.5 164Q219 151 235.5 143Q252 135 273 135Q294 135 312 144.5Q330 154 343.5 169.5Q357 185 365 206Q373 227 373 250Z" glyph-name="gcommaaccent" horiz-adv-x="585" unicode="&#291;" /><glyph d="M329 703Q348 703 364.5 696Q381 689 393.5 676.5Q406 664 413 648Q420 632 420 614Q420 596 413 580Q406 564 393.5 551.5Q381 539 364.5 532Q348 525 329 525Q310 525 293.5 532Q277 539 264.5 551.5Q252 564 245 580Q238 596 238 614Q238 632 245 648Q252 664 264.5 676.5Q277 689 293.5 696Q310 703 329 703ZM575 465 489 -32Q484 -59 473.5 -85Q463 -111 444.5 -131.5Q426 -152 397 -164Q368 -176 326 -176H142L165 -39H292Q307 -39 320.5 -33Q334 -27 338 -5L350 62Q333 36 300 18Q267 0 222 0Q180 0 144 17Q108 34 81.5 63.5Q55 93 40 132.5Q25 172 25 217Q25 277 44.5 325Q64 373 97 406.5Q130 440 172.5 458.5Q215 477 261 477Q291 477 315 470Q339 463 356.5 452Q374 441 385.5 428Q397 415 403 404Q403 412 404 422Q406 441 410 465ZM373 250Q373 267 366.5 283Q360 299 348.5 312Q337 325 321 332.5Q305 340 285 340Q264 340 245.5 331.5Q227 323 213.5 308.5Q200 294 192 274Q184 254 184 231Q184 212 190 194.5Q196 177 207.5 164Q219 151 235.5 143Q252 135 273 135Q294 135 312 144.5Q330 154 343.5 169.5Q357 185 365 206Q373 227 373 250Z" glyph-name="gdotaccent" horiz-adv-x="585" unicode="&#289;" /><glyph d="M99 513Q108 563 128 600.5Q148 638 176.5 662.5Q205 687 240.5 699.5Q276 712 316 712Q364 712 401.5 698Q439 684 464.5 660.5Q490 637 503.5 605.5Q517 574 517 539Q517 494 501.5 462Q486 430 467.5 407Q449 384 433.5 367.5Q418 351 418 337Q418 325 429 305.5Q440 286 453.5 261Q467 236 478 209Q489 182 489 155Q489 119 477 88Q465 57 442.5 35Q420 13 388 0.5Q356 -12 317 -12Q309 -12 295 -10.5Q281 -9 264.5 -6Q248 -3 231.5 1.5Q215 6 202 12L236 131Q261 121 283 121Q305 121 317 133Q329 145 329 162Q329 180 318 199Q307 218 293.5 238.5Q280 259 269 281.5Q258 304 258 330Q258 357 274.5 382Q291 407 311.5 431Q332 455 348.5 477Q365 499 365 519Q365 537 352 550Q339 563 318 563Q296 563 278.5 546.5Q261 530 255 495L170 0H10Z" glyph-name="germandbls" horiz-adv-x="524" unicode="&#223;" /><glyph d="M317 523H168L62 700H266Z" glyph-name="grave" horiz-adv-x="278" unicode="`" /><glyph d="M315 605H185L93 730H269Z" glyph-name="grave.smcp" horiz-adv-x="375" unicode="&#63328;" /><glyph d="M56 278 82 435H426L335 578L457 682L694 346L374 31L257 135L393 278Z" glyph-name="greater" horiz-adv-x="701" unicode="&gt;" /><glyph d="M60 251 391 351 96 451 123 605 540 444 505 246 31 85Z" glyph-name="greater.alt" horiz-adv-x="536" unicode="&#62550;" /><glyph d="M213 104 313 213H55L80 352H342L281 458L391 553L583 272L322 10Z" glyph-name="greater.smcp" horiz-adv-x="629" unicode="&#62007;" /><glyph d="M24 147H470L444 0H-1ZM60 352 391 452 96 552 123 706 540 545 505 347 31 186Z" glyph-name="greaterequal" horiz-adv-x="520" unicode="&#8805;" /><glyph d="M40 138H396L371 0H16ZM71 316 330 395 99 474 124 613 456 483 422 289 44 159Z" glyph-name="greaterequal.smcp" horiz-adv-x="456" unicode="&#62009;" /><glyph d="M263 238 413 429H584L436 238L509 46H357ZM30 238 180 429H351L203 238L276 46H124Z" glyph-name="guillemotleft" horiz-adv-x="581" unicode="&#171;" /><glyph d="M299 356 449 547H620L472 356L545 164H393ZM66 356 216 547H387L239 356L312 164H160Z" glyph-name="guillemotleft.alt" horiz-adv-x="612" unicode="&#62224;" /><glyph d="M249 270 376 435H536L411 272L473 107H329ZM42 270 169 435H329L203 272L265 107H123Z" glyph-name="guillemotleft.smcp" horiz-adv-x="557" unicode="&#62993;" /><glyph d="M407 46H236L385 238L302 429H453L558 238ZM174 46H4L152 238L68 429H220L325 238Z" glyph-name="guillemotright" horiz-adv-x="586" unicode="&#187;" /><glyph d="M444 164H273L422 356L339 547H490L595 356ZM211 164H41L189 356L105 547H257L362 356Z" glyph-name="guillemotright.alt" horiz-adv-x="617" unicode="&#62225;" /><glyph d="M373 271 299 435H441L534 274L406 107H246ZM166 271 91 435H234L327 274L199 107H40Z" glyph-name="guillemotright.smcp" horiz-adv-x="563" unicode="&#62994;" /><glyph d="M33 248 183 429H355L207 238L289 46H127Z" glyph-name="guilsinglleft" horiz-adv-x="356" unicode="&#8249;" /><glyph d="M67 366 217 547H389L241 356L323 164H161Z" glyph-name="guilsinglleft.alt" horiz-adv-x="386" unicode="&#62226;" /><glyph d="M44 282 171 435H332L207 272L279 107H124Z" glyph-name="guilsinglleft.smcp" horiz-adv-x="357" unicode="&#62992;" /><glyph d="M174 46H3L151 238L68 429H220L325 238Z" glyph-name="guilsinglright" horiz-adv-x="353" unicode="&#8250;" /><glyph d="M212 164H41L189 356L106 547H258L363 356Z" glyph-name="guilsinglright.alt" horiz-adv-x="385" unicode="&#62227;" /><glyph d="M165 271 92 435H234L328 274L200 107H40Z" glyph-name="guilsinglright.smcp" horiz-adv-x="357" unicode="&#62995;" /><glyph d="M242 455Q237 432 234 423.5Q231 415 230 413Q260 445 298 461Q336 477 372 477Q408 477 437 464.5Q466 452 484.5 428.5Q503 405 510 371Q517 337 510 295L458 0H301L345 256Q352 295 337 313.5Q322 332 298 332Q286 332 273.5 327Q261 322 250 315.5Q239 309 230 301Q221 293 215 287L166 0H10L130 700H284Z" glyph-name="h" horiz-adv-x="543" unicode="h" /><glyph d="M61 641H120L130 700H284L274 641H399L380 529H254L242 455Q237 432 234 423.5Q231 415 230 413Q260 445 298 461Q336 477 372 477Q408 477 437 464.5Q466 452 484.5 428.5Q503 405 510 371Q517 337 510 295L458 0H301L345 256Q352 295 337 313.5Q322 332 298 332Q286 332 273.5 327Q261 322 250 315.5Q239 309 230 301Q221 293 215 287L166 0H10L100 529H42Z" glyph-name="hbar" horiz-adv-x="543" unicode="&#295;" /><glyph d="M317 942H490L568 765H413L390 823L355 765H183ZM242 455Q237 432 234 423.5Q231 415 230 413Q260 445 298 461Q336 477 372 477Q408 477 437 464.5Q466 452 484.5 428.5Q503 405 510 371Q517 337 510 295L458 0H301L345 256Q352 295 337 313.5Q322 332 298 332Q286 332 273.5 327Q261 322 250 315.5Q239 309 230 301Q221 293 215 287L166 0H10L130 700H284Z" glyph-name="hcircumflex" horiz-adv-x="543" unicode="&#293;" /><glyph d="M331 700H536L411 523H261ZM114 700H318L192 523H42Z" glyph-name="hungarumlaut" horiz-adv-x="500" unicode="&#733;" /><glyph d="M267 730H444L341 605H211ZM68 730H245L142 605H13Z" glyph-name="hungarumlaut.smcp" horiz-adv-x="375" unicode="&#63224;" /><glyph d="M2 326H279L252 173H-25Z" glyph-name="hyphen" horiz-adv-x="250" unicode="-" /><glyph d="M54 431H264L237 283H27Z" glyph-name="hyphen.alt" horiz-adv-x="250" unicode="&#62215;" /><glyph d="M119 616Q119 656 147 684Q175 712 215 712Q255 712 283 684Q311 656 311 616Q311 576 283 548Q255 520 215 520Q175 520 147 548Q119 576 119 616ZM201 0H44L101 328H43L65 465H282Z" glyph-name="i" horiz-adv-x="291" unicode="i" /><glyph d="M118 616Q118 656 146 684Q174 712 214 712Q254 712 282 684Q310 656 310 616Q310 576 282 548Q254 520 214 520Q174 520 146 548Q118 576 118 616ZM200 0H43L100 328H42L64 465H281Z" glyph-name="i.locl" horiz-adv-x="290" unicode="&#62212;" /><glyph d="M209 700H414L288 523H139ZM200 0H43L100 328H42L64 465H281Z" glyph-name="iacute" horiz-adv-x="290" unicode="&#237;" /><glyph d="M257 700H379L373 658Q366 617 350 588.5Q334 560 311 542.5Q288 525 259 517.5Q230 510 197 510Q164 510 135 520.5Q106 531 85.5 551Q65 571 56 600Q47 629 53 667L60 700H183L177 659Q174 644 182 633Q190 622 208 622Q226 622 236 632Q246 642 249 657ZM200 0H43L100 328H42L64 465H281Z" glyph-name="ibreve" horiz-adv-x="290" unicode="&#301;" /><glyph d="M127 700H300L378 523H223L200 581L165 523H-7ZM200 0H43L100 328H42L64 465H281Z" glyph-name="icircumflex" horiz-adv-x="290" unicode="&#238;" /><glyph d="M204 594Q204 612 211 628.5Q218 645 230.5 657.5Q243 670 259.5 677.5Q276 685 294 685Q312 685 328.5 677.5Q345 670 357.5 657.5Q370 645 377.5 628.5Q385 612 385 594Q385 576 377.5 560Q370 544 357.5 531.5Q345 519 328.5 512Q312 505 294 505Q276 505 259.5 512Q243 519 230.5 531.5Q218 544 211 560Q204 576 204 594ZM-4 594Q-4 612 3 628.5Q10 645 22.5 657.5Q35 670 51.5 677.5Q68 685 87 685Q105 685 121.5 677.5Q138 670 150.5 657.5Q163 645 170.5 628.5Q178 612 178 594Q178 576 170.5 560Q163 544 150.5 531.5Q138 519 121.5 512Q105 505 87 505Q68 505 51.5 512Q35 519 22.5 531.5Q10 544 3 560Q-4 576 -4 594ZM200 0H43L100 328H42L64 465H281Z" glyph-name="idieresis" horiz-adv-x="290" unicode="&#239;" /><glyph d="M258 523H109L3 700H207ZM200 0H43L100 328H42L64 465H281Z" glyph-name="igrave" horiz-adv-x="290" unicode="&#236;" /><glyph d="M408 616Q408 656 436 684Q464 712 504 712Q544 712 572 684Q600 656 600 616Q600 576 572 548Q544 520 504 520Q464 520 436 548Q408 576 408 616ZM391 328H332L355 465H572L481 -57Q473 -100 456 -124Q439 -148 416.5 -159.5Q394 -171 368.5 -173.5Q343 -176 319 -176H226L249 -39H293Q313 -39 321.5 -33.5Q330 -28 332 -14ZM119 616Q119 656 147 684Q175 712 215 712Q255 712 283 684Q311 656 311 616Q311 576 283 548Q255 520 215 520Q175 520 147 548Q119 576 119 616ZM201 0H44L101 328H43L65 465H282Z" glyph-name="ij" horiz-adv-x="581" unicode="&#307;" /><glyph d="M48 663H389L365 525H24ZM200 0H43L100 328H42L64 465H281Z" glyph-name="imacron" horiz-adv-x="290" unicode="&#299;" /><glyph d="M232 351Q232 323 240 305.5Q248 288 260 278Q272 268 285.5 264Q299 260 310 260Q323 260 338 263.5Q353 267 368 276.5Q383 286 397.5 304Q412 322 426 351Q412 380 397.5 398Q383 416 368 425.5Q353 435 338 438.5Q323 442 310 442Q299 442 285.5 438Q272 434 260 424Q248 414 240 396.5Q232 379 232 351ZM738 351Q738 379 730 396.5Q722 414 710 424Q698 434 684.5 438Q671 442 660 442Q647 442 632 438.5Q617 435 602 425.5Q587 416 572 398Q557 380 544 351Q557 322 572 304Q587 286 602 276.5Q617 267 632 263.5Q647 260 660 260Q671 260 684.5 264Q698 268 710 278Q722 288 730 305.5Q738 323 738 351ZM675 106Q554 106 485 204Q450 155 402 130.5Q354 106 295 106Q251 106 210.5 121.5Q170 137 138 168Q106 199 87 245Q68 291 68 351Q68 411 87 457Q106 503 138 534Q170 565 210.5 580.5Q251 596 295 596Q415 596 485 498Q553 596 675 596Q718 596 759 580.5Q800 565 832 534Q864 503 883 457Q902 411 902 351Q902 291 883 245Q864 199 832 168Q800 137 759 121.5Q718 106 675 106Z" glyph-name="infinity" horiz-adv-x="929" unicode="&#8734;" /><glyph d="M230 -41Q226 -67 216.5 -91.5Q207 -116 190 -134.5Q173 -153 147 -164.5Q121 -176 83 -176H-59L-31 -21H2Q14 -21 25.5 -20.5Q37 -20 47.5 -15.5Q58 -11 66 -1.5Q74 8 77 26L170 565Q174 591 183.5 615.5Q193 640 210 658.5Q227 677 253 688.5Q279 700 317 700H460L432 545H398Q386 545 374.5 544.5Q363 544 352.5 539.5Q342 535 334 525.5Q326 516 323 498Z" glyph-name="integral" horiz-adv-x="390" unicode="&#8747;" /><glyph d="M118 616Q118 656 146 684Q174 712 214 712Q254 712 282 684Q310 656 310 616Q310 576 282 548Q254 520 214 520Q174 520 146 548Q118 576 118 616ZM200 0H166Q135 -20 125 -37.5Q115 -55 115 -68Q115 -84 127.5 -90.5Q140 -97 154 -97Q174 -97 195 -91.5Q216 -86 226 -84L203 -175Q175 -186 145.5 -194.5Q116 -203 77 -203Q25 -203 -10.5 -177.5Q-46 -152 -46 -107Q-46 -72 -20 -43.5Q6 -15 59 0H43L100 328H42L64 465H281Z" glyph-name="iogonek" horiz-adv-x="290" unicode="&#303;" /></font>
</defs>
</svg>
