<?xml version="1.0" standalone="no"?><!DOCTYPE svg PUBLIC "-//W3C//DTD SVG 1.1//EN" "http://www.w3.org/Graphics/SVG/1.1/DTD/svg11.dtd" ><svg version="1.1" xmlns="http://www.w3.org/2000/svg"><defs><font horiz-adv-x="0" id="font"><font-face ascent="750" bbox="-256 -308 1154 993" cap-height="700" descent="-250" font-family="Regular Black" font-stretch="normal" font-style="normal" font-weight="600" units-per-em="1000" x-height="471" /><missing-glyph d="M164 408H118L136 604H146ZM0 671Q0 683 8 691.5Q16 700 28 700H473Q484 700 492 691.5Q500 683 500 671V29Q500 17 492 8.5Q484 0 473 0H28Q16 0 8 8.5Q0 17 0 29ZM415 392Q415 407 429 407H435Q449 407 449 392V388H438V389Q438 392 437.5 394.5Q437 397 432 397Q426 397 426 389V377Q426 369 432 369Q437 369 437.5 371.5Q438 374 438 377V378H449V374Q449 359 435 359H429Q415 359 415 374ZM178 270H244L201 657H83L40 270H105L112 347H170ZM434 470Q445 484 452.5 503Q460 522 460 551V567Q460 609 434 634Q408 659 373 659H356Q321 659 294.5 634Q268 609 268 567V517H330V559Q330 572 336 585.5Q342 599 363 599H366Q386 599 391.5 585.5Q397 572 397 559V552Q396 522 376 495L298 391Q283 371 276 354Q269 337 269 313V270H461V331H339V335Q339 339 342 345.5Q345 352 355 365ZM264 42H292V113H316Q332 113 342 124.5Q352 136 352 154V187Q352 206 342 217Q332 228 316 228H264ZM380 42H465V69H410V123H442V150H410V202H465V228H380ZM237 228H208L191 151L171 228H141L174 107V42H205V107ZM65 42H93V202H123V228H35V202H65ZM460 393Q460 404 454.5 410.5Q449 417 437 417H428Q416 417 410 410.5Q404 404 404 393V373Q404 362 410 355.5Q416 349 428 349H437Q449 349 454.5 355.5Q460 362 460 373ZM292 202H309Q318 202 320.5 195.5Q323 189 323 184V158Q323 153 320.5 147Q318 141 309 141H292Z" horiz-adv-x="500" /><glyph d="M456 0 420 117H245L212 0H-1L210 700H462L673 0ZM333 467H329L282 293H380Z" glyph-name="A" horiz-adv-x="672" unicode="A" /><glyph d="M255 230H314L286 346H283ZM228 89 207 0H6L164 560H413L571 0H369L344 89Z" glyph-name="A.smcp" horiz-adv-x="577" unicode="&#62257;" /><glyph d="M413 556H412L321 292H413ZM253 118 208 0H-8L261 700H983V525H614V444H796V270H614V176H983V0H413V118Z" glyph-name="AE" horiz-adv-x="1019" unicode="&#198;" /><glyph d="M335 213V399H331L275 213ZM812 397H522V367H649V204H522V165H812V0H335V51H235L220 0H9L191 560H812Z" glyph-name="AE.smcp" horiz-adv-x="848" unicode="&#62296;" /><glyph d="M291 929H520L423 752H250ZM456 0 420 117H245L212 0H-1L210 700H462L673 0ZM333 467H329L282 293H380Z" glyph-name="Aacute" horiz-adv-x="672" unicode="&#193;" /><glyph d="M248 730H450L370 605H217ZM255 230H314L286 346H283ZM228 89 207 0H6L164 560H413L571 0H369L344 89Z" glyph-name="Aacute.smcp" horiz-adv-x="577" unicode="&#62503;" /><glyph d="M368 929H497V887Q497 849 484 821.5Q471 794 449 775.5Q427 757 397.5 748Q368 739 334 739Q300 739 270.5 748Q241 757 218.5 775.5Q196 794 183 821.5Q170 849 170 887V929H299V904Q299 882 308 873Q317 864 334 864Q351 864 359.5 873Q368 882 368 904ZM456 0 420 117H245L212 0H-1L210 700H462L673 0ZM333 467H329L282 293H380Z" glyph-name="Abreve" horiz-adv-x="672" unicode="&#258;" /><glyph d="M284 705Q309 705 309 728V735H427V723Q427 659 391 629.5Q355 600 285 600Q215 600 179 629.5Q143 659 143 723V735H261V728Q261 705 284 705ZM255 230H314L286 346H283ZM228 89 207 0H6L164 560H413L571 0H369L344 89Z" glyph-name="Abreve.smcp" horiz-adv-x="577" unicode="&#62504;" /><glyph d="M306 752H136L235 929H431L530 752H360L333 810ZM456 0 420 117H245L212 0H-1L210 700H462L673 0ZM333 467H329L282 293H380Z" glyph-name="Acircumflex" horiz-adv-x="672" unicode="&#194;" /><glyph d="M284 641 259 605H114L186 730H382L454 605H309ZM255 230H314L286 346H283ZM228 89 207 0H6L164 560H413L571 0H369L344 89Z" glyph-name="Acircumflex.smcp" horiz-adv-x="577" unicode="&#62505;" /><glyph d="M438 749Q419 749 402 756.5Q385 764 372 777Q359 790 351 807Q343 824 343 843Q343 862 351 879Q359 896 372 909Q385 922 402 929.5Q419 937 438 937Q457 937 474 929.5Q491 922 504 909Q517 896 525 879Q533 862 533 843Q533 824 525 807Q517 790 504 777Q491 764 474 756.5Q457 749 438 749ZM230 749Q211 749 194 756.5Q177 764 164 777Q151 790 143 807Q135 824 135 843Q135 862 143 879Q151 896 164 909Q177 922 194 929.5Q211 937 230 937Q249 937 266 929.5Q283 922 296 909Q309 896 317 879Q325 862 325 843Q325 824 317 807Q309 790 296 777Q283 764 266 756.5Q249 749 230 749ZM456 0 420 117H245L212 0H-1L210 700H462L673 0ZM333 467H329L282 293H380Z" glyph-name="Adieresis" horiz-adv-x="672" unicode="&#196;" /><glyph d="M379 769Q396 769 411.5 762Q427 755 439 743.5Q451 732 458 716.5Q465 701 465 684Q465 667 458 652Q451 637 439 625.5Q427 614 411.5 607Q396 600 379 600Q362 600 346.5 607Q331 614 319 625.5Q307 637 300 652Q293 667 293 684Q293 701 300 716.5Q307 732 319 743.5Q331 755 346.5 762Q362 769 379 769ZM189 769Q206 769 221.5 762Q237 755 249 743.5Q261 732 268 716.5Q275 701 275 684Q275 667 268 652Q261 637 249 625.5Q237 614 221.5 607Q206 600 189 600Q172 600 156.5 607Q141 614 129 625.5Q117 637 110 652Q103 667 103 684Q103 701 110 716.5Q117 732 129 743.5Q141 755 156.5 762Q172 769 189 769ZM255 230H314L286 346H283ZM228 89 207 0H6L164 560H413L571 0H369L344 89Z" glyph-name="Adieresis.smcp" horiz-adv-x="577" unicode="&#62512;" /><glyph d="M406 752H233L136 929H365ZM456 0 420 117H245L212 0H-1L210 700H462L673 0ZM333 467H329L282 293H380Z" glyph-name="Agrave" horiz-adv-x="672" unicode="&#192;" /><glyph d="M357 605H204L124 730H326ZM255 230H314L286 346H283ZM228 89 207 0H6L164 560H413L571 0H369L344 89Z" glyph-name="Agrave.smcp" horiz-adv-x="577" unicode="&#62513;" /><glyph d="M160 892H508V754H160ZM456 0 420 117H245L212 0H-1L210 700H462L673 0ZM333 467H329L282 293H380Z" glyph-name="Amacron" horiz-adv-x="672" unicode="&#256;" /><glyph d="M135 730H433V605H135ZM255 230H314L286 346H283ZM228 89 207 0H6L164 560H413L571 0H369L344 89Z" glyph-name="Amacron.smcp" horiz-adv-x="577" unicode="&#62309;" /><glyph d="M333 467H329L282 293H380ZM598 0Q575 -17 567.5 -32Q560 -47 560 -58Q560 -74 572.5 -80.5Q585 -87 599 -87Q619 -87 636 -83Q653 -79 663 -77L659 -175Q648 -180 630 -184Q615 -188 592.5 -190.5Q570 -193 539 -193Q509 -193 483 -187.5Q457 -182 437.5 -170.5Q418 -159 406.5 -141Q395 -123 395 -97Q395 -67 414 -42Q433 -17 472 0H456L420 117H245L212 0H-1L210 700H462L673 0Z" glyph-name="Aogonek" horiz-adv-x="672" unicode="&#260;" /><glyph d="M255 230H314L286 346H283ZM228 89 207 0H6L164 560H413L571 0H525Q499 -15 490.5 -27Q482 -39 482 -47Q482 -63 493.5 -68.5Q505 -74 520 -74Q528 -74 541 -71.5Q554 -69 561 -66L558 -153Q554 -155 530 -162Q506 -169 456 -169Q430 -169 407 -163.5Q384 -158 367 -147.5Q350 -137 340 -121.5Q330 -106 330 -85Q330 -57 351 -34Q372 -11 427 0H369L344 89Z" glyph-name="Aogonek.smcp" horiz-adv-x="577" unicode="&#62310;" /><glyph d="M333 815Q352 815 365 829Q378 843 378 863Q378 883 365 897Q352 911 333 911Q314 911 301 897Q288 883 288 863Q288 843 301 829Q314 815 333 815ZM333 733Q304 733 278.5 743Q253 753 234.5 770.5Q216 788 205.5 811.5Q195 835 195 863Q195 891 205.5 914.5Q216 938 234.5 955.5Q253 973 278.5 983Q304 993 333 993Q362 993 387.5 983Q413 973 431.5 955.5Q450 938 460.5 914.5Q471 891 471 863Q471 835 460.5 811.5Q450 788 431.5 770.5Q413 753 387.5 743Q362 733 333 733ZM456 0 420 117H245L212 0H-1L210 700H462L673 0ZM333 467H329L282 293H380Z" glyph-name="Aring" horiz-adv-x="672" unicode="&#197;" /><glyph d="M401 710Q401 662 368 631Q335 600 284 600Q233 600 200 631Q167 662 167 710Q167 758 200 789Q233 820 284 820Q335 820 368 789Q401 758 401 710ZM250 710Q250 694 260 683.5Q270 673 284 673Q298 673 308 683.5Q318 694 318 710Q318 726 308 736.5Q298 747 284 747Q270 747 260 736.5Q250 726 250 710ZM255 230H314L286 346H283ZM228 89 207 0H6L164 560H413L571 0H369L344 89Z" glyph-name="Aring.smcp" horiz-adv-x="577" unicode="&#62311;" /><glyph d="M148 751Q148 766 150 793.5Q152 821 163 848Q174 875 197.5 894.5Q221 914 265 914Q281 914 295.5 910Q310 906 323 901.5Q336 897 346.5 893Q357 889 365 889Q373 889 376.5 894Q380 899 380 906V913H520V907Q520 893 518.5 865.5Q517 838 506.5 811Q496 784 472 764Q448 744 403 744Q387 744 372.5 748Q358 752 345 756.5Q332 761 321.5 765Q311 769 303 769Q295 769 291.5 764Q288 759 288 752V744H148ZM456 0 420 117H245L212 0H-1L210 700H462L673 0ZM333 467H329L282 293H380Z" glyph-name="Atilde" horiz-adv-x="672" unicode="&#195;" /><glyph d="M341 600Q329 600 315 603Q301 606 288 610Q275 614 263.5 617Q252 620 246 620Q236 620 236 609V605H128V616Q128 628 129 649Q130 670 139 690Q148 710 168 725Q188 740 227 740Q239 740 253 737Q267 734 280 730Q293 726 304.5 723Q316 720 322 720Q332 720 332 731V735H440V710Q440 698 439 679.5Q438 661 429 643Q420 625 400 612.5Q380 600 341 600ZM255 230H314L286 346H283ZM228 89 207 0H6L164 560H413L571 0H369L344 89Z" glyph-name="Atilde.smcp" horiz-adv-x="577" unicode="&#62312;" /><glyph d="M316 437Q342 437 354.5 451.5Q367 466 367 484Q367 502 354.5 516.5Q342 531 316 531H262V437ZM388 225Q388 234 384.5 244Q381 254 372 262.5Q363 271 348 276Q333 281 311 281H262V169H311Q333 169 348 174Q363 179 372 187.5Q381 196 384.5 206Q388 216 388 225ZM569 517Q569 478 551 438.5Q533 399 488 377V375Q549 350 575.5 305Q602 260 602 206Q602 163 587 125.5Q572 88 542 60Q512 32 468.5 16Q425 0 368 0H60V700H341Q397 700 440 684.5Q483 669 511.5 643Q540 617 554.5 584Q569 551 569 517Z" glyph-name="B" horiz-adv-x="624" unicode="B" /><glyph d="M241 145H271Q285 145 293.5 149Q302 153 306.5 159Q311 165 312.5 171Q314 177 314 181Q314 185 312.5 191Q311 197 306.5 203Q302 209 293.5 213Q285 217 271 217H241ZM305 383Q305 394 296.5 404.5Q288 415 271 415H241V351H271Q288 351 296.5 361.5Q305 372 305 383ZM490 412Q490 383 476.5 351.5Q463 320 430 302V301Q478 279 496 244Q514 209 514 168Q514 133 502 102.5Q490 72 466 49.5Q442 27 406.5 13.5Q371 0 325 0H54V560H302Q348 560 383 547.5Q418 535 442 514Q466 493 478 466.5Q490 440 490 412Z" glyph-name="B.smcp" horiz-adv-x="538" unicode="&#62258;" /><glyph d="M391 524Q356 524 327.5 511Q299 498 279 475Q259 452 248 420Q237 388 237 350Q237 312 248 280.5Q259 249 279 225.5Q299 202 327.5 189Q356 176 391 176Q444 176 480.5 205.5Q517 235 530 281H754Q742 216 709 162Q676 108 628 69.5Q580 31 519.5 9.5Q459 -12 391 -12Q314 -12 247 15Q180 42 130 90Q80 138 51 204.5Q22 271 22 350Q22 429 51 495.5Q80 562 130 610Q180 658 247 685Q314 712 391 712Q463 712 524 691Q585 670 632 631.5Q679 593 710.5 539.5Q742 486 754 421H529Q515 465 478.5 494.5Q442 524 391 524Z" glyph-name="C" horiz-adv-x="767" unicode="C" /><glyph d="M23 280Q23 343 46.5 396.5Q70 450 110.5 488.5Q151 527 205 548.5Q259 570 320 570Q381 570 432 552Q483 534 522 501Q561 468 586.5 423Q612 378 620 324H409Q401 356 377 374.5Q353 393 321 393Q276 393 250.5 361.5Q225 330 225 280Q225 230 250.5 198.5Q276 167 321 167Q353 167 377 185.5Q401 204 409 236H620Q612 182 586.5 137Q561 92 522 59Q483 26 432 8Q381 -10 320 -10Q259 -10 205 11.5Q151 33 110.5 71.5Q70 110 46.5 163.5Q23 217 23 280Z" glyph-name="C.smcp" horiz-adv-x="635" unicode="&#62259;" /><glyph d="M289 929H518L421 752H248ZM391 524Q356 524 327.5 511Q299 498 279 475Q259 452 248 420Q237 388 237 350Q237 312 248 280.5Q259 249 279 225.5Q299 202 327.5 189Q356 176 391 176Q444 176 480.5 205.5Q517 235 530 281H754Q742 216 709 162Q676 108 628 69.5Q580 31 519.5 9.5Q459 -12 391 -12Q314 -12 247 15Q180 42 130 90Q80 138 51 204.5Q22 271 22 350Q22 429 51 495.5Q80 562 130 610Q180 658 247 685Q314 712 391 712Q463 712 524 691Q585 670 632 631.5Q679 593 710.5 539.5Q742 486 754 421H529Q515 465 478.5 494.5Q442 524 391 524Z" glyph-name="Cacute" horiz-adv-x="767" unicode="&#262;" /><glyph d="M277 730H479L399 605H246ZM23 280Q23 343 46.5 396.5Q70 450 110.5 488.5Q151 527 205 548.5Q259 570 320 570Q381 570 432 552Q483 534 522 501Q561 468 586.5 423Q612 378 620 324H409Q401 356 377 374.5Q353 393 321 393Q276 393 250.5 361.5Q225 330 225 280Q225 230 250.5 198.5Q276 167 321 167Q353 167 377 185.5Q401 204 409 236H620Q612 182 586.5 137Q561 92 522 59Q483 26 432 8Q381 -10 320 -10Q259 -10 205 11.5Q151 33 110.5 71.5Q70 110 46.5 163.5Q23 217 23 280Z" glyph-name="Cacute.smcp" horiz-adv-x="635" unicode="&#62313;" /><glyph d="M383 871 410 929H580L481 752H285L186 929H356ZM391 524Q356 524 327.5 511Q299 498 279 475Q259 452 248 420Q237 388 237 350Q237 312 248 280.5Q259 249 279 225.5Q299 202 327.5 189Q356 176 391 176Q444 176 480.5 205.5Q517 235 530 281H754Q742 216 709 162Q676 108 628 69.5Q580 31 519.5 9.5Q459 -12 391 -12Q314 -12 247 15Q180 42 130 90Q80 138 51 204.5Q22 271 22 350Q22 429 51 495.5Q80 562 130 610Q180 658 247 685Q314 712 391 712Q463 712 524 691Q585 670 632 631.5Q679 593 710.5 539.5Q742 486 754 421H529Q515 465 478.5 494.5Q442 524 391 524Z" glyph-name="Ccaron" horiz-adv-x="767" unicode="&#268;" /><glyph d="M346 730H491L419 605H223L151 730H296L321 694ZM23 280Q23 343 46.5 396.5Q70 450 110.5 488.5Q151 527 205 548.5Q259 570 320 570Q381 570 432 552Q483 534 522 501Q561 468 586.5 423Q612 378 620 324H409Q401 356 377 374.5Q353 393 321 393Q276 393 250.5 361.5Q225 330 225 280Q225 230 250.5 198.5Q276 167 321 167Q353 167 377 185.5Q401 204 409 236H620Q612 182 586.5 137Q561 92 522 59Q483 26 432 8Q381 -10 320 -10Q259 -10 205 11.5Q151 33 110.5 71.5Q70 110 46.5 163.5Q23 217 23 280Z" glyph-name="Ccaron.smcp" horiz-adv-x="635" unicode="&#62320;" /><glyph d="M304 -2Q243 11 191.5 42.5Q140 74 102.5 120Q65 166 44 224Q23 282 23 350Q23 429 52 495.5Q81 562 131 610Q181 658 248 685Q315 712 392 712Q464 712 525 691Q586 670 633 631.5Q680 593 711.5 539.5Q743 486 755 421H530Q516 465 479.5 494.5Q443 524 392 524Q357 524 328.5 511Q300 498 280 475Q260 452 249 420Q238 388 238 350Q238 312 249 280.5Q260 249 280 225.5Q300 202 328.5 189Q357 176 392 176Q445 176 481.5 205.5Q518 235 531 281H755Q745 228 721.5 182.5Q698 137 663.5 101Q629 65 585 39Q541 13 491 0L413 -132H247Z" glyph-name="Ccedilla" horiz-adv-x="769" unicode="&#199;" /><glyph d="M224 5Q180 19 143 45Q106 71 79.5 106.5Q53 142 38 186Q23 230 23 280Q23 343 46.5 396.5Q70 450 110.5 488.5Q151 527 205 548.5Q259 570 320 570Q381 570 432 552Q483 534 522 501Q561 468 586.5 423Q612 378 620 324H409Q401 356 377 374.5Q353 393 321 393Q276 393 250.5 361.5Q225 330 225 280Q225 230 250.5 198.5Q276 167 321 167Q353 167 377 185.5Q401 204 409 236H620Q613 191 595 152.5Q577 114 548.5 83.5Q520 53 483 31.5Q446 10 401 0L339 -134H185Z" glyph-name="Ccedilla.smcp" horiz-adv-x="636" unicode="&#62321;" /><glyph d="M356 752H186L285 929H481L580 752H410L383 810ZM391 524Q356 524 327.5 511Q299 498 279 475Q259 452 248 420Q237 388 237 350Q237 312 248 280.5Q259 249 279 225.5Q299 202 327.5 189Q356 176 391 176Q444 176 480.5 205.5Q517 235 530 281H754Q742 216 709 162Q676 108 628 69.5Q580 31 519.5 9.5Q459 -12 391 -12Q314 -12 247 15Q180 42 130 90Q80 138 51 204.5Q22 271 22 350Q22 429 51 495.5Q80 562 130 610Q180 658 247 685Q314 712 391 712Q463 712 524 691Q585 670 632 631.5Q679 593 710.5 539.5Q742 486 754 421H529Q515 465 478.5 494.5Q442 524 391 524Z" glyph-name="Ccircumflex" horiz-adv-x="767" unicode="&#264;" /><glyph d="M320 641 295 605H150L222 730H418L490 605H345ZM23 280Q23 343 46.5 396.5Q70 450 110.5 488.5Q151 527 205 548.5Q259 570 320 570Q381 570 432 552Q483 534 522 501Q561 468 586.5 423Q612 378 620 324H409Q401 356 377 374.5Q353 393 321 393Q276 393 250.5 361.5Q225 330 225 280Q225 230 250.5 198.5Q276 167 321 167Q353 167 377 185.5Q401 204 409 236H620Q612 182 586.5 137Q561 92 522 59Q483 26 432 8Q381 -10 320 -10Q259 -10 205 11.5Q151 33 110.5 71.5Q70 110 46.5 163.5Q23 217 23 280Z" glyph-name="Ccircumflex.smcp" horiz-adv-x="635" unicode="&#62322;" /><glyph d="M383 749Q364 749 347 756.5Q330 764 317 777Q304 790 296 807Q288 824 288 843Q288 862 296 879Q304 896 317 909Q330 922 347 929.5Q364 937 383 937Q402 937 419 929.5Q436 922 449 909Q462 896 470 879Q478 862 478 843Q478 824 470 807Q462 790 449 777Q436 764 419 756.5Q402 749 383 749ZM391 524Q356 524 327.5 511Q299 498 279 475Q259 452 248 420Q237 388 237 350Q237 312 248 280.5Q259 249 279 225.5Q299 202 327.5 189Q356 176 391 176Q444 176 480.5 205.5Q517 235 530 281H754Q742 216 709 162Q676 108 628 69.5Q580 31 519.5 9.5Q459 -12 391 -12Q314 -12 247 15Q180 42 130 90Q80 138 51 204.5Q22 271 22 350Q22 429 51 495.5Q80 562 130 610Q180 658 247 685Q314 712 391 712Q463 712 524 691Q585 670 632 631.5Q679 593 710.5 539.5Q742 486 754 421H529Q515 465 478.5 494.5Q442 524 391 524Z" glyph-name="Cdotaccent" horiz-adv-x="767" unicode="&#266;" /><glyph d="M320 769Q337 769 352.5 762Q368 755 380 743.5Q392 732 399 716.5Q406 701 406 684Q406 667 399 652Q392 637 380 625.5Q368 614 352.5 607Q337 600 320 600Q303 600 287.5 607Q272 614 260 625.5Q248 637 241 652Q234 667 234 684Q234 701 241 716.5Q248 732 260 743.5Q272 755 287.5 762Q303 769 320 769ZM23 280Q23 343 46.5 396.5Q70 450 110.5 488.5Q151 527 205 548.5Q259 570 320 570Q381 570 432 552Q483 534 522 501Q561 468 586.5 423Q612 378 620 324H409Q401 356 377 374.5Q353 393 321 393Q276 393 250.5 361.5Q225 330 225 280Q225 230 250.5 198.5Q276 167 321 167Q353 167 377 185.5Q401 204 409 236H620Q612 182 586.5 137Q561 92 522 59Q483 26 432 8Q381 -10 320 -10Q259 -10 205 11.5Q151 33 110.5 71.5Q70 110 46.5 163.5Q23 217 23 280Z" glyph-name="Cdotaccent.smcp" horiz-adv-x="635" unicode="&#62323;" /><glyph d="M502 350Q502 394 488 425.5Q474 457 451 476.5Q428 496 398.5 505Q369 514 337 514H261V186H337Q369 186 398.5 195Q428 204 451 223.5Q474 243 488 274Q502 305 502 350ZM717 350Q717 272 692 207.5Q667 143 619.5 97Q572 51 503.5 25.5Q435 0 348 0H60V700H348Q435 700 503.5 674.5Q572 649 619.5 603Q667 557 692 492.5Q717 428 717 350Z" glyph-name="D" horiz-adv-x="741" unicode="D" /><glyph d="M401 280Q401 310 391.5 330Q382 350 367 362Q352 374 333.5 379Q315 384 297 384H241V176H297Q315 176 333.5 181Q352 186 367 198Q382 210 391.5 230Q401 250 401 280ZM603 280Q603 218 582.5 166.5Q562 115 523.5 78Q485 41 429.5 20.5Q374 0 305 0H54V560H305Q374 560 429.5 539.5Q485 519 523.5 482Q562 445 582.5 393.5Q603 342 603 280Z" glyph-name="D.smcp" horiz-adv-x="628" unicode="&#62260;" /><glyph d="M370 871 397 929H567L468 752H272L173 929H343ZM502 350Q502 394 488 425.5Q474 457 451 476.5Q428 496 398.5 505Q369 514 337 514H261V186H337Q369 186 398.5 195Q428 204 451 223.5Q474 243 488 274Q502 305 502 350ZM717 350Q717 272 692 207.5Q667 143 619.5 97Q572 51 503.5 25.5Q435 0 348 0H60V700H348Q435 700 503.5 674.5Q572 649 619.5 603Q667 557 692 492.5Q717 428 717 350Z" glyph-name="Dcaron" horiz-adv-x="741" unicode="&#270;" /><glyph d="M314 730H459L387 605H191L119 730H264L289 694ZM401 280Q401 310 391.5 330Q382 350 367 362Q352 374 333.5 379Q315 384 297 384H241V176H297Q315 176 333.5 181Q352 186 367 198Q382 210 391.5 230Q401 250 401 280ZM603 280Q603 218 582.5 166.5Q562 115 523.5 78Q485 41 429.5 20.5Q374 0 305 0H54V560H305Q374 560 429.5 539.5Q485 519 523.5 482Q562 445 582.5 393.5Q603 342 603 280Z" glyph-name="Dcaron.smcp" horiz-adv-x="628" unicode="&#62324;" /><glyph d="M511 350Q511 394 497 425.5Q483 457 460 476.5Q437 496 407.5 505Q378 514 346 514H270V444H425V260H270V186H346Q378 186 407.5 195Q437 204 460 223.5Q483 243 497 274Q511 305 511 350ZM4 444H69V700H357Q444 700 512.5 674.5Q581 649 628.5 603Q676 557 701 492.5Q726 428 726 350Q726 272 701 207.5Q676 143 628.5 97Q581 51 512.5 25.5Q444 0 357 0H69V260H4Z" glyph-name="Dcroat" horiz-adv-x="750" unicode="&#272;" /><glyph d="M404 280Q404 310 394.5 330Q385 350 370 362Q355 374 336.5 379Q318 384 300 384H244V341H343V219H244V176H300Q318 176 336.5 181Q355 186 370 198Q385 210 394.5 230Q404 250 404 280ZM21 341H57V560H308Q377 560 432.5 539.5Q488 519 526.5 482Q565 445 585.5 393.5Q606 342 606 280Q606 218 585.5 166.5Q565 115 526.5 78Q488 41 432.5 20.5Q377 0 308 0H57V219H21Z" glyph-name="Dcroat.smcp" horiz-adv-x="631" unicode="&#62497;" /><glyph d="M366 456 243 175H489ZM701 179V0H30V179L263 700H469Z" glyph-name="Delta" horiz-adv-x="731" unicode="&#8710;" /><glyph d="M620 525H261V444H443V260H261V176H620V0H60V700H620Z" glyph-name="E" horiz-adv-x="656" unicode="E" /><glyph d="M520 397H241V362H370V199H241V165H520V0H54V560H520Z" glyph-name="E.smcp" horiz-adv-x="556" unicode="&#62261;" /><glyph d="M289 929H518L421 752H248ZM620 525H261V444H443V260H261V176H620V0H60V700H620Z" glyph-name="Eacute" horiz-adv-x="656" unicode="&#201;" /><glyph d="M233 730H435L355 605H202ZM520 397H241V362H370V199H241V165H520V0H54V560H520Z" glyph-name="Eacute.smcp" horiz-adv-x="556" unicode="&#62514;" /><glyph d="M362 929H491V887Q491 849 478 821.5Q465 794 443 775.5Q421 757 391.5 748Q362 739 328 739Q294 739 264.5 748Q235 757 212.5 775.5Q190 794 177 821.5Q164 849 164 887V929H293V904Q293 882 302 873Q311 864 328 864Q345 864 353.5 873Q362 882 362 904ZM620 525H261V444H443V260H261V176H620V0H60V700H620Z" glyph-name="Ebreve" horiz-adv-x="656" unicode="&#276;" /><glyph d="M283 705Q308 705 308 728V735H426V723Q426 659 390 629.5Q354 600 284 600Q214 600 178 629.5Q142 659 142 723V735H260V728Q260 705 283 705ZM520 397H241V362H370V199H241V165H520V0H54V560H520Z" glyph-name="Ebreve.smcp" horiz-adv-x="556" unicode="&#62515;" /><glyph d="M327 871 354 929H524L425 752H229L130 929H300ZM620 525H261V444H443V260H261V176H620V0H60V700H620Z" glyph-name="Ecaron" horiz-adv-x="656" unicode="&#282;" /><glyph d="M310 730H455L383 605H187L115 730H260L285 694ZM520 397H241V362H370V199H241V165H520V0H54V560H520Z" glyph-name="Ecaron.smcp" horiz-adv-x="556" unicode="&#62516;" /><glyph d="M300 752H130L229 929H425L524 752H354L327 810ZM620 525H261V444H443V260H261V176H620V0H60V700H620Z" glyph-name="Ecircumflex" horiz-adv-x="656" unicode="&#202;" /><glyph d="M286 641 261 605H116L188 730H384L456 605H311ZM520 397H241V362H370V199H241V165H520V0H54V560H520Z" glyph-name="Ecircumflex.smcp" horiz-adv-x="556" unicode="&#62517;" /><glyph d="M432 749Q413 749 396 756.5Q379 764 366 777Q353 790 345 807Q337 824 337 843Q337 862 345 879Q353 896 366 909Q379 922 396 929.5Q413 937 432 937Q451 937 468 929.5Q485 922 498 909Q511 896 519 879Q527 862 527 843Q527 824 519 807Q511 790 498 777Q485 764 468 756.5Q451 749 432 749ZM224 749Q205 749 188 756.5Q171 764 158 777Q145 790 137 807Q129 824 129 843Q129 862 137 879Q145 896 158 909Q171 922 188 929.5Q205 937 224 937Q243 937 260 929.5Q277 922 290 909Q303 896 311 879Q319 862 319 843Q319 824 311 807Q303 790 290 777Q277 764 260 756.5Q243 749 224 749ZM620 525H261V444H443V260H261V176H620V0H60V700H620Z" glyph-name="Edieresis" horiz-adv-x="656" unicode="&#203;" /><glyph d="M378 769Q395 769 410.5 762Q426 755 438 743.5Q450 732 457 716.5Q464 701 464 684Q464 667 457 652Q450 637 438 625.5Q426 614 410.5 607Q395 600 378 600Q361 600 345.5 607Q330 614 318 625.5Q306 637 299 652Q292 667 292 684Q292 701 299 716.5Q306 732 318 743.5Q330 755 345.5 762Q361 769 378 769ZM188 769Q205 769 220.5 762Q236 755 248 743.5Q260 732 267 716.5Q274 701 274 684Q274 667 267 652Q260 637 248 625.5Q236 614 220.5 607Q205 600 188 600Q171 600 155.5 607Q140 614 128 625.5Q116 637 109 652Q102 667 102 684Q102 701 109 716.5Q116 732 128 743.5Q140 755 155.5 762Q171 769 188 769ZM520 397H241V362H370V199H241V165H520V0H54V560H520Z" glyph-name="Edieresis.smcp" horiz-adv-x="556" unicode="&#62518;" /><glyph d="M345 749Q326 749 309 756.5Q292 764 279 777Q266 790 258 807Q250 824 250 843Q250 862 258 879Q266 896 279 909Q292 922 309 929.5Q326 937 345 937Q364 937 381 929.5Q398 922 411 909Q424 896 432 879Q440 862 440 843Q440 824 432 807Q424 790 411 777Q398 764 381 756.5Q364 749 345 749ZM620 525H261V444H443V260H261V176H620V0H60V700H620Z" glyph-name="Edotaccent" horiz-adv-x="656" unicode="&#278;" /><glyph d="M282 769Q299 769 314.5 762Q330 755 342 743.5Q354 732 361 716.5Q368 701 368 684Q368 667 361 652Q354 637 342 625.5Q330 614 314.5 607Q299 600 282 600Q265 600 249.5 607Q234 614 222 625.5Q210 637 203 652Q196 667 196 684Q196 701 203 716.5Q210 732 222 743.5Q234 755 249.5 762Q265 769 282 769ZM520 397H241V362H370V199H241V165H520V0H54V560H520Z" glyph-name="Edotaccent.smcp" horiz-adv-x="556" unicode="&#62519;" /><glyph d="M429 752H256L159 929H388ZM620 525H261V444H443V260H261V176H620V0H60V700H620Z" glyph-name="Egrave" horiz-adv-x="656" unicode="&#200;" /><glyph d="M373 605H220L140 730H342ZM520 397H241V362H370V199H241V165H520V0H54V560H520Z" glyph-name="Egrave.smcp" horiz-adv-x="556" unicode="&#62520;" /><glyph d="M172 892H520V754H172ZM620 525H261V444H443V260H261V176H620V0H60V700H620Z" glyph-name="Emacron" horiz-adv-x="656" unicode="&#274;" /><glyph d="M138 730H436V605H138ZM520 397H241V362H370V199H241V165H520V0H54V560H520Z" glyph-name="Emacron.smcp" horiz-adv-x="556" unicode="&#62521;" /><glyph d="M259 0H60V700H303L479 339V700H678V-51Q678 -123 645.5 -161.5Q613 -200 526 -200H400V-23H446Q462 -23 468 -18Q474 -13 476 0H436L259 360Z" glyph-name="Eng" horiz-adv-x="738" unicode="&#330;" /><glyph d="M240 0H54V560H281L389 307V560H575V-53Q575 -122 543.5 -158.5Q512 -195 429 -195H320V-43H365Q388 -43 394.5 -35.5Q401 -28 401 -13V0H363L240 260Z" glyph-name="Eng.smcp" horiz-adv-x="629" unicode="&#62487;" /><glyph d="M620 525H261V444H443V260H261V176H620V0H545Q522 -17 514.5 -32Q507 -47 507 -58Q507 -74 519.5 -80.5Q532 -87 546 -87Q566 -87 583 -83Q600 -79 610 -77L606 -175Q595 -180 577 -184Q562 -188 539.5 -190.5Q517 -193 486 -193Q456 -193 430 -187.5Q404 -182 384.5 -170.5Q365 -159 353.5 -141Q342 -123 342 -97Q342 -67 361 -42Q380 -17 419 0H60V700H620Z" glyph-name="Eogonek" horiz-adv-x="656" unicode="&#280;" /><glyph d="M520 397H241V362H370V199H241V165H520V0H436Q410 -15 401.5 -27Q393 -39 393 -47Q393 -63 404.5 -68.5Q416 -74 431 -74Q439 -74 452 -71.5Q465 -69 472 -66L469 -153Q465 -155 441 -162Q417 -169 367 -169Q341 -169 318 -163.5Q295 -158 278 -147.5Q261 -137 251 -121.5Q241 -106 241 -85Q241 -57 262 -34Q283 -11 338 0H54V560H520Z" glyph-name="Eogonek.smcp" horiz-adv-x="556" unicode="&#62528;" /><glyph d="M511 350Q511 394 497 425.5Q483 457 460 476.5Q437 496 407.5 505Q378 514 346 514H270V444H425V260H270V186H346Q378 186 407.5 195Q437 204 460 223.5Q483 243 497 274Q511 305 511 350ZM4 444H69V700H357Q444 700 512.5 674.5Q581 649 628.5 603Q676 557 701 492.5Q726 428 726 350Q726 272 701 207.5Q676 143 628.5 97Q581 51 512.5 25.5Q444 0 357 0H69V260H4Z" glyph-name="Eth" horiz-adv-x="750" unicode="&#208;" /><glyph d="M404 280Q404 310 394.5 330Q385 350 370 362Q355 374 336.5 379Q318 384 300 384H244V341H343V219H244V176H300Q318 176 336.5 181Q355 186 370 198Q385 210 394.5 230Q404 250 404 280ZM21 341H57V560H308Q377 560 432.5 539.5Q488 519 526.5 482Q565 445 585.5 393.5Q606 342 606 280Q606 218 585.5 166.5Q565 115 526.5 78Q488 41 432.5 20.5Q377 0 308 0H57V219H21Z" glyph-name="Eth.smcp" horiz-adv-x="631" unicode="&#62498;" /><glyph d="M35 467H84Q100 522 132 567Q164 612 208.5 644.5Q253 677 308.5 694.5Q364 712 428 712Q488 712 544.5 693.5Q601 675 647.5 638.5Q694 602 728 547Q762 492 777 419H550Q520 519 425 519Q386 519 357.5 505Q329 491 311 467H466V366H278V350V335H466V234H310Q329 209 357 195Q385 181 425 181Q520 181 550 281H777Q762 208 728 153Q694 98 647.5 61.5Q601 25 544.5 6.5Q488 -12 428 -12Q364 -12 308.5 5.5Q253 23 208.5 55.5Q164 88 132 133Q100 178 84 234H35V335H68V350V366H35Z" glyph-name="Euro" horiz-adv-x="811" unicode="&#8364;" /><glyph d="M32 363H80Q93 409 119 447.5Q145 486 181 513Q217 540 260.5 555Q304 570 352 570Q410 570 458.5 552Q507 534 544 501Q581 468 605 423Q629 378 637 324H433Q425 356 403.5 374.5Q382 393 353 393Q315 393 291 363H375V292H266V280V268H375V197H291Q315 167 353 167Q382 167 403.5 185.5Q425 204 433 236H637Q629 182 605 137Q581 92 544 59Q507 26 458.5 8Q410 -10 352 -10Q304 -10 260.5 5Q217 20 181 47Q145 74 119 112Q93 150 80 197H32V268H70V280V292H32Z" glyph-name="Euro.smcp" horiz-adv-x="669" unicode="&#63111;" /><glyph d="M261 242V0H60V700H616V525H261V426H531V242Z" glyph-name="F" horiz-adv-x="625" unicode="F" /><glyph d="M241 175V0H54V560H521V397H241V338H457V175Z" glyph-name="F.smcp" horiz-adv-x="536" unicode="&#62262;" /><glyph d="M400 172Q442 172 478.5 190.5Q515 209 537 239H388V382H750V0H609V98Q594 75 570 55Q546 35 515.5 20Q485 5 449 -3.5Q413 -12 374 -12Q296 -12 231 15.5Q166 43 119.5 91.5Q73 140 47.5 206Q22 272 22 350Q22 429 51.5 495.5Q81 562 132 610Q183 658 251.5 685Q320 712 398 712Q471 712 533.5 691Q596 670 644 631.5Q692 593 724 539.5Q756 486 768 421L540 423Q526 468 489.5 496Q453 524 400 524Q363 524 333 510.5Q303 497 281.5 474Q260 451 248.5 418.5Q237 386 237 349Q237 311 248.5 278.5Q260 246 281.5 222.5Q303 199 333 185.5Q363 172 400 172Z" glyph-name="G" horiz-adv-x="793" unicode="G" /><glyph d="M225 275Q225 224 255.5 191.5Q286 159 334 159Q358 159 381 169.5Q404 180 418 199H307V302H620V0H494V78Q482 58 463 42Q444 26 419.5 14.5Q395 3 367.5 -3.5Q340 -10 312 -10Q252 -10 199 12Q146 34 107 73Q68 112 45.5 165Q23 218 23 280Q23 343 47 396.5Q71 450 112.5 488.5Q154 527 208.5 548.5Q263 570 324 570Q385 570 437 552Q489 534 529.5 501Q570 468 596 423Q622 378 630 324H419Q411 356 385 374.5Q359 393 327 393Q282 393 253.5 359Q225 325 225 275Z" glyph-name="G.smcp" horiz-adv-x="661" unicode="&#62263;" /><glyph d="M430 929H559V887Q559 849 546 821.5Q533 794 511 775.5Q489 757 459.5 748Q430 739 396 739Q362 739 332.5 748Q303 757 280.5 775.5Q258 794 245 821.5Q232 849 232 887V929H361V904Q361 882 370 873Q379 864 396 864Q413 864 421.5 873Q430 882 430 904ZM400 172Q442 172 478.5 190.5Q515 209 537 239H388V382H750V0H609V98Q594 75 570 55Q546 35 515.5 20Q485 5 449 -3.5Q413 -12 374 -12Q296 -12 231 15.5Q166 43 119.5 91.5Q73 140 47.5 206Q22 272 22 350Q22 429 51.5 495.5Q81 562 132 610Q183 658 251.5 685Q320 712 398 712Q471 712 533.5 691Q596 670 644 631.5Q692 593 724 539.5Q756 486 768 421L540 423Q526 468 489.5 496Q453 524 400 524Q363 524 333 510.5Q303 497 281.5 474Q260 451 248.5 418.5Q237 386 237 349Q237 311 248.5 278.5Q260 246 281.5 222.5Q303 199 333 185.5Q363 172 400 172Z" glyph-name="Gbreve" horiz-adv-x="791" unicode="&#286;" /><glyph d="M313 705Q338 705 338 728V735H456V723Q456 659 420 629.5Q384 600 314 600Q244 600 208 629.5Q172 659 172 723V735H290V728Q290 705 313 705ZM225 275Q225 224 255.5 191.5Q286 159 334 159Q358 159 381 169.5Q404 180 418 199H307V302H620V0H494V78Q482 58 463 42Q444 26 419.5 14.5Q395 3 367.5 -3.5Q340 -10 312 -10Q252 -10 199 12Q146 34 107 73Q68 112 45.5 165Q23 218 23 280Q23 343 47 396.5Q71 450 112.5 488.5Q154 527 208.5 548.5Q263 570 324 570Q385 570 437 552Q489 534 529.5 501Q570 468 596 423Q622 378 630 324H419Q411 356 385 374.5Q359 393 327 393Q282 393 253.5 359Q225 325 225 275Z" glyph-name="Gbreve.smcp" horiz-adv-x="661" unicode="&#62325;" /><glyph d="M368 752H198L297 929H493L592 752H422L395 810ZM400 172Q442 172 478.5 190.5Q515 209 537 239H388V382H750V0H609V98Q594 75 570 55Q546 35 515.5 20Q485 5 449 -3.5Q413 -12 374 -12Q296 -12 231 15.5Q166 43 119.5 91.5Q73 140 47.5 206Q22 272 22 350Q22 429 51.5 495.5Q81 562 132 610Q183 658 251.5 685Q320 712 398 712Q471 712 533.5 691Q596 670 644 631.5Q692 593 724 539.5Q756 486 768 421L540 423Q526 468 489.5 496Q453 524 400 524Q363 524 333 510.5Q303 497 281.5 474Q260 451 248.5 418.5Q237 386 237 349Q237 311 248.5 278.5Q260 246 281.5 222.5Q303 199 333 185.5Q363 172 400 172Z" glyph-name="Gcircumflex" horiz-adv-x="791" unicode="&#284;" /><glyph d="M316 641 291 605H146L218 730H414L486 605H341ZM225 275Q225 224 255.5 191.5Q286 159 334 159Q358 159 381 169.5Q404 180 418 199H307V302H620V0H494V78Q482 58 463 42Q444 26 419.5 14.5Q395 3 367.5 -3.5Q340 -10 312 -10Q252 -10 199 12Q146 34 107 73Q68 112 45.5 165Q23 218 23 280Q23 343 47 396.5Q71 450 112.5 488.5Q154 527 208.5 548.5Q263 570 324 570Q385 570 437 552Q489 534 529.5 501Q570 468 596 423Q622 378 630 324H419Q411 356 385 374.5Q359 393 327 393Q282 393 253.5 359Q225 325 225 275Z" glyph-name="Gcircumflex.smcp" horiz-adv-x="661" unicode="&#62326;" /><glyph d="M298 -134Q298 -113 306 -95Q314 -77 327.5 -63.5Q341 -50 359.5 -42Q378 -34 398 -34Q447 -34 474.5 -63.5Q502 -93 502 -134Q502 -151 494.5 -170.5Q487 -190 477 -204L408 -308H290L332 -207Q316 -193 307 -175Q298 -157 298 -134ZM400 172Q442 172 478.5 190.5Q515 209 537 239H388V382H750V0H609V98Q594 75 570 55Q546 35 515.5 20Q485 5 449 -3.5Q413 -12 374 -12Q296 -12 231 15.5Q166 43 119.5 91.5Q73 140 47.5 206Q22 272 22 350Q22 429 51.5 495.5Q81 562 132 610Q183 658 251.5 685Q320 712 398 712Q471 712 533.5 691Q596 670 644 631.5Q692 593 724 539.5Q756 486 768 421L540 423Q526 468 489.5 496Q453 524 400 524Q363 524 333 510.5Q303 497 281.5 474Q260 451 248.5 418.5Q237 386 237 349Q237 311 248.5 278.5Q260 246 281.5 222.5Q303 199 333 185.5Q363 172 400 172Z" glyph-name="Gcommaaccent" horiz-adv-x="791" unicode="&#290;" /><glyph d="M233 -129Q233 -111 240.5 -94.5Q248 -78 260 -66Q272 -54 288 -47Q304 -40 322 -40Q367 -40 391 -67Q415 -94 415 -129Q415 -146 408 -163Q401 -180 391 -193L334 -274H227L260 -192Q233 -165 233 -129ZM225 275Q225 224 255.5 191.5Q286 159 334 159Q358 159 381 169.5Q404 180 418 199H307V302H620V0H494V78Q482 58 463 42Q444 26 419.5 14.5Q395 3 367.5 -3.5Q340 -10 312 -10Q252 -10 199 12Q146 34 107 73Q68 112 45.5 165Q23 218 23 280Q23 343 47 396.5Q71 450 112.5 488.5Q154 527 208.5 548.5Q263 570 324 570Q385 570 437 552Q489 534 529.5 501Q570 468 596 423Q622 378 630 324H419Q411 356 385 374.5Q359 393 327 393Q282 393 253.5 359Q225 325 225 275Z" glyph-name="Gcommaaccent.smcp" horiz-adv-x="661" unicode="&#62484;" /><glyph d="M396 749Q377 749 360 756.5Q343 764 330 777Q317 790 309 807Q301 824 301 843Q301 862 309 879Q317 896 330 909Q343 922 360 929.5Q377 937 396 937Q415 937 432 929.5Q449 922 462 909Q475 896 483 879Q491 862 491 843Q491 824 483 807Q475 790 462 777Q449 764 432 756.5Q415 749 396 749ZM400 172Q442 172 478.5 190.5Q515 209 537 239H388V382H750V0H609V98Q594 75 570 55Q546 35 515.5 20Q485 5 449 -3.5Q413 -12 374 -12Q296 -12 231 15.5Q166 43 119.5 91.5Q73 140 47.5 206Q22 272 22 350Q22 429 51.5 495.5Q81 562 132 610Q183 658 251.5 685Q320 712 398 712Q471 712 533.5 691Q596 670 644 631.5Q692 593 724 539.5Q756 486 768 421L540 423Q526 468 489.5 496Q453 524 400 524Q363 524 333 510.5Q303 497 281.5 474Q260 451 248.5 418.5Q237 386 237 349Q237 311 248.5 278.5Q260 246 281.5 222.5Q303 199 333 185.5Q363 172 400 172Z" glyph-name="Gdotaccent" horiz-adv-x="791" unicode="&#288;" /><glyph d="M315 769Q332 769 347.5 762Q363 755 375 743.5Q387 732 394 716.5Q401 701 401 684Q401 667 394 652Q387 637 375 625.5Q363 614 347.5 607Q332 600 315 600Q298 600 282.5 607Q267 614 255 625.5Q243 637 236 652Q229 667 229 684Q229 701 236 716.5Q243 732 255 743.5Q267 755 282.5 762Q298 769 315 769ZM225 275Q225 224 255.5 191.5Q286 159 334 159Q358 159 381 169.5Q404 180 418 199H307V302H620V0H494V78Q482 58 463 42Q444 26 419.5 14.5Q395 3 367.5 -3.5Q340 -10 312 -10Q252 -10 199 12Q146 34 107 73Q68 112 45.5 165Q23 218 23 280Q23 343 47 396.5Q71 450 112.5 488.5Q154 527 208.5 548.5Q263 570 324 570Q385 570 437 552Q489 534 529.5 501Q570 468 596 423Q622 378 630 324H419Q411 356 385 374.5Q359 393 327 393Q282 393 253.5 359Q225 325 225 275Z" glyph-name="Gdotaccent.smcp" horiz-adv-x="661" unicode="&#62327;" /><glyph d="M477 0V260H261V0H60V700H261V444H477V700H678V0Z" glyph-name="H" horiz-adv-x="738" unicode="H" /><glyph d="M388 0V194H241V0H54V560H241V367H388V560H575V0Z" glyph-name="H.smcp" horiz-adv-x="629" unicode="&#62264;" /><glyph d="M484 444V490H268V444ZM7 645H67V700H268V645H484V700H685V645H745V490H685V0H484V260H268V0H67V490H7Z" glyph-name="Hbar" horiz-adv-x="752" unicode="&#294;" /><glyph d="M391 367V402H244V367ZM15 508H57V560H244V508H391V560H578V508H620V402H578V0H391V194H244V0H57V402H15Z" glyph-name="Hbar.smcp" horiz-adv-x="635" unicode="&#62499;" /><glyph d="M341 752H171L270 929H466L565 752H395L368 810ZM477 0V260H261V0H60V700H261V444H477V700H678V0Z" glyph-name="Hcircumflex" horiz-adv-x="738" unicode="&#292;" /><glyph d="M314 641 289 605H144L216 730H412L484 605H339ZM388 0V194H241V0H54V560H241V367H388V560H575V0Z" glyph-name="Hcircumflex.smcp" horiz-adv-x="629" unicode="&#62328;" /><glyph d="M60 700H261V0H60Z" glyph-name="I" horiz-adv-x="321" unicode="I" /><glyph d="M54 560H241V0H54Z" glyph-name="I.smcp" horiz-adv-x="295" unicode="&#62265;" /><glyph d="M711 700H910V237Q910 185 891 139.5Q872 94 835.5 60.5Q799 27 745 7.5Q691 -12 621 -12Q552 -12 498.5 7.5Q445 27 409 60.5Q373 94 354.5 139.5Q336 185 336 237V321H535V277Q535 227 555 201.5Q575 176 623 176Q671 176 691 201.5Q711 227 711 277ZM60 700H261V0H60Z" glyph-name="IJ" horiz-adv-x="963" unicode="&#306;" /><glyph d="M368 17Q388 17 393.5 25.5Q399 34 399 59V700H600V-11Q600 -83 567.5 -121.5Q535 -160 448 -160H322V17ZM60 700H261V0H60Z" glyph-name="IJ.alt" horiz-adv-x="660" unicode="&#59530;" /><glyph d="M605 560H792V192Q792 150 776 113Q760 76 728.5 49Q697 22 651.5 6Q606 -10 548 -10Q491 -10 446.5 6Q402 22 371.5 49Q341 76 325.5 113Q310 150 310 192V286H495V231Q495 197 511 182Q527 167 550 167Q573 167 589 182Q605 197 605 231ZM54 560H241V0H54Z" glyph-name="IJ.smcp" horiz-adv-x="840" unicode="&#62341;" /><glyph d="M118 929H347L250 752H77ZM60 700H261V0H60Z" glyph-name="Iacute" horiz-adv-x="321" unicode="&#205;" /><glyph d="M103 730H305L225 605H72ZM54 560H241V0H54Z" glyph-name="Iacute.smcp" horiz-adv-x="295" unicode="&#62329;" /><glyph d="M195 929H324V887Q324 849 311 821.5Q298 794 276 775.5Q254 757 224.5 748Q195 739 161 739Q127 739 97.5 748Q68 757 45.5 775.5Q23 794 10 821.5Q-3 849 -3 887V929H126V904Q126 882 135 873Q144 864 161 864Q178 864 186.5 873Q195 882 195 904ZM60 700H261V0H60Z" glyph-name="Ibreve" horiz-adv-x="321" unicode="&#300;" /><glyph d="M148 705Q173 705 173 728V735H291V723Q291 659 255 629.5Q219 600 149 600Q79 600 43 629.5Q7 659 7 723V735H125V728Q125 705 148 705ZM54 560H241V0H54Z" glyph-name="Ibreve.smcp" horiz-adv-x="295" unicode="&#62336;" /><glyph d="M133 752H-37L62 929H258L357 752H187L160 810ZM60 700H261V0H60Z" glyph-name="Icircumflex" horiz-adv-x="321" unicode="&#206;" /><glyph d="M148 641 123 605H-22L50 730H246L318 605H173ZM54 560H241V0H54Z" glyph-name="Icircumflex.smcp" horiz-adv-x="295" unicode="&#62337;" /><glyph d="M265 749Q246 749 229 756.5Q212 764 199 777Q186 790 178 807Q170 824 170 843Q170 862 178 879Q186 896 199 909Q212 922 229 929.5Q246 937 265 937Q284 937 301 929.5Q318 922 331 909Q344 896 352 879Q360 862 360 843Q360 824 352 807Q344 790 331 777Q318 764 301 756.5Q284 749 265 749ZM57 749Q38 749 21 756.5Q4 764 -9 777Q-22 790 -30 807Q-38 824 -38 843Q-38 862 -30 879Q-22 896 -9 909Q4 922 21 929.5Q38 937 57 937Q76 937 93 929.5Q110 922 123 909Q136 896 144 879Q152 862 152 843Q152 824 144 807Q136 790 123 777Q110 764 93 756.5Q76 749 57 749ZM60 700H261V0H60Z" glyph-name="Idieresis" horiz-adv-x="321" unicode="&#207;" /><glyph d="M241 769Q258 769 273.5 762Q289 755 301 743.5Q313 732 320 716.5Q327 701 327 684Q327 667 320 652Q313 637 301 625.5Q289 614 273.5 607Q258 600 241 600Q224 600 208.5 607Q193 614 181 625.5Q169 637 162 652Q155 667 155 684Q155 701 162 716.5Q169 732 181 743.5Q193 755 208.5 762Q224 769 241 769ZM51 769Q68 769 83.5 762Q99 755 111 743.5Q123 732 130 716.5Q137 701 137 684Q137 667 130 652Q123 637 111 625.5Q99 614 83.5 607Q68 600 51 600Q34 600 18.5 607Q3 614 -9 625.5Q-21 637 -28 652Q-35 667 -35 684Q-35 701 -28 716.5Q-21 732 -9 743.5Q3 755 18.5 762Q34 769 51 769ZM54 560H241V0H54Z" glyph-name="Idieresis.smcp" horiz-adv-x="295" unicode="&#62338;" /><glyph d="M160 749Q141 749 124 756.5Q107 764 94 777Q81 790 73 807Q65 824 65 843Q65 862 73 879Q81 896 94 909Q107 922 124 929.5Q141 937 160 937Q179 937 196 929.5Q213 922 226 909Q239 896 247 879Q255 862 255 843Q255 824 247 807Q239 790 226 777Q213 764 196 756.5Q179 749 160 749ZM60 700H261V0H60Z" glyph-name="Idotaccent" horiz-adv-x="321" unicode="&#304;" /><glyph d="M148 769Q165 769 180.5 762Q196 755 208 743.5Q220 732 227 716.5Q234 701 234 684Q234 667 227 652Q220 637 208 625.5Q196 614 180.5 607Q165 600 148 600Q131 600 115.5 607Q100 614 88 625.5Q76 637 69 652Q62 667 62 684Q62 701 69 716.5Q76 732 88 743.5Q100 755 115.5 762Q131 769 148 769ZM54 560H241V0H54Z" glyph-name="Idotaccent.smcp" horiz-adv-x="295" unicode="&#62339;" /><glyph d="M245 752H72L-25 929H204ZM60 700H261V0H60Z" glyph-name="Igrave" horiz-adv-x="321" unicode="&#204;" /><glyph d="M223 605H70L-10 730H192ZM54 560H241V0H54Z" glyph-name="Igrave.smcp" horiz-adv-x="295" unicode="&#62340;" /><glyph d="M-13 892H335V754H-13ZM60 700H261V0H60Z" glyph-name="Imacron" horiz-adv-x="321" unicode="&#298;" /><glyph d="M-1 730H297V605H-1ZM54 560H241V0H54Z" glyph-name="Imacron.smcp" horiz-adv-x="295" unicode="&#62489;" /><glyph d="M60 700H261V0H220Q197 -17 189.5 -32Q182 -47 182 -58Q182 -74 194.5 -80.5Q207 -87 221 -87Q241 -87 258 -83Q275 -79 285 -77L281 -175Q270 -180 252 -184Q237 -188 214.5 -190.5Q192 -193 161 -193Q131 -193 105 -187.5Q79 -182 59.5 -170.5Q40 -159 28.5 -141Q17 -123 17 -97Q17 -67 36 -42Q55 -17 94 0H60Z" glyph-name="Iogonek" horiz-adv-x="321" unicode="&#302;" /><glyph d="M54 560H241V0H223Q197 -15 188.5 -27Q180 -39 180 -47Q180 -63 191.5 -68.5Q203 -74 218 -74Q226 -74 239 -71.5Q252 -69 259 -66L256 -153Q252 -155 228 -162Q204 -169 154 -169Q128 -169 105 -163.5Q82 -158 65 -147.5Q48 -137 38 -121.5Q28 -106 28 -85Q28 -57 49 -34Q70 -11 125 0H54Z" glyph-name="Iogonek.smcp" horiz-adv-x="295" unicode="&#62342;" /><glyph d="M-25 751Q-25 766 -23 793.5Q-21 821 -10 848Q1 875 24.5 894.5Q48 914 92 914Q108 914 122.5 910Q137 906 150 901.5Q163 897 173.5 893Q184 889 192 889Q200 889 203.5 894Q207 899 207 906V913H347V907Q347 893 345.5 865.5Q344 838 333.5 811Q323 784 299 764Q275 744 230 744Q214 744 199.5 748Q185 752 172 756.5Q159 761 148.5 765Q138 769 130 769Q122 769 118.5 764Q115 759 115 752V744H-25ZM60 700H261V0H60Z" glyph-name="Itilde" horiz-adv-x="321" unicode="&#296;" /><glyph d="M205 600Q193 600 179 603Q165 606 152 610Q139 614 127.5 617Q116 620 110 620Q100 620 100 609V605H-8V616Q-8 628 -7 649Q-6 670 3 690Q12 710 32 725Q52 740 91 740Q103 740 117 737Q131 734 144 730Q157 726 168.5 723Q180 720 186 720Q196 720 196 731V735H304V710Q304 698 303 679.5Q302 661 293 643Q284 625 264 612.5Q244 600 205 600ZM54 560H241V0H54Z" glyph-name="Itilde.smcp" horiz-adv-x="295" unicode="&#62343;" /><glyph d="M390 700H589V237Q589 185 570 139.5Q551 94 514.5 60.5Q478 27 424 7.5Q370 -12 300 -12Q231 -12 177.5 7.5Q124 27 88 60.5Q52 94 33.5 139.5Q15 185 15 237V321H214V277Q214 227 234 201.5Q254 176 302 176Q350 176 370 201.5Q390 227 390 277Z" glyph-name="J" horiz-adv-x="642" unicode="J" /><glyph d="M47 17Q67 17 72.5 25.5Q78 34 78 59V700H279V-11Q279 -83 246.5 -121.5Q214 -160 127 -160H1V17Z" glyph-name="J.alt" horiz-adv-x="339" unicode="&#58505;" /><glyph d="M310 560H497V192Q497 150 481 113Q465 76 433.5 49Q402 22 356.5 6Q311 -10 253 -10Q196 -10 151.5 6Q107 22 76.5 49Q46 76 30.5 113Q15 150 15 192V286H200V231Q200 197 216 182Q232 167 255 167Q278 167 294 182Q310 197 310 231Z" glyph-name="J.smcp" horiz-adv-x="545" unicode="&#62272;" /><glyph d="M279 752H109L208 929H404L503 752H333L306 810ZM390 700H589V237Q589 185 570 139.5Q551 94 514.5 60.5Q478 27 424 7.5Q370 -12 300 -12Q231 -12 177.5 7.5Q124 27 88 60.5Q52 94 33.5 139.5Q15 185 15 237V321H214V277Q214 227 234 201.5Q254 176 302 176Q350 176 370 201.5Q390 227 390 277Z" glyph-name="Jcircumflex" horiz-adv-x="642" unicode="&#308;" /><glyph d="M260 641 235 605H90L162 730H358L430 605H285ZM310 560H497V192Q497 150 481 113Q465 76 433.5 49Q402 22 356.5 6Q311 -10 253 -10Q196 -10 151.5 6Q107 22 76.5 49Q46 76 30.5 113Q15 150 15 192V286H200V231Q200 197 216 182Q232 167 255 167Q278 167 294 182Q310 197 310 231Z" glyph-name="Jcircumflex.smcp" horiz-adv-x="545" unicode="&#62344;" /><glyph d="M261 445H291L457 700H691L465 366L680 0H437L289 270H261V0H60V700H261Z" glyph-name="K" horiz-adv-x="680" unicode="K" /><glyph d="M241 365H264L369 560H584L428 292L576 0H351L263 201H241V0H54V560H241Z" glyph-name="K.smcp" horiz-adv-x="585" unicode="&#62273;" /><glyph d="M242 -134Q242 -113 250 -95Q258 -77 271.5 -63.5Q285 -50 303.5 -42Q322 -34 342 -34Q391 -34 418.5 -63.5Q446 -93 446 -134Q446 -151 438.5 -170.5Q431 -190 421 -204L352 -308H234L276 -207Q260 -193 251 -175Q242 -157 242 -134ZM261 445H291L457 700H691L465 366L680 0H437L289 270H261V0H60V700H261Z" glyph-name="Kcommaaccent" horiz-adv-x="680" unicode="&#310;" /><glyph d="M187 -129Q187 -111 194.5 -94.5Q202 -78 214 -66Q226 -54 242 -47Q258 -40 276 -40Q321 -40 345 -67Q369 -94 369 -129Q369 -146 362 -163Q355 -180 345 -193L288 -274H181L214 -192Q187 -165 187 -129ZM241 365H264L369 560H584L428 292L576 0H351L263 201H241V0H54V560H241Z" glyph-name="Kcommaaccent.smcp" horiz-adv-x="585" unicode="&#62345;" /><glyph d="M60 0V700H261V182H549V0Z" glyph-name="L" horiz-adv-x="561" unicode="L" /><glyph d="M54 0V560H241V171H468V0Z" glyph-name="L.smcp" horiz-adv-x="482" unicode="&#62274;" /><glyph d="M233 929H462L365 752H192ZM60 0V700H261V182H549V0Z" glyph-name="Lacute" horiz-adv-x="561" unicode="&#313;" /><glyph d="M164 730H366L286 605H133ZM54 0V560H241V171H468V0Z" glyph-name="Lacute.smcp" horiz-adv-x="482" unicode="&#62352;" /><glyph d="M333 438 375 539Q359 553 350 571Q341 589 341 612Q341 633 349 651Q357 669 370.5 682.5Q384 696 402.5 704Q421 712 441 712Q490 712 517 682.5Q544 653 544 612Q544 595 538 576Q532 557 522 543L451 438ZM60 0V700H261V182H549V0Z" glyph-name="Lcaron" horiz-adv-x="564" unicode="&#317;" /><glyph d="M296 482Q296 500 303.5 516.5Q311 533 323 545Q335 557 351 564Q367 571 385 571Q430 571 454 544Q478 517 478 482Q478 465 471 448Q464 431 454 418L397 337H290L323 419Q296 446 296 482ZM54 0V560H241V171H468V0Z" glyph-name="Lcaron.smcp" horiz-adv-x="488" unicode="&#62496;" /><glyph d="M181 -134Q181 -113 189 -95Q197 -77 210.5 -63.5Q224 -50 242.5 -42Q261 -34 281 -34Q330 -34 357.5 -63.5Q385 -93 385 -134Q385 -151 377.5 -170.5Q370 -190 360 -204L291 -308H173L215 -207Q199 -193 190 -175Q181 -157 181 -134ZM60 0V700H261V182H549V0Z" glyph-name="Lcommaaccent" horiz-adv-x="561" unicode="&#315;" /><glyph d="M157 -129Q157 -111 164.5 -94.5Q172 -78 184 -66Q196 -54 212 -47Q228 -40 246 -40Q291 -40 315 -67Q339 -94 339 -129Q339 -146 332 -163Q325 -180 315 -193L258 -274H151L184 -192Q157 -165 157 -129ZM54 0V560H241V171H468V0Z" glyph-name="Lcommaaccent.smcp" horiz-adv-x="482" unicode="&#62488;" /><glyph d="M319 407Q319 431 328 451.5Q337 472 352 487Q367 502 387 511Q407 520 430 520Q454 520 474.5 511Q495 502 510 487Q525 472 534 451.5Q543 431 543 407Q543 384 534 364Q525 344 510 329Q495 314 474.5 305Q454 296 430 296Q407 296 387 305Q367 314 352 329Q337 344 328 364Q319 384 319 407ZM60 0V700H261V182H549V0Z" glyph-name="Ldot" horiz-adv-x="562" unicode="&#319;" /><glyph d="M364 229Q345 229 328 236.5Q311 244 298 257Q285 270 277 287Q269 304 269 323Q269 342 277 359Q285 376 298 389Q311 402 328 409.5Q345 417 364 417Q383 417 400 409.5Q417 402 430 389Q443 376 451 359Q459 342 459 323Q459 304 451 287Q443 270 430 257Q417 244 400 236.5Q383 229 364 229ZM54 0V560H241V171H468V0Z" glyph-name="Ldot.smcp" horiz-adv-x="483" unicode="&#62501;" /><glyph d="M13 336 64 354V700H265V426L398 474V355L265 307V182H553V0H64V236L13 218Z" glyph-name="Lslash" horiz-adv-x="565" unicode="&#321;" /><glyph d="M15 294 58 308V560H245V370L334 400V270L245 240V171H472V0H58V178L15 164Z" glyph-name="Lslash.smcp" horiz-adv-x="486" unicode="&#62502;" /><glyph d="M347 150 257 400V0H60V700H330L432 408L541 700H795V0H595V400L505 150Z" glyph-name="M" horiz-adv-x="855" unicode="M" /><glyph d="M419 560H660V0H473V284L425 139H287L240 284V0H54V560H309L362 364Z" glyph-name="M.smcp" horiz-adv-x="714" unicode="&#62275;" /><glyph d="M259 0H60V700H303L479 339V700H678V0H436L259 360Z" glyph-name="N" horiz-adv-x="738" unicode="N" /><glyph d="M240 0H54V560H281L389 307V560H575V0H363L240 260Z" glyph-name="N.smcp" horiz-adv-x="629" unicode="&#62276;" /><glyph d="M313 929H542L445 752H272ZM259 0H60V700H303L479 339V700H678V0H436L259 360Z" glyph-name="Nacute" horiz-adv-x="738" unicode="&#323;" /><glyph d="M262 730H464L384 605H231ZM240 0H54V560H281L389 307V560H575V0H363L240 260Z" glyph-name="Nacute.smcp" horiz-adv-x="629" unicode="&#62353;" /><glyph d="M370 871 397 929H567L468 752H272L173 929H343ZM259 0H60V700H303L479 339V700H678V0H436L259 360Z" glyph-name="Ncaron" horiz-adv-x="738" unicode="&#327;" /><glyph d="M347 730H492L420 605H224L152 730H297L322 694ZM240 0H54V560H281L389 307V560H575V0H363L240 260Z" glyph-name="Ncaron.smcp" horiz-adv-x="629" unicode="&#62354;" /><glyph d="M262 -134Q262 -113 270 -95Q278 -77 291.5 -63.5Q305 -50 323.5 -42Q342 -34 362 -34Q411 -34 438.5 -63.5Q466 -93 466 -134Q466 -151 458.5 -170.5Q451 -190 441 -204L372 -308H254L296 -207Q280 -193 271 -175Q262 -157 262 -134ZM259 0H60V700H303L479 339V700H678V0H436L259 360Z" glyph-name="Ncommaaccent" horiz-adv-x="738" unicode="&#325;" /><glyph d="M208 -129Q208 -111 215.5 -94.5Q223 -78 235 -66Q247 -54 263 -47Q279 -40 297 -40Q342 -40 366 -67Q390 -94 390 -129Q390 -146 383 -163Q376 -180 366 -193L309 -274H202L235 -192Q208 -165 208 -129ZM240 0H54V560H281L389 307V560H575V0H363L240 260Z" glyph-name="Ncommaaccent.smcp" horiz-adv-x="629" unicode="&#62355;" /><glyph d="M183 751Q183 766 185 793.5Q187 821 198 848Q209 875 232.5 894.5Q256 914 300 914Q316 914 330.5 910Q345 906 358 901.5Q371 897 381.5 893Q392 889 400 889Q408 889 411.5 894Q415 899 415 906V913H555V907Q555 893 553.5 865.5Q552 838 541.5 811Q531 784 507 764Q483 744 438 744Q422 744 407.5 748Q393 752 380 756.5Q367 761 356.5 765Q346 769 338 769Q330 769 326.5 764Q323 759 323 752V744H183ZM259 0H60V700H303L479 339V700H678V0H436L259 360Z" glyph-name="Ntilde" horiz-adv-x="738" unicode="&#209;" /><glyph d="M375 600Q363 600 349 603Q335 606 322 610Q309 614 297.5 617Q286 620 280 620Q270 620 270 609V605H162V616Q162 628 163 649Q164 670 173 690Q182 710 202 725Q222 740 261 740Q273 740 287 737Q301 734 314 730Q327 726 338.5 723Q350 720 356 720Q366 720 366 731V735H474V710Q474 698 473 679.5Q472 661 463 643Q454 625 434 612.5Q414 600 375 600ZM240 0H54V560H281L389 307V560H575V0H363L240 260Z" glyph-name="Ntilde.smcp" horiz-adv-x="629" unicode="&#62356;" /><glyph d="M391 176Q426 176 454.5 189Q483 202 503 225.5Q523 249 534 280.5Q545 312 545 350Q545 388 534 420Q523 452 503 475Q483 498 454.5 511Q426 524 391 524Q356 524 327.5 511Q299 498 279 475Q259 452 248 420Q237 388 237 350Q237 312 248 280.5Q259 249 279 225.5Q299 202 327.5 189Q356 176 391 176ZM391 712Q467 712 534.5 685Q602 658 652 610Q702 562 731 495.5Q760 429 760 350Q760 271 731 204.5Q702 138 652 90Q602 42 534.5 15Q467 -12 391 -12Q314 -12 247 15Q180 42 130 90Q80 138 51 204.5Q22 271 22 350Q22 429 51 495.5Q80 562 130 610Q180 658 247 685Q314 712 391 712Z" glyph-name="O" horiz-adv-x="782" unicode="O" /><glyph d="M320 167Q365 167 390 199Q415 231 415 280Q415 330 390 361.5Q365 393 320 393Q275 393 250 361.5Q225 330 225 280Q225 231 250 199Q275 167 320 167ZM320 570Q381 570 435.5 548.5Q490 527 530 488.5Q570 450 593.5 396.5Q617 343 617 280Q617 217 593.5 163.5Q570 110 530 71.5Q490 33 435.5 11.5Q381 -10 320 -10Q258 -10 204 11.5Q150 33 110 71.5Q70 110 46.5 163.5Q23 217 23 280Q23 343 46.5 396.5Q70 450 110 488.5Q150 527 204 548.5Q258 570 320 570Z" glyph-name="O.smcp" horiz-adv-x="640" unicode="&#62277;" /><glyph d="M230 350Q230 305 244.5 272.5Q259 240 281.5 218.5Q304 197 330 186.5Q356 176 379 176H471V525H379Q356 525 330 514.5Q304 504 281.5 482Q259 460 244.5 427.5Q230 395 230 350ZM1041 525H672V444H853V270H672V176H1041V0H393Q307 0 238.5 25.5Q170 51 122.5 97Q75 143 49.5 207.5Q24 272 24 350Q24 428 49.5 492.5Q75 557 122.5 603Q170 649 238.5 674.5Q307 700 393 700H1041Z" glyph-name="OE" horiz-adv-x="1077" unicode="&#338;" /><glyph d="M227 280Q227 250 236.5 230Q246 210 261 198Q276 186 294.5 181Q313 176 331 176H387V384H331Q313 384 294.5 379Q276 374 261 362Q246 350 236.5 330Q227 310 227 280ZM853 397H574V367H703V194H574V165H853V0H323Q254 0 198.5 20.5Q143 41 104.5 78Q66 115 45.5 166.5Q25 218 25 280Q25 342 45.5 393.5Q66 445 104.5 482Q143 519 198.5 539.5Q254 560 323 560H853Z" glyph-name="OE.smcp" horiz-adv-x="889" unicode="&#62295;" /><glyph d="M358 929H587L490 752H317ZM391 176Q426 176 454.5 189Q483 202 503 225.5Q523 249 534 280.5Q545 312 545 350Q545 388 534 420Q523 452 503 475Q483 498 454.5 511Q426 524 391 524Q356 524 327.5 511Q299 498 279 475Q259 452 248 420Q237 388 237 350Q237 312 248 280.5Q259 249 279 225.5Q299 202 327.5 189Q356 176 391 176ZM391 712Q467 712 534.5 685Q602 658 652 610Q702 562 731 495.5Q760 429 760 350Q760 271 731 204.5Q702 138 652 90Q602 42 534.5 15Q467 -12 391 -12Q314 -12 247 15Q180 42 130 90Q80 138 51 204.5Q22 271 22 350Q22 429 51 495.5Q80 562 130 610Q180 658 247 685Q314 712 391 712Z" glyph-name="Oacute" horiz-adv-x="782" unicode="&#211;" /><glyph d="M282 730H484L404 605H251ZM320 167Q365 167 390 199Q415 231 415 280Q415 330 390 361.5Q365 393 320 393Q275 393 250 361.5Q225 330 225 280Q225 231 250 199Q275 167 320 167ZM320 570Q381 570 435.5 548.5Q490 527 530 488.5Q570 450 593.5 396.5Q617 343 617 280Q617 217 593.5 163.5Q570 110 530 71.5Q490 33 435.5 11.5Q381 -10 320 -10Q258 -10 204 11.5Q150 33 110 71.5Q70 110 46.5 163.5Q23 217 23 280Q23 343 46.5 396.5Q70 450 110 488.5Q150 527 204 548.5Q258 570 320 570Z" glyph-name="Oacute.smcp" horiz-adv-x="640" unicode="&#62357;" /><glyph d="M425 929H554V887Q554 849 541 821.5Q528 794 506 775.5Q484 757 454.5 748Q425 739 391 739Q357 739 327.5 748Q298 757 275.5 775.5Q253 794 240 821.5Q227 849 227 887V929H356V904Q356 882 365 873Q374 864 391 864Q408 864 416.5 873Q425 882 425 904ZM391 176Q426 176 454.5 189Q483 202 503 225.5Q523 249 534 280.5Q545 312 545 350Q545 388 534 420Q523 452 503 475Q483 498 454.5 511Q426 524 391 524Q356 524 327.5 511Q299 498 279 475Q259 452 248 420Q237 388 237 350Q237 312 248 280.5Q259 249 279 225.5Q299 202 327.5 189Q356 176 391 176ZM391 712Q467 712 534.5 685Q602 658 652 610Q702 562 731 495.5Q760 429 760 350Q760 271 731 204.5Q702 138 652 90Q602 42 534.5 15Q467 -12 391 -12Q314 -12 247 15Q180 42 130 90Q80 138 51 204.5Q22 271 22 350Q22 429 51 495.5Q80 562 130 610Q180 658 247 685Q314 712 391 712Z" glyph-name="Obreve" horiz-adv-x="782" unicode="&#334;" /><glyph d="M320 705Q345 705 345 728V735H463V723Q463 659 427 629.5Q391 600 321 600Q251 600 215 629.5Q179 659 179 723V735H297V728Q297 705 320 705ZM320 167Q365 167 390 199Q415 231 415 280Q415 330 390 361.5Q365 393 320 393Q275 393 250 361.5Q225 330 225 280Q225 231 250 199Q275 167 320 167ZM320 570Q381 570 435.5 548.5Q490 527 530 488.5Q570 450 593.5 396.5Q617 343 617 280Q617 217 593.5 163.5Q570 110 530 71.5Q490 33 435.5 11.5Q381 -10 320 -10Q258 -10 204 11.5Q150 33 110 71.5Q70 110 46.5 163.5Q23 217 23 280Q23 343 46.5 396.5Q70 450 110 488.5Q150 527 204 548.5Q258 570 320 570Z" glyph-name="Obreve.smcp" horiz-adv-x="640" unicode="&#62534;" /><glyph d="M363 752H193L292 929H488L587 752H417L390 810ZM391 176Q426 176 454.5 189Q483 202 503 225.5Q523 249 534 280.5Q545 312 545 350Q545 388 534 420Q523 452 503 475Q483 498 454.5 511Q426 524 391 524Q356 524 327.5 511Q299 498 279 475Q259 452 248 420Q237 388 237 350Q237 312 248 280.5Q259 249 279 225.5Q299 202 327.5 189Q356 176 391 176ZM391 712Q467 712 534.5 685Q602 658 652 610Q702 562 731 495.5Q760 429 760 350Q760 271 731 204.5Q702 138 652 90Q602 42 534.5 15Q467 -12 391 -12Q314 -12 247 15Q180 42 130 90Q80 138 51 204.5Q22 271 22 350Q22 429 51 495.5Q80 562 130 610Q180 658 247 685Q314 712 391 712Z" glyph-name="Ocircumflex" horiz-adv-x="782" unicode="&#212;" /><glyph d="M318 641 293 605H148L220 730H416L488 605H343ZM320 167Q365 167 390 199Q415 231 415 280Q415 330 390 361.5Q365 393 320 393Q275 393 250 361.5Q225 330 225 280Q225 231 250 199Q275 167 320 167ZM320 570Q381 570 435.5 548.5Q490 527 530 488.5Q570 450 593.5 396.5Q617 343 617 280Q617 217 593.5 163.5Q570 110 530 71.5Q490 33 435.5 11.5Q381 -10 320 -10Q258 -10 204 11.5Q150 33 110 71.5Q70 110 46.5 163.5Q23 217 23 280Q23 343 46.5 396.5Q70 450 110 488.5Q150 527 204 548.5Q258 570 320 570Z" glyph-name="Ocircumflex.smcp" horiz-adv-x="640" unicode="&#62535;" /><glyph d="M495 749Q476 749 459 756.5Q442 764 429 777Q416 790 408 807Q400 824 400 843Q400 862 408 879Q416 896 429 909Q442 922 459 929.5Q476 937 495 937Q514 937 531 929.5Q548 922 561 909Q574 896 582 879Q590 862 590 843Q590 824 582 807Q574 790 561 777Q548 764 531 756.5Q514 749 495 749ZM287 749Q268 749 251 756.5Q234 764 221 777Q208 790 200 807Q192 824 192 843Q192 862 200 879Q208 896 221 909Q234 922 251 929.5Q268 937 287 937Q306 937 323 929.5Q340 922 353 909Q366 896 374 879Q382 862 382 843Q382 824 374 807Q366 790 353 777Q340 764 323 756.5Q306 749 287 749ZM391 176Q426 176 454.5 189Q483 202 503 225.5Q523 249 534 280.5Q545 312 545 350Q545 388 534 420Q523 452 503 475Q483 498 454.5 511Q426 524 391 524Q356 524 327.5 511Q299 498 279 475Q259 452 248 420Q237 388 237 350Q237 312 248 280.5Q259 249 279 225.5Q299 202 327.5 189Q356 176 391 176ZM391 712Q467 712 534.5 685Q602 658 652 610Q702 562 731 495.5Q760 429 760 350Q760 271 731 204.5Q702 138 652 90Q602 42 534.5 15Q467 -12 391 -12Q314 -12 247 15Q180 42 130 90Q80 138 51 204.5Q22 271 22 350Q22 429 51 495.5Q80 562 130 610Q180 658 247 685Q314 712 391 712Z" glyph-name="Odieresis" horiz-adv-x="782" unicode="&#214;" /><glyph d="M414 769Q431 769 446.5 762Q462 755 474 743.5Q486 732 493 716.5Q500 701 500 684Q500 667 493 652Q486 637 474 625.5Q462 614 446.5 607Q431 600 414 600Q397 600 381.5 607Q366 614 354 625.5Q342 637 335 652Q328 667 328 684Q328 701 335 716.5Q342 732 354 743.5Q366 755 381.5 762Q397 769 414 769ZM224 769Q241 769 256.5 762Q272 755 284 743.5Q296 732 303 716.5Q310 701 310 684Q310 667 303 652Q296 637 284 625.5Q272 614 256.5 607Q241 600 224 600Q207 600 191.5 607Q176 614 164 625.5Q152 637 145 652Q138 667 138 684Q138 701 145 716.5Q152 732 164 743.5Q176 755 191.5 762Q207 769 224 769ZM320 167Q365 167 390 199Q415 231 415 280Q415 330 390 361.5Q365 393 320 393Q275 393 250 361.5Q225 330 225 280Q225 231 250 199Q275 167 320 167ZM320 570Q381 570 435.5 548.5Q490 527 530 488.5Q570 450 593.5 396.5Q617 343 617 280Q617 217 593.5 163.5Q570 110 530 71.5Q490 33 435.5 11.5Q381 -10 320 -10Q258 -10 204 11.5Q150 33 110 71.5Q70 110 46.5 163.5Q23 217 23 280Q23 343 46.5 396.5Q70 450 110 488.5Q150 527 204 548.5Q258 570 320 570Z" glyph-name="Odieresis.smcp" horiz-adv-x="640" unicode="&#62536;" /><glyph d="M463 752H290L193 929H422ZM391 176Q426 176 454.5 189Q483 202 503 225.5Q523 249 534 280.5Q545 312 545 350Q545 388 534 420Q523 452 503 475Q483 498 454.5 511Q426 524 391 524Q356 524 327.5 511Q299 498 279 475Q259 452 248 420Q237 388 237 350Q237 312 248 280.5Q259 249 279 225.5Q299 202 327.5 189Q356 176 391 176ZM391 712Q467 712 534.5 685Q602 658 652 610Q702 562 731 495.5Q760 429 760 350Q760 271 731 204.5Q702 138 652 90Q602 42 534.5 15Q467 -12 391 -12Q314 -12 247 15Q180 42 130 90Q80 138 51 204.5Q22 271 22 350Q22 429 51 495.5Q80 562 130 610Q180 658 247 685Q314 712 391 712Z" glyph-name="Ograve" horiz-adv-x="782" unicode="&#210;" /><glyph d="M389 605H236L156 730H358ZM320 167Q365 167 390 199Q415 231 415 280Q415 330 390 361.5Q365 393 320 393Q275 393 250 361.5Q225 330 225 280Q225 231 250 199Q275 167 320 167ZM320 570Q381 570 435.5 548.5Q490 527 530 488.5Q570 450 593.5 396.5Q617 343 617 280Q617 217 593.5 163.5Q570 110 530 71.5Q490 33 435.5 11.5Q381 -10 320 -10Q258 -10 204 11.5Q150 33 110 71.5Q70 110 46.5 163.5Q23 217 23 280Q23 343 46.5 396.5Q70 450 110 488.5Q150 527 204 548.5Q258 570 320 570Z" glyph-name="Ograve.smcp" horiz-adv-x="640" unicode="&#62358;" /><glyph d="M435 929H644L547 752H394ZM213 929H422L324 752H171ZM391 176Q426 176 454.5 189Q483 202 503 225.5Q523 249 534 280.5Q545 312 545 350Q545 388 534 420Q523 452 503 475Q483 498 454.5 511Q426 524 391 524Q356 524 327.5 511Q299 498 279 475Q259 452 248 420Q237 388 237 350Q237 312 248 280.5Q259 249 279 225.5Q299 202 327.5 189Q356 176 391 176ZM391 712Q467 712 534.5 685Q602 658 652 610Q702 562 731 495.5Q760 429 760 350Q760 271 731 204.5Q702 138 652 90Q602 42 534.5 15Q467 -12 391 -12Q314 -12 247 15Q180 42 130 90Q80 138 51 204.5Q22 271 22 350Q22 429 51 495.5Q80 562 130 610Q180 658 247 685Q314 712 391 712Z" glyph-name="Ohungarumlaut" horiz-adv-x="782" unicode="&#336;" /><glyph d="M386 730H588L508 605H355ZM168 730H370L290 605H137ZM320 167Q365 167 390 199Q415 231 415 280Q415 330 390 361.5Q365 393 320 393Q275 393 250 361.5Q225 330 225 280Q225 231 250 199Q275 167 320 167ZM320 570Q381 570 435.5 548.5Q490 527 530 488.5Q570 450 593.5 396.5Q617 343 617 280Q617 217 593.5 163.5Q570 110 530 71.5Q490 33 435.5 11.5Q381 -10 320 -10Q258 -10 204 11.5Q150 33 110 71.5Q70 110 46.5 163.5Q23 217 23 280Q23 343 46.5 396.5Q70 450 110 488.5Q150 527 204 548.5Q258 570 320 570Z" glyph-name="Ohungarumlaut.smcp" horiz-adv-x="640" unicode="&#62485;" /><glyph d="M218 892H566V754H218ZM391 176Q426 176 454.5 189Q483 202 503 225.5Q523 249 534 280.5Q545 312 545 350Q545 388 534 420Q523 452 503 475Q483 498 454.5 511Q426 524 391 524Q356 524 327.5 511Q299 498 279 475Q259 452 248 420Q237 388 237 350Q237 312 248 280.5Q259 249 279 225.5Q299 202 327.5 189Q356 176 391 176ZM391 712Q467 712 534.5 685Q602 658 652 610Q702 562 731 495.5Q760 429 760 350Q760 271 731 204.5Q702 138 652 90Q602 42 534.5 15Q467 -12 391 -12Q314 -12 247 15Q180 42 130 90Q80 138 51 204.5Q22 271 22 350Q22 429 51 495.5Q80 562 130 610Q180 658 247 685Q314 712 391 712Z" glyph-name="Omacron" horiz-adv-x="782" unicode="&#332;" /><glyph d="M172 730H470V605H172ZM320 167Q365 167 390 199Q415 231 415 280Q415 330 390 361.5Q365 393 320 393Q275 393 250 361.5Q225 330 225 280Q225 231 250 199Q275 167 320 167ZM320 570Q381 570 435.5 548.5Q490 527 530 488.5Q570 450 593.5 396.5Q617 343 617 280Q617 217 593.5 163.5Q570 110 530 71.5Q490 33 435.5 11.5Q381 -10 320 -10Q258 -10 204 11.5Q150 33 110 71.5Q70 110 46.5 163.5Q23 217 23 280Q23 343 46.5 396.5Q70 450 110 488.5Q150 527 204 548.5Q258 570 320 570Z" glyph-name="Omacron.smcp" horiz-adv-x="640" unicode="&#62537;" /><glyph d="M398 712Q479 712 545.5 690.5Q612 669 659.5 631Q707 593 733.5 539.5Q760 486 760 422Q760 368 743.5 327Q727 286 699.5 257.5Q672 229 636 213Q600 197 562 193V177H703V0H429V306Q449 307 467.5 315Q486 323 500.5 337Q515 351 524 371Q533 391 533 416Q533 443 521 462.5Q509 482 490 494.5Q471 507 447 513.5Q423 520 398 520Q373 520 349 513.5Q325 507 306 494.5Q287 482 275 462.5Q263 443 263 416Q263 391 271.5 371Q280 351 294.5 337Q309 323 327.5 315Q346 307 366 306V0H92V177H233V193Q195 197 159.5 213Q124 229 96.5 257.5Q69 286 52.5 327Q36 368 36 422Q36 486 62 539.5Q88 593 136 631Q184 669 250.5 690.5Q317 712 398 712Z" glyph-name="Omega" horiz-adv-x="796" unicode="&#937;" /><glyph d="M237 350Q237 312 248 279L447 514Q419 524 391 524Q356 524 327.5 511Q299 498 279 475Q259 452 248 420Q237 388 237 350ZM391 176Q426 176 454.5 189Q483 202 503 225.5Q523 249 534 280.5Q545 312 545 350Q545 389 533 422L334 186Q358 176 391 176ZM391 712Q442 712 488 700Q534 688 575 666L614 712H778L673 587Q714 540 737 480.5Q760 421 760 350Q760 271 731 204.5Q702 138 652 90Q602 42 534.5 15Q467 -12 391 -12Q289 -12 206 34L167 -12H3L108 113Q67 160 44.5 219.5Q22 279 22 350Q22 429 51 495.5Q80 562 130 610Q180 658 247 685Q314 712 391 712Z" glyph-name="Oslash" horiz-adv-x="782" unicode="&#216;" /><glyph d="M320 167Q365 167 390 199Q415 231 415 280Q415 296 412 311L295 170Q307 167 320 167ZM225 280Q225 262 228 247L347 389Q335 393 320 393Q275 393 250 361.5Q225 330 225 280ZM320 570Q399 570 467 533L488 559H619L546 471Q579 433 598 385Q617 337 617 280Q617 217 593.5 163.5Q570 110 530 71.5Q490 33 435.5 11.5Q381 -10 320 -10Q280 -10 243 -1Q206 8 174 25L145 -10H14L95 87Q61 125 42 173.5Q23 222 23 280Q23 343 46.5 396.5Q70 450 110 488.5Q150 527 204 548.5Q258 570 320 570Z" glyph-name="Oslash.smcp" horiz-adv-x="640" unicode="&#62500;" /><glyph d="M203 751Q203 766 205 793.5Q207 821 218 848Q229 875 252.5 894.5Q276 914 320 914Q336 914 350.5 910Q365 906 378 901.5Q391 897 401.5 893Q412 889 420 889Q428 889 431.5 894Q435 899 435 906V913H575V907Q575 893 573.5 865.5Q572 838 561.5 811Q551 784 527 764Q503 744 458 744Q442 744 427.5 748Q413 752 400 756.5Q387 761 376.5 765Q366 769 358 769Q350 769 346.5 764Q343 759 343 752V744H203ZM391 176Q426 176 454.5 189Q483 202 503 225.5Q523 249 534 280.5Q545 312 545 350Q545 388 534 420Q523 452 503 475Q483 498 454.5 511Q426 524 391 524Q356 524 327.5 511Q299 498 279 475Q259 452 248 420Q237 388 237 350Q237 312 248 280.5Q259 249 279 225.5Q299 202 327.5 189Q356 176 391 176ZM391 712Q467 712 534.5 685Q602 658 652 610Q702 562 731 495.5Q760 429 760 350Q760 271 731 204.5Q702 138 652 90Q602 42 534.5 15Q467 -12 391 -12Q314 -12 247 15Q180 42 130 90Q80 138 51 204.5Q22 271 22 350Q22 429 51 495.5Q80 562 130 610Q180 658 247 685Q314 712 391 712Z" glyph-name="Otilde" horiz-adv-x="782" unicode="&#213;" /><glyph d="M375 600Q363 600 349 603Q335 606 322 610Q309 614 297.5 617Q286 620 280 620Q270 620 270 609V605H162V616Q162 628 163 649Q164 670 173 690Q182 710 202 725Q222 740 261 740Q273 740 287 737Q301 734 314 730Q327 726 338.5 723Q350 720 356 720Q366 720 366 731V735H474V710Q474 698 473 679.5Q472 661 463 643Q454 625 434 612.5Q414 600 375 600ZM320 167Q365 167 390 199Q415 231 415 280Q415 330 390 361.5Q365 393 320 393Q275 393 250 361.5Q225 330 225 280Q225 231 250 199Q275 167 320 167ZM320 570Q381 570 435.5 548.5Q490 527 530 488.5Q570 450 593.5 396.5Q617 343 617 280Q617 217 593.5 163.5Q570 110 530 71.5Q490 33 435.5 11.5Q381 -10 320 -10Q258 -10 204 11.5Q150 33 110 71.5Q70 110 46.5 163.5Q23 217 23 280Q23 343 46.5 396.5Q70 450 110 488.5Q150 527 204 548.5Q258 570 320 570Z" glyph-name="Otilde.smcp" horiz-adv-x="640" unicode="&#62359;" /><glyph d="M395 448Q395 490 367.5 507.5Q340 525 301 525H260V371H301Q340 371 367.5 388.5Q395 406 395 448ZM260 0H60V700H325Q394 700 446 680Q498 660 532.5 626.5Q567 593 584.5 547.5Q602 502 602 451Q602 400 584.5 353.5Q567 307 532.5 271.5Q498 236 446 215.5Q394 195 325 195H260Z" glyph-name="P" horiz-adv-x="614" unicode="P" /><glyph d="M255 297Q280 297 298.5 309Q317 321 317 348Q317 375 298.5 387Q280 399 255 399H240V297ZM510 353Q510 310 495.5 270.5Q481 231 452.5 201Q424 171 380.5 153.5Q337 136 279 136H240V0H54V560H279Q337 560 380.5 543.5Q424 527 452.5 498.5Q481 470 495.5 432.5Q510 395 510 353Z" glyph-name="P.smcp" horiz-adv-x="526" unicode="&#62278;" /><glyph d="M391 176Q426 176 454.5 189Q483 202 503 225.5Q523 249 534 280.5Q545 312 545 350Q545 388 534 420Q523 452 503 475Q483 498 454.5 511Q426 524 391 524Q356 524 327.5 511Q299 498 279 475Q259 452 248 420Q237 388 237 350Q237 312 248 280.5Q259 249 279 225.5Q299 202 327.5 189Q356 176 391 176ZM391 712Q467 712 534.5 685Q602 658 652 610Q702 562 731 495.5Q760 429 760 350Q760 274 733.5 210Q707 146 660 98Q670 84 682 79Q694 74 715 74Q727 74 739 76.5Q751 79 762 82V-92Q743 -94 723 -96Q706 -98 685.5 -99Q665 -100 646 -100Q584 -100 544.5 -75.5Q505 -51 479 -2Q458 -7 436 -9.5Q414 -12 391 -12Q314 -12 247 15Q180 42 130 90Q80 138 51 204.5Q22 271 22 350Q22 429 51 495.5Q80 562 130 610Q180 658 247 685Q314 712 391 712Z" glyph-name="Q" horiz-adv-x="782" unicode="Q" /><glyph d="M320 167Q365 167 390 199Q415 231 415 280Q415 330 390 361.5Q365 393 320 393Q275 393 250 361.5Q225 330 225 280Q225 231 250 199Q275 167 320 167ZM320 570Q381 570 435.5 548.5Q490 527 530 488.5Q570 450 593.5 396.5Q617 343 617 280Q617 221 597 171.5Q577 122 542 84Q553 70 563 67.5Q573 65 583 65Q594 65 604 67Q614 69 624 72V-87Q613 -91 599 -94Q587 -96 570 -98Q553 -100 531 -100Q481 -100 448.5 -81.5Q416 -63 395 -28L380 -4Q351 -10 320 -10Q258 -10 204 11.5Q150 33 110 71.5Q70 110 46.5 163.5Q23 217 23 280Q23 343 46.5 396.5Q70 450 110 488.5Q150 527 204 548.5Q258 570 320 570Z" glyph-name="Q.smcp" horiz-adv-x="641" unicode="&#62279;" /><glyph d="M365 403Q409 403 427.5 420.5Q446 438 446 464Q446 490 427.5 507.5Q409 525 365 525H261V403ZM326 233H261V0H60V700H383Q446 700 496 681Q546 662 580.5 630.5Q615 599 633.5 556.5Q652 514 652 468Q652 394 619.5 344Q587 294 523 262L676 0H451Z" glyph-name="R" horiz-adv-x="687" unicode="R" /><glyph d="M357 353Q357 359 354.5 367Q352 375 346 382Q340 389 330 394Q320 399 305 399H241V308H305Q334 308 345.5 323.5Q357 339 357 353ZM271 170H241V0H54V560H328Q380 560 422 543.5Q464 527 492.5 500Q521 473 536.5 438Q552 403 552 366Q552 300 527 260.5Q502 221 457 198L573 0H362Z" glyph-name="R.smcp" horiz-adv-x="588" unicode="&#62280;" /><glyph d="M290 929H519L422 752H249ZM365 403Q409 403 427.5 420.5Q446 438 446 464Q446 490 427.5 507.5Q409 525 365 525H261V403ZM326 233H261V0H60V700H383Q446 700 496 681Q546 662 580.5 630.5Q615 599 633.5 556.5Q652 514 652 468Q652 394 619.5 344Q587 294 523 262L676 0H451Z" glyph-name="Racute" horiz-adv-x="687" unicode="&#340;" /><glyph d="M245 730H447L367 605H214ZM357 353Q357 359 354.5 367Q352 375 346 382Q340 389 330 394Q320 399 305 399H241V308H305Q334 308 345.5 323.5Q357 339 357 353ZM271 170H241V0H54V560H328Q380 560 422 543.5Q464 527 492.5 500Q521 473 536.5 438Q552 403 552 366Q552 300 527 260.5Q502 221 457 198L573 0H362Z" glyph-name="Racute.smcp" horiz-adv-x="588" unicode="&#62360;" /><glyph d="M336 871 363 929H533L434 752H238L139 929H309ZM365 403Q409 403 427.5 420.5Q446 438 446 464Q446 490 427.5 507.5Q409 525 365 525H261V403ZM326 233H261V0H60V700H383Q446 700 496 681Q546 662 580.5 630.5Q615 599 633.5 556.5Q652 514 652 468Q652 394 619.5 344Q587 294 523 262L676 0H451Z" glyph-name="Rcaron" horiz-adv-x="687" unicode="&#344;" /><glyph d="M319 730H464L392 605H196L124 730H269L294 694ZM357 353Q357 359 354.5 367Q352 375 346 382Q340 389 330 394Q320 399 305 399H241V308H305Q334 308 345.5 323.5Q357 339 357 353ZM271 170H241V0H54V560H328Q380 560 422 543.5Q464 527 492.5 500Q521 473 536.5 438Q552 403 552 366Q552 300 527 260.5Q502 221 457 198L573 0H362Z" glyph-name="Rcaron.smcp" horiz-adv-x="588" unicode="&#62361;" /><glyph d="M233 -134Q233 -113 241 -95Q249 -77 262.5 -63.5Q276 -50 294.5 -42Q313 -34 333 -34Q382 -34 409.5 -63.5Q437 -93 437 -134Q437 -151 429.5 -170.5Q422 -190 412 -204L343 -308H225L267 -207Q251 -193 242 -175Q233 -157 233 -134ZM365 403Q409 403 427.5 420.5Q446 438 446 464Q446 490 427.5 507.5Q409 525 365 525H261V403ZM326 233H261V0H60V700H383Q446 700 496 681Q546 662 580.5 630.5Q615 599 633.5 556.5Q652 514 652 468Q652 394 619.5 344Q587 294 523 262L676 0H451Z" glyph-name="Rcommaaccent" horiz-adv-x="687" unicode="&#342;" /><glyph d="M186 -129Q186 -111 193.5 -94.5Q201 -78 213 -66Q225 -54 241 -47Q257 -40 275 -40Q320 -40 344 -67Q368 -94 368 -129Q368 -146 361 -163Q354 -180 344 -193L287 -274H180L213 -192Q186 -165 186 -129ZM357 353Q357 359 354.5 367Q352 375 346 382Q340 389 330 394Q320 399 305 399H241V308H305Q334 308 345.5 323.5Q357 339 357 353ZM271 170H241V0H54V560H328Q380 560 422 543.5Q464 527 492.5 500Q521 473 536.5 438Q552 403 552 366Q552 300 527 260.5Q502 221 457 198L573 0H362Z" glyph-name="Rcommaaccent.smcp" horiz-adv-x="588" unicode="&#62464;" /><glyph d="M462 475Q420 512 378.5 524Q337 536 307 536Q281 536 268.5 525Q256 514 256 500Q256 492 262 479.5Q268 467 294 458L409 418Q492 389 534.5 336.5Q577 284 577 214Q577 163 557 121.5Q537 80 501 50Q465 20 415.5 4Q366 -12 308 -12Q208 -12 132.5 19.5Q57 51 7 99L119 246Q135 231 156.5 216Q178 201 202 189.5Q226 178 251 171Q276 164 299 164Q329 164 344 177.5Q359 191 359 205Q359 221 348.5 232Q338 243 301 256L199 291Q117 319 78 375Q39 431 39 497Q39 539 57 578Q75 617 109 646.5Q143 676 192.5 694Q242 712 304 712Q373 712 443 690.5Q513 669 572 614Z" glyph-name="S" horiz-adv-x="601" unicode="S" /><glyph d="M395 362Q385 372 370 380Q355 388 338.5 394Q322 400 305 403.5Q288 407 274 407Q260 407 251.5 402Q243 397 243 389Q243 384 247 379Q251 374 264 370L367 339Q433 319 469 276Q505 233 505 176Q505 132 487.5 97.5Q470 63 439 39Q408 15 366 2.5Q324 -10 275 -10Q188 -10 122 16Q56 42 13 80L114 215Q128 204 147 193Q166 182 186.5 173Q207 164 227.5 158.5Q248 153 266 153Q285 153 290.5 160.5Q296 168 296 170Q296 176 293 182.5Q290 189 266 196L172 222Q137 232 111 249.5Q85 267 68 289.5Q51 312 42.5 337.5Q34 363 34 389Q34 422 50 454.5Q66 487 97 512.5Q128 538 172.5 554Q217 570 273 570Q332 570 390.5 551.5Q449 533 502 487Z" glyph-name="S.smcp" horiz-adv-x="529" unicode="&#62281;" /><glyph d="M259 929H488L391 752H218ZM462 475Q420 512 378.5 524Q337 536 307 536Q281 536 268.5 525Q256 514 256 500Q256 492 262 479.5Q268 467 294 458L409 418Q492 389 534.5 336.5Q577 284 577 214Q577 163 557 121.5Q537 80 501 50Q465 20 415.5 4Q366 -12 308 -12Q208 -12 132.5 19.5Q57 51 7 99L119 246Q135 231 156.5 216Q178 201 202 189.5Q226 178 251 171Q276 164 299 164Q329 164 344 177.5Q359 191 359 205Q359 221 348.5 232Q338 243 301 256L199 291Q117 319 78 375Q39 431 39 497Q39 539 57 578Q75 617 109 646.5Q143 676 192.5 694Q242 712 304 712Q373 712 443 690.5Q513 669 572 614Z" glyph-name="Sacute" horiz-adv-x="601" unicode="&#346;" /><glyph d="M218 730H420L340 605H187ZM395 362Q385 372 370 380Q355 388 338.5 394Q322 400 305 403.5Q288 407 274 407Q260 407 251.5 402Q243 397 243 389Q243 384 247 379Q251 374 264 370L367 339Q433 319 469 276Q505 233 505 176Q505 132 487.5 97.5Q470 63 439 39Q408 15 366 2.5Q324 -10 275 -10Q188 -10 122 16Q56 42 13 80L114 215Q128 204 147 193Q166 182 186.5 173Q207 164 227.5 158.5Q248 153 266 153Q285 153 290.5 160.5Q296 168 296 170Q296 176 293 182.5Q290 189 266 196L172 222Q137 232 111 249.5Q85 267 68 289.5Q51 312 42.5 337.5Q34 363 34 389Q34 422 50 454.5Q66 487 97 512.5Q128 538 172.5 554Q217 570 273 570Q332 570 390.5 551.5Q449 533 502 487Z" glyph-name="Sacute.smcp" horiz-adv-x="529" unicode="&#62465;" /><glyph d="M297 871 324 929H494L395 752H199L100 929H270ZM462 475Q420 512 378.5 524Q337 536 307 536Q281 536 268.5 525Q256 514 256 500Q256 492 262 479.5Q268 467 294 458L409 418Q492 389 534.5 336.5Q577 284 577 214Q577 163 557 121.5Q537 80 501 50Q465 20 415.5 4Q366 -12 308 -12Q208 -12 132.5 19.5Q57 51 7 99L119 246Q135 231 156.5 216Q178 201 202 189.5Q226 178 251 171Q276 164 299 164Q329 164 344 177.5Q359 191 359 205Q359 221 348.5 232Q338 243 301 256L199 291Q117 319 78 375Q39 431 39 497Q39 539 57 578Q75 617 109 646.5Q143 676 192.5 694Q242 712 304 712Q373 712 443 690.5Q513 669 572 614Z" glyph-name="Scaron" horiz-adv-x="601" unicode="&#352;" /><glyph d="M283 730H428L356 605H160L88 730H233L258 694ZM395 362Q385 372 370 380Q355 388 338.5 394Q322 400 305 403.5Q288 407 274 407Q260 407 251.5 402Q243 397 243 389Q243 384 247 379Q251 374 264 370L367 339Q433 319 469 276Q505 233 505 176Q505 132 487.5 97.5Q470 63 439 39Q408 15 366 2.5Q324 -10 275 -10Q188 -10 122 16Q56 42 13 80L114 215Q128 204 147 193Q166 182 186.5 173Q207 164 227.5 158.5Q248 153 266 153Q285 153 290.5 160.5Q296 168 296 170Q296 176 293 182.5Q290 189 266 196L172 222Q137 232 111 249.5Q85 267 68 289.5Q51 312 42.5 337.5Q34 363 34 389Q34 422 50 454.5Q66 487 97 512.5Q128 538 172.5 554Q217 570 273 570Q332 570 390.5 551.5Q449 533 502 487Z" glyph-name="Scaron.smcp" horiz-adv-x="529" unicode="&#62466;" /><glyph d="M209 -2Q145 10 94 37Q43 64 7 99L119 246Q135 231 156.5 216Q178 201 202 189.5Q226 178 251 171Q276 164 299 164Q329 164 344 177.5Q359 191 359 205Q359 221 348.5 232Q338 243 301 256L199 291Q117 319 78 375Q39 431 39 497Q39 539 57 578Q75 617 109 646.5Q143 676 192.5 694Q242 712 304 712Q373 712 443 690.5Q513 669 572 614L462 475Q420 512 378.5 524Q337 536 307 536Q281 536 268.5 525Q256 514 256 500Q256 492 262 479.5Q268 467 294 458L409 418Q492 389 534.5 336.5Q577 284 577 214Q577 132 527.5 75.5Q478 19 396 -1L319 -132H153Z" glyph-name="Scedilla" horiz-adv-x="601" unicode="&#350;" /><glyph d="M177 0Q125 11 84 32Q43 53 14 80L115 215Q129 204 148 193Q167 182 187.5 173Q208 164 228.5 158.5Q249 153 267 153Q286 153 291.5 160.5Q297 168 297 170Q297 176 294 182.5Q291 189 267 196L173 222Q138 232 112 249.5Q86 267 69 289.5Q52 312 43.5 337.5Q35 363 35 389Q35 422 51 454.5Q67 487 98 512.5Q129 538 173.5 554Q218 570 274 570Q333 570 391.5 551.5Q450 533 503 487L396 362Q386 372 371 380Q356 388 339.5 394Q323 400 306 403.5Q289 407 275 407Q261 407 252.5 402Q244 397 244 389Q244 384 248 379Q252 374 265 370L368 339Q434 319 470 276Q506 233 506 176Q506 106 464.5 61.5Q423 17 356 0L293 -134H139Z" glyph-name="Scedilla.smcp" horiz-adv-x="531" unicode="&#62467;" /><glyph d="M271 751H101L200 928H396L495 751H325L298 809ZM462 475Q420 512 378.5 524Q337 536 307 536Q281 536 268.5 525Q256 514 256 500Q256 492 262 479.5Q268 467 294 458L409 418Q492 389 534.5 336.5Q577 284 577 214Q577 163 557 121.5Q537 80 501 50Q465 20 415.5 4Q366 -12 308 -12Q208 -12 132.5 19.5Q57 51 7 99L119 246Q135 231 156.5 216Q178 201 202 189.5Q226 178 251 171Q276 164 299 164Q329 164 344 177.5Q359 191 359 205Q359 221 348.5 232Q338 243 301 256L199 291Q117 319 78 375Q39 431 39 497Q39 539 57 578Q75 617 109 646.5Q143 676 192.5 694Q242 712 304 712Q373 712 443 690.5Q513 669 572 614Z" glyph-name="Scircumflex" horiz-adv-x="601" unicode="&#348;" /><glyph d="M260 641 235 605H90L162 730H358L430 605H285ZM395 362Q385 372 370 380Q355 388 338.5 394Q322 400 305 403.5Q288 407 274 407Q260 407 251.5 402Q243 397 243 389Q243 384 247 379Q251 374 264 370L367 339Q433 319 469 276Q505 233 505 176Q505 132 487.5 97.5Q470 63 439 39Q408 15 366 2.5Q324 -10 275 -10Q188 -10 122 16Q56 42 13 80L114 215Q128 204 147 193Q166 182 186.5 173Q207 164 227.5 158.5Q248 153 266 153Q285 153 290.5 160.5Q296 168 296 170Q296 176 293 182.5Q290 189 266 196L172 222Q137 232 111 249.5Q85 267 68 289.5Q51 312 42.5 337.5Q34 363 34 389Q34 422 50 454.5Q66 487 97 512.5Q128 538 172.5 554Q217 570 273 570Q332 570 390.5 551.5Q449 533 502 487Z" glyph-name="Scircumflex.smcp" horiz-adv-x="529" unicode="&#62468;" /><glyph d="M198 -134Q198 -113 206 -95Q214 -77 227.5 -63.5Q241 -50 259.5 -42Q278 -34 298 -34Q347 -34 374.5 -63.5Q402 -93 402 -134Q402 -151 394.5 -170.5Q387 -190 377 -204L308 -308H190L232 -207Q216 -193 207 -175Q198 -157 198 -134ZM462 475Q420 512 378.5 524Q337 536 307 536Q281 536 268.5 525Q256 514 256 500Q256 492 262 479.5Q268 467 294 458L409 418Q492 389 534.5 336.5Q577 284 577 214Q577 163 557 121.5Q537 80 501 50Q465 20 415.5 4Q366 -12 308 -12Q208 -12 132.5 19.5Q57 51 7 99L119 246Q135 231 156.5 216Q178 201 202 189.5Q226 178 251 171Q276 164 299 164Q329 164 344 177.5Q359 191 359 205Q359 221 348.5 232Q338 243 301 256L199 291Q117 319 78 375Q39 431 39 497Q39 539 57 578Q75 617 109 646.5Q143 676 192.5 694Q242 712 304 712Q373 712 443 690.5Q513 669 572 614Z" glyph-name="Scommaaccent" horiz-adv-x="601" unicode="&#536;" /><glyph d="M166 -129Q166 -111 173.5 -94.5Q181 -78 193 -66Q205 -54 221 -47Q237 -40 255 -40Q300 -40 324 -67Q348 -94 348 -129Q348 -146 341 -163Q334 -180 324 -193L267 -274H160L193 -192Q166 -165 166 -129ZM395 362Q385 372 370 380Q355 388 338.5 394Q322 400 305 403.5Q288 407 274 407Q260 407 251.5 402Q243 397 243 389Q243 384 247 379Q251 374 264 370L367 339Q433 319 469 276Q505 233 505 176Q505 132 487.5 97.5Q470 63 439 39Q408 15 366 2.5Q324 -10 275 -10Q188 -10 122 16Q56 42 13 80L114 215Q128 204 147 193Q166 182 186.5 173Q207 164 227.5 158.5Q248 153 266 153Q285 153 290.5 160.5Q296 168 296 170Q296 176 293 182.5Q290 189 266 196L172 222Q137 232 111 249.5Q85 267 68 289.5Q51 312 42.5 337.5Q34 363 34 389Q34 422 50 454.5Q66 487 97 512.5Q128 538 172.5 554Q217 570 273 570Q332 570 390.5 551.5Q449 533 502 487Z" glyph-name="Scommaaccent.smcp" horiz-adv-x="529" unicode="&#62469;" /><glyph d="M611 518H414V0H209V518H12V700H611Z" glyph-name="T" horiz-adv-x="623" unicode="T" /><glyph d="M512 560V390H359V0H167V390H14V560Z" glyph-name="T.smcp" horiz-adv-x="526" unicode="&#62288;" /><glyph d="M617 518H420V424H560V260H420V0H215V260H75V424H215V518H18V700H617Z" glyph-name="Tbar" horiz-adv-x="635" unicode="&#358;" /><glyph d="M514 560V390H361V316H441V184H361V0H169V184H89V316H169V390H16V560Z" glyph-name="Tbar.smcp" horiz-adv-x="530" unicode="&#62470;" /><glyph d="M311 871 338 929H508L409 752H213L114 929H284ZM611 518H414V0H209V518H12V700H611Z" glyph-name="Tcaron" horiz-adv-x="623" unicode="&#356;" /><glyph d="M289 730H434L362 605H166L94 730H239L264 694ZM512 560V390H359V0H167V390H14V560Z" glyph-name="Tcaron.smcp" horiz-adv-x="526" unicode="&#62471;" /><glyph d="M207 -134Q207 -113 215 -95Q223 -77 236.5 -63.5Q250 -50 268.5 -42Q287 -34 307 -34Q356 -34 383.5 -63.5Q411 -93 411 -134Q411 -151 403.5 -170.5Q396 -190 386 -204L317 -308H199L241 -207Q225 -193 216 -175Q207 -157 207 -134ZM611 518H414V0H209V518H12V700H611Z" glyph-name="Tcommaaccent" horiz-adv-x="623" unicode="&#354;" /><glyph d="M167 -129Q167 -111 174.5 -94.5Q182 -78 194 -66Q206 -54 222 -47Q238 -40 256 -40Q301 -40 325 -67Q349 -94 349 -129Q349 -146 342 -163Q335 -180 325 -193L268 -274H161L194 -192Q167 -165 167 -129ZM512 560V390H359V0H167V390H14V560Z" glyph-name="Tcommaaccent.smcp" horiz-adv-x="526" unicode="&#62308;" /><glyph d="M395 354Q395 396 367.5 413.5Q340 431 301 431H260V277H301Q340 277 367.5 294.5Q395 312 395 354ZM260 0H60V700H260V606H327Q396 606 447.5 586Q499 566 533.5 532.5Q568 499 585 453.5Q602 408 602 357Q602 306 585 259.5Q568 213 533.5 177.5Q499 142 447.5 121.5Q396 101 327 101H260Z" glyph-name="Thorn" horiz-adv-x="616" unicode="&#222;" /><glyph d="M240 237H255Q280 237 298.5 246.5Q317 256 317 283Q317 310 298.5 320.5Q280 331 255 331H240ZM510 286Q510 243 496 204.5Q482 166 453.5 136.5Q425 107 381.5 90Q338 73 280 73H240V0H54V560H240V494H280Q338 494 381.5 477.5Q425 461 453.5 432.5Q482 404 496 366.5Q510 329 510 286Z" glyph-name="Thorn.smcp" horiz-adv-x="540" unicode="&#62472;" /><glyph d="M340 176Q386 176 407 201.5Q428 227 428 277V700H627V237Q627 185 608 139.5Q589 94 552.5 60.5Q516 27 462 7.5Q408 -12 338 -12Q269 -12 215.5 7.5Q162 27 126 60.5Q90 94 71.5 139.5Q53 185 53 237V700H252V277Q252 227 273 201.5Q294 176 340 176Z" glyph-name="U" horiz-adv-x="680" unicode="U" /><glyph d="M343 560H529V196Q529 154 513 116.5Q497 79 466 51Q435 23 389.5 6.5Q344 -10 286 -10Q229 -10 184.5 6.5Q140 23 109.5 51Q79 79 63.5 116.5Q48 154 48 196V560H233V232Q233 196 247.5 181.5Q262 167 288 167Q314 167 328.5 181.5Q343 196 343 232Z" glyph-name="U.smcp" horiz-adv-x="577" unicode="&#62289;" /><glyph d="M295 929H524L427 752H254ZM340 176Q386 176 407 201.5Q428 227 428 277V700H627V237Q627 185 608 139.5Q589 94 552.5 60.5Q516 27 462 7.5Q408 -12 338 -12Q269 -12 215.5 7.5Q162 27 126 60.5Q90 94 71.5 139.5Q53 185 53 237V700H252V277Q252 227 273 201.5Q294 176 340 176Z" glyph-name="Uacute" horiz-adv-x="680" unicode="&#218;" /><glyph d="M244 730H446L366 605H213ZM343 560H529V196Q529 154 513 116.5Q497 79 466 51Q435 23 389.5 6.5Q344 -10 286 -10Q229 -10 184.5 6.5Q140 23 109.5 51Q79 79 63.5 116.5Q48 154 48 196V560H233V232Q233 196 247.5 181.5Q262 167 288 167Q314 167 328.5 181.5Q343 196 343 232Z" glyph-name="Uacute.smcp" horiz-adv-x="577" unicode="&#62473;" /><glyph d="M375 929H504V887Q504 849 491 821.5Q478 794 456 775.5Q434 757 404.5 748Q375 739 341 739Q307 739 277.5 748Q248 757 225.5 775.5Q203 794 190 821.5Q177 849 177 887V929H306V904Q306 882 315 873Q324 864 341 864Q358 864 366.5 873Q375 882 375 904ZM340 176Q386 176 407 201.5Q428 227 428 277V700H627V237Q627 185 608 139.5Q589 94 552.5 60.5Q516 27 462 7.5Q408 -12 338 -12Q269 -12 215.5 7.5Q162 27 126 60.5Q90 94 71.5 139.5Q53 185 53 237V700H252V277Q252 227 273 201.5Q294 176 340 176Z" glyph-name="Ubreve" horiz-adv-x="680" unicode="&#364;" /><glyph d="M284 705Q309 705 309 728V735H427V723Q427 659 391 629.5Q355 600 285 600Q215 600 179 629.5Q143 659 143 723V735H261V728Q261 705 284 705ZM343 560H529V196Q529 154 513 116.5Q497 79 466 51Q435 23 389.5 6.5Q344 -10 286 -10Q229 -10 184.5 6.5Q140 23 109.5 51Q79 79 63.5 116.5Q48 154 48 196V560H233V232Q233 196 247.5 181.5Q262 167 288 167Q314 167 328.5 181.5Q343 196 343 232Z" glyph-name="Ubreve.smcp" horiz-adv-x="577" unicode="&#62480;" /><glyph d="M312 752H142L241 929H437L536 752H366L339 810ZM340 176Q386 176 407 201.5Q428 227 428 277V700H627V237Q627 185 608 139.5Q589 94 552.5 60.5Q516 27 462 7.5Q408 -12 338 -12Q269 -12 215.5 7.5Q162 27 126 60.5Q90 94 71.5 139.5Q53 185 53 237V700H252V277Q252 227 273 201.5Q294 176 340 176Z" glyph-name="Ucircumflex" horiz-adv-x="680" unicode="&#219;" /><glyph d="M289 641 264 605H119L191 730H387L459 605H314ZM343 560H529V196Q529 154 513 116.5Q497 79 466 51Q435 23 389.5 6.5Q344 -10 286 -10Q229 -10 184.5 6.5Q140 23 109.5 51Q79 79 63.5 116.5Q48 154 48 196V560H233V232Q233 196 247.5 181.5Q262 167 288 167Q314 167 328.5 181.5Q343 196 343 232Z" glyph-name="Ucircumflex.smcp" horiz-adv-x="577" unicode="&#62481;" /><glyph d="M443 749Q424 749 407 756.5Q390 764 377 777Q364 790 356 807Q348 824 348 843Q348 862 356 879Q364 896 377 909Q390 922 407 929.5Q424 937 443 937Q462 937 479 929.5Q496 922 509 909Q522 896 530 879Q538 862 538 843Q538 824 530 807Q522 790 509 777Q496 764 479 756.5Q462 749 443 749ZM235 749Q216 749 199 756.5Q182 764 169 777Q156 790 148 807Q140 824 140 843Q140 862 148 879Q156 896 169 909Q182 922 199 929.5Q216 937 235 937Q254 937 271 929.5Q288 922 301 909Q314 896 322 879Q330 862 330 843Q330 824 322 807Q314 790 301 777Q288 764 271 756.5Q254 749 235 749ZM340 176Q386 176 407 201.5Q428 227 428 277V700H627V237Q627 185 608 139.5Q589 94 552.5 60.5Q516 27 462 7.5Q408 -12 338 -12Q269 -12 215.5 7.5Q162 27 126 60.5Q90 94 71.5 139.5Q53 185 53 237V700H252V277Q252 227 273 201.5Q294 176 340 176Z" glyph-name="Udieresis" horiz-adv-x="680" unicode="&#220;" /><glyph d="M380 769Q397 769 412.5 762Q428 755 440 743.5Q452 732 459 716.5Q466 701 466 684Q466 667 459 652Q452 637 440 625.5Q428 614 412.5 607Q397 600 380 600Q363 600 347.5 607Q332 614 320 625.5Q308 637 301 652Q294 667 294 684Q294 701 301 716.5Q308 732 320 743.5Q332 755 347.5 762Q363 769 380 769ZM190 769Q207 769 222.5 762Q238 755 250 743.5Q262 732 269 716.5Q276 701 276 684Q276 667 269 652Q262 637 250 625.5Q238 614 222.5 607Q207 600 190 600Q173 600 157.5 607Q142 614 130 625.5Q118 637 111 652Q104 667 104 684Q104 701 111 716.5Q118 732 130 743.5Q142 755 157.5 762Q173 769 190 769ZM343 560H529V196Q529 154 513 116.5Q497 79 466 51Q435 23 389.5 6.5Q344 -10 286 -10Q229 -10 184.5 6.5Q140 23 109.5 51Q79 79 63.5 116.5Q48 154 48 196V560H233V232Q233 196 247.5 181.5Q262 167 288 167Q314 167 328.5 181.5Q343 196 343 232Z" glyph-name="Udieresis.smcp" horiz-adv-x="577" unicode="&#62529;" /><glyph d="M426 752H253L156 929H385ZM340 176Q386 176 407 201.5Q428 227 428 277V700H627V237Q627 185 608 139.5Q589 94 552.5 60.5Q516 27 462 7.5Q408 -12 338 -12Q269 -12 215.5 7.5Q162 27 126 60.5Q90 94 71.5 139.5Q53 185 53 237V700H252V277Q252 227 273 201.5Q294 176 340 176Z" glyph-name="Ugrave" horiz-adv-x="680" unicode="&#217;" /><glyph d="M362 605H209L129 730H331ZM343 560H529V196Q529 154 513 116.5Q497 79 466 51Q435 23 389.5 6.5Q344 -10 286 -10Q229 -10 184.5 6.5Q140 23 109.5 51Q79 79 63.5 116.5Q48 154 48 196V560H233V232Q233 196 247.5 181.5Q262 167 288 167Q314 167 328.5 181.5Q343 196 343 232Z" glyph-name="Ugrave.smcp" horiz-adv-x="577" unicode="&#62530;" /><glyph d="M393 929H602L505 752H352ZM171 929H380L282 752H129ZM340 176Q386 176 407 201.5Q428 227 428 277V700H627V237Q627 185 608 139.5Q589 94 552.5 60.5Q516 27 462 7.5Q408 -12 338 -12Q269 -12 215.5 7.5Q162 27 126 60.5Q90 94 71.5 139.5Q53 185 53 237V700H252V277Q252 227 273 201.5Q294 176 340 176Z" glyph-name="Uhungarumlaut" horiz-adv-x="680" unicode="&#368;" /><glyph d="M344 730H546L466 605H313ZM126 730H328L248 605H95ZM343 560H529V196Q529 154 513 116.5Q497 79 466 51Q435 23 389.5 6.5Q344 -10 286 -10Q229 -10 184.5 6.5Q140 23 109.5 51Q79 79 63.5 116.5Q48 154 48 196V560H233V232Q233 196 247.5 181.5Q262 167 288 167Q314 167 328.5 181.5Q343 196 343 232Z" glyph-name="Uhungarumlaut.smcp" horiz-adv-x="577" unicode="&#62486;" /><glyph d="M166 892H514V754H166ZM340 176Q386 176 407 201.5Q428 227 428 277V700H627V237Q627 185 608 139.5Q589 94 552.5 60.5Q516 27 462 7.5Q408 -12 338 -12Q269 -12 215.5 7.5Q162 27 126 60.5Q90 94 71.5 139.5Q53 185 53 237V700H252V277Q252 227 273 201.5Q294 176 340 176Z" glyph-name="Umacron" horiz-adv-x="680" unicode="&#362;" /><glyph d="M139 730H437V605H139ZM343 560H529V196Q529 154 513 116.5Q497 79 466 51Q435 23 389.5 6.5Q344 -10 286 -10Q229 -10 184.5 6.5Q140 23 109.5 51Q79 79 63.5 116.5Q48 154 48 196V560H233V232Q233 196 247.5 181.5Q262 167 288 167Q314 167 328.5 181.5Q343 196 343 232Z" glyph-name="Umacron.smcp" horiz-adv-x="577" unicode="&#62531;" /><glyph d="M341 176Q387 176 408 201.5Q429 227 429 277V700H628V237Q628 193 614.5 154Q601 115 575 83.5Q549 52 510.5 29Q472 6 421 -4Q401 -20 394.5 -33.5Q388 -47 388 -58Q388 -74 400.5 -80.5Q413 -87 427 -87Q447 -87 464 -83Q481 -79 491 -77L487 -175Q476 -180 458 -184Q443 -188 420.5 -190.5Q398 -193 367 -193Q337 -193 311 -187.5Q285 -182 265.5 -170.5Q246 -159 234.5 -141Q223 -123 223 -97Q223 -70 237.5 -47.5Q252 -25 283 -8Q227 -1 184.5 21Q142 43 113 75.5Q84 108 69 149Q54 190 54 237V700H253V277Q253 227 274 201.5Q295 176 341 176Z" glyph-name="Uogonek" horiz-adv-x="682" unicode="&#370;" /><glyph d="M344 560H530V196Q530 161 519 129Q508 97 486.5 71Q465 45 433.5 26Q402 7 361 -2Q337 -16 329.5 -27.5Q322 -39 322 -47Q322 -63 333.5 -68.5Q345 -74 360 -74Q368 -74 381 -71.5Q394 -69 401 -66L398 -153Q394 -155 370 -162Q346 -169 296 -169Q270 -169 247 -163.5Q224 -158 207 -147.5Q190 -137 180 -121.5Q170 -106 170 -85Q170 -61 185.5 -40.5Q201 -20 240 -7Q194 -1 158.5 17.5Q123 36 98.5 63Q74 90 61.5 124Q49 158 49 196V560H234V232Q234 196 248.5 181.5Q263 167 289 167Q315 167 329.5 181.5Q344 196 344 232Z" glyph-name="Uogonek.smcp" horiz-adv-x="579" unicode="&#62532;" /><glyph d="M339 815Q358 815 371 829Q384 843 384 863Q384 883 371 897Q358 911 339 911Q320 911 307 897Q294 883 294 863Q294 843 307 829Q320 815 339 815ZM339 733Q310 733 284.5 743Q259 753 240.5 770.5Q222 788 211.5 811.5Q201 835 201 863Q201 891 211.5 914.5Q222 938 240.5 955.5Q259 973 284.5 983Q310 993 339 993Q368 993 393.5 983Q419 973 437.5 955.5Q456 938 466.5 914.5Q477 891 477 863Q477 835 466.5 811.5Q456 788 437.5 770.5Q419 753 393.5 743Q368 733 339 733ZM340 176Q386 176 407 201.5Q428 227 428 277V700H627V237Q627 185 608 139.5Q589 94 552.5 60.5Q516 27 462 7.5Q408 -12 338 -12Q269 -12 215.5 7.5Q162 27 126 60.5Q90 94 71.5 139.5Q53 185 53 237V700H252V277Q252 227 273 201.5Q294 176 340 176Z" glyph-name="Uring" horiz-adv-x="680" unicode="&#366;" /><glyph d="M401 710Q401 662 368 631Q335 600 284 600Q233 600 200 631Q167 662 167 710Q167 758 200 789Q233 820 284 820Q335 820 368 789Q401 758 401 710ZM250 710Q250 694 260 683.5Q270 673 284 673Q298 673 308 683.5Q318 694 318 710Q318 726 308 736.5Q298 747 284 747Q270 747 260 736.5Q250 726 250 710ZM343 560H529V196Q529 154 513 116.5Q497 79 466 51Q435 23 389.5 6.5Q344 -10 286 -10Q229 -10 184.5 6.5Q140 23 109.5 51Q79 79 63.5 116.5Q48 154 48 196V560H233V232Q233 196 247.5 181.5Q262 167 288 167Q314 167 328.5 181.5Q343 196 343 232Z" glyph-name="Uring.smcp" horiz-adv-x="577" unicode="&#62533;" /><glyph d="M154 769Q154 784 156 811.5Q158 839 169 866Q180 893 203.5 912.5Q227 932 271 932Q287 932 301.5 928Q316 924 329 919.5Q342 915 352.5 911Q363 907 371 907Q379 907 382.5 912Q386 917 386 924V931H526V925Q526 911 524.5 883.5Q523 856 512.5 829Q502 802 478 782Q454 762 409 762Q393 762 378.5 766Q364 770 351 774.5Q338 779 327.5 783Q317 787 309 787Q301 787 297.5 782Q294 777 294 770V762H154ZM340 176Q386 176 407 201.5Q428 227 428 277V700H627V237Q627 185 608 139.5Q589 94 552.5 60.5Q516 27 462 7.5Q408 -12 338 -12Q269 -12 215.5 7.5Q162 27 126 60.5Q90 94 71.5 139.5Q53 185 53 237V700H252V277Q252 227 273 201.5Q294 176 340 176Z" glyph-name="Utilde" horiz-adv-x="680" unicode="&#360;" /><glyph d="M349 600Q337 600 323 603Q309 606 296 610Q283 614 271.5 617Q260 620 254 620Q244 620 244 609V605H136V616Q136 628 137 649Q138 670 147 690Q156 710 176 725Q196 740 235 740Q247 740 261 737Q275 734 288 730Q301 726 312.5 723Q324 720 330 720Q340 720 340 731V735H448V710Q448 698 447 679.5Q446 661 437 643Q428 625 408 612.5Q388 600 349 600ZM343 560H529V196Q529 154 513 116.5Q497 79 466 51Q435 23 389.5 6.5Q344 -10 286 -10Q229 -10 184.5 6.5Q140 23 109.5 51Q79 79 63.5 116.5Q48 154 48 196V560H233V232Q233 196 247.5 181.5Q262 167 288 167Q314 167 328.5 181.5Q343 196 343 232Z" glyph-name="Utilde.smcp" horiz-adv-x="577" unicode="&#62544;" /><glyph d="M0 700H231L340 247H341L456 700H680L472 0H202Z" glyph-name="V" horiz-adv-x="677" unicode="V" /><glyph d="M8 560H224L291 231H292L364 560H575L417 0H159Z" glyph-name="V.smcp" horiz-adv-x="580" unicode="&#62290;" /><glyph d="M580 700 679 305H681L746 700H955L810 0H578L482 387L390 0H149L6 700H223L284 305H286L392 700Z" glyph-name="W" horiz-adv-x="958" unicode="W" /><glyph d="M463 0 402 250 344 0H120L14 560H216L247 283H249L323 560H484L555 283H557L591 560H786L677 0Z" glyph-name="W.smcp" horiz-adv-x="798" unicode="&#62291;" /><glyph d="M440 929H669L572 752H399ZM580 700 679 305H681L746 700H955L810 0H578L482 387L390 0H149L6 700H223L284 305H286L392 700Z" glyph-name="Wacute" horiz-adv-x="965" unicode="&#7810;" /><glyph d="M365 730H567L487 605H334ZM463 0 402 250 344 0H120L14 560H216L247 283H249L323 560H484L555 283H557L591 560H786L677 0Z" glyph-name="Wacute.smcp" horiz-adv-x="798" unicode="&#62297;" /><glyph d="M455 752H285L384 929H580L679 752H509L482 810ZM580 700 679 305H681L746 700H955L810 0H578L482 387L390 0H149L6 700H223L284 305H286L392 700Z" glyph-name="Wcircumflex" horiz-adv-x="965" unicode="&#372;" /><glyph d="M401 641 376 605H231L303 730H499L571 605H426ZM463 0 402 250 344 0H120L14 560H216L247 283H249L323 560H484L555 283H557L591 560H786L677 0Z" glyph-name="Wcircumflex.smcp" horiz-adv-x="798" unicode="&#62545;" /><glyph d="M586 749Q567 749 550 756.5Q533 764 520 777Q507 790 499 807Q491 824 491 843Q491 862 499 879Q507 896 520 909Q533 922 550 929.5Q567 937 586 937Q605 937 622 929.5Q639 922 652 909Q665 896 673 879Q681 862 681 843Q681 824 673 807Q665 790 652 777Q639 764 622 756.5Q605 749 586 749ZM378 749Q359 749 342 756.5Q325 764 312 777Q299 790 291 807Q283 824 283 843Q283 862 291 879Q299 896 312 909Q325 922 342 929.5Q359 937 378 937Q397 937 414 929.5Q431 922 444 909Q457 896 465 879Q473 862 473 843Q473 824 465 807Q457 790 444 777Q431 764 414 756.5Q397 749 378 749ZM580 700 679 305H681L746 700H955L810 0H578L482 387L390 0H149L6 700H223L284 305H286L392 700Z" glyph-name="Wdieresis" horiz-adv-x="965" unicode="&#7812;" /><glyph d="M497 769Q514 769 529.5 762Q545 755 557 743.5Q569 732 576 716.5Q583 701 583 684Q583 667 576 652Q569 637 557 625.5Q545 614 529.5 607Q514 600 497 600Q480 600 464.5 607Q449 614 437 625.5Q425 637 418 652Q411 667 411 684Q411 701 418 716.5Q425 732 437 743.5Q449 755 464.5 762Q480 769 497 769ZM307 769Q324 769 339.5 762Q355 755 367 743.5Q379 732 386 716.5Q393 701 393 684Q393 667 386 652Q379 637 367 625.5Q355 614 339.5 607Q324 600 307 600Q290 600 274.5 607Q259 614 247 625.5Q235 637 228 652Q221 667 221 684Q221 701 228 716.5Q235 732 247 743.5Q259 755 274.5 762Q290 769 307 769ZM463 0 402 250 344 0H120L14 560H216L247 283H249L323 560H484L555 283H557L591 560H786L677 0Z" glyph-name="Wdieresis.smcp" horiz-adv-x="798" unicode="&#62304;" /><glyph d="M563 752H390L293 929H522ZM580 700 679 305H681L746 700H955L810 0H578L482 387L390 0H149L6 700H223L284 305H286L392 700Z" glyph-name="Wgrave" horiz-adv-x="965" unicode="&#7808;" /><glyph d="M476 605H323L243 730H445ZM463 0 402 250 344 0H120L14 560H216L247 283H249L323 560H484L555 283H557L591 560H786L677 0Z" glyph-name="Wgrave.smcp" horiz-adv-x="798" unicode="&#62305;" /><glyph d="M458 348 668 0H433L325 191L226 0H-8L201 356L2 700H238L335 517L430 700H664Z" glyph-name="X" horiz-adv-x="662" unicode="X" /><glyph d="M402 278 562 0H343L277 129L219 0H1L161 285L9 560H229L286 439L340 560H559Z" glyph-name="X.smcp" horiz-adv-x="565" unicode="&#62292;" /><glyph d="M-15 700H234L340 494H343L454 700H686L438 271V0H238V268Z" glyph-name="Y" horiz-adv-x="674" unicode="Y" /><glyph d="M-2 560H230L290 421H293L358 560H574L381 206V0H195V204Z" glyph-name="Y.smcp" horiz-adv-x="574" unicode="&#62293;" /><glyph d="M286 929H515L418 752H245ZM-15 700H234L340 494H343L454 700H686L438 271V0H238V268Z" glyph-name="Yacute" horiz-adv-x="674" unicode="&#221;" /><glyph d="M255 730H457L377 605H224ZM-2 560H230L290 421H293L358 560H574L381 206V0H195V204Z" glyph-name="Yacute.smcp" horiz-adv-x="574" unicode="&#62482;" /><glyph d="M315 752H145L244 929H440L539 752H369L342 810ZM-15 700H234L340 494H343L454 700H686L438 271V0H238V268Z" glyph-name="Ycircumflex" horiz-adv-x="674" unicode="&#374;" /><glyph d="M291 641 266 605H121L193 730H389L461 605H316ZM-2 560H230L290 421H293L358 560H574L381 206V0H195V204Z" glyph-name="Ycircumflex.smcp" horiz-adv-x="574" unicode="&#62546;" /><glyph d="M446 749Q427 749 410 756.5Q393 764 380 777Q367 790 359 807Q351 824 351 843Q351 862 359 879Q367 896 380 909Q393 922 410 929.5Q427 937 446 937Q465 937 482 929.5Q499 922 512 909Q525 896 533 879Q541 862 541 843Q541 824 533 807Q525 790 512 777Q499 764 482 756.5Q465 749 446 749ZM238 749Q219 749 202 756.5Q185 764 172 777Q159 790 151 807Q143 824 143 843Q143 862 151 879Q159 896 172 909Q185 922 202 929.5Q219 937 238 937Q257 937 274 929.5Q291 922 304 909Q317 896 325 879Q333 862 333 843Q333 824 325 807Q317 790 304 777Q291 764 274 756.5Q257 749 238 749ZM-15 700H234L340 494H343L454 700H686L438 271V0H238V268Z" glyph-name="Ydieresis" horiz-adv-x="674" unicode="&#376;" /><glyph d="M387 769Q404 769 419.5 762Q435 755 447 743.5Q459 732 466 716.5Q473 701 473 684Q473 667 466 652Q459 637 447 625.5Q435 614 419.5 607Q404 600 387 600Q370 600 354.5 607Q339 614 327 625.5Q315 637 308 652Q301 667 301 684Q301 701 308 716.5Q315 732 327 743.5Q339 755 354.5 762Q370 769 387 769ZM197 769Q214 769 229.5 762Q245 755 257 743.5Q269 732 276 716.5Q283 701 283 684Q283 667 276 652Q269 637 257 625.5Q245 614 229.5 607Q214 600 197 600Q180 600 164.5 607Q149 614 137 625.5Q125 637 118 652Q111 667 111 684Q111 701 118 716.5Q125 732 137 743.5Q149 755 164.5 762Q180 769 197 769ZM-2 560H230L290 421H293L358 560H574L381 206V0H195V204Z" glyph-name="Ydieresis.smcp" horiz-adv-x="574" unicode="&#62547;" /><glyph d="M428 752H255L158 929H387ZM-15 700H234L340 494H343L454 700H686L438 271V0H238V268Z" glyph-name="Ygrave" horiz-adv-x="674" unicode="&#7922;" /><glyph d="M364 605H211L131 730H333ZM-2 560H230L290 421H293L358 560H574L381 206V0H195V204Z" glyph-name="Ygrave.smcp" horiz-adv-x="574" unicode="&#62306;" /><glyph d="M42 517V700H643V526L319 184H643V0H34V167L368 517Z" glyph-name="Z" horiz-adv-x="682" unicode="Z" /><glyph d="M42 388V560H543V398L307 173H543V0H36V156L282 388Z" glyph-name="Z.smcp" horiz-adv-x="582" unicode="&#62294;" /><glyph d="M285 929H514L417 752H244ZM42 517V700H643V526L319 184H643V0H34V167L368 517Z" glyph-name="Zacute" horiz-adv-x="682" unicode="&#377;" /><glyph d="M247 730H449L369 605H216ZM42 388V560H543V398L307 173H543V0H36V156L282 388Z" glyph-name="Zacute.smcp" horiz-adv-x="582" unicode="&#62483;" /><glyph d="M337 896 364 954H534L435 777H239L140 954H310ZM42 517V700H643V526L319 184H643V0H34V167L368 517Z" glyph-name="Zcaron" horiz-adv-x="682" unicode="&#381;" /><glyph d="M321 730H466L394 605H198L126 730H271L296 694ZM42 388V560H543V398L307 173H543V0H36V156L282 388Z" glyph-name="Zcaron.smcp" horiz-adv-x="582" unicode="&#62549;" /><glyph d="M349 749Q330 749 313 756.5Q296 764 283 777Q270 790 262 807Q254 824 254 843Q254 862 262 879Q270 896 283 909Q296 922 313 929.5Q330 937 349 937Q368 937 385 929.5Q402 922 415 909Q428 896 436 879Q444 862 444 843Q444 824 436 807Q428 790 415 777Q402 764 385 756.5Q368 749 349 749ZM42 517V700H643V526L319 184H643V0H34V167L368 517Z" glyph-name="Zdotaccent" horiz-adv-x="682" unicode="&#379;" /><glyph d="M300 769Q317 769 332.5 762Q348 755 360 743.5Q372 732 379 716.5Q386 701 386 684Q386 667 379 652Q372 637 360 625.5Q348 614 332.5 607Q317 600 300 600Q283 600 267.5 607Q252 614 240 625.5Q228 637 221 652Q214 667 214 684Q214 701 221 716.5Q228 732 240 743.5Q252 755 267.5 762Q283 769 300 769ZM42 388V560H543V398L307 173H543V0H36V156L282 388Z" glyph-name="Zdotaccent.smcp" horiz-adv-x="582" unicode="&#62548;" /><glyph d="M289 297Q289 307 278.5 315.5Q268 324 239 324Q197 324 155.5 312.5Q114 301 88 289L34 434Q72 454 132 468.5Q192 483 255 483Q298 483 337.5 474Q377 465 408 444.5Q439 424 457.5 389.5Q476 355 476 304V0H289V41Q274 22 245 5Q216 -12 169 -12Q131 -12 102 0.5Q73 13 53.5 33Q34 53 24 78Q14 103 14 127Q14 196 57 234Q100 272 175 272H255Q289 272 289 296ZM201 144Q201 127 213 116.5Q225 106 242 106Q259 106 274 118Q289 130 289 157V190Q284 182 275.5 180.5Q267 179 260 179H244Q226 179 213.5 170.5Q201 162 201 144Z" glyph-name="a" horiz-adv-x="516" unicode="a" /><glyph d="M214 700H443L346 523H173ZM289 297Q289 307 278.5 315.5Q268 324 239 324Q197 324 155.5 312.5Q114 301 88 289L34 434Q72 454 132 468.5Q192 483 255 483Q298 483 337.5 474Q377 465 408 444.5Q439 424 457.5 389.5Q476 355 476 304V0H289V41Q274 22 245 5Q216 -12 169 -12Q131 -12 102 0.5Q73 13 53.5 33Q34 53 24 78Q14 103 14 127Q14 196 57 234Q100 272 175 272H255Q289 272 289 296ZM201 144Q201 127 213 116.5Q225 106 242 106Q259 106 274 118Q289 130 289 157V190Q284 182 275.5 180.5Q267 179 260 179H244Q226 179 213.5 170.5Q201 162 201 144Z" glyph-name="aacute" horiz-adv-x="516" unicode="&#225;" /><glyph d="M292 700H421V658Q421 620 408 592.5Q395 565 373 546.5Q351 528 321.5 519Q292 510 258 510Q224 510 194.5 519Q165 528 142.5 546.5Q120 565 107 592.5Q94 620 94 658V700H223V675Q223 653 232 644Q241 635 258 635Q275 635 283.5 644Q292 653 292 675ZM289 297Q289 307 278.5 315.5Q268 324 239 324Q197 324 155.5 312.5Q114 301 88 289L34 434Q72 454 132 468.5Q192 483 255 483Q298 483 337.5 474Q377 465 408 444.5Q439 424 457.5 389.5Q476 355 476 304V0H289V41Q274 22 245 5Q216 -12 169 -12Q131 -12 102 0.5Q73 13 53.5 33Q34 53 24 78Q14 103 14 127Q14 196 57 234Q100 272 175 272H255Q289 272 289 296ZM201 144Q201 127 213 116.5Q225 106 242 106Q259 106 274 118Q289 130 289 157V190Q284 182 275.5 180.5Q267 179 260 179H244Q226 179 213.5 170.5Q201 162 201 144Z" glyph-name="abreve" horiz-adv-x="516" unicode="&#259;" /><glyph d="M230 523H60L159 700H355L454 523H284L257 581ZM289 297Q289 307 278.5 315.5Q268 324 239 324Q197 324 155.5 312.5Q114 301 88 289L34 434Q72 454 132 468.5Q192 483 255 483Q298 483 337.5 474Q377 465 408 444.5Q439 424 457.5 389.5Q476 355 476 304V0H289V41Q274 22 245 5Q216 -12 169 -12Q131 -12 102 0.5Q73 13 53.5 33Q34 53 24 78Q14 103 14 127Q14 196 57 234Q100 272 175 272H255Q289 272 289 296ZM201 144Q201 127 213 116.5Q225 106 242 106Q259 106 274 118Q289 130 289 157V190Q284 182 275.5 180.5Q267 179 260 179H244Q226 179 213.5 170.5Q201 162 201 144Z" glyph-name="acircumflex" horiz-adv-x="516" unicode="&#226;" /><glyph d="M56 700H285L188 523H15Z" glyph-name="acute" horiz-adv-x="300" unicode="&#180;" /><glyph d="M114 730H316L236 605H83Z" glyph-name="acute.smcp" horiz-adv-x="400" unicode="&#63412;" /><glyph d="M362 520Q343 520 326 527.5Q309 535 296 548Q283 561 275 578Q267 595 267 614Q267 633 275 650Q283 667 296 680Q309 693 326 700.5Q343 708 362 708Q381 708 398 700.5Q415 693 428 680Q441 667 449 650Q457 633 457 614Q457 595 449 578Q441 561 428 548Q415 535 398 527.5Q381 520 362 520ZM154 520Q135 520 118 527.5Q101 535 88 548Q75 561 67 578Q59 595 59 614Q59 633 67 650Q75 667 88 680Q101 693 118 700.5Q135 708 154 708Q173 708 190 700.5Q207 693 220 680Q233 667 241 650Q249 633 249 614Q249 595 241 578Q233 561 220 548Q207 535 190 527.5Q173 520 154 520ZM289 297Q289 307 278.5 315.5Q268 324 239 324Q197 324 155.5 312.5Q114 301 88 289L34 434Q72 454 132 468.5Q192 483 255 483Q298 483 337.5 474Q377 465 408 444.5Q439 424 457.5 389.5Q476 355 476 304V0H289V41Q274 22 245 5Q216 -12 169 -12Q131 -12 102 0.5Q73 13 53.5 33Q34 53 24 78Q14 103 14 127Q14 196 57 234Q100 272 175 272H255Q289 272 289 296ZM201 144Q201 127 213 116.5Q225 106 242 106Q259 106 274 118Q289 130 289 157V190Q284 182 275.5 180.5Q267 179 260 179H244Q226 179 213.5 170.5Q201 162 201 144Z" glyph-name="adieresis" horiz-adv-x="516" unicode="&#228;" /><glyph d="M254 483Q287 483 311 479.5Q335 476 353 470Q371 464 384.5 456Q398 448 410 440Q442 460 478 471.5Q514 483 556 483Q603 483 648 466.5Q693 450 728.5 415.5Q764 381 786 326Q808 271 808 195V192H485Q492 167 515 155Q538 143 561 143Q603 143 631 176L797 113Q765 56 702.5 22Q640 -12 555 -12Q497 -12 451 5Q405 22 375 56Q350 29 304 8.5Q258 -12 194 -12Q160 -12 127.5 -2Q95 8 70 27.5Q45 47 29.5 75Q14 103 14 140Q14 206 58.5 239Q103 272 175 272H255Q289 272 289 296V297Q289 307 278.5 315.5Q268 324 239 324Q197 324 155.5 312.5Q114 301 88 289L34 434Q72 454 131.5 468.5Q191 483 254 483ZM201 144Q201 127 213 116.5Q225 106 242 106Q259 106 274 118Q289 130 289 157V190Q284 182 275.5 180.5Q267 179 260 179H244Q226 179 213.5 170.5Q201 162 201 144ZM550 336Q528 336 509 322Q490 308 485 284H615Q610 308 591 322Q572 336 550 336Z" glyph-name="ae" horiz-adv-x="819" unicode="&#230;" /><glyph d="M186 360Q240 414 269.5 472.5Q299 531 299 594Q299 609 296 626Q293 643 285.5 657.5Q278 672 266 681Q254 690 237 690Q218 690 202 675Q186 660 186 620ZM325 588Q325 548 313.5 512.5Q302 477 283.5 445Q265 413 240 384.5Q215 356 188 330V99Q188 77 194 61.5Q200 46 209.5 36.5Q219 27 231.5 22.5Q244 18 257 18Q318 18 329 91H349Q345 59 331 39Q317 19 299.5 8Q282 -3 263.5 -7Q245 -11 232 -11Q205 -11 180 -3Q155 5 135.5 25Q116 45 104 79Q92 113 92 164V250Q83 242 73 235Q65 229 56 222Q47 215 40 210L23 229Q36 238 48 247Q60 256 70 264Q80 272 86 276.5Q92 281 92 281V541Q92 620 125 666.5Q158 713 223 713Q274 713 299.5 680Q325 647 325 588Z" glyph-name="afii61289" horiz-adv-x="372" unicode="&#8467;" /><glyph d="M328 523H155L58 700H287ZM289 297Q289 307 278.5 315.5Q268 324 239 324Q197 324 155.5 312.5Q114 301 88 289L34 434Q72 454 132 468.5Q192 483 255 483Q298 483 337.5 474Q377 465 408 444.5Q439 424 457.5 389.5Q476 355 476 304V0H289V41Q274 22 245 5Q216 -12 169 -12Q131 -12 102 0.5Q73 13 53.5 33Q34 53 24 78Q14 103 14 127Q14 196 57 234Q100 272 175 272H255Q289 272 289 296ZM201 144Q201 127 213 116.5Q225 106 242 106Q259 106 274 118Q289 130 289 157V190Q284 182 275.5 180.5Q267 179 260 179H244Q226 179 213.5 170.5Q201 162 201 144Z" glyph-name="agrave" horiz-adv-x="516" unicode="&#224;" /><glyph d="M84 663H432V525H84ZM289 297Q289 307 278.5 315.5Q268 324 239 324Q197 324 155.5 312.5Q114 301 88 289L34 434Q72 454 132 468.5Q192 483 255 483Q298 483 337.5 474Q377 465 408 444.5Q439 424 457.5 389.5Q476 355 476 304V0H289V41Q274 22 245 5Q216 -12 169 -12Q131 -12 102 0.5Q73 13 53.5 33Q34 53 24 78Q14 103 14 127Q14 196 57 234Q100 272 175 272H255Q289 272 289 296ZM201 144Q201 127 213 116.5Q225 106 242 106Q259 106 274 118Q289 130 289 157V190Q284 182 275.5 180.5Q267 179 260 179H244Q226 179 213.5 170.5Q201 162 201 144Z" glyph-name="amacron" horiz-adv-x="516" unicode="&#257;" /><glyph d="M241 268Q228 259 221.5 245Q215 231 215 219Q215 196 229.5 183.5Q244 171 264 171Q276 171 288.5 176Q301 181 308 191ZM691 0H485L432 60Q400 25 353.5 6.5Q307 -12 253 -12Q209 -12 167 2.5Q125 17 92 45Q59 73 39 112Q19 151 19 201Q19 258 52 307Q85 356 143 390Q117 426 106 453.5Q95 481 95 516Q95 564 114.5 600.5Q134 637 165.5 662Q197 687 237.5 699.5Q278 712 321 712Q366 712 406.5 700Q447 688 477 665Q507 642 524.5 607Q542 572 542 526Q542 510 538 491Q534 472 525 454L359 475Q363 485 364.5 495.5Q366 506 366 511Q365 529 354.5 540Q344 551 325 551Q309 551 298.5 540Q288 529 288 509Q288 488 306 467.5Q324 447 344 424L420 339Q426 354 429 364.5Q432 375 435 394H644Q638 362 628 332Q618 302 607 275.5Q596 249 584.5 227.5Q573 206 563 192L691 46Z" glyph-name="ampersand" horiz-adv-x="698" unicode="&amp;" /><glyph d="M216 221Q205 213 199 199.5Q193 186 193 173Q193 155 206.5 142Q220 129 241 129Q250 129 261 133.5Q272 138 279 143ZM359 41Q339 22 304 6Q269 -10 218 -10Q180 -10 146 1.5Q112 13 86 35.5Q60 58 44.5 91Q29 124 29 166Q29 217 60 257Q91 297 139 313Q125 324 111.5 350.5Q98 377 98 411Q98 448 113 477Q128 506 154 526.5Q180 547 214.5 558Q249 569 287 569Q323 569 356.5 560Q390 551 416 532Q442 513 457.5 485Q473 457 473 420Q473 397 467 372L318 391Q323 403 323 412Q323 424 315.5 431Q308 438 296 438Q285 438 277.5 430Q270 422 270 411Q270 394 281.5 378.5Q293 363 313 340L369 275Q370 281 372 288Q374 293 375 300Q376 307 376 313H545Q544 293 540.5 270Q537 247 530 224Q523 201 512.5 180Q502 159 489 143L574 43V0H393Z" glyph-name="ampersand.smcp" horiz-adv-x="589" unicode="&#58369;" /><glyph d="M201 144Q201 127 213 116.5Q225 106 242 106Q259 106 274 118Q289 130 289 157V190Q284 182 275.5 180.5Q267 179 260 179H244Q226 179 213.5 170.5Q201 162 201 144ZM289 297Q289 307 278.5 315.5Q268 324 239 324Q197 324 155.5 312.5Q114 301 88 289L34 434Q72 454 132 468.5Q192 483 255 483Q298 483 337.5 474Q377 465 408 444.5Q439 424 457.5 389.5Q476 355 476 304V0H431Q408 -17 400.5 -32Q393 -47 393 -58Q393 -74 405.5 -80.5Q418 -87 432 -87Q452 -87 469 -83Q486 -79 496 -77L492 -175Q481 -180 463 -184Q448 -188 425.5 -190.5Q403 -193 372 -193Q342 -193 316 -187.5Q290 -182 270.5 -170.5Q251 -159 239.5 -141Q228 -123 228 -97Q228 -67 247 -42Q266 -17 305 0H289V41Q274 22 245 5Q216 -12 169 -12Q131 -12 102 0.5Q73 13 53.5 33Q34 53 24 78Q14 103 14 127Q14 196 57 234Q100 272 175 272H255Q289 272 289 296Z" glyph-name="aogonek" horiz-adv-x="516" unicode="&#261;" /><glyph d="M157 438 199 539Q183 553 174 571Q165 589 165 612Q165 633 173 651Q181 669 194.5 682.5Q208 696 226.5 704Q245 712 265 712Q314 712 341 682.5Q368 653 368 612Q368 595 362 576Q356 557 346 543L275 438Z" glyph-name="apostrophe" horiz-adv-x="510" unicode="&#700;" /><glyph d="M421 655Q421 641 430 631.5Q439 622 453 622Q467 622 476 632Q485 642 485 654Q485 668 476 677.5Q467 687 453 687Q439 687 430 677.5Q421 668 421 655ZM566 3Q566 -11 575 -20.5Q584 -30 598 -30Q612 -30 621 -20Q630 -10 630 2Q630 16 621 25.5Q612 35 598 35Q584 35 575 25.5Q566 16 566 3ZM823 613 882 645 907 595Q913 583 907 571Q901 559 890 553Q879 548 867 549Q855 550 849 561ZM226 412 340 372Q348 369 354.5 372Q361 375 363 383Q366 390 363 397Q360 404 352 406L237 447L252 494Q254 502 251 508.5Q248 515 240 517Q233 519 226 516Q219 513 217 505L174 373Q172 366 175 359Q178 352 186 350Q194 348 200.5 351Q207 354 209 362ZM254 575Q246 573 242 567Q238 561 240 553Q242 545 248 541Q254 537 262 539L366 562L375 540Q368 531 368 522Q368 511 375.5 503.5Q383 496 394 496Q405 496 411 504Q419 511 418.5 520.5Q418 530 415 538L352 697Q349 704 342.5 707Q336 710 328 707Q321 704 318 697.5Q315 691 318 683L352 597ZM598 506Q550 506 506 520Q526 555 549.5 588.5Q573 622 600 650Q625 624 648 591Q671 558 693 521Q649 506 598 506ZM991 492Q988 499 981 502Q973 504 967 501L838 439Q831 435 828.5 428.5Q826 422 829 415L876 310Q883 294 899 301Q907 304 909.5 311Q912 318 909 324L869 414L902 429L917 396Q920 389 927 386.5Q934 384 941 387Q957 394 950 411L935 445L966 460L998 388Q1001 381 1008 378.5Q1015 376 1022 379Q1029 382 1031.5 389Q1034 396 1031 403ZM817 545Q828 523 852 515Q881 507 907 522Q933 536 942 562Q951 588 939 611L906 678Q903 686 895 687.5Q887 689 881 686L746 612Q739 608 737 601Q735 594 739 587Q743 580 750 578Q757 576 764 580L791 595ZM747 97Q747 105 742 110Q737 115 729 115H550Q575 128 605.5 146Q636 164 662 187.5Q688 211 705.5 240Q723 269 723 304Q723 327 715 349Q707 371 691.5 388.5Q676 406 653 417Q630 428 600 428Q573 428 549 419.5Q525 411 507 396Q489 381 479 359.5Q469 338 469 312Q469 295 475 278.5Q481 262 492.5 248.5Q504 235 520 227Q536 219 556 219Q569 219 583 223Q597 227 608 236Q619 245 626.5 259Q634 273 634 292Q634 318 621 327Q608 336 598 336Q584 336 574.5 326.5Q565 317 565 304Q565 287 580 277Q581 275 577 265Q573 255 554 255Q531 255 519 274.5Q507 294 507 313Q507 349 532 371Q557 393 598 393Q641 393 662 365.5Q683 338 683 305Q683 282 673.5 262.5Q664 243 648 225.5Q632 208 612.5 193.5Q593 179 574 166Q536 142 506.5 127.5Q477 113 474 110Q466 100 470 90Q475 79 487 79H728Q747 79 747 97ZM818 751Q921 751 990 682Q1030 643 1051.5 588Q1073 533 1073 473Q1073 402 1048.5 339Q1024 276 989 223Q927 134 825 53Q787 23 750 -1.5Q713 -26 682.5 -44Q652 -62 629.5 -74Q607 -86 598 -90Q589 -86 566.5 -74Q544 -62 513.5 -44Q483 -26 446.5 -1Q410 24 372 54Q269 136 209 226Q170 283 148 346.5Q126 410 126 474Q126 535 148 590Q170 645 210 684Q281 752 382 752Q439 752 487.5 729.5Q536 707 574 675Q548 647 523 614Q498 581 475 540Q449 495 429 449.5Q409 404 394 361.5Q379 319 368.5 282.5Q358 246 352 221L302 231Q295 233 289 229Q283 225 281 218Q279 211 283 205.5Q287 200 295 198L430 169Q437 167 442.5 171Q448 175 450 182Q453 199 437 203L389 213Q394 234 402.5 264.5Q411 295 423.5 331Q436 367 452 407Q468 447 489 487Q541 468 598 468Q658 468 710 488Q730 449 746 409Q762 369 774 333Q786 297 794.5 265.5Q803 234 808 212L760 202Q744 198 746 182Q748 174 754 170Q760 166 767 168L902 196Q909 198 913 203.5Q917 209 915 216Q914 224 908 228Q902 232 895 230L846 220Q846 221 845.5 221.5Q845 222 845 223Q839 248 828.5 284.5Q818 321 803 363.5Q788 406 767.5 452Q747 498 722 543Q679 621 627 674Q669 710 717 730.5Q765 751 818 751ZM1110 474Q1110 541 1085.5 602Q1061 663 1016 708Q934 787 818 787Q752 787 697.5 762.5Q643 738 600 700Q550 743 495 765.5Q440 788 379 788Q265 788 184 710Q139 665 114 603.5Q89 542 89 473Q89 400 114 331.5Q139 263 179 205Q211 157 253.5 112Q296 67 350 25Q395 -11 437 -38.5Q479 -66 512 -85Q545 -104 566 -113.5Q587 -123 589 -124Q598 -128 607 -124Q609 -123 630 -113.5Q651 -104 684.5 -85Q718 -66 760.5 -39Q803 -12 848 24Q954 107 1019 203Q1062 266 1086 334.5Q1110 403 1110 474ZM1053 734Q1101 684 1127.5 615.5Q1154 547 1154 473Q1154 400 1131.5 332Q1109 264 1070.5 202Q1032 140 980.5 85.5Q929 31 871 -15Q813 -61 750.5 -98Q688 -135 629 -162Q611 -170 598 -170Q585 -170 567 -162Q505 -134 442 -96Q379 -58 321 -11Q263 36 212.5 91Q162 146 125 207.5Q88 269 66.5 336.5Q45 404 45 475Q45 550 72 618.5Q99 687 147 737Q193 784 253.5 807Q314 830 382 830Q449 830 504.5 806Q560 782 604 744Q652 787 706.5 807.5Q761 828 821 828Q888 828 948 804.5Q1008 781 1053 734Z" glyph-name="apple" horiz-adv-x="1199" unicode="&#63743;" /><glyph d="M489 340V238Q489 222 487 201Q485 180 474 161.5Q463 143 440.5 130.5Q418 118 376 118Q360 118 336.5 124Q313 130 289.5 136.5Q266 143 247.5 149Q229 155 223 155Q212 155 207.5 150Q203 145 203 137V120H31V222Q31 238 33 259Q35 280 46 298.5Q57 317 79.5 329.5Q102 342 144 342Q160 342 183.5 336Q207 330 230.5 323.5Q254 317 273 311Q292 305 298 305Q309 305 313.5 310Q318 315 318 323V340ZM489 581V479Q489 463 487 442Q485 421 474 402.5Q463 384 440.5 371.5Q418 359 376 359Q360 359 336.5 365Q313 371 289.5 377.5Q266 384 247.5 390Q229 396 223 396Q212 396 207.5 391Q203 386 203 378V361H31V463Q31 479 33 500Q35 521 46 539.5Q57 558 79.5 570.5Q102 583 144 583Q160 583 183.5 577Q207 571 230.5 564.5Q254 558 273 552Q292 546 298 546Q309 546 313.5 551Q318 556 318 564V581Z" glyph-name="approxequal" horiz-adv-x="520" unicode="&#8776;" /><glyph d="M269 455Q276 455 276 464V467H436Q436 452 434.5 423.5Q433 395 422 367Q411 339 385.5 318.5Q360 298 312 298Q293 298 284 300.5Q275 303 270 305.5Q265 308 261.5 310.5Q258 313 251 313Q246 313 244.5 309Q243 305 243 301V296H79Q79 311 81.5 339.5Q84 368 96 396Q108 424 133.5 445Q159 466 205 466Q224 466 234 464.5Q244 463 249 460.5Q254 458 257.5 456.5Q261 455 269 455ZM269 255Q276 255 276 264V267H436Q436 251 434.5 222.5Q433 194 421.5 166.5Q410 139 385 118.5Q360 98 312 98Q293 98 284 100Q275 102 270 105Q265 108 261.5 110Q258 112 251 112Q243 112 243 101V94H79Q79 109 81.5 137.5Q84 166 96 195Q108 224 133.5 245.5Q159 267 205 267Q224 267 234 265Q244 263 249 261Q254 259 257.5 257Q261 255 269 255Z" glyph-name="approxequal.smcp" horiz-adv-x="515" unicode="&#62005;" /><glyph d="M257 586Q276 586 289 600Q302 614 302 634Q302 654 289 668Q276 682 257 682Q238 682 225 668Q212 654 212 634Q212 614 225 600Q238 586 257 586ZM257 504Q228 504 202.5 514Q177 524 158.5 541.5Q140 559 129.5 582.5Q119 606 119 634Q119 662 129.5 685.5Q140 709 158.5 726.5Q177 744 202.5 754Q228 764 257 764Q286 764 311.5 754Q337 744 355.5 726.5Q374 709 384.5 685.5Q395 662 395 634Q395 606 384.5 582.5Q374 559 355.5 541.5Q337 524 311.5 514Q286 504 257 504ZM289 297Q289 307 278.5 315.5Q268 324 239 324Q197 324 155.5 312.5Q114 301 88 289L34 434Q72 454 132 468.5Q192 483 255 483Q298 483 337.5 474Q377 465 408 444.5Q439 424 457.5 389.5Q476 355 476 304V0H289V41Q274 22 245 5Q216 -12 169 -12Q131 -12 102 0.5Q73 13 53.5 33Q34 53 24 78Q14 103 14 127Q14 196 57 234Q100 272 175 272H255Q289 272 289 296ZM201 144Q201 127 213 116.5Q225 106 242 106Q259 106 274 118Q289 130 289 157V190Q284 182 275.5 180.5Q267 179 260 179H244Q226 179 213.5 170.5Q201 162 201 144Z" glyph-name="aring" horiz-adv-x="516" unicode="&#229;" /><glyph d="M283 706H472V357L609 467L732 341L377 20L23 342L146 468L284 357Z" glyph-name="arrow.down" horiz-adv-x="755" unicode="&#62245;" /><glyph d="M284 369 146 258 23 384 377 706 732 385 609 259 472 369V20H283Z" glyph-name="arrow.up" horiz-adv-x="755" unicode="&#62244;" /><glyph d="M532 620 665 487 419 240 593 221 591 45 113 69 90 547 266 549 286 373Z" glyph-name="arrowdown.left" horiz-adv-x="755" unicode="&#62248;" /><glyph d="M469 373 489 549 665 547 642 69 164 45 162 221 336 240 90 487 223 620Z" glyph-name="arrowdown.right" horiz-adv-x="755" unicode="&#62249;" /><glyph d="M286 292 266 116 90 118 113 596 591 620 593 444 419 425 665 178 532 45Z" glyph-name="arrowup.left" horiz-adv-x="755" unicode="&#62246;" /><glyph d="M223 45 90 178 336 425 162 444 164 620 642 596 665 118 489 116 469 292Z" glyph-name="arrowup.right" horiz-adv-x="755" unicode="&#62247;" /><glyph d="M185 700H406L542 225H352L292 483L229 225H38Z" glyph-name="asciicircum" horiz-adv-x="580" unicode="^" /><glyph d="M491 454V352Q491 336 489 315Q487 294 476 275.5Q465 257 442.5 244.5Q420 232 378 232Q362 232 338.5 238Q315 244 291.5 250.5Q268 257 249.5 263Q231 269 225 269Q214 269 209.5 264Q205 259 205 251V234H33V336Q33 352 35 373Q37 394 48 412.5Q59 431 81.5 443.5Q104 456 146 456Q162 456 185.5 450Q209 444 232.5 437.5Q256 431 275 425Q294 419 300 419Q311 419 315.5 424Q320 429 320 437V454Z" glyph-name="asciitilde" horiz-adv-x="520" unicode="~" /><glyph d="M217 467Q217 440 236.5 420.5Q256 401 283 401Q309 401 328.5 421Q348 441 348 467Q348 493 328.5 513Q309 533 283 533Q256 533 236.5 513.5Q217 494 217 467ZM434 460Q476 452 502 430.5Q528 409 528 375Q528 340 505 320Q482 300 451 300Q432 300 404 319.5Q376 339 345 365Q353 343 358.5 318Q364 293 364 279Q364 247 340.5 224.5Q317 202 282 202Q247 202 224 224.5Q201 247 201 279Q201 293 206.5 318Q212 343 220 365Q189 339 160.5 319.5Q132 300 114 300Q83 300 60 320Q37 340 37 375Q37 408 63 430Q89 452 131 460L169 467L131 474Q89 482 63 504Q37 526 37 559Q37 594 60 614Q83 634 114 634Q132 634 160.5 614.5Q189 595 220 569Q212 591 206.5 616Q201 641 201 655Q201 687 224 709.5Q247 732 282 732Q317 732 340.5 709.5Q364 687 364 655Q364 641 358.5 616Q353 591 345 569Q376 595 404 614.5Q432 634 451 634Q482 634 505 614Q528 594 528 559Q528 525 502 503.5Q476 482 434 474L396 467Z" glyph-name="asterisk" horiz-adv-x="565" unicode="*" /><glyph d="M256 434Q294 454 354 468.5Q414 483 477 483Q520 483 559.5 474Q599 465 630 444.5Q661 424 679.5 389.5Q698 355 698 304V127Q698 109 705 102.5Q712 96 723 96Q738 96 750.5 110.5Q763 125 772 149.5Q781 174 786 205.5Q791 237 791 271Q791 339 766.5 394.5Q742 450 699.5 489Q657 528 598.5 549Q540 570 473 570Q402 570 340 547.5Q278 525 232.5 482Q187 439 160.5 377Q134 315 134 236Q134 160 158.5 98Q183 36 227.5 -8Q272 -52 335 -76Q398 -100 475 -100Q526 -100 576 -87.5Q626 -75 664 -49L792 -68Q734 -126 651.5 -154.5Q569 -183 476 -183Q379 -183 298.5 -152Q218 -121 160.5 -65.5Q103 -10 71 66.5Q39 143 39 234Q39 329 72 406.5Q105 484 163.5 538.5Q222 593 302 622.5Q382 652 477 652Q558 652 632 625.5Q706 599 761.5 550.5Q817 502 850 432.5Q883 363 883 277Q883 218 869 165.5Q855 113 827 73.5Q799 34 757 11Q715 -12 660 -12Q634 -12 613 -7Q592 -2 575 5.5Q558 13 546 20.5Q534 28 528 34Q509 14 475.5 1Q442 -12 391 -12Q353 -12 324 0.5Q295 13 275.5 33Q256 53 246 78Q236 103 236 129Q236 198 281 235Q326 272 404 272H477Q511 272 511 296V298Q511 308 500.5 316Q490 324 461 324Q419 324 377.5 312.5Q336 301 310 289ZM423 144Q423 127 435 116.5Q447 106 464 106Q481 106 496 118Q511 130 511 157V190Q506 182 497.5 180.5Q489 179 482 179H466Q448 179 435.5 170.5Q423 162 423 144Z" glyph-name="at" horiz-adv-x="915" unicode="@" /><glyph d="M243 549Q281 569 341 583.5Q401 598 464 598Q507 598 546.5 589Q586 580 617 559.5Q648 539 666.5 504.5Q685 470 685 419V242Q685 224 692 217.5Q699 211 710 211Q725 211 737.5 225.5Q750 240 759 264.5Q768 289 773 320.5Q778 352 778 386Q778 454 753.5 509.5Q729 565 686.5 604Q644 643 585.5 664Q527 685 460 685Q389 685 327 662.5Q265 640 219.5 597Q174 554 147.5 492Q121 430 121 351Q121 275 145.5 213Q170 151 214.5 107Q259 63 322 39Q385 15 462 15Q513 15 563 27.5Q613 40 651 66L779 47Q721 -11 638.5 -39.5Q556 -68 463 -68Q366 -68 285.5 -37Q205 -6 147.5 49.5Q90 105 58 181.5Q26 258 26 349Q26 444 59 521.5Q92 599 150.5 653.5Q209 708 289 737.5Q369 767 464 767Q545 767 619 740.5Q693 714 748.5 665.5Q804 617 837 547.5Q870 478 870 392Q870 333 856 280.5Q842 228 814 188.5Q786 149 744 126Q702 103 647 103Q621 103 600 108Q579 113 562 120.5Q545 128 533 135.5Q521 143 515 149Q496 129 462.5 116Q429 103 378 103Q340 103 311 115.5Q282 128 262.5 148Q243 168 233 193Q223 218 223 244Q223 313 268 350Q313 387 391 387H464Q498 387 498 411V413Q498 423 487.5 431Q477 439 448 439Q406 439 364.5 427.5Q323 416 297 404ZM410 259Q410 242 422 231.5Q434 221 451 221Q468 221 483 233Q498 245 498 272V305Q493 297 484.5 295.5Q476 294 469 294H453Q435 294 422.5 285.5Q410 277 410 259Z" glyph-name="at.alt" horiz-adv-x="886" unicode="&#62208;" /><glyph d="M72 522Q72 537 74 564.5Q76 592 87 619Q98 646 121.5 665.5Q145 685 189 685Q205 685 219.5 681Q234 677 247 672.5Q260 668 270.5 664Q281 660 289 660Q297 660 300.5 665Q304 670 304 677V684H444V678Q444 664 442.5 636.5Q441 609 430.5 582Q420 555 396 535Q372 515 327 515Q311 515 296.5 519Q282 523 269 527.5Q256 532 245.5 536Q235 540 227 540Q219 540 215.5 535Q212 530 212 523V515H72ZM289 297Q289 307 278.5 315.5Q268 324 239 324Q197 324 155.5 312.5Q114 301 88 289L34 434Q72 454 132 468.5Q192 483 255 483Q298 483 337.5 474Q377 465 408 444.5Q439 424 457.5 389.5Q476 355 476 304V0H289V41Q274 22 245 5Q216 -12 169 -12Q131 -12 102 0.5Q73 13 53.5 33Q34 53 24 78Q14 103 14 127Q14 196 57 234Q100 272 175 272H255Q289 272 289 296ZM201 144Q201 127 213 116.5Q225 106 242 106Q259 106 274 118Q289 130 289 157V190Q284 182 275.5 180.5Q267 179 260 179H244Q226 179 213.5 170.5Q201 162 201 144Z" glyph-name="atilde" horiz-adv-x="516" unicode="&#227;" /><glyph d="M226 236Q226 205 247 182Q268 159 302 159Q336 159 357 182Q378 205 378 236Q378 267 357 290Q336 313 302 313Q268 313 247 290Q226 267 226 236ZM232 700V489Q232 485 231.5 476.5Q231 468 230.5 458.5Q230 449 229 440Q228 431 227 427Q234 435 244.5 445Q255 455 270.5 463.5Q286 472 307.5 477.5Q329 483 358 483Q401 483 440 464.5Q479 446 508.5 413.5Q538 381 555 336Q572 291 572 237Q572 183 555 137.5Q538 92 509 58.5Q480 25 441 6.5Q402 -12 359 -12Q309 -12 277.5 6.5Q246 25 232 45V0H45V700Z" glyph-name="b" horiz-adv-x="591" unicode="b" /><glyph d="M435 0H264L24 700H197Z" glyph-name="backslash" horiz-adv-x="460" unicode="\" /><glyph d="M374 0H216L23 560H184Z" glyph-name="backslash.smcp" horiz-adv-x="398" unicode="&#58472;" /><glyph d="M60 -93V760H190V-93Z" glyph-name="bar" horiz-adv-x="250" unicode="|" /><glyph d="M59 608H174V-74H59Z" glyph-name="bar.smcp" horiz-adv-x="233" unicode="&#58473;" /><glyph d="M210 291Q248 285 270 259.5Q292 234 292 190V17H377V-153H97V197H26V381H97V700H377V530H292V392Q292 348 270 322.5Q248 297 210 291Z" glyph-name="braceleft" horiz-adv-x="414" unicode="{" /><glyph d="M212 366Q250 360 272 334.5Q294 309 294 265V92H379V-78H99V272H28V456H99V775H379V605H294V467Q294 423 272 397.5Q250 372 212 366Z" glyph-name="braceleft.cap" horiz-adv-x="418" unicode="&#58517;" /><glyph d="M265 371Q265 364 263.5 350.5Q262 337 255 322.5Q248 308 233 296Q218 284 191 281Q218 278 233 266Q248 254 255 239.5Q262 225 263.5 211.5Q265 198 265 191V90H320V-68H84V199H29V362H84V614H320V456H265Z" glyph-name="braceleft.smcp" horiz-adv-x="360" unicode="&#58525;" /><glyph d="M204 291Q166 297 144 322.5Q122 348 122 392V530H37V700H317V381H388V197H317V-153H37V17H122V190Q122 234 144 259.5Q166 285 204 291Z" glyph-name="braceright" horiz-adv-x="414" unicode="}" /><glyph d="M206 366Q168 372 146 397.5Q124 423 124 467V605H39V775H319V456H390V272H319V-78H39V92H124V265Q124 309 146 334.5Q168 360 206 366Z" glyph-name="braceright.cap" horiz-adv-x="418" unicode="&#58518;" /><glyph d="M95 456H40V614H276V362H331V199H276V-68H40V90H95V191Q95 198 96.5 211.5Q98 225 105 239.5Q112 254 127 266Q142 278 169 281Q142 284 127 296Q112 308 105 322.5Q98 337 96.5 350.5Q95 364 95 371Z" glyph-name="braceright.smcp" horiz-adv-x="360" unicode="&#58526;" /><glyph d="M255 530V18H382V-153H60V700H382V530Z" glyph-name="bracketleft" horiz-adv-x="415" unicode="[" /><glyph d="M260 605V93H387V-78H65V775H387V605Z" glyph-name="bracketleft.cap" horiz-adv-x="424" unicode="&#58515;" /><glyph d="M240 456V91H339V-68H59V614H339V456Z" glyph-name="bracketleft.smcp" horiz-adv-x="378" unicode="&#58523;" /><glyph d="M33 530V700H355V-153H33V17H160V530Z" glyph-name="bracketright" horiz-adv-x="415" unicode="]" /><glyph d="M37 605V775H359V-78H37V92H164V605Z" glyph-name="bracketright.cap" horiz-adv-x="424" unicode="&#58516;" /><glyph d="M39 456V614H319V-68H39V90H137V456Z" glyph-name="bracketright.smcp" horiz-adv-x="378" unicode="&#58524;" /><glyph d="M223 700H352V658Q352 620 339 592.5Q326 565 304 546.5Q282 528 252.5 519Q223 510 189 510Q155 510 125.5 519Q96 528 73.5 546.5Q51 565 38 592.5Q25 620 25 658V700H154V675Q154 653 163 644Q172 635 189 635Q206 635 214.5 644Q223 653 223 675Z" glyph-name="breve" horiz-adv-x="377" unicode="&#728;" /><glyph d="M199 705Q224 705 224 728V735H342V723Q342 659 306 629.5Q270 600 200 600Q130 600 94 629.5Q58 659 58 723V735H176V728Q176 705 199 705Z" glyph-name="breve.smcp" horiz-adv-x="400" unicode="&#63220;" /><glyph d="M60 -93V288H190V-93ZM60 380V760H190V380Z" glyph-name="brokenbar" horiz-adv-x="250" unicode="&#166;" /><glyph d="M59 -74V236H174V-74ZM59 299V608H174V299Z" glyph-name="brokenbar.smcp" horiz-adv-x="233" unicode="&#58475;" /><glyph d="M59 359Q59 386 69 410Q79 434 97 452Q115 470 139 480.5Q163 491 190 491Q217 491 241 480.5Q265 470 283 452Q301 434 311.5 410Q322 386 322 359Q322 332 311.5 308Q301 284 283 266Q265 248 241 238Q217 228 190 228Q163 228 139 238Q115 248 97 266Q79 284 69 308Q59 332 59 359Z" glyph-name="bullet" horiz-adv-x="380" unicode="&#8226;" /><glyph d="M521 193Q513 148 491.5 110Q470 72 437 45Q404 18 362 3Q320 -12 272 -12Q219 -12 173 6.5Q127 25 92.5 58Q58 91 38 136.5Q18 182 18 235Q18 289 38 334.5Q58 380 92.5 413Q127 446 173 464.5Q219 483 272 483Q319 483 361 468Q403 453 436 426Q469 399 491.5 361.5Q514 324 522 279L340 247Q338 276 319.5 295Q301 314 273 314Q242 314 223 292Q204 270 204 235Q204 200 223 178.5Q242 157 273 157Q299 157 317 174Q335 191 340 216Z" glyph-name="c" horiz-adv-x="533" unicode="c" /><glyph d="M230 700H459L362 523H189ZM521 193Q513 148 491.5 110Q470 72 437 45Q404 18 362 3Q320 -12 272 -12Q219 -12 173 6.5Q127 25 92.5 58Q58 91 38 136.5Q18 182 18 235Q18 289 38 334.5Q58 380 92.5 413Q127 446 173 464.5Q219 483 272 483Q319 483 361 468Q403 453 436 426Q469 399 491.5 361.5Q514 324 522 279L340 247Q338 276 319.5 295Q301 314 273 314Q242 314 223 292Q204 270 204 235Q204 200 223 178.5Q242 157 273 157Q299 157 317 174Q335 191 340 216Z" glyph-name="cacute" horiz-adv-x="533" unicode="&#263;" /><glyph d="M221 642 248 700H418L319 523H123L24 700H194Z" glyph-name="caron" horiz-adv-x="443" unicode="&#711;" /><glyph d="M225 730H370L298 605H102L30 730H175L200 694Z" glyph-name="caron.smcp" horiz-adv-x="400" unicode="&#63221;" /><glyph d="M266 642 293 700H463L364 523H168L69 700H239ZM521 193Q513 148 491.5 110Q470 72 437 45Q404 18 362 3Q320 -12 272 -12Q219 -12 173 6.5Q127 25 92.5 58Q58 91 38 136.5Q18 182 18 235Q18 289 38 334.5Q58 380 92.5 413Q127 446 173 464.5Q219 483 272 483Q319 483 361 468Q403 453 436 426Q469 399 491.5 361.5Q514 324 522 279L340 247Q338 276 319.5 295Q301 314 273 314Q242 314 223 292Q204 270 204 235Q204 200 223 178.5Q242 157 273 157Q299 157 317 174Q335 191 340 216Z" glyph-name="ccaron" horiz-adv-x="533" unicode="&#269;" /><glyph d="M178 4Q143 17 113.5 39.5Q84 62 63 92Q42 122 30 158Q18 194 18 235Q18 289 38 334.5Q58 380 92.5 413Q127 446 173 464.5Q219 483 272 483Q319 483 361 468Q403 453 436 426Q469 399 491.5 361.5Q514 324 522 279L340 247Q338 276 319.5 295Q301 314 273 314Q242 314 223 292Q204 270 204 235Q204 200 223 178.5Q242 157 273 157Q299 157 317 174Q335 191 340 216L521 193Q510 125 468.5 76Q427 27 365 4L285 -132H119Z" glyph-name="ccedilla" horiz-adv-x="534" unicode="&#231;" /><glyph d="M239 523H69L168 700H364L463 523H293L266 581ZM521 193Q513 148 491.5 110Q470 72 437 45Q404 18 362 3Q320 -12 272 -12Q219 -12 173 6.5Q127 25 92.5 58Q58 91 38 136.5Q18 182 18 235Q18 289 38 334.5Q58 380 92.5 413Q127 446 173 464.5Q219 483 272 483Q319 483 361 468Q403 453 436 426Q469 399 491.5 361.5Q514 324 522 279L340 247Q338 276 319.5 295Q301 314 273 314Q242 314 223 292Q204 270 204 235Q204 200 223 178.5Q242 157 273 157Q299 157 317 174Q335 191 340 216Z" glyph-name="ccircumflex" horiz-adv-x="533" unicode="&#265;" /><glyph d="M267 520Q248 520 231 527.5Q214 535 201 548Q188 561 180 578Q172 595 172 614Q172 633 180 650Q188 667 201 680Q214 693 231 700.5Q248 708 267 708Q286 708 303 700.5Q320 693 333 680Q346 667 354 650Q362 633 362 614Q362 595 354 578Q346 561 333 548Q320 535 303 527.5Q286 520 267 520ZM521 193Q513 148 491.5 110Q470 72 437 45Q404 18 362 3Q320 -12 272 -12Q219 -12 173 6.5Q127 25 92.5 58Q58 91 38 136.5Q18 182 18 235Q18 289 38 334.5Q58 380 92.5 413Q127 446 173 464.5Q219 483 272 483Q319 483 361 468Q403 453 436 426Q469 399 491.5 361.5Q514 324 522 279L340 247Q338 276 319.5 295Q301 314 273 314Q242 314 223 292Q204 270 204 235Q204 200 223 178.5Q242 157 273 157Q299 157 317 174Q335 191 340 216Z" glyph-name="cdotaccent" horiz-adv-x="533" unicode="&#267;" /><glyph d="M91 19H280L191 -132H25Z" glyph-name="cedilla" horiz-adv-x="305" unicode="&#184;" /><glyph d="M130 19H313L241 -134H87Z" glyph-name="cedilla.smcp" horiz-adv-x="400" unicode="&#63416;" /><glyph d="M218 350Q218 319 234 297L272 427Q247 422 232.5 401Q218 380 218 350ZM535 308Q527 263 505.5 225Q484 187 451 160Q418 133 376 118Q334 103 286 103Q277 103 268 103Q259 103 250 105L219 0H146L182 123Q115 151 73.5 211Q32 271 32 350Q32 404 52 449.5Q72 495 106.5 528Q141 561 187 579.5Q233 598 286 598Q304 598 322 595L353 700H426L389 577Q446 553 485.5 505.5Q525 458 536 394L354 362Q353 385 338 404L299 273Q320 277 334.5 293Q349 309 354 331Z" glyph-name="cent" horiz-adv-x="569" unicode="&#162;" /><glyph d="M201 282Q201 246 222 222L264 363Q236 358 218.5 336.5Q201 315 201 282ZM157 0 176 65Q113 92 73 149Q33 206 33 282Q33 333 52 376.5Q71 420 104 451Q137 482 181.5 499.5Q226 517 276 517Q284 517 292.5 516.5Q301 516 309 515L322 560H385L368 501Q426 481 466.5 436.5Q507 392 519 329L350 297Q345 331 322 348L278 199Q307 200 326.5 218Q346 236 350 265L519 236Q512 192 490 157Q468 122 435.5 97Q403 72 362 58.5Q321 45 276 45Q253 45 234 48L220 0Z" glyph-name="cent.smcp" horiz-adv-x="552" unicode="&#63109;" /><glyph d="M194 523H24L123 700H319L418 523H248L221 581Z" glyph-name="circumflex" horiz-adv-x="443" unicode="&#710;" /><glyph d="M200 641 175 605H30L102 730H298L370 605H225Z" glyph-name="circumflex.smcp" horiz-adv-x="400" unicode="&#63222;" /><glyph d="M40 359Q40 382 49 402.5Q58 423 73 438Q88 453 108.5 462Q129 471 152 471Q175 471 195.5 462Q216 453 231.5 438Q247 423 256 402.5Q265 382 265 359Q265 336 256 315.5Q247 295 231.5 280Q216 265 195.5 256Q175 247 152 247Q129 247 108.5 256Q88 265 73 280Q58 295 49 315.5Q40 336 40 359ZM40 100Q40 124 49 144Q58 164 73 179Q88 194 108.5 202.5Q129 211 152 211Q175 211 195.5 202.5Q216 194 231.5 179Q247 164 256 144Q265 124 265 100Q265 76 256 55.5Q247 35 231.5 20Q216 5 195.5 -3.5Q175 -12 152 -12Q129 -12 108.5 -3.5Q88 5 73 20Q58 35 49 55.5Q40 76 40 100Z" glyph-name="colon" horiz-adv-x="305" unicode=":" /><glyph d="M25 -123 73 15Q35 48 35 99Q35 122 44 142.5Q53 163 68.5 178.5Q84 194 104.5 203Q125 212 148 212Q176 212 197.5 203Q219 194 233.5 178Q248 162 255.5 141.5Q263 121 263 98Q263 81 259.5 63Q256 45 246 28L159 -123Z" glyph-name="comma" horiz-adv-x="300" unicode="," /><glyph d="M58 -134Q58 -113 66 -95Q74 -77 87.5 -63.5Q101 -50 119.5 -42Q138 -34 158 -34Q207 -34 234.5 -63.5Q262 -93 262 -134Q262 -151 254.5 -170.5Q247 -190 237 -204L168 -308H50L92 -207Q76 -193 67 -175Q58 -157 58 -134Z" glyph-name="commaaccent" horiz-adv-x="310" unicode="&#58388;" /><glyph d="M112 -129Q112 -111 119.5 -94.5Q127 -78 139 -66Q151 -54 167 -47Q183 -40 201 -40Q246 -40 270 -67Q294 -94 294 -129Q294 -146 287 -163Q280 -180 270 -193L213 -274H106L139 -192Q112 -165 112 -129Z" glyph-name="commaaccent.smcp" horiz-adv-x="400" unicode="&#63080;" /><glyph d="M411 59Q472 59 523 80.5Q574 102 610.5 140.5Q647 179 667 232Q687 285 687 348Q687 410 667 462.5Q647 515 610.5 553.5Q574 592 523 613.5Q472 635 411 635Q350 635 299 613.5Q248 592 211.5 553.5Q175 515 155 462.5Q135 410 135 348Q135 285 155 232Q175 179 211.5 140.5Q248 102 299 80.5Q350 59 411 59ZM411 720Q490 720 558.5 692.5Q627 665 677.5 615.5Q728 566 757 497.5Q786 429 786 348Q786 266 757 198Q728 130 677.5 80.5Q627 31 558.5 3.5Q490 -24 411 -24Q332 -24 263.5 3.5Q195 31 144.5 80.5Q94 130 65 198Q36 266 36 348Q36 429 65 497.5Q94 566 144.5 615.5Q195 665 263.5 692.5Q332 720 411 720ZM418 563Q453 563 486 551Q519 539 546 517Q573 495 593 463.5Q613 432 622 392L497 387Q489 418 467.5 436Q446 454 418 454Q373 454 347 424.5Q321 395 321 350Q321 304 347 274Q373 244 418 244Q446 244 467.5 262Q489 280 497 311L622 306Q613 267 593 235Q573 203 546 181Q519 159 486 147Q453 135 418 135Q373 135 333.5 151Q294 167 264 195.5Q234 224 217 263.5Q200 303 200 350Q200 396 216.5 435.5Q233 475 262.5 503Q292 531 331.5 547Q371 563 418 563Z" glyph-name="copyright" horiz-adv-x="822" unicode="&#169;" /><glyph d="M521 193Q513 148 491.5 110Q470 72 437 45Q404 18 362 3Q320 -12 272 -12Q219 -12 173 6.5Q127 25 92.5 58Q58 91 38 136.5Q18 182 18 235Q18 286 36 329Q54 372 85 405Q116 438 158 458Q200 478 248 482Q211 517 211 568Q211 585 218 608Q225 631 242.5 651.5Q260 672 290.5 686Q321 700 368 700H793V471H880V310H793V190Q793 171 806.5 166Q820 161 832 161Q842 161 850.5 161Q859 161 865 162Q872 163 878 164V0Q855 -2 834 -3Q816 -5 796 -5.5Q776 -6 761 -6Q729 -6 701 -1Q673 4 652 17Q631 30 618.5 53.5Q606 77 606 115V310H549V471H606V556H452Q410 556 388 538Q366 520 366 491Q366 475 369 465Q429 442 470 393.5Q511 345 522 279L340 247Q338 276 319.5 295Q301 314 273 314Q242 314 223 292Q204 270 204 235Q204 200 223 178.5Q242 157 273 157Q299 157 317 174Q335 191 340 216Z" glyph-name="ct" horiz-adv-x="913" unicode="&#62211;" /><glyph d="M571 349Q571 388 558 423Q545 458 521.5 484Q498 510 465 525Q432 540 392 540Q353 540 320 525Q287 510 263 484Q239 458 226 423Q213 388 213 349Q213 310 226 276Q239 242 263 216Q287 190 320 175Q353 160 392 160Q432 160 465 175Q498 190 521.5 216Q545 242 558 276Q571 310 571 349ZM78 349Q78 397 91.5 442Q105 487 130 524L35 613L129 708L223 619Q259 642 302 655.5Q345 669 392 669Q440 669 483.5 655.5Q527 642 563 619L655 708L750 613L655 524Q680 487 693.5 442Q707 397 707 349Q707 302 693.5 257Q680 212 655 176L750 85L655 -10L561 81Q487 30 392 30Q345 30 301.5 44Q258 58 222 81L129 -10L35 85L130 176Q105 212 91.5 257Q78 302 78 349Z" glyph-name="currency" horiz-adv-x="785" unicode="&#164;" /><glyph d="M546 700V0H359V45Q345 25 313.5 6.5Q282 -12 232 -12Q188 -12 149.5 6.5Q111 25 82 58.5Q53 92 36 137.5Q19 183 19 237Q19 291 36 336Q53 381 82.5 413.5Q112 446 150.5 464.5Q189 483 233 483Q262 483 283.5 477.5Q305 472 321 463.5Q337 455 347.5 445Q358 435 365 427Q363 431 362 439.5Q361 448 360.5 457.5Q360 467 359.5 475.5Q359 484 359 489V700ZM365 236Q365 267 344 290Q323 313 289 313Q255 313 234 290Q213 267 213 236Q213 205 234 182Q255 159 289 159Q323 159 344 182Q365 205 365 236Z" glyph-name="d" horiz-adv-x="591" unicode="d" /><glyph d="M31 559H168V700H353V559H489V375H353V0H168V375H31Z" glyph-name="dagger" horiz-adv-x="520" unicode="&#8224;" /><glyph d="M31 327H168V375H31V559H168V700H353V559H489V375H353V327H489V143H353V0H168V143H31Z" glyph-name="daggerdbl" horiz-adv-x="520" unicode="&#8225;" /><glyph d="M583 438 625 539Q609 553 600 571Q591 589 591 612Q591 633 599 651Q607 669 620.5 682.5Q634 696 652.5 704Q671 712 691 712Q740 712 767 682.5Q794 653 794 612Q794 595 788 576Q782 557 772 543L701 438ZM546 700V0H359V45Q345 25 313.5 6.5Q282 -12 232 -12Q188 -12 149.5 6.5Q111 25 82 58.5Q53 92 36 137.5Q19 183 19 237Q19 291 36 336Q53 381 82.5 413.5Q112 446 150.5 464.5Q189 483 233 483Q262 483 283.5 477.5Q305 472 321 463.5Q337 455 347.5 445Q358 435 365 427Q363 431 362 439.5Q361 448 360.5 457.5Q360 467 359.5 475.5Q359 484 359 489V700ZM365 236Q365 267 344 290Q323 313 289 313Q255 313 234 290Q213 267 213 236Q213 205 234 182Q255 159 289 159Q323 159 344 182Q365 205 365 236Z" glyph-name="dcaron" horiz-adv-x="700" unicode="&#271;" /><glyph d="M365 236Q365 267 344 290Q323 313 289 313Q255 313 234 290Q213 267 213 236Q213 205 234 182Q255 159 289 159Q323 159 344 182Q365 205 365 236ZM546 700V664H591V529H546V0H359V45Q345 25 313.5 6.5Q282 -12 232 -12Q188 -12 149.5 6.5Q111 25 82 58.5Q53 92 36 137.5Q19 183 19 237Q19 291 36 336Q53 381 82.5 413.5Q112 446 150.5 464.5Q189 483 233 483Q262 483 283.5 477.5Q305 472 321 463.5Q337 455 347.5 445Q358 435 365 427Q363 431 362 439.5Q361 448 360.5 457.5Q360 467 359.5 475.5Q359 484 359 489V529H257V664H359V700Z" glyph-name="dcroat" horiz-adv-x="591" unicode="&#273;" /><glyph d="M207 604Q179 604 160.5 585Q142 566 142 537Q142 508 160.5 489Q179 470 207 470Q235 470 253.5 489Q272 508 272 537Q272 566 253.5 585Q235 604 207 604ZM207 362Q170 362 137.5 375.5Q105 389 81 412.5Q57 436 43 468Q29 500 29 537Q29 574 43 606Q57 638 81 661.5Q105 685 137.5 698.5Q170 712 207 712Q244 712 276.5 698.5Q309 685 333 661.5Q357 638 371 606Q385 574 385 537Q385 500 371 468Q357 436 333 412.5Q309 389 276.5 375.5Q244 362 207 362Z" glyph-name="degree" horiz-adv-x="414" unicode="&#176;" /><glyph d="M322 520Q303 520 286 527.5Q269 535 256 548Q243 561 235 578Q227 595 227 614Q227 633 235 650Q243 667 256 680Q269 693 286 700.5Q303 708 322 708Q341 708 358 700.5Q375 693 388 680Q401 667 409 650Q417 633 417 614Q417 595 409 578Q401 561 388 548Q375 535 358 527.5Q341 520 322 520ZM114 520Q95 520 78 527.5Q61 535 48 548Q35 561 27 578Q19 595 19 614Q19 633 27 650Q35 667 48 680Q61 693 78 700.5Q95 708 114 708Q133 708 150 700.5Q167 693 180 680Q193 667 201 650Q209 633 209 614Q209 595 201 578Q193 561 180 548Q167 535 150 527.5Q133 520 114 520Z" glyph-name="dieresis" horiz-adv-x="436" unicode="&#168;" /><glyph d="M295 769Q312 769 327.5 762Q343 755 355 743.5Q367 732 374 716.5Q381 701 381 684Q381 667 374 652Q367 637 355 625.5Q343 614 327.5 607Q312 600 295 600Q278 600 262.5 607Q247 614 235 625.5Q223 637 216 652Q209 667 209 684Q209 701 216 716.5Q223 732 235 743.5Q247 755 262.5 762Q278 769 295 769ZM105 769Q122 769 137.5 762Q153 755 165 743.5Q177 732 184 716.5Q191 701 191 684Q191 667 184 652Q177 637 165 625.5Q153 614 137.5 607Q122 600 105 600Q88 600 72.5 607Q57 614 45 625.5Q33 637 26 652Q19 667 19 684Q19 701 26 716.5Q33 732 45 743.5Q57 755 72.5 762Q88 769 105 769Z" glyph-name="dieresis.smcp" horiz-adv-x="400" unicode="&#63400;" /><glyph d="M31 444H489V260H31ZM147 575Q147 598 156 618.5Q165 639 180 654Q195 669 215 677.5Q235 686 258 686Q282 686 302.5 677.5Q323 669 338 654Q353 639 362 618.5Q371 598 371 575Q371 552 362 531.5Q353 511 338 496Q323 481 302.5 472.5Q282 464 258 464Q235 464 215 472.5Q195 481 180 496Q165 511 156 531.5Q147 552 147 575ZM147 130Q147 153 156 173Q165 193 180 208Q195 223 215 231.5Q235 240 258 240Q282 240 302.5 231.5Q323 223 338 208Q353 193 362 173Q371 153 371 130Q371 106 362 86Q353 66 338 51Q323 36 302.5 27.5Q282 19 258 19Q235 19 215 27.5Q195 36 180 51Q165 66 156 86Q147 106 147 130Z" glyph-name="divide" horiz-adv-x="520" unicode="&#247;" /><glyph d="M76 211V357H438V211ZM175 457Q175 489 198.5 512.5Q222 536 255 536Q272 536 287 529.5Q302 523 313.5 512.5Q325 502 331.5 487.5Q338 473 338 457Q338 423 314 399.5Q290 376 255 376Q222 376 198.5 399.5Q175 423 175 457ZM175 114Q175 148 198.5 170.5Q222 193 255 193Q290 193 314 170.5Q338 148 338 114Q338 80 314 57Q290 34 255 34Q222 34 198.5 57Q175 80 175 114Z" glyph-name="divide.smcp" horiz-adv-x="515" unicode="&#62003;" /><glyph d="M280 500Q280 492 286 480Q292 468 315 459L338 536H331Q305 536 292.5 525Q280 514 280 500ZM383 205Q383 218 376 227.5Q369 237 346 248L322 164H323Q353 164 368 177.5Q383 191 383 205ZM486 475Q455 501 425 515L400 429L433 418Q516 389 558.5 336.5Q601 284 601 214Q601 163 581 121.5Q561 80 525 50Q489 20 439.5 4Q390 -12 332 -12Q316 -12 300.5 -11Q285 -10 271 -8L246 -93H153L183 10Q136 25 98 48Q60 71 31 99L143 246Q181 210 235 185L262 277L223 291Q141 319 102 375Q63 431 63 497Q63 539 81 578Q99 617 133 646.5Q167 676 216.5 694Q266 712 328 712Q343 712 358 711Q373 710 389 708L410 780H503L475 687Q542 664 596 614Z" glyph-name="dollar" horiz-adv-x="641" unicode="$" /><glyph d="M261 389Q261 384 265 379Q269 374 282 370L293 407H292Q278 407 269.5 402Q261 397 261 389ZM314 170Q314 175 312 181Q310 187 293 193L281 153H284Q303 153 308.5 160.5Q314 168 314 170ZM413 362Q402 373 386 381Q370 389 352 395L340 352L385 339Q451 319 487 276Q523 233 523 176Q523 132 505.5 97.5Q488 63 457 39Q426 15 384 2.5Q342 -10 293 -10Q277 -10 262.5 -9Q248 -8 234 -6L215 -70H152L174 5Q129 17 93 36.5Q57 56 31 80L132 215Q149 201 172.5 187.5Q196 174 221 165L234 209L190 222Q155 232 129 249.5Q103 267 86 289.5Q69 312 60.5 337.5Q52 363 52 389Q52 422 68 454.5Q84 487 115 512.5Q146 538 190.5 554Q235 570 291 570Q314 570 340 567L357 624H420L399 554Q431 544 461 528Q491 512 520 487Z" glyph-name="dollar.smcp" horiz-adv-x="560" unicode="&#63110;" /><glyph d="M145 520Q126 520 109 527.5Q92 535 79 548Q66 561 58 578Q50 595 50 614Q50 633 58 650Q66 667 79 680Q92 693 109 700.5Q126 708 145 708Q164 708 181 700.5Q198 693 211 680Q224 667 232 650Q240 633 240 614Q240 595 232 578Q224 561 211 548Q198 535 181 527.5Q164 520 145 520Z" glyph-name="dotaccent" horiz-adv-x="290" unicode="&#729;" /><glyph d="M200 769Q217 769 232.5 762Q248 755 260 743.5Q272 732 279 716.5Q286 701 286 684Q286 667 279 652Q272 637 260 625.5Q248 614 232.5 607Q217 600 200 600Q183 600 167.5 607Q152 614 140 625.5Q128 637 121 652Q114 667 114 684Q114 701 121 716.5Q128 732 140 743.5Q152 755 167.5 762Q183 769 200 769Z" glyph-name="dotaccent.smcp" horiz-adv-x="400" unicode="&#63223;" /><glyph d="M262 0H75V310H17V471H262Z" glyph-name="dotlessi" horiz-adv-x="307" unicode="&#305;" /><glyph d="M75 310H17V471H262V-43Q262 -116 223.5 -146.5Q185 -177 112 -177H7V-20H42Q63 -20 69 -14.5Q75 -9 75 2Z" glyph-name="dotlessj" horiz-adv-x="307" unicode="&#567;" /><glyph d="M266 336Q244 336 225 322Q206 308 201 284H331Q326 308 307 322Q288 336 266 336ZM513 113Q481 56 418.5 22Q356 -12 271 -12Q218 -12 172 6.5Q126 25 91.5 58Q57 91 37.5 136.5Q18 182 18 235Q18 289 38 334.5Q58 380 92.5 413Q127 446 173 464.5Q219 483 272 483Q319 483 364 466.5Q409 450 444.5 415.5Q480 381 502 326Q524 271 524 195V192H201Q208 167 231 155Q254 143 277 143Q319 143 347 176Z" glyph-name="e" horiz-adv-x="535" unicode="e" /><glyph d="M235 700H464L367 523H194ZM266 336Q244 336 225 322Q206 308 201 284H331Q326 308 307 322Q288 336 266 336ZM513 113Q481 56 418.5 22Q356 -12 271 -12Q218 -12 172 6.5Q126 25 91.5 58Q57 91 37.5 136.5Q18 182 18 235Q18 289 38 334.5Q58 380 92.5 413Q127 446 173 464.5Q219 483 272 483Q319 483 364 466.5Q409 450 444.5 415.5Q480 381 502 326Q524 271 524 195V192H201Q208 167 231 155Q254 143 277 143Q319 143 347 176Z" glyph-name="eacute" horiz-adv-x="535" unicode="&#233;" /><glyph d="M303 700H432V658Q432 620 419 592.5Q406 565 384 546.5Q362 528 332.5 519Q303 510 269 510Q235 510 205.5 519Q176 528 153.5 546.5Q131 565 118 592.5Q105 620 105 658V700H234V675Q234 653 243 644Q252 635 269 635Q286 635 294.5 644Q303 653 303 675ZM266 336Q244 336 225 322Q206 308 201 284H331Q326 308 307 322Q288 336 266 336ZM513 113Q481 56 418.5 22Q356 -12 271 -12Q218 -12 172 6.5Q126 25 91.5 58Q57 91 37.5 136.5Q18 182 18 235Q18 289 38 334.5Q58 380 92.5 413Q127 446 173 464.5Q219 483 272 483Q319 483 364 466.5Q409 450 444.5 415.5Q480 381 502 326Q524 271 524 195V192H201Q208 167 231 155Q254 143 277 143Q319 143 347 176Z" glyph-name="ebreve" horiz-adv-x="535" unicode="&#277;" /><glyph d="M268 642 295 700H465L366 523H170L71 700H241ZM266 336Q244 336 225 322Q206 308 201 284H331Q326 308 307 322Q288 336 266 336ZM513 113Q481 56 418.5 22Q356 -12 271 -12Q218 -12 172 6.5Q126 25 91.5 58Q57 91 37.5 136.5Q18 182 18 235Q18 289 38 334.5Q58 380 92.5 413Q127 446 173 464.5Q219 483 272 483Q319 483 364 466.5Q409 450 444.5 415.5Q480 381 502 326Q524 271 524 195V192H201Q208 167 231 155Q254 143 277 143Q319 143 347 176Z" glyph-name="ecaron" horiz-adv-x="535" unicode="&#283;" /><glyph d="M241 523H71L170 700H366L465 523H295L268 581ZM266 336Q244 336 225 322Q206 308 201 284H331Q326 308 307 322Q288 336 266 336ZM513 113Q481 56 418.5 22Q356 -12 271 -12Q218 -12 172 6.5Q126 25 91.5 58Q57 91 37.5 136.5Q18 182 18 235Q18 289 38 334.5Q58 380 92.5 413Q127 446 173 464.5Q219 483 272 483Q319 483 364 466.5Q409 450 444.5 415.5Q480 381 502 326Q524 271 524 195V192H201Q208 167 231 155Q254 143 277 143Q319 143 347 176Z" glyph-name="ecircumflex" horiz-adv-x="535" unicode="&#234;" /><glyph d="M372 520Q353 520 336 527.5Q319 535 306 548Q293 561 285 578Q277 595 277 614Q277 633 285 650Q293 667 306 680Q319 693 336 700.5Q353 708 372 708Q391 708 408 700.5Q425 693 438 680Q451 667 459 650Q467 633 467 614Q467 595 459 578Q451 561 438 548Q425 535 408 527.5Q391 520 372 520ZM164 520Q145 520 128 527.5Q111 535 98 548Q85 561 77 578Q69 595 69 614Q69 633 77 650Q85 667 98 680Q111 693 128 700.5Q145 708 164 708Q183 708 200 700.5Q217 693 230 680Q243 667 251 650Q259 633 259 614Q259 595 251 578Q243 561 230 548Q217 535 200 527.5Q183 520 164 520ZM266 336Q244 336 225 322Q206 308 201 284H331Q326 308 307 322Q288 336 266 336ZM513 113Q481 56 418.5 22Q356 -12 271 -12Q218 -12 172 6.5Q126 25 91.5 58Q57 91 37.5 136.5Q18 182 18 235Q18 289 38 334.5Q58 380 92.5 413Q127 446 173 464.5Q219 483 272 483Q319 483 364 466.5Q409 450 444.5 415.5Q480 381 502 326Q524 271 524 195V192H201Q208 167 231 155Q254 143 277 143Q319 143 347 176Z" glyph-name="edieresis" horiz-adv-x="535" unicode="&#235;" /><glyph d="M268 520Q249 520 232 527.5Q215 535 202 548Q189 561 181 578Q173 595 173 614Q173 633 181 650Q189 667 202 680Q215 693 232 700.5Q249 708 268 708Q287 708 304 700.5Q321 693 334 680Q347 667 355 650Q363 633 363 614Q363 595 355 578Q347 561 334 548Q321 535 304 527.5Q287 520 268 520ZM266 336Q244 336 225 322Q206 308 201 284H331Q326 308 307 322Q288 336 266 336ZM513 113Q481 56 418.5 22Q356 -12 271 -12Q218 -12 172 6.5Q126 25 91.5 58Q57 91 37.5 136.5Q18 182 18 235Q18 289 38 334.5Q58 380 92.5 413Q127 446 173 464.5Q219 483 272 483Q319 483 364 466.5Q409 450 444.5 415.5Q480 381 502 326Q524 271 524 195V192H201Q208 167 231 155Q254 143 277 143Q319 143 347 176Z" glyph-name="edotaccent" horiz-adv-x="535" unicode="&#279;" /><glyph d="M353 523H180L83 700H312ZM266 336Q244 336 225 322Q206 308 201 284H331Q326 308 307 322Q288 336 266 336ZM513 113Q481 56 418.5 22Q356 -12 271 -12Q218 -12 172 6.5Q126 25 91.5 58Q57 91 37.5 136.5Q18 182 18 235Q18 289 38 334.5Q58 380 92.5 413Q127 446 173 464.5Q219 483 272 483Q319 483 364 466.5Q409 450 444.5 415.5Q480 381 502 326Q524 271 524 195V192H201Q208 167 231 155Q254 143 277 143Q319 143 347 176Z" glyph-name="egrave" horiz-adv-x="535" unicode="&#232;" /><glyph d="M291 158Q323 158 339.5 176Q356 194 356 217Q356 241 339.5 258.5Q323 276 291 276Q259 276 242.5 258.5Q226 241 226 217Q226 194 242.5 176Q259 158 291 158ZM291 436Q320 436 334 452.5Q348 469 348 491Q348 513 334 530Q320 547 291 547Q262 547 248 530Q234 513 234 491Q234 469 248 452.5Q262 436 291 436ZM291 712Q351 712 398.5 696.5Q446 681 479 654Q512 627 529.5 591Q547 555 547 515Q547 493 540.5 470.5Q534 448 521.5 428Q509 408 489.5 391Q470 374 444 364Q501 343 531 297.5Q561 252 561 200Q561 154 542 115.5Q523 77 487.5 48.5Q452 20 402 4Q352 -12 291 -12Q229 -12 179.5 4Q130 20 94.5 48.5Q59 77 40 115.5Q21 154 21 200Q21 252 51 297.5Q81 343 138 364Q112 374 92.5 391Q73 408 60 428Q47 448 41 470.5Q35 493 35 515Q35 555 52.5 591Q70 627 103 654Q136 681 183.5 696.5Q231 712 291 712Z" glyph-name="eight" horiz-adv-x="582" unicode="8" /><glyph d="M305 158Q337 158 353.5 176Q370 194 370 217Q370 241 353.5 258.5Q337 276 305 276Q273 276 256.5 258.5Q240 241 240 217Q240 194 256.5 176Q273 158 305 158ZM305 436Q334 436 348 452.5Q362 469 362 491Q362 513 348 530Q334 547 305 547Q276 547 262 530Q248 513 248 491Q248 469 262 452.5Q276 436 305 436ZM305 712Q365 712 412.5 696.5Q460 681 493 654Q526 627 543.5 591Q561 555 561 515Q561 493 554.5 470.5Q548 448 535.5 428Q523 408 503.5 391Q484 374 458 364Q515 343 545 297.5Q575 252 575 200Q575 154 556 115.5Q537 77 501.5 48.5Q466 20 416 4Q366 -12 305 -12Q243 -12 193.5 4Q144 20 108.5 48.5Q73 77 54 115.5Q35 154 35 200Q35 252 65 297.5Q95 343 152 364Q126 374 106.5 391Q87 408 74 428Q61 448 55 470.5Q49 493 49 515Q49 555 66.5 591Q84 627 117 654Q150 681 197.5 696.5Q245 712 305 712Z" glyph-name="eight.alt" horiz-adv-x="610" unicode="&#62032;" /><glyph d="M284 136Q316 136 333 154Q350 172 350 197Q350 222 333 240.5Q316 259 284 259Q252 259 235 240.5Q218 222 218 197Q218 172 235 154Q252 136 284 136ZM284 406Q313 406 327.5 423Q342 440 342 464Q342 485 327.5 503.5Q313 522 284 522Q255 522 240.5 503.5Q226 485 226 464Q226 440 240.5 423Q255 406 284 406ZM284 669Q339 669 382.5 654.5Q426 640 456 615Q486 590 502 556.5Q518 523 518 486Q518 443 493.5 401.5Q469 360 412 341Q441 331 463.5 314.5Q486 298 501 277Q516 256 524 232.5Q532 209 532 185Q532 143 514.5 107Q497 71 464.5 44.5Q432 18 386 3Q340 -12 284 -12Q228 -12 182 3Q136 18 103.5 44.5Q71 71 53.5 107Q36 143 36 185Q36 233 67 277Q98 321 156 341Q99 360 74.5 401.5Q50 443 50 486Q50 523 66 556.5Q82 590 112.5 615Q143 640 186.5 654.5Q230 669 284 669Z" glyph-name="eight.posf" horiz-adv-x="568" unicode="&#62048;" /><glyph d="M215 69Q233 69 241.5 79Q250 89 250 103Q250 116 241.5 126.5Q233 137 215 137Q196 137 187.5 126.5Q179 116 179 103Q179 89 187.5 79Q196 69 215 69ZM215 245Q253 245 283.5 235Q314 225 335.5 207.5Q357 190 368.5 167Q380 144 380 118Q380 90 364 63Q348 36 314 22Q350 8 369 -21Q388 -50 388 -83Q388 -112 375.5 -137Q363 -162 340.5 -180Q318 -198 286 -208.5Q254 -219 215 -219Q175 -219 143 -208.5Q111 -198 88.5 -180Q66 -162 53.5 -137Q41 -112 41 -83Q41 -50 60.5 -21Q80 8 116 22Q82 36 66 63Q50 90 50 118Q50 144 61.5 167Q73 190 94 207.5Q115 225 145.5 235Q176 245 215 245ZM215 -108Q235 -108 245 -97Q255 -86 255 -72Q255 -57 245 -46Q235 -35 215 -35Q195 -35 184.5 -46Q174 -57 174 -72Q174 -86 184.5 -97Q195 -108 215 -108Z" glyph-name="eight.sinf" horiz-adv-x="430" unicode="&#62080;" /><glyph d="M257 416Q241 416 233 407Q225 398 225 387Q225 376 233 367.5Q241 359 257 359Q273 359 281 367.5Q289 376 289 387Q289 398 281 407Q273 416 257 416ZM257 -10Q204 -10 162 3.5Q120 17 90.5 40Q61 63 45 94.5Q29 126 29 162Q29 202 52.5 238.5Q76 275 124 292Q79 309 59.5 343Q40 377 40 412Q40 443 55 472Q70 501 97.5 522.5Q125 544 165.5 557Q206 570 257 570Q308 570 348.5 557Q389 544 416.5 522.5Q444 501 459 472Q474 443 474 412Q474 377 454.5 343Q435 309 390 292Q438 275 461.5 238.5Q485 202 485 162Q485 126 469 94.5Q453 63 423.5 40Q394 17 351.5 3.5Q309 -10 257 -10ZM257 212Q237 212 228 202Q219 192 219 176Q219 161 228 150.5Q237 140 257 140Q277 140 286 150.5Q295 161 295 176Q295 192 286 202Q277 212 257 212Z" glyph-name="eight.smcp" horiz-adv-x="515" unicode="&#58881;" /><glyph d="M215 668Q233 668 241.5 678Q250 688 250 702Q250 715 241.5 725.5Q233 736 215 736Q196 736 187.5 725.5Q179 715 179 702Q179 688 187.5 678Q196 668 215 668ZM215 844Q253 844 283.5 834Q314 824 335.5 806.5Q357 789 368.5 766Q380 743 380 717Q380 689 364 662Q348 635 314 621Q350 607 369 578Q388 549 388 516Q388 487 375.5 462Q363 437 340.5 419Q318 401 286 390.5Q254 380 215 380Q175 380 143 390.5Q111 401 88.5 419Q66 437 53.5 462Q41 487 41 516Q41 549 60.5 578Q80 607 116 621Q82 635 66 662Q50 689 50 717Q50 743 61.5 766Q73 789 94 806.5Q115 824 145.5 834Q176 844 215 844ZM215 491Q235 491 245 502Q255 513 255 527Q255 542 245 553Q235 564 215 564Q195 564 184.5 553Q174 542 174 527Q174 513 184.5 502Q195 491 215 491Z" glyph-name="eight.sups" horiz-adv-x="430" unicode="&#62064;" /><glyph d="M215 280Q233 280 241.5 290Q250 300 250 314Q250 327 241.5 337.5Q233 348 215 348Q196 348 187.5 337.5Q179 327 179 314Q179 300 187.5 290Q196 280 215 280ZM215 456Q253 456 283.5 446Q314 436 335.5 418.5Q357 401 368.5 378Q380 355 380 329Q380 301 364 274Q348 247 314 233Q350 219 369 190Q388 161 388 128Q388 99 375.5 74Q363 49 340.5 31Q318 13 286 2.5Q254 -8 215 -8Q175 -8 143 2.5Q111 13 88.5 31Q66 49 53.5 74Q41 99 41 128Q41 161 60.5 190Q80 219 116 233Q82 247 66 274Q50 301 50 329Q50 355 61.5 378Q73 401 94 418.5Q115 436 145.5 446Q176 456 215 456ZM215 103Q235 103 245 114Q255 125 255 139Q255 154 245 165Q235 176 215 176Q195 176 184.5 165Q174 154 174 139Q174 125 184.5 114Q195 103 215 103Z" glyph-name="eightinferior" horiz-adv-x="430" unicode="&#8328;" /><glyph d="M882 303Q882 320 871.5 332.5Q861 345 840 345Q818 345 808 332.5Q798 320 798 303Q798 285 808 272Q818 259 840 259Q861 259 871.5 272Q882 285 882 303ZM694 0 713 18Q725 30 747.5 51.5Q770 73 793.5 96Q817 119 837 139Q857 159 864 168L861 170Q836 157 806 157Q776 157 750.5 168Q725 179 706.5 198Q688 217 677.5 242Q667 267 667 295Q667 331 679.5 360.5Q692 390 714.5 411Q737 432 768 444Q799 456 836 456Q878 456 911 442Q944 428 967 404Q990 380 1002 347.5Q1014 315 1014 278Q1014 229 999.5 188Q985 147 963.5 113.5Q942 80 918 54.5Q894 29 875 11L863 0ZM914 676 241 -27 183 28 856 731ZM235 532Q253 532 261.5 542Q270 552 270 566Q270 579 261.5 589.5Q253 600 235 600Q216 600 207.5 589.5Q199 579 199 566Q199 552 207.5 542Q216 532 235 532ZM235 708Q273 708 303.5 698Q334 688 355.5 670.5Q377 653 388.5 630Q400 607 400 581Q400 553 384 526Q368 499 334 485Q370 471 389 442Q408 413 408 380Q408 351 395.5 326Q383 301 360.5 283Q338 265 306 254.5Q274 244 235 244Q195 244 163 254.5Q131 265 108.5 283Q86 301 73.5 326Q61 351 61 380Q61 413 80.5 442Q100 471 136 485Q102 499 86 526Q70 553 70 581Q70 607 81.5 630Q93 653 114 670.5Q135 688 165.5 698Q196 708 235 708ZM235 355Q255 355 265 366Q275 377 275 391Q275 406 265 417Q255 428 235 428Q215 428 204.5 417Q194 406 194 391Q194 377 204.5 366Q215 355 235 355Z" glyph-name="eightninths" horiz-adv-x="1080" unicode="&#62105;" /><glyph d="M215 532Q233 532 241.5 542Q250 552 250 566Q250 579 241.5 589.5Q233 600 215 600Q196 600 187.5 589.5Q179 579 179 566Q179 552 187.5 542Q196 532 215 532ZM215 708Q253 708 283.5 698Q314 688 335.5 670.5Q357 653 368.5 630Q380 607 380 581Q380 553 364 526Q348 499 314 485Q350 471 369 442Q388 413 388 380Q388 351 375.5 326Q363 301 340.5 283Q318 265 286 254.5Q254 244 215 244Q175 244 143 254.5Q111 265 88.5 283Q66 301 53.5 326Q41 351 41 380Q41 413 60.5 442Q80 471 116 485Q82 499 66 526Q50 553 50 581Q50 607 61.5 630Q73 653 94 670.5Q115 688 145.5 698Q176 708 215 708ZM215 355Q235 355 245 366Q255 377 255 391Q255 406 245 417Q235 428 215 428Q195 428 184.5 417Q174 406 174 391Q174 377 184.5 366Q195 355 215 355Z" glyph-name="eightsuperior" horiz-adv-x="430" unicode="&#8312;" /><glyph d="M765 100Q765 124 774 144.5Q783 165 798 180Q813 195 833 204Q853 213 876 213Q900 213 921 204Q942 195 957 180Q972 165 981 144.5Q990 124 990 100Q990 77 981 56.5Q972 36 957 21Q942 6 921 -3Q900 -12 876 -12Q853 -12 833 -3Q813 6 798 21Q783 36 774 56.5Q765 77 765 100ZM400 100Q400 124 409 144.5Q418 165 433 180Q448 195 468 204Q488 213 511 213Q535 213 556 204Q577 195 592 180Q607 165 616 144.5Q625 124 625 100Q625 77 616 56.5Q607 36 592 21Q577 6 556 -3Q535 -12 511 -12Q488 -12 468 -3Q448 6 433 21Q418 36 409 56.5Q400 77 400 100ZM35 100Q35 124 44 144.5Q53 165 68 180Q83 195 103 204Q123 213 146 213Q170 213 191 204Q212 195 227 180Q242 165 251 144.5Q260 124 260 100Q260 77 251 56.5Q242 36 227 21Q212 6 191 -3Q170 -12 146 -12Q123 -12 103 -3Q83 6 68 21Q53 36 44 56.5Q35 77 35 100Z" glyph-name="ellipsis" horiz-adv-x="1025" unicode="&#8230;" /><glyph d="M94 663H442V525H94ZM266 336Q244 336 225 322Q206 308 201 284H331Q326 308 307 322Q288 336 266 336ZM513 113Q481 56 418.5 22Q356 -12 271 -12Q218 -12 172 6.5Q126 25 91.5 58Q57 91 37.5 136.5Q18 182 18 235Q18 289 38 334.5Q58 380 92.5 413Q127 446 173 464.5Q219 483 272 483Q319 483 364 466.5Q409 450 444.5 415.5Q480 381 502 326Q524 271 524 195V192H201Q208 167 231 155Q254 143 277 143Q319 143 347 176Z" glyph-name="emacron" horiz-adv-x="535" unicode="&#275;" /><glyph d="M40 348H960V178H40Z" glyph-name="emdash" horiz-adv-x="1000" unicode="&#8212;" /><glyph d="M40 444H960V260H40Z" glyph-name="emdash.alt" horiz-adv-x="1000" unicode="&#62217;" /><glyph d="M40 348H460V178H40Z" glyph-name="endash" horiz-adv-x="500" unicode="&#8211;" /><glyph d="M40 444H460V260H40Z" glyph-name="endash.alt" horiz-adv-x="500" unicode="&#62216;" /><glyph d="M229 468Q229 447 226.5 435.5Q224 424 223 421Q246 452 280.5 467.5Q315 483 350 483Q382 483 413.5 472.5Q445 462 469.5 441Q494 420 509.5 388Q525 356 525 313V-43Q525 -116 486.5 -146.5Q448 -177 375 -177H270V-20H305Q326 -20 332 -14.5Q338 -9 338 2V248Q338 265 333 276Q328 287 320.5 293Q313 299 304 301Q295 303 286 303Q275 303 265.5 299Q256 295 248 290Q239 285 232 278V0H45V471H229Z" glyph-name="eng" horiz-adv-x="565" unicode="&#331;" /><glyph d="M266 336Q244 336 225 322Q206 308 201 284H331Q326 308 307 322Q288 336 266 336ZM513 113Q486 65 437.5 33Q389 1 323 -8Q306 -23 300.5 -35.5Q295 -48 295 -58Q295 -74 307.5 -80.5Q320 -87 334 -87Q354 -87 371 -83Q388 -79 398 -77L394 -175Q383 -180 365 -184Q350 -188 327.5 -190.5Q305 -193 274 -193Q244 -193 218 -187.5Q192 -182 172.5 -170.5Q153 -159 141.5 -141Q130 -123 130 -97Q130 -36 201 -3Q161 7 127.5 29Q94 51 69.5 82Q45 113 31.5 152Q18 191 18 235Q18 289 38 334.5Q58 380 92.5 413Q127 446 173 464.5Q219 483 272 483Q319 483 364 466.5Q409 450 444.5 415.5Q480 381 502 326Q524 271 524 195V192H201Q208 167 231 155Q254 143 277 143Q319 143 347 176Z" glyph-name="eogonek" horiz-adv-x="537" unicode="&#281;" /><glyph d="M31 327H489V143H31ZM31 559H489V375H31Z" glyph-name="equal" horiz-adv-x="520" unicode="=" /><glyph d="M77 262H438V114H77ZM77 448H438V300H77Z" glyph-name="equal.smcp" horiz-adv-x="515" unicode="&#62999;" /><glyph d="M675 375Q684 375 684 384V552Q684 585 657.5 609.5Q631 634 593 650Q555 666 512 674Q469 682 436 682Q406 682 363.5 674Q321 666 282.5 650Q244 634 216.5 609.5Q189 585 189 552V384Q189 375 198 375ZM189 160Q189 128 216 102Q243 76 281.5 58Q320 40 362.5 30Q405 20 436 20Q514 20 583.5 48Q653 76 701 131H748Q694 63 614 26Q534 -11 436 -11Q355 -11 283 17.5Q211 46 157.5 95.5Q104 145 72.5 211Q41 277 41 353Q41 427 72 492.5Q103 558 156 606.5Q209 655 281 683.5Q353 712 436 712Q527 712 600 683Q673 654 725 604.5Q777 555 805 487.5Q833 420 833 344H198Q189 344 189 332Z" glyph-name="estimated" horiz-adv-x="865" unicode="&#8494;" /><glyph d="M279 306Q251 306 233.5 287Q216 268 216 237Q216 206 233.5 186Q251 166 279 166Q306 166 324 186Q342 206 342 237Q342 268 324 287Q306 306 279 306ZM365 700Q370 693 375.5 685.5Q381 678 386 670L439 689L466 621L428 607Q449 572 470 532.5Q491 493 507 451Q523 409 533 364.5Q543 320 543 277Q543 232 529.5 181Q516 130 484.5 87.5Q453 45 402 16.5Q351 -12 276 -12Q222 -12 175.5 6Q129 24 94 57Q59 90 39 135Q19 180 19 234Q19 286 35 330Q51 374 79.5 405Q108 436 148.5 453.5Q189 471 237 471Q272 471 292.5 460.5Q313 450 324 444L326 447L248 543L181 519L154 588L199 604L122 700Z" glyph-name="eth" horiz-adv-x="564" unicode="&#240;" /><glyph d="M48 100Q48 124 57 144.5Q66 165 81 180Q96 195 116.5 204Q137 213 160 213Q184 213 204.5 204Q225 195 240 180Q255 165 264 144.5Q273 124 273 100Q273 77 264 56.5Q255 36 240 21Q225 6 204.5 -3Q184 -12 160 -12Q137 -12 116.5 -3Q96 6 81 21Q66 36 57 56.5Q48 77 48 100ZM70 242 52 700H271L253 242Z" glyph-name="exclam" horiz-adv-x="322" unicode="!" /><glyph d="M51 91Q51 134 79.5 163Q108 192 151 192Q195 192 223.5 163Q252 134 252 91Q252 70 244.5 52Q237 34 223.5 20Q210 6 191.5 -2Q173 -10 151 -10Q130 -10 111.5 -2Q93 6 79.5 20Q66 34 58.5 52Q51 70 51 91ZM68 210 50 560H257L239 210Z" glyph-name="exclam.smcp" horiz-adv-x="306" unicode="&#58434;" /><glyph d="M37 371Q37 394 46 414.5Q55 435 70 450Q85 465 105.5 474Q126 483 149 483Q173 483 193.5 474Q214 465 229 450Q244 435 253 414.5Q262 394 262 371Q262 347 253 326.5Q244 306 229 291Q214 276 193.5 267Q173 258 149 258Q126 258 105.5 267Q85 276 70 291Q55 306 46 326.5Q37 347 37 371ZM242 229 260 -229H41L59 229Z" glyph-name="exclamdown" horiz-adv-x="301" unicode="&#161;" /><glyph d="M52 600Q52 623 61 643.5Q70 664 85 679Q100 694 120.5 703Q141 712 164 712Q188 712 208.5 703Q229 694 244 679Q259 664 268 643.5Q277 623 277 600Q277 576 268 555.5Q259 535 244 520Q229 505 208.5 496Q188 487 164 487Q141 487 120.5 496Q100 505 85 520Q70 535 61 555.5Q52 576 52 600ZM257 458 275 0H56L74 458Z" glyph-name="exclamdown.alt" horiz-adv-x="331" unicode="&#62214;" /><glyph d="M239 350 257 0H50L68 350ZM51 469Q51 490 58.5 508Q66 526 79.5 539.5Q93 553 111.5 561Q130 569 151 569Q195 569 223.5 540Q252 511 252 469Q252 425 223.5 396.5Q195 368 151 368Q108 368 79.5 396.5Q51 425 51 469Z" glyph-name="exclamdown.smcp" horiz-adv-x="306" unicode="&#58435;" /><glyph d="M79 578Q79 650 120 682.5Q161 715 236 715Q248 715 267.5 714Q287 713 305 711Q326 709 349 707V536L327 538Q318 539 310 540Q302 541 297 541Q285 541 275.5 536.5Q266 532 266 516V471H342V310H266V0H79V310H20V471H79Z" glyph-name="f" horiz-adv-x="354" unicode="f" /><glyph d="M78 578Q78 650 119 682.5Q160 715 235 715Q247 715 266.5 714Q286 713 304 711Q325 709 348 707V536L326 538Q317 539 309 540Q301 541 296 541Q284 541 274.5 536.5Q265 532 265 516V471H398V578Q398 650 439 682.5Q480 715 555 715Q567 715 586.5 714Q606 713 624 711Q645 709 668 707V536L646 538Q637 539 629 540Q621 541 616 541Q604 541 594.5 536.5Q585 532 585 516V471H661V310H585V0H398V310H265V0H78V310H19V471H78Z" glyph-name="f_f" horiz-adv-x="673" unicode="&#64256;" /><glyph d="M78 578Q78 650 119 682.5Q160 715 235 715Q247 715 266.5 714Q286 713 304 711Q325 709 348 707V536L326 538Q317 539 309 540Q301 541 296 541Q284 541 274.5 536.5Q265 532 265 516V471H398V578Q398 650 439 682.5Q480 715 555 715Q567 715 586.5 714Q606 713 624 711Q645 709 668 707V536L646 538Q637 539 629 540Q621 541 616 541Q604 541 594.5 536.5Q585 532 585 516V471H718V578Q718 650 759 682.5Q800 715 875 715Q887 715 906.5 714Q926 713 944 711Q965 709 988 707V536L966 538Q957 539 949 540Q941 541 936 541Q924 541 914.5 536.5Q905 532 905 516V471H981V310H905V0H718V310H585V0H398V310H265V0H78V310H19V471H78Z" glyph-name="f_f_f" horiz-adv-x="993" unicode="&#62210;" /><glyph d="M485 514Q462 514 442 522.5Q422 531 407.5 545.5Q393 560 384.5 579.5Q376 599 376 622Q376 645 384.5 664.5Q393 684 407.5 698.5Q422 713 442 721.5Q462 730 485 730Q508 730 528 721.5Q548 713 562.5 698.5Q577 684 585.5 664.5Q594 645 594 622Q594 599 585.5 579.5Q577 560 562.5 545.5Q548 531 528 522.5Q508 514 485 514ZM585 0H398V310H265V0H78V310H19V471H78V578Q78 650 119 682.5Q160 715 235 715Q247 715 266.5 714Q286 713 304 711Q325 709 348 707V536L326 538Q317 539 309 540Q301 541 296 541Q284 541 274.5 536.5Q265 532 265 516V471H585Z" glyph-name="f_i" horiz-adv-x="629" unicode="&#62209;" /><glyph d="M485 514Q462 514 442 522.5Q422 531 407.5 545.5Q393 560 384.5 579.5Q376 599 376 622Q376 645 384.5 664.5Q393 684 407.5 698.5Q422 713 442 721.5Q462 730 485 730Q508 730 528 721.5Q548 713 562.5 698.5Q577 684 585.5 664.5Q594 645 594 622Q594 599 585.5 579.5Q577 560 562.5 545.5Q548 531 528 522.5Q508 514 485 514ZM398 310H265V0H78V310H19V471H78V578Q78 650 119 682.5Q160 715 235 715Q247 715 266.5 714Q286 713 304 711Q325 709 348 707V536L326 538Q317 539 309 540Q301 541 296 541Q284 541 274.5 536.5Q265 532 265 516V471H585V-43Q585 -116 546.5 -146.5Q508 -177 435 -177H330V-20H365Q386 -20 392 -14.5Q398 -9 398 2Z" glyph-name="f_j" horiz-adv-x="629" unicode="&#58247;" /><glyph d="M78 578Q78 650 119 682.5Q160 715 235 715Q247 715 266.5 714Q286 713 304 711Q325 709 348 707V536L326 538Q317 539 309 540Q301 541 296 541Q284 541 274.5 536.5Q265 532 265 516V471H398V578Q398 650 439 682.5Q480 715 555 715Q567 715 586.5 714Q606 713 624 711Q645 709 668 707V536L646 538Q637 539 629 540Q621 541 616 541Q604 541 594.5 536.5Q585 532 585 516V471H661V310H585V0H398V310H265V0H78V310H19V471H78Z" glyph-name="ff" horiz-adv-x="673" unicode="&#58249;" /><glyph d="M805 514Q782 514 762 522.5Q742 531 727.5 545.5Q713 560 704.5 579.5Q696 599 696 622Q696 645 704.5 664.5Q713 684 727.5 698.5Q742 713 762 721.5Q782 730 805 730Q828 730 848 721.5Q868 713 882.5 698.5Q897 684 905.5 664.5Q914 645 914 622Q914 599 905.5 579.5Q897 560 882.5 545.5Q868 531 848 522.5Q828 514 805 514ZM905 0H718V310H585V0H398V310H265V0H78V310H19V471H78V578Q78 650 119 682.5Q160 715 235 715Q247 715 266.5 714Q286 713 304 711Q325 709 348 707V536L326 538Q317 539 309 540Q301 541 296 541Q284 541 274.5 536.5Q265 532 265 516V471H398V578Q398 650 439 682.5Q480 715 555 715Q567 715 586.5 714Q606 713 624 711Q645 709 668 707V536L646 538Q637 539 629 540Q621 541 616 541Q604 541 594.5 536.5Q585 532 585 516V471H905Z" glyph-name="ffi" horiz-adv-x="949" unicode="&#64259;" /><glyph d="M905 0H718V310H585V0H398V310H265V0H78V310H19V471H78V578Q78 650 119 682.5Q160 715 235 715Q247 715 266.5 714Q286 713 304 711Q325 709 348 707V536L326 538Q317 539 309 540Q301 541 296 541Q284 541 274.5 536.5Q265 532 265 516V471H398V578Q398 650 439 682.5Q480 715 555 715Q567 715 586.5 714Q606 713 624 711Q645 709 668 707V536L646 538Q637 539 629 540Q621 541 616 541Q604 541 594.5 536.5Q585 532 585 516V471H718V700H905Z" glyph-name="ffl" horiz-adv-x="950" unicode="&#58251;" /><glyph d="M485 514Q462 514 442 522.5Q422 531 407.5 545.5Q393 560 384.5 579.5Q376 599 376 622Q376 645 384.5 664.5Q393 684 407.5 698.5Q422 713 442 721.5Q462 730 485 730Q508 730 528 721.5Q548 713 562.5 698.5Q577 684 585.5 664.5Q594 645 594 622Q594 599 585.5 579.5Q577 560 562.5 545.5Q548 531 528 522.5Q508 514 485 514ZM585 0H398V310H265V0H78V310H19V471H78V578Q78 650 119 682.5Q160 715 235 715Q247 715 266.5 714Q286 713 304 711Q325 709 348 707V536L326 538Q317 539 309 540Q301 541 296 541Q284 541 274.5 536.5Q265 532 265 516V471H585Z" glyph-name="fi" horiz-adv-x="629" unicode="&#64257;" /><glyph d="M344 470Q392 470 430 453.5Q468 437 494.5 406.5Q521 376 535 333.5Q549 291 549 240Q549 186 534 140Q519 94 488.5 60Q458 26 410.5 7Q363 -12 297 -12Q233 -12 185.5 4Q138 20 106.5 49.5Q75 79 59.5 119.5Q44 160 44 209V239H250V213Q250 205 251 195Q252 185 256.5 176Q261 167 269.5 160.5Q278 154 293 154Q322 154 330 176Q338 198 338 230Q338 262 326 284Q314 306 285 306Q268 306 257.5 298.5Q247 291 240 282L64 298V700H522V525H243V442H246Q259 451 283 460.5Q307 470 344 470Z" glyph-name="five" horiz-adv-x="582" unicode="5" /><glyph d="M343 470Q391 470 429 453.5Q467 437 493.5 406.5Q520 376 534 333.5Q548 291 548 240Q548 186 533 140Q518 94 487.5 60Q457 26 409.5 7Q362 -12 296 -12Q232 -12 184.5 4Q137 20 105.5 49.5Q74 79 58.5 119.5Q43 160 43 209V239H249V213Q249 205 250 195Q251 185 255.5 176Q260 167 268.5 160.5Q277 154 292 154Q321 154 329 176Q337 198 337 230Q337 262 325 284Q313 306 284 306Q267 306 256.5 298.5Q246 291 239 282L63 298V700H521V525H242V442H245Q258 451 282 460.5Q306 470 343 470Z" glyph-name="five.alt" horiz-adv-x="580" unicode="&#62023;" /><glyph d="M309 278Q352 278 386.5 262.5Q421 247 445.5 218.5Q470 190 483 150.5Q496 111 496 63Q496 12 482.5 -31.5Q469 -75 440.5 -106.5Q412 -138 368 -156Q324 -174 264 -174Q205 -174 161.5 -159Q118 -144 89 -117Q60 -90 45.5 -52Q31 -14 31 32V57H215V37Q215 29 216.5 18Q218 7 222.5 -2.5Q227 -12 236 -19Q245 -26 260 -26Q290 -26 299 -3Q308 20 308 53Q308 86 295.5 108Q283 130 253 130Q236 130 226 124Q216 118 209 109L51 120V499H471V336H209V241Q222 253 246.5 265.5Q271 278 309 278Z" glyph-name="five.posf" horiz-adv-x="522" unicode="&#62039;" /><glyph d="M382 -57Q382 -92 372.5 -121.5Q363 -151 343.5 -173Q324 -195 293 -207Q262 -219 220 -219Q137 -219 97 -179.5Q57 -140 57 -77V-58H191V-74Q191 -79 191.5 -85Q192 -91 194.5 -97Q197 -103 202.5 -107Q208 -111 217 -111Q235 -111 240 -97.5Q245 -84 245 -64Q245 -44 237 -30Q229 -16 212 -16Q201 -16 195 -21Q189 -26 184 -32L70 -22V237H364V123H186V71L188 72Q196 77 211 83.5Q226 90 250 90Q311 90 346.5 49.5Q382 9 382 -57Z" glyph-name="five.sinf" horiz-adv-x="430" unicode="&#62071;" /><glyph d="M251 228Q232 228 225 215L62 229V560H449V396H229V358H231Q239 364 258 372Q277 380 308 380Q346 380 376 366.5Q406 353 427 329Q448 305 459.5 271Q471 237 471 195Q471 151 459.5 114Q448 77 422.5 49Q397 21 357.5 5.5Q318 -10 262 -10Q207 -10 167 3.5Q127 17 101.5 41Q76 65 63.5 98Q51 131 51 171V194H236V170Q236 161 241 153Q246 145 257 145Q269 145 274.5 154.5Q280 164 280 178Q280 211 271.5 219.5Q263 228 251 228Z" glyph-name="five.smcp" horiz-adv-x="515" unicode="&#58432;" /><glyph d="M382 542Q382 507 372.5 477.5Q363 448 343.5 426Q324 404 293 392Q262 380 220 380Q137 380 97 419.5Q57 459 57 522V541H191V525Q191 520 191.5 514Q192 508 194.5 502Q197 496 202.5 492Q208 488 217 488Q235 488 240 501.5Q245 515 245 535Q245 555 237 569Q229 583 212 583Q201 583 195 578Q189 573 184 567L70 577V836H364V722H186V670L188 671Q196 676 211 682.5Q226 689 250 689Q311 689 346.5 648.5Q382 608 382 542Z" glyph-name="five.sups" horiz-adv-x="430" unicode="&#62055;" /><glyph d="M850 280Q868 280 876.5 290Q885 300 885 314Q885 327 876.5 337.5Q868 348 850 348Q831 348 822.5 337.5Q814 327 814 314Q814 300 822.5 290Q831 280 850 280ZM850 456Q888 456 918.5 446Q949 436 970.5 418.5Q992 401 1003.5 378Q1015 355 1015 329Q1015 301 999 274Q983 247 949 233Q985 219 1004 190Q1023 161 1023 128Q1023 99 1010.5 74Q998 49 975.5 31Q953 13 921 2.5Q889 -8 850 -8Q810 -8 778 2.5Q746 13 723.5 31Q701 49 688.5 74Q676 99 676 128Q676 161 695.5 190Q715 219 751 233Q717 247 701 274Q685 301 685 329Q685 355 696.5 378Q708 401 729 418.5Q750 436 780.5 446Q811 456 850 456ZM850 103Q870 103 880 114Q890 125 890 139Q890 154 880 165Q870 176 850 176Q830 176 819.5 165Q809 154 809 139Q809 125 819.5 114Q830 103 850 103ZM914 676 241 -27 183 28 856 731ZM408 406Q408 371 398.5 341.5Q389 312 369.5 290Q350 268 319 256Q288 244 246 244Q163 244 123 283.5Q83 323 83 386V405H217V389Q217 384 217.5 378Q218 372 220.5 366Q223 360 228.5 356Q234 352 243 352Q261 352 266 365.5Q271 379 271 399Q271 419 263 433Q255 447 238 447Q227 447 221 442Q215 437 210 431L96 441V700H390V586H212V534L214 535Q222 540 237 546.5Q252 553 276 553Q337 553 372.5 512.5Q408 472 408 406Z" glyph-name="fiveeighths" horiz-adv-x="1080" unicode="&#8541;" /><glyph d="M382 154Q382 119 372.5 89.5Q363 60 343.5 38Q324 16 293 4Q262 -8 220 -8Q137 -8 97 31.5Q57 71 57 134V153H191V137Q191 132 191.5 126Q192 120 194.5 114Q197 108 202.5 104Q208 100 217 100Q235 100 240 113.5Q245 127 245 147Q245 167 237 181Q229 195 212 195Q201 195 195 190Q189 185 184 179L70 189V448H364V334H186V282L188 283Q196 288 211 294.5Q226 301 250 301Q311 301 346.5 260.5Q382 220 382 154Z" glyph-name="fiveinferior" horiz-adv-x="430" unicode="&#8325;" /><glyph d="M882 303Q882 320 871.5 332.5Q861 345 840 345Q818 345 808 332.5Q798 320 798 303Q798 285 808 272Q818 259 840 259Q861 259 871.5 272Q882 285 882 303ZM694 0 713 18Q725 30 747.5 51.5Q770 73 793.5 96Q817 119 837 139Q857 159 864 168L861 170Q836 157 806 157Q776 157 750.5 168Q725 179 706.5 198Q688 217 677.5 242Q667 267 667 295Q667 331 679.5 360.5Q692 390 714.5 411Q737 432 768 444Q799 456 836 456Q878 456 911 442Q944 428 967 404Q990 380 1002 347.5Q1014 315 1014 278Q1014 229 999.5 188Q985 147 963.5 113.5Q942 80 918 54.5Q894 29 875 11L863 0ZM914 676 241 -27 183 28 856 731ZM408 406Q408 371 398.5 341.5Q389 312 369.5 290Q350 268 319 256Q288 244 246 244Q163 244 123 283.5Q83 323 83 386V405H217V389Q217 384 217.5 378Q218 372 220.5 366Q223 360 228.5 356Q234 352 243 352Q261 352 266 365.5Q271 379 271 399Q271 419 263 433Q255 447 238 447Q227 447 221 442Q215 437 210 431L96 441V700H390V586H212V534L214 535Q222 540 237 546.5Q252 553 276 553Q337 553 372.5 512.5Q408 472 408 406Z" glyph-name="fiveninths" horiz-adv-x="1080" unicode="&#62103;" /><glyph d="M737 0 889 327H708V448H1029V334L889 0ZM914 676 241 -27 183 28 856 731ZM408 406Q408 371 398.5 341.5Q389 312 369.5 290Q350 268 319 256Q288 244 246 244Q163 244 123 283.5Q83 323 83 386V405H217V389Q217 384 217.5 378Q218 372 220.5 366Q223 360 228.5 356Q234 352 243 352Q261 352 266 365.5Q271 379 271 399Q271 419 263 433Q255 447 238 447Q227 447 221 442Q215 437 210 431L96 441V700H390V586H212V534L214 535Q222 540 237 546.5Q252 553 276 553Q337 553 372.5 512.5Q408 472 408 406Z" glyph-name="fivesevenths" horiz-adv-x="1080" unicode="&#62098;" /><glyph d="M809 145Q809 128 819.5 115.5Q830 103 851 103Q873 103 883 115.5Q893 128 893 145Q893 163 883 176Q873 189 851 189Q830 189 819.5 176Q809 163 809 145ZM997 448 978 430Q966 418 943.5 396.5Q921 375 897.5 352Q874 329 854 309Q834 289 827 280L830 278Q855 291 885 291Q915 291 940.5 280Q966 269 984.5 250Q1003 231 1013.5 206Q1024 181 1024 153Q1024 117 1011.5 87.5Q999 58 976.5 37Q954 16 923 4Q892 -8 855 -8Q813 -8 780 6Q747 20 724 44Q701 68 689 100.5Q677 133 677 170Q677 219 691.5 260Q706 301 727.5 334.5Q749 368 773 393.5Q797 419 816 437L828 448ZM914 676 241 -27 183 28 856 731ZM408 406Q408 371 398.5 341.5Q389 312 369.5 290Q350 268 319 256Q288 244 246 244Q163 244 123 283.5Q83 323 83 386V405H217V389Q217 384 217.5 378Q218 372 220.5 366Q223 360 228.5 356Q234 352 243 352Q261 352 266 365.5Q271 379 271 399Q271 419 263 433Q255 447 238 447Q227 447 221 442Q215 437 210 431L96 441V700H390V586H212V534L214 535Q222 540 237 546.5Q252 553 276 553Q337 553 372.5 512.5Q408 472 408 406Z" glyph-name="fivesixths" horiz-adv-x="1080" unicode="&#62087;" /><glyph d="M382 406Q382 371 372.5 341.5Q363 312 343.5 290Q324 268 293 256Q262 244 220 244Q137 244 97 283.5Q57 323 57 386V405H191V389Q191 384 191.5 378Q192 372 194.5 366Q197 360 202.5 356Q208 352 217 352Q235 352 240 365.5Q245 379 245 399Q245 419 237 433Q229 447 212 447Q201 447 195 442Q189 437 184 431L70 441V700H364V586H186V534L188 535Q196 540 211 546.5Q226 553 250 553Q311 553 346.5 512.5Q382 472 382 406Z" glyph-name="fivesuperior" horiz-adv-x="430" unicode="&#8309;" /><glyph d="M585 0H398V310H265V0H78V310H19V471H78V578Q78 650 119 682.5Q160 715 235 715Q247 715 266.5 714Q286 713 304 711Q325 709 348 707V536L326 538Q317 539 309 540Q301 541 296 541Q284 541 274.5 536.5Q265 532 265 516V471H398V700H585Z" glyph-name="fl" horiz-adv-x="630" unicode="&#64258;" /><glyph d="M328 366H407V191H328V-42Q328 -68 321 -92.5Q314 -117 298.5 -135.5Q283 -154 257 -165.5Q231 -177 192 -177H27V8H79Q99 8 114.5 14.5Q130 21 130 51V191H55V366H130V565Q130 591 137 615.5Q144 640 159.5 658.5Q175 677 201 688.5Q227 700 266 700H431V515H396Q384 515 372 515Q360 515 350 511Q340 507 334 498Q328 489 328 471Z" glyph-name="florin" horiz-adv-x="450" unicode="&#402;" /><glyph d="M56 173V338H111V443Q111 497 139.5 528.5Q168 560 231 560H381V394H324Q309 394 303 387.5Q297 381 297 361V338H360V173H297V-26Q297 -80 268.5 -111.5Q240 -143 177 -143H27V23H84Q99 23 105 29.5Q111 36 111 56V173Z" glyph-name="florin.smcp" horiz-adv-x="416" unicode="&#61840;" /><glyph d="M283 486 181 309H285V486ZM16 312 242 700H479V309H558V139H479V0H285V139H16Z" glyph-name="four" horiz-adv-x="582" unicode="4" /><glyph d="M289 486 187 309H291V486ZM22 312 248 700H485V309H564V139H485V0H291V139H22Z" glyph-name="four.alt" horiz-adv-x="593" unicode="&#62022;" /><glyph d="M268 320 162 149H269V320ZM17 157 226 499H441V149H515V0H441V-150H269V0H17Z" glyph-name="four.posf" horiz-adv-x="536" unicode="&#62038;" /><glyph d="M137 -11H210V99H208ZM30 1 182 239H335V-11H388V-122H335V-209H210V-122H30Z" glyph-name="four.sinf" horiz-adv-x="430" unicode="&#62070;" /><glyph d="M179 253H239V356H238ZM28 256 204 560H419V253H475V94H419V0H239V94H28Z" glyph-name="four.smcp" horiz-adv-x="515" unicode="&#58431;" /><glyph d="M137 588H210V698H208ZM30 600 182 838H335V588H388V477H335V390H210V477H30Z" glyph-name="four.sups" horiz-adv-x="430" unicode="&#62054;" /><glyph d="M1027 154Q1027 119 1017.5 89.5Q1008 60 988.5 38Q969 16 938 4Q907 -8 865 -8Q782 -8 742 31.5Q702 71 702 134V153H836V137Q836 132 836.5 126Q837 120 839.5 114Q842 108 847.5 104Q853 100 862 100Q880 100 885 113.5Q890 127 890 147Q890 167 882 181Q874 195 857 195Q846 195 840 190Q834 185 829 179L715 189V448H1009V334H831V282L833 283Q841 288 856 294.5Q871 301 895 301Q956 301 991.5 260.5Q1027 220 1027 154ZM914 676 241 -27 183 28 856 731ZM151 450H224V560H222ZM44 462 196 700H349V450H402V339H349V252H224V339H44Z" glyph-name="fourfifths" horiz-adv-x="1080" unicode="&#62085;" /><glyph d="M137 198H210V308H208ZM30 210 182 448H335V198H388V87H335V0H210V87H30Z" glyph-name="fourinferior" horiz-adv-x="430" unicode="&#8324;" /><glyph d="M882 303Q882 320 871.5 332.5Q861 345 840 345Q818 345 808 332.5Q798 320 798 303Q798 285 808 272Q818 259 840 259Q861 259 871.5 272Q882 285 882 303ZM694 0 713 18Q725 30 747.5 51.5Q770 73 793.5 96Q817 119 837 139Q857 159 864 168L861 170Q836 157 806 157Q776 157 750.5 168Q725 179 706.5 198Q688 217 677.5 242Q667 267 667 295Q667 331 679.5 360.5Q692 390 714.5 411Q737 432 768 444Q799 456 836 456Q878 456 911 442Q944 428 967 404Q990 380 1002 347.5Q1014 315 1014 278Q1014 229 999.5 188Q985 147 963.5 113.5Q942 80 918 54.5Q894 29 875 11L863 0ZM151 450H224V560H222ZM44 462 196 700H349V450H402V339H349V252H224V339H44ZM914 676 241 -27 183 28 856 731Z" glyph-name="fourninths" horiz-adv-x="1080" unicode="&#62102;" /><glyph d="M737 0 889 327H708V448H1029V334L889 0ZM151 450H224V560H222ZM44 462 196 700H349V450H402V339H349V252H224V339H44ZM914 676 241 -27 183 28 856 731Z" glyph-name="foursevenths" horiz-adv-x="1080" unicode="&#62097;" /><glyph d="M137 450H210V560H208ZM30 462 182 700H335V450H388V339H335V252H210V339H30Z" glyph-name="foursuperior" horiz-adv-x="430" unicode="&#8308;" /><glyph d="M475 676 -198 -27 -256 28 417 731Z" glyph-name="fraction" horiz-adv-x="220" unicode="&#8260;" /><glyph d="M366 430Q364 435 363 441Q360 451 360 467V471H547V-30Q547 -58 539.5 -84.5Q532 -111 514 -131.5Q496 -152 466.5 -164.5Q437 -177 393 -177H168V-20H327Q340 -20 350 -15Q360 -10 360 8V69Q355 63 344.5 54Q334 45 318 36Q302 27 280.5 21Q259 15 233 15Q189 15 150.5 32.5Q112 50 83 80.5Q54 111 37 154Q20 197 20 248Q20 299 37.5 342Q55 385 84 416.5Q113 448 152 465.5Q191 483 235 483Q263 483 284.5 477.5Q306 472 322 464Q338 456 349 446.5Q360 437 366 430ZM214 249Q214 217 235 193.5Q256 170 290 170Q324 170 345 193.5Q366 217 366 249Q366 281 345 304.5Q324 328 290 328Q256 328 235 304.5Q214 281 214 249Z" glyph-name="g" horiz-adv-x="592" unicode="g" /><glyph d="M331 700H460V658Q460 620 447 592.5Q434 565 412 546.5Q390 528 360.5 519Q331 510 297 510Q263 510 233.5 519Q204 528 181.5 546.5Q159 565 146 592.5Q133 620 133 658V700H262V675Q262 653 271 644Q280 635 297 635Q314 635 322.5 644Q331 653 331 675ZM366 430Q364 435 363 441Q360 451 360 467V471H547V-30Q547 -58 539.5 -84.5Q532 -111 514 -131.5Q496 -152 466.5 -164.5Q437 -177 393 -177H168V-20H327Q340 -20 350 -15Q360 -10 360 8V69Q355 63 344.5 54Q334 45 318 36Q302 27 280.5 21Q259 15 233 15Q189 15 150.5 32.5Q112 50 83 80.5Q54 111 37 154Q20 197 20 248Q20 299 37.5 342Q55 385 84 416.5Q113 448 152 465.5Q191 483 235 483Q263 483 284.5 477.5Q306 472 322 464Q338 456 349 446.5Q360 437 366 430ZM214 249Q214 217 235 193.5Q256 170 290 170Q324 170 345 193.5Q366 217 366 249Q366 281 345 304.5Q324 328 290 328Q256 328 235 304.5Q214 281 214 249Z" glyph-name="gbreve" horiz-adv-x="592" unicode="&#287;" /><glyph d="M269 523H99L198 700H394L493 523H323L296 581ZM366 430Q364 435 363 441Q360 451 360 467V471H547V-30Q547 -58 539.5 -84.5Q532 -111 514 -131.5Q496 -152 466.5 -164.5Q437 -177 393 -177H168V-20H327Q340 -20 350 -15Q360 -10 360 8V69Q355 63 344.5 54Q334 45 318 36Q302 27 280.5 21Q259 15 233 15Q189 15 150.5 32.5Q112 50 83 80.5Q54 111 37 154Q20 197 20 248Q20 299 37.5 342Q55 385 84 416.5Q113 448 152 465.5Q191 483 235 483Q263 483 284.5 477.5Q306 472 322 464Q338 456 349 446.5Q360 437 366 430ZM214 249Q214 217 235 193.5Q256 170 290 170Q324 170 345 193.5Q366 217 366 249Q366 281 345 304.5Q324 328 290 328Q256 328 235 304.5Q214 281 214 249Z" glyph-name="gcircumflex" horiz-adv-x="592" unicode="&#285;" /><glyph d="M405 800 363 699Q379 685 388 667Q397 649 397 626Q397 605 389 587Q381 569 367.5 555.5Q354 542 335.5 534Q317 526 297 526Q248 526 221 555.5Q194 585 194 626Q194 643 200 662Q206 681 216 695L287 800ZM366 430Q364 435 363 441Q360 451 360 467V471H547V-30Q547 -58 539.5 -84.5Q532 -111 514 -131.5Q496 -152 466.5 -164.5Q437 -177 393 -177H168V-20H327Q340 -20 350 -15Q360 -10 360 8V69Q355 63 344.5 54Q334 45 318 36Q302 27 280.5 21Q259 15 233 15Q189 15 150.5 32.5Q112 50 83 80.5Q54 111 37 154Q20 197 20 248Q20 299 37.5 342Q55 385 84 416.5Q113 448 152 465.5Q191 483 235 483Q263 483 284.5 477.5Q306 472 322 464Q338 456 349 446.5Q360 437 366 430ZM214 249Q214 217 235 193.5Q256 170 290 170Q324 170 345 193.5Q366 217 366 249Q366 281 345 304.5Q324 328 290 328Q256 328 235 304.5Q214 281 214 249Z" glyph-name="gcommaaccent" horiz-adv-x="592" unicode="&#291;" /><glyph d="M291 520Q272 520 255 527.5Q238 535 225 548Q212 561 204 578Q196 595 196 614Q196 633 204 650Q212 667 225 680Q238 693 255 700.5Q272 708 291 708Q310 708 327 700.5Q344 693 357 680Q370 667 378 650Q386 633 386 614Q386 595 378 578Q370 561 357 548Q344 535 327 527.5Q310 520 291 520ZM366 430Q364 435 363 441Q360 451 360 467V471H547V-30Q547 -58 539.5 -84.5Q532 -111 514 -131.5Q496 -152 466.5 -164.5Q437 -177 393 -177H168V-20H327Q340 -20 350 -15Q360 -10 360 8V69Q355 63 344.5 54Q334 45 318 36Q302 27 280.5 21Q259 15 233 15Q189 15 150.5 32.5Q112 50 83 80.5Q54 111 37 154Q20 197 20 248Q20 299 37.5 342Q55 385 84 416.5Q113 448 152 465.5Q191 483 235 483Q263 483 284.5 477.5Q306 472 322 464Q338 456 349 446.5Q360 437 366 430ZM214 249Q214 217 235 193.5Q256 170 290 170Q324 170 345 193.5Q366 217 366 249Q366 281 345 304.5Q324 328 290 328Q256 328 235 304.5Q214 281 214 249Z" glyph-name="gdotaccent" horiz-adv-x="592" unicode="&#289;" /><glyph d="M45 476Q45 530 62.5 573.5Q80 617 112.5 647.5Q145 678 190 695Q235 712 290 712Q343 712 385 697.5Q427 683 456.5 658Q486 633 501.5 598.5Q517 564 517 524Q517 489 508 462.5Q499 436 487.5 416Q476 396 467 382.5Q458 369 458 361Q458 345 472.5 325.5Q487 306 504 280.5Q521 255 535.5 222.5Q550 190 550 147Q550 79 503.5 36Q457 -7 377 -7Q359 -7 328.5 -5.5Q298 -4 265 7L282 144Q292 142 302.5 141Q313 140 318 140Q335 140 344 149Q353 158 353 172Q353 186 339.5 205Q326 224 310 246Q294 268 280.5 292Q267 316 267 340Q267 362 277 383.5Q287 405 298.5 425.5Q310 446 320 464Q330 482 330 498Q330 517 316.5 529Q303 541 285 541Q233 541 233 482V0H45Z" glyph-name="germandbls" horiz-adv-x="568" unicode="&#223;" /><glyph d="M285 523H112L15 700H244Z" glyph-name="grave" horiz-adv-x="300" unicode="`" /><glyph d="M316 605H163L83 730H285Z" glyph-name="grave.smcp" horiz-adv-x="400" unicode="&#63328;" /><glyph d="M45 260V448H392L282 585L409 708L730 353L409 -1L282 122L392 260Z" glyph-name="greater" horiz-adv-x="755" unicode="&gt;" /><glyph d="M52 252 367 350 52 449V634L510 471V229L52 67Z" glyph-name="greater.alt" horiz-adv-x="542" unicode="&#62550;" /><glyph d="M54 366H310L239 466L353 576L614 281L353 -15L239 96L310 197H54Z" glyph-name="greater.smcp" horiz-adv-x="654" unicode="&#62007;" /><glyph d="M33 184H491V0H33ZM33 384 348 482 33 581V766L491 603V361L33 199Z" glyph-name="greaterequal" horiz-adv-x="520" unicode="&#8805;" /><glyph d="M83 342 329 419 83 497V669L445 536V301L83 172ZM83 0V164H445V0Z" glyph-name="greaterequal.smcp" horiz-adv-x="515" unicode="&#62009;" /><glyph d="M292 238 432 443H624L500 238L624 32H432ZM27 238 167 443H359L235 238L359 32H167Z" glyph-name="guillemotleft" horiz-adv-x="656" unicode="&#171;" /><glyph d="M302 356 442 561H634L510 356L634 150H442ZM37 356 177 561H369L245 356L369 150H177Z" glyph-name="guillemotleft.alt" horiz-adv-x="686" unicode="&#62224;" /><glyph d="M266 281 388 457H567L462 281L567 102H388ZM29 281 149 457H329L225 281L329 102H149Z" glyph-name="guillemotleft.smcp" horiz-adv-x="620" unicode="&#62993;" /><glyph d="M488 32H296L420 238L296 443H488L628 238ZM223 32H32L156 238L32 443H223L363 238Z" glyph-name="guillemotright" horiz-adv-x="655" unicode="&#187;" /><glyph d="M508 150H316L440 356L316 561H508L648 356ZM243 150H52L176 356L52 561H243L383 356Z" glyph-name="guillemotright.alt" horiz-adv-x="685" unicode="&#62225;" /><glyph d="M466 102H289L393 281L289 457H466L589 281ZM230 102H53L157 281L53 457H230L352 281Z" glyph-name="guillemotright.smcp" horiz-adv-x="618" unicode="&#62994;" /><glyph d="M27 238 167 443H359L235 238L359 32H167Z" glyph-name="guilsinglleft" horiz-adv-x="391" unicode="&#8249;" /><glyph d="M37 356 177 561H369L245 356L369 150H177Z" glyph-name="guilsinglleft.alt" horiz-adv-x="421" unicode="&#62226;" /><glyph d="M29 281 149 457H329L225 281L329 102H149Z" glyph-name="guilsinglleft.smcp" horiz-adv-x="382" unicode="&#62992;" /><glyph d="M223 32H32L156 238L32 443H223L363 238Z" glyph-name="guilsinglright" horiz-adv-x="390" unicode="&#8250;" /><glyph d="M243 150H52L176 356L52 561H243L383 356Z" glyph-name="guilsinglright.alt" horiz-adv-x="420" unicode="&#62227;" /><glyph d="M230 102H53L157 281L53 457H230L352 281Z" glyph-name="guilsinglright.smcp" horiz-adv-x="381" unicode="&#62995;" /><glyph d="M525 0H338V248Q338 265 333 276Q328 287 320.5 293Q313 299 304 301Q295 303 286 303Q275 303 265.5 299Q256 295 248 290Q239 285 232 278V0H45V700H232V488Q232 476 230.5 464Q229 452 227 442Q225 431 223 421Q246 452 283 467.5Q320 483 355 483Q388 483 418.5 472.5Q449 462 473 441Q497 420 511 388Q525 356 525 313Z" glyph-name="h" horiz-adv-x="565" unicode="h" /><glyph d="M0 664H45V700H232V664H334V529H232V488Q232 476 230.5 464Q229 452 227 442Q225 431 223 421Q246 452 283 467.5Q320 483 355 483Q388 483 418.5 472.5Q449 462 473 441Q497 420 511 388Q525 356 525 313V0H338V248Q338 265 333 276Q328 287 320.5 293Q313 299 304 301Q295 303 286 303Q275 303 265.5 299Q256 295 248 290Q239 285 232 278V0H45V529H0Z" glyph-name="hbar" horiz-adv-x="565" unicode="&#295;" /><glyph d="M258 752H88L187 929H383L482 752H312L285 810ZM525 0H338V248Q338 265 333 276Q328 287 320.5 293Q313 299 304 301Q295 303 286 303Q275 303 265.5 299Q256 295 248 290Q239 285 232 278V0H45V700H232V488Q232 476 230.5 464Q229 452 227 442Q225 431 223 421Q246 452 283 467.5Q320 483 355 483Q388 483 418.5 472.5Q449 462 473 441Q497 420 511 388Q525 356 525 313Z" glyph-name="hcircumflex" horiz-adv-x="565" unicode="&#293;" /><glyph d="M289 700H498L401 523H248ZM67 700H276L178 523H25Z" glyph-name="hungarumlaut" horiz-adv-x="523" unicode="&#733;" /><glyph d="M224 730H426L346 605H193ZM6 730H208L128 605H-25Z" glyph-name="hungarumlaut.smcp" horiz-adv-x="400" unicode="&#63224;" /><glyph d="M0 348H250V178H0Z" glyph-name="hyphen" horiz-adv-x="250" unicode="-" /><glyph d="M10 444H240V260H10Z" glyph-name="hyphen.alt" horiz-adv-x="250" unicode="&#62215;" /><glyph d="M164 514Q141 514 121 522.5Q101 531 86.5 545.5Q72 560 63.5 579.5Q55 599 55 622Q55 645 63.5 664.5Q72 684 86.5 698.5Q101 713 121 721.5Q141 730 164 730Q187 730 207 721.5Q227 713 241.5 698.5Q256 684 264.5 664.5Q273 645 273 622Q273 599 264.5 579.5Q256 560 241.5 545.5Q227 531 207 522.5Q187 514 164 514ZM264 0H77V310H19V471H264Z" glyph-name="i" horiz-adv-x="309" unicode="i" /><glyph d="M162 514Q139 514 119 522.5Q99 531 84.5 545.5Q70 560 61.5 579.5Q53 599 53 622Q53 645 61.5 664.5Q70 684 84.5 698.5Q99 713 119 721.5Q139 730 162 730Q185 730 205 721.5Q225 713 239.5 698.5Q254 684 262.5 664.5Q271 645 271 622Q271 599 262.5 579.5Q254 560 239.5 545.5Q225 531 205 522.5Q185 514 162 514ZM262 0H75V310H17V471H262Z" glyph-name="i.locl" horiz-adv-x="307" unicode="&#62212;" /><glyph d="M102 700H331L234 523H61ZM262 0H75V310H17V471H262Z" glyph-name="iacute" horiz-adv-x="307" unicode="&#237;" /><glyph d="M187 700H316V658Q316 620 303 592.5Q290 565 268 546.5Q246 528 216.5 519Q187 510 153 510Q119 510 89.5 519Q60 528 37.5 546.5Q15 565 2 592.5Q-11 620 -11 658V700H118V675Q118 653 127 644Q136 635 153 635Q170 635 178.5 644Q187 653 187 675ZM262 0H75V310H17V471H262Z" glyph-name="ibreve" horiz-adv-x="307" unicode="&#301;" /><glyph d="M125 523H-45L54 700H250L349 523H179L152 581ZM262 0H75V310H17V471H262Z" glyph-name="icircumflex" horiz-adv-x="307" unicode="&#238;" /><glyph d="M257 520Q238 520 221 527.5Q204 535 191 548Q178 561 170 578Q162 595 162 614Q162 633 170 650Q178 667 191 680Q204 693 221 700.5Q238 708 257 708Q276 708 293 700.5Q310 693 323 680Q336 667 344 650Q352 633 352 614Q352 595 344 578Q336 561 323 548Q310 535 293 527.5Q276 520 257 520ZM49 520Q30 520 13 527.5Q-4 535 -17 548Q-30 561 -38 578Q-46 595 -46 614Q-46 633 -38 650Q-30 667 -17 680Q-4 693 13 700.5Q30 708 49 708Q68 708 85 700.5Q102 693 115 680Q128 667 136 650Q144 633 144 614Q144 595 136 578Q128 561 115 548Q102 535 85 527.5Q68 520 49 520ZM262 0H75V310H17V471H262Z" glyph-name="idieresis" horiz-adv-x="307" unicode="&#239;" /><glyph d="M240 523H67L-30 700H199ZM262 0H75V310H17V471H262Z" glyph-name="igrave" horiz-adv-x="307" unicode="&#236;" /><glyph d="M384 310H326V471H571V-43Q571 -116 532.5 -146.5Q494 -177 421 -177H316V-20H351Q372 -20 378 -14.5Q384 -9 384 2ZM471 514Q448 514 428 522.5Q408 531 393.5 545.5Q379 560 370.5 579.5Q362 599 362 622Q362 645 370.5 664.5Q379 684 393.5 698.5Q408 713 428 721.5Q448 730 471 730Q494 730 514 721.5Q534 713 548.5 698.5Q563 684 571.5 664.5Q580 645 580 622Q580 599 571.5 579.5Q563 560 548.5 545.5Q534 531 514 522.5Q494 514 471 514ZM164 514Q141 514 121 522.5Q101 531 86.5 545.5Q72 560 63.5 579.5Q55 599 55 622Q55 645 63.5 664.5Q72 684 86.5 698.5Q101 713 121 721.5Q141 730 164 730Q187 730 207 721.5Q227 713 241.5 698.5Q256 684 264.5 664.5Q273 645 273 622Q273 599 264.5 579.5Q256 560 241.5 545.5Q227 531 207 522.5Q187 514 164 514ZM264 0H77V310H19V471H264Z" glyph-name="ij" horiz-adv-x="616" unicode="&#307;" /><glyph d="M-21 663H327V525H-21ZM262 0H75V310H17V471H262Z" glyph-name="imacron" horiz-adv-x="307" unicode="&#299;" /><glyph d="M541 352Q553 328 567.5 312.5Q582 297 596.5 288.5Q611 280 624.5 277Q638 274 649 274Q657 274 669 277.5Q681 281 692.5 289.5Q704 298 712 313Q720 328 720 352Q720 376 712 391Q704 406 692.5 414.5Q681 423 669 426.5Q657 430 649 430Q638 430 624.5 427Q611 424 596.5 415.5Q582 407 567.5 391.5Q553 376 541 352ZM238 352Q238 328 246 313Q254 298 265 289.5Q276 281 288.5 277.5Q301 274 309 274Q319 274 333 277Q347 280 361.5 288.5Q376 297 390.5 312.5Q405 328 417 352Q405 376 390.5 391.5Q376 407 361.5 415.5Q347 424 333 427Q319 430 309 430Q301 430 288.5 426.5Q276 423 265 414.5Q254 406 246 391Q238 376 238 352ZM915 352Q915 288 894 239.5Q873 191 838.5 158.5Q804 126 759.5 109.5Q715 93 669 93Q613 93 560.5 116Q508 139 479 185Q450 139 397.5 116Q345 93 289 93Q242 93 198 109.5Q154 126 119.5 158.5Q85 191 64 239.5Q43 288 43 352Q43 416 64 464.5Q85 513 119.5 545.5Q154 578 198 594.5Q242 611 289 611Q345 611 397.5 588Q450 565 479 519Q508 565 560.5 588Q613 611 669 611Q715 611 759.5 594.5Q804 578 838.5 545.5Q873 513 894 464.5Q915 416 915 352Z" glyph-name="infinity" horiz-adv-x="958" unicode="&#8734;" /><glyph d="M316 -42Q316 -68 309 -92.5Q302 -117 286.5 -135.5Q271 -154 245 -165.5Q219 -177 180 -177H15V8H67Q87 8 102.5 14.5Q118 21 118 51V565Q118 591 125 615.5Q132 640 147.5 658.5Q163 677 189 688.5Q215 700 254 700H419V515H384Q372 515 360 515Q348 515 338 511Q328 507 322 498Q316 489 316 471Z" glyph-name="integral" horiz-adv-x="433" unicode="&#8747;" /><glyph d="M162 514Q139 514 119 522.5Q99 531 84.5 545.5Q70 560 61.5 579.5Q53 599 53 622Q53 645 61.5 664.5Q70 684 84.5 698.5Q99 713 119 721.5Q139 730 162 730Q185 730 205 721.5Q225 713 239.5 698.5Q254 684 262.5 664.5Q271 645 271 622Q271 599 262.5 579.5Q254 560 239.5 545.5Q225 531 205 522.5Q185 514 162 514ZM262 0H217Q194 -17 186.5 -32Q179 -47 179 -58Q179 -74 191.5 -80.5Q204 -87 218 -87Q238 -87 255 -83Q272 -79 282 -77L278 -175Q267 -180 249 -184Q234 -188 211.5 -190.5Q189 -193 158 -193Q128 -193 102 -187.5Q76 -182 56.5 -170.5Q37 -159 25.5 -141Q14 -123 14 -97Q14 -67 33 -42Q52 -17 91 0H75V310H17V471H262Z" glyph-name="iogonek" horiz-adv-x="307" unicode="&#303;" /><glyph d="M-33 522Q-33 537 -31 564.5Q-29 592 -18 619Q-7 646 16.5 665.5Q40 685 84 685Q100 685 114.5 681Q129 677 142 672.5Q155 668 165.5 664Q176 660 184 660Q192 660 195.5 665Q199 670 199 677V684H339V678Q339 664 337.5 636.5Q336 609 325.5 582Q315 555 291 535Q267 515 222 515Q206 515 191.5 519Q177 523 164 527.5Q151 532 140.5 536Q130 540 122 540Q114 540 110.5 535Q107 530 107 523V515H-33ZM262 0H75V310H17V471H262Z" glyph-name="itilde" horiz-adv-x="307" unicode="&#297;" /><glyph d="M75 310H17V471H262V-43Q262 -116 223.5 -146.5Q185 -177 112 -177H7V-20H42Q63 -20 69 -14.5Q75 -9 75 2ZM162 514Q139 514 119 522.5Q99 531 84.5 545.5Q70 560 61.5 579.5Q53 599 53 622Q53 645 61.5 664.5Q70 684 84.5 698.5Q99 713 119 721.5Q139 730 162 730Q185 730 205 721.5Q225 713 239.5 698.5Q254 684 262.5 664.5Q271 645 271 622Q271 599 262.5 579.5Q254 560 239.5 545.5Q225 531 205 522.5Q185 514 162 514Z" glyph-name="j" horiz-adv-x="307" unicode="j" /><glyph d="M126 523H-44L55 700H251L350 523H180L153 581ZM75 310H17V471H262V-43Q262 -116 223.5 -146.5Q185 -177 112 -177H7V-20H42Q63 -20 69 -14.5Q75 -9 75 2Z" glyph-name="jcircumflex" horiz-adv-x="307" unicode="&#309;" /><glyph d="M231 305H232L325 471H535L402 252L536 0H321L232 194H231V0H45V700H231Z" glyph-name="k" horiz-adv-x="537" unicode="k" /><glyph d="M171 -134Q171 -113 179 -95Q187 -77 200.5 -63.5Q214 -50 232.5 -42Q251 -34 271 -34Q320 -34 347.5 -63.5Q375 -93 375 -134Q375 -151 367.5 -170.5Q360 -190 350 -204L281 -308H163L205 -207Q189 -193 180 -175Q171 -157 171 -134ZM231 305H232L325 471H535L402 252L536 0H321L232 194H231V0H45V700H231Z" glyph-name="kcommaaccent" horiz-adv-x="537" unicode="&#311;" /><glyph d="M231 281H235L346 471H559L412 238L556 0H335L235 183H231V0H45V471H231Z" glyph-name="kgreenlandic" horiz-adv-x="557" unicode="&#312;" /><glyph d="M232 0H45V700H232Z" glyph-name="l" horiz-adv-x="277" unicode="l" /><glyph d="M96 929H325L228 752H55ZM232 0H45V700H232Z" glyph-name="lacute" horiz-adv-x="277" unicode="&#314;" /><glyph d="M268 438 310 539Q294 553 285 571Q276 589 276 612Q276 633 284 651Q292 669 305.5 682.5Q319 696 337.5 704Q356 712 376 712Q425 712 452 682.5Q479 653 479 612Q479 595 473 576Q467 557 457 543L386 438ZM232 0H45V700H232Z" glyph-name="lcaron" horiz-adv-x="385" unicode="&#318;" /><glyph d="M38 -134Q38 -113 46 -95Q54 -77 67.5 -63.5Q81 -50 99.5 -42Q118 -34 138 -34Q187 -34 214.5 -63.5Q242 -93 242 -134Q242 -151 234.5 -170.5Q227 -190 217 -204L148 -308H30L72 -207Q56 -193 47 -175Q38 -157 38 -134ZM232 0H45V700H232Z" glyph-name="lcommaaccent" horiz-adv-x="277" unicode="&#316;" /><glyph d="M280 354Q280 378 289 398.5Q298 419 313 434Q328 449 348 458Q368 467 391 467Q415 467 435.5 458Q456 449 471 434Q486 419 495 398.5Q504 378 504 354Q504 331 495 311Q486 291 471 276Q456 261 435.5 252Q415 243 391 243Q368 243 348 252Q328 261 313 276Q298 291 289 311Q280 331 280 354ZM232 0H45V700H232Z" glyph-name="ldot" horiz-adv-x="502" unicode="&#320;" /><glyph d="M361 260 471 122 345 -1 24 353 345 708 471 585 361 448H710V260Z" glyph-name="less" horiz-adv-x="755" unicode="&lt;" /><glyph d="M490 67 32 229V471L490 634V449L175 350L490 252Z" glyph-name="less.alt" horiz-adv-x="542" unicode="&#62551;" /><glyph d="M600 197H341L413 96L300 -15L39 281L300 576L413 466L341 366H600Z" glyph-name="less.smcp" horiz-adv-x="654" unicode="&#62006;" /><glyph d="M486 199 28 361V603L486 766V581L171 482L486 384ZM486 0H28V184H486Z" glyph-name="lessequal" horiz-adv-x="520" unicode="&#8804;" /><glyph d="M70 0V164H432V0ZM432 172 70 301V536L432 669V497L186 419L432 342Z" glyph-name="lessequal.smcp" horiz-adv-x="515" unicode="&#62008;" /><glyph d="M18 559H476V143H291V375H18Z" glyph-name="logicalnot" horiz-adv-x="520" unicode="&#172;" /><glyph d="M265 0H78V310H19V471H78V578Q78 650 119 682.5Q160 715 235 715Q247 715 266.5 714Q286 713 304 711Q325 709 348 707V536L326 538Q317 539 309 540Q301 541 296 541Q284 541 274.5 536.5Q265 532 265 516Z" glyph-name="longs" horiz-adv-x="330" unicode="&#383;" /><glyph d="M305 481 246 352 305 219 367 352ZM582 352 403 0H208L31 352L208 700H403Z" glyph-name="lozenge" horiz-adv-x="612" unicode="&#9674;" /><glyph d="M236 445 275 469V343L236 320V0H49V209L10 186V310L49 333V700H236Z" glyph-name="lslash" horiz-adv-x="287" unicode="&#322;" /><glyph d="M515 0H328V248Q328 282 313.5 292.5Q299 303 281 303Q270 303 261.5 299Q253 295 246 290Q238 285 232 278V0H45V471H229V468Q229 447 226.5 435.5Q224 424 223 421Q246 452 279.5 467.5Q313 483 348 483Q391 483 426.5 463.5Q462 444 483 405Q509 441 546.5 462Q584 483 632 483Q664 483 694 472.5Q724 462 747 441Q770 420 784 388Q798 356 798 313V0H611V248Q611 282 596.5 292.5Q582 303 564 303Q553 303 544.5 299Q536 295 529 290Q521 285 515 278Z" glyph-name="m" horiz-adv-x="838" unicode="m" /><glyph d="M25 663H373V525H25Z" glyph-name="macron" horiz-adv-x="398" unicode="&#175;" /><glyph d="M51 730H349V605H51Z" glyph-name="macron.smcp" horiz-adv-x="400" unicode="&#63407;" /><glyph d="M31 444H489V260H31Z" glyph-name="minus" horiz-adv-x="520" unicode="&#8722;" /><glyph d="M76 211V357H438V211Z" glyph-name="minus.smcp" horiz-adv-x="515" unicode="&#62998;" /><glyph d="M58 471H245V220Q245 185 261.5 174Q278 163 294 163Q311 163 326.5 174Q342 185 342 220V471H530V187Q530 150 519.5 114Q509 78 485 50Q461 22 421.5 5Q382 -12 324 -12Q295 -12 266 -1Q237 10 213 30V-177H58Z" glyph-name="mu" horiz-adv-x="559" unicode="&#181;" /><glyph d="M406 585 535 462 415 344 535 224 404 103 290 219 174 103 44 224 164 344 44 462 173 585 290 470Z" glyph-name="multiply" horiz-adv-x="580" unicode="&#215;" /><glyph d="M258 388 340 469 462 352 376 268 462 183 337 70 258 152 176 70 52 183 139 268 52 352 174 469Z" glyph-name="multiply.smcp" horiz-adv-x="515" unicode="&#62002;" /><glyph d="M229 468Q229 447 226.5 435.5Q224 424 223 421Q246 452 283 467.5Q320 483 355 483Q388 483 418.5 472.5Q449 462 473 441Q497 420 511 388Q525 356 525 313V0H338V248Q338 265 333 276Q328 287 320.5 293Q313 299 304 301Q295 303 286 303Q275 303 265.5 299Q256 295 248 290Q239 285 232 278V0H45V471H229Z" glyph-name="n" horiz-adv-x="565" unicode="n" /><glyph d="M242 700H471L374 523H201ZM229 468Q229 447 226.5 435.5Q224 424 223 421Q246 452 283 467.5Q320 483 355 483Q388 483 418.5 472.5Q449 462 473 441Q497 420 511 388Q525 356 525 313V0H338V248Q338 265 333 276Q328 287 320.5 293Q313 299 304 301Q295 303 286 303Q275 303 265.5 299Q256 295 248 290Q239 285 232 278V0H45V471H229Z" glyph-name="nacute" horiz-adv-x="565" unicode="&#324;" /><glyph d="M40 521 82 622Q66 636 57 654Q48 672 48 695Q48 716 56 734Q64 752 77.5 765.5Q91 779 109.5 787Q128 795 148 795Q197 795 224 765.5Q251 736 251 695Q251 678 245 659Q239 640 229 626L158 521ZM229 468Q229 447 226.5 435.5Q224 424 223 421Q246 452 283 467.5Q320 483 355 483Q388 483 418.5 472.5Q449 462 473 441Q497 420 511 388Q525 356 525 313V0H338V248Q338 265 333 276Q328 287 320.5 293Q313 299 304 301Q295 303 286 303Q275 303 265.5 299Q256 295 248 290Q239 285 232 278V0H45V471H229Z" glyph-name="napostrophe" horiz-adv-x="565" unicode="&#329;" /><glyph d="M283 642 310 700H480L381 523H185L86 700H256ZM229 468Q229 447 226.5 435.5Q224 424 223 421Q246 452 283 467.5Q320 483 355 483Q388 483 418.5 472.5Q449 462 473 441Q497 420 511 388Q525 356 525 313V0H338V248Q338 265 333 276Q328 287 320.5 293Q313 299 304 301Q295 303 286 303Q275 303 265.5 299Q256 295 248 290Q239 285 232 278V0H45V471H229Z" glyph-name="ncaron" horiz-adv-x="565" unicode="&#328;" /><glyph d="M180 -134Q180 -113 188 -95Q196 -77 209.5 -63.5Q223 -50 241.5 -42Q260 -34 280 -34Q329 -34 356.5 -63.5Q384 -93 384 -134Q384 -151 376.5 -170.5Q369 -190 359 -204L290 -308H172L214 -207Q198 -193 189 -175Q180 -157 180 -134ZM229 468Q229 447 226.5 435.5Q224 424 223 421Q246 452 283 467.5Q320 483 355 483Q388 483 418.5 472.5Q449 462 473 441Q497 420 511 388Q525 356 525 313V0H338V248Q338 265 333 276Q328 287 320.5 293Q313 299 304 301Q295 303 286 303Q275 303 265.5 299Q256 295 248 290Q239 285 232 278V0H45V471H229Z" glyph-name="ncommaaccent" horiz-adv-x="565" unicode="&#326;" /><glyph d="M353 471Q353 497 336.5 517Q320 537 287 537Q253 537 237 517Q221 497 221 471Q221 443 237 422.5Q253 402 287 402Q320 402 336.5 422.5Q353 443 353 471ZM320 267Q282 246 235 246Q189 246 149.5 263Q110 280 81 309.5Q52 339 35.5 378.5Q19 418 19 463Q19 518 38.5 564Q58 610 92.5 643Q127 676 175 694Q223 712 281 712Q345 712 396.5 690.5Q448 669 484 631.5Q520 594 539 544Q558 494 558 437Q558 358 532.5 292.5Q507 227 470 175.5Q433 124 393 85.5Q353 47 325 22L300 0H40L61 16Q82 32 117 61Q152 90 190.5 124.5Q229 159 265.5 196Q302 233 325 264Z" glyph-name="nine" horiz-adv-x="582" unicode="9" /><glyph d="M359 471Q359 497 342.5 517Q326 537 293 537Q259 537 243 517Q227 497 227 471Q227 443 243 422.5Q259 402 293 402Q326 402 342.5 422.5Q359 443 359 471ZM326 267Q288 246 241 246Q195 246 155.5 263Q116 280 87 309.5Q58 339 41.5 378.5Q25 418 25 463Q25 518 44.5 564Q64 610 98.5 643Q133 676 181 694Q229 712 287 712Q351 712 402.5 690.5Q454 669 490 631.5Q526 594 545 544Q564 494 564 437Q564 358 538.5 292.5Q513 227 476 175.5Q439 124 399 85.5Q359 47 331 22L306 0H46L67 16Q88 32 123 61Q158 90 196.5 124.5Q235 159 271.5 196Q308 233 331 264Z" glyph-name="nine.alt" horiz-adv-x="594" unicode="&#62033;" /><glyph d="M333 297Q333 323 315 344Q297 365 265 365Q232 365 214.5 344Q197 323 197 297Q197 271 214.5 249Q232 227 265 227Q297 227 315 249Q333 271 333 297ZM296 101Q277 90 256 85.5Q235 81 214 81Q171 81 135 97Q99 113 72.5 140Q46 167 31.5 204Q17 241 17 283Q17 335 35 377.5Q53 420 85 450.5Q117 481 161.5 498Q206 515 259 515Q319 515 367 494Q415 473 448 437Q481 401 499 353.5Q517 306 517 253Q517 201 504.5 155Q492 109 472 69.5Q452 30 426.5 -3Q401 -36 375.5 -63Q350 -90 326 -110.5Q302 -131 285 -145L274 -155H46L53 -149Q72 -133 104 -103.5Q136 -74 172 -39.5Q208 -5 242 31Q276 67 299 97Z" glyph-name="nine.posf" horiz-adv-x="537" unicode="&#62049;" /><glyph d="M252 92Q252 109 241.5 121.5Q231 134 210 134Q188 134 178 121.5Q168 109 168 92Q168 74 178 61Q188 48 210 48Q231 48 241.5 61Q252 74 252 92ZM64 -211 83 -193Q95 -181 117.5 -159.5Q140 -138 163.5 -115Q187 -92 207 -72Q227 -52 234 -43L231 -41Q206 -54 176 -54Q146 -54 120.5 -43Q95 -32 76.5 -13Q58 6 47.5 31Q37 56 37 84Q37 120 49.5 149.5Q62 179 84.5 200Q107 221 138 233Q169 245 206 245Q248 245 281 231Q314 217 337 193Q360 169 372 136.5Q384 104 384 67Q384 18 369.5 -23Q355 -64 333.5 -97.5Q312 -131 288 -156.5Q264 -182 245 -200L233 -211Z" glyph-name="nine.sinf" horiz-adv-x="430" unicode="&#62081;" /><glyph d="M255 408Q235 408 226.5 397Q218 386 218 372Q218 358 226.5 347Q235 336 255 336Q275 336 283.5 347Q292 358 292 372Q292 386 283.5 397Q275 408 255 408ZM39 0 54 12Q70 25 100 50Q130 75 162.5 102.5Q195 130 225 156.5Q255 183 271 200L266 203Q248 195 233 193.5Q218 192 205 192Q166 192 134 206.5Q102 221 79 245Q56 269 43 300Q30 331 30 364Q30 409 46 447Q62 485 91.5 512.5Q121 540 161 555Q201 570 249 570Q304 570 347.5 551.5Q391 533 421.5 501.5Q452 470 468 428Q484 386 484 340Q484 276 465.5 224.5Q447 173 420.5 133.5Q394 94 365 65.5Q336 37 316 19L295 0Z" glyph-name="nine.smcp" horiz-adv-x="515" unicode="&#58436;" /><glyph d="M252 691Q252 708 241.5 720.5Q231 733 210 733Q188 733 178 720.5Q168 708 168 691Q168 673 178 660Q188 647 210 647Q231 647 241.5 660Q252 673 252 691ZM64 388 83 406Q95 418 117.5 439.5Q140 461 163.5 484Q187 507 207 527Q227 547 234 556L231 558Q206 545 176 545Q146 545 120.5 556Q95 567 76.5 586Q58 605 47.5 630Q37 655 37 683Q37 719 49.5 748.5Q62 778 84.5 799Q107 820 138 832Q169 844 206 844Q248 844 281 830Q314 816 337 792Q360 768 372 735.5Q384 703 384 666Q384 617 369.5 576Q355 535 333.5 501.5Q312 468 288 442.5Q264 417 245 399L233 388Z" glyph-name="nine.sups" horiz-adv-x="430" unicode="&#62065;" /></font>
</defs>
</svg>
