<?xml version="1.0" standalone="no"?><!DOCTYPE svg PUBLIC "-//W3C//DTD SVG 1.1//EN" "http://www.w3.org/Graphics/SVG/1.1/DTD/svg11.dtd" ><svg version="1.1" xmlns="http://www.w3.org/2000/svg"><defs><font horiz-adv-x="0" id="font"><font-face ascent="750" bbox="-278 -279 1195 953" cap-height="700" descent="-250" font-family="Regular Light Italic" font-stretch="normal" font-style="italic" font-weight="600" units-per-em="1000" x-height="434" /><missing-glyph d="M164 408H118L136 604H146ZM0 671Q0 683 8 691.5Q16 700 28 700H473Q484 700 492 691.5Q500 683 500 671V29Q500 17 492 8.5Q484 0 473 0H28Q16 0 8 8.5Q0 17 0 29ZM415 392Q415 407 429 407H435Q449 407 449 392V388H438V389Q438 392 437.5 394.5Q437 397 432 397Q426 397 426 389V377Q426 369 432 369Q437 369 437.5 371.5Q438 374 438 377V378H449V374Q449 359 435 359H429Q415 359 415 374ZM178 270H244L201 657H83L40 270H105L112 347H170ZM434 470Q445 484 452.5 503Q460 522 460 551V567Q460 609 434 634Q408 659 373 659H356Q321 659 294.5 634Q268 609 268 567V517H330V559Q330 572 336 585.5Q342 599 363 599H366Q386 599 391.5 585.5Q397 572 397 559V552Q396 522 376 495L298 391Q283 371 276 354Q269 337 269 313V270H461V331H339V335Q339 339 342 345.5Q345 352 355 365ZM264 42H292V113H316Q332 113 342 124.5Q352 136 352 154V187Q352 206 342 217Q332 228 316 228H264ZM380 42H465V69H410V123H442V150H410V202H465V228H380ZM237 228H208L191 151L171 228H141L174 107V42H205V107ZM65 42H93V202H123V228H35V202H65ZM460 393Q460 404 454.5 410.5Q449 417 437 417H428Q416 417 410 410.5Q404 404 404 393V373Q404 362 410 355.5Q416 349 428 349H437Q449 349 454.5 355.5Q460 362 460 373ZM292 202H309Q318 202 320.5 195.5Q323 189 323 184V158Q323 153 320.5 147Q318 141 309 141H292Z" horiz-adv-x="500" /><glyph d="M193 295H437L381 656H375ZM175 255 46 0H-2L356 700H412L531 0H486L444 255Z" glyph-name="A" horiz-adv-x="597" unicode="A" /><glyph d="M350 238 306 518H303L162 238ZM285 560H336L430 0H388L355 201H145L44 0H0Z" glyph-name="A.smcp" horiz-adv-x="500" unicode="&#62257;" /><glyph d="M505 660 298 377H491L540 660ZM945 660H584L535 377H789L782 337H529L478 40H838L831 0H427L484 337H269L19 0H-40L489 700H952Z" glyph-name="AE" horiz-adv-x="905" unicode="&#198;" /><glyph d="M399 305 437 522H411L251 305ZM395 560H781L774 522H479L441 304H645L638 266H435L395 38H690L684 0H346L392 266H224L27 0H-27Z" glyph-name="AE.smcp" horiz-adv-x="758" unicode="&#62296;" /><glyph d="M462 942H519L426 789H387ZM193 295H437L381 656H375ZM175 255 46 0H-2L356 700H412L531 0H486L444 255Z" glyph-name="Aacute" horiz-adv-x="597" unicode="&#193;" /><glyph d="M364 730H424L341 605H299ZM350 238 306 518H303L162 238ZM285 560H336L430 0H388L355 201H145L44 0H0Z" glyph-name="Aacute.smcp" horiz-adv-x="500" unicode="&#62503;" /><glyph d="M345 876Q345 850 360 835Q375 820 407 820Q432 820 448 836.5Q464 853 469 883L474 911H511L506 879Q500 839 474 811.5Q448 784 401 784Q356 784 331.5 808Q307 832 307 871Q307 877 307.5 884.5Q308 892 312 911H349Q346 894 345.5 887Q345 880 345 876ZM193 295H437L381 656H375ZM175 255 46 0H-2L356 700H412L531 0H486L444 255Z" glyph-name="Abreve" horiz-adv-x="597" unicode="&#258;" /><glyph d="M334 659Q382 659 393 718L395 730H435L431 706Q424 664 395.5 642.5Q367 621 332 621Q314 621 297.5 627Q281 633 269 644.5Q257 656 251.5 672.5Q246 689 250 710L254 730H294L291 715Q284 688 298.5 673.5Q313 659 334 659ZM350 238 306 518H303L162 238ZM285 560H336L430 0H388L355 201H145L44 0H0Z" glyph-name="Abreve.smcp" horiz-adv-x="500" unicode="&#62504;" /><glyph d="M503 789H462L416 908L329 789H284L393 942H447ZM193 295H437L381 656H375ZM175 255 46 0H-2L356 700H412L531 0H486L444 255Z" glyph-name="Acircumflex" horiz-adv-x="597" unicode="&#194;" /><glyph d="M413 605H373L334 695L264 605H217L313 730H364ZM350 238 306 518H303L162 238ZM285 560H336L430 0H388L355 201H145L44 0H0Z" glyph-name="Acircumflex.smcp" horiz-adv-x="500" unicode="&#62505;" /><glyph d="M474 873Q491 873 504 860Q517 847 517 830Q517 813 504 800Q491 787 474 787Q457 787 444 800Q431 813 431 830Q431 847 444 860Q457 873 474 873ZM323 873Q340 873 353 860Q366 847 366 830Q366 813 353 800Q340 787 323 787Q306 787 293 800Q280 813 280 830Q280 847 293 860Q306 873 323 873ZM193 295H437L381 656H375ZM175 255 46 0H-2L356 700H412L531 0H486L444 255Z" glyph-name="Adieresis" horiz-adv-x="597" unicode="&#196;" /><glyph d="M336 670Q336 687 348.5 699.5Q361 712 379 712Q397 712 409.5 699.5Q422 687 422 670Q422 653 409.5 640.5Q397 628 379 628Q361 628 348.5 640.5Q336 653 336 670ZM218 670Q218 687 230.5 699.5Q243 712 261 712Q279 712 291.5 699.5Q304 687 304 670Q304 653 291.5 640.5Q279 628 261 628Q243 628 230.5 640.5Q218 653 218 670ZM350 238 306 518H303L162 238ZM285 560H336L430 0H388L355 201H145L44 0H0Z" glyph-name="Adieresis.smcp" horiz-adv-x="500" unicode="&#62512;" /><glyph d="M398 789H359L282 942H338ZM193 295H437L381 656H375ZM175 255 46 0H-2L356 700H412L531 0H486L444 255Z" glyph-name="Agrave" horiz-adv-x="597" unicode="&#192;" /><glyph d="M323 605H283L216 730H271ZM350 238 306 518H303L162 238ZM285 560H336L430 0H388L355 201H145L44 0H0Z" glyph-name="Agrave.smcp" horiz-adv-x="500" unicode="&#62513;" /><glyph d="M286 849H531L525 812H280ZM193 295H437L381 656H375ZM175 255 46 0H-2L356 700H412L531 0H486L444 255Z" glyph-name="Amacron" horiz-adv-x="597" unicode="&#256;" /><glyph d="M229 690H433L426 651H222ZM350 238 306 518H303L162 238ZM285 560H336L430 0H388L355 201H145L44 0H0Z" glyph-name="Amacron.smcp" horiz-adv-x="500" unicode="&#62309;" /><glyph d="M193 295H437L381 656H375ZM175 255 46 0H-2L356 700H412L530 4H532V0Q477 -25 444 -55.5Q411 -86 411 -114Q411 -131 425.5 -140Q440 -149 457 -149Q474 -149 494 -145.5Q514 -142 528 -136L523 -168Q514 -172 503 -176Q493 -179 480 -181Q467 -183 450 -183Q408 -183 387.5 -163.5Q367 -144 367 -118Q367 -95 377.5 -76.5Q388 -58 405.5 -43.5Q423 -29 444 -18.5Q465 -8 486 0L444 255Z" glyph-name="Aogonek" horiz-adv-x="597" unicode="&#260;" /><glyph d="M350 238 306 518H303L162 238ZM285 560H336L430 0H418Q407 -6 395 -14Q383 -22 373 -32Q363 -42 356 -53.5Q349 -65 349 -80Q349 -97 361.5 -105.5Q374 -114 392 -114Q415 -114 438 -105L433 -135Q427 -138 419 -141Q404 -146 381 -146Q343 -146 325 -128Q307 -110 307 -87Q307 -71 314.5 -56.5Q322 -42 334 -30.5Q346 -19 360 -10.5Q374 -2 387 4L355 201H145L44 0H0Z" glyph-name="Aogonek.smcp" horiz-adv-x="500" unicode="&#62310;" /><glyph d="M398 918Q370 918 353.5 899.5Q337 881 337 855Q337 829 353.5 810.5Q370 792 398 792Q426 792 442.5 810.5Q459 829 459 855Q459 881 442.5 899.5Q426 918 398 918ZM398 757Q378 757 360 764.5Q342 772 328 785Q314 798 306 816Q298 834 298 855Q298 876 306 894Q314 912 328 925Q342 938 360 945.5Q378 953 398 953Q418 953 436 945.5Q454 938 468 925Q482 912 490 894Q498 876 498 855Q498 834 490 816Q482 798 468 785Q454 772 436 764.5Q418 757 398 757ZM193 295H437L381 656H375ZM175 255 46 0H-2L356 700H412L531 0H486L444 255Z" glyph-name="Aring" horiz-adv-x="597" unicode="&#197;" /><glyph d="M325 622Q345 622 357 635.5Q369 649 369 669Q369 689 357 702.5Q345 716 325 716Q305 716 292.5 702.5Q280 689 280 669Q280 649 292.5 635.5Q305 622 325 622ZM325 589Q292 589 267.5 611.5Q243 634 243 669Q243 704 267.5 726.5Q292 749 325 749Q358 749 382.5 726.5Q407 704 407 669Q407 634 382.5 611.5Q358 589 325 589ZM350 238 306 518H303L162 238ZM285 560H336L430 0H388L355 201H145L44 0H0Z" glyph-name="Aring.smcp" horiz-adv-x="500" unicode="&#62311;" /><glyph d="M344 889Q361 889 376 881Q391 873 404 864Q417 855 428 847Q439 839 449 839Q468 839 475.5 852.5Q483 866 485 881L486 889L521 879Q521 870 517.5 856.5Q514 843 506 830Q498 817 483.5 808Q469 799 447 799Q431 799 416.5 807Q402 815 389.5 824Q377 833 365 841Q353 849 342 849Q323 849 315.5 835.5Q308 822 306 807L305 799L270 809Q270 818 273.5 831.5Q277 845 285 858Q293 871 307 880Q321 889 344 889ZM193 295H437L381 656H375ZM175 255 46 0H-2L356 700H412L531 0H486L444 255Z" glyph-name="Atilde" horiz-adv-x="597" unicode="&#195;" /><glyph d="M360 634Q348 634 335.5 639.5Q323 645 311.5 652Q300 659 290 664.5Q280 670 272 670Q251 670 247 641L246 635H208L210 645Q211 653 214.5 664Q218 675 224.5 685Q231 695 243 702Q255 709 274 709Q286 709 298.5 703.5Q311 698 322.5 691Q334 684 344 678.5Q354 673 362 673Q383 673 387 702L388 708H426L424 698Q422 690 419 679Q416 668 409.5 658Q403 648 391 641Q379 634 360 634ZM350 238 306 518H303L162 238ZM285 560H336L430 0H388L355 201H145L44 0H0Z" glyph-name="Atilde.smcp" horiz-adv-x="500" unicode="&#62312;" /><glyph d="M214 660 168 391H250Q284 391 318.5 398.5Q353 406 381 423.5Q409 441 427 470Q445 499 445 543Q445 601 405.5 630.5Q366 660 301 660ZM108 40H202Q243 40 283.5 48Q324 56 356.5 75Q389 94 409 126Q429 158 429 206Q429 244 415.5 271.5Q402 299 380 316.5Q358 334 330 342.5Q302 351 274 351H162ZM492 548Q492 482 452.5 435.5Q413 389 348 373Q408 357 441.5 313Q475 269 475 209Q475 163 457.5 124.5Q440 86 406.5 58.5Q373 31 325.5 15.5Q278 0 218 0H58L178 700H309Q354 700 388.5 687.5Q423 675 446 654Q469 633 480.5 605.5Q492 578 492 548Z" glyph-name="B" horiz-adv-x="522" unicode="B" /><glyph d="M212 315Q238 315 264.5 321Q291 327 312.5 340.5Q334 354 347.5 376.5Q361 399 361 432Q361 477 330.5 499.5Q300 522 252 522H182L146 315ZM174 38Q207 38 238.5 44.5Q270 51 294.5 66Q319 81 334 105.5Q349 130 349 166Q349 194 338.5 215Q328 236 310.5 250Q293 264 271 270.5Q249 277 225 277H139L98 38ZM146 560H259Q295 560 322.5 550Q350 540 368.5 523Q387 506 396.5 484Q406 462 406 438Q406 386 375 348.5Q344 311 292 298Q339 284 365.5 250Q392 216 392 168Q392 131 378 100Q364 69 337.5 47Q311 25 273 12.5Q235 0 187 0H50Z" glyph-name="B.smcp" horiz-adv-x="447" unicode="&#62258;" /><glyph d="M116 312Q116 253 135 201.5Q154 150 190 112Q226 74 276.5 51.5Q327 29 390 29Q434 29 476.5 43.5Q519 58 556.5 83.5Q594 109 625 144.5Q656 180 676 223H725Q701 169 664.5 126Q628 83 583.5 52Q539 21 488 4.5Q437 -12 384 -12Q317 -12 259.5 12Q202 36 160 79Q118 122 94 181.5Q70 241 70 312Q70 401 101 474.5Q132 548 184 601Q236 654 304.5 683Q373 712 447 712Q503 712 552.5 695Q602 678 642 647Q682 616 709.5 572.5Q737 529 749 477H703Q680 566 612.5 618.5Q545 671 442 671Q380 671 321 643.5Q262 616 216.5 568Q171 520 143.5 454.5Q116 389 116 312Z" glyph-name="C" horiz-adv-x="754" unicode="C" /><glyph d="M315 -10Q260 -10 213.5 9.5Q167 29 132.5 64Q98 99 78.5 147.5Q59 196 59 253Q59 323 84 381.5Q109 440 150.5 482Q192 524 246.5 547Q301 570 360 570Q405 570 445.5 556Q486 542 518 517.5Q550 493 572 458.5Q594 424 604 382H560Q541 450 489 490.5Q437 531 357 531Q307 531 261 510Q215 489 179.5 451.5Q144 414 123 363Q102 312 102 252Q102 205 117 164.5Q132 124 160.5 94Q189 64 229 46.5Q269 29 319 29Q354 29 387 40Q420 51 448.5 70.5Q477 90 500.5 117.5Q524 145 540 178H586Q568 135 539.5 100.5Q511 66 475.5 41.5Q440 17 399 3.5Q358 -10 315 -10Z" glyph-name="C.smcp" horiz-adv-x="626" unicode="&#62259;" /><glyph d="M526 942H583L490 789H451ZM116 312Q116 253 135 201.5Q154 150 190 112Q226 74 276.5 51.5Q327 29 390 29Q434 29 476.5 43.5Q519 58 556.5 83.5Q594 109 625 144.5Q656 180 676 223H725Q701 169 664.5 126Q628 83 583.5 52Q539 21 488 4.5Q437 -12 384 -12Q317 -12 259.5 12Q202 36 160 79Q118 122 94 181.5Q70 241 70 312Q70 401 101 474.5Q132 548 184 601Q236 654 304.5 683Q373 712 447 712Q503 712 552.5 695Q602 678 642 647Q682 616 709.5 572.5Q737 529 749 477H703Q680 566 612.5 618.5Q545 671 442 671Q380 671 321 643.5Q262 616 216.5 568Q171 520 143.5 454.5Q116 389 116 312Z" glyph-name="Cacute" horiz-adv-x="754" unicode="&#262;" /><glyph d="M427 730H487L404 605H362ZM315 -10Q260 -10 213.5 9.5Q167 29 132.5 64Q98 99 78.5 147.5Q59 196 59 253Q59 323 84 381.5Q109 440 150.5 482Q192 524 246.5 547Q301 570 360 570Q405 570 445.5 556Q486 542 518 517.5Q550 493 572 458.5Q594 424 604 382H560Q541 450 489 490.5Q437 531 357 531Q307 531 261 510Q215 489 179.5 451.5Q144 414 123 363Q102 312 102 252Q102 205 117 164.5Q132 124 160.5 94Q189 64 229 46.5Q269 29 319 29Q354 29 387 40Q420 51 448.5 70.5Q477 90 500.5 117.5Q524 145 540 178H586Q568 135 539.5 100.5Q511 66 475.5 41.5Q440 17 399 3.5Q358 -10 315 -10Z" glyph-name="Cacute.smcp" horiz-adv-x="626" unicode="&#62313;" /><glyph d="M499 789H445L399 942H440L475 823L573 942H618ZM116 312Q116 253 135 201.5Q154 150 190 112Q226 74 276.5 51.5Q327 29 390 29Q434 29 476.5 43.5Q519 58 556.5 83.5Q594 109 625 144.5Q656 180 676 223H725Q701 169 664.5 126Q628 83 583.5 52Q539 21 488 4.5Q437 -12 384 -12Q317 -12 259.5 12Q202 36 160 79Q118 122 94 181.5Q70 241 70 312Q70 401 101 474.5Q132 548 184 601Q236 654 304.5 683Q373 712 447 712Q503 712 552.5 695Q602 678 642 647Q682 616 709.5 572.5Q737 529 749 477H703Q680 566 612.5 618.5Q545 671 442 671Q380 671 321 643.5Q262 616 216.5 568Q171 520 143.5 454.5Q116 389 116 312Z" glyph-name="Ccaron" horiz-adv-x="754" unicode="&#268;" /><glyph d="M405 605H354L304 730H346L384 640L455 730H500ZM315 -10Q260 -10 213.5 9.5Q167 29 132.5 64Q98 99 78.5 147.5Q59 196 59 253Q59 323 84 381.5Q109 440 150.5 482Q192 524 246.5 547Q301 570 360 570Q405 570 445.5 556Q486 542 518 517.5Q550 493 572 458.5Q594 424 604 382H560Q541 450 489 490.5Q437 531 357 531Q307 531 261 510Q215 489 179.5 451.5Q144 414 123 363Q102 312 102 252Q102 205 117 164.5Q132 124 160.5 94Q189 64 229 46.5Q269 29 319 29Q354 29 387 40Q420 51 448.5 70.5Q477 90 500.5 117.5Q524 145 540 178H586Q568 135 539.5 100.5Q511 66 475.5 41.5Q440 17 399 3.5Q358 -10 315 -10Z" glyph-name="Ccaron.smcp" horiz-adv-x="626" unicode="&#62320;" /><glyph d="M338 -9Q280 -1 231 25.5Q182 52 146.5 94Q111 136 91 191.5Q71 247 71 312Q71 401 102 474.5Q133 548 185 601Q237 654 305.5 683Q374 712 448 712Q504 712 553.5 695Q603 678 643 647Q683 616 710.5 572.5Q738 529 750 477H704Q681 566 613.5 618.5Q546 671 443 671Q381 671 322 643.5Q263 616 217.5 568Q172 520 144.5 454.5Q117 389 117 312Q117 253 136 201.5Q155 150 191 112Q227 74 277.5 51.5Q328 29 391 29Q435 29 477.5 43.5Q520 58 557.5 83.5Q595 109 626 144.5Q657 180 677 223H726Q702 169 665.5 126Q629 83 584.5 52Q540 21 489 4.5Q438 -12 385 -12H380L307 -136H265Z" glyph-name="Ccedilla" horiz-adv-x="755" unicode="&#199;" /><glyph d="M274 -7Q227 0 187.5 22Q148 44 119.5 78Q91 112 75 156.5Q59 201 59 253Q59 323 84 381.5Q109 440 150.5 482Q192 524 246.5 547Q301 570 360 570Q405 570 445.5 556Q486 542 518 517.5Q550 493 572 458.5Q594 424 604 382H560Q541 450 489 490.5Q437 531 357 531Q307 531 261 510Q215 489 179.5 451.5Q144 414 123 363Q102 312 102 252Q102 205 117 164.5Q132 124 160.5 94Q189 64 229 46.5Q269 29 319 29Q354 29 387 40Q420 51 448.5 70.5Q477 90 500.5 117.5Q524 145 540 178H586Q568 136 540 101.5Q512 67 477 42.5Q442 18 402 4.5Q362 -9 320 -10L251 -127H209Z" glyph-name="Ccedilla.smcp" horiz-adv-x="627" unicode="&#62321;" /><glyph d="M573 789H532L486 908L399 789H354L463 942H517ZM116 312Q116 253 135 201.5Q154 150 190 112Q226 74 276.5 51.5Q327 29 390 29Q434 29 476.5 43.5Q519 58 556.5 83.5Q594 109 625 144.5Q656 180 676 223H725Q701 169 664.5 126Q628 83 583.5 52Q539 21 488 4.5Q437 -12 384 -12Q317 -12 259.5 12Q202 36 160 79Q118 122 94 181.5Q70 241 70 312Q70 401 101 474.5Q132 548 184 601Q236 654 304.5 683Q373 712 447 712Q503 712 552.5 695Q602 678 642 647Q682 616 709.5 572.5Q737 529 749 477H703Q680 566 612.5 618.5Q545 671 442 671Q380 671 321 643.5Q262 616 216.5 568Q171 520 143.5 454.5Q116 389 116 312Z" glyph-name="Ccircumflex" horiz-adv-x="754" unicode="&#264;" /><glyph d="M478 605H438L399 695L329 605H282L378 730H429ZM315 -10Q260 -10 213.5 9.5Q167 29 132.5 64Q98 99 78.5 147.5Q59 196 59 253Q59 323 84 381.5Q109 440 150.5 482Q192 524 246.5 547Q301 570 360 570Q405 570 445.5 556Q486 542 518 517.5Q550 493 572 458.5Q594 424 604 382H560Q541 450 489 490.5Q437 531 357 531Q307 531 261 510Q215 489 179.5 451.5Q144 414 123 363Q102 312 102 252Q102 205 117 164.5Q132 124 160.5 94Q189 64 229 46.5Q269 29 319 29Q354 29 387 40Q420 51 448.5 70.5Q477 90 500.5 117.5Q524 145 540 178H586Q568 135 539.5 100.5Q511 66 475.5 41.5Q440 17 399 3.5Q358 -10 315 -10Z" glyph-name="Ccircumflex.smcp" horiz-adv-x="626" unicode="&#62322;" /><glyph d="M468 849Q468 869 482 883Q496 897 516 897Q536 897 550 883Q564 869 564 849Q564 829 550 815Q536 801 516 801Q496 801 482 815Q468 829 468 849ZM116 312Q116 253 135 201.5Q154 150 190 112Q226 74 276.5 51.5Q327 29 390 29Q434 29 476.5 43.5Q519 58 556.5 83.5Q594 109 625 144.5Q656 180 676 223H725Q701 169 664.5 126Q628 83 583.5 52Q539 21 488 4.5Q437 -12 384 -12Q317 -12 259.5 12Q202 36 160 79Q118 122 94 181.5Q70 241 70 312Q70 401 101 474.5Q132 548 184 601Q236 654 304.5 683Q373 712 447 712Q503 712 552.5 695Q602 678 642 647Q682 616 709.5 572.5Q737 529 749 477H703Q680 566 612.5 618.5Q545 671 442 671Q380 671 321 643.5Q262 616 216.5 568Q171 520 143.5 454.5Q116 389 116 312Z" glyph-name="Cdotaccent" horiz-adv-x="754" unicode="&#266;" /><glyph d="M338 670Q338 687 350.5 699.5Q363 712 381 712Q399 712 411.5 699.5Q424 687 424 670Q424 653 411.5 640.5Q399 628 381 628Q363 628 350.5 640.5Q338 653 338 670ZM315 -10Q260 -10 213.5 9.5Q167 29 132.5 64Q98 99 78.5 147.5Q59 196 59 253Q59 323 84 381.5Q109 440 150.5 482Q192 524 246.5 547Q301 570 360 570Q405 570 445.5 556Q486 542 518 517.5Q550 493 572 458.5Q594 424 604 382H560Q541 450 489 490.5Q437 531 357 531Q307 531 261 510Q215 489 179.5 451.5Q144 414 123 363Q102 312 102 252Q102 205 117 164.5Q132 124 160.5 94Q189 64 229 46.5Q269 29 319 29Q354 29 387 40Q420 51 448.5 70.5Q477 90 500.5 117.5Q524 145 540 178H586Q568 135 539.5 100.5Q511 66 475.5 41.5Q440 17 399 3.5Q358 -10 315 -10Z" glyph-name="Cdotaccent.smcp" horiz-adv-x="626" unicode="&#62323;" /><glyph d="M231 40Q315 40 383.5 63.5Q452 87 501 133Q550 179 577 246.5Q604 314 604 402Q604 462 584 510Q564 558 527.5 591.5Q491 625 440.5 642.5Q390 660 330 660H214L108 40ZM649 403Q649 316 623 242Q597 168 545 114.5Q493 61 415.5 30.5Q338 0 235 0H58L178 700H323Q404 700 465 677Q526 654 567 614Q608 574 628.5 519.5Q649 465 649 403Z" glyph-name="D" horiz-adv-x="673" unicode="D" /><glyph d="M146 560H268Q332 560 380.5 542Q429 524 462 492.5Q495 461 512 417.5Q529 374 529 322Q529 253 507.5 194Q486 135 444.5 92Q403 49 341.5 24.5Q280 0 200 0H49ZM194 38Q259 38 313 56.5Q367 75 405.5 111Q444 147 465 200Q486 253 486 322Q486 369 470 406.5Q454 444 425.5 469.5Q397 495 356.5 508.5Q316 522 268 522H181L97 38Z" glyph-name="D.smcp" horiz-adv-x="565" unicode="&#62260;" /><glyph d="M431 789H377L331 942H372L407 823L505 942H550ZM231 40Q315 40 383.5 63.5Q452 87 501 133Q550 179 577 246.5Q604 314 604 402Q604 462 584 510Q564 558 527.5 591.5Q491 625 440.5 642.5Q390 660 330 660H214L108 40ZM649 403Q649 316 623 242Q597 168 545 114.5Q493 61 415.5 30.5Q338 0 235 0H58L178 700H323Q404 700 465 677Q526 654 567 614Q608 574 628.5 519.5Q649 465 649 403Z" glyph-name="Dcaron" horiz-adv-x="673" unicode="&#270;" /><glyph d="M360 605H309L259 730H301L339 640L410 730H455ZM146 560H268Q332 560 380.5 542Q429 524 462 492.5Q495 461 512 417.5Q529 374 529 322Q529 253 507.5 194Q486 135 444.5 92Q403 49 341.5 24.5Q280 0 200 0H49ZM194 38Q259 38 313 56.5Q367 75 405.5 111Q444 147 465 200Q486 253 486 322Q486 369 470 406.5Q454 444 425.5 469.5Q397 495 356.5 508.5Q316 522 268 522H181L97 38Z" glyph-name="Dcaron.smcp" horiz-adv-x="565" unicode="&#62324;" /><glyph d="M233 40Q317 40 385.5 63.5Q454 87 503 133Q552 179 579 246.5Q606 314 606 402Q606 462 586 510Q566 558 529.5 591.5Q493 625 442.5 642.5Q392 660 332 660H216L167 377H405L398 337H160L110 40ZM24 377H125L180 700H325Q406 700 467 677Q528 654 569 614Q610 574 630.5 519.5Q651 465 651 403Q651 316 625 242Q599 168 547 114.5Q495 61 417.5 30.5Q340 0 237 0H60L118 337H18Z" glyph-name="Dcroat" horiz-adv-x="675" unicode="&#272;" /><glyph d="M198 38Q263 38 317 56.5Q371 75 409.5 111Q448 147 469 200Q490 253 490 322Q490 369 474 406.5Q458 444 429.5 469.5Q401 495 360.5 508.5Q320 522 272 522H185L147 304H326L319 266H140L101 38ZM19 304H105L150 560H272Q336 560 384.5 542Q433 524 466 492.5Q499 461 516 417.5Q533 374 533 322Q533 253 511.5 194Q490 135 448.5 92Q407 49 345.5 24.5Q284 0 204 0H53L99 266H13Z" glyph-name="Dcroat.smcp" horiz-adv-x="569" unicode="&#62497;" /><glyph d="M483 42 372 650 53 42ZM351 700H405L528 42L520 0H-3L4 42Z" glyph-name="Delta" horiz-adv-x="593" unicode="&#8710;" /><glyph d="M610 660H214L166 377H419L413 337H159L108 40H503L496 0H58L178 700H616Z" glyph-name="E" horiz-adv-x="568" unicode="E" /><glyph d="M146 560H504L498 522H181L144 304H347L340 266H137L98 38H414L407 0H49Z" glyph-name="E.smcp" horiz-adv-x="481" unicode="&#62261;" /><glyph d="M453 942H510L417 789H378ZM610 660H214L166 377H419L413 337H159L108 40H503L496 0H58L178 700H616Z" glyph-name="Eacute" horiz-adv-x="568" unicode="&#201;" /><glyph d="M358 730H418L335 605H293ZM146 560H504L498 522H181L144 304H347L340 266H137L98 38H414L407 0H49Z" glyph-name="Eacute.smcp" horiz-adv-x="481" unicode="&#62514;" /><glyph d="M348 876Q348 850 363 835Q378 820 410 820Q435 820 451 836.5Q467 853 472 883L477 911H514L509 879Q503 839 477 811.5Q451 784 404 784Q359 784 334.5 808Q310 832 310 871Q310 877 310.5 884.5Q311 892 315 911H352Q349 894 348.5 887Q348 880 348 876ZM610 660H214L166 377H419L413 337H159L108 40H503L496 0H58L178 700H616Z" glyph-name="Ebreve" horiz-adv-x="568" unicode="&#276;" /><glyph d="M329 659Q377 659 388 718L390 730H430L426 706Q419 664 390.5 642.5Q362 621 327 621Q309 621 292.5 627Q276 633 264 644.5Q252 656 246.5 672.5Q241 689 245 710L249 730H289L286 715Q279 688 293.5 673.5Q308 659 329 659ZM146 560H504L498 522H181L144 304H347L340 266H137L98 38H414L407 0H49Z" glyph-name="Ebreve.smcp" horiz-adv-x="481" unicode="&#62515;" /><glyph d="M432 789H378L332 942H373L408 823L506 942H551ZM610 660H214L166 377H419L413 337H159L108 40H503L496 0H58L178 700H616Z" glyph-name="Ecaron" horiz-adv-x="568" unicode="&#282;" /><glyph d="M345 605H294L244 730H286L324 640L395 730H440ZM146 560H504L498 522H181L144 304H347L340 266H137L98 38H414L407 0H49Z" glyph-name="Ecaron.smcp" horiz-adv-x="481" unicode="&#62516;" /><glyph d="M505 789H464L418 908L331 789H286L395 942H449ZM610 660H214L166 377H419L413 337H159L108 40H503L496 0H58L178 700H616Z" glyph-name="Ecircumflex" horiz-adv-x="568" unicode="&#202;" /><glyph d="M411 605H371L332 695L262 605H215L311 730H362ZM146 560H504L498 522H181L144 304H347L340 266H137L98 38H414L407 0H49Z" glyph-name="Ecircumflex.smcp" horiz-adv-x="481" unicode="&#62517;" /><glyph d="M471 873Q488 873 501 860Q514 847 514 830Q514 813 501 800Q488 787 471 787Q454 787 441 800Q428 813 428 830Q428 847 441 860Q454 873 471 873ZM320 873Q337 873 350 860Q363 847 363 830Q363 813 350 800Q337 787 320 787Q303 787 290 800Q277 813 277 830Q277 847 290 860Q303 873 320 873ZM610 660H214L166 377H419L413 337H159L108 40H503L496 0H58L178 700H616Z" glyph-name="Edieresis" horiz-adv-x="568" unicode="&#203;" /><glyph d="M349 670Q349 687 361.5 699.5Q374 712 392 712Q410 712 422.5 699.5Q435 687 435 670Q435 653 422.5 640.5Q410 628 392 628Q374 628 361.5 640.5Q349 653 349 670ZM231 670Q231 687 243.5 699.5Q256 712 274 712Q292 712 304.5 699.5Q317 687 317 670Q317 653 304.5 640.5Q292 628 274 628Q256 628 243.5 640.5Q231 653 231 670ZM146 560H504L498 522H181L144 304H347L340 266H137L98 38H414L407 0H49Z" glyph-name="Edieresis.smcp" horiz-adv-x="481" unicode="&#62518;" /><glyph d="M354 849Q354 869 368 883Q382 897 402 897Q422 897 436 883Q450 869 450 849Q450 829 436 815Q422 801 402 801Q382 801 368 815Q354 829 354 849ZM610 660H214L166 377H419L413 337H159L108 40H503L496 0H58L178 700H616Z" glyph-name="Edotaccent" horiz-adv-x="568" unicode="&#278;" /><glyph d="M293 670Q293 687 305.5 699.5Q318 712 336 712Q354 712 366.5 699.5Q379 687 379 670Q379 653 366.5 640.5Q354 628 336 628Q318 628 305.5 640.5Q293 653 293 670ZM146 560H504L498 522H181L144 304H347L340 266H137L98 38H414L407 0H49Z" glyph-name="Edotaccent.smcp" horiz-adv-x="481" unicode="&#62519;" /><glyph d="M417 789H378L301 942H357ZM610 660H214L166 377H419L413 337H159L108 40H503L496 0H58L178 700H616Z" glyph-name="Egrave" horiz-adv-x="568" unicode="&#200;" /><glyph d="M351 605H311L244 730H299ZM146 560H504L498 522H181L144 304H347L340 266H137L98 38H414L407 0H49Z" glyph-name="Egrave.smcp" horiz-adv-x="481" unicode="&#62520;" /><glyph d="M280 849H525L519 812H274ZM610 660H214L166 377H419L413 337H159L108 40H503L496 0H58L178 700H616Z" glyph-name="Emacron" horiz-adv-x="568" unicode="&#274;" /><glyph d="M229 690H433L426 651H222ZM146 560H504L498 522H181L144 304H347L340 266H137L98 38H414L407 0H49Z" glyph-name="Emacron.smcp" horiz-adv-x="481" unicode="&#62521;" /><glyph d="M101 0H58L178 700H240L479 63L588 700H631L508 -16Q503 -48 494 -72Q485 -96 469 -112.5Q453 -129 429 -137.5Q405 -146 369 -146H326L333 -106H365Q411 -106 432.5 -88.5Q454 -71 464 -21L468 0H458L213 653Z" glyph-name="Eng" horiz-adv-x="641" unicode="&#330;" /><glyph d="M146 560H205L389 61L476 560H518L415 -44Q406 -95 378.5 -117.5Q351 -140 292 -140H260L266 -101H297Q333 -101 349.5 -86Q366 -71 372 -35L378 0H368L179 510L91 0H49Z" glyph-name="Eng.smcp" horiz-adv-x="545" unicode="&#62487;" /><glyph d="M610 660H214L166 377H419L413 337H159L108 40H503L496 0H459Q404 -25 371 -55.5Q338 -86 338 -114Q338 -131 352.5 -140Q367 -149 384 -149Q401 -149 421 -145.5Q441 -142 455 -136L450 -168Q441 -172 430 -176Q420 -179 407 -181Q394 -183 377 -183Q335 -183 314.5 -163.5Q294 -144 294 -118Q294 -95 304.5 -76.5Q315 -58 332.5 -43.5Q350 -29 371 -18.5Q392 -8 413 0H58L178 700H616Z" glyph-name="Eogonek" horiz-adv-x="568" unicode="&#280;" /><glyph d="M146 560H504L498 522H181L144 304H347L340 266H137L98 38H414L407 0H359Q348 -6 336 -14Q324 -22 314 -32Q304 -42 297 -53.5Q290 -65 290 -80Q290 -97 302.5 -105.5Q315 -114 333 -114Q356 -114 379 -105L374 -135Q368 -138 360 -141Q345 -146 322 -146Q284 -146 266 -128Q248 -110 248 -87Q248 -57 270.5 -35Q293 -13 319 0H49Z" glyph-name="Eogonek.smcp" horiz-adv-x="481" unicode="&#62528;" /><glyph d="M237 40Q321 40 389.5 63.5Q458 87 507 133Q556 179 583 246.5Q610 314 610 402Q610 462 590 510Q570 558 533.5 591.5Q497 625 446.5 642.5Q396 660 336 660H220L171 376H400L393 337H165L114 40ZM66 376H128L184 700H329Q410 700 471 677Q532 654 573 614Q614 574 634.5 519.5Q655 465 655 403Q655 316 629 242Q603 168 551 114.5Q499 61 421.5 30.5Q344 0 241 0H64L122 337H59Z" glyph-name="Eth" horiz-adv-x="679" unicode="&#208;" /><glyph d="M198 38Q263 38 317 56.5Q371 75 409.5 111Q448 147 469 200Q490 253 490 322Q490 369 474 406.5Q458 444 429.5 469.5Q401 495 360.5 508.5Q320 522 272 522H185L147 304H326L319 266H140L101 38ZM19 304H105L150 560H272Q336 560 384.5 542Q433 524 466 492.5Q499 461 516 417.5Q533 374 533 322Q533 253 511.5 194Q490 135 448.5 92Q407 49 345.5 24.5Q284 0 204 0H53L99 266H13Z" glyph-name="Eth.smcp" horiz-adv-x="569" unicode="&#62498;" /><glyph d="M84 449H155Q174 508 204.5 556.5Q235 605 274 639.5Q313 674 359 692.5Q405 711 453 711Q500 711 541 698.5Q582 686 613.5 660.5Q645 635 666 595.5Q687 556 695 503H653Q638 592 583.5 632Q529 672 451 672Q412 672 374.5 655.5Q337 639 305 610Q273 581 246.5 539.5Q220 498 203 449H479L472 407H191Q184 380 180 351Q176 322 176 292H451L445 250H177Q185 147 238.5 87Q292 27 383 27Q417 27 450 36.5Q483 46 513 66.5Q543 87 568 119.5Q593 152 610 197H658Q637 141 607.5 101.5Q578 62 542.5 36.5Q507 11 467 -0.5Q427 -12 385 -12Q330 -12 285 6Q240 24 207 58Q174 92 154.5 140.5Q135 189 131 250H50L56 292H130Q131 351 144 407H77Z" glyph-name="Euro" horiz-adv-x="709" unicode="&#8364;" /><glyph d="M64 363H119Q134 409 158.5 447Q183 485 214.5 512Q246 539 283.5 554Q321 569 362 569Q440 569 492.5 526.5Q545 484 559 399H517Q506 464 464.5 498Q423 532 360 532Q328 532 299 519.5Q270 507 245 485Q220 463 199.5 431.5Q179 400 165 363H384L377 325H154Q149 303 145.5 280.5Q142 258 142 234H360L354 196H143Q150 118 192 73Q234 28 307 28Q363 28 410 60Q457 92 483 161H529Q497 72 436 31Q375 -10 304 -10Q259 -10 222.5 5Q186 20 160 47Q134 74 118.5 112Q103 150 99 196H34L41 234H98Q98 258 100.5 280.5Q103 303 108 325H57Z" glyph-name="Euro.smcp" horiz-adv-x="580" unicode="&#63111;" /><glyph d="M158 328 101 0H58L178 700H597L590 660H214L164 368H439L432 328Z" glyph-name="F" horiz-adv-x="534" unicode="F" /><glyph d="M146 560H488L482 522H181L142 295H362L355 257H135L91 0H49Z" glyph-name="F.smcp" horiz-adv-x="457" unicode="&#62262;" /><glyph d="M379 -12Q314 -12 257.5 12.5Q201 37 159.5 80Q118 123 94 182.5Q70 242 70 312Q70 401 101.5 474.5Q133 548 185.5 601Q238 654 307 683Q376 712 450 712Q506 712 556 695Q606 678 646.5 647Q687 616 715 572.5Q743 529 755 477H709Q686 566 617 618.5Q548 671 445 671Q383 671 323.5 645Q264 619 218 572Q172 525 144 459Q116 393 116 313Q116 254 135 202Q154 150 189 111Q224 72 274.5 49.5Q325 27 388 27Q443 27 492.5 48Q542 69 581 102Q620 135 646 176.5Q672 218 681 259H474L480 303H731L680 0H634L659 136Q644 114 619.5 88.5Q595 63 560.5 40.5Q526 18 481 3Q436 -12 379 -12Z" glyph-name="G" horiz-adv-x="774" unicode="G" /><glyph d="M312 -10Q257 -10 210.5 9.5Q164 29 130.5 64Q97 99 78 147.5Q59 196 59 253Q59 323 84 381.5Q109 440 150.5 482Q192 524 246.5 547Q301 570 360 570Q405 570 446 556Q487 542 519.5 517.5Q552 493 574.5 458.5Q597 424 607 382H563Q544 450 490.5 490.5Q437 531 357 531Q307 531 261 510Q215 489 179.5 451.5Q144 414 123 363Q102 312 102 252Q102 205 117 164.5Q132 124 160.5 94Q189 64 229 46.5Q269 29 319 29Q362 29 399.5 45Q437 61 466.5 86.5Q496 112 516 142.5Q536 173 544 203H382L388 243H591L550 0H508L526 104Q516 88 498.5 68.5Q481 49 454.5 31.5Q428 14 393 2Q358 -10 312 -10Z" glyph-name="G.smcp" horiz-adv-x="641" unicode="&#62263;" /><glyph d="M409 876Q409 850 424 835Q439 820 471 820Q496 820 512 836.5Q528 853 533 883L538 911H575L570 879Q564 839 538 811.5Q512 784 465 784Q420 784 395.5 808Q371 832 371 871Q371 877 371.5 884.5Q372 892 376 911H413Q410 894 409.5 887Q409 880 409 876ZM379 -12Q314 -12 257.5 12.5Q201 37 159.5 80Q118 123 94 182.5Q70 242 70 312Q70 401 101.5 474.5Q133 548 185.5 601Q238 654 307 683Q376 712 450 712Q506 712 556 695Q606 678 646.5 647Q687 616 715 572.5Q743 529 755 477H709Q686 566 617 618.5Q548 671 445 671Q383 671 323.5 645Q264 619 218 572Q172 525 144 459Q116 393 116 313Q116 254 135 202Q154 150 189 111Q224 72 274.5 49.5Q325 27 388 27Q443 27 492.5 48Q542 69 581 102Q620 135 646 176.5Q672 218 681 259H474L480 303H731L680 0H634L659 136Q644 114 619.5 88.5Q595 63 560.5 40.5Q526 18 481 3Q436 -12 379 -12Z" glyph-name="Gbreve" horiz-adv-x="774" unicode="&#286;" /><glyph d="M387 659Q435 659 446 718L448 730H488L484 706Q477 664 448.5 642.5Q420 621 385 621Q367 621 350.5 627Q334 633 322 644.5Q310 656 304.5 672.5Q299 689 303 710L307 730H347L344 715Q337 688 351.5 673.5Q366 659 387 659ZM312 -10Q257 -10 210.5 9.5Q164 29 130.5 64Q97 99 78 147.5Q59 196 59 253Q59 323 84 381.5Q109 440 150.5 482Q192 524 246.5 547Q301 570 360 570Q405 570 446 556Q487 542 519.5 517.5Q552 493 574.5 458.5Q597 424 607 382H563Q544 450 490.5 490.5Q437 531 357 531Q307 531 261 510Q215 489 179.5 451.5Q144 414 123 363Q102 312 102 252Q102 205 117 164.5Q132 124 160.5 94Q189 64 229 46.5Q269 29 319 29Q362 29 399.5 45Q437 61 466.5 86.5Q496 112 516 142.5Q536 173 544 203H382L388 243H591L550 0H508L526 104Q516 88 498.5 68.5Q481 49 454.5 31.5Q428 14 393 2Q358 -10 312 -10Z" glyph-name="Gbreve.smcp" horiz-adv-x="641" unicode="&#62325;" /><glyph d="M580 789H539L493 908L406 789H361L470 942H524ZM379 -12Q314 -12 257.5 12.5Q201 37 159.5 80Q118 123 94 182.5Q70 242 70 312Q70 401 101.5 474.5Q133 548 185.5 601Q238 654 307 683Q376 712 450 712Q506 712 556 695Q606 678 646.5 647Q687 616 715 572.5Q743 529 755 477H709Q686 566 617 618.5Q548 671 445 671Q383 671 323.5 645Q264 619 218 572Q172 525 144 459Q116 393 116 313Q116 254 135 202Q154 150 189 111Q224 72 274.5 49.5Q325 27 388 27Q443 27 492.5 48Q542 69 581 102Q620 135 646 176.5Q672 218 681 259H474L480 303H731L680 0H634L659 136Q644 114 619.5 88.5Q595 63 560.5 40.5Q526 18 481 3Q436 -12 379 -12Z" glyph-name="Gcircumflex" horiz-adv-x="774" unicode="&#284;" /><glyph d="M470 605H430L391 695L321 605H274L370 730H421ZM312 -10Q257 -10 210.5 9.5Q164 29 130.5 64Q97 99 78 147.5Q59 196 59 253Q59 323 84 381.5Q109 440 150.5 482Q192 524 246.5 547Q301 570 360 570Q405 570 446 556Q487 542 519.5 517.5Q552 493 574.5 458.5Q597 424 607 382H563Q544 450 490.5 490.5Q437 531 357 531Q307 531 261 510Q215 489 179.5 451.5Q144 414 123 363Q102 312 102 252Q102 205 117 164.5Q132 124 160.5 94Q189 64 229 46.5Q269 29 319 29Q362 29 399.5 45Q437 61 466.5 86.5Q496 112 516 142.5Q536 173 544 203H382L388 243H591L550 0H508L526 104Q516 88 498.5 68.5Q481 49 454.5 31.5Q428 14 393 2Q358 -10 312 -10Z" glyph-name="Gcircumflex.smcp" horiz-adv-x="641" unicode="&#62326;" /><glyph d="M276 -127Q276 -107 290.5 -92Q305 -77 326 -77Q346 -77 360.5 -90.5Q375 -104 375 -125Q375 -148 358 -169L289 -256L248 -249L300 -171Q289 -165 282.5 -153Q276 -141 276 -127ZM379 -12Q314 -12 257.5 12.5Q201 37 159.5 80Q118 123 94 182.5Q70 242 70 312Q70 401 101.5 474.5Q133 548 185.5 601Q238 654 307 683Q376 712 450 712Q506 712 556 695Q606 678 646.5 647Q687 616 715 572.5Q743 529 755 477H709Q686 566 617 618.5Q548 671 445 671Q383 671 323.5 645Q264 619 218 572Q172 525 144 459Q116 393 116 313Q116 254 135 202Q154 150 189 111Q224 72 274.5 49.5Q325 27 388 27Q443 27 492.5 48Q542 69 581 102Q620 135 646 176.5Q672 218 681 259H474L480 303H731L680 0H634L659 136Q644 114 619.5 88.5Q595 63 560.5 40.5Q526 18 481 3Q436 -12 379 -12Z" glyph-name="Gcommaaccent" horiz-adv-x="774" unicode="&#290;" /><glyph d="M219 -82Q219 -65 231.5 -52.5Q244 -40 261 -40Q278 -40 290.5 -52Q303 -64 303 -81Q303 -100 290 -115L230 -192L196 -186L239 -120Q231 -115 225 -105Q219 -95 219 -82ZM312 -10Q257 -10 210.5 9.5Q164 29 130.5 64Q97 99 78 147.5Q59 196 59 253Q59 323 84 381.5Q109 440 150.5 482Q192 524 246.5 547Q301 570 360 570Q405 570 446 556Q487 542 519.5 517.5Q552 493 574.5 458.5Q597 424 607 382H563Q544 450 490.5 490.5Q437 531 357 531Q307 531 261 510Q215 489 179.5 451.5Q144 414 123 363Q102 312 102 252Q102 205 117 164.5Q132 124 160.5 94Q189 64 229 46.5Q269 29 319 29Q362 29 399.5 45Q437 61 466.5 86.5Q496 112 516 142.5Q536 173 544 203H382L388 243H591L550 0H508L526 104Q516 88 498.5 68.5Q481 49 454.5 31.5Q428 14 393 2Q358 -10 312 -10Z" glyph-name="Gcommaaccent.smcp" horiz-adv-x="641" unicode="&#62484;" /><glyph d="M431 849Q431 869 445 883Q459 897 479 897Q499 897 513 883Q527 869 527 849Q527 829 513 815Q499 801 479 801Q459 801 445 815Q431 829 431 849ZM379 -12Q314 -12 257.5 12.5Q201 37 159.5 80Q118 123 94 182.5Q70 242 70 312Q70 401 101.5 474.5Q133 548 185.5 601Q238 654 307 683Q376 712 450 712Q506 712 556 695Q606 678 646.5 647Q687 616 715 572.5Q743 529 755 477H709Q686 566 617 618.5Q548 671 445 671Q383 671 323.5 645Q264 619 218 572Q172 525 144 459Q116 393 116 313Q116 254 135 202Q154 150 189 111Q224 72 274.5 49.5Q325 27 388 27Q443 27 492.5 48Q542 69 581 102Q620 135 646 176.5Q672 218 681 259H474L480 303H731L680 0H634L659 136Q644 114 619.5 88.5Q595 63 560.5 40.5Q526 18 481 3Q436 -12 379 -12Z" glyph-name="Gdotaccent" horiz-adv-x="774" unicode="&#288;" /><glyph d="M339 670Q339 687 351.5 699.5Q364 712 382 712Q400 712 412.5 699.5Q425 687 425 670Q425 653 412.5 640.5Q400 628 382 628Q364 628 351.5 640.5Q339 653 339 670ZM312 -10Q257 -10 210.5 9.5Q164 29 130.5 64Q97 99 78 147.5Q59 196 59 253Q59 323 84 381.5Q109 440 150.5 482Q192 524 246.5 547Q301 570 360 570Q405 570 446 556Q487 542 519.5 517.5Q552 493 574.5 458.5Q597 424 607 382H563Q544 450 490.5 490.5Q437 531 357 531Q307 531 261 510Q215 489 179.5 451.5Q144 414 123 363Q102 312 102 252Q102 205 117 164.5Q132 124 160.5 94Q189 64 229 46.5Q269 29 319 29Q362 29 399.5 45Q437 61 466.5 86.5Q496 112 516 142.5Q536 173 544 203H382L388 243H591L550 0H508L526 104Q516 88 498.5 68.5Q481 49 454.5 31.5Q428 14 393 2Q358 -10 312 -10Z" glyph-name="Gdotaccent.smcp" horiz-adv-x="641" unicode="&#62327;" /><glyph d="M511 0H468L526 337H159L101 0H58L178 700H221L166 377H533L588 700H631Z" glyph-name="H" horiz-adv-x="642" unicode="H" /><glyph d="M421 0H379L425 266H137L91 0H49L146 560H188L143 304H431L476 560H518Z" glyph-name="H.smcp" horiz-adv-x="544" unicode="&#62264;" /><glyph d="M536 377 558 510H191L169 377ZM608 550H707L700 510H601L514 0H471L529 337H162L104 0H61L148 510H49L55 550H155L181 700H224L198 550H565L591 700H634Z" glyph-name="Hbar" horiz-adv-x="646" unicode="&#294;" /><glyph d="M433 304 451 406H163L145 304ZM500 444H576L570 406H493L423 0H381L427 266H139L93 0H51L121 406H45L51 444H128L148 560H190L169 444H457L478 560H520Z" glyph-name="Hbar.smcp" horiz-adv-x="547" unicode="&#62499;" /><glyph d="M525 789H484L438 908L351 789H306L415 942H469ZM511 0H468L526 337H159L101 0H58L178 700H221L166 377H533L588 700H631Z" glyph-name="Hcircumflex" horiz-adv-x="642" unicode="&#292;" /><glyph d="M436 605H396L357 695L287 605H240L336 730H387ZM421 0H379L425 266H137L91 0H49L146 560H188L143 304H431L476 560H518Z" glyph-name="Hcircumflex.smcp" horiz-adv-x="544" unicode="&#62328;" /><glyph d="M101 0H58L178 700H221Z" glyph-name="I" horiz-adv-x="232" unicode="I" /><glyph d="M146 560H188L91 0H49Z" glyph-name="I.smcp" horiz-adv-x="214" unicode="&#62265;" /><glyph d="M315 272 307 226Q299 181 306 144.5Q313 108 333 82Q353 56 387.5 41.5Q422 27 470 27Q550 27 597 74.5Q644 122 658 200L743 700H786L700 195Q692 149 674 111Q656 73 627.5 45.5Q599 18 560 3Q521 -12 471 -12Q417 -12 374 4Q331 20 303 51.5Q275 83 264.5 128.5Q254 174 265 233L272 272ZM101 0H58L178 700H221Z" glyph-name="IJ" horiz-adv-x="790" unicode="&#306;" /><glyph d="M193 -71Q239 -71 261 -54Q283 -37 292 13L410 700H453L336 19Q331 -13 322 -37Q313 -61 297 -77.5Q281 -94 257 -102.5Q233 -111 197 -111H154L161 -71ZM101 0H58L178 700H221Z" glyph-name="IJ.alt" horiz-adv-x="464" unicode="&#59530;" /><glyph d="M285 207 281 184Q275 150 280 121.5Q285 93 301 72Q317 51 343.5 39.5Q370 28 408 28Q471 28 507 66.5Q543 105 554 164L622 560H664L594 158Q588 121 573.5 90.5Q559 60 535.5 37.5Q512 15 480.5 2.5Q449 -10 408 -10Q364 -10 329 4Q294 18 271.5 44Q249 70 240.5 107.5Q232 145 241 192L244 207ZM146 560H188L91 0H49Z" glyph-name="IJ.smcp" horiz-adv-x="684" unicode="&#62341;" /><glyph d="M274 942H331L238 789H199ZM101 0H58L178 700H221Z" glyph-name="Iacute" horiz-adv-x="232" unicode="&#205;" /><glyph d="M220 730H280L197 605H155ZM146 560H188L91 0H49Z" glyph-name="Iacute.smcp" horiz-adv-x="214" unicode="&#62329;" /><glyph d="M165 876Q165 850 180 835Q195 820 227 820Q252 820 268 836.5Q284 853 289 883L294 911H331L326 879Q320 839 294 811.5Q268 784 221 784Q176 784 151.5 808Q127 832 127 871Q127 877 127.5 884.5Q128 892 132 911H169Q166 894 165.5 887Q165 880 165 876ZM101 0H58L178 700H221Z" glyph-name="Ibreve" horiz-adv-x="232" unicode="&#300;" /><glyph d="M177 659Q225 659 236 718L238 730H278L274 706Q267 664 238.5 642.5Q210 621 175 621Q157 621 140.5 627Q124 633 112 644.5Q100 656 94.5 672.5Q89 689 93 710L97 730H137L134 715Q127 688 141.5 673.5Q156 659 177 659ZM146 560H188L91 0H49Z" glyph-name="Ibreve.smcp" horiz-adv-x="214" unicode="&#62336;" /><glyph d="M322 789H281L235 908L148 789H103L212 942H266ZM101 0H58L178 700H221Z" glyph-name="Icircumflex" horiz-adv-x="232" unicode="&#206;" /><glyph d="M268 605H228L189 695L119 605H72L168 730H219ZM146 560H188L91 0H49Z" glyph-name="Icircumflex.smcp" horiz-adv-x="214" unicode="&#62337;" /><glyph d="M300 873Q317 873 330 860Q343 847 343 830Q343 813 330 800Q317 787 300 787Q283 787 270 800Q257 813 257 830Q257 847 270 860Q283 873 300 873ZM149 873Q166 873 179 860Q192 847 192 830Q192 813 179 800Q166 787 149 787Q132 787 119 800Q106 813 106 830Q106 847 119 860Q132 873 149 873ZM101 0H58L178 700H221Z" glyph-name="Idieresis" horiz-adv-x="232" unicode="&#207;" /><glyph d="M196 670Q196 687 208.5 699.5Q221 712 239 712Q257 712 269.5 699.5Q282 687 282 670Q282 653 269.5 640.5Q257 628 239 628Q221 628 208.5 640.5Q196 653 196 670ZM78 670Q78 687 90.5 699.5Q103 712 121 712Q139 712 151.5 699.5Q164 687 164 670Q164 653 151.5 640.5Q139 628 121 628Q103 628 90.5 640.5Q78 653 78 670ZM146 560H188L91 0H49Z" glyph-name="Idieresis.smcp" horiz-adv-x="214" unicode="&#62338;" /><glyph d="M175 849Q175 869 189 883Q203 897 223 897Q243 897 257 883Q271 869 271 849Q271 829 257 815Q243 801 223 801Q203 801 189 815Q175 829 175 849ZM101 0H58L178 700H221Z" glyph-name="Idotaccent" horiz-adv-x="232" unicode="&#304;" /><glyph d="M139 670Q139 687 151.5 699.5Q164 712 182 712Q200 712 212.5 699.5Q225 687 225 670Q225 653 212.5 640.5Q200 628 182 628Q164 628 151.5 640.5Q139 653 139 670ZM146 560H188L91 0H49Z" glyph-name="Idotaccent.smcp" horiz-adv-x="214" unicode="&#62339;" /><glyph d="M219 789H180L103 942H159ZM101 0H58L178 700H221Z" glyph-name="Igrave" horiz-adv-x="232" unicode="&#204;" /><glyph d="M181 605H141L74 730H129ZM146 560H188L91 0H49Z" glyph-name="Igrave.smcp" horiz-adv-x="214" unicode="&#62340;" /><glyph d="M96 849H341L335 812H90ZM101 0H58L178 700H221Z" glyph-name="Imacron" horiz-adv-x="232" unicode="&#298;" /><glyph d="M80 690H284L277 651H73ZM146 560H188L91 0H49Z" glyph-name="Imacron.smcp" horiz-adv-x="214" unicode="&#62489;" /><glyph d="M101 0H96Q41 -25 8 -55.5Q-25 -86 -25 -114Q-25 -131 -10.5 -140Q4 -149 21 -149Q38 -149 58 -145.5Q78 -142 92 -136L87 -168Q78 -172 67 -176Q57 -179 44 -181Q31 -183 14 -183Q-28 -183 -48.5 -163.5Q-69 -144 -69 -118Q-69 -94 -57.5 -74.5Q-46 -55 -27.5 -40.5Q-9 -26 13.5 -15.5Q36 -5 58 3L178 700H221Z" glyph-name="Iogonek" horiz-adv-x="232" unicode="&#302;" /><glyph d="M81 0Q70 -6 58 -14Q46 -22 36 -32Q26 -42 19 -53.5Q12 -65 12 -80Q12 -97 24.5 -105.5Q37 -114 55 -114Q78 -114 101 -105L96 -135Q90 -138 82 -141Q67 -146 44 -146Q6 -146 -12 -128Q-30 -110 -30 -87Q-30 -71 -22.5 -57Q-15 -43 -3.5 -31.5Q8 -20 22 -11Q36 -2 49 4L146 560H188L91 0Z" glyph-name="Iogonek.smcp" horiz-adv-x="214" unicode="&#62342;" /><glyph d="M169 889Q186 889 201 881Q216 873 229 864Q242 855 253 847Q264 839 274 839Q293 839 300.5 852.5Q308 866 310 881L311 889L346 879Q346 870 342.5 856.5Q339 843 331 830Q323 817 308.5 808Q294 799 272 799Q256 799 241.5 807Q227 815 214.5 824Q202 833 190 841Q178 849 167 849Q148 849 140.5 835.5Q133 822 131 807L130 799L95 809Q95 818 98.5 831.5Q102 845 110 858Q118 871 132 880Q146 889 169 889ZM101 0H58L178 700H221Z" glyph-name="Itilde" horiz-adv-x="232" unicode="&#296;" /><glyph d="M222 634Q210 634 197.5 639.5Q185 645 173.5 652Q162 659 152 664.5Q142 670 134 670Q113 670 109 641L108 635H70L72 645Q73 653 76.5 664Q80 675 86.5 685Q93 695 105 702Q117 709 136 709Q148 709 160.5 703.5Q173 698 184.5 691Q196 684 206 678.5Q216 673 224 673Q245 673 249 702L250 708H288L286 698Q284 690 281 679Q278 668 271.5 658Q265 648 253 641Q241 634 222 634ZM146 560H188L91 0H49Z" glyph-name="Itilde.smcp" horiz-adv-x="214" unicode="&#62343;" /><glyph d="M83 272 75 226Q67 181 74 144.5Q81 108 101 82Q121 56 155.5 41.5Q190 27 238 27Q318 27 365 74.5Q412 122 426 200L511 700H554L468 195Q460 149 442 111Q424 73 395.5 45.5Q367 18 328 3Q289 -12 239 -12Q185 -12 142 4Q99 20 71 51.5Q43 83 32.5 128.5Q22 174 33 233L40 272Z" glyph-name="J" horiz-adv-x="558" unicode="J" /><glyph d="M-39 -71Q7 -71 29 -54Q51 -37 60 13L178 700H221L104 19Q99 -13 90 -37Q81 -61 65 -77.5Q49 -94 25 -102.5Q1 -111 -35 -111H-78L-71 -71Z" glyph-name="J.alt" horiz-adv-x="232" unicode="&#58505;" /><glyph d="M71 207 67 184Q61 150 66 121.5Q71 93 87 72Q103 51 129.5 39.5Q156 28 194 28Q257 28 293 66.5Q329 105 340 164L408 560H450L380 158Q374 121 359.5 90.5Q345 60 321.5 37.5Q298 15 266.5 2.5Q235 -10 194 -10Q150 -10 115 4Q80 18 57.5 44Q35 70 26.5 107.5Q18 145 27 192L30 207Z" glyph-name="J.smcp" horiz-adv-x="470" unicode="&#62272;" /><glyph d="M468 789H427L381 908L294 789H249L358 942H412ZM83 272 75 226Q67 181 74 144.5Q81 108 101 82Q121 56 155.5 41.5Q190 27 238 27Q318 27 365 74.5Q412 122 426 200L511 700H554L468 195Q460 149 442 111Q424 73 395.5 45.5Q367 18 328 3Q289 -12 239 -12Q185 -12 142 4Q99 20 71 51.5Q43 83 32.5 128.5Q22 174 33 233L40 272Z" glyph-name="Jcircumflex" horiz-adv-x="558" unicode="&#308;" /><glyph d="M353 605H313L274 695L204 605H157L253 730H304ZM71 207 67 184Q61 150 66 121.5Q71 93 87 72Q103 51 129.5 39.5Q156 28 194 28Q257 28 293 66.5Q329 105 340 164L408 560H450L380 158Q374 121 359.5 90.5Q345 60 321.5 37.5Q298 15 266.5 2.5Q235 -10 194 -10Q150 -10 115 4Q80 18 57.5 44Q35 70 26.5 107.5Q18 145 27 192L30 207Z" glyph-name="Jcircumflex.smcp" horiz-adv-x="470" unicode="&#62344;" /><glyph d="M168 389H187L583 700H645L221 368L518 0H463L186 347H161L101 0H58L178 700H221Z" glyph-name="K" horiz-adv-x="565" unicode="K" /><glyph d="M146 560H188L145 314H163L470 560H528L195 294L426 0H374L161 275H139L91 0H49Z" glyph-name="K.smcp" horiz-adv-x="482" unicode="&#62273;" /><glyph d="M161 -127Q161 -107 175.5 -92Q190 -77 211 -77Q231 -77 245.5 -90.5Q260 -104 260 -125Q260 -148 243 -169L174 -256L133 -249L185 -171Q174 -165 167.5 -153Q161 -141 161 -127ZM168 389H187L583 700H645L221 368L518 0H463L186 347H161L101 0H58L178 700H221Z" glyph-name="Kcommaaccent" horiz-adv-x="565" unicode="&#310;" /><glyph d="M159 -82Q159 -65 171.5 -52.5Q184 -40 201 -40Q218 -40 230.5 -52Q243 -64 243 -81Q243 -100 230 -115L170 -192L136 -186L179 -120Q171 -115 165 -105Q159 -95 159 -82ZM146 560H188L145 314H163L470 560H528L195 294L426 0H374L161 275H139L91 0H49Z" glyph-name="Kcommaaccent.smcp" horiz-adv-x="482" unicode="&#62345;" /><glyph d="M58 0 178 700H221L108 40H414L407 0Z" glyph-name="L" horiz-adv-x="455" unicode="L" /><glyph d="M146 560H188L97 38H343L336 0H49Z" glyph-name="L.smcp" horiz-adv-x="391" unicode="&#62274;" /><glyph d="M343 942H400L307 789H268ZM58 0 178 700H221L108 40H414L407 0Z" glyph-name="Lacute" horiz-adv-x="455" unicode="&#313;" /><glyph d="M259 730H319L236 605H194ZM146 560H188L97 38H343L336 0H49Z" glyph-name="Lacute.smcp" horiz-adv-x="391" unicode="&#62352;" /><glyph d="M383 662Q383 682 397.5 697Q412 712 433 712Q453 712 467.5 698.5Q482 685 482 664Q482 641 465 620L396 533L355 540L407 618Q396 624 389.5 636Q383 648 383 662ZM58 0 178 700H221L108 40H414L407 0Z" glyph-name="Lcaron" horiz-adv-x="457" unicode="&#317;" /><glyph d="M318 528Q318 545 330.5 557.5Q343 570 360 570Q377 570 389.5 558Q402 546 402 529Q402 510 389 495L329 418L295 424L338 490Q330 495 324 505Q318 515 318 528ZM146 560H188L97 38H343L336 0H49Z" glyph-name="Lcaron.smcp" horiz-adv-x="393" unicode="&#62496;" /><glyph d="M150 -127Q150 -107 164.5 -92Q179 -77 200 -77Q220 -77 234.5 -90.5Q249 -104 249 -125Q249 -148 232 -169L163 -256L122 -249L174 -171Q163 -165 156.5 -153Q150 -141 150 -127ZM58 0 178 700H221L108 40H414L407 0Z" glyph-name="Lcommaaccent" horiz-adv-x="455" unicode="&#315;" /><glyph d="M130 -82Q130 -65 142.5 -52.5Q155 -40 172 -40Q189 -40 201.5 -52Q214 -64 214 -81Q214 -100 201 -115L141 -192L107 -186L150 -120Q142 -115 136 -105Q130 -95 130 -82ZM146 560H188L97 38H343L336 0H49Z" glyph-name="Lcommaaccent.smcp" horiz-adv-x="391" unicode="&#62488;" /><glyph d="M302 354Q301 377 317.5 393.5Q334 410 357 410Q380 410 396.5 393.5Q413 377 414 354Q413 331 396.5 314.5Q380 298 357 298Q334 298 317.5 314.5Q301 331 302 354ZM58 0 178 700H221L108 40H414L407 0Z" glyph-name="Ldot" horiz-adv-x="456" unicode="&#319;" /><glyph d="M273 284Q273 301 285.5 313.5Q298 326 316 326Q334 326 346.5 313.5Q359 301 359 284Q359 267 346.5 254.5Q334 242 316 242Q298 242 285.5 254.5Q273 267 273 284ZM146 560H188L97 38H343L336 0H49Z" glyph-name="Ldot.smcp" horiz-adv-x="393" unicode="&#62501;" /><glyph d="M23 294 114 325 178 700H221L159 340L385 417L376 373L152 297L108 40H414L407 0H58L106 282L14 251Z" glyph-name="Lslash" horiz-adv-x="454" unicode="&#321;" /><glyph d="M34 240 100 262 152 560H194L145 277L325 339L317 298L138 238L103 38H349L342 0H55L93 223L26 200Z" glyph-name="Lslash.smcp" horiz-adv-x="398" unicode="&#62502;" /><glyph d="M734 700H796L676 0H633L742 637L418 151H365L210 635L101 0H58L178 700H233L396 188Z" glyph-name="M" horiz-adv-x="807" unicode="M" /><glyph d="M146 560H200L322 155L587 560H648L551 0H509L596 505L335 113H294L177 504L90 0H49Z" glyph-name="M.smcp" horiz-adv-x="674" unicode="&#62275;" /><glyph d="M101 0H58L178 700H240L479 63L588 700H631L511 0H458L213 653Z" glyph-name="N" horiz-adv-x="642" unicode="N" /><glyph d="M146 560H202L390 59L477 560H518L421 0H368L178 510L90 0H49Z" glyph-name="N.smcp" horiz-adv-x="544" unicode="&#62276;" /><glyph d="M454 942H511L418 789H379ZM101 0H58L178 700H240L479 63L588 700H631L511 0H458L213 653Z" glyph-name="Nacute" horiz-adv-x="642" unicode="&#323;" /><glyph d="M376 730H436L353 605H311ZM146 560H202L390 59L477 560H518L421 0H368L178 510L90 0H49Z" glyph-name="Nacute.smcp" horiz-adv-x="544" unicode="&#62353;" /><glyph d="M443 789H389L343 942H384L419 823L517 942H562ZM101 0H58L178 700H240L479 63L588 700H631L511 0H458L213 653Z" glyph-name="Ncaron" horiz-adv-x="642" unicode="&#327;" /><glyph d="M367 605H316L266 730H308L346 640L417 730H462ZM146 560H202L390 59L477 560H518L421 0H368L178 510L90 0H49Z" glyph-name="Ncaron.smcp" horiz-adv-x="544" unicode="&#62354;" /><glyph d="M212 -127Q212 -107 226.5 -92Q241 -77 262 -77Q282 -77 296.5 -90.5Q311 -104 311 -125Q311 -148 294 -169L225 -256L184 -249L236 -171Q225 -165 218.5 -153Q212 -141 212 -127ZM101 0H58L178 700H240L479 63L588 700H631L511 0H458L213 653Z" glyph-name="Ncommaaccent" horiz-adv-x="642" unicode="&#325;" /><glyph d="M174 -82Q174 -65 186.5 -52.5Q199 -40 216 -40Q233 -40 245.5 -52Q258 -64 258 -81Q258 -100 245 -115L185 -192L151 -186L194 -120Q186 -115 180 -105Q174 -95 174 -82ZM146 560H202L390 59L477 560H518L421 0H368L178 510L90 0H49Z" glyph-name="Ncommaaccent.smcp" horiz-adv-x="544" unicode="&#62355;" /><glyph d="M371 889Q388 889 403 881Q418 873 431 864Q444 855 455 847Q466 839 476 839Q495 839 502.5 852.5Q510 866 512 881L513 889L548 879Q548 870 544.5 856.5Q541 843 533 830Q525 817 510.5 808Q496 799 474 799Q458 799 443.5 807Q429 815 416.5 824Q404 833 392 841Q380 849 369 849Q350 849 342.5 835.5Q335 822 333 807L332 799L297 809Q297 818 300.5 831.5Q304 845 312 858Q320 871 334 880Q348 889 371 889ZM101 0H58L178 700H240L479 63L588 700H631L511 0H458L213 653Z" glyph-name="Ntilde" horiz-adv-x="642" unicode="&#209;" /><glyph d="M391 634Q379 634 366.5 639.5Q354 645 342.5 652Q331 659 321 664.5Q311 670 303 670Q282 670 278 641L277 635H239L241 645Q242 653 245.5 664Q249 675 255.5 685Q262 695 274 702Q286 709 305 709Q317 709 329.5 703.5Q342 698 353.5 691Q365 684 375 678.5Q385 673 393 673Q414 673 418 702L419 708H457L455 698Q453 690 450 679Q447 668 440.5 658Q434 648 422 641Q410 634 391 634ZM146 560H202L390 59L477 560H518L421 0H368L178 510L90 0H49Z" glyph-name="Ntilde.smcp" horiz-adv-x="544" unicode="&#62356;" /><glyph d="M391 29Q453 29 512 56.5Q571 84 616.5 132Q662 180 690 245.5Q718 311 718 388Q718 448 698.5 499.5Q679 551 643 589.5Q607 628 556 649.5Q505 671 442 671Q380 671 321 643.5Q262 616 216 568Q170 520 142.5 454.5Q115 389 115 312Q115 252 134.5 200.5Q154 149 190 110.5Q226 72 277 50.5Q328 29 391 29ZM448 712Q515 712 573 688Q631 664 673 621Q715 578 739 518.5Q763 459 763 388Q763 299 731 225.5Q699 152 646 99Q593 46 525 17Q457 -12 385 -12Q317 -12 259.5 12Q202 36 160 79Q118 122 94 181.5Q70 241 70 312Q70 401 102 474.5Q134 548 187 601Q240 654 308 683Q376 712 448 712Z" glyph-name="O" horiz-adv-x="786" unicode="O" /><glyph d="M315 -10Q260 -10 213 9.5Q166 29 132 64Q98 99 78.5 147.5Q59 196 59 253Q59 323 84.5 381.5Q110 440 152 482Q194 524 248 547Q302 570 360 570Q415 570 462 550.5Q509 531 543.5 496Q578 461 597.5 412.5Q617 364 617 307Q617 237 591.5 178.5Q566 120 524 78Q482 36 427.5 13Q373 -10 315 -10ZM319 29Q369 29 415 50Q461 71 496.5 108.5Q532 146 553 197Q574 248 574 308Q574 355 559 395.5Q544 436 515.5 466Q487 496 447 513.5Q407 531 357 531Q307 531 261 510Q215 489 179.5 451.5Q144 414 123 363Q102 312 102 252Q102 205 117 164.5Q132 124 160 94Q188 64 228.5 46.5Q269 29 319 29Z" glyph-name="O.smcp" horiz-adv-x="653" unicode="&#62277;" /><glyph d="M492 660Q413 660 344.5 637Q276 614 225 568.5Q174 523 145 455Q116 387 116 298Q116 238 135 190Q154 142 189.5 109Q225 76 274.5 58Q324 40 384 40H500L607 660ZM1045 660H650L601 377H855L848 337H594L543 40H938L931 0H390Q311 0 251 22Q191 44 151 83Q111 122 91 176Q71 230 71 293Q71 387 101 462.5Q131 538 186.5 591Q242 644 320 672Q398 700 494 700H1052Z" glyph-name="OE" horiz-adv-x="1003" unicode="&#338;" /><glyph d="M402 38 486 522H398Q335 522 281 503.5Q227 485 187 449Q147 413 124 360Q101 307 101 237Q101 190 116.5 153Q132 116 159.5 90.5Q187 65 226 51.5Q265 38 313 38ZM312 0Q249 0 201.5 17.5Q154 35 122 66.5Q90 98 74 141Q58 184 58 235Q58 309 82.5 369Q107 429 151 471.5Q195 514 257.5 537Q320 560 397 560H851L845 522H528L490 304H694L687 266H483L444 38H761L754 0Z" glyph-name="OE.smcp" horiz-adv-x="828" unicode="&#62295;" /><glyph d="M513 942H570L477 789H438ZM391 29Q453 29 512 56.5Q571 84 616.5 132Q662 180 690 245.5Q718 311 718 388Q718 448 698.5 499.5Q679 551 643 589.5Q607 628 556 649.5Q505 671 442 671Q380 671 321 643.5Q262 616 216 568Q170 520 142.5 454.5Q115 389 115 312Q115 252 134.5 200.5Q154 149 190 110.5Q226 72 277 50.5Q328 29 391 29ZM448 712Q515 712 573 688Q631 664 673 621Q715 578 739 518.5Q763 459 763 388Q763 299 731 225.5Q699 152 646 99Q593 46 525 17Q457 -12 385 -12Q317 -12 259.5 12Q202 36 160 79Q118 122 94 181.5Q70 241 70 312Q70 401 102 474.5Q134 548 187 601Q240 654 308 683Q376 712 448 712Z" glyph-name="Oacute" horiz-adv-x="786" unicode="&#211;" /><glyph d="M436 730H496L413 605H371ZM315 -10Q260 -10 213 9.5Q166 29 132 64Q98 99 78.5 147.5Q59 196 59 253Q59 323 84.5 381.5Q110 440 152 482Q194 524 248 547Q302 570 360 570Q415 570 462 550.5Q509 531 543.5 496Q578 461 597.5 412.5Q617 364 617 307Q617 237 591.5 178.5Q566 120 524 78Q482 36 427.5 13Q373 -10 315 -10ZM319 29Q369 29 415 50Q461 71 496.5 108.5Q532 146 553 197Q574 248 574 308Q574 355 559 395.5Q544 436 515.5 466Q487 496 447 513.5Q407 531 357 531Q307 531 261 510Q215 489 179.5 451.5Q144 414 123 363Q102 312 102 252Q102 205 117 164.5Q132 124 160 94Q188 64 228.5 46.5Q269 29 319 29Z" glyph-name="Oacute.smcp" horiz-adv-x="653" unicode="&#62357;" /><glyph d="M415 876Q415 850 430 835Q445 820 477 820Q502 820 518 836.5Q534 853 539 883L544 911H581L576 879Q570 839 544 811.5Q518 784 471 784Q426 784 401.5 808Q377 832 377 871Q377 877 377.5 884.5Q378 892 382 911H419Q416 894 415.5 887Q415 880 415 876ZM391 29Q453 29 512 56.5Q571 84 616.5 132Q662 180 690 245.5Q718 311 718 388Q718 448 698.5 499.5Q679 551 643 589.5Q607 628 556 649.5Q505 671 442 671Q380 671 321 643.5Q262 616 216 568Q170 520 142.5 454.5Q115 389 115 312Q115 252 134.5 200.5Q154 149 190 110.5Q226 72 277 50.5Q328 29 391 29ZM448 712Q515 712 573 688Q631 664 673 621Q715 578 739 518.5Q763 459 763 388Q763 299 731 225.5Q699 152 646 99Q593 46 525 17Q457 -12 385 -12Q317 -12 259.5 12Q202 36 160 79Q118 122 94 181.5Q70 241 70 312Q70 401 102 474.5Q134 548 187 601Q240 654 308 683Q376 712 448 712Z" glyph-name="Obreve" horiz-adv-x="786" unicode="&#334;" /><glyph d="M401 659Q449 659 460 718L462 730H502L498 706Q491 664 462.5 642.5Q434 621 399 621Q381 621 364.5 627Q348 633 336 644.5Q324 656 318.5 672.5Q313 689 317 710L321 730H361L358 715Q351 688 365.5 673.5Q380 659 401 659ZM315 -10Q260 -10 213 9.5Q166 29 132 64Q98 99 78.5 147.5Q59 196 59 253Q59 323 84.5 381.5Q110 440 152 482Q194 524 248 547Q302 570 360 570Q415 570 462 550.5Q509 531 543.5 496Q578 461 597.5 412.5Q617 364 617 307Q617 237 591.5 178.5Q566 120 524 78Q482 36 427.5 13Q373 -10 315 -10ZM319 29Q369 29 415 50Q461 71 496.5 108.5Q532 146 553 197Q574 248 574 308Q574 355 559 395.5Q544 436 515.5 466Q487 496 447 513.5Q407 531 357 531Q307 531 261 510Q215 489 179.5 451.5Q144 414 123 363Q102 312 102 252Q102 205 117 164.5Q132 124 160 94Q188 64 228.5 46.5Q269 29 319 29Z" glyph-name="Obreve.smcp" horiz-adv-x="653" unicode="&#62534;" /><glyph d="M576 789H535L489 908L402 789H357L466 942H520ZM391 29Q453 29 512 56.5Q571 84 616.5 132Q662 180 690 245.5Q718 311 718 388Q718 448 698.5 499.5Q679 551 643 589.5Q607 628 556 649.5Q505 671 442 671Q380 671 321 643.5Q262 616 216 568Q170 520 142.5 454.5Q115 389 115 312Q115 252 134.5 200.5Q154 149 190 110.5Q226 72 277 50.5Q328 29 391 29ZM448 712Q515 712 573 688Q631 664 673 621Q715 578 739 518.5Q763 459 763 388Q763 299 731 225.5Q699 152 646 99Q593 46 525 17Q457 -12 385 -12Q317 -12 259.5 12Q202 36 160 79Q118 122 94 181.5Q70 241 70 312Q70 401 102 474.5Q134 548 187 601Q240 654 308 683Q376 712 448 712Z" glyph-name="Ocircumflex" horiz-adv-x="786" unicode="&#212;" /><glyph d="M487 605H447L408 695L338 605H291L387 730H438ZM315 -10Q260 -10 213 9.5Q166 29 132 64Q98 99 78.5 147.5Q59 196 59 253Q59 323 84.5 381.5Q110 440 152 482Q194 524 248 547Q302 570 360 570Q415 570 462 550.5Q509 531 543.5 496Q578 461 597.5 412.5Q617 364 617 307Q617 237 591.5 178.5Q566 120 524 78Q482 36 427.5 13Q373 -10 315 -10ZM319 29Q369 29 415 50Q461 71 496.5 108.5Q532 146 553 197Q574 248 574 308Q574 355 559 395.5Q544 436 515.5 466Q487 496 447 513.5Q407 531 357 531Q307 531 261 510Q215 489 179.5 451.5Q144 414 123 363Q102 312 102 252Q102 205 117 164.5Q132 124 160 94Q188 64 228.5 46.5Q269 29 319 29Z" glyph-name="Ocircumflex.smcp" horiz-adv-x="653" unicode="&#62535;" /><glyph d="M550 873Q567 873 580 860Q593 847 593 830Q593 813 580 800Q567 787 550 787Q533 787 520 800Q507 813 507 830Q507 847 520 860Q533 873 550 873ZM399 873Q416 873 429 860Q442 847 442 830Q442 813 429 800Q416 787 399 787Q382 787 369 800Q356 813 356 830Q356 847 369 860Q382 873 399 873ZM391 29Q453 29 512 56.5Q571 84 616.5 132Q662 180 690 245.5Q718 311 718 388Q718 448 698.5 499.5Q679 551 643 589.5Q607 628 556 649.5Q505 671 442 671Q380 671 321 643.5Q262 616 216 568Q170 520 142.5 454.5Q115 389 115 312Q115 252 134.5 200.5Q154 149 190 110.5Q226 72 277 50.5Q328 29 391 29ZM448 712Q515 712 573 688Q631 664 673 621Q715 578 739 518.5Q763 459 763 388Q763 299 731 225.5Q699 152 646 99Q593 46 525 17Q457 -12 385 -12Q317 -12 259.5 12Q202 36 160 79Q118 122 94 181.5Q70 241 70 312Q70 401 102 474.5Q134 548 187 601Q240 654 308 683Q376 712 448 712Z" glyph-name="Odieresis" horiz-adv-x="786" unicode="&#214;" /><glyph d="M407 670Q407 687 419.5 699.5Q432 712 450 712Q468 712 480.5 699.5Q493 687 493 670Q493 653 480.5 640.5Q468 628 450 628Q432 628 419.5 640.5Q407 653 407 670ZM289 670Q289 687 301.5 699.5Q314 712 332 712Q350 712 362.5 699.5Q375 687 375 670Q375 653 362.5 640.5Q350 628 332 628Q314 628 301.5 640.5Q289 653 289 670ZM315 -10Q260 -10 213 9.5Q166 29 132 64Q98 99 78.5 147.5Q59 196 59 253Q59 323 84.5 381.5Q110 440 152 482Q194 524 248 547Q302 570 360 570Q415 570 462 550.5Q509 531 543.5 496Q578 461 597.5 412.5Q617 364 617 307Q617 237 591.5 178.5Q566 120 524 78Q482 36 427.5 13Q373 -10 315 -10ZM319 29Q369 29 415 50Q461 71 496.5 108.5Q532 146 553 197Q574 248 574 308Q574 355 559 395.5Q544 436 515.5 466Q487 496 447 513.5Q407 531 357 531Q307 531 261 510Q215 489 179.5 451.5Q144 414 123 363Q102 312 102 252Q102 205 117 164.5Q132 124 160 94Q188 64 228.5 46.5Q269 29 319 29Z" glyph-name="Odieresis.smcp" horiz-adv-x="653" unicode="&#62536;" /><glyph d="M457 789H418L341 942H397ZM391 29Q453 29 512 56.5Q571 84 616.5 132Q662 180 690 245.5Q718 311 718 388Q718 448 698.5 499.5Q679 551 643 589.5Q607 628 556 649.5Q505 671 442 671Q380 671 321 643.5Q262 616 216 568Q170 520 142.5 454.5Q115 389 115 312Q115 252 134.5 200.5Q154 149 190 110.5Q226 72 277 50.5Q328 29 391 29ZM448 712Q515 712 573 688Q631 664 673 621Q715 578 739 518.5Q763 459 763 388Q763 299 731 225.5Q699 152 646 99Q593 46 525 17Q457 -12 385 -12Q317 -12 259.5 12Q202 36 160 79Q118 122 94 181.5Q70 241 70 312Q70 401 102 474.5Q134 548 187 601Q240 654 308 683Q376 712 448 712Z" glyph-name="Ograve" horiz-adv-x="786" unicode="&#210;" /><glyph d="M388 605H348L281 730H336ZM315 -10Q260 -10 213 9.5Q166 29 132 64Q98 99 78.5 147.5Q59 196 59 253Q59 323 84.5 381.5Q110 440 152 482Q194 524 248 547Q302 570 360 570Q415 570 462 550.5Q509 531 543.5 496Q578 461 597.5 412.5Q617 364 617 307Q617 237 591.5 178.5Q566 120 524 78Q482 36 427.5 13Q373 -10 315 -10ZM319 29Q369 29 415 50Q461 71 496.5 108.5Q532 146 553 197Q574 248 574 308Q574 355 559 395.5Q544 436 515.5 466Q487 496 447 513.5Q407 531 357 531Q307 531 261 510Q215 489 179.5 451.5Q144 414 123 363Q102 312 102 252Q102 205 117 164.5Q132 124 160 94Q188 64 228.5 46.5Q269 29 319 29Z" glyph-name="Ograve.smcp" horiz-adv-x="653" unicode="&#62358;" /><glyph d="M594 942H651L558 789H519ZM448 942H505L412 789H373ZM391 29Q453 29 512 56.5Q571 84 616.5 132Q662 180 690 245.5Q718 311 718 388Q718 448 698.5 499.5Q679 551 643 589.5Q607 628 556 649.5Q505 671 442 671Q380 671 321 643.5Q262 616 216 568Q170 520 142.5 454.5Q115 389 115 312Q115 252 134.5 200.5Q154 149 190 110.5Q226 72 277 50.5Q328 29 391 29ZM448 712Q515 712 573 688Q631 664 673 621Q715 578 739 518.5Q763 459 763 388Q763 299 731 225.5Q699 152 646 99Q593 46 525 17Q457 -12 385 -12Q317 -12 259.5 12Q202 36 160 79Q118 122 94 181.5Q70 241 70 312Q70 401 102 474.5Q134 548 187 601Q240 654 308 683Q376 712 448 712Z" glyph-name="Ohungarumlaut" horiz-adv-x="786" unicode="&#336;" /><glyph d="M495 730H547L464 605H427ZM391 730H443L360 605H323ZM315 -10Q260 -10 213 9.5Q166 29 132 64Q98 99 78.5 147.5Q59 196 59 253Q59 323 84.5 381.5Q110 440 152 482Q194 524 248 547Q302 570 360 570Q415 570 462 550.5Q509 531 543.5 496Q578 461 597.5 412.5Q617 364 617 307Q617 237 591.5 178.5Q566 120 524 78Q482 36 427.5 13Q373 -10 315 -10ZM319 29Q369 29 415 50Q461 71 496.5 108.5Q532 146 553 197Q574 248 574 308Q574 355 559 395.5Q544 436 515.5 466Q487 496 447 513.5Q407 531 357 531Q307 531 261 510Q215 489 179.5 451.5Q144 414 123 363Q102 312 102 252Q102 205 117 164.5Q132 124 160 94Q188 64 228.5 46.5Q269 29 319 29Z" glyph-name="Ohungarumlaut.smcp" horiz-adv-x="653" unicode="&#62485;" /><glyph d="M373 849H618L612 812H367ZM391 29Q453 29 512 56.5Q571 84 616.5 132Q662 180 690 245.5Q718 311 718 388Q718 448 698.5 499.5Q679 551 643 589.5Q607 628 556 649.5Q505 671 442 671Q380 671 321 643.5Q262 616 216 568Q170 520 142.5 454.5Q115 389 115 312Q115 252 134.5 200.5Q154 149 190 110.5Q226 72 277 50.5Q328 29 391 29ZM448 712Q515 712 573 688Q631 664 673 621Q715 578 739 518.5Q763 459 763 388Q763 299 731 225.5Q699 152 646 99Q593 46 525 17Q457 -12 385 -12Q317 -12 259.5 12Q202 36 160 79Q118 122 94 181.5Q70 241 70 312Q70 401 102 474.5Q134 548 187 601Q240 654 308 683Q376 712 448 712Z" glyph-name="Omacron" horiz-adv-x="786" unicode="&#332;" /><glyph d="M304 690H508L501 651H297ZM315 -10Q260 -10 213 9.5Q166 29 132 64Q98 99 78.5 147.5Q59 196 59 253Q59 323 84.5 381.5Q110 440 152 482Q194 524 248 547Q302 570 360 570Q415 570 462 550.5Q509 531 543.5 496Q578 461 597.5 412.5Q617 364 617 307Q617 237 591.5 178.5Q566 120 524 78Q482 36 427.5 13Q373 -10 315 -10ZM319 29Q369 29 415 50Q461 71 496.5 108.5Q532 146 553 197Q574 248 574 308Q574 355 559 395.5Q544 436 515.5 466Q487 496 447 513.5Q407 531 357 531Q307 531 261 510Q215 489 179.5 451.5Q144 414 123 363Q102 312 102 252Q102 205 117 164.5Q132 124 160 94Q188 64 228.5 46.5Q269 29 319 29Z" glyph-name="Omacron.smcp" horiz-adv-x="653" unicode="&#62537;" /><glyph d="M378 712Q428 712 478 695.5Q528 679 567.5 647Q607 615 631.5 568.5Q656 522 656 463Q656 392 633 342.5Q610 293 576 260Q542 227 503.5 208.5Q465 190 434 183L410 40H551L544 0H360L395 206Q442 215 482 236.5Q522 258 551.5 291Q581 324 598 367Q615 410 615 463Q615 515 594 555Q573 595 539.5 622Q506 649 464 663Q422 677 380 677Q336 677 291 661.5Q246 646 209 614.5Q172 583 149 534.5Q126 486 126 419Q126 376 140 342Q154 308 176 282.5Q198 257 224 240Q250 223 274 214L236 0H55L61 40H201L228 196Q205 207 179.5 226Q154 245 133 273Q112 301 98.5 337.5Q85 374 85 421Q85 489 109 543Q133 597 173.5 634.5Q214 672 267 692Q320 712 378 712Z" glyph-name="Omega" horiz-adv-x="663" unicode="&#937;" /><glyph d="M391 29Q453 29 512 56.5Q571 84 616.5 132Q662 180 690 245.5Q718 311 718 388Q718 439 704.5 483Q691 527 665 563L194 105Q230 69 279.5 49Q329 29 391 29ZM115 312Q115 209 169 135L639 593Q604 630 554 650.5Q504 671 442 671Q380 671 321 643.5Q262 616 216 568Q170 520 142.5 454.5Q115 389 115 312ZM448 712Q514 712 571 689Q628 666 670 624L761 712H818L697 594Q729 552 746 500Q763 448 763 388Q763 299 731 225.5Q699 152 646 99Q593 46 525 17Q457 -12 385 -12Q319 -12 262 10.5Q205 33 163 75L74 -12H18L137 104Q105 146 87.5 198Q70 250 70 312Q70 401 102 474.5Q134 548 187 601Q240 654 308 683Q376 712 448 712Z" glyph-name="Oslash" horiz-adv-x="786" unicode="&#216;" /><glyph d="M102 252Q102 214 112 180Q122 146 141 118L507 474Q479 501 441.5 516Q404 531 357 531Q307 531 261 510Q215 489 179.5 451.5Q144 414 123 363Q102 312 102 252ZM319 29Q369 29 415 50Q461 71 496.5 108.5Q532 146 553 197Q574 248 574 308Q574 388 531 446L165 88Q193 60 232 44.5Q271 29 319 29ZM315 -10Q261 -10 215.5 8.5Q170 27 136 60L64 -10H9L111 89Q86 122 72.5 163.5Q59 205 59 253Q59 323 84.5 381.5Q110 440 152 482Q194 524 248 547Q302 570 360 570Q413 570 457.5 552Q502 534 536 502L606 570H658L561 475Q587 442 602 399.5Q617 357 617 307Q617 237 591.5 178.5Q566 120 524 78Q482 36 427.5 13Q373 -10 315 -10Z" glyph-name="Oslash.smcp" horiz-adv-x="653" unicode="&#62500;" /><glyph d="M418 889Q435 889 450 881Q465 873 478 864Q491 855 502 847Q513 839 523 839Q542 839 549.5 852.5Q557 866 559 881L560 889L595 879Q595 870 591.5 856.5Q588 843 580 830Q572 817 557.5 808Q543 799 521 799Q505 799 490.5 807Q476 815 463.5 824Q451 833 439 841Q427 849 416 849Q397 849 389.5 835.5Q382 822 380 807L379 799L344 809Q344 818 347.5 831.5Q351 845 359 858Q367 871 381 880Q395 889 418 889ZM391 29Q453 29 512 56.5Q571 84 616.5 132Q662 180 690 245.5Q718 311 718 388Q718 448 698.5 499.5Q679 551 643 589.5Q607 628 556 649.5Q505 671 442 671Q380 671 321 643.5Q262 616 216 568Q170 520 142.5 454.5Q115 389 115 312Q115 252 134.5 200.5Q154 149 190 110.5Q226 72 277 50.5Q328 29 391 29ZM448 712Q515 712 573 688Q631 664 673 621Q715 578 739 518.5Q763 459 763 388Q763 299 731 225.5Q699 152 646 99Q593 46 525 17Q457 -12 385 -12Q317 -12 259.5 12Q202 36 160 79Q118 122 94 181.5Q70 241 70 312Q70 401 102 474.5Q134 548 187 601Q240 654 308 683Q376 712 448 712Z" glyph-name="Otilde" horiz-adv-x="786" unicode="&#213;" /><glyph d="M446 634Q434 634 421.5 639.5Q409 645 397.5 652Q386 659 376 664.5Q366 670 358 670Q337 670 333 641L332 635H294L296 645Q297 653 300.5 664Q304 675 310.5 685Q317 695 329 702Q341 709 360 709Q372 709 384.5 703.5Q397 698 408.5 691Q420 684 430 678.5Q440 673 448 673Q469 673 473 702L474 708H512L510 698Q508 690 505 679Q502 668 495.5 658Q489 648 477 641Q465 634 446 634ZM315 -10Q260 -10 213 9.5Q166 29 132 64Q98 99 78.5 147.5Q59 196 59 253Q59 323 84.5 381.5Q110 440 152 482Q194 524 248 547Q302 570 360 570Q415 570 462 550.5Q509 531 543.5 496Q578 461 597.5 412.5Q617 364 617 307Q617 237 591.5 178.5Q566 120 524 78Q482 36 427.5 13Q373 -10 315 -10ZM319 29Q369 29 415 50Q461 71 496.5 108.5Q532 146 553 197Q574 248 574 308Q574 355 559 395.5Q544 436 515.5 466Q487 496 447 513.5Q407 531 357 531Q307 531 261 510Q215 489 179.5 451.5Q144 414 123 363Q102 312 102 252Q102 205 117 164.5Q132 124 160 94Q188 64 228.5 46.5Q269 29 319 29Z" glyph-name="Otilde.smcp" horiz-adv-x="653" unicode="&#62359;" /><glyph d="M214 660 155 315H276Q319 315 359.5 325.5Q400 336 431.5 358.5Q463 381 482.5 417.5Q502 454 502 506Q502 578 452.5 619Q403 660 313 660ZM101 0H58L178 700H320Q375 700 417.5 684.5Q460 669 488.5 642.5Q517 616 531.5 581Q546 546 546 508Q546 453 526 409.5Q506 366 469.5 336Q433 306 382.5 290Q332 274 271 274H148Z" glyph-name="P" horiz-adv-x="532" unicode="P" /><glyph d="M232 257Q265 257 296.5 265Q328 273 352 290Q376 307 390.5 335Q405 363 405 403Q405 458 367 490Q329 522 260 522H181L135 257ZM146 560H266Q309 560 343 547.5Q377 535 400 514Q423 493 435.5 465Q448 437 448 406Q448 319 388.5 268.5Q329 218 228 218H128L91 0H49Z" glyph-name="P.smcp" horiz-adv-x="455" unicode="&#62278;" /><glyph d="M391 29Q454 29 511 56L415 203L451 224L547 75Q584 98 615 130.5Q646 163 669 203Q692 243 705 289.5Q718 336 718 388Q718 448 698.5 499.5Q679 551 643 589.5Q607 628 556 649.5Q505 671 442 671Q380 671 321 643.5Q262 616 216 568Q170 520 142.5 454.5Q115 389 115 312Q115 252 134.5 200.5Q154 149 190 110.5Q226 72 277 50.5Q328 29 391 29ZM448 712Q515 712 573 688Q631 664 673 621Q715 578 739 518.5Q763 459 763 388Q763 329 748.5 276.5Q734 224 708 180Q682 136 647 100.5Q612 65 570 40L606 -14Q612 -23 620 -34Q628 -45 638.5 -55Q649 -65 663.5 -71.5Q678 -78 696 -78Q707 -78 715.5 -78Q724 -78 730 -77Q737 -76 742 -75V-113Q737 -114 730 -115Q724 -116 715.5 -116.5Q707 -117 695 -117Q656 -117 630 -102Q604 -87 579 -47L534 21Q499 5 461 -3.5Q423 -12 385 -12Q317 -12 259.5 12Q202 36 160 79Q118 122 94 181.5Q70 241 70 312Q70 401 102 474.5Q134 548 187 601Q240 654 308 683Q376 712 448 712Z" glyph-name="Q" horiz-adv-x="786" unicode="Q" /><glyph d="M319 29Q367 29 409 47L338 156L372 177L444 66Q501 101 537.5 164.5Q574 228 574 308Q574 355 559 395.5Q544 436 515.5 466Q487 496 447 513.5Q407 531 357 531Q307 531 261 510Q215 489 179.5 451.5Q144 414 123 363Q102 312 102 252Q102 205 117 164.5Q132 124 160 94Q188 64 228.5 46.5Q269 29 319 29ZM315 -10Q260 -10 213 9.5Q166 29 132 64Q98 99 78.5 147.5Q59 196 59 253Q59 323 84.5 381.5Q110 440 152 482Q194 524 248 547Q302 570 360 570Q415 570 462 550.5Q509 531 543.5 496Q578 461 597.5 412.5Q617 364 617 307Q617 261 605.5 220Q594 179 574 144Q554 109 526.5 81Q499 53 466 33L493 -8Q504 -24 519.5 -40.5Q535 -57 563 -57Q572 -57 579.5 -57Q587 -57 592 -56Q598 -55 602 -54V-91Q598 -92 592 -93Q587 -94 579 -94Q571 -94 561 -94Q529 -94 507.5 -82Q486 -70 466 -38L431 15Q373 -10 315 -10Z" glyph-name="Q.smcp" horiz-adv-x="653" unicode="&#62279;" /><glyph d="M285 349Q320 349 359.5 357Q399 365 432 384Q465 403 487 435.5Q509 468 509 516Q509 554 495.5 581.5Q482 609 458 626.5Q434 644 401.5 652.5Q369 661 331 661H215L161 349ZM304 311H154L101 0H58L178 700H341Q397 700 437 684.5Q477 669 503 643.5Q529 618 541.5 585.5Q554 553 554 520Q554 492 545 460.5Q536 429 512.5 400.5Q489 372 448.5 350Q408 328 346 318L526 0H477Z" glyph-name="R" horiz-adv-x="568" unicode="R" /><glyph d="M239 285Q272 285 303 292Q334 299 358 314.5Q382 330 396.5 354.5Q411 379 411 413Q411 468 373.5 495Q336 522 276 522H181L140 285ZM146 560H283Q327 560 359.5 547.5Q392 535 413 515Q434 495 444.5 469.5Q455 444 455 417Q455 395 448 369.5Q441 344 422.5 321Q404 298 372.5 279.5Q341 261 292 253L434 0H387L249 248H134L91 0H49Z" glyph-name="R.smcp" horiz-adv-x="484" unicode="&#62280;" /><glyph d="M425 942H482L389 789H350ZM285 349Q320 349 359.5 357Q399 365 432 384Q465 403 487 435.5Q509 468 509 516Q509 554 495.5 581.5Q482 609 458 626.5Q434 644 401.5 652.5Q369 661 331 661H215L161 349ZM304 311H154L101 0H58L178 700H341Q397 700 437 684.5Q477 669 503 643.5Q529 618 541.5 585.5Q554 553 554 520Q554 492 545 460.5Q536 429 512.5 400.5Q489 372 448.5 350Q408 328 346 318L526 0H477Z" glyph-name="Racute" horiz-adv-x="568" unicode="&#340;" /><glyph d="M341 730H401L318 605H276ZM239 285Q272 285 303 292Q334 299 358 314.5Q382 330 396.5 354.5Q411 379 411 413Q411 468 373.5 495Q336 522 276 522H181L140 285ZM146 560H283Q327 560 359.5 547.5Q392 535 413 515Q434 495 444.5 469.5Q455 444 455 417Q455 395 448 369.5Q441 344 422.5 321Q404 298 372.5 279.5Q341 261 292 253L434 0H387L249 248H134L91 0H49Z" glyph-name="Racute.smcp" horiz-adv-x="484" unicode="&#62360;" /><glyph d="M379 789H325L279 942H320L355 823L453 942H498ZM285 349Q320 349 359.5 357Q399 365 432 384Q465 403 487 435.5Q509 468 509 516Q509 554 495.5 581.5Q482 609 458 626.5Q434 644 401.5 652.5Q369 661 331 661H215L161 349ZM304 311H154L101 0H58L178 700H341Q397 700 437 684.5Q477 669 503 643.5Q529 618 541.5 585.5Q554 553 554 520Q554 492 545 460.5Q536 429 512.5 400.5Q489 372 448.5 350Q408 328 346 318L526 0H477Z" glyph-name="Rcaron" horiz-adv-x="568" unicode="&#344;" /><glyph d="M340 605H289L239 730H281L319 640L390 730H435ZM239 285Q272 285 303 292Q334 299 358 314.5Q382 330 396.5 354.5Q411 379 411 413Q411 468 373.5 495Q336 522 276 522H181L140 285ZM146 560H283Q327 560 359.5 547.5Q392 535 413 515Q434 495 444.5 469.5Q455 444 455 417Q455 395 448 369.5Q441 344 422.5 321Q404 298 372.5 279.5Q341 261 292 253L434 0H387L249 248H134L91 0H49Z" glyph-name="Rcaron.smcp" horiz-adv-x="484" unicode="&#62361;" /><glyph d="M183 -127Q183 -107 197.5 -92Q212 -77 233 -77Q253 -77 267.5 -90.5Q282 -104 282 -125Q282 -148 265 -169L196 -256L155 -249L207 -171Q196 -165 189.5 -153Q183 -141 183 -127ZM285 349Q320 349 359.5 357Q399 365 432 384Q465 403 487 435.5Q509 468 509 516Q509 554 495.5 581.5Q482 609 458 626.5Q434 644 401.5 652.5Q369 661 331 661H215L161 349ZM304 311H154L101 0H58L178 700H341Q397 700 437 684.5Q477 669 503 643.5Q529 618 541.5 585.5Q554 553 554 520Q554 492 545 460.5Q536 429 512.5 400.5Q489 372 448.5 350Q408 328 346 318L526 0H477Z" glyph-name="Rcommaaccent" horiz-adv-x="568" unicode="&#342;" /><glyph d="M162 -82Q162 -65 174.5 -52.5Q187 -40 204 -40Q221 -40 233.5 -52Q246 -64 246 -81Q246 -100 233 -115L173 -192L139 -186L182 -120Q174 -115 168 -105Q162 -95 162 -82ZM239 285Q272 285 303 292Q334 299 358 314.5Q382 330 396.5 354.5Q411 379 411 413Q411 468 373.5 495Q336 522 276 522H181L140 285ZM146 560H283Q327 560 359.5 547.5Q392 535 413 515Q434 495 444.5 469.5Q455 444 455 417Q455 395 448 369.5Q441 344 422.5 321Q404 298 372.5 279.5Q341 261 292 253L434 0H387L249 248H134L91 0H49Z" glyph-name="Rcommaaccent.smcp" horiz-adv-x="484" unicode="&#62464;" /><glyph d="M478 597Q466 612 447 626.5Q428 641 406 651.5Q384 662 359.5 668.5Q335 675 311 675Q280 675 252.5 666Q225 657 204 640.5Q183 624 171 600Q159 576 159 546Q159 501 186.5 470Q214 439 251 411L307 367Q373 317 406.5 271Q440 225 440 171Q440 137 427.5 104Q415 71 389 45.5Q363 20 324 4Q285 -12 233 -12Q167 -12 110 16.5Q53 45 15 90L45 120Q59 103 79 86.5Q99 70 123 56Q147 42 174.5 33.5Q202 25 232 25Q269 25 299.5 36Q330 47 352 67Q374 87 385.5 113.5Q397 140 397 172Q397 197 388 218Q379 239 363.5 259Q348 279 326 298Q304 317 277 337L221 381Q171 419 143.5 456.5Q116 494 116 542Q116 582 131 613.5Q146 645 172.5 667Q199 689 234 700.5Q269 712 310 712Q366 712 419 688Q472 664 507 625Z" glyph-name="S" horiz-adv-x="492" unicode="S" /><glyph d="M191 -10Q135 -10 88 14Q41 38 14 75L41 104Q52 90 67 76Q82 62 101 51Q120 40 142.5 33Q165 26 191 26Q250 26 283.5 58.5Q317 91 317 138Q317 174 294 203.5Q271 233 227 266L180 300Q139 330 117 361Q95 392 95 430Q95 464 108 490.5Q121 517 142.5 534.5Q164 552 192.5 561Q221 570 252 570Q298 570 341 549.5Q384 529 412 496L385 470Q363 496 327 515Q291 534 252 534Q202 534 169.5 508Q137 482 137 434Q137 402 156 378.5Q175 355 205 332L255 295Q310 253 334.5 217.5Q359 182 359 140Q359 111 348 84Q337 57 315.5 36Q294 15 262.5 2.5Q231 -10 191 -10Z" glyph-name="S.smcp" horiz-adv-x="418" unicode="&#62281;" /><glyph d="M391 942H448L355 789H316ZM478 597Q466 612 447 626.5Q428 641 406 651.5Q384 662 359.5 668.5Q335 675 311 675Q280 675 252.5 666Q225 657 204 640.5Q183 624 171 600Q159 576 159 546Q159 501 186.5 470Q214 439 251 411L307 367Q373 317 406.5 271Q440 225 440 171Q440 137 427.5 104Q415 71 389 45.5Q363 20 324 4Q285 -12 233 -12Q167 -12 110 16.5Q53 45 15 90L45 120Q59 103 79 86.5Q99 70 123 56Q147 42 174.5 33.5Q202 25 232 25Q269 25 299.5 36Q330 47 352 67Q374 87 385.5 113.5Q397 140 397 172Q397 197 388 218Q379 239 363.5 259Q348 279 326 298Q304 317 277 337L221 381Q171 419 143.5 456.5Q116 494 116 542Q116 582 131 613.5Q146 645 172.5 667Q199 689 234 700.5Q269 712 310 712Q366 712 419 688Q472 664 507 625Z" glyph-name="Sacute" horiz-adv-x="492" unicode="&#346;" /><glyph d="M313 730H373L290 605H248ZM191 -10Q135 -10 88 14Q41 38 14 75L41 104Q52 90 67 76Q82 62 101 51Q120 40 142.5 33Q165 26 191 26Q250 26 283.5 58.5Q317 91 317 138Q317 174 294 203.5Q271 233 227 266L180 300Q139 330 117 361Q95 392 95 430Q95 464 108 490.5Q121 517 142.5 534.5Q164 552 192.5 561Q221 570 252 570Q298 570 341 549.5Q384 529 412 496L385 470Q363 496 327 515Q291 534 252 534Q202 534 169.5 508Q137 482 137 434Q137 402 156 378.5Q175 355 205 332L255 295Q310 253 334.5 217.5Q359 182 359 140Q359 111 348 84Q337 57 315.5 36Q294 15 262.5 2.5Q231 -10 191 -10Z" glyph-name="Sacute.smcp" horiz-adv-x="418" unicode="&#62465;" /><glyph d="M355 789H301L255 942H296L331 823L429 942H474ZM478 597Q466 612 447 626.5Q428 641 406 651.5Q384 662 359.5 668.5Q335 675 311 675Q280 675 252.5 666Q225 657 204 640.5Q183 624 171 600Q159 576 159 546Q159 501 186.5 470Q214 439 251 411L307 367Q373 317 406.5 271Q440 225 440 171Q440 137 427.5 104Q415 71 389 45.5Q363 20 324 4Q285 -12 233 -12Q167 -12 110 16.5Q53 45 15 90L45 120Q59 103 79 86.5Q99 70 123 56Q147 42 174.5 33.5Q202 25 232 25Q269 25 299.5 36Q330 47 352 67Q374 87 385.5 113.5Q397 140 397 172Q397 197 388 218Q379 239 363.5 259Q348 279 326 298Q304 317 277 337L221 381Q171 419 143.5 456.5Q116 494 116 542Q116 582 131 613.5Q146 645 172.5 667Q199 689 234 700.5Q269 712 310 712Q366 712 419 688Q472 664 507 625Z" glyph-name="Scaron" horiz-adv-x="492" unicode="&#352;" /><glyph d="M304 605H253L203 730H245L283 640L354 730H399ZM191 -10Q135 -10 88 14Q41 38 14 75L41 104Q52 90 67 76Q82 62 101 51Q120 40 142.5 33Q165 26 191 26Q250 26 283.5 58.5Q317 91 317 138Q317 174 294 203.5Q271 233 227 266L180 300Q139 330 117 361Q95 392 95 430Q95 464 108 490.5Q121 517 142.5 534.5Q164 552 192.5 561Q221 570 252 570Q298 570 341 549.5Q384 529 412 496L385 470Q363 496 327 515Q291 534 252 534Q202 534 169.5 508Q137 482 137 434Q137 402 156 378.5Q175 355 205 332L255 295Q310 253 334.5 217.5Q359 182 359 140Q359 111 348 84Q337 57 315.5 36Q294 15 262.5 2.5Q231 -10 191 -10Z" glyph-name="Scaron.smcp" horiz-adv-x="418" unicode="&#62466;" /><glyph d="M195 -9Q141 -1 94.5 25.5Q48 52 16 90L46 120Q60 103 80 86.5Q100 70 124 56Q148 42 175.5 33.5Q203 25 233 25Q270 25 300.5 36Q331 47 353 67Q375 87 386.5 113.5Q398 140 398 172Q398 197 389 218Q380 239 364.5 259Q349 279 327 298Q305 317 278 337L222 381Q172 419 144.5 456.5Q117 494 117 542Q117 582 132 613.5Q147 645 173.5 667Q200 689 235 700.5Q270 712 311 712Q367 712 420 688Q473 664 508 625L479 597Q467 612 448 626.5Q429 641 407 651.5Q385 662 360.5 668.5Q336 675 312 675Q281 675 253.5 666Q226 657 205 640.5Q184 624 172 600Q160 576 160 546Q160 501 187.5 470Q215 439 252 411L308 367Q374 317 407.5 271Q441 225 441 171Q441 137 428.5 104.5Q416 72 390.5 46.5Q365 21 327 5Q289 -11 237 -12L164 -136H122Z" glyph-name="Scedilla" horiz-adv-x="494" unicode="&#350;" /><glyph d="M160 -8Q114 -2 75.5 20.5Q37 43 14 75L41 104Q52 90 67 76Q82 62 101 51Q120 40 142.5 33Q165 26 191 26Q250 26 283.5 58.5Q317 91 317 138Q317 174 294 203.5Q271 233 227 266L180 300Q139 330 117 361Q95 392 95 430Q95 464 108 490.5Q121 517 142.5 534.5Q164 552 192.5 561Q221 570 252 570Q298 570 341 549.5Q384 529 412 496L385 470Q363 496 327 515Q291 534 252 534Q202 534 169.5 508Q137 482 137 434Q137 402 156 378.5Q175 355 205 332L255 295Q310 253 334.5 217.5Q359 182 359 140Q359 112 349 86.5Q339 61 319.5 40.5Q300 20 272 7Q244 -6 207 -9L138 -127H96Z" glyph-name="Scedilla.smcp" horiz-adv-x="419" unicode="&#62467;" /><glyph d="M456 789H415L369 908L282 789H237L346 942H400ZM478 597Q466 612 447 626.5Q428 641 406 651.5Q384 662 359.5 668.5Q335 675 311 675Q280 675 252.5 666Q225 657 204 640.5Q183 624 171 600Q159 576 159 546Q159 501 186.5 470Q214 439 251 411L307 367Q373 317 406.5 271Q440 225 440 171Q440 137 427.5 104Q415 71 389 45.5Q363 20 324 4Q285 -12 233 -12Q167 -12 110 16.5Q53 45 15 90L45 120Q59 103 79 86.5Q99 70 123 56Q147 42 174.5 33.5Q202 25 232 25Q269 25 299.5 36Q330 47 352 67Q374 87 385.5 113.5Q397 140 397 172Q397 197 388 218Q379 239 363.5 259Q348 279 326 298Q304 317 277 337L221 381Q171 419 143.5 456.5Q116 494 116 542Q116 582 131 613.5Q146 645 172.5 667Q199 689 234 700.5Q269 712 310 712Q366 712 419 688Q472 664 507 625Z" glyph-name="Scircumflex" horiz-adv-x="492" unicode="&#348;" /><glyph d="M373 605H333L294 695L224 605H177L273 730H324ZM191 -10Q135 -10 88 14Q41 38 14 75L41 104Q52 90 67 76Q82 62 101 51Q120 40 142.5 33Q165 26 191 26Q250 26 283.5 58.5Q317 91 317 138Q317 174 294 203.5Q271 233 227 266L180 300Q139 330 117 361Q95 392 95 430Q95 464 108 490.5Q121 517 142.5 534.5Q164 552 192.5 561Q221 570 252 570Q298 570 341 549.5Q384 529 412 496L385 470Q363 496 327 515Q291 534 252 534Q202 534 169.5 508Q137 482 137 434Q137 402 156 378.5Q175 355 205 332L255 295Q310 253 334.5 217.5Q359 182 359 140Q359 111 348 84Q337 57 315.5 36Q294 15 262.5 2.5Q231 -10 191 -10Z" glyph-name="Scircumflex.smcp" horiz-adv-x="418" unicode="&#62468;" /><glyph d="M119 -127Q119 -107 133.5 -92Q148 -77 169 -77Q189 -77 203.5 -90.5Q218 -104 218 -125Q218 -148 201 -169L132 -256L91 -249L143 -171Q132 -165 125.5 -153Q119 -141 119 -127ZM478 597Q466 612 447 626.5Q428 641 406 651.5Q384 662 359.5 668.5Q335 675 311 675Q280 675 252.5 666Q225 657 204 640.5Q183 624 171 600Q159 576 159 546Q159 501 186.5 470Q214 439 251 411L307 367Q373 317 406.5 271Q440 225 440 171Q440 137 427.5 104Q415 71 389 45.5Q363 20 324 4Q285 -12 233 -12Q167 -12 110 16.5Q53 45 15 90L45 120Q59 103 79 86.5Q99 70 123 56Q147 42 174.5 33.5Q202 25 232 25Q269 25 299.5 36Q330 47 352 67Q374 87 385.5 113.5Q397 140 397 172Q397 197 388 218Q379 239 363.5 259Q348 279 326 298Q304 317 277 337L221 381Q171 419 143.5 456.5Q116 494 116 542Q116 582 131 613.5Q146 645 172.5 667Q199 689 234 700.5Q269 712 310 712Q366 712 419 688Q472 664 507 625Z" glyph-name="Scommaaccent" horiz-adv-x="492" unicode="&#536;" /><glyph d="M117 -82Q117 -65 129.5 -52.5Q142 -40 159 -40Q176 -40 188.5 -52Q201 -64 201 -81Q201 -100 188 -115L128 -192L94 -186L137 -120Q129 -115 123 -105Q117 -95 117 -82ZM191 -10Q135 -10 88 14Q41 38 14 75L41 104Q52 90 67 76Q82 62 101 51Q120 40 142.5 33Q165 26 191 26Q250 26 283.5 58.5Q317 91 317 138Q317 174 294 203.5Q271 233 227 266L180 300Q139 330 117 361Q95 392 95 430Q95 464 108 490.5Q121 517 142.5 534.5Q164 552 192.5 561Q221 570 252 570Q298 570 341 549.5Q384 529 412 496L385 470Q363 496 327 515Q291 534 252 534Q202 534 169.5 508Q137 482 137 434Q137 402 156 378.5Q175 355 205 332L255 295Q310 253 334.5 217.5Q359 182 359 140Q359 111 348 84Q337 57 315.5 36Q294 15 262.5 2.5Q231 -10 191 -10Z" glyph-name="Scommaaccent.smcp" horiz-adv-x="418" unicode="&#62469;" /><glyph d="M572 700 565 659H348L235 0H192L305 659H90L97 700Z" glyph-name="T" horiz-adv-x="502" unicode="T" /><glyph d="M247 521H74L81 560H469L462 521H289L199 0H157Z" glyph-name="T.smcp" horiz-adv-x="430" unicode="&#62288;" /><glyph d="M580 700 573 659H356L307 377H455L448 337H300L243 0H200L258 337H113L120 377H265L313 659H98L105 700Z" glyph-name="Tbar" horiz-adv-x="519" unicode="&#358;" /><glyph d="M100 304H215L253 521H80L87 560H475L468 521H295L257 304H373L367 266H251L205 0H163L209 266H93Z" glyph-name="Tbar.smcp" horiz-adv-x="443" unicode="&#62470;" /><glyph d="M372 789H318L272 942H313L348 823L446 942H491ZM572 700 565 659H348L235 0H192L305 659H90L97 700Z" glyph-name="Tcaron" horiz-adv-x="502" unicode="&#356;" /><glyph d="M304 605H253L203 730H245L283 640L354 730H399ZM247 521H74L81 560H469L462 521H289L199 0H157Z" glyph-name="Tcaron.smcp" horiz-adv-x="430" unicode="&#62471;" /><glyph d="M142 -127Q142 -107 156.5 -92Q171 -77 192 -77Q212 -77 226.5 -90.5Q241 -104 241 -125Q241 -148 224 -169L155 -256L114 -249L166 -171Q155 -165 148.5 -153Q142 -141 142 -127ZM572 700 565 659H348L235 0H192L305 659H90L97 700Z" glyph-name="Tcommaaccent" horiz-adv-x="502" unicode="&#354;" /><glyph d="M117 -82Q117 -65 129.5 -52.5Q142 -40 159 -40Q176 -40 188.5 -52Q201 -64 201 -81Q201 -100 188 -115L128 -192L94 -186L137 -120Q129 -115 123 -105Q117 -95 117 -82ZM247 521H74L81 560H469L462 521H289L199 0H157Z" glyph-name="Tcommaaccent.smcp" horiz-adv-x="430" unicode="&#62308;" /><glyph d="M196 529 136 184H257Q300 184 340.5 194.5Q381 205 412.5 227.5Q444 250 463.5 286.5Q483 323 483 375Q483 447 434 488Q385 529 294 529ZM301 569Q356 569 398.5 553.5Q441 538 469.5 511.5Q498 485 512.5 450Q527 415 527 377Q527 322 507 278.5Q487 235 450.5 205Q414 175 363.5 159Q313 143 252 143L129 144L105 0H58L178 700H225L203 569Z" glyph-name="Thorn" horiz-adv-x="538" unicode="&#222;" /><glyph d="M216 152Q249 152 280.5 160Q312 168 336.5 185Q361 202 375.5 230Q390 258 390 298Q390 353 351.5 385Q313 417 245 417H165L119 152ZM49 0Q53 23 60.5 67.5Q68 112 77.5 166Q87 220 97 280Q107 340 116.5 394Q126 448 134 492.5Q142 537 146 560H190L172 455H250Q293 455 327 442.5Q361 430 384 409Q407 388 419.5 360Q432 332 432 301Q432 214 372.5 163.5Q313 113 212 113L112 114L93 0Z" glyph-name="Thorn.smcp" horiz-adv-x="459" unicode="&#62472;" /><glyph d="M214 700 133 226Q125 181 132 144.5Q139 108 159 82Q179 56 213.5 41.5Q248 27 296 27Q376 27 423 74.5Q470 122 484 200L569 700H612L526 195Q518 149 500 111Q482 73 453.5 45.5Q425 18 386 3Q347 -12 297 -12Q243 -12 200 5Q157 22 129 53.5Q101 85 91 131Q81 177 92 236L171 700Z" glyph-name="U" horiz-adv-x="616" unicode="U" /><glyph d="M244 -10Q200 -10 165 4Q130 18 107.5 44Q85 70 76.5 107.5Q68 145 77 192L140 560H182L117 184Q111 150 116 121.5Q121 93 137 72Q153 51 179.5 39.5Q206 28 244 28Q307 28 343 66.5Q379 105 390 164L458 560H500L430 158Q424 121 409.5 90.5Q395 60 371.5 37.5Q348 15 316.5 2.5Q285 -10 244 -10Z" glyph-name="U.smcp" horiz-adv-x="520" unicode="&#62289;" /><glyph d="M442 942H499L406 789H367ZM214 700 133 226Q125 181 132 144.5Q139 108 159 82Q179 56 213.5 41.5Q248 27 296 27Q376 27 423 74.5Q470 122 484 200L569 700H612L526 195Q518 149 500 111Q482 73 453.5 45.5Q425 18 386 3Q347 -12 297 -12Q243 -12 200 5Q157 22 129 53.5Q101 85 91 131Q81 177 92 236L171 700Z" glyph-name="Uacute" horiz-adv-x="616" unicode="&#218;" /><glyph d="M361 730H421L338 605H296ZM244 -10Q200 -10 165 4Q130 18 107.5 44Q85 70 76.5 107.5Q68 145 77 192L140 560H182L117 184Q111 150 116 121.5Q121 93 137 72Q153 51 179.5 39.5Q206 28 244 28Q307 28 343 66.5Q379 105 390 164L458 560H500L430 158Q424 121 409.5 90.5Q395 60 371.5 37.5Q348 15 316.5 2.5Q285 -10 244 -10Z" glyph-name="Uacute.smcp" horiz-adv-x="520" unicode="&#62473;" /><glyph d="M339 876Q339 850 354 835Q369 820 401 820Q426 820 442 836.5Q458 853 463 883L468 911H505L500 879Q494 839 468 811.5Q442 784 395 784Q350 784 325.5 808Q301 832 301 871Q301 877 301.5 884.5Q302 892 306 911H343Q340 894 339.5 887Q339 880 339 876ZM214 700 133 226Q125 181 132 144.5Q139 108 159 82Q179 56 213.5 41.5Q248 27 296 27Q376 27 423 74.5Q470 122 484 200L569 700H612L526 195Q518 149 500 111Q482 73 453.5 45.5Q425 18 386 3Q347 -12 297 -12Q243 -12 200 5Q157 22 129 53.5Q101 85 91 131Q81 177 92 236L171 700Z" glyph-name="Ubreve" horiz-adv-x="616" unicode="&#364;" /><glyph d="M334 659Q382 659 393 718L395 730H435L431 706Q424 664 395.5 642.5Q367 621 332 621Q314 621 297.5 627Q281 633 269 644.5Q257 656 251.5 672.5Q246 689 250 710L254 730H294L291 715Q284 688 298.5 673.5Q313 659 334 659ZM244 -10Q200 -10 165 4Q130 18 107.5 44Q85 70 76.5 107.5Q68 145 77 192L140 560H182L117 184Q111 150 116 121.5Q121 93 137 72Q153 51 179.5 39.5Q206 28 244 28Q307 28 343 66.5Q379 105 390 164L458 560H500L430 158Q424 121 409.5 90.5Q395 60 371.5 37.5Q348 15 316.5 2.5Q285 -10 244 -10Z" glyph-name="Ubreve.smcp" horiz-adv-x="520" unicode="&#62480;" /><glyph d="M513 789H472L426 908L339 789H294L403 942H457ZM214 700 133 226Q125 181 132 144.5Q139 108 159 82Q179 56 213.5 41.5Q248 27 296 27Q376 27 423 74.5Q470 122 484 200L569 700H612L526 195Q518 149 500 111Q482 73 453.5 45.5Q425 18 386 3Q347 -12 297 -12Q243 -12 200 5Q157 22 129 53.5Q101 85 91 131Q81 177 92 236L171 700Z" glyph-name="Ucircumflex" horiz-adv-x="616" unicode="&#219;" /><glyph d="M420 605H380L341 695L271 605H224L320 730H371ZM244 -10Q200 -10 165 4Q130 18 107.5 44Q85 70 76.5 107.5Q68 145 77 192L140 560H182L117 184Q111 150 116 121.5Q121 93 137 72Q153 51 179.5 39.5Q206 28 244 28Q307 28 343 66.5Q379 105 390 164L458 560H500L430 158Q424 121 409.5 90.5Q395 60 371.5 37.5Q348 15 316.5 2.5Q285 -10 244 -10Z" glyph-name="Ucircumflex.smcp" horiz-adv-x="520" unicode="&#62481;" /><glyph d="M475 873Q492 873 505 860Q518 847 518 830Q518 813 505 800Q492 787 475 787Q458 787 445 800Q432 813 432 830Q432 847 445 860Q458 873 475 873ZM324 873Q341 873 354 860Q367 847 367 830Q367 813 354 800Q341 787 324 787Q307 787 294 800Q281 813 281 830Q281 847 294 860Q307 873 324 873ZM214 700 133 226Q125 181 132 144.5Q139 108 159 82Q179 56 213.5 41.5Q248 27 296 27Q376 27 423 74.5Q470 122 484 200L569 700H612L526 195Q518 149 500 111Q482 73 453.5 45.5Q425 18 386 3Q347 -12 297 -12Q243 -12 200 5Q157 22 129 53.5Q101 85 91 131Q81 177 92 236L171 700Z" glyph-name="Udieresis" horiz-adv-x="616" unicode="&#220;" /><glyph d="M350 670Q350 687 362.5 699.5Q375 712 393 712Q411 712 423.5 699.5Q436 687 436 670Q436 653 423.5 640.5Q411 628 393 628Q375 628 362.5 640.5Q350 653 350 670ZM232 670Q232 687 244.5 699.5Q257 712 275 712Q293 712 305.5 699.5Q318 687 318 670Q318 653 305.5 640.5Q293 628 275 628Q257 628 244.5 640.5Q232 653 232 670ZM244 -10Q200 -10 165 4Q130 18 107.5 44Q85 70 76.5 107.5Q68 145 77 192L140 560H182L117 184Q111 150 116 121.5Q121 93 137 72Q153 51 179.5 39.5Q206 28 244 28Q307 28 343 66.5Q379 105 390 164L458 560H500L430 158Q424 121 409.5 90.5Q395 60 371.5 37.5Q348 15 316.5 2.5Q285 -10 244 -10Z" glyph-name="Udieresis.smcp" horiz-adv-x="520" unicode="&#62529;" /><glyph d="M421 789H382L305 942H361ZM214 700 133 226Q125 181 132 144.5Q139 108 159 82Q179 56 213.5 41.5Q248 27 296 27Q376 27 423 74.5Q470 122 484 200L569 700H612L526 195Q518 149 500 111Q482 73 453.5 45.5Q425 18 386 3Q347 -12 297 -12Q243 -12 200 5Q157 22 129 53.5Q101 85 91 131Q81 177 92 236L171 700Z" glyph-name="Ugrave" horiz-adv-x="616" unicode="&#217;" /><glyph d="M346 605H306L239 730H294ZM244 -10Q200 -10 165 4Q130 18 107.5 44Q85 70 76.5 107.5Q68 145 77 192L140 560H182L117 184Q111 150 116 121.5Q121 93 137 72Q153 51 179.5 39.5Q206 28 244 28Q307 28 343 66.5Q379 105 390 164L458 560H500L430 158Q424 121 409.5 90.5Q395 60 371.5 37.5Q348 15 316.5 2.5Q285 -10 244 -10Z" glyph-name="Ugrave.smcp" horiz-adv-x="520" unicode="&#62530;" /><glyph d="M516 942H573L480 789H441ZM370 942H427L334 789H295ZM214 700 133 226Q125 181 132 144.5Q139 108 159 82Q179 56 213.5 41.5Q248 27 296 27Q376 27 423 74.5Q470 122 484 200L569 700H612L526 195Q518 149 500 111Q482 73 453.5 45.5Q425 18 386 3Q347 -12 297 -12Q243 -12 200 5Q157 22 129 53.5Q101 85 91 131Q81 177 92 236L171 700Z" glyph-name="Uhungarumlaut" horiz-adv-x="616" unicode="&#368;" /><glyph d="M430 730H482L399 605H362ZM326 730H378L295 605H258ZM244 -10Q200 -10 165 4Q130 18 107.5 44Q85 70 76.5 107.5Q68 145 77 192L140 560H182L117 184Q111 150 116 121.5Q121 93 137 72Q153 51 179.5 39.5Q206 28 244 28Q307 28 343 66.5Q379 105 390 164L458 560H500L430 158Q424 121 409.5 90.5Q395 60 371.5 37.5Q348 15 316.5 2.5Q285 -10 244 -10Z" glyph-name="Uhungarumlaut.smcp" horiz-adv-x="520" unicode="&#62486;" /><glyph d="M284 849H529L523 812H278ZM214 700 133 226Q125 181 132 144.5Q139 108 159 82Q179 56 213.5 41.5Q248 27 296 27Q376 27 423 74.5Q470 122 484 200L569 700H612L526 195Q518 149 500 111Q482 73 453.5 45.5Q425 18 386 3Q347 -12 297 -12Q243 -12 200 5Q157 22 129 53.5Q101 85 91 131Q81 177 92 236L171 700Z" glyph-name="Umacron" horiz-adv-x="616" unicode="&#362;" /><glyph d="M236 690H440L433 651H229ZM244 -10Q200 -10 165 4Q130 18 107.5 44Q85 70 76.5 107.5Q68 145 77 192L140 560H182L117 184Q111 150 116 121.5Q121 93 137 72Q153 51 179.5 39.5Q206 28 244 28Q307 28 343 66.5Q379 105 390 164L458 560H500L430 158Q424 121 409.5 90.5Q395 60 371.5 37.5Q348 15 316.5 2.5Q285 -10 244 -10Z" glyph-name="Umacron.smcp" horiz-adv-x="520" unicode="&#62531;" /><glyph d="M213 700 132 226Q124 181 131 144.5Q138 108 158 82Q178 56 212.5 41.5Q247 27 295 27Q375 27 422 74.5Q469 122 483 200L568 700H611L525 195Q517 150 499.5 112Q482 74 454.5 47Q427 20 389 4.5Q351 -11 303 -12Q258 -35 232.5 -62Q207 -89 207 -114Q207 -131 221.5 -140Q236 -149 253 -149Q270 -149 290 -145.5Q310 -142 324 -136L319 -168Q310 -172 299 -176Q289 -179 276 -181Q263 -183 246 -183Q204 -183 183.5 -163.5Q163 -144 163 -118Q163 -78 192 -52Q221 -26 257 -10Q211 -4 175.5 15Q140 34 117.5 65.5Q95 97 87.5 140Q80 183 91 236L170 700Z" glyph-name="Uogonek" horiz-adv-x="616" unicode="&#370;" /><glyph d="M242 -10Q222 -22 205.5 -39Q189 -56 189 -80Q189 -97 201.5 -105.5Q214 -114 232 -114Q255 -114 278 -105L273 -135Q267 -138 259 -141Q244 -146 221 -146Q183 -146 165 -128Q147 -110 147 -87Q147 -61 165 -41Q183 -21 205 -7Q169 -1 141.5 15Q114 31 97 56.5Q80 82 74.5 116Q69 150 77 192L140 560H182L117 184Q111 150 116 121.5Q121 93 137 72Q153 51 179.5 39.5Q206 28 244 28Q307 28 343 66.5Q379 105 390 164L458 560H500L430 158Q424 121 409.5 90.5Q395 60 371.5 37.5Q348 15 316.5 2.5Q285 -10 244 -10Z" glyph-name="Uogonek.smcp" horiz-adv-x="520" unicode="&#62532;" /><glyph d="M408 757Q388 757 370 764.5Q352 772 338 785Q324 798 316 816Q308 834 308 855Q308 876 316 894Q324 912 338 925Q352 938 370 945.5Q388 953 408 953Q428 953 446 945.5Q464 938 478 925Q492 912 500 894Q508 876 508 855Q508 834 500 816Q492 798 478 785Q464 772 446 764.5Q428 757 408 757ZM408 918Q380 918 363.5 899.5Q347 881 347 855Q347 829 363.5 810.5Q380 792 408 792Q436 792 452.5 810.5Q469 829 469 855Q469 881 452.5 899.5Q436 918 408 918ZM214 700 133 226Q125 181 132 144.5Q139 108 159 82Q179 56 213.5 41.5Q248 27 296 27Q376 27 423 74.5Q470 122 484 200L569 700H612L526 195Q518 149 500 111Q482 73 453.5 45.5Q425 18 386 3Q347 -12 297 -12Q243 -12 200 5Q157 22 129 53.5Q101 85 91 131Q81 177 92 236L171 700Z" glyph-name="Uring" horiz-adv-x="616" unicode="&#366;" /><glyph d="M323 622Q343 622 355 635.5Q367 649 367 669Q367 689 355 702.5Q343 716 323 716Q303 716 290.5 702.5Q278 689 278 669Q278 649 290.5 635.5Q303 622 323 622ZM323 589Q290 589 265.5 611.5Q241 634 241 669Q241 704 265.5 726.5Q290 749 323 749Q356 749 380.5 726.5Q405 704 405 669Q405 634 380.5 611.5Q356 589 323 589ZM244 -10Q200 -10 165 4Q130 18 107.5 44Q85 70 76.5 107.5Q68 145 77 192L140 560H182L117 184Q111 150 116 121.5Q121 93 137 72Q153 51 179.5 39.5Q206 28 244 28Q307 28 343 66.5Q379 105 390 164L458 560H500L430 158Q424 121 409.5 90.5Q395 60 371.5 37.5Q348 15 316.5 2.5Q285 -10 244 -10Z" glyph-name="Uring.smcp" horiz-adv-x="520" unicode="&#62533;" /><glyph d="M352 889Q369 889 384 881Q399 873 412 864Q425 855 436 847Q447 839 457 839Q476 839 483.5 852.5Q491 866 493 881L494 889L529 879Q529 870 525.5 856.5Q522 843 514 830Q506 817 491.5 808Q477 799 455 799Q439 799 424.5 807Q410 815 397.5 824Q385 833 373 841Q361 849 350 849Q331 849 323.5 835.5Q316 822 314 807L313 799L278 809Q278 818 281.5 831.5Q285 845 293 858Q301 871 315 880Q329 889 352 889ZM214 700 133 226Q125 181 132 144.5Q139 108 159 82Q179 56 213.5 41.5Q248 27 296 27Q376 27 423 74.5Q470 122 484 200L569 700H612L526 195Q518 149 500 111Q482 73 453.5 45.5Q425 18 386 3Q347 -12 297 -12Q243 -12 200 5Q157 22 129 53.5Q101 85 91 131Q81 177 92 236L171 700Z" glyph-name="Utilde" horiz-adv-x="616" unicode="&#360;" /><glyph d="M378 634Q366 634 353.5 639.5Q341 645 329.5 652Q318 659 308 664.5Q298 670 290 670Q269 670 265 641L264 635H226L228 645Q229 653 232.5 664Q236 675 242.5 685Q249 695 261 702Q273 709 292 709Q304 709 316.5 703.5Q329 698 340.5 691Q352 684 362 678.5Q372 673 380 673Q401 673 405 702L406 708H444L442 698Q440 690 437 679Q434 668 427.5 658Q421 648 409 641Q397 634 378 634ZM244 -10Q200 -10 165 4Q130 18 107.5 44Q85 70 76.5 107.5Q68 145 77 192L140 560H182L117 184Q111 150 116 121.5Q121 93 137 72Q153 51 179.5 39.5Q206 28 244 28Q307 28 343 66.5Q379 105 390 164L458 560H500L430 158Q424 121 409.5 90.5Q395 60 371.5 37.5Q348 15 316.5 2.5Q285 -10 244 -10Z" glyph-name="Utilde.smcp" horiz-adv-x="520" unicode="&#62544;" /><glyph d="M121 700H166L241 43H245L607 700H655L266 0H207Z" glyph-name="V" horiz-adv-x="594" unicode="V" /><glyph d="M97 560H140L198 42H200L485 560H530L220 0H164Z" glyph-name="V.smcp" horiz-adv-x="495" unicode="&#62290;" /><glyph d="M566 0 536 656 216 0H140L122 700H164L180 44H191L512 700H574L606 44H615L919 700H967L640 0Z" glyph-name="W" horiz-adv-x="918" unicode="W" /><glyph d="M99 560H140L153 43H157L409 560H466L491 43H496L733 560H777L519 0H454L429 516L180 0H114Z" glyph-name="W.smcp" horiz-adv-x="755" unicode="&#62291;" /><glyph d="M624 942H681L588 789H549ZM566 0 536 656 216 0H140L122 700H164L180 44H191L512 700H574L606 44H615L919 700H967L640 0Z" glyph-name="Wacute" horiz-adv-x="918" unicode="&#7810;" /><glyph d="M492 730H552L469 605H427ZM99 560H140L153 43H157L409 560H466L491 43H496L733 560H777L519 0H454L429 516L180 0H114Z" glyph-name="Wacute.smcp" horiz-adv-x="755" unicode="&#62297;" /><glyph d="M651 789H610L564 908L477 789H432L541 942H595ZM566 0 536 656 216 0H140L122 700H164L180 44H191L512 700H574L606 44H615L919 700H967L640 0Z" glyph-name="Wcircumflex" horiz-adv-x="918" unicode="&#372;" /><glyph d="M539 605H499L460 695L390 605H343L439 730H490ZM99 560H140L153 43H157L409 560H466L491 43H496L733 560H777L519 0H454L429 516L180 0H114Z" glyph-name="Wcircumflex.smcp" horiz-adv-x="755" unicode="&#62545;" /><glyph d="M627 873Q644 873 657 860Q670 847 670 830Q670 813 657 800Q644 787 627 787Q610 787 597 800Q584 813 584 830Q584 847 597 860Q610 873 627 873ZM476 873Q493 873 506 860Q519 847 519 830Q519 813 506 800Q493 787 476 787Q459 787 446 800Q433 813 433 830Q433 847 446 860Q459 873 476 873ZM566 0 536 656 216 0H140L122 700H164L180 44H191L512 700H574L606 44H615L919 700H967L640 0Z" glyph-name="Wdieresis" horiz-adv-x="918" unicode="&#7812;" /><glyph d="M468 670Q468 687 480.5 699.5Q493 712 511 712Q529 712 541.5 699.5Q554 687 554 670Q554 653 541.5 640.5Q529 628 511 628Q493 628 480.5 640.5Q468 653 468 670ZM350 670Q350 687 362.5 699.5Q375 712 393 712Q411 712 423.5 699.5Q436 687 436 670Q436 653 423.5 640.5Q411 628 393 628Q375 628 362.5 640.5Q350 653 350 670ZM99 560H140L153 43H157L409 560H466L491 43H496L733 560H777L519 0H454L429 516L180 0H114Z" glyph-name="Wdieresis.smcp" horiz-adv-x="755" unicode="&#62304;" /><glyph d="M551 789H512L435 942H491ZM566 0 536 656 216 0H140L122 700H164L180 44H191L512 700H574L606 44H615L919 700H967L640 0Z" glyph-name="Wgrave" horiz-adv-x="918" unicode="&#7808;" /><glyph d="M452 605H412L345 730H400ZM99 560H140L153 43H157L409 560H466L491 43H496L733 560H777L519 0H454L429 516L180 0H114Z" glyph-name="Wgrave.smcp" horiz-adv-x="755" unicode="&#62305;" /><glyph d="M328 353 507 0H458L298 319L33 0H-23L278 358L106 700H154L308 393L565 700H619Z" glyph-name="X" horiz-adv-x="556" unicode="X" /><glyph d="M134 560 254 318 457 560H509L274 282L416 0H370L245 250L36 0H-16L226 286L88 560Z" glyph-name="X.smcp" horiz-adv-x="475" unicode="&#62292;" /><glyph d="M94 700H145L315 357H319L608 700H666L334 311L279 0H234L289 311Z" glyph-name="Y" horiz-adv-x="597" unicode="Y" /><glyph d="M236 248 78 560H126L260 289H262L490 560H544L279 249L235 0H192Z" glyph-name="Y.smcp" horiz-adv-x="507" unicode="&#62293;" /><glyph d="M433 942H490L397 789H358ZM94 700H145L315 357H319L608 700H666L334 311L279 0H234L289 311Z" glyph-name="Yacute" horiz-adv-x="597" unicode="&#221;" /><glyph d="M353 730H413L330 605H288ZM236 248 78 560H126L260 289H262L490 560H544L279 249L235 0H192Z" glyph-name="Yacute.smcp" horiz-adv-x="507" unicode="&#62482;" /><glyph d="M494 789H453L407 908L320 789H275L384 942H438ZM94 700H145L315 357H319L608 700H666L334 311L279 0H234L289 311Z" glyph-name="Ycircumflex" horiz-adv-x="597" unicode="&#374;" /><glyph d="M409 605H369L330 695L260 605H213L309 730H360ZM236 248 78 560H126L260 289H262L490 560H544L279 249L235 0H192Z" glyph-name="Ycircumflex.smcp" horiz-adv-x="507" unicode="&#62546;" /><glyph d="M458 873Q475 873 488 860Q501 847 501 830Q501 813 488 800Q475 787 458 787Q441 787 428 800Q415 813 415 830Q415 847 428 860Q441 873 458 873ZM307 873Q324 873 337 860Q350 847 350 830Q350 813 337 800Q324 787 307 787Q290 787 277 800Q264 813 264 830Q264 847 277 860Q290 873 307 873ZM94 700H145L315 357H319L608 700H666L334 311L279 0H234L289 311Z" glyph-name="Ydieresis" horiz-adv-x="597" unicode="&#376;" /><glyph d="M336 670Q336 687 348.5 699.5Q361 712 379 712Q397 712 409.5 699.5Q422 687 422 670Q422 653 409.5 640.5Q397 628 379 628Q361 628 348.5 640.5Q336 653 336 670ZM218 670Q218 687 230.5 699.5Q243 712 261 712Q279 712 291.5 699.5Q304 687 304 670Q304 653 291.5 640.5Q279 628 261 628Q243 628 230.5 640.5Q218 653 218 670ZM236 248 78 560H126L260 289H262L490 560H544L279 249L235 0H192Z" glyph-name="Ydieresis.smcp" horiz-adv-x="507" unicode="&#62547;" /><glyph d="M402 789H363L286 942H342ZM94 700H145L315 357H319L608 700H666L334 311L279 0H234L289 311Z" glyph-name="Ygrave" horiz-adv-x="597" unicode="&#7922;" /><glyph d="M320 605H280L213 730H268ZM236 248 78 560H126L260 289H262L490 560H544L279 249L235 0H192Z" glyph-name="Ygrave.smcp" horiz-adv-x="507" unicode="&#62306;" /><glyph d="M114 660 120 700H592L584 658L53 40H478L471 0H-10L-2 43L530 660Z" glyph-name="Z" horiz-adv-x="540" unicode="Z" /><glyph d="M3 40 427 522H94L100 560H486L479 520L55 38H396L389 0H-4Z" glyph-name="Z.smcp" horiz-adv-x="463" unicode="&#62294;" /><glyph d="M416 942H473L380 789H341ZM114 660 120 700H592L584 658L53 40H478L471 0H-10L-2 43L530 660Z" glyph-name="Zacute" horiz-adv-x="540" unicode="&#377;" /><glyph d="M329 730H389L306 605H264ZM3 40 427 522H94L100 560H486L479 520L55 38H396L389 0H-4Z" glyph-name="Zacute.smcp" horiz-adv-x="463" unicode="&#62483;" /><glyph d="M384 789H330L284 942H325L360 823L458 942H503ZM114 660 120 700H592L584 658L53 40H478L471 0H-10L-2 43L530 660Z" glyph-name="Zcaron" horiz-adv-x="540" unicode="&#381;" /><glyph d="M318 605H267L217 730H259L297 640L368 730H413ZM3 40 427 522H94L100 560H486L479 520L55 38H396L389 0H-4Z" glyph-name="Zcaron.smcp" horiz-adv-x="463" unicode="&#62549;" /><glyph d="M319 849Q319 869 333 883Q347 897 367 897Q387 897 401 883Q415 869 415 849Q415 829 401 815Q387 801 367 801Q347 801 333 815Q319 829 319 849ZM114 660 120 700H592L584 658L53 40H478L471 0H-10L-2 43L530 660Z" glyph-name="Zdotaccent" horiz-adv-x="540" unicode="&#379;" /><glyph d="M260 670Q260 687 272.5 699.5Q285 712 303 712Q321 712 333.5 699.5Q346 687 346 670Q346 653 333.5 640.5Q321 628 303 628Q285 628 272.5 640.5Q260 653 260 670ZM3 40 427 522H94L100 560H486L479 520L55 38H396L389 0H-4Z" glyph-name="Zdotaccent.smcp" horiz-adv-x="463" unicode="&#62548;" /><glyph d="M512 434 438 0H396L409 81Q384 41 338.5 14.5Q293 -12 239 -12Q195 -12 159 3.5Q123 19 97.5 46.5Q72 74 57.5 111Q43 148 43 192Q43 247 62 294Q81 341 112.5 374.5Q144 408 185.5 427Q227 446 273 446Q303 446 331.5 437Q360 428 383.5 411.5Q407 395 424 371.5Q441 348 450 318L460 375L470 434ZM85 192Q85 159 95 129Q105 99 125 76Q145 53 174 39.5Q203 26 241 26Q280 26 315.5 42.5Q351 59 377 88.5Q403 118 418.5 157.5Q434 197 434 242Q434 277 422.5 307Q411 337 390 359.5Q369 382 339.5 395Q310 408 274 408Q234 408 199.5 391Q165 374 139.5 345Q114 316 99.5 276.5Q85 237 85 192Z" glyph-name="a" horiz-adv-x="549" unicode="a" /><glyph d="M375 676H432L339 523H300ZM512 434 438 0H396L409 81Q384 41 338.5 14.5Q293 -12 239 -12Q195 -12 159 3.5Q123 19 97.5 46.5Q72 74 57.5 111Q43 148 43 192Q43 247 62 294Q81 341 112.5 374.5Q144 408 185.5 427Q227 446 273 446Q303 446 331.5 437Q360 428 383.5 411.5Q407 395 424 371.5Q441 348 450 318L460 375L470 434ZM85 192Q85 159 95 129Q105 99 125 76Q145 53 174 39.5Q203 26 241 26Q280 26 315.5 42.5Q351 59 377 88.5Q403 118 418.5 157.5Q434 197 434 242Q434 277 422.5 307Q411 337 390 359.5Q369 382 339.5 395Q310 408 274 408Q234 408 199.5 391Q165 374 139.5 345Q114 316 99.5 276.5Q85 237 85 192Z" glyph-name="aacute" horiz-adv-x="549" unicode="&#225;" /><glyph d="M263 610Q263 584 278 569Q293 554 325 554Q350 554 366 570.5Q382 587 387 617L392 645H429L424 613Q418 573 392 545.5Q366 518 319 518Q274 518 249.5 542Q225 566 225 605Q225 611 225.5 618.5Q226 626 230 645H267Q264 628 263.5 621Q263 614 263 610ZM512 434 438 0H396L409 81Q384 41 338.5 14.5Q293 -12 239 -12Q195 -12 159 3.5Q123 19 97.5 46.5Q72 74 57.5 111Q43 148 43 192Q43 247 62 294Q81 341 112.5 374.5Q144 408 185.5 427Q227 446 273 446Q303 446 331.5 437Q360 428 383.5 411.5Q407 395 424 371.5Q441 348 450 318L460 375L470 434ZM85 192Q85 159 95 129Q105 99 125 76Q145 53 174 39.5Q203 26 241 26Q280 26 315.5 42.5Q351 59 377 88.5Q403 118 418.5 157.5Q434 197 434 242Q434 277 422.5 307Q411 337 390 359.5Q369 382 339.5 395Q310 408 274 408Q234 408 199.5 391Q165 374 139.5 345Q114 316 99.5 276.5Q85 237 85 192Z" glyph-name="abreve" horiz-adv-x="549" unicode="&#259;" /><glyph d="M419 523H378L332 642L245 523H200L309 676H363ZM512 434 438 0H396L409 81Q384 41 338.5 14.5Q293 -12 239 -12Q195 -12 159 3.5Q123 19 97.5 46.5Q72 74 57.5 111Q43 148 43 192Q43 247 62 294Q81 341 112.5 374.5Q144 408 185.5 427Q227 446 273 446Q303 446 331.5 437Q360 428 383.5 411.5Q407 395 424 371.5Q441 348 450 318L460 375L470 434ZM85 192Q85 159 95 129Q105 99 125 76Q145 53 174 39.5Q203 26 241 26Q280 26 315.5 42.5Q351 59 377 88.5Q403 118 418.5 157.5Q434 197 434 242Q434 277 422.5 307Q411 337 390 359.5Q369 382 339.5 395Q310 408 274 408Q234 408 199.5 391Q165 374 139.5 345Q114 316 99.5 276.5Q85 237 85 192Z" glyph-name="acircumflex" horiz-adv-x="549" unicode="&#226;" /><glyph d="M126 676H183L90 523H51Z" glyph-name="acute" horiz-adv-x="171" unicode="&#180;" /><glyph d="M221 730H281L198 605H156Z" glyph-name="acute.smcp" horiz-adv-x="300" unicode="&#63412;" /><glyph d="M391 607Q408 607 421 594Q434 581 434 564Q434 547 421 534Q408 521 391 521Q374 521 361 534Q348 547 348 564Q348 581 361 594Q374 607 391 607ZM240 607Q257 607 270 594Q283 581 283 564Q283 547 270 534Q257 521 240 521Q223 521 210 534Q197 547 197 564Q197 581 210 594Q223 607 240 607ZM512 434 438 0H396L409 81Q384 41 338.5 14.5Q293 -12 239 -12Q195 -12 159 3.5Q123 19 97.5 46.5Q72 74 57.5 111Q43 148 43 192Q43 247 62 294Q81 341 112.5 374.5Q144 408 185.5 427Q227 446 273 446Q303 446 331.5 437Q360 428 383.5 411.5Q407 395 424 371.5Q441 348 450 318L460 375L470 434ZM85 192Q85 159 95 129Q105 99 125 76Q145 53 174 39.5Q203 26 241 26Q280 26 315.5 42.5Q351 59 377 88.5Q403 118 418.5 157.5Q434 197 434 242Q434 277 422.5 307Q411 337 390 359.5Q369 382 339.5 395Q310 408 274 408Q234 408 199.5 391Q165 374 139.5 345Q114 316 99.5 276.5Q85 237 85 192Z" glyph-name="adieresis" horiz-adv-x="549" unicode="&#228;" /><glyph d="M174 25Q202 25 229 36.5Q256 48 278 70.5Q300 93 316 126.5Q332 160 338 204H186Q126 204 95.5 182.5Q65 161 65 114Q65 99 70.5 83Q76 67 89 54.5Q102 42 123 33.5Q144 25 174 25ZM567 408Q532 408 501.5 395.5Q471 383 446.5 360.5Q422 338 405 307Q388 276 381 240H715Q715 274 706 305Q697 336 678.5 358.5Q660 381 632 394.5Q604 408 567 408ZM376 204Q374 166 384.5 133.5Q395 101 415.5 77Q436 53 465.5 39.5Q495 26 533 26Q584 26 627 52Q670 78 693 123L740 122Q726 91 704.5 66.5Q683 42 655.5 24.5Q628 7 596.5 -2.5Q565 -12 533 -12Q466 -12 417.5 23.5Q369 59 350 119Q341 92 323 68.5Q305 45 281.5 27Q258 9 229.5 -1.5Q201 -12 170 -12Q136 -12 108.5 -2.5Q81 7 61.5 24Q42 41 31.5 64Q21 87 21 114Q21 149 34.5 173Q48 197 71 212Q94 227 124.5 233.5Q155 240 189 240H304Q322 240 335.5 252.5Q349 265 354 298Q357 323 350 343.5Q343 364 328.5 378Q314 392 293.5 400Q273 408 249 408Q210 408 172 394.5Q134 381 105 361L88 396Q115 415 157 430.5Q199 446 255 446Q310 446 346 419Q382 392 392 358Q424 399 470 422.5Q516 446 567 446Q610 446 645 430.5Q680 415 705 388Q730 361 743.5 323.5Q757 286 757 242Q757 238 756.5 231.5Q756 225 756 219V204Z" glyph-name="ae" horiz-adv-x="795" unicode="&#230;" /><glyph d="M194 360Q248 414 277.5 472.5Q307 531 307 594Q307 609 304 626Q301 643 293.5 657.5Q286 672 274 681Q262 690 245 690Q226 690 210 675Q194 660 194 620ZM333 588Q333 548 321.5 512.5Q310 477 291.5 445Q273 413 248 384.5Q223 356 196 330V99Q196 77 202 61.5Q208 46 217.5 36.5Q227 27 239.5 22.5Q252 18 265 18Q326 18 337 91H357Q353 59 339 39Q325 19 307.5 8Q290 -3 271.5 -7Q253 -11 240 -11Q213 -11 188 -3Q163 5 143.5 25Q124 45 112 79Q100 113 100 164V250Q91 242 81 235Q73 229 64 222Q55 215 48 210L31 229Q44 238 56 247Q68 256 78 264Q88 272 94 276.5Q100 281 100 281V541Q100 620 133 666.5Q166 713 231 713Q282 713 307.5 680Q333 647 333 588Z" glyph-name="afii61289" horiz-adv-x="408" unicode="&#8467;" /><glyph d="M317 523H278L201 676H257ZM512 434 438 0H396L409 81Q384 41 338.5 14.5Q293 -12 239 -12Q195 -12 159 3.5Q123 19 97.5 46.5Q72 74 57.5 111Q43 148 43 192Q43 247 62 294Q81 341 112.5 374.5Q144 408 185.5 427Q227 446 273 446Q303 446 331.5 437Q360 428 383.5 411.5Q407 395 424 371.5Q441 348 450 318L460 375L470 434ZM85 192Q85 159 95 129Q105 99 125 76Q145 53 174 39.5Q203 26 241 26Q280 26 315.5 42.5Q351 59 377 88.5Q403 118 418.5 157.5Q434 197 434 242Q434 277 422.5 307Q411 337 390 359.5Q369 382 339.5 395Q310 408 274 408Q234 408 199.5 391Q165 374 139.5 345Q114 316 99.5 276.5Q85 237 85 192Z" glyph-name="agrave" horiz-adv-x="549" unicode="&#224;" /><glyph d="M204 583H449L443 546H198ZM512 434 438 0H396L409 81Q384 41 338.5 14.5Q293 -12 239 -12Q195 -12 159 3.5Q123 19 97.5 46.5Q72 74 57.5 111Q43 148 43 192Q43 247 62 294Q81 341 112.5 374.5Q144 408 185.5 427Q227 446 273 446Q303 446 331.5 437Q360 428 383.5 411.5Q407 395 424 371.5Q441 348 450 318L460 375L470 434ZM85 192Q85 159 95 129Q105 99 125 76Q145 53 174 39.5Q203 26 241 26Q280 26 315.5 42.5Q351 59 377 88.5Q403 118 418.5 157.5Q434 197 434 242Q434 277 422.5 307Q411 337 390 359.5Q369 382 339.5 395Q310 408 274 408Q234 408 199.5 391Q165 374 139.5 345Q114 316 99.5 276.5Q85 237 85 192Z" glyph-name="amacron" horiz-adv-x="549" unicode="&#257;" /><glyph d="M231 27Q284 27 324.5 51.5Q365 76 407 129L236 360Q203 337 175.5 315.5Q148 294 129 271Q110 248 99.5 222Q89 196 89 163Q89 128 101.5 102.5Q114 77 134 60.5Q154 44 179.5 35.5Q205 27 231 27ZM213 392Q183 435 170 471.5Q157 508 157 540Q157 584 172 616.5Q187 649 211 670Q235 691 265.5 701.5Q296 712 327 712Q363 712 391.5 700Q420 688 439.5 668.5Q459 649 469.5 624Q480 599 480 572Q480 546 470.5 521Q461 496 444 474L409 492Q438 530 438 570Q438 613 407 642.5Q376 672 328 672Q306 672 283.5 665Q261 658 243 642Q225 626 213.5 601Q202 576 202 540Q202 511 216 475.5Q230 440 253 408L431 163Q463 214 487 267Q511 320 523 368H569Q555 323 530 260Q505 197 457 132L554 3L553 0H502L431 96Q341 -12 226 -12Q191 -12 158 0Q125 12 99.5 34Q74 56 58.5 88Q43 120 43 161Q43 198 55 229.5Q67 261 89 289Q111 317 142.5 342.5Q174 368 213 392Z" glyph-name="ampersand" horiz-adv-x="607" unicode="&amp;" /><glyph d="M187 28Q228 28 258.5 47Q289 66 324 107L191 285Q165 264 144.5 246.5Q124 229 110 211Q96 193 88.5 173.5Q81 154 81 130Q81 105 90 86Q99 67 114 54Q129 41 148 34.5Q167 28 187 28ZM187 -10Q156 -10 129 0Q102 10 81.5 28Q61 46 49 71.5Q37 97 37 128Q37 186 72 228.5Q107 271 170 314Q148 346 138.5 375Q129 404 129 428Q129 463 140.5 489.5Q152 516 171 534Q190 552 215 561Q240 570 267 570Q295 570 318 561Q341 552 357 537Q373 522 382 501.5Q391 481 391 459Q391 439 384 417.5Q377 396 363 377L328 391Q338 407 344 424.5Q350 442 350 457Q350 475 343 489Q336 503 324 512.5Q312 522 297 526.5Q282 531 267 531Q229 531 200.5 506Q172 481 172 429Q172 408 180.5 383Q189 358 206 335L349 140Q374 178 394 220Q414 262 422 294H468Q455 259 433.5 211Q412 163 373 109L455 3V0H404L347 74Q311 30 271.5 10Q232 -10 187 -10Z" glyph-name="ampersand.smcp" horiz-adv-x="494" unicode="&#58369;" /><glyph d="M85 192Q85 159 95 129Q105 99 125 76Q145 53 174 39.5Q203 26 241 26Q280 26 315.5 42.5Q351 59 377 88.5Q403 118 418.5 157.5Q434 197 434 242Q434 277 422.5 307Q411 337 390 359.5Q369 382 339.5 395Q310 408 274 408Q234 408 199.5 391Q165 374 139.5 345Q114 316 99.5 276.5Q85 237 85 192ZM512 434 438 0H433Q378 -25 345 -55.5Q312 -86 312 -114Q312 -131 326.5 -140Q341 -149 358 -149Q375 -149 395 -145.5Q415 -142 429 -136L424 -168Q415 -172 404 -176Q394 -179 381 -181Q368 -183 351 -183Q309 -183 288.5 -163.5Q268 -144 268 -118Q268 -94 280 -74.5Q292 -55 310.5 -40Q329 -25 351.5 -14.5Q374 -4 396 3L409 81Q384 41 338.5 14.5Q293 -12 239 -12Q195 -12 159 3.5Q123 19 97.5 46.5Q72 74 57.5 111Q43 148 43 192Q43 247 62 294Q81 341 112.5 374.5Q144 408 185.5 427Q227 446 273 446Q303 446 331.5 437Q360 428 383.5 411.5Q407 395 424 371.5Q441 348 450 318L460 375L470 434Z" glyph-name="aogonek" horiz-adv-x="549" unicode="&#261;" /><glyph d="M305 662Q305 682 319.5 697Q334 712 355 712Q375 712 389.5 698.5Q404 685 404 664Q404 641 387 620L318 533L277 540L329 618Q318 624 311.5 636Q305 648 305 662Z" glyph-name="apostrophe" horiz-adv-x="537" unicode="&#700;" /><glyph d="M462 655Q462 641 471 631.5Q480 622 494 622Q508 622 517 632Q526 642 526 654Q526 668 517 677.5Q508 687 494 687Q480 687 471 677.5Q462 668 462 655ZM607 3Q607 -11 616 -20.5Q625 -30 639 -30Q653 -30 662 -20Q671 -10 671 2Q671 16 662 25.5Q653 35 639 35Q625 35 616 25.5Q607 16 607 3ZM864 613 923 645 948 595Q954 583 948 571Q942 559 931 553Q920 548 908 549Q896 550 890 561ZM267 412 381 372Q389 369 395.5 372Q402 375 404 383Q407 390 404 397Q401 404 393 406L278 447L293 494Q295 502 292 508.5Q289 515 281 517Q274 519 267 516Q260 513 258 505L215 373Q213 366 216 359Q219 352 227 350Q235 348 241.5 351Q248 354 250 362ZM295 575Q287 573 283 567Q279 561 281 553Q283 545 289 541Q295 537 303 539L407 562L416 540Q409 531 409 522Q409 511 416.5 503.5Q424 496 435 496Q446 496 452 504Q460 511 459.5 520.5Q459 530 456 538L393 697Q390 704 383.5 707Q377 710 369 707Q362 704 359 697.5Q356 691 359 683L393 597ZM639 506Q591 506 547 520Q567 555 590.5 588.5Q614 622 641 650Q666 624 689 591Q712 558 734 521Q690 506 639 506ZM1032 492Q1029 499 1022 502Q1014 504 1008 501L879 439Q872 435 869.5 428.5Q867 422 870 415L917 310Q924 294 940 301Q948 304 950.5 311Q953 318 950 324L910 414L943 429L958 396Q961 389 968 386.5Q975 384 982 387Q998 394 991 411L976 445L1007 460L1039 388Q1042 381 1049 378.5Q1056 376 1063 379Q1070 382 1072.5 389Q1075 396 1072 403ZM858 545Q869 523 893 515Q922 507 948 522Q974 536 983 562Q992 588 980 611L947 678Q944 686 936 687.5Q928 689 922 686L787 612Q780 608 778 601Q776 594 780 587Q784 580 791 578Q798 576 805 580L832 595ZM788 97Q788 105 783 110Q778 115 770 115H591Q616 128 646.5 146Q677 164 703 187.5Q729 211 746.5 240Q764 269 764 304Q764 327 756 349Q748 371 732.5 388.5Q717 406 694 417Q671 428 641 428Q614 428 590 419.5Q566 411 548 396Q530 381 520 359.5Q510 338 510 312Q510 295 516 278.5Q522 262 533.5 248.5Q545 235 561 227Q577 219 597 219Q610 219 624 223Q638 227 649 236Q660 245 667.5 259Q675 273 675 292Q675 318 662 327Q649 336 639 336Q625 336 615.5 326.5Q606 317 606 304Q606 287 621 277Q622 275 618 265Q614 255 595 255Q572 255 560 274.5Q548 294 548 313Q548 349 573 371Q598 393 639 393Q682 393 703 365.5Q724 338 724 305Q724 282 714.5 262.5Q705 243 689 225.5Q673 208 653.5 193.5Q634 179 615 166Q577 142 547.5 127.5Q518 113 515 110Q507 100 511 90Q516 79 528 79H769Q788 79 788 97ZM859 751Q962 751 1031 682Q1071 643 1092.5 588Q1114 533 1114 473Q1114 402 1089.5 339Q1065 276 1030 223Q968 134 866 53Q828 23 791 -1.5Q754 -26 723.5 -44Q693 -62 670.5 -74Q648 -86 639 -90Q630 -86 607.5 -74Q585 -62 554.5 -44Q524 -26 487.5 -1Q451 24 413 54Q310 136 250 226Q211 283 189 346.5Q167 410 167 474Q167 535 189 590Q211 645 251 684Q322 752 423 752Q480 752 528.5 729.5Q577 707 615 675Q589 647 564 614Q539 581 516 540Q490 495 470 449.5Q450 404 435 361.5Q420 319 409.5 282.5Q399 246 393 221L343 231Q336 233 330 229Q324 225 322 218Q320 211 324 205.5Q328 200 336 198L471 169Q478 167 483.5 171Q489 175 491 182Q494 199 478 203L430 213Q435 234 443.5 264.5Q452 295 464.5 331Q477 367 493 407Q509 447 530 487Q582 468 639 468Q699 468 751 488Q771 449 787 409Q803 369 815 333Q827 297 835.5 265.5Q844 234 849 212L801 202Q785 198 787 182Q789 174 795 170Q801 166 808 168L943 196Q950 198 954 203.5Q958 209 956 216Q955 224 949 228Q943 232 936 230L887 220Q887 221 886.5 221.5Q886 222 886 223Q880 248 869.5 284.5Q859 321 844 363.5Q829 406 808.5 452Q788 498 763 543Q720 621 668 674Q710 710 758 730.5Q806 751 859 751ZM1151 474Q1151 541 1126.5 602Q1102 663 1057 708Q975 787 859 787Q793 787 738.5 762.5Q684 738 641 700Q591 743 536 765.5Q481 788 420 788Q306 788 225 710Q180 665 155 603.5Q130 542 130 473Q130 400 155 331.5Q180 263 220 205Q252 157 294.5 112Q337 67 391 25Q436 -11 478 -38.5Q520 -66 553 -85Q586 -104 607 -113.5Q628 -123 630 -124Q639 -128 648 -124Q650 -123 671 -113.5Q692 -104 725.5 -85Q759 -66 801.5 -39Q844 -12 889 24Q995 107 1060 203Q1103 266 1127 334.5Q1151 403 1151 474ZM1094 734Q1142 684 1168.5 615.5Q1195 547 1195 473Q1195 400 1172.5 332Q1150 264 1111.5 202Q1073 140 1021.5 85.5Q970 31 912 -15Q854 -61 792 -98Q730 -135 670 -162Q652 -170 639 -170Q626 -170 608 -162Q546 -134 483 -96Q420 -58 362 -11Q304 36 253.5 91Q203 146 166 207.5Q129 269 107.5 336.5Q86 404 86 475Q86 550 113 618.5Q140 687 188 737Q234 784 294.5 807Q355 830 423 830Q490 830 545.5 806Q601 782 645 744Q693 787 747.5 807.5Q802 828 862 828Q929 828 989 804.5Q1049 781 1094 734Z" glyph-name="apple" horiz-adv-x="1200" unicode="&#63743;" /><glyph d="M164 484Q179 484 213 474Q247 464 285 452Q323 440 355.5 430Q388 420 400 420Q418 420 430 431.5Q442 443 449 481H490L487 467Q483 450 477 434Q471 418 460.5 406Q450 394 433.5 386.5Q417 379 392 379Q382 379 363 383.5Q344 388 320 395.5Q296 403 270.5 411Q245 419 221.5 426.5Q198 434 180.5 438.5Q163 443 155 443Q137 443 125.5 431.5Q114 420 107 382H66L69 396Q73 413 79 429Q85 445 95.5 457Q106 469 122.5 476.5Q139 484 164 484ZM137 323Q152 323 186 313Q220 303 258 291Q296 279 328.5 269Q361 259 373 259Q391 259 403 270.5Q415 282 422 320H463L460 306Q456 289 450 273Q444 257 433.5 245Q423 233 406.5 225.5Q390 218 365 218Q355 218 336 222.5Q317 227 293 234.5Q269 242 243.5 250Q218 258 194.5 265.5Q171 273 153.5 277.5Q136 282 128 282Q110 282 98.5 270.5Q87 259 80 221H39L42 235Q46 252 52 268Q58 284 68.5 296Q79 308 95.5 315.5Q112 323 137 323Z" glyph-name="approxequal" horiz-adv-x="480" unicode="&#8776;" /><glyph d="M325 301Q311 301 284 308.5Q257 316 227.5 325Q198 334 172.5 341.5Q147 349 138 349Q121 349 112 338.5Q103 328 99 303H60L63 316Q65 329 70 342.5Q75 356 84 366Q93 376 107 382.5Q121 389 142 389Q155 389 182 381.5Q209 374 238 365.5Q267 357 292 349.5Q317 342 328 342Q343 342 353 350.5Q363 359 367 388H407L404 374Q401 361 396.5 348Q392 335 383 324.5Q374 314 360 307.5Q346 301 325 301ZM303 170Q289 170 262 177.5Q235 185 205.5 194Q176 203 150.5 210.5Q125 218 116 218Q99 218 90 208Q81 198 77 172H38L41 186Q43 199 48 212Q53 225 62 235Q71 245 85 251.5Q99 258 120 258Q133 258 160 250.5Q187 243 216 234.5Q245 226 270 218.5Q295 211 306 211Q321 211 331 219.5Q341 228 345 257H385L382 243Q379 230 374.5 217Q370 204 361 193.5Q352 183 338 176.5Q324 170 303 170Z" glyph-name="approxequal.smcp" horiz-adv-x="424" unicode="&#62005;" /><glyph d="M313 491Q293 491 275 498.5Q257 506 243 519Q229 532 221 550Q213 568 213 589Q213 610 221 628Q229 646 243 659Q257 672 275 679.5Q293 687 313 687Q333 687 351 679.5Q369 672 383 659Q397 646 405 628Q413 610 413 589Q413 568 405 550Q397 532 383 519Q369 506 351 498.5Q333 491 313 491ZM313 652Q285 652 268.5 633.5Q252 615 252 589Q252 563 268.5 544.5Q285 526 313 526Q341 526 357.5 544.5Q374 563 374 589Q374 615 357.5 633.5Q341 652 313 652ZM512 434 438 0H396L409 81Q384 41 338.5 14.5Q293 -12 239 -12Q195 -12 159 3.5Q123 19 97.5 46.5Q72 74 57.5 111Q43 148 43 192Q43 247 62 294Q81 341 112.5 374.5Q144 408 185.5 427Q227 446 273 446Q303 446 331.5 437Q360 428 383.5 411.5Q407 395 424 371.5Q441 348 450 318L460 375L470 434ZM85 192Q85 159 95 129Q105 99 125 76Q145 53 174 39.5Q203 26 241 26Q280 26 315.5 42.5Q351 59 377 88.5Q403 118 418.5 157.5Q434 197 434 242Q434 277 422.5 307Q411 337 390 359.5Q369 382 339.5 395Q310 408 274 408Q234 408 199.5 391Q165 374 139.5 345Q114 316 99.5 276.5Q85 237 85 192Z" glyph-name="aring" horiz-adv-x="549" unicode="&#229;" /><glyph d="M302 586V207L485 395L516 364L281 121L45 364L77 395L259 207V586Z" glyph-name="arrow.down" horiz-adv-x="562" unicode="&#62245;" /><glyph d="M259 121V500L77 312L45 343L281 586L516 343L485 312L302 500V121Z" glyph-name="arrow.up" horiz-adv-x="562" unicode="&#62244;" /><glyph d="M453 488 185 220 447 223V179L109 174L114 512H159L155 250L423 518Z" glyph-name="arrowdown.left" horiz-adv-x="562" unicode="&#62248;" /><glyph d="M139 518 407 250 403 512H448L453 174L115 179V223L377 220L109 488Z" glyph-name="arrowdown.right" horiz-adv-x="562" unicode="&#62249;" /><glyph d="M423 174 155 442 159 180H114L109 518L447 513V469L185 472L453 204Z" glyph-name="arrowup.left" horiz-adv-x="562" unicode="&#62246;" /><glyph d="M109 204 377 472 115 469V513L453 518L448 180H403L407 442L139 174Z" glyph-name="arrowup.right" horiz-adv-x="562" unicode="&#62247;" /><glyph d="M294 700H357L416 225H371L321 664L112 225H63Z" glyph-name="asciicircum" horiz-adv-x="472" unicode="^" /><glyph d="M151 407Q166 407 200 397Q234 387 272 375Q310 363 342.5 353Q375 343 387 343Q405 343 417 354.5Q429 366 436 404H477L474 390Q470 373 464 357Q458 341 447.5 329Q437 317 420.5 309.5Q404 302 379 302Q369 302 350 306.5Q331 311 307 318.5Q283 326 257.5 334Q232 342 208.5 349.5Q185 357 167.5 361.5Q150 366 142 366Q124 366 112.5 354.5Q101 343 94 305H53L56 319Q60 336 66 352Q72 368 82.5 380Q93 392 109.5 399.5Q126 407 151 407Z" glyph-name="asciitilde" horiz-adv-x="480" unicode="~" /><glyph d="M146 438Q132 433 120 439.5Q108 446 103 460Q99 474 106 486.5Q113 499 125 504Q134 507 150.5 508.5Q167 510 185 511Q203 512 219.5 512.5Q236 513 245 514L251 496Q242 491 228 482.5Q214 474 198.5 465Q183 456 169 448.5Q155 441 146 438ZM389 395Q382 401 371.5 413Q361 425 349.5 438.5Q338 452 327.5 464.5Q317 477 311 485L323 500Q331 496 346 490Q361 484 377.5 477Q394 470 408.5 463Q423 456 431 450Q442 442 443.5 427Q445 412 437 401Q428 390 414.5 388Q401 386 389 395ZM288 476Q289 467 290 450.5Q291 434 292 416Q293 398 293 381.5Q293 365 292 355Q290 341 278.5 333.5Q267 326 253 328Q238 330 230 341.5Q222 353 224 367Q226 377 232 392.5Q238 408 245 424.5Q252 441 258.5 456Q265 471 269 479ZM182 640Q189 634 199.5 622Q210 610 221.5 596.5Q233 583 243.5 570Q254 557 260 550L248 535Q240 539 225 545Q210 551 193.5 558Q177 565 162 572Q147 579 140 585Q129 593 127.5 608Q126 623 134 634Q143 645 156.5 647Q170 649 182 640ZM425 597Q439 602 451 595.5Q463 589 468 575Q472 561 465 548.5Q458 536 446 531Q437 528 420.5 526.5Q404 525 386 524Q368 523 351.5 522.5Q335 522 326 521L320 539Q329 544 343 552.5Q357 561 372.5 570Q388 579 402 586.5Q416 594 425 597ZM283 559Q282 568 281 584.5Q280 601 279 619Q278 637 277.5 653.5Q277 670 279 680Q281 694 293 701.5Q305 709 319 707Q333 705 341 693.5Q349 682 347 668Q345 658 339 642.5Q333 627 326 610.5Q319 594 312.5 579Q306 564 302 556Z" glyph-name="asterisk" horiz-adv-x="471" unicode="*" /><glyph d="M258 192Q258 159 268 129Q278 99 298 76Q318 53 347 39.5Q376 26 414 26Q453 26 488.5 42.5Q524 59 550 88.5Q576 118 591.5 157.5Q607 197 607 242Q607 277 595.5 307Q584 337 563 359.5Q542 382 512.5 395Q483 408 447 408Q407 408 372.5 391Q338 374 312.5 345Q287 316 272.5 276.5Q258 237 258 192ZM582 81Q557 41 511.5 14.5Q466 -12 412 -12Q368 -12 332 3.5Q296 19 270.5 46.5Q245 74 230.5 111Q216 148 216 192Q216 247 235 294Q254 341 285.5 374.5Q317 408 358.5 427Q400 446 446 446Q476 446 504.5 437Q533 428 556.5 411.5Q580 395 597 371.5Q614 348 623 318L643 434H685L629 111Q626 93 624 77Q622 61 623.5 50Q625 39 631.5 32.5Q638 26 652 26Q682 26 710 46.5Q738 67 759 101Q780 135 792.5 180Q805 225 805 274Q805 338 780.5 394Q756 450 712.5 492Q669 534 609.5 558Q550 582 480 582Q408 582 338 553.5Q268 525 213 472.5Q158 420 124.5 346Q91 272 91 181Q91 108 118 47.5Q145 -13 191.5 -56.5Q238 -100 300.5 -124Q363 -148 434 -148Q482 -148 529 -137.5Q576 -127 613 -103L672 -112Q571 -186 438 -186Q354 -186 282.5 -158.5Q211 -131 159.5 -83Q108 -35 79 31.5Q50 98 50 176Q50 272 83.5 353Q117 434 175.5 493.5Q234 553 313 586Q392 619 482 619Q555 619 621 594Q687 569 736.5 523.5Q786 478 815 414.5Q844 351 844 275Q844 205 826.5 151.5Q809 98 781 61.5Q753 25 717.5 6.5Q682 -12 646 -12Q622 -12 608 -3Q594 6 587 19.5Q580 33 579.5 49.5Q579 66 582 81Z" glyph-name="at" horiz-adv-x="878" unicode="@" /><glyph d="M280 324Q280 291 290 261Q300 231 320 208Q340 185 369 171.5Q398 158 436 158Q475 158 510.5 174.5Q546 191 572 220.5Q598 250 613.5 289.5Q629 329 629 374Q629 409 617.5 439Q606 469 585 491.5Q564 514 534.5 527Q505 540 469 540Q429 540 394.5 523Q360 506 334.5 477Q309 448 294.5 408.5Q280 369 280 324ZM604 213Q579 173 533.5 146.5Q488 120 434 120Q390 120 354 135.5Q318 151 292.5 178.5Q267 206 252.5 243Q238 280 238 324Q238 379 257 426Q276 473 307.5 506.5Q339 540 380.5 559Q422 578 468 578Q498 578 526.5 569Q555 560 578.5 543.5Q602 527 619 503.5Q636 480 645 450L665 566H707L651 243Q648 225 646 209Q644 193 645.5 182Q647 171 653.5 164.5Q660 158 674 158Q704 158 732 178.5Q760 199 781 233Q802 267 814.5 312Q827 357 827 406Q827 470 802.5 526Q778 582 734.5 624Q691 666 631.5 690Q572 714 502 714Q430 714 360 685.5Q290 657 235 604.5Q180 552 146.5 478Q113 404 113 313Q113 240 140 179.5Q167 119 213.5 75.5Q260 32 322.5 8Q385 -16 456 -16Q504 -16 551 -5.5Q598 5 635 29L694 20Q593 -54 460 -54Q376 -54 304.5 -26.5Q233 1 181.5 49Q130 97 101 163.5Q72 230 72 308Q72 404 105.5 485Q139 566 197.5 625.5Q256 685 335 718Q414 751 504 751Q577 751 643 726Q709 701 758.5 655.5Q808 610 837 546.5Q866 483 866 407Q866 337 848.5 283.5Q831 230 803 193.5Q775 157 739.5 138.5Q704 120 668 120Q644 120 630 129Q616 138 609 151.5Q602 165 601.5 181.5Q601 198 604 213Z" glyph-name="at.alt" horiz-adv-x="874" unicode="&#62208;" /><glyph d="M277 623Q294 623 309 615Q324 607 337 598Q350 589 361 581Q372 573 382 573Q401 573 408.5 586.5Q416 600 418 615L419 623L454 613Q454 604 450.5 590.5Q447 577 439 564Q431 551 416.5 542Q402 533 380 533Q364 533 349.5 541Q335 549 322.5 558Q310 567 298 575Q286 583 275 583Q256 583 248.5 569.5Q241 556 239 541L238 533L203 543Q203 552 206.5 565.5Q210 579 218 592Q226 605 240 614Q254 623 277 623ZM512 434 438 0H396L409 81Q384 41 338.5 14.5Q293 -12 239 -12Q195 -12 159 3.5Q123 19 97.5 46.5Q72 74 57.5 111Q43 148 43 192Q43 247 62 294Q81 341 112.5 374.5Q144 408 185.5 427Q227 446 273 446Q303 446 331.5 437Q360 428 383.5 411.5Q407 395 424 371.5Q441 348 450 318L460 375L470 434ZM85 192Q85 159 95 129Q105 99 125 76Q145 53 174 39.5Q203 26 241 26Q280 26 315.5 42.5Q351 59 377 88.5Q403 118 418.5 157.5Q434 197 434 242Q434 277 422.5 307Q411 337 390 359.5Q369 382 339.5 395Q310 408 274 408Q234 408 199.5 391Q165 374 139.5 345Q114 316 99.5 276.5Q85 237 85 192Z" glyph-name="atilde" horiz-adv-x="549" unicode="&#227;" /><glyph d="M37 0 156 700H198L146 395L139 353Q164 393 210 419.5Q256 446 310 446Q353 446 389.5 430.5Q426 415 451.5 387.5Q477 360 491.5 322.5Q506 285 506 242Q506 186 487 139.5Q468 93 436.5 59.5Q405 26 363.5 7Q322 -12 276 -12Q246 -12 217.5 -3Q189 6 165.5 22.5Q142 39 125 62.5Q108 86 99 116L79 0ZM464 242Q464 275 454 305Q444 335 424 358Q404 381 375 394.5Q346 408 308 408Q269 408 233.5 391.5Q198 375 172 345.5Q146 316 130.5 276.5Q115 237 115 192Q115 157 126.5 127Q138 97 159 74.5Q180 52 209.5 39Q239 26 275 26Q315 26 349.5 43Q384 60 409.5 89Q435 118 449.5 157.5Q464 197 464 242Z" glyph-name="b" horiz-adv-x="548" unicode="b" /><glyph d="M272 0H232L124 700H163Z" glyph-name="backslash" horiz-adv-x="350" unicode="\" /><glyph d="M106 560H143L231 0H193Z" glyph-name="backslash.smcp" horiz-adv-x="315" unicode="&#58472;" /><glyph d="M181 760H226L78 -93H33Z" glyph-name="bar" horiz-adv-x="217" unicode="|" /><glyph d="M155 608H196L77 -74H36Z" glyph-name="bar.smcp" horiz-adv-x="214" unicode="&#58473;" /><glyph d="M54 321H133L198 700H384L376 658H236L187 372Q182 347 170 327Q158 307 132 300Q151 296 159.5 280Q168 264 164 241L103 -111H243L236 -153H50L125 281H48Z" glyph-name="braceleft" horiz-adv-x="340" unicode="{" /><glyph d="M68 396H147L212 775H398L390 733H250L201 447Q196 422 184 402Q172 382 146 375Q165 371 173.5 355Q182 339 178 316L117 -36H257L250 -78H64L139 356H62Z" glyph-name="braceleft.cap" horiz-adv-x="344" unicode="&#58517;" /><glyph d="M106 285H42L49 323H113L165 624H321L313 586H200L162 362Q158 342 149 325Q140 308 117 303Q134 299 139.5 284.5Q145 270 142 253L95 -20H209L202 -58H47Z" glyph-name="braceleft.smcp" horiz-adv-x="276" unicode="&#58525;" /><glyph d="M314 281H235L161 -153H-23L-16 -111H123L183 241Q187 264 201.5 280Q216 296 236 300Q213 307 207 327Q201 347 206 372L256 658H116L124 700H309L243 321H320Z" glyph-name="braceright" horiz-adv-x="338" unicode="}" /><glyph d="M330 356H251L177 -78H-7L0 -36H139L199 316Q203 339 217.5 355Q232 371 252 375Q229 382 223 402Q217 422 222 447L272 733H132L140 775H325L259 396H336Z" glyph-name="braceright.cap" horiz-adv-x="342" unicode="&#58518;" /><glyph d="M201 323H265L258 285H194L135 -58H-21L-13 -20H100L145 246Q149 266 158 283Q167 300 190 305Q173 309 167.5 323.5Q162 338 165 355L205 586H91L98 624H253Z" glyph-name="braceright.smcp" horiz-adv-x="276" unicode="&#58526;" /><glyph d="M206 658 73 -111H216L209 -153H23L170 700H357L349 658Z" glyph-name="bracketleft" horiz-adv-x="313" unicode="[" /><glyph d="M226 733 93 -36H236L229 -78H43L190 775H377L369 733Z" glyph-name="bracketleft.cap" horiz-adv-x="323" unicode="&#58515;" /><glyph d="M158 624H314L307 585H193L88 -20H202L195 -58H40Z" glyph-name="bracketleft.smcp" horiz-adv-x="269" unicode="&#58523;" /><glyph d="M117 658 124 700H311L163 -153H-23L-15 -111H127L260 658Z" glyph-name="bracketright" horiz-adv-x="313" unicode="]" /><glyph d="M132 733 139 775H326L178 -78H-8L0 -36H142L275 733Z" glyph-name="bracketright.cap" horiz-adv-x="321" unicode="&#58516;" /><glyph d="M-13 -19H100L205 585H91L98 624H254L135 -58H-20Z" glyph-name="bracketright.smcp" horiz-adv-x="269" unicode="&#58524;" /><glyph d="M121 610Q121 584 136 569Q151 554 183 554Q208 554 224 570.5Q240 587 245 617L250 645H287L282 613Q276 573 250 545.5Q224 518 177 518Q132 518 107.5 542Q83 566 83 605Q83 611 83.5 618.5Q84 626 88 645H125Q122 628 121.5 621Q121 614 121 610Z" glyph-name="breve" horiz-adv-x="253" unicode="&#728;" /><glyph d="M218 659Q266 659 277 718L279 730H319L315 706Q308 664 279.5 642.5Q251 621 216 621Q198 621 181.5 627Q165 633 153 644.5Q141 656 135.5 672.5Q130 689 134 710L138 730H178L175 715Q168 688 182.5 673.5Q197 659 218 659Z" glyph-name="breve.smcp" horiz-adv-x="300" unicode="&#63220;" /><glyph d="M33 -93 94 257H141L80 -93ZM120 410 181 760H228L167 410Z" glyph-name="brokenbar" horiz-adv-x="219" unicode="&#166;" /><glyph d="M156 608H199L150 327H106ZM86 206H129L80 -74H37Z" glyph-name="brokenbar.smcp" horiz-adv-x="218" unicode="&#58475;" /><glyph d="M111 359Q111 390 133.5 412.5Q156 435 188 435Q219 435 241.5 412.5Q264 390 264 359Q264 327 241.5 304.5Q219 282 188 282Q156 282 133.5 304.5Q111 327 111 359Z" glyph-name="bullet" horiz-adv-x="329" unicode="&#8226;" /><glyph d="M435 107Q406 52 353.5 20Q301 -12 240 -12Q197 -12 161 3.5Q125 19 98.5 46Q72 73 57 110.5Q42 148 42 192Q42 247 60.5 293.5Q79 340 111 374Q143 408 185 427Q227 446 274 446Q343 446 390 410.5Q437 375 458 317L420 300Q405 346 369 377Q333 408 274 408Q234 408 199.5 391Q165 374 139.5 344.5Q114 315 99 275.5Q84 236 84 190Q84 157 94.5 127.5Q105 98 125 75.5Q145 53 174 39.5Q203 26 241 26Q292 26 332 53Q372 80 398 125Z" glyph-name="c" horiz-adv-x="483" unicode="c" /><glyph d="M351 676H408L315 523H276ZM436 107Q407 52 354.5 20Q302 -12 241 -12Q198 -12 162 3.5Q126 19 99.5 46Q73 73 58 110.5Q43 148 43 192Q43 247 61.5 293.5Q80 340 112 374Q144 408 186 427Q228 446 275 446Q344 446 391 410.5Q438 375 459 317L421 300Q406 346 370 377Q334 408 275 408Q235 408 200.5 391Q166 374 140.5 344.5Q115 315 100 275.5Q85 236 85 190Q85 157 95.5 127.5Q106 98 126 75.5Q146 53 175 39.5Q204 26 242 26Q293 26 333 53Q373 80 399 125Z" glyph-name="cacute" horiz-adv-x="484" unicode="&#263;" /><glyph d="M214 523H160L114 676H155L190 557L288 676H333Z" glyph-name="caron" horiz-adv-x="281" unicode="&#711;" /><glyph d="M234 605H183L133 730H175L213 640L284 730H329Z" glyph-name="caron.smcp" horiz-adv-x="300" unicode="&#63221;" /><glyph d="M333 523H279L233 676H274L309 557L407 676H452ZM436 107Q407 52 354.5 20Q302 -12 241 -12Q198 -12 162 3.5Q126 19 99.5 46Q73 73 58 110.5Q43 148 43 192Q43 247 61.5 293.5Q80 340 112 374Q144 408 186 427Q228 446 275 446Q344 446 391 410.5Q438 375 459 317L421 300Q406 346 370 377Q334 408 275 408Q235 408 200.5 391Q166 374 140.5 344.5Q115 315 100 275.5Q85 236 85 190Q85 157 95.5 127.5Q106 98 126 75.5Q146 53 175 39.5Q204 26 242 26Q293 26 333 53Q373 80 399 125Z" glyph-name="ccaron" horiz-adv-x="484" unicode="&#269;" /><glyph d="M204 -8Q169 -2 139.5 15.5Q110 33 89 59Q68 85 56 119Q44 153 44 192Q44 247 62.5 293.5Q81 340 113 374Q145 408 187 427Q229 446 276 446Q345 446 392 410.5Q439 375 460 317L422 300Q407 346 371 377Q335 408 276 408Q236 408 201.5 391Q167 374 141.5 344.5Q116 315 101 275.5Q86 236 86 190Q86 157 96.5 127.5Q107 98 127 75.5Q147 53 176 39.5Q205 26 243 26Q294 26 334 53Q374 80 400 125L437 107Q408 53 357 21.5Q306 -10 246 -12L173 -136H131Z" glyph-name="ccedilla" horiz-adv-x="486" unicode="&#231;" /><glyph d="M409 523H368L322 642L235 523H190L299 676H353ZM436 107Q407 52 354.5 20Q302 -12 241 -12Q198 -12 162 3.5Q126 19 99.5 46Q73 73 58 110.5Q43 148 43 192Q43 247 61.5 293.5Q80 340 112 374Q144 408 186 427Q228 446 275 446Q344 446 391 410.5Q438 375 459 317L421 300Q406 346 370 377Q334 408 275 408Q235 408 200.5 391Q166 374 140.5 344.5Q115 315 100 275.5Q85 236 85 190Q85 157 95.5 127.5Q106 98 126 75.5Q146 53 175 39.5Q204 26 242 26Q293 26 333 53Q373 80 399 125Z" glyph-name="ccircumflex" horiz-adv-x="484" unicode="&#265;" /><glyph d="M261 583Q261 603 275 617Q289 631 309 631Q329 631 343 617Q357 603 357 583Q357 563 343 549Q329 535 309 535Q289 535 275 549Q261 563 261 583ZM436 107Q407 52 354.5 20Q302 -12 241 -12Q198 -12 162 3.5Q126 19 99.5 46Q73 73 58 110.5Q43 148 43 192Q43 247 61.5 293.5Q80 340 112 374Q144 408 186 427Q228 446 275 446Q344 446 391 410.5Q438 375 459 317L421 300Q406 346 370 377Q334 408 275 408Q235 408 200.5 391Q166 374 140.5 344.5Q115 315 100 275.5Q85 236 85 190Q85 157 95.5 127.5Q106 98 126 75.5Q146 53 175 39.5Q204 26 242 26Q293 26 333 53Q373 80 399 125Z" glyph-name="cdotaccent" horiz-adv-x="484" unicode="&#267;" /><glyph d="M10 -8H54L-22 -136H-64Z" glyph-name="cedilla" horiz-adv-x="147" unicode="&#184;" /><glyph d="M108 0H156L81 -127H39Z" glyph-name="cedilla.smcp" horiz-adv-x="300" unicode="&#63416;" /><glyph d="M110 323Q110 273 133 232Q156 191 201 172L310 540Q307 540 304.5 540.5Q302 541 300 541Q260 541 225.5 524Q191 507 165.5 477.5Q140 448 125 408.5Q110 369 110 323ZM461 240Q432 185 379.5 153Q327 121 266 121Q246 121 227 124L191 0H151L190 135Q135 157 101.5 207.5Q68 258 68 325Q68 380 86.5 426.5Q105 473 137 507Q169 541 211 560Q253 579 300 579Q305 579 310.5 578.5Q316 578 321 578L357 700H397L359 571Q404 557 435.5 526Q467 495 484 450L446 433Q434 468 410 495.5Q386 523 348 534L238 161Q245 159 252 159Q259 159 267 159Q318 159 358 186Q398 213 424 258Z" glyph-name="cent" horiz-adv-x="496" unicode="&#162;" /><glyph d="M98 261Q98 223 115.5 192Q133 161 165 145L249 429H245Q214 429 187.5 416Q161 403 141 380.5Q121 358 109.5 327Q98 296 98 261ZM220 97Q203 97 187 100L158 0H122L154 109Q109 128 83 168.5Q57 209 57 263Q57 306 72 343Q87 380 112.5 407.5Q138 435 172 450.5Q206 466 244 466Q248 466 252 466Q256 466 260 465L288 560H324L294 459Q329 448 353.5 425Q378 402 392 369L356 350Q347 376 328.5 395.5Q310 415 283 423L198 134Q203 133 209 133Q215 133 221 133Q260 133 290.5 153Q321 173 341 208L376 188Q352 146 311 121.5Q270 97 220 97Z" glyph-name="cent.smcp" horiz-adv-x="416" unicode="&#63109;" /><glyph d="M296 523H255L209 642L122 523H77L186 676H240Z" glyph-name="circumflex" horiz-adv-x="281" unicode="&#710;" /><glyph d="M306 605H266L227 695L157 605H110L206 730H257Z" glyph-name="circumflex.smcp" horiz-adv-x="300" unicode="&#63222;" /><glyph d="M95 384Q95 405 109.5 419.5Q124 434 145 434Q166 434 180.5 419.5Q195 405 195 384Q195 363 180.5 348.5Q166 334 145 334Q124 334 109.5 348.5Q95 363 95 384ZM45 44Q45 65 59.5 79.5Q74 94 95 94Q116 94 130.5 79.5Q145 65 145 44Q145 23 130.5 8.5Q116 -6 95 -6Q74 -6 59.5 8.5Q45 23 45 44Z" glyph-name="colon" horiz-adv-x="241" unicode=":" /><glyph d="M41 44Q41 64 55.5 79Q70 94 91 94Q111 94 126 80Q141 66 141 45Q141 22 126 5L54 -87L13 -80L65 -1Q54 5 47.5 17Q41 29 41 44Z" glyph-name="comma" horiz-adv-x="237" unicode="," /><glyph d="M-23 -127Q-23 -107 -8.5 -92Q6 -77 27 -77Q47 -77 61.5 -90.5Q76 -104 76 -125Q76 -148 59 -169L-10 -256L-51 -249L1 -171Q-10 -165 -16.5 -153Q-23 -141 -23 -127Z" glyph-name="commaaccent" horiz-adv-x="205" unicode="&#58388;" /><glyph d="M53 -82Q53 -65 65.5 -52.5Q78 -40 95 -40Q112 -40 124.5 -52Q137 -64 137 -81Q137 -100 124 -115L64 -192L30 -186L73 -120Q65 -115 59 -105Q53 -95 53 -82Z" glyph-name="commaaccent.smcp" horiz-adv-x="300" unicode="&#63080;" /><glyph d="M444 675Q378 675 319.5 651Q261 627 217.5 584Q174 541 148.5 481Q123 421 123 350Q123 279 148.5 219.5Q174 160 217.5 116.5Q261 73 319.5 49Q378 25 444 25Q510 25 568.5 49Q627 73 670.5 116.5Q714 160 739.5 219.5Q765 279 765 350Q765 421 739.5 481Q714 541 670.5 584Q627 627 568.5 651Q510 675 444 675ZM444 712Q519 712 585.5 685Q652 658 701.5 610Q751 562 779.5 495.5Q808 429 808 350Q808 271 779.5 204.5Q751 138 701.5 90Q652 42 585.5 15Q519 -12 444 -12Q369 -12 302.5 15Q236 42 186.5 90Q137 138 108.5 204.5Q80 271 80 350Q80 429 108.5 495.5Q137 562 186.5 610Q236 658 302.5 685Q369 712 444 712ZM292 350Q292 314 303.5 283.5Q315 253 335.5 230.5Q356 208 385 195.5Q414 183 450 183Q501 183 537.5 208.5Q574 234 588 277H636Q627 247 609.5 222.5Q592 198 568 180.5Q544 163 514.5 153.5Q485 144 452 144Q408 144 371 159Q334 174 306 201.5Q278 229 262.5 267Q247 305 247 350Q247 395 262.5 433Q278 471 306 498.5Q334 526 371 541.5Q408 557 452 557Q485 557 514.5 547.5Q544 538 568 520.5Q592 503 609.5 478.5Q627 454 636 424H588Q574 467 537.5 492.5Q501 518 450 518Q414 518 385 505Q356 492 335.5 469.5Q315 447 303.5 416.5Q292 386 292 350Z" glyph-name="copyright" horiz-adv-x="841" unicode="&#169;" /><glyph d="M436 107Q407 52 354.5 20Q302 -12 241 -12Q198 -12 162 3.5Q126 19 99.5 46Q73 73 58 110.5Q43 148 43 192Q43 245 60.5 290Q78 335 108 368.5Q138 402 177.5 422Q217 442 262 445Q242 467 235.5 493Q229 519 233 542Q236 559 246 578.5Q256 598 276.5 614.5Q297 631 329 641.5Q361 652 408 652H697L659 434H766L759 398H652L597 79Q595 66 598.5 57Q602 48 608.5 42Q615 36 624.5 33.5Q634 31 644 31Q655 31 665 31.5Q675 32 682 33Q690 34 696 36L690 0Q685 -1 678 -2Q672 -3 662.5 -3.5Q653 -4 640 -4Q624 -4 607 -0.5Q590 3 577 13.5Q564 24 558 42Q552 60 557 90L610 398H536L543 434H617L649 616H409Q353 616 316.5 595.5Q280 575 272 535Q267 501 279 478Q291 455 313 442Q367 433 404 400Q441 367 459 317L421 300Q406 346 370 377Q334 408 275 408Q235 408 200.5 391Q166 374 140.5 344.5Q115 315 100 275.5Q85 236 85 190Q85 157 95.5 127.5Q106 98 126 75.5Q146 53 175 39.5Q204 26 242 26Q293 26 333 53Q373 80 399 125Z" glyph-name="ct" horiz-adv-x="747" unicode="&#62211;" /><glyph d="M155 321Q155 280 168 242.5Q181 205 206.5 177Q232 149 269.5 132.5Q307 116 357 116Q408 116 452.5 137Q497 158 531 193.5Q565 229 584.5 275.5Q604 322 604 374Q604 417 590 455Q576 493 549.5 521Q523 549 484.5 565.5Q446 582 398 582Q347 582 302.5 561.5Q258 541 225.5 506Q193 471 174 423Q155 375 155 321ZM111 322Q111 384 136 441Q161 498 207 545L137 639L172 665L240 572Q277 597 321 609.5Q365 622 406 622Q430 622 455.5 616.5Q481 611 505.5 601Q530 591 551.5 575.5Q573 560 590 541L690 619L713 587L611 509Q632 474 639.5 438.5Q647 403 647 371Q647 312 620 255Q593 198 548 154L621 61L586 36L516 128Q481 103 437 90Q393 77 345 77Q321 77 296 83Q271 89 247.5 99.5Q224 110 203 124.5Q182 139 167 157L67 79L44 112L148 189Q128 222 119.5 256Q111 290 111 322Z" glyph-name="currency" horiz-adv-x="710" unicode="&#164;" /><glyph d="M274 446Q335 446 384 412Q433 378 451 318L463 390L516 700H558L438 0H396L411 81Q385 41 339 14.5Q293 -12 239 -12Q196 -12 160 3.5Q124 19 98 46.5Q72 74 57.5 111Q43 148 43 192Q43 247 62 294Q81 341 112.5 374.5Q144 408 186 427Q228 446 274 446ZM85 192Q85 159 95 129Q105 99 125 76Q145 53 174 39.5Q203 26 241 26Q280 26 315.5 42.5Q351 59 377 88.5Q403 118 418.5 157.5Q434 197 434 242Q434 277 422.5 307Q411 337 390.5 359.5Q370 382 340.5 395Q311 408 275 408Q235 408 200.5 391Q166 374 140.5 345Q115 316 100 276.5Q85 237 85 192Z" glyph-name="d" horiz-adv-x="549" unicode="d" /><glyph d="M302 449H484L477 407H295L223 0H179L251 407H70L77 449H258L302 700H346Z" glyph-name="dagger" horiz-adv-x="480" unicode="&#8224;" /><glyph d="M223 0H179L223 253H42L50 295H231L252 417H71L79 459H260L302 700H346L304 459H486L478 417H296L275 295H457L449 253H267Z" glyph-name="daggerdbl" horiz-adv-x="480" unicode="&#8225;" /><glyph d="M619 662Q619 682 633.5 697Q648 712 669 712Q689 712 703.5 698.5Q718 685 718 664Q718 641 701 620L632 533L591 540L643 618Q632 624 625.5 636Q619 648 619 662ZM274 446Q335 446 384 412Q433 378 451 318L463 390L516 700H558L438 0H396L411 81Q385 41 339 14.5Q293 -12 239 -12Q196 -12 160 3.5Q124 19 98 46.5Q72 74 57.5 111Q43 148 43 192Q43 247 62 294Q81 341 112.5 374.5Q144 408 186 427Q228 446 274 446ZM85 192Q85 159 95 129Q105 99 125 76Q145 53 174 39.5Q203 26 241 26Q280 26 315.5 42.5Q351 59 377 88.5Q403 118 418.5 157.5Q434 197 434 242Q434 277 422.5 307Q411 337 390.5 359.5Q370 382 340.5 395Q311 408 275 408Q235 408 200.5 391Q166 374 140.5 345Q115 316 100 276.5Q85 237 85 192Z" glyph-name="dcaron" horiz-adv-x="549" unicode="&#271;" /><glyph d="M85 192Q85 159 95 129Q105 99 125 76Q145 53 174 39.5Q203 26 241 26Q280 26 315.5 42.5Q351 59 377 88.5Q403 118 418.5 157.5Q434 197 434 242Q434 277 422.5 307Q411 337 390.5 359.5Q370 382 340.5 395Q311 408 275 408Q235 408 200.5 391Q166 374 140.5 345Q115 316 100 276.5Q85 237 85 192ZM333 600H498L516 700H558L540 600H628L621 564H534L438 0H396L411 81Q385 41 339 14.5Q293 -12 239 -12Q196 -12 160 3.5Q124 19 98 46.5Q72 74 57.5 111Q43 148 43 192Q43 247 62 294Q81 341 112.5 374.5Q144 408 186 427Q228 446 274 446Q335 446 384 412Q433 378 451 318L463 390L492 564H326Z" glyph-name="dcroat" horiz-adv-x="549" unicode="&#273;" /><glyph d="M159 573Q159 552 166.5 533Q174 514 187 500Q200 486 217.5 478Q235 470 255 470Q275 470 292.5 478Q310 486 323.5 500Q337 514 345.5 533Q354 552 354 573Q354 594 345.5 613Q337 632 323.5 645.5Q310 659 292.5 667Q275 675 255 675Q235 675 217.5 667Q200 659 187 645.5Q174 632 166.5 613Q159 594 159 573ZM117 573Q117 602 127.5 627.5Q138 653 156.5 671.5Q175 690 200.5 701Q226 712 255 712Q284 712 309.5 701Q335 690 353.5 671.5Q372 653 383.5 627.5Q395 602 395 573Q395 544 383.5 518.5Q372 493 353.5 474.5Q335 456 309.5 445Q284 434 255 434Q226 434 200.5 445Q175 456 156.5 474.5Q138 493 127.5 518.5Q117 544 117 573Z" glyph-name="degree" horiz-adv-x="386" unicode="&#176;" /><glyph d="M262 607Q279 607 292 594Q305 581 305 564Q305 547 292 534Q279 521 262 521Q245 521 232 534Q219 547 219 564Q219 581 232 594Q245 607 262 607ZM111 607Q128 607 141 594Q154 581 154 564Q154 547 141 534Q128 521 111 521Q94 521 81 534Q68 547 68 564Q68 581 81 594Q94 607 111 607Z" glyph-name="dieresis" horiz-adv-x="274" unicode="&#168;" /><glyph d="M236 670Q236 687 248.5 699.5Q261 712 279 712Q297 712 309.5 699.5Q322 687 322 670Q322 653 309.5 640.5Q297 628 279 628Q261 628 248.5 640.5Q236 653 236 670ZM118 670Q118 687 130.5 699.5Q143 712 161 712Q179 712 191.5 699.5Q204 687 204 670Q204 653 191.5 640.5Q179 628 161 628Q143 628 130.5 640.5Q118 653 118 670Z" glyph-name="dieresis.smcp" horiz-adv-x="300" unicode="&#63400;" /><glyph d="M237 524Q237 547 253.5 563.5Q270 580 293 580Q316 580 332.5 563.5Q349 547 349 524Q349 501 332 484.5Q315 468 292 468Q269 468 253 484.5Q237 501 237 524ZM176 176Q175 199 192 215.5Q209 232 232 232Q255 232 271 215.5Q287 199 288 176Q287 153 270.5 136.5Q254 120 231 120Q208 120 191.5 136.5Q175 153 176 176ZM464 335H57L64 377H471Z" glyph-name="divide" horiz-adv-x="480" unicode="&#247;" /><glyph d="M250 371Q230 371 217 384.5Q204 398 204 418Q204 438 217.5 451.5Q231 465 251 465Q271 465 284.5 451.5Q298 438 298 418Q298 398 284 384.5Q270 371 250 371ZM62 303H392L386 265H55ZM202 98Q182 98 168.5 111Q155 124 156 144Q155 164 168.5 178Q182 192 202 192Q222 192 235.5 178Q249 164 249 144Q249 124 235.5 111Q222 98 202 98Z" glyph-name="divide.smcp" horiz-adv-x="424" unicode="&#62003;" /><glyph d="M162 546Q162 501 189.5 470Q217 439 254 411L271 397L352 671Q342 673 332.5 674Q323 675 314 675Q283 675 255.5 666Q228 657 207 640.5Q186 624 174 600Q162 576 162 546ZM400 172Q400 218 369.5 254.5Q339 291 290 329L201 28Q217 25 235 25Q272 25 302.5 36Q333 47 355 67Q377 87 388.5 113.5Q400 140 400 172ZM481 597Q466 616 441.5 632.5Q417 649 388 660L303 372L310 367Q376 317 409.5 271Q443 225 443 171Q443 137 430.5 104Q418 71 392 45.5Q366 20 327 4Q288 -12 236 -12Q225 -12 213.5 -11Q202 -10 191 -8L166 -93H126L153 0Q112 13 78 36Q44 59 18 90L48 120Q67 97 97 74.5Q127 52 164 38L258 354L224 381Q174 419 146.5 456.5Q119 494 119 542Q119 582 134 613.5Q149 645 175.5 667Q202 689 237 700.5Q272 712 313 712Q325 712 337.5 710.5Q350 709 362 707L384 780H424L399 697Q431 686 460 667Q489 648 510 625Z" glyph-name="dollar" horiz-adv-x="497" unicode="$" /><glyph d="M134 434Q134 402 153 378.5Q172 355 202 332L216 321L277 531Q263 534 249 534Q199 534 166.5 508Q134 482 134 434ZM314 138Q314 172 293 200Q272 228 233 259L165 27Q170 26 176 26Q182 26 188 26Q247 26 280.5 58.5Q314 91 314 138ZM188 -10Q170 -10 154 -7L135 -74H99L121 0Q86 11 57.5 30Q29 49 11 75L38 104Q53 84 76.5 65Q100 46 131 35L204 280L177 300Q136 330 114 361Q92 392 92 430Q92 464 105 490.5Q118 517 139.5 534.5Q161 552 189.5 561Q218 570 249 570Q259 570 268.5 569Q278 568 288 566L305 624H341L321 556Q347 546 369.5 531Q392 516 409 496L382 470Q354 503 310 521L245 300L252 295Q307 253 331.5 217.5Q356 182 356 140Q356 111 345 84Q334 57 312.5 36Q291 15 259.5 2.5Q228 -10 188 -10Z" glyph-name="dollar.smcp" horiz-adv-x="414" unicode="&#63110;" /><glyph d="M115 583Q115 603 129 617Q143 631 163 631Q183 631 197 617Q211 603 211 583Q211 563 197 549Q183 535 163 535Q143 535 129 549Q115 563 115 583Z" glyph-name="dotaccent" horiz-adv-x="206" unicode="&#729;" /><glyph d="M177 670Q177 687 189.5 699.5Q202 712 220 712Q238 712 250.5 699.5Q263 687 263 670Q263 653 250.5 640.5Q238 628 220 628Q202 628 189.5 640.5Q177 653 177 670Z" glyph-name="dotaccent.smcp" horiz-adv-x="300" unicode="&#63223;" /><glyph d="M89 0H47L116 398H48L54 434H164Z" glyph-name="dotlessi" horiz-adv-x="200" unicode="&#305;" /><glyph d="M116 398H47L53 434H164L74 -91Q66 -137 45 -155.5Q24 -174 -16 -174H-70L-64 -138H-22Q3 -138 15 -128Q27 -118 32 -92Z" glyph-name="dotlessj" horiz-adv-x="201" unicode="&#567;" /><glyph d="M275 408Q240 408 209.5 395.5Q179 383 154.5 360.5Q130 338 113 307Q96 276 89 240H423Q423 274 414 305Q405 336 386.5 358.5Q368 381 340 394.5Q312 408 275 408ZM84 204Q82 166 92.5 133.5Q103 101 123.5 77Q144 53 173.5 39.5Q203 26 241 26Q292 26 335 52Q378 78 401 123L448 122Q434 91 412.5 66.5Q391 42 363.5 24.5Q336 7 304.5 -2.5Q273 -12 241 -12Q198 -12 161.5 3.5Q125 19 98.5 46Q72 73 57 110.5Q42 148 42 192Q42 247 61 293.5Q80 340 112 374Q144 408 186 427Q228 446 275 446Q318 446 353 430.5Q388 415 413 388Q438 361 451.5 323.5Q465 286 465 242Q465 238 464.5 231.5Q464 225 464 219V204Z" glyph-name="e" horiz-adv-x="503" unicode="e" /><glyph d="M365 676H422L329 523H290ZM275 408Q240 408 209.5 395.5Q179 383 154.5 360.5Q130 338 113 307Q96 276 89 240H423Q423 274 414 305Q405 336 386.5 358.5Q368 381 340 394.5Q312 408 275 408ZM84 204Q82 166 92.5 133.5Q103 101 123.5 77Q144 53 173.5 39.5Q203 26 241 26Q292 26 335 52Q378 78 401 123L448 122Q434 91 412.5 66.5Q391 42 363.5 24.5Q336 7 304.5 -2.5Q273 -12 241 -12Q198 -12 161.5 3.5Q125 19 98.5 46Q72 73 57 110.5Q42 148 42 192Q42 247 61 293.5Q80 340 112 374Q144 408 186 427Q228 446 275 446Q318 446 353 430.5Q388 415 413 388Q438 361 451.5 323.5Q465 286 465 242Q465 238 464.5 231.5Q464 225 464 219V204Z" glyph-name="eacute" horiz-adv-x="503" unicode="&#233;" /><glyph d="M234 610Q234 584 249 569Q264 554 296 554Q321 554 337 570.5Q353 587 358 617L363 645H400L395 613Q389 573 363 545.5Q337 518 290 518Q245 518 220.5 542Q196 566 196 605Q196 611 196.5 618.5Q197 626 201 645H238Q235 628 234.5 621Q234 614 234 610ZM275 408Q240 408 209.5 395.5Q179 383 154.5 360.5Q130 338 113 307Q96 276 89 240H423Q423 274 414 305Q405 336 386.5 358.5Q368 381 340 394.5Q312 408 275 408ZM84 204Q82 166 92.5 133.5Q103 101 123.5 77Q144 53 173.5 39.5Q203 26 241 26Q292 26 335 52Q378 78 401 123L448 122Q434 91 412.5 66.5Q391 42 363.5 24.5Q336 7 304.5 -2.5Q273 -12 241 -12Q198 -12 161.5 3.5Q125 19 98.5 46Q72 73 57 110.5Q42 148 42 192Q42 247 61 293.5Q80 340 112 374Q144 408 186 427Q228 446 275 446Q318 446 353 430.5Q388 415 413 388Q438 361 451.5 323.5Q465 286 465 242Q465 238 464.5 231.5Q464 225 464 219V204Z" glyph-name="ebreve" horiz-adv-x="503" unicode="&#277;" /><glyph d="M325 523H271L225 676H266L301 557L399 676H444ZM275 408Q240 408 209.5 395.5Q179 383 154.5 360.5Q130 338 113 307Q96 276 89 240H423Q423 274 414 305Q405 336 386.5 358.5Q368 381 340 394.5Q312 408 275 408ZM84 204Q82 166 92.5 133.5Q103 101 123.5 77Q144 53 173.5 39.5Q203 26 241 26Q292 26 335 52Q378 78 401 123L448 122Q434 91 412.5 66.5Q391 42 363.5 24.5Q336 7 304.5 -2.5Q273 -12 241 -12Q198 -12 161.5 3.5Q125 19 98.5 46Q72 73 57 110.5Q42 148 42 192Q42 247 61 293.5Q80 340 112 374Q144 408 186 427Q228 446 275 446Q318 446 353 430.5Q388 415 413 388Q438 361 451.5 323.5Q465 286 465 242Q465 238 464.5 231.5Q464 225 464 219V204Z" glyph-name="ecaron" horiz-adv-x="503" unicode="&#283;" /><glyph d="M391 523H350L304 642L217 523H172L281 676H335ZM275 408Q240 408 209.5 395.5Q179 383 154.5 360.5Q130 338 113 307Q96 276 89 240H423Q423 274 414 305Q405 336 386.5 358.5Q368 381 340 394.5Q312 408 275 408ZM84 204Q82 166 92.5 133.5Q103 101 123.5 77Q144 53 173.5 39.5Q203 26 241 26Q292 26 335 52Q378 78 401 123L448 122Q434 91 412.5 66.5Q391 42 363.5 24.5Q336 7 304.5 -2.5Q273 -12 241 -12Q198 -12 161.5 3.5Q125 19 98.5 46Q72 73 57 110.5Q42 148 42 192Q42 247 61 293.5Q80 340 112 374Q144 408 186 427Q228 446 275 446Q318 446 353 430.5Q388 415 413 388Q438 361 451.5 323.5Q465 286 465 242Q465 238 464.5 231.5Q464 225 464 219V204Z" glyph-name="ecircumflex" horiz-adv-x="503" unicode="&#234;" /><glyph d="M363 607Q380 607 393 594Q406 581 406 564Q406 547 393 534Q380 521 363 521Q346 521 333 534Q320 547 320 564Q320 581 333 594Q346 607 363 607ZM212 607Q229 607 242 594Q255 581 255 564Q255 547 242 534Q229 521 212 521Q195 521 182 534Q169 547 169 564Q169 581 182 594Q195 607 212 607ZM275 408Q240 408 209.5 395.5Q179 383 154.5 360.5Q130 338 113 307Q96 276 89 240H423Q423 274 414 305Q405 336 386.5 358.5Q368 381 340 394.5Q312 408 275 408ZM84 204Q82 166 92.5 133.5Q103 101 123.5 77Q144 53 173.5 39.5Q203 26 241 26Q292 26 335 52Q378 78 401 123L448 122Q434 91 412.5 66.5Q391 42 363.5 24.5Q336 7 304.5 -2.5Q273 -12 241 -12Q198 -12 161.5 3.5Q125 19 98.5 46Q72 73 57 110.5Q42 148 42 192Q42 247 61 293.5Q80 340 112 374Q144 408 186 427Q228 446 275 446Q318 446 353 430.5Q388 415 413 388Q438 361 451.5 323.5Q465 286 465 242Q465 238 464.5 231.5Q464 225 464 219V204Z" glyph-name="edieresis" horiz-adv-x="503" unicode="&#235;" /><glyph d="M240 583Q240 603 254 617Q268 631 288 631Q308 631 322 617Q336 603 336 583Q336 563 322 549Q308 535 288 535Q268 535 254 549Q240 563 240 583ZM275 408Q240 408 209.5 395.5Q179 383 154.5 360.5Q130 338 113 307Q96 276 89 240H423Q423 274 414 305Q405 336 386.5 358.5Q368 381 340 394.5Q312 408 275 408ZM84 204Q82 166 92.5 133.5Q103 101 123.5 77Q144 53 173.5 39.5Q203 26 241 26Q292 26 335 52Q378 78 401 123L448 122Q434 91 412.5 66.5Q391 42 363.5 24.5Q336 7 304.5 -2.5Q273 -12 241 -12Q198 -12 161.5 3.5Q125 19 98.5 46Q72 73 57 110.5Q42 148 42 192Q42 247 61 293.5Q80 340 112 374Q144 408 186 427Q228 446 275 446Q318 446 353 430.5Q388 415 413 388Q438 361 451.5 323.5Q465 286 465 242Q465 238 464.5 231.5Q464 225 464 219V204Z" glyph-name="edotaccent" horiz-adv-x="503" unicode="&#279;" /><glyph d="M300 523H261L184 676H240ZM275 408Q240 408 209.5 395.5Q179 383 154.5 360.5Q130 338 113 307Q96 276 89 240H423Q423 274 414 305Q405 336 386.5 358.5Q368 381 340 394.5Q312 408 275 408ZM84 204Q82 166 92.5 133.5Q103 101 123.5 77Q144 53 173.5 39.5Q203 26 241 26Q292 26 335 52Q378 78 401 123L448 122Q434 91 412.5 66.5Q391 42 363.5 24.5Q336 7 304.5 -2.5Q273 -12 241 -12Q198 -12 161.5 3.5Q125 19 98.5 46Q72 73 57 110.5Q42 148 42 192Q42 247 61 293.5Q80 340 112 374Q144 408 186 427Q228 446 275 446Q318 446 353 430.5Q388 415 413 388Q438 361 451.5 323.5Q465 286 465 242Q465 238 464.5 231.5Q464 225 464 219V204Z" glyph-name="egrave" horiz-adv-x="503" unicode="&#232;" /><glyph d="M286 374Q324 374 353 388Q382 402 402 426Q422 450 432 481.5Q442 513 442 548Q442 577 431.5 601Q421 625 402.5 641.5Q384 658 358.5 667Q333 676 304 676Q266 676 236.5 662Q207 648 187 624Q167 600 156.5 568.5Q146 537 146 503Q146 444 185.5 409Q225 374 286 374ZM304 712Q338 712 370 701.5Q402 691 427 670.5Q452 650 466.5 619.5Q481 589 481 549Q481 474 444 420.5Q407 367 335 351Q383 330 409.5 288Q436 246 436 197Q436 148 418.5 109.5Q401 71 372 44Q343 17 304.5 2.5Q266 -12 224 -12Q180 -12 145 0.5Q110 13 84.5 36.5Q59 60 45.5 92Q32 124 32 163Q32 199 44 232.5Q56 266 77.5 293Q99 320 128.5 338.5Q158 357 194 365Q173 373 157 388Q141 403 129.5 422.5Q118 442 112.5 463.5Q107 485 107 506Q107 552 122.5 590Q138 628 164.5 655Q191 682 227 697Q263 712 304 712ZM75 165Q75 135 85.5 109Q96 83 115.5 64Q135 45 162.5 34.5Q190 24 225 24Q264 24 295.5 38Q327 52 348.5 76Q370 100 381.5 131Q393 162 393 196Q393 223 384 249Q375 275 356.5 294.5Q338 314 309.5 326Q281 338 243 338Q203 338 172 323Q141 308 119.5 283.5Q98 259 86.5 228Q75 197 75 165Z" glyph-name="eight" horiz-adv-x="480" unicode="8" /><glyph d="M304 374Q342 374 371 388Q400 402 420 426Q440 450 450 481.5Q460 513 460 548Q460 577 449.5 601Q439 625 420.5 641.5Q402 658 376.5 667Q351 676 322 676Q284 676 254.5 662Q225 648 205 624Q185 600 174.5 568.5Q164 537 164 503Q164 444 203.5 409Q243 374 304 374ZM322 712Q356 712 388 701.5Q420 691 445 670.5Q470 650 484.5 619.5Q499 589 499 549Q499 474 462 420.5Q425 367 353 351Q401 330 427.5 288Q454 246 454 197Q454 148 436.5 109.5Q419 71 390 44Q361 17 322.5 2.5Q284 -12 242 -12Q198 -12 163 0.5Q128 13 102.5 36.5Q77 60 63.5 92Q50 124 50 163Q50 199 62 232.5Q74 266 95.5 293Q117 320 146.5 338.5Q176 357 212 365Q191 373 175 388Q159 403 147.5 422.5Q136 442 130.5 463.5Q125 485 125 506Q125 552 140.5 590Q156 628 182.5 655Q209 682 245 697Q281 712 322 712ZM93 165Q93 135 103.5 109Q114 83 133.5 64Q153 45 180.5 34.5Q208 24 243 24Q282 24 313.5 38Q345 52 366.5 76Q388 100 399.5 131Q411 162 411 196Q411 223 402 249Q393 275 374.5 294.5Q356 314 327.5 326Q299 338 261 338Q221 338 190 323Q159 308 137.5 283.5Q116 259 104.5 228Q93 197 93 165Z" glyph-name="eight.alt" horiz-adv-x="516" unicode="&#62032;" /><glyph d="M289 324Q324 324 351 336Q378 348 397 368.5Q416 389 425.5 415.5Q435 442 435 471Q435 521 398.5 550.5Q362 580 306 580Q271 580 244 568Q217 556 198 535.5Q179 515 169.5 488.5Q160 462 160 434Q160 383 196.5 353.5Q233 324 289 324ZM307 614Q342 614 372.5 604.5Q403 595 425.5 577Q448 559 461 532.5Q474 506 474 472Q474 409 441.5 363.5Q409 318 338 301Q383 282 407.5 246.5Q432 211 432 168Q432 126 415.5 92.5Q399 59 371 36Q343 13 306.5 0.5Q270 -12 230 -12Q147 -12 97.5 29.5Q48 71 48 139Q48 170 59 198.5Q70 227 89.5 250Q109 273 136.5 289.5Q164 306 197 314Q159 331 139 365Q119 399 119 436Q119 476 133.5 508.5Q148 541 173.5 564.5Q199 588 233.5 601Q268 614 307 614ZM94 143Q94 91 131 57Q168 23 231 23Q267 23 296 36Q325 49 345 69.5Q365 90 375.5 116Q386 142 386 169Q386 192 378 214Q370 236 353 252.5Q336 269 310 279Q284 289 249 289Q212 289 183.5 276Q155 263 135 242.5Q115 222 104.5 196Q94 170 94 143Z" glyph-name="eight.posf" horiz-adv-x="505" unicode="&#62048;" /><glyph d="M195 65Q230 65 249 89.5Q268 114 268 146Q268 172 252.5 189.5Q237 207 202 207Q167 207 148.5 183Q130 159 130 127Q130 101 145 83Q160 65 195 65ZM165 -120Q203 -120 224.5 -94Q246 -68 246 -37Q246 -10 228 10.5Q210 31 172 31Q156 31 141.5 24.5Q127 18 115.5 7Q104 -4 97.5 -19Q91 -34 91 -51Q91 -77 109 -98.5Q127 -120 165 -120ZM165 -155Q114 -155 82.5 -127Q51 -99 51 -54Q51 -12 74.5 16.5Q98 45 130 56Q111 67 100 87.5Q89 108 89 131Q89 156 98 176.5Q107 197 122.5 212Q138 227 158.5 235.5Q179 244 203 244Q248 244 279 219Q310 194 310 148Q310 114 290 85.5Q270 57 239 46Q260 35 274 12.5Q288 -10 288 -37Q288 -64 278 -86Q268 -108 250.5 -123.5Q233 -139 211 -147Q189 -155 165 -155Z" glyph-name="eight.sinf" horiz-adv-x="430" unicode="&#62080;" /><glyph d="M249 303Q278 303 300.5 314Q323 325 338.5 343Q354 361 362 385Q370 409 370 436Q370 480 340.5 507Q311 534 262 534Q233 534 210.5 523Q188 512 172.5 494Q157 476 149 452Q141 428 141 402Q141 357 170 330Q199 303 249 303ZM201 25Q231 25 255.5 36.5Q280 48 297 66.5Q314 85 323 109Q332 133 332 158Q332 179 325 199Q318 219 303 234Q288 249 266 258Q244 267 214 267Q184 267 160 256Q136 245 119 226.5Q102 208 93 184Q84 160 84 135Q84 89 114.5 57Q145 25 201 25ZM200 -10Q165 -10 136 0.5Q107 11 86 30Q65 49 53.5 75Q42 101 42 133Q42 192 77 235Q112 278 166 293Q135 310 118.5 340.5Q102 371 102 405Q102 442 114.5 472Q127 502 149 524Q171 546 200 558Q229 570 262 570Q292 570 319 561Q346 552 365.5 535Q385 518 396.5 493Q408 468 408 436Q408 380 380 338.5Q352 297 296 280Q332 263 353 230Q374 197 374 158Q374 119 359.5 88Q345 57 321 35Q297 13 265.5 1.5Q234 -10 200 -10Z" glyph-name="eight.smcp" horiz-adv-x="440" unicode="&#58881;" /><glyph d="M301 664Q336 664 355 688.5Q374 713 374 745Q374 771 358.5 788.5Q343 806 308 806Q273 806 254.5 782Q236 758 236 726Q236 700 251 682Q266 664 301 664ZM271 479Q309 479 330.5 505Q352 531 352 562Q352 589 334 609.5Q316 630 278 630Q262 630 247.5 623.5Q233 617 221.5 606Q210 595 203.5 580Q197 565 197 548Q197 522 215 500.5Q233 479 271 479ZM271 444Q220 444 188.5 472Q157 500 157 545Q157 587 180.5 615.5Q204 644 236 655Q217 666 206 686.5Q195 707 195 730Q195 755 204 775.5Q213 796 228.5 811Q244 826 264.5 834.5Q285 843 309 843Q354 843 385 818Q416 793 416 747Q416 713 396 684.5Q376 656 345 645Q366 634 380 611.5Q394 589 394 562Q394 535 384 513Q374 491 356.5 475.5Q339 460 317 452Q295 444 271 444Z" glyph-name="eight.sups" horiz-adv-x="430" unicode="&#62064;" /><glyph d="M221 213Q256 213 275 237.5Q294 262 294 294Q294 320 278.5 337.5Q263 355 228 355Q193 355 174.5 331Q156 307 156 275Q156 249 171 231Q186 213 221 213ZM191 28Q229 28 250.5 54Q272 80 272 111Q272 138 254 158.5Q236 179 198 179Q182 179 167.5 172.5Q153 166 141.5 155Q130 144 123.5 129Q117 114 117 97Q117 71 135 49.5Q153 28 191 28ZM191 -7Q140 -7 108.5 21Q77 49 77 94Q77 136 100.5 164.5Q124 193 156 204Q137 215 126 235.5Q115 256 115 279Q115 304 124 324.5Q133 345 148.5 360Q164 375 184.5 383.5Q205 392 229 392Q274 392 305 367Q336 342 336 296Q336 262 316 233.5Q296 205 265 194Q286 183 300 160.5Q314 138 314 111Q314 84 304 62Q294 40 276.5 24.5Q259 9 237 1Q215 -7 191 -7Z" glyph-name="eightinferior" horiz-adv-x="430" unicode="&#8328;" /><glyph d="M856 184Q875 184 890 192.5Q905 201 915.5 215Q926 229 931 246.5Q936 264 936 282Q936 312 920 334Q904 356 867 356Q828 356 806.5 327Q785 298 785 259Q785 228 801.5 206Q818 184 856 184ZM747 0Q759 10 778.5 28Q798 46 820.5 69Q843 92 866 118Q889 144 908 171L907 172Q894 161 876.5 156Q859 151 842 151Q824 151 806 157.5Q788 164 774 177.5Q760 191 751.5 210.5Q743 230 743 256Q743 287 752.5 312Q762 337 779.5 355Q797 373 820 382.5Q843 392 870 392Q920 392 949.5 361Q979 330 979 280Q979 235 960 192.5Q941 150 914 113.5Q887 77 857 47.5Q827 18 806 0ZM979 702 179 -21 155 5 955 728ZM264 528Q299 528 318 552.5Q337 577 337 609Q337 635 321.5 652.5Q306 670 271 670Q236 670 217.5 646Q199 622 199 590Q199 564 214 546Q229 528 264 528ZM234 343Q272 343 293.5 369Q315 395 315 426Q315 453 297 473.5Q279 494 241 494Q225 494 210.5 487.5Q196 481 184.5 470Q173 459 166.5 444Q160 429 160 412Q160 386 178 364.5Q196 343 234 343ZM234 308Q183 308 151.5 336Q120 364 120 409Q120 451 143.5 479.5Q167 508 199 519Q180 530 169 550.5Q158 571 158 594Q158 619 167 639.5Q176 660 191.5 675Q207 690 227.5 698.5Q248 707 272 707Q317 707 348 682Q379 657 379 611Q379 577 359 548.5Q339 520 308 509Q329 498 343 475.5Q357 453 357 426Q357 399 347 377Q337 355 319.5 339.5Q302 324 280 316Q258 308 234 308Z" glyph-name="eightninths" horiz-adv-x="1080" unicode="&#62105;" /><glyph d="M277 528Q312 528 331 552.5Q350 577 350 609Q350 635 334.5 652.5Q319 670 284 670Q249 670 230.5 646Q212 622 212 590Q212 564 227 546Q242 528 277 528ZM247 343Q285 343 306.5 369Q328 395 328 426Q328 453 310 473.5Q292 494 254 494Q238 494 223.5 487.5Q209 481 197.5 470Q186 459 179.5 444Q173 429 173 412Q173 386 191 364.5Q209 343 247 343ZM247 308Q196 308 164.5 336Q133 364 133 409Q133 451 156.5 479.5Q180 508 212 519Q193 530 182 550.5Q171 571 171 594Q171 619 180 639.5Q189 660 204.5 675Q220 690 240.5 698.5Q261 707 285 707Q330 707 361 682Q392 657 392 611Q392 577 372 548.5Q352 520 321 509Q342 498 356 475.5Q370 453 370 426Q370 399 360 377Q350 355 332.5 339.5Q315 324 293 316Q271 308 247 308Z" glyph-name="eightsuperior" horiz-adv-x="430" unicode="&#8312;" /><glyph d="M573 44Q573 65 588 79.5Q603 94 624 94Q645 94 659.5 79.5Q674 65 674 44Q674 23 659.5 8.5Q645 -6 624 -6Q603 -6 588 8.5Q573 23 573 44ZM306 44Q306 65 320.5 79.5Q335 94 356 94Q377 94 391.5 79.5Q406 65 406 44Q406 23 391.5 8.5Q377 -6 356 -6Q335 -6 320.5 8.5Q306 23 306 44ZM38 44Q38 65 52.5 79.5Q67 94 88 94Q109 94 124 79.5Q139 65 139 44Q139 23 124 8.5Q109 -6 88 -6Q67 -6 52.5 8.5Q38 23 38 44Z" glyph-name="ellipsis" horiz-adv-x="770" unicode="&#8230;" /><glyph d="M178 583H423L417 546H172ZM275 408Q240 408 209.5 395.5Q179 383 154.5 360.5Q130 338 113 307Q96 276 89 240H423Q423 274 414 305Q405 336 386.5 358.5Q368 381 340 394.5Q312 408 275 408ZM84 204Q82 166 92.5 133.5Q103 101 123.5 77Q144 53 173.5 39.5Q203 26 241 26Q292 26 335 52Q378 78 401 123L448 122Q434 91 412.5 66.5Q391 42 363.5 24.5Q336 7 304.5 -2.5Q273 -12 241 -12Q198 -12 161.5 3.5Q125 19 98.5 46Q72 73 57 110.5Q42 148 42 192Q42 247 61 293.5Q80 340 112 374Q144 408 186 427Q228 446 275 446Q318 446 353 430.5Q388 415 413 388Q438 361 451.5 323.5Q465 286 465 242Q465 238 464.5 231.5Q464 225 464 219V204Z" glyph-name="emacron" horiz-adv-x="503" unicode="&#275;" /><glyph d="M52 288H972L965 252H46Z" glyph-name="emdash" horiz-adv-x="1000" unicode="&#8212;" /><glyph d="M66 377H986L979 335H60Z" glyph-name="emdash.alt" horiz-adv-x="1000" unicode="&#62217;" /><glyph d="M52 288H472L465 252H46Z" glyph-name="endash" horiz-adv-x="500" unicode="&#8211;" /><glyph d="M66 377H486L479 335H60Z" glyph-name="endash.alt" horiz-adv-x="500" unicode="&#62216;" /><glyph d="M372 -91Q364 -137 343 -155.5Q322 -174 282 -174H228L234 -138H276Q301 -138 313 -128Q325 -118 330 -92L396 290Q401 321 396 343.5Q391 366 378.5 380.5Q366 395 347 402Q328 409 306 409Q285 409 261.5 401.5Q238 394 215.5 382Q193 370 172.5 355Q152 340 135 326L79 0H37L112 434H153L141 370Q175 398 219.5 422Q264 446 311 446Q383 446 416.5 401.5Q450 357 437 285Z" glyph-name="eng" horiz-adv-x="494" unicode="&#331;" /><glyph d="M276 408Q241 408 210.5 395.5Q180 383 155.5 360.5Q131 338 114 307Q97 276 90 240H424Q424 274 415 305Q406 336 387.5 358.5Q369 381 341 394.5Q313 408 276 408ZM85 204Q83 166 93.5 133.5Q104 101 124.5 77Q145 53 174.5 39.5Q204 26 242 26Q293 26 336 52Q379 78 402 123L449 122Q424 65 373 30Q322 -5 262 -11Q217 -34 190.5 -61.5Q164 -89 164 -114Q164 -131 178.5 -140Q193 -149 210 -149Q227 -149 247 -145.5Q267 -142 281 -136L276 -168Q267 -172 256 -176Q246 -179 233 -181Q220 -183 203 -183Q161 -183 140.5 -163.5Q120 -144 120 -118Q120 -79 148.5 -52.5Q177 -26 214 -10Q176 -5 145 12Q114 29 91 55.5Q68 82 55.5 117Q43 152 43 192Q43 247 62 293.5Q81 340 113 374Q145 408 187 427Q229 446 276 446Q319 446 354 430.5Q389 415 414 388Q439 361 452.5 323.5Q466 286 466 242Q466 238 465.5 231.5Q465 225 465 219V204Z" glyph-name="eogonek" horiz-adv-x="505" unicode="&#281;" /><glyph d="M77 459H484L476 417H69ZM48 295H455L447 253H40Z" glyph-name="equal" horiz-adv-x="480" unicode="=" /><glyph d="M73 368H404L397 330H66ZM50 238H381L374 200H43Z" glyph-name="equal.smcp" horiz-adv-x="424" unicode="&#62999;" /><glyph d="M713 375Q722 375 722 384V552Q722 585 695.5 609.5Q669 634 631 650Q593 666 550 674Q507 682 474 682Q444 682 401.5 674Q359 666 320.5 650Q282 634 254.5 609.5Q227 585 227 552V384Q227 375 236 375ZM227 160Q227 128 254 102Q281 76 319.5 58Q358 40 400.5 30Q443 20 474 20Q552 20 621.5 48Q691 76 739 131H786Q732 63 652 26Q572 -11 474 -11Q393 -11 321 17.5Q249 46 195.5 95.5Q142 145 110.5 211Q79 277 79 353Q79 427 110 492.5Q141 558 194 606.5Q247 655 319 683.5Q391 712 474 712Q565 712 638 683Q711 654 763 604.5Q815 555 843 487.5Q871 420 871 344H236Q227 344 227 332Z" glyph-name="estimated" horiz-adv-x="886" unicode="&#8494;" /><glyph d="M241 26Q281 26 316 43Q351 60 376.5 89.5Q402 119 417 158.5Q432 198 432 244Q432 277 421.5 306.5Q411 336 391 358.5Q371 381 341.5 394.5Q312 408 275 408Q235 408 200 391Q165 374 139.5 344.5Q114 315 99.5 275.5Q85 236 85 190Q85 157 95.5 127.5Q106 98 125.5 75.5Q145 53 174 39.5Q203 26 241 26ZM208 540 302 597Q279 623 255.5 645Q232 667 211 684H267Q280 673 297.5 656.5Q315 640 335 618L442 683L458 656L356 593Q379 565 401.5 530.5Q424 496 442 456.5Q460 417 471 372.5Q482 328 482 279Q482 213 462.5 159.5Q443 106 409.5 68Q376 30 332 9Q288 -12 239 -12Q195 -12 158.5 3.5Q122 19 96.5 46.5Q71 74 57 111.5Q43 149 43 194Q43 249 62 295.5Q81 342 113 375.5Q145 409 187 427.5Q229 446 276 446Q322 446 365.5 424Q409 402 435 358L438 360Q424 417 392.5 471.5Q361 526 323 573L223 512Z" glyph-name="eth" horiz-adv-x="522" unicode="&#240;" /><glyph d="M40 44Q40 65 54.5 79.5Q69 94 90 94Q111 94 125.5 79.5Q140 65 140 44Q140 23 125.5 8.5Q111 -6 90 -6Q69 -6 54.5 8.5Q40 23 40 44ZM104 223 177 700H229L143 223Z" glyph-name="exclam" horiz-adv-x="244" unicode="!" /><glyph d="M150 560H197L128 178H90ZM84 -7Q66 -7 53 5.5Q40 18 40 37Q40 56 53 68.5Q66 81 84 81Q103 81 116 68.5Q129 56 129 37Q129 18 116 5.5Q103 -7 84 -7Z" glyph-name="exclam.smcp" horiz-adv-x="232" unicode="&#58434;" /><glyph d="M189 390Q189 369 174.5 354.5Q160 340 139 340Q118 340 103.5 354.5Q89 369 89 390Q89 411 103.5 425.5Q118 440 139 440Q160 440 174.5 425.5Q189 411 189 390ZM125 211 52 -266H0L86 211Z" glyph-name="exclamdown" horiz-adv-x="214" unicode="&#161;" /><glyph d="M257 656Q257 635 242.5 620.5Q228 606 207 606Q186 606 171.5 620.5Q157 635 157 656Q157 677 171.5 691.5Q186 706 207 706Q228 706 242.5 691.5Q257 677 257 656ZM193 477 120 0H68L154 477Z" glyph-name="exclamdown.alt" horiz-adv-x="255" unicode="&#62214;" /><glyph d="M104 0H57L126 382H164ZM170 567Q188 567 201 554.5Q214 542 214 523Q214 504 201 491.5Q188 479 170 479Q151 479 138 491.5Q125 504 125 523Q125 542 138 554.5Q151 567 170 567Z" glyph-name="exclamdown.smcp" horiz-adv-x="230" unicode="&#58435;" /><glyph d="M161 603Q166 633 176.5 653Q187 673 200.5 684.5Q214 696 230.5 701Q247 706 265 706Q274 706 283 705.5Q292 705 300 704Q309 703 317 702L311 665Q302 667 288.5 668Q275 669 270 669Q239 669 223.5 652Q208 635 203 602L174 434H259L253 398H167L99 0H57L125 398H52L59 434H132Z" glyph-name="f" horiz-adv-x="248" unicode="f" /><glyph d="M174 434H385L414 603Q419 633 429.5 653Q440 673 453.5 684.5Q467 696 483.5 701Q500 706 518 706Q527 706 536 705.5Q545 705 553 704Q562 703 570 702L564 665Q555 667 541.5 668Q528 669 523 669Q491 669 476 652Q461 635 456 602L427 434H512L506 398H420L352 0H310L378 398H167L99 0H57L125 398H52L59 434H132L161 603Q166 633 176.5 653Q187 673 200.5 684.5Q214 696 230.5 701Q247 706 265 706Q274 706 283 705.5Q292 705 300 704Q309 703 317 702L311 665Q302 667 288.5 668Q275 669 270 669Q238 669 223 652Q208 635 203 602Z" glyph-name="f_f" horiz-adv-x="501" unicode="&#64256;" /><glyph d="M427 434H638L667 603Q672 633 682.5 653Q693 673 706.5 684.5Q720 696 736.5 701Q753 706 771 706Q780 706 789 705.5Q798 705 806 704Q815 703 823 702L817 665Q808 667 794.5 668Q781 669 776 669Q744 669 729 652Q714 635 709 602L680 434H765L759 398H673L605 0H563L631 398H420L352 0H310L378 398H167L99 0H57L125 398H52L59 434H132L161 603Q166 633 176.5 653Q187 673 200.5 684.5Q214 696 230.5 701Q247 706 265 706Q274 706 283 705.5Q292 705 300 704Q309 703 317 702L311 665Q302 667 288.5 668Q275 669 270 669Q238 669 223 652Q208 635 203 602L174 434H385L414 603Q419 633 429.5 653Q440 673 453.5 684.5Q467 696 483.5 701Q500 706 518 706Q527 706 536 705.5Q545 705 553 704Q562 703 570 702L564 665Q555 667 541.5 668Q528 669 523 669Q491 669 476 652Q461 635 456 602Z" glyph-name="f_f_f" horiz-adv-x="754" unicode="&#62210;" /><glyph d="M365 591Q365 609 378 622Q391 635 408 635Q426 635 438.5 622Q451 609 451 591Q451 573 438.5 560Q426 547 408 547Q391 547 378 560Q365 573 365 591ZM174 434H406L331 0H289L358 398H167L99 0H57L125 398H52L59 434H132L161 603Q166 633 176.5 653Q187 673 200.5 684.5Q214 696 230.5 701Q247 706 265 706Q274 706 283 705.5Q292 705 300 704Q309 703 317 702L311 665Q302 667 288.5 668Q275 669 270 669Q238 669 223 652Q208 635 203 602Z" glyph-name="f_i" horiz-adv-x="440" unicode="&#62209;" /><glyph d="M365 591Q365 609 378 622Q391 635 408 635Q426 635 438.5 622Q451 609 451 591Q451 573 438.5 560Q426 547 408 547Q391 547 378 560Q365 573 365 591ZM174 434H406L316 -91Q308 -137 287 -155.5Q266 -174 226 -174H172L178 -138H220Q245 -138 257 -128Q269 -118 274 -92L358 398H167L99 0H57L125 398H52L59 434H132L161 603Q166 633 176.5 653Q187 673 200.5 684.5Q214 696 230.5 701Q247 706 265 706Q274 706 283 705.5Q292 705 300 704Q309 703 317 702L311 665Q302 667 288.5 668Q275 669 270 669Q238 669 223 652Q208 635 203 602Z" glyph-name="f_j" horiz-adv-x="441" unicode="&#58247;" /><glyph d="M174 434H385L414 603Q419 633 429.5 653Q440 673 453.5 684.5Q467 696 483.5 701Q500 706 518 706Q527 706 536 705.5Q545 705 553 704Q562 703 570 702L564 665Q555 667 541.5 668Q528 669 523 669Q491 669 476 652Q461 635 456 602L427 434H512L506 398H420L352 0H310L378 398H167L99 0H57L125 398H52L59 434H132L161 603Q166 633 176.5 653Q187 673 200.5 684.5Q214 696 230.5 701Q247 706 265 706Q274 706 283 705.5Q292 705 300 704Q309 703 317 702L311 665Q302 667 288.5 668Q275 669 270 669Q238 669 223 652Q208 635 203 602Z" glyph-name="ff" horiz-adv-x="501" unicode="&#58249;" /><glyph d="M598 591Q598 609 611 622Q624 635 641 635Q659 635 671.5 622Q684 609 684 591Q684 573 671.5 560Q659 547 641 547Q624 547 611 560Q598 573 598 591ZM564 0H522L591 398H400L332 0H290L358 398H167L99 0H57L125 398H52L59 434H132L161 603Q166 633 176.5 653Q187 673 200.5 684.5Q214 696 230.5 701Q247 706 265 706Q274 706 283 705.5Q292 705 300 704Q309 703 317 702L311 665Q302 667 288.5 668Q275 669 270 669Q238 669 223 652Q208 635 203 602L174 434H365L394 603Q399 633 409.5 653Q420 673 433.5 684.5Q447 696 463.5 701Q480 706 498 706Q507 706 516 705.5Q525 705 533 704Q542 703 550 702L544 665Q535 667 521.5 668Q508 669 503 669Q471 669 456 652Q441 635 436 602L407 434H639Z" glyph-name="ffi" horiz-adv-x="673" unicode="&#64259;" /><glyph d="M406 434H595L641 700H683L563 0H521L589 398H399L331 0H289L357 398H167L99 0H57L125 398H52L59 434H132L161 603Q166 633 176.5 653Q187 673 200.5 684.5Q214 696 230.5 701Q247 706 265 706Q274 706 283 705.5Q292 705 300 704Q309 703 317 702L311 665Q302 667 288.5 668Q275 669 270 669Q238 669 223 652Q208 635 203 602L174 434H364L393 603Q398 633 408.5 653Q419 673 432.5 684.5Q446 696 462.5 701Q479 706 497 706Q506 706 515 705.5Q524 705 532 704Q541 703 549 702L543 665Q534 667 520.5 668Q507 669 502 669Q470 669 455 652Q440 635 435 602Z" glyph-name="ffl" horiz-adv-x="674" unicode="&#58251;" /><glyph d="M365 591Q365 609 378 622Q391 635 408 635Q426 635 438.5 622Q451 609 451 591Q451 573 438.5 560Q426 547 408 547Q391 547 378 560Q365 573 365 591ZM174 434H406L331 0H289L358 398H167L99 0H57L125 398H52L59 434H132L161 603Q166 633 176.5 653Q187 673 200.5 684.5Q214 696 230.5 701Q247 706 265 706Q274 706 283 705.5Q292 705 300 704Q309 703 317 702L311 665Q302 667 288.5 668Q275 669 270 669Q238 669 223 652Q208 635 203 602Z" glyph-name="fi" horiz-adv-x="440" unicode="&#64257;" /><glyph d="M216 25Q257 25 288.5 43.5Q320 62 341 94.5Q362 127 373 170Q384 213 384 262Q384 292 376.5 319Q369 346 352.5 366.5Q336 387 309.5 398.5Q283 410 245 410Q213 410 187.5 398.5Q162 387 143 375L106 380L162 700H488L483 660H195L153 421H154Q173 432 199.5 440Q226 448 252 448Q297 448 330.5 434Q364 420 385.5 395Q407 370 417.5 336.5Q428 303 428 263Q428 203 413.5 153Q399 103 371 66Q343 29 303.5 8.5Q264 -12 215 -12Q173 -12 141.5 1Q110 14 89 37Q68 60 57 91Q46 122 46 157Q46 169 47 182.5Q48 196 53 219H97Q93 199 91.5 185.5Q90 172 90 159Q90 134 96.5 110Q103 86 118 67Q133 48 157 36.5Q181 25 216 25Z" glyph-name="five" horiz-adv-x="480" unicode="5" /><glyph d="M217 25Q258 25 289.5 43.5Q321 62 342 94.5Q363 127 374 170Q385 213 385 262Q385 292 377.5 319Q370 346 353.5 366.5Q337 387 310.5 398.5Q284 410 246 410Q214 410 188.5 398.5Q163 387 144 375L107 380L163 700H489L484 660H196L154 421H155Q174 432 200.5 440Q227 448 253 448Q298 448 331.5 434Q365 420 386.5 395Q408 370 418.5 336.5Q429 303 429 263Q429 203 414.5 153Q400 103 372 66Q344 29 304.5 8.5Q265 -12 216 -12Q174 -12 142.5 1Q111 14 90 37Q69 60 58 91Q47 122 47 157Q47 169 48 182.5Q49 196 54 219H98Q94 199 92.5 185.5Q91 172 91 159Q91 134 97.5 110Q104 86 119 67Q134 48 158 36.5Q182 25 217 25Z" glyph-name="five.alt" horiz-adv-x="480" unicode="&#62023;" /><glyph d="M170 -115Q210 -115 239.5 -99.5Q269 -84 288.5 -57Q308 -30 318 6Q328 42 328 84Q328 105 322 127.5Q316 150 301.5 168.5Q287 187 263 199Q239 211 203 211Q174 211 145.5 200Q117 189 100 178L65 187L119 465H412L406 426H152L110 217Q125 228 153 237.5Q181 247 207 247Q249 247 280.5 233.5Q312 220 332 197Q352 174 362 144Q372 114 372 82Q372 31 358 -12Q344 -55 318 -86Q292 -117 254.5 -134.5Q217 -152 170 -152Q132 -152 102 -140Q72 -128 51.5 -107.5Q31 -87 20.5 -59.5Q10 -32 10 -2Q10 9 11 20.5Q12 32 17 52L59 53Q52 22 52 1Q52 -20 59 -40.5Q66 -61 81 -77.5Q96 -94 118 -104.5Q140 -115 170 -115Z" glyph-name="five.posf" horiz-adv-x="443" unicode="&#62039;" /><glyph d="M162 -118Q181 -118 196.5 -109Q212 -100 222.5 -85Q233 -70 239 -49.5Q245 -29 245 -6Q245 24 230 43.5Q215 63 179 63Q163 63 148.5 56.5Q134 50 124 41L86 46L125 237H315L309 200H154L129 83L130 82Q141 90 156 95Q171 100 186 100Q237 100 262 70.5Q287 41 287 -4Q287 -37 278 -64.5Q269 -92 252.5 -112Q236 -132 212.5 -143.5Q189 -155 161 -155Q110 -155 82 -128Q54 -101 54 -58Q54 -50 55 -42Q56 -34 58 -26H101Q97 -39 96.5 -45.5Q96 -52 96 -57Q96 -83 111.5 -100.5Q127 -118 162 -118Z" glyph-name="five.sinf" horiz-adv-x="430" unicode="&#62071;" /><glyph d="M197 -10Q162 -10 135 1Q108 12 90 30.5Q72 49 62.5 74.5Q53 100 53 130Q53 138 54 148.5Q55 159 59 176H101Q98 159 96.5 149.5Q95 140 95 130Q95 110 100.5 91.5Q106 73 118 58.5Q130 44 149.5 35Q169 26 197 26Q228 26 252.5 40.5Q277 55 294 79.5Q311 104 319.5 137.5Q328 171 328 209Q328 257 304 289.5Q280 322 221 322Q196 322 173.5 313Q151 304 136 293L102 298L151 560H417L411 521H181L147 336H148Q181 356 227 358Q262 359 289 348Q316 337 334 316.5Q352 296 361 268.5Q370 241 370 208Q370 160 358 120Q346 80 323.5 51Q301 22 269 6Q237 -10 197 -10Z" glyph-name="five.smcp" horiz-adv-x="440" unicode="&#58432;" /><glyph d="M268 481Q287 481 302.5 490Q318 499 328.5 514Q339 529 345 549.5Q351 570 351 593Q351 623 336 642.5Q321 662 285 662Q269 662 254.5 655.5Q240 649 230 640L192 645L231 836H421L415 799H260L235 682L236 681Q247 689 262 694Q277 699 292 699Q343 699 368 669.5Q393 640 393 595Q393 562 384 534.5Q375 507 358.5 487Q342 467 318.5 455.5Q295 444 267 444Q216 444 188 471Q160 498 160 541Q160 549 161 557Q162 565 164 573H207Q203 560 202.5 553.5Q202 547 202 542Q202 516 217.5 498.5Q233 481 268 481Z" glyph-name="five.sups" horiz-adv-x="430" unicode="&#62055;" /><glyph d="M879 213Q914 213 933 237.5Q952 262 952 294Q952 320 936.5 337.5Q921 355 886 355Q851 355 832.5 331Q814 307 814 275Q814 249 829 231Q844 213 879 213ZM849 28Q887 28 908.5 54Q930 80 930 111Q930 138 912 158.5Q894 179 856 179Q840 179 825.5 172.5Q811 166 799.5 155Q788 144 781.5 129Q775 114 775 97Q775 71 793 49.5Q811 28 849 28ZM243 345Q262 345 277.5 354Q293 363 303.5 378Q314 393 320 413.5Q326 434 326 457Q326 487 311 506.5Q296 526 260 526Q244 526 229.5 519.5Q215 513 205 504L167 509L206 700H396L390 663H235L210 546L211 545Q222 553 237 558Q252 563 267 563Q318 563 343 533.5Q368 504 368 459Q368 426 359 398.5Q350 371 333.5 351Q317 331 293.5 319.5Q270 308 242 308Q191 308 163 335Q135 362 135 405Q135 413 136 421Q137 429 139 437H182Q178 424 177.5 417.5Q177 411 177 406Q177 380 192.5 362.5Q208 345 243 345ZM979 702 179 -21 155 5 955 728ZM849 -7Q798 -7 766.5 21Q735 49 735 94Q735 136 758.5 164.5Q782 193 814 204Q795 215 784 235.5Q773 256 773 279Q773 304 782 324.5Q791 345 806.5 360Q822 375 842.5 383.5Q863 392 887 392Q932 392 963 367Q994 342 994 296Q994 262 974 233.5Q954 205 923 194Q944 183 958 160.5Q972 138 972 111Q972 84 962 62Q952 40 934.5 24.5Q917 9 895 1Q873 -7 849 -7Z" glyph-name="fiveeighths" horiz-adv-x="1080" unicode="&#8541;" /><glyph d="M188 30Q207 30 222.5 39Q238 48 248.5 63Q259 78 265 98.5Q271 119 271 142Q271 172 256 191.5Q241 211 205 211Q189 211 174.5 204.5Q160 198 150 189L112 194L151 385H341L335 348H180L155 231L156 230Q167 238 182 243Q197 248 212 248Q263 248 288 218.5Q313 189 313 144Q313 111 304 83.5Q295 56 278.5 36Q262 16 238.5 4.5Q215 -7 187 -7Q136 -7 108 20Q80 47 80 90Q80 98 81 106Q82 114 84 122H127Q123 109 122.5 102.5Q122 96 122 91Q122 65 137.5 47.5Q153 30 188 30Z" glyph-name="fiveinferior" horiz-adv-x="430" unicode="&#8325;" /><glyph d="M856 184Q875 184 890 192.5Q905 201 915.5 215Q926 229 931 246.5Q936 264 936 282Q936 312 920 334Q904 356 867 356Q828 356 806.5 327Q785 298 785 259Q785 228 801.5 206Q818 184 856 184ZM243 345Q262 345 277.5 354Q293 363 303.5 378Q314 393 320 413.5Q326 434 326 457Q326 487 311 506.5Q296 526 260 526Q244 526 229.5 519.5Q215 513 205 504L167 509L206 700H396L390 663H235L210 546L211 545Q222 553 237 558Q252 563 267 563Q318 563 343 533.5Q368 504 368 459Q368 426 359 398.5Q350 371 333.5 351Q317 331 293.5 319.5Q270 308 242 308Q191 308 163 335Q135 362 135 405Q135 413 136 421Q137 429 139 437H182Q178 424 177.5 417.5Q177 411 177 406Q177 380 192.5 362.5Q208 345 243 345ZM979 702 179 -21 155 5 955 728ZM747 0Q759 10 778.5 28Q798 46 820.5 69Q843 92 866 118Q889 144 908 171L907 172Q894 161 876.5 156Q859 151 842 151Q824 151 806 157.5Q788 164 774 177.5Q760 191 751.5 210.5Q743 230 743 256Q743 287 752.5 312Q762 337 779.5 355Q797 373 820 382.5Q843 392 870 392Q920 392 949.5 361Q979 330 979 280Q979 235 960 192.5Q941 150 914 113.5Q887 77 857 47.5Q827 18 806 0Z" glyph-name="fiveninths" horiz-adv-x="1080" unicode="&#62103;" /><glyph d="M959 346H775L783 385H1010L1003 349L817 0H767ZM243 345Q262 345 277.5 354Q293 363 303.5 378Q314 393 320 413.5Q326 434 326 457Q326 487 311 506.5Q296 526 260 526Q244 526 229.5 519.5Q215 513 205 504L167 509L206 700H396L390 663H235L210 546L211 545Q222 553 237 558Q252 563 267 563Q318 563 343 533.5Q368 504 368 459Q368 426 359 398.5Q350 371 333.5 351Q317 331 293.5 319.5Q270 308 242 308Q191 308 163 335Q135 362 135 405Q135 413 136 421Q137 429 139 437H182Q178 424 177.5 417.5Q177 411 177 406Q177 380 192.5 362.5Q208 345 243 345ZM979 702 179 -21 155 5 955 728Z" glyph-name="fivesevenths" horiz-adv-x="1080" unicode="&#62098;" /><glyph d="M855 29Q893 29 915 58Q937 87 937 126Q937 157 920.5 179Q904 201 866 201Q846 201 831.5 192.5Q817 184 806.5 170Q796 156 791 138.5Q786 121 786 103Q786 73 802 51Q818 29 855 29ZM243 345Q262 345 277.5 354Q293 363 303.5 378Q314 393 320 413.5Q326 434 326 457Q326 487 311 506.5Q296 526 260 526Q244 526 229.5 519.5Q215 513 205 504L167 509L206 700H396L390 663H235L210 546L211 545Q222 553 237 558Q252 563 267 563Q318 563 343 533.5Q368 504 368 459Q368 426 359 398.5Q350 371 333.5 351Q317 331 293.5 319.5Q270 308 242 308Q191 308 163 335Q135 362 135 405Q135 413 136 421Q137 429 139 437H182Q178 424 177.5 417.5Q177 411 177 406Q177 380 192.5 362.5Q208 345 243 345ZM979 702 179 -21 155 5 955 728ZM852 -7Q802 -7 772.5 24Q743 55 743 105Q743 150 762 192.5Q781 235 808 271.5Q835 308 865 337Q895 366 916 384H975Q963 374 943.5 356.5Q924 339 901.5 316Q879 293 856 267Q833 241 814 214L815 213Q828 224 845.5 229.5Q863 235 880 235Q898 235 916 228Q934 221 948 207.5Q962 194 970.5 174.5Q979 155 979 129Q979 98 969.5 73Q960 48 942.5 30Q925 12 902 2.5Q879 -7 852 -7Z" glyph-name="fivesixths" horiz-adv-x="1080" unicode="&#62087;" /><glyph d="M244 345Q263 345 278.5 354Q294 363 304.5 378Q315 393 321 413.5Q327 434 327 457Q327 487 312 506.5Q297 526 261 526Q245 526 230.5 519.5Q216 513 206 504L168 509L207 700H397L391 663H236L211 546L212 545Q223 553 238 558Q253 563 268 563Q319 563 344 533.5Q369 504 369 459Q369 426 360 398.5Q351 371 334.5 351Q318 331 294.5 319.5Q271 308 243 308Q192 308 164 335Q136 362 136 405Q136 413 137 421Q138 429 140 437H183Q179 424 178.5 417.5Q178 411 178 406Q178 380 193.5 362.5Q209 345 244 345Z" glyph-name="fivesuperior" horiz-adv-x="430" unicode="&#8309;" /><glyph d="M174 434H363L409 700H451L331 0H289L357 398H167L99 0H57L125 398H52L59 434H132L161 603Q166 633 176.5 653Q187 673 200.5 684.5Q214 696 230.5 701Q247 706 265 706Q274 706 283 705.5Q292 705 300 704Q309 703 317 702L311 665Q302 667 288.5 668Q275 669 270 669Q238 669 223 652Q208 635 203 602Z" glyph-name="fl" horiz-adv-x="442" unicode="&#64258;" /><glyph d="M156 317H68L75 353H163L203 589Q213 644 243.5 672Q274 700 331 700H366L359 661H327Q295 661 273.5 643.5Q252 626 245 588L205 353H293L287 317H198L133 -66Q123 -121 92.5 -149Q62 -177 6 -177H-29L-22 -138H10Q41 -138 62.5 -120.5Q84 -103 91 -65Z" glyph-name="florin" horiz-adv-x="321" unicode="&#402;" /><glyph d="M-18 -105H8Q31 -105 49 -92.5Q67 -80 72 -50L123 246H52L58 281H129L160 458Q168 506 192.5 533Q217 560 268 560H300L293 524H267Q242 524 224.5 511Q207 498 202 468L170 281H241L235 246H164L114 -40Q106 -87 82 -114Q58 -141 8 -141H-25Z" glyph-name="florin.smcp" horiz-adv-x="294" unicode="&#61840;" /><glyph d="M80 272H319L386 666ZM32 272 366 700H435L362 272H465L458 232H355L315 0H272L312 232H25Z" glyph-name="four" horiz-adv-x="480" unicode="4" /><glyph d="M90 272H329L396 666ZM42 272 376 700H445L372 272H475L468 232H365L325 0H282L322 232H35Z" glyph-name="four.alt" horiz-adv-x="499" unicode="&#62022;" /><glyph d="M53 96H269L328 430H324ZM8 96 307 465H377L312 96H410L403 59H305L270 -141H227L262 59H1Z" glyph-name="four.posf" horiz-adv-x="460" unicode="&#62038;" /><glyph d="M90 6H210L245 206ZM46 6 228 239H293L251 6H305L298 -29H245L223 -146H182L203 -29H39Z" glyph-name="four.sinf" horiz-adv-x="430" unicode="&#62070;" /><glyph d="M263 218 317 529 83 218ZM257 181H34L41 218L299 560H365L306 218H390L383 181H299L267 0H225Z" glyph-name="four.smcp" horiz-adv-x="440" unicode="&#58431;" /><glyph d="M195 605H315L350 805ZM151 605 333 838H398L356 605H410L403 570H350L328 453H287L308 570H144Z" glyph-name="four.sups" horiz-adv-x="430" unicode="&#62054;" /><glyph d="M155 467H275L310 667ZM862 30Q881 30 896.5 39Q912 48 922.5 63Q933 78 939 98.5Q945 119 945 142Q945 172 930 191.5Q915 211 879 211Q863 211 848.5 204.5Q834 198 824 189L786 194L825 385H1015L1009 348H854L829 231L830 230Q841 238 856 243Q871 248 886 248Q937 248 962 218.5Q987 189 987 144Q987 111 978 83.5Q969 56 952.5 36Q936 16 912.5 4.5Q889 -7 861 -7Q810 -7 782 20Q754 47 754 90Q754 98 755 106Q756 114 758 122H801Q797 109 796.5 102.5Q796 96 796 91Q796 65 811.5 47.5Q827 30 862 30ZM979 702 179 -21 155 5 955 728ZM111 467 293 700H358L316 467H370L363 432H310L288 315H247L268 432H104Z" glyph-name="fourfifths" horiz-adv-x="1080" unicode="&#62085;" /><glyph d="M116 152H236L271 352ZM72 152 254 385H319L277 152H331L324 117H271L249 0H208L229 117H65Z" glyph-name="fourinferior" horiz-adv-x="430" unicode="&#8324;" /><glyph d="M856 184Q875 184 890 192.5Q905 201 915.5 215Q926 229 931 246.5Q936 264 936 282Q936 312 920 334Q904 356 867 356Q828 356 806.5 327Q785 298 785 259Q785 228 801.5 206Q818 184 856 184ZM747 0Q759 10 778.5 28Q798 46 820.5 69Q843 92 866 118Q889 144 908 171L907 172Q894 161 876.5 156Q859 151 842 151Q824 151 806 157.5Q788 164 774 177.5Q760 191 751.5 210.5Q743 230 743 256Q743 287 752.5 312Q762 337 779.5 355Q797 373 820 382.5Q843 392 870 392Q920 392 949.5 361Q979 330 979 280Q979 235 960 192.5Q941 150 914 113.5Q887 77 857 47.5Q827 18 806 0ZM979 702 179 -21 155 5 955 728ZM155 467H275L310 667ZM111 467 293 700H358L316 467H370L363 432H310L288 315H247L268 432H104Z" glyph-name="fourninths" horiz-adv-x="1080" unicode="&#62102;" /><glyph d="M959 346H775L783 385H1010L1003 349L817 0H767ZM979 702 179 -21 155 5 955 728ZM155 467H275L310 667ZM111 467 293 700H358L316 467H370L363 432H310L288 315H247L268 432H104Z" glyph-name="foursevenths" horiz-adv-x="1080" unicode="&#62097;" /><glyph d="M171 467H291L326 667ZM127 467 309 700H374L332 467H386L379 432H326L304 315H263L284 432H120Z" glyph-name="foursuperior" horiz-adv-x="430" unicode="&#8308;" /><glyph d="M546 702 -254 -21 -278 5 522 728Z" glyph-name="fraction" horiz-adv-x="220" unicode="&#8260;" /><glyph d="M85 192Q85 159 95 129Q105 99 125 76Q145 53 174 39.5Q203 26 241 26Q280 26 315.5 42.5Q351 59 377 88.5Q403 118 418.5 157.5Q434 197 434 242Q434 277 422.5 307Q411 337 390 359.5Q369 382 339.5 395Q310 408 274 408Q234 408 199.5 391Q165 374 139.5 345Q114 316 99.5 276.5Q85 237 85 192ZM427 -57Q422 -84 413.5 -105.5Q405 -127 390 -142.5Q375 -158 352 -166Q329 -174 296 -174H144L150 -138H288Q330 -138 353 -122.5Q376 -107 384 -65L409 81Q384 41 338.5 14.5Q293 -12 239 -12Q195 -12 159 3.5Q123 19 97.5 46.5Q72 74 57.5 111Q43 148 43 192Q43 247 62 294Q81 341 112.5 374.5Q144 408 185.5 427Q227 446 273 446Q303 446 331.5 437Q360 428 383.5 411.5Q407 395 424 371.5Q441 348 450 318L469 434H511Z" glyph-name="g" horiz-adv-x="548" unicode="g" /><glyph d="M267 610Q267 584 282 569Q297 554 329 554Q354 554 370 570.5Q386 587 391 617L396 645H433L428 613Q422 573 396 545.5Q370 518 323 518Q278 518 253.5 542Q229 566 229 605Q229 611 229.5 618.5Q230 626 234 645H271Q268 628 267.5 621Q267 614 267 610ZM85 192Q85 159 95 129Q105 99 125 76Q145 53 174 39.5Q203 26 241 26Q280 26 315.5 42.5Q351 59 377 88.5Q403 118 418.5 157.5Q434 197 434 242Q434 277 422.5 307Q411 337 390 359.5Q369 382 339.5 395Q310 408 274 408Q234 408 199.5 391Q165 374 139.5 345Q114 316 99.5 276.5Q85 237 85 192ZM427 -57Q422 -84 413.5 -105.5Q405 -127 390 -142.5Q375 -158 352 -166Q329 -174 296 -174H144L150 -138H288Q330 -138 353 -122.5Q376 -107 384 -65L409 81Q384 41 338.5 14.5Q293 -12 239 -12Q195 -12 159 3.5Q123 19 97.5 46.5Q72 74 57.5 111Q43 148 43 192Q43 247 62 294Q81 341 112.5 374.5Q144 408 185.5 427Q227 446 273 446Q303 446 331.5 437Q360 428 383.5 411.5Q407 395 424 371.5Q441 348 450 318L469 434H511Z" glyph-name="gbreve" horiz-adv-x="548" unicode="&#287;" /><glyph d="M428 523H387L341 642L254 523H209L318 676H372ZM85 192Q85 159 95 129Q105 99 125 76Q145 53 174 39.5Q203 26 241 26Q280 26 315.5 42.5Q351 59 377 88.5Q403 118 418.5 157.5Q434 197 434 242Q434 277 422.5 307Q411 337 390 359.5Q369 382 339.5 395Q310 408 274 408Q234 408 199.5 391Q165 374 139.5 345Q114 316 99.5 276.5Q85 237 85 192ZM427 -57Q422 -84 413.5 -105.5Q405 -127 390 -142.5Q375 -158 352 -166Q329 -174 296 -174H144L150 -138H288Q330 -138 353 -122.5Q376 -107 384 -65L409 81Q384 41 338.5 14.5Q293 -12 239 -12Q195 -12 159 3.5Q123 19 97.5 46.5Q72 74 57.5 111Q43 148 43 192Q43 247 62 294Q81 341 112.5 374.5Q144 408 185.5 427Q227 446 273 446Q303 446 331.5 437Q360 428 383.5 411.5Q407 395 424 371.5Q441 348 450 318L469 434H511Z" glyph-name="gcircumflex" horiz-adv-x="548" unicode="&#285;" /><glyph d="M365 565Q365 545 350.5 530Q336 515 315 515Q295 515 280.5 528.5Q266 542 266 563Q266 586 283 607L352 694L393 687L341 609Q352 603 358.5 591Q365 579 365 565ZM85 192Q85 159 95 129Q105 99 125 76Q145 53 174 39.5Q203 26 241 26Q280 26 315.5 42.5Q351 59 377 88.5Q403 118 418.5 157.5Q434 197 434 242Q434 277 422.5 307Q411 337 390 359.5Q369 382 339.5 395Q310 408 274 408Q234 408 199.5 391Q165 374 139.5 345Q114 316 99.5 276.5Q85 237 85 192ZM427 -57Q422 -84 413.5 -105.5Q405 -127 390 -142.5Q375 -158 352 -166Q329 -174 296 -174H144L150 -138H288Q330 -138 353 -122.5Q376 -107 384 -65L409 81Q384 41 338.5 14.5Q293 -12 239 -12Q195 -12 159 3.5Q123 19 97.5 46.5Q72 74 57.5 111Q43 148 43 192Q43 247 62 294Q81 341 112.5 374.5Q144 408 185.5 427Q227 446 273 446Q303 446 331.5 437Q360 428 383.5 411.5Q407 395 424 371.5Q441 348 450 318L469 434H511Z" glyph-name="gcommaaccent" horiz-adv-x="548" unicode="&#291;" /><glyph d="M270 583Q270 603 284 617Q298 631 318 631Q338 631 352 617Q366 603 366 583Q366 563 352 549Q338 535 318 535Q298 535 284 549Q270 563 270 583ZM85 192Q85 159 95 129Q105 99 125 76Q145 53 174 39.5Q203 26 241 26Q280 26 315.5 42.5Q351 59 377 88.5Q403 118 418.5 157.5Q434 197 434 242Q434 277 422.5 307Q411 337 390 359.5Q369 382 339.5 395Q310 408 274 408Q234 408 199.5 391Q165 374 139.5 345Q114 316 99.5 276.5Q85 237 85 192ZM427 -57Q422 -84 413.5 -105.5Q405 -127 390 -142.5Q375 -158 352 -166Q329 -174 296 -174H144L150 -138H288Q330 -138 353 -122.5Q376 -107 384 -65L409 81Q384 41 338.5 14.5Q293 -12 239 -12Q195 -12 159 3.5Q123 19 97.5 46.5Q72 74 57.5 111Q43 148 43 192Q43 247 62 294Q81 341 112.5 374.5Q144 408 185.5 427Q227 446 273 446Q303 446 331.5 437Q360 428 383.5 411.5Q407 395 424 371.5Q441 348 450 318L469 434H511Z" glyph-name="gdotaccent" horiz-adv-x="548" unicode="&#289;" /><glyph d="M305 700Q332 700 358 691.5Q384 683 405 665.5Q426 648 438.5 622.5Q451 597 451 564Q451 519 431 485Q411 451 387.5 423Q364 395 344 370Q324 345 324 317Q324 292 338 269.5Q352 247 369 223.5Q386 200 400 173.5Q414 147 414 113Q414 79 401.5 55Q389 31 369 16Q349 1 324 -5.5Q299 -12 275 -12Q248 -12 221 -6Q194 0 171 14L192 49Q209 38 229.5 31Q250 24 271 24Q290 24 308 29Q326 34 340.5 44.5Q355 55 364 72Q373 89 373 113Q373 140 359 164Q345 188 328 212Q311 236 297 261Q283 286 283 315Q283 349 303 377.5Q323 406 347 434.5Q371 463 391 494Q411 525 411 564Q411 582 404 599.5Q397 617 383.5 630.5Q370 644 350 652.5Q330 661 303 661Q258 661 220 629.5Q182 598 170 528L79 0H37L128 529Q137 580 156 613Q175 646 199.5 665.5Q224 685 251.5 692.5Q279 700 305 700Z" glyph-name="germandbls" horiz-adv-x="466" unicode="&#223;" /><glyph d="M183 523H144L67 676H123Z" glyph-name="grave" horiz-adv-x="171" unicode="`" /><glyph d="M258 605H218L151 730H206Z" glyph-name="grave.smcp" horiz-adv-x="300" unicode="&#63328;" /><glyph d="M90 375H461L309 560L344 589L540 346L263 118L238 153L454 332H83Z" glyph-name="greater" horiz-adv-x="551" unicode="&gt;" /><glyph d="M79 210 482 348 127 485 135 528 515 377 504 314 71 163Z" glyph-name="greater.alt" horiz-adv-x="532" unicode="&#62550;" /><glyph d="M196 126 361 266H63L70 304H368L248 449L279 476L440 280L220 95Z" glyph-name="greater.smcp" horiz-adv-x="490" unicode="&#62007;" /><glyph d="M44 210 447 348 92 485 100 528 480 377 469 314 36 163ZM8 0 15 42H421L414 0Z" glyph-name="greaterequal" horiz-adv-x="480" unicode="&#8805;" /><glyph d="M24 38H354L347 0H17ZM47 174 357 278 84 381 92 425 401 304 392 251 40 130Z" glyph-name="greaterequal.smcp" horiz-adv-x="424" unicode="&#62009;" /><glyph d="M206 248 334 392H386L259 242L327 87H282ZM59 248 187 392H239L112 242L180 87H135Z" glyph-name="guillemotleft" horiz-adv-x="414" unicode="&#171;" /><glyph d="M252 366 380 510H432L305 360L373 205H328ZM105 366 233 510H285L158 360L226 205H181Z" glyph-name="guillemotleft.alt" horiz-adv-x="450" unicode="&#62224;" /><glyph d="M174 196 276 314H325L224 192L279 69H235ZM54 196 155 314H205L103 192L158 69H115Z" glyph-name="guillemotleft.smcp" horiz-adv-x="385" unicode="&#62993;" /><glyph d="M215 231 87 87H35L162 237L94 392H139ZM362 231 234 87H182L309 237L241 392H286Z" glyph-name="guillemotright" horiz-adv-x="411" unicode="&#187;" /><glyph d="M249 349 121 205H69L196 355L128 510H173ZM396 349 268 205H216L343 355L275 510H320Z" glyph-name="guillemotright.alt" horiz-adv-x="451" unicode="&#62225;" /><glyph d="M275 191 220 314H263L324 186L223 69H173ZM155 191 99 314H143L204 186L103 69H53Z" glyph-name="guillemotright.smcp" horiz-adv-x="385" unicode="&#62994;" /><glyph d="M59 248 186 392H238L112 242L179 87H134Z" glyph-name="guilsinglleft" horiz-adv-x="266" unicode="&#8249;" /><glyph d="M105 366 232 510H284L158 360L225 205H180Z" glyph-name="guilsinglleft.alt" horiz-adv-x="309" unicode="&#62226;" /><glyph d="M54 196 155 314H204L103 192L158 69H114Z" glyph-name="guilsinglleft.smcp" horiz-adv-x="264" unicode="&#62992;" /><glyph d="M214 231 87 87H35L161 237L94 392H139Z" glyph-name="guilsinglright" horiz-adv-x="264" unicode="&#8250;" /><glyph d="M254 349 127 205H75L201 355L134 510H179Z" glyph-name="guilsinglright.alt" horiz-adv-x="309" unicode="&#62227;" /><glyph d="M154 191 99 314H142L203 186L102 69H52Z" glyph-name="guilsinglright.smcp" horiz-adv-x="264" unicode="&#62995;" /><glyph d="M396 290Q401 321 396 343.5Q391 366 378.5 380.5Q366 395 347 402Q328 409 306 409Q285 409 261.5 401.5Q238 394 215.5 382Q193 370 172.5 355Q152 340 135 326L79 0H37L158 700H198L162 490L141 370Q175 398 219.5 422Q264 446 311 446Q383 446 416.5 401.5Q450 357 437 285L388 0H346Z" glyph-name="h" horiz-adv-x="494" unicode="h" /><glyph d="M54 600H140L158 700H198L180 600H349L342 564H174L162 490L141 370Q175 398 219.5 422Q264 446 311 446Q383 446 416.5 401.5Q450 357 437 285L388 0H346L396 290Q401 321 396 343.5Q391 366 378.5 380.5Q366 395 347 402Q328 409 306 409Q285 409 261.5 401.5Q238 394 215.5 382Q193 370 172.5 355Q152 340 135 326L79 0H37L134 564H47Z" glyph-name="hbar" horiz-adv-x="494" unicode="&#295;" /><glyph d="M437 789H396L350 908L263 789H218L327 942H381ZM396 290Q401 321 396 343.5Q391 366 378.5 380.5Q366 395 347 402Q328 409 306 409Q285 409 261.5 401.5Q238 394 215.5 382Q193 370 172.5 355Q152 340 135 326L79 0H37L158 700H198L162 490L141 370Q175 398 219.5 422Q264 446 311 446Q383 446 416.5 401.5Q450 357 437 285L388 0H346Z" glyph-name="hcircumflex" horiz-adv-x="494" unicode="&#293;" /><glyph d="M299 676H356L263 523H224ZM153 676H210L117 523H78Z" glyph-name="hungarumlaut" horiz-adv-x="292" unicode="&#733;" /><glyph d="M279 730H331L248 605H211ZM175 730H227L144 605H107Z" glyph-name="hungarumlaut.smcp" horiz-adv-x="300" unicode="&#63224;" /><glyph d="M34 288H241L234 252H27Z" glyph-name="hyphen" horiz-adv-x="250" unicode="-" /><glyph d="M47 377H254L247 335H40Z" glyph-name="hyphen.alt" horiz-adv-x="250" unicode="&#62215;" /><glyph d="M123 591Q123 609 136 622Q149 635 166 635Q184 635 196.5 622Q209 609 209 591Q209 573 196.5 560Q184 547 166 547Q149 547 136 560Q123 573 123 591ZM89 0H47L116 398H48L54 434H164Z" glyph-name="i" horiz-adv-x="200" unicode="i" /><glyph d="M123 591Q123 609 136 622Q149 635 166 635Q184 635 196.5 622Q209 609 209 591Q209 573 196.5 560Q184 547 166 547Q149 547 136 560Q123 573 123 591ZM89 0H47L116 398H48L54 434H164Z" glyph-name="i.locl" horiz-adv-x="200" unicode="&#62212;" /><glyph d="M212 676H269L176 523H137ZM89 0H47L116 398H48L54 434H164Z" glyph-name="iacute" horiz-adv-x="200" unicode="&#237;" /><glyph d="M92 610Q92 584 107 569Q122 554 154 554Q179 554 195 570.5Q211 587 216 617L221 645H258L253 613Q247 573 221 545.5Q195 518 148 518Q103 518 78.5 542Q54 566 54 605Q54 611 54.5 618.5Q55 626 59 645H96Q93 628 92.5 621Q92 614 92 610ZM89 0H47L116 398H48L54 434H164Z" glyph-name="ibreve" horiz-adv-x="200" unicode="&#301;" /><glyph d="M258 523H217L171 642L84 523H39L148 676H202ZM89 0H47L116 398H48L54 434H164Z" glyph-name="icircumflex" horiz-adv-x="200" unicode="&#238;" /><glyph d="M233 607Q250 607 263 594Q276 581 276 564Q276 547 263 534Q250 521 233 521Q216 521 203 534Q190 547 190 564Q190 581 203 594Q216 607 233 607ZM82 607Q99 607 112 594Q125 581 125 564Q125 547 112 534Q99 521 82 521Q65 521 52 534Q39 547 39 564Q39 581 52 594Q65 607 82 607ZM89 0H47L116 398H48L54 434H164Z" glyph-name="idieresis" horiz-adv-x="200" unicode="&#239;" /><glyph d="M152 523H113L36 676H92ZM89 0H47L116 398H48L54 434H164Z" glyph-name="igrave" horiz-adv-x="200" unicode="&#236;" /><glyph d="M409 591Q409 573 396.5 560Q384 547 366 547Q348 547 335.5 560Q323 573 323 591Q323 609 335.5 622Q348 635 366 635Q384 635 396.5 622Q409 609 409 591ZM316 398H247L253 434H364L274 -91Q266 -137 245 -155.5Q224 -174 184 -174H130L136 -138H178Q203 -138 215 -128Q227 -118 232 -92ZM123 591Q123 609 136 622Q149 635 166 635Q184 635 196.5 622Q209 609 209 591Q209 573 196.5 560Q184 547 166 547Q149 547 136 560Q123 573 123 591ZM89 0H47L116 398H48L54 434H164Z" glyph-name="ij" horiz-adv-x="401" unicode="&#307;" /><glyph d="M28 583H273L267 546H22ZM89 0H47L116 398H48L54 434H164Z" glyph-name="imacron" horiz-adv-x="200" unicode="&#299;" /><glyph d="M806 350Q806 395 792 425.5Q778 456 757.5 474.5Q737 493 713.5 501Q690 509 669 509Q643 509 619.5 502.5Q596 496 574 478.5Q552 461 532 430Q512 399 494 350Q512 301 532 270Q552 239 574 221.5Q596 204 619.5 197.5Q643 191 669 191Q690 191 713.5 199Q737 207 757.5 225.5Q778 244 792 274.5Q806 305 806 350ZM474 392Q500 469 550 510Q600 551 667 551Q701 551 734 537.5Q767 524 792.5 498.5Q818 473 833.5 435.5Q849 398 849 350Q849 302 833.5 264.5Q818 227 792.5 201.5Q767 176 734 162.5Q701 149 667 149Q600 149 550 190Q500 231 474 308Q448 231 398 190Q348 149 281 149Q246 149 213.5 162.5Q181 176 156 201.5Q131 227 116 264.5Q101 302 101 350Q101 398 116 435.5Q131 473 156 498.5Q181 524 213.5 537.5Q246 551 281 551Q348 551 398 510Q448 469 474 392ZM144 350Q144 305 157 274.5Q170 244 190.5 225.5Q211 207 234.5 199Q258 191 279 191Q304 191 328 197.5Q352 204 374 221.5Q396 239 416.5 270Q437 301 456 350Q437 399 416.5 430Q396 461 374 478.5Q352 496 328 502.5Q304 509 279 509Q258 509 234.5 501Q211 493 190.5 474.5Q170 456 157 425.5Q144 395 144 350Z" glyph-name="infinity" horiz-adv-x="901" unicode="&#8734;" /><glyph d="M191 589Q201 644 231.5 672Q262 700 319 700H354L347 661H312Q280 661 260 643.5Q240 626 233 588L121 -66Q111 -121 80.5 -149Q50 -177 -6 -177H-41L-34 -138H1Q32 -138 52 -120.5Q72 -103 79 -65Z" glyph-name="integral" horiz-adv-x="297" unicode="&#8747;" /><glyph d="M123 591Q123 609 136 622Q149 635 166 635Q184 635 196.5 622Q209 609 209 591Q209 573 196.5 560Q184 547 166 547Q149 547 136 560Q123 573 123 591ZM89 0H83Q28 -25 -5 -55.5Q-38 -86 -38 -114Q-38 -131 -23.5 -140Q-9 -149 8 -149Q25 -149 45 -145.5Q65 -142 79 -136L74 -168Q65 -172 54 -176Q44 -179 31 -181Q18 -183 1 -183Q-41 -183 -61.5 -163.5Q-82 -144 -82 -118Q-82 -94 -70 -74.5Q-58 -55 -39.5 -40Q-21 -25 2 -14.5Q25 -4 47 3L116 398H48L54 434H164Z" glyph-name="iogonek" horiz-adv-x="200" unicode="&#303;" /><glyph d="M91 623Q108 623 123 615Q138 607 151 598Q164 589 175 581Q186 573 196 573Q215 573 222.5 586.5Q230 600 232 615L233 623L268 613Q268 604 264.5 590.5Q261 577 253 564Q245 551 230.5 542Q216 533 194 533Q178 533 163.5 541Q149 549 136.5 558Q124 567 112 575Q100 583 89 583Q70 583 62.5 569.5Q55 556 53 541L52 533L17 543Q17 552 20.5 565.5Q24 579 32 592Q40 605 54 614Q68 623 91 623ZM89 0H47L116 398H48L54 434H164Z" glyph-name="itilde" horiz-adv-x="200" unicode="&#297;" /><glyph d="M209 591Q209 573 196.5 560Q184 547 166 547Q148 547 135.5 560Q123 573 123 591Q123 609 135.5 622Q148 635 166 635Q184 635 196.5 622Q209 609 209 591ZM116 398H47L53 434H164L74 -91Q66 -137 45 -155.5Q24 -174 -16 -174H-70L-64 -138H-22Q3 -138 15 -128Q27 -118 32 -92Z" glyph-name="j" horiz-adv-x="201" unicode="j" /><glyph d="M252 523H211L165 642L78 523H33L142 676H196ZM116 398H47L53 434H164L74 -91Q66 -137 45 -155.5Q24 -174 -16 -174H-70L-64 -138H-22Q3 -138 15 -128Q27 -118 32 -92Z" glyph-name="jcircumflex" horiz-adv-x="201" unicode="&#309;" /><glyph d="M123 260H185L392 434H452L223 242L388 0H337L186 224H119L79 0H37L158 700H200Z" glyph-name="k" horiz-adv-x="439" unicode="k" /><glyph d="M128 -127Q128 -107 142.5 -92Q157 -77 178 -77Q198 -77 212.5 -90.5Q227 -104 227 -125Q227 -148 210 -169L141 -256L100 -249L152 -171Q141 -165 134.5 -153Q128 -141 128 -127ZM123 260H185L392 434H452L223 242L388 0H337L186 224H119L79 0H37L158 700H200Z" glyph-name="kcommaaccent" horiz-adv-x="439" unicode="&#311;" /><glyph d="M122 240H168L395 434H453L198 219L393 0H339L156 204H115L78 0H36L113 434H153Z" glyph-name="kgreenlandic" horiz-adv-x="442" unicode="&#312;" /><glyph d="M79 0H37L157 700H199Z" glyph-name="l" horiz-adv-x="190" unicode="l" /><glyph d="M250 942H307L214 789H175ZM79 0H37L157 700H199Z" glyph-name="lacute" horiz-adv-x="190" unicode="&#314;" /><glyph d="M259 662Q259 682 273.5 697Q288 712 309 712Q329 712 343.5 698.5Q358 685 358 664Q358 641 341 620L272 533L231 540L283 618Q272 624 265.5 636Q259 648 259 662ZM79 0H37L157 700H199Z" glyph-name="lcaron" horiz-adv-x="190" unicode="&#318;" /><glyph d="M-12 -127Q-12 -107 2.5 -92Q17 -77 38 -77Q58 -77 72.5 -90.5Q87 -104 87 -125Q87 -148 70 -169L1 -256L-40 -249L12 -171Q1 -165 -5.5 -153Q-12 -141 -12 -127ZM79 0H37L157 700H199Z" glyph-name="lcommaaccent" horiz-adv-x="190" unicode="&#316;" /><glyph d="M222 357Q221 380 237.5 396.5Q254 413 277 413Q300 413 316.5 396.5Q333 380 334 357Q333 334 316.5 317.5Q300 301 277 301Q254 301 237.5 317.5Q221 334 222 357ZM79 0H37L157 700H199Z" glyph-name="ldot" horiz-adv-x="316" unicode="&#320;" /><glyph d="M511 332H140L292 147L257 118L61 361L338 589L363 554L147 375H518Z" glyph-name="less" horiz-adv-x="553" unicode="&lt;" /><glyph d="M444 163 63 314 74 377 508 528 501 481 98 344 453 206Z" glyph-name="less.alt" horiz-adv-x="534" unicode="&#62551;" /><glyph d="M73 290 293 476 317 445 151 304H450L443 266H145L265 122L234 95Z" glyph-name="less.smcp" horiz-adv-x="490" unicode="&#62006;" /><glyph d="M-6 0 1 42H407L400 0ZM429 163 48 314 59 377 493 528 486 481 83 344 438 206Z" glyph-name="lessequal" horiz-adv-x="480" unicode="&#8804;" /><glyph d="M12 38H342L335 0H5ZM49 251 58 304 410 425 402 381 93 278 366 174 358 130Z" glyph-name="lessequal.smcp" horiz-adv-x="424" unicode="&#62008;" /><glyph d="M405 253 434 417H71L79 459H486L449 253Z" glyph-name="logicalnot" horiz-adv-x="480" unicode="&#172;" /><glyph d="M99 0H57L125 398H52L59 434H132L161 603Q166 633 177 653Q188 673 202 684.5Q216 696 232 701Q248 706 265 706Q275 706 284 705.5Q293 705 301 704Q310 703 317 702L311 665Q303 666 296 667Q290 668 283.5 669Q277 670 272 670Q214 670 203 602Z" glyph-name="longs" horiz-adv-x="230" unicode="&#383;" /><glyph d="M109 341 190 40 384 357 303 661ZM159 0 64 350 282 700H334L428 350L214 0Z" glyph-name="lozenge" horiz-adv-x="445" unicode="&#9674;" /><glyph d="M146 373 217 411 210 370 139 331 82 0H40L92 306L19 267L26 309L99 348L160 700H202Z" glyph-name="lslash" horiz-adv-x="194" unicode="&#322;" /><glyph d="M153 434 141 370Q175 398 217 422Q259 446 306 446Q357 446 387 422.5Q417 399 426 359Q469 398 513.5 422Q558 446 605 446Q677 446 708 401.5Q739 357 726 285L677 0H635L685 290Q690 321 686 343.5Q682 366 670 380.5Q658 395 640 402Q622 409 600 409Q580 409 557.5 401Q535 393 513 380.5Q491 368 469.5 352.5Q448 337 430 322Q430 304 427 285L378 0H336L386 290Q396 351 371 380Q346 409 301 409Q281 409 258.5 401.5Q236 394 214.5 382Q193 370 172.5 355Q152 340 135 326L79 0H37L112 434Z" glyph-name="m" horiz-adv-x="783" unicode="m" /><glyph d="M82 583H327L321 546H76Z" glyph-name="macron" horiz-adv-x="304" unicode="&#175;" /><glyph d="M121 690H325L318 651H114Z" glyph-name="macron.smcp" horiz-adv-x="300" unicode="&#63407;" /><glyph d="M462 335H55L62 377H469Z" glyph-name="minus" horiz-adv-x="480" unicode="&#8722;" /><glyph d="M61 303H392L386 265H55Z" glyph-name="minus.smcp" horiz-adv-x="424" unicode="&#62998;" /><glyph d="M118 434H159L116 168Q105 99 138.5 63Q172 27 237 27Q290 27 328 57Q366 87 375 144L425 434H466L416 138Q411 106 397.5 78.5Q384 51 362 31Q340 11 309.5 -0.5Q279 -12 239 -12Q189 -12 149 10Q109 32 95 67L55 -174H16Z" glyph-name="mu" horiz-adv-x="476" unicode="&#181;" /><glyph d="M265 387 444 530 469 495 289 352 415 183 382 157 257 326 76 182 50 216 234 361 108 530 140 556Z" glyph-name="multiply" horiz-adv-x="472" unicode="&#215;" /><glyph d="M322 124Q316 133 301.5 152Q287 171 271.5 192.5Q256 214 241.5 233Q227 252 221 260Q212 253 191.5 236.5Q171 220 148 202Q125 184 104.5 167.5Q84 151 75 144L52 176Q61 183 81.5 199.5Q102 216 125.5 234Q149 252 169.5 268Q190 284 199 292L98 428L128 452L229 316L373 430Q376 425 384.5 414.5Q393 404 396 399L252 284L352 148Q348 145 337.5 136.5Q327 128 322 124Z" glyph-name="multiply.smcp" horiz-adv-x="424" unicode="&#62002;" /><glyph d="M153 434 141 370Q175 398 219.5 422Q264 446 311 446Q383 446 416.5 401.5Q450 357 437 285L388 0H346L396 290Q401 321 396 343.5Q391 366 378.5 380.5Q366 395 347 402Q328 409 306 409Q285 409 261.5 401.5Q238 394 215.5 382Q193 370 172.5 355Q152 340 135 326L79 0H37L112 434Z" glyph-name="n" horiz-adv-x="494" unicode="n" /></font>
</defs>
</svg>
