<?xml version="1.0" standalone="no"?><!DOCTYPE svg PUBLIC "-//W3C//DTD SVG 1.1//EN" "http://www.w3.org/Graphics/SVG/1.1/DTD/svg11.dtd" ><svg version="1.1" xmlns="http://www.w3.org/2000/svg"><defs><font horiz-adv-x="0" id="font"><font-face ascent="750" bbox="-293 -320 1189 994" cap-height="700" descent="-250" font-family="Regular Black Italic" font-stretch="normal" font-style="italic" font-weight="600" units-per-em="1000" x-height="471" /><missing-glyph d="M164 408H118L136 604H146ZM0 671Q0 683 8 691.5Q16 700 28 700H473Q484 700 492 691.5Q500 683 500 671V29Q500 17 492 8.5Q484 0 473 0H28Q16 0 8 8.5Q0 17 0 29ZM415 392Q415 407 429 407H435Q449 407 449 392V388H438V389Q438 392 437.5 394.5Q437 397 432 397Q426 397 426 389V377Q426 369 432 369Q437 369 437.5 371.5Q438 374 438 377V378H449V374Q449 359 435 359H429Q415 359 415 374ZM178 270H244L201 657H83L40 270H105L112 347H170ZM434 470Q445 484 452.5 503Q460 522 460 551V567Q460 609 434 634Q408 659 373 659H356Q321 659 294.5 634Q268 609 268 567V517H330V559Q330 572 336 585.5Q342 599 363 599H366Q386 599 391.5 585.5Q397 572 397 559V552Q396 522 376 495L298 391Q283 371 276 354Q269 337 269 313V270H461V331H339V335Q339 339 342 345.5Q345 352 355 365ZM264 42H292V113H316Q332 113 342 124.5Q352 136 352 154V187Q352 206 342 217Q332 228 316 228H264ZM380 42H465V69H410V123H442V150H410V202H465V228H380ZM237 228H208L191 151L171 228H141L174 107V42H205V107ZM65 42H93V202H123V228H35V202H65ZM460 393Q460 404 454.5 410.5Q449 417 437 417H428Q416 417 410 410.5Q404 404 404 393V373Q404 362 410 355.5Q416 349 428 349H437Q449 349 454.5 355.5Q460 362 460 373ZM292 202H309Q318 202 320.5 195.5Q323 189 323 184V158Q323 153 320.5 147Q318 141 309 141H292Z" horiz-adv-x="500" /><glyph d="M380 467H376L299 293H395ZM622 0H420L406 117H232L179 0H-37L292 700H531Z" glyph-name="A" horiz-adv-x="660" unicode="A" /><glyph d="M312 228 305 344H301L252 228ZM225 560H443L511 0H327L320 67H193L163 0H-34Z" glyph-name="A.smcp" horiz-adv-x="553" unicode="&#62257;" /><glyph d="M457 500H449L345 302H419ZM248 128 177 0H-50L362 700H1039L1009 524H656L641 444H875L844 270H612L595 176H959L928 0H367L390 128Z" glyph-name="AE" horiz-adv-x="998" unicode="&#198;" /><glyph d="M322 226 352 371H344L278 226ZM268 560H836L808 399H533L525 362H710L681 203H499L491 161H779L750 0H283L296 67H192L162 0H-41Z" glyph-name="AE.smcp" horiz-adv-x="820" unicode="&#62296;" /><glyph d="M409 929H634L508 752H339ZM380 467H376L299 293H395ZM622 0H420L406 117H232L179 0H-37L292 700H531Z" glyph-name="Aacute" horiz-adv-x="660" unicode="&#193;" /><glyph d="M318 730H520L417 605H264ZM312 228 305 344H301L252 228ZM225 560H443L511 0H327L320 67H193L163 0H-34Z" glyph-name="Aacute.smcp" horiz-adv-x="553" unicode="&#62503;" /><glyph d="M474 929H601L594 887Q581 809 535 774Q489 739 423 739Q391 739 362.5 749.5Q334 760 313.5 780Q293 800 283 829.5Q273 859 278 898L282 929H405L402 907Q399 887 408 875.5Q417 864 433 864Q464 864 470 904ZM380 467H376L299 293H395ZM622 0H420L406 117H232L179 0H-37L292 700H531Z" glyph-name="Abreve" horiz-adv-x="660" unicode="&#258;" /><glyph d="M348 705Q372 705 377 730L378 735H498L496 723Q485 659 444.5 629.5Q404 600 343 600Q275 600 242.5 629.5Q210 659 210 704Q210 716 213 730L214 735H324L323 729Q321 718 328.5 711.5Q336 705 348 705ZM312 228 305 344H301L252 228ZM225 560H443L511 0H327L320 67H193L163 0H-34Z" glyph-name="Abreve.smcp" horiz-adv-x="553" unicode="&#62504;" /><glyph d="M423 810 386 752H208L348 929H524L602 752H446ZM380 467H376L299 293H395ZM622 0H420L406 117H232L179 0H-37L292 700H531Z" glyph-name="Acircumflex" horiz-adv-x="660" unicode="&#194;" /><glyph d="M350 641 318 605H168L263 730H459L508 605H368ZM312 228 305 344H301L252 228ZM225 560H443L511 0H327L320 67H193L163 0H-34Z" glyph-name="Acircumflex.smcp" horiz-adv-x="553" unicode="&#62505;" /><glyph d="M520 749Q501 749 484 756.5Q467 764 454 777Q441 790 433 807Q425 824 425 843Q425 862 433 879Q441 896 454 909Q467 922 484 929.5Q501 937 520 937Q539 937 556 929.5Q573 922 586 909Q599 896 607 879Q615 862 615 843Q615 824 607 807Q599 790 586 777Q573 764 556 756.5Q539 749 520 749ZM312 749Q293 749 276 756.5Q259 764 246 777Q233 790 225 807Q217 824 217 843Q217 862 225 879Q233 896 246 909Q259 922 276 929.5Q293 937 312 937Q331 937 348 929.5Q365 922 378 909Q391 896 399 879Q407 862 407 843Q407 824 399 807Q391 790 378 777Q365 764 348 756.5Q331 749 312 749ZM380 467H376L299 293H395ZM622 0H420L406 117H232L179 0H-37L292 700H531Z" glyph-name="Adieresis" horiz-adv-x="660" unicode="&#196;" /><glyph d="M445 769Q462 769 477.5 762Q493 755 505 743.5Q517 732 524 716.5Q531 701 531 684Q531 667 524 652Q517 637 505 625.5Q493 614 477.5 607Q462 600 445 600Q428 600 412.5 607Q397 614 385 625.5Q373 637 366 652Q359 667 359 684Q359 701 366 716.5Q373 732 385 743.5Q397 755 412.5 762Q428 769 445 769ZM255 769Q272 769 287.5 762Q303 755 315 743.5Q327 732 334 716.5Q341 701 341 684Q341 667 334 652Q327 637 315 625.5Q303 614 287.5 607Q272 600 255 600Q238 600 222.5 607Q207 614 195 625.5Q183 637 176 652Q169 667 169 684Q169 701 176 716.5Q183 732 195 743.5Q207 755 222.5 762Q238 769 255 769ZM312 228 305 344H301L252 228ZM225 560H443L511 0H327L320 67H193L163 0H-34Z" glyph-name="Adieresis.smcp" horiz-adv-x="553" unicode="&#62512;" /><glyph d="M492 752H323L217 929H441ZM380 467H376L299 293H395ZM622 0H420L406 117H232L179 0H-37L292 700H531Z" glyph-name="Agrave" horiz-adv-x="660" unicode="&#192;" /><glyph d="M411 605H258L161 730H363ZM312 228 305 344H301L252 228ZM225 560H443L511 0H327L320 67H193L163 0H-34Z" glyph-name="Agrave.smcp" horiz-adv-x="553" unicode="&#62513;" /><glyph d="M271 904H612L586 754H245ZM380 467H376L299 293H395ZM622 0H420L406 117H232L179 0H-37L292 700H531Z" glyph-name="Amacron" horiz-adv-x="660" unicode="&#256;" /><glyph d="M213 730H511L488 605H190ZM312 228 305 344H301L252 228ZM225 560H443L511 0H327L320 67H193L163 0H-34Z" glyph-name="Amacron.smcp" horiz-adv-x="553" unicode="&#62309;" /><glyph d="M380 467H376L299 293H395ZM622 0H588Q557 -20 547 -37Q537 -54 537 -67Q537 -83 549.5 -90Q562 -97 576 -97Q596 -97 617 -91.5Q638 -86 648 -84L625 -175Q597 -186 567.5 -194.5Q538 -203 499 -203Q447 -203 411.5 -177.5Q376 -152 376 -107Q376 -72 401.5 -43.5Q427 -15 481 0H420L406 117H232L179 0H-37L292 700H531Z" glyph-name="Aogonek" horiz-adv-x="660" unicode="&#260;" /><glyph d="M312 228 305 344H301L252 228ZM225 560H443L511 0H438Q407 -14 397.5 -26Q388 -38 386 -46Q384 -58 391 -65Q398 -72 410 -72Q427 -72 442 -69.5Q457 -67 462 -66L444 -153Q439 -155 417.5 -162Q396 -169 346 -169Q320 -169 296.5 -163Q273 -157 256.5 -145.5Q240 -134 232 -118Q224 -102 228 -81Q233 -53 257.5 -32Q282 -11 339 0H327L320 67H193L163 0H-34Z" glyph-name="Aogonek.smcp" horiz-adv-x="553" unicode="&#62310;" /><glyph d="M425 912Q406 912 393 898Q380 884 380 863Q380 843 393 829Q406 815 425 815Q445 815 457.5 829Q470 843 470 863Q470 884 457.5 898Q445 912 425 912ZM425 733Q396 733 370.5 743Q345 753 326.5 770.5Q308 788 297.5 811.5Q287 835 287 863Q287 892 297.5 916Q308 940 326.5 957.5Q345 975 370.5 984.5Q396 994 425 994Q454 994 479.5 984.5Q505 975 523.5 957.5Q542 940 553 916Q564 892 564 863Q564 835 553 811.5Q542 788 523.5 770.5Q505 753 479.5 743Q454 733 425 733ZM380 467H376L299 293H395ZM622 0H420L406 117H232L179 0H-37L292 700H531Z" glyph-name="Aring" horiz-adv-x="660" unicode="&#197;" /><glyph d="M462 710Q461 662 428 631Q395 600 344 600Q319 600 297.5 608.5Q276 617 260.5 631.5Q245 646 236.5 666Q228 686 228 710Q228 734 236.5 754Q245 774 260.5 788.5Q276 803 297.5 811.5Q319 820 344 820Q395 820 428 789Q461 758 462 710ZM311 710Q310 694 320 683.5Q330 673 344 673Q358 673 368 683.5Q378 694 379 710Q378 726 368 736.5Q358 747 344 747Q330 747 320 736.5Q310 726 311 710ZM312 228 305 344H301L252 228ZM225 560H443L511 0H327L320 67H193L163 0H-34Z" glyph-name="Aring.smcp" horiz-adv-x="553" unicode="&#62311;" /><glyph d="M642 897Q642 885 638.5 859.5Q635 834 623 808.5Q611 783 587 763.5Q563 744 523 744Q506 744 489.5 749Q473 754 457.5 760.5Q442 767 428.5 772Q415 777 405 777Q388 777 385 762L383 752L258 764Q258 776 261.5 801.5Q265 827 277 853.5Q289 880 312.5 900Q336 920 377 920Q393 920 410 914.5Q427 909 442.5 902Q458 895 471.5 889.5Q485 884 495 884Q512 884 515 899L517 909ZM380 467H376L299 293H395ZM622 0H420L406 117H232L179 0H-37L292 700H531Z" glyph-name="Atilde" horiz-adv-x="660" unicode="&#195;" /><glyph d="M396 600Q384 600 369 603.5Q354 607 339.5 611Q325 615 312.5 618.5Q300 622 294 622Q289 622 285.5 619.5Q282 617 282 609V605H174L177 630Q178 642 182.5 660.5Q187 679 198.5 697Q210 715 231 727.5Q252 740 287 740Q299 740 314 736.5Q329 733 343.5 729Q358 725 370.5 721.5Q383 718 389 718Q394 718 397.5 720.5Q401 723 401 731V735H509L506 710Q504 698 500 679.5Q496 661 484.5 643Q473 625 452 612.5Q431 600 396 600ZM312 228 305 344H301L252 228ZM225 560H443L511 0H327L320 67H193L163 0H-34Z" glyph-name="Atilde.smcp" horiz-adv-x="553" unicode="&#62312;" /><glyph d="M348 437Q376 437 391.5 452.5Q407 468 407 488Q407 505 395 518Q383 531 360 531H310L294 437ZM300 169Q333 169 358.5 183Q384 197 384 229Q384 238 380.5 247Q377 256 369.5 263.5Q362 271 348.5 276Q335 281 316 281H267L248 169ZM609 526Q609 488 597 459Q585 430 566 409Q547 388 524.5 375Q502 362 480 356Q507 347 528 331Q549 315 562.5 295.5Q576 276 583 253.5Q590 231 590 209Q590 162 571 124Q552 86 516.5 58Q481 30 431.5 15Q382 0 322 0H21L140 700H385Q439 700 480.5 685Q522 670 550.5 645Q579 620 594 589Q609 558 609 526Z" glyph-name="B" horiz-adv-x="616" unicode="B" /><glyph d="M221 145H251Q268 145 277.5 150Q287 155 292 161.5Q297 168 298.5 174Q300 180 300 183Q300 193 292.5 205Q285 217 260 217H233ZM287 351Q301 351 314.5 359Q328 367 328 384Q328 398 318.5 406.5Q309 415 294 415H267L257 351ZM110 560H324Q368 560 402.5 547.5Q437 535 460.5 514.5Q484 494 496.5 468.5Q509 443 509 417Q509 383 498 358.5Q487 334 470.5 318Q454 302 436 293Q418 284 404 281Q426 273 442.5 260Q459 247 470.5 231Q482 215 487.5 198Q493 181 493 165Q493 128 477.5 97.5Q462 67 434 45.5Q406 24 366 12Q326 0 277 0H16Z" glyph-name="B.smcp" horiz-adv-x="528" unicode="&#62258;" /><glyph d="M774 281Q761 212 725.5 157.5Q690 103 639 65.5Q588 28 525.5 8Q463 -12 397 -12Q320 -12 255.5 14.5Q191 41 144.5 88Q98 135 71.5 199Q45 263 45 337Q45 418 76 486.5Q107 555 159.5 605.5Q212 656 280.5 684Q349 712 424 712Q493 712 553.5 690.5Q614 669 660.5 630Q707 591 738 537.5Q769 484 778 421H551Q541 461 508.5 489.5Q476 518 419 518Q385 518 355.5 504Q326 490 304 465Q282 440 269.5 405.5Q257 371 257 331Q257 304 265.5 277.5Q274 251 291.5 229.5Q309 208 335.5 195Q362 182 398 182Q446 182 486 206.5Q526 231 541 281Z" glyph-name="C" horiz-adv-x="774" unicode="C" /><glyph d="M320 -10Q258 -10 205 11.5Q152 33 114 71.5Q76 110 54.5 162Q33 214 33 274Q33 337 58.5 391.5Q84 446 126 485.5Q168 525 223 547.5Q278 570 338 570Q396 570 446 551.5Q496 533 535 500.5Q574 468 599 423.5Q624 379 631 326H423Q417 352 394.5 371Q372 390 333 390Q289 390 258.5 356Q228 322 228 268Q228 252 233.5 234.5Q239 217 250 203Q261 189 278.5 179.5Q296 170 320 170Q352 170 380.5 186Q409 202 417 237H631Q622 178 593 132Q564 86 522 54.5Q480 23 427.5 6.5Q375 -10 320 -10Z" glyph-name="C.smcp" horiz-adv-x="643" unicode="&#62259;" /><glyph d="M437 929H662L536 752H367ZM774 281Q761 212 725.5 157.5Q690 103 639 65.5Q588 28 525.5 8Q463 -12 397 -12Q320 -12 255.5 14.5Q191 41 144.5 88Q98 135 71.5 199Q45 263 45 337Q45 418 76 486.5Q107 555 159.5 605.5Q212 656 280.5 684Q349 712 424 712Q493 712 553.5 690.5Q614 669 660.5 630Q707 591 738 537.5Q769 484 778 421H551Q541 461 508.5 489.5Q476 518 419 518Q385 518 355.5 504Q326 490 304 465Q282 440 269.5 405.5Q257 371 257 331Q257 304 265.5 277.5Q274 251 291.5 229.5Q309 208 335.5 195Q362 182 398 182Q446 182 486 206.5Q526 231 541 281Z" glyph-name="Cacute" horiz-adv-x="774" unicode="&#262;" /><glyph d="M348 730H550L447 605H294ZM320 -10Q258 -10 205 11.5Q152 33 114 71.5Q76 110 54.5 162Q33 214 33 274Q33 337 58.5 391.5Q84 446 126 485.5Q168 525 223 547.5Q278 570 338 570Q396 570 446 551.5Q496 533 535 500.5Q574 468 599 423.5Q624 379 631 326H423Q417 352 394.5 371Q372 390 333 390Q289 390 258.5 356Q228 322 228 268Q228 252 233.5 234.5Q239 217 250 203Q261 189 278.5 179.5Q296 170 320 170Q352 170 380.5 186Q409 202 417 237H631Q622 178 593 132Q564 86 522 54.5Q480 23 427.5 6.5Q375 -10 320 -10Z" glyph-name="Cacute.smcp" horiz-adv-x="643" unicode="&#62313;" /><glyph d="M467 871 505 929H680L540 752H364L286 929H446ZM774 281Q761 212 725.5 157.5Q690 103 639 65.5Q588 28 525.5 8Q463 -12 397 -12Q320 -12 255.5 14.5Q191 41 144.5 88Q98 135 71.5 199Q45 263 45 337Q45 418 76 486.5Q107 555 159.5 605.5Q212 656 280.5 684Q349 712 424 712Q493 712 553.5 690.5Q614 669 660.5 630Q707 591 738 537.5Q769 484 778 421H551Q541 461 508.5 489.5Q476 518 419 518Q385 518 355.5 504Q326 490 304 465Q282 440 269.5 405.5Q257 371 257 331Q257 304 265.5 277.5Q274 251 291.5 229.5Q309 208 335.5 195Q362 182 398 182Q446 182 486 206.5Q526 231 541 281Z" glyph-name="Ccaron" horiz-adv-x="774" unicode="&#268;" /><glyph d="M419 730H569L474 605H278L229 730H369L387 694ZM320 -10Q258 -10 205 11.5Q152 33 114 71.5Q76 110 54.5 162Q33 214 33 274Q33 337 58.5 391.5Q84 446 126 485.5Q168 525 223 547.5Q278 570 338 570Q396 570 446 551.5Q496 533 535 500.5Q574 468 599 423.5Q624 379 631 326H423Q417 352 394.5 371Q372 390 333 390Q289 390 258.5 356Q228 322 228 268Q228 252 233.5 234.5Q239 217 250 203Q261 189 278.5 179.5Q296 170 320 170Q352 170 380.5 186Q409 202 417 237H631Q622 178 593 132Q564 86 522 54.5Q480 23 427.5 6.5Q375 -10 320 -10Z" glyph-name="Ccaron.smcp" horiz-adv-x="643" unicode="&#62320;" /><glyph d="M293 2Q237 17 191.5 48.5Q146 80 113.5 123.5Q81 167 63 221.5Q45 276 45 337Q45 418 76 486.5Q107 555 159.5 605.5Q212 656 280.5 684Q349 712 424 712Q493 712 553.5 690.5Q614 669 660.5 630Q707 591 738 537.5Q769 484 778 421H551Q541 461 508.5 489.5Q476 518 419 518Q385 518 355.5 504Q326 490 304 465Q282 440 269.5 405.5Q257 371 257 331Q257 304 265.5 277.5Q274 251 291.5 229.5Q309 208 335.5 195Q362 182 398 182Q446 182 486 206.5Q526 231 541 281H774Q763 223 736 175Q709 127 670.5 91Q632 55 583.5 31Q535 7 482 -3L397 -136H225Z" glyph-name="Ccedilla" horiz-adv-x="774" unicode="&#199;" /><glyph d="M222 6Q180 20 145 46Q110 72 85.5 106.5Q61 141 47.5 183.5Q34 226 34 274Q34 337 59.5 391.5Q85 446 127 485.5Q169 525 224 547.5Q279 570 339 570Q397 570 447 551.5Q497 533 536 500.5Q575 468 600 423.5Q625 379 632 326H424Q418 352 395.5 371Q373 390 334 390Q290 390 259.5 356Q229 322 229 268Q229 252 234.5 234.5Q240 217 251 203Q262 189 279.5 179.5Q297 170 321 170Q353 170 381.5 186Q410 202 418 237H632Q625 188 604 148Q583 108 551.5 78Q520 48 480.5 27.5Q441 7 397 -2L312 -134H158Z" glyph-name="Ccedilla.smcp" horiz-adv-x="645" unicode="&#62321;" /><glyph d="M474 810 437 752H259L399 929H575L653 752H497ZM774 281Q761 212 725.5 157.5Q690 103 639 65.5Q588 28 525.5 8Q463 -12 397 -12Q320 -12 255.5 14.5Q191 41 144.5 88Q98 135 71.5 199Q45 263 45 337Q45 418 76 486.5Q107 555 159.5 605.5Q212 656 280.5 684Q349 712 424 712Q493 712 553.5 690.5Q614 669 660.5 630Q707 591 738 537.5Q769 484 778 421H551Q541 461 508.5 489.5Q476 518 419 518Q385 518 355.5 504Q326 490 304 465Q282 440 269.5 405.5Q257 371 257 331Q257 304 265.5 277.5Q274 251 291.5 229.5Q309 208 335.5 195Q362 182 398 182Q446 182 486 206.5Q526 231 541 281Z" glyph-name="Ccircumflex" horiz-adv-x="774" unicode="&#264;" /><glyph d="M370 641 338 605H188L283 730H479L528 605H388ZM320 -10Q258 -10 205 11.5Q152 33 114 71.5Q76 110 54.5 162Q33 214 33 274Q33 337 58.5 391.5Q84 446 126 485.5Q168 525 223 547.5Q278 570 338 570Q396 570 446 551.5Q496 533 535 500.5Q574 468 599 423.5Q624 379 631 326H423Q417 352 394.5 371Q372 390 333 390Q289 390 258.5 356Q228 322 228 268Q228 252 233.5 234.5Q239 217 250 203Q261 189 278.5 179.5Q296 170 320 170Q352 170 380.5 186Q409 202 417 237H631Q622 178 593 132Q564 86 522 54.5Q480 23 427.5 6.5Q375 -10 320 -10Z" glyph-name="Ccircumflex.smcp" horiz-adv-x="643" unicode="&#62322;" /><glyph d="M453 749Q434 749 417 756.5Q400 764 387 777Q374 790 366 807Q358 824 358 843Q358 862 366 879Q374 896 387 909Q400 922 417 929.5Q434 937 453 937Q472 937 489 929.5Q506 922 519 909Q532 896 540 879Q548 862 548 843Q548 824 540 807Q532 790 519 777Q506 764 489 756.5Q472 749 453 749ZM774 281Q761 212 725.5 157.5Q690 103 639 65.5Q588 28 525.5 8Q463 -12 397 -12Q320 -12 255.5 14.5Q191 41 144.5 88Q98 135 71.5 199Q45 263 45 337Q45 418 76 486.5Q107 555 159.5 605.5Q212 656 280.5 684Q349 712 424 712Q493 712 553.5 690.5Q614 669 660.5 630Q707 591 738 537.5Q769 484 778 421H551Q541 461 508.5 489.5Q476 518 419 518Q385 518 355.5 504Q326 490 304 465Q282 440 269.5 405.5Q257 371 257 331Q257 304 265.5 277.5Q274 251 291.5 229.5Q309 208 335.5 195Q362 182 398 182Q446 182 486 206.5Q526 231 541 281Z" glyph-name="Cdotaccent" horiz-adv-x="774" unicode="&#266;" /><glyph d="M362 769Q379 769 394.5 762Q410 755 422 743.5Q434 732 441 716.5Q448 701 448 684Q448 667 441 652Q434 637 422 625.5Q410 614 394.5 607Q379 600 362 600Q345 600 329.5 607Q314 614 302 625.5Q290 637 283 652Q276 667 276 684Q276 701 283 716.5Q290 732 302 743.5Q314 755 329.5 762Q345 769 362 769ZM320 -10Q258 -10 205 11.5Q152 33 114 71.5Q76 110 54.5 162Q33 214 33 274Q33 337 58.5 391.5Q84 446 126 485.5Q168 525 223 547.5Q278 570 338 570Q396 570 446 551.5Q496 533 535 500.5Q574 468 599 423.5Q624 379 631 326H423Q417 352 394.5 371Q372 390 333 390Q289 390 258.5 356Q228 322 228 268Q228 252 233.5 234.5Q239 217 250 203Q261 189 278.5 179.5Q296 170 320 170Q352 170 380.5 186Q409 202 417 237H631Q622 178 593 132Q564 86 522 54.5Q480 23 427.5 6.5Q375 -10 320 -10Z" glyph-name="Cdotaccent.smcp" horiz-adv-x="643" unicode="&#62323;" /><glyph d="M309 524 248 177H322Q368 177 405.5 191.5Q443 206 469.5 231.5Q496 257 510 292.5Q524 328 524 371Q524 414 508.5 443.5Q493 473 470 491Q447 509 419 516.5Q391 524 366 524ZM20 0 142 700H392Q470 700 532.5 676Q595 652 639 610Q683 568 706.5 509.5Q730 451 730 382Q730 301 701 231.5Q672 162 620 110.5Q568 59 495.5 29.5Q423 0 336 0Z" glyph-name="D" horiz-adv-x="733" unicode="D" /><glyph d="M112 560H327Q390 560 440.5 540.5Q491 521 526.5 486.5Q562 452 581.5 404.5Q601 357 601 300Q601 238 577.5 183.5Q554 129 512.5 88Q471 47 413.5 23.5Q356 0 287 0H14ZM274 163Q308 163 333.5 173Q359 183 376.5 200.5Q394 218 403 241Q412 264 412 291Q412 324 400.5 345Q389 366 372 378Q355 390 336.5 394.5Q318 399 305 399H264L222 163Z" glyph-name="D.smcp" horiz-adv-x="617" unicode="&#62260;" /><glyph d="M443 871 481 929H656L516 752H340L262 929H422ZM309 524 248 177H322Q368 177 405.5 191.5Q443 206 469.5 231.5Q496 257 510 292.5Q524 328 524 371Q524 414 508.5 443.5Q493 473 470 491Q447 509 419 516.5Q391 524 366 524ZM20 0 142 700H392Q470 700 532.5 676Q595 652 639 610Q683 568 706.5 509.5Q730 451 730 382Q730 301 701 231.5Q672 162 620 110.5Q568 59 495.5 29.5Q423 0 336 0Z" glyph-name="Dcaron" horiz-adv-x="733" unicode="&#270;" /><glyph d="M384 730H534L439 605H243L194 730H334L352 694ZM112 560H327Q390 560 440.5 540.5Q491 521 526.5 486.5Q562 452 581.5 404.5Q601 357 601 300Q601 238 577.5 183.5Q554 129 512.5 88Q471 47 413.5 23.5Q356 0 287 0H14ZM274 163Q308 163 333.5 173Q359 183 376.5 200.5Q394 218 403 241Q412 264 412 291Q412 324 400.5 345Q389 366 372 378Q355 390 336.5 394.5Q318 399 305 399H264L222 163Z" glyph-name="Dcaron.smcp" horiz-adv-x="617" unicode="&#62324;" /><glyph d="M329 524 315 444H451L418 260H282L268 177H342Q388 177 425.5 191.5Q463 206 489.5 231.5Q516 257 530 292.5Q544 328 544 371Q544 414 528.5 443.5Q513 473 490 491Q467 509 439 516.5Q411 524 386 524ZM30 444H117L162 700H412Q490 700 552.5 676Q615 652 659 610Q703 568 726.5 509.5Q750 451 750 382Q750 301 721 231.5Q692 162 640 110.5Q588 59 515.5 29.5Q443 0 356 0H40L85 260H-2Z" glyph-name="Dcroat" horiz-adv-x="753" unicode="&#272;" /><glyph d="M281 163Q315 163 340.5 173Q366 183 383.5 200.5Q401 218 410 241Q419 264 419 291Q419 324 407.5 345Q396 366 379 378Q362 390 343.5 394.5Q325 399 312 399H271L260 341H346L327 229H240L229 163ZM24 341H80L119 560H334Q397 560 447.5 540.5Q498 521 533.5 486.5Q569 452 588.5 404.5Q608 357 608 300Q608 238 584.5 183.5Q561 129 519.5 88Q478 47 420.5 23.5Q363 0 294 0H21L61 229H5Z" glyph-name="Dcroat.smcp" horiz-adv-x="624" unicode="&#62497;" /><glyph d="M401 467 234 175H475ZM675 182 647 0H-7L20 179L337 700H539Z" glyph-name="Delta" horiz-adv-x="717" unicode="&#8710;" /><glyph d="M660 525H308L295 444H473L442 270H265L249 176H609L579 0H21L140 700H689Z" glyph-name="E" horiz-adv-x="649" unicode="E" /><glyph d="M110 560H564L537 400H264L258 362H386L357 203H231L224 161H507L479 0H16Z" glyph-name="E.smcp" horiz-adv-x="549" unicode="&#62261;" /><glyph d="M390 929H615L489 752H320ZM660 525H308L295 444H473L442 270H265L249 176H609L579 0H21L140 700H689Z" glyph-name="Eacute" horiz-adv-x="649" unicode="&#201;" /><glyph d="M298 730H500L397 605H244ZM110 560H564L537 400H264L258 362H386L357 203H231L224 161H507L479 0H16Z" glyph-name="Eacute.smcp" horiz-adv-x="549" unicode="&#62514;" /><glyph d="M469 929H596L589 887Q576 809 530 774Q484 739 418 739Q386 739 357.5 749.5Q329 760 308.5 780Q288 800 278 829.5Q268 859 273 898L277 929H400L397 907Q394 887 403 875.5Q412 864 428 864Q459 864 465 904ZM660 525H308L295 444H473L442 270H265L249 176H609L579 0H21L140 700H689Z" glyph-name="Ebreve" horiz-adv-x="649" unicode="&#276;" /><glyph d="M346 705Q370 705 375 730L376 735H496L494 723Q483 659 442.5 629.5Q402 600 341 600Q273 600 240.5 629.5Q208 659 208 704Q208 716 211 730L212 735H322L321 729Q319 718 326.5 711.5Q334 705 346 705ZM110 560H564L537 400H264L258 362H386L357 203H231L224 161H507L479 0H16Z" glyph-name="Ebreve.smcp" horiz-adv-x="549" unicode="&#62515;" /><glyph d="M429 871 467 929H642L502 752H326L248 929H408ZM660 525H308L295 444H473L442 270H265L249 176H609L579 0H21L140 700H689Z" glyph-name="Ecaron" horiz-adv-x="649" unicode="&#282;" /><glyph d="M376 730H526L431 605H235L186 730H326L344 694ZM110 560H564L537 400H264L258 362H386L357 203H231L224 161H507L479 0H16Z" glyph-name="Ecaron.smcp" horiz-adv-x="549" unicode="&#62516;" /><glyph d="M444 810 407 752H229L369 929H545L623 752H467ZM660 525H308L295 444H473L442 270H265L249 176H609L579 0H21L140 700H689Z" glyph-name="Ecircumflex" horiz-adv-x="649" unicode="&#202;" /><glyph d="M350 641 318 605H168L263 730H459L508 605H368ZM110 560H564L537 400H264L258 362H386L357 203H231L224 161H507L479 0H16Z" glyph-name="Ecircumflex.smcp" horiz-adv-x="549" unicode="&#62517;" /><glyph d="M522 749Q503 749 486 756.5Q469 764 456 777Q443 790 435 807Q427 824 427 843Q427 862 435 879Q443 896 456 909Q469 922 486 929.5Q503 937 522 937Q541 937 558 929.5Q575 922 588 909Q601 896 609 879Q617 862 617 843Q617 824 609 807Q601 790 588 777Q575 764 558 756.5Q541 749 522 749ZM314 749Q295 749 278 756.5Q261 764 248 777Q235 790 227 807Q219 824 219 843Q219 862 227 879Q235 896 248 909Q261 922 278 929.5Q295 937 314 937Q333 937 350 929.5Q367 922 380 909Q393 896 401 879Q409 862 409 843Q409 824 401 807Q393 790 380 777Q367 764 350 756.5Q333 749 314 749ZM660 525H308L295 444H473L442 270H265L249 176H609L579 0H21L140 700H689Z" glyph-name="Edieresis" horiz-adv-x="649" unicode="&#203;" /><glyph d="M440 769Q457 769 472.5 762Q488 755 500 743.5Q512 732 519 716.5Q526 701 526 684Q526 667 519 652Q512 637 500 625.5Q488 614 472.5 607Q457 600 440 600Q423 600 407.5 607Q392 614 380 625.5Q368 637 361 652Q354 667 354 684Q354 701 361 716.5Q368 732 380 743.5Q392 755 407.5 762Q423 769 440 769ZM250 769Q267 769 282.5 762Q298 755 310 743.5Q322 732 329 716.5Q336 701 336 684Q336 667 329 652Q322 637 310 625.5Q298 614 282.5 607Q267 600 250 600Q233 600 217.5 607Q202 614 190 625.5Q178 637 171 652Q164 667 164 684Q164 701 171 716.5Q178 732 190 743.5Q202 755 217.5 762Q233 769 250 769ZM110 560H564L537 400H264L258 362H386L357 203H231L224 161H507L479 0H16Z" glyph-name="Edieresis.smcp" horiz-adv-x="549" unicode="&#62518;" /><glyph d="M421 749Q402 749 385 756.5Q368 764 355 777Q342 790 334 807Q326 824 326 843Q326 862 334 879Q342 896 355 909Q368 922 385 929.5Q402 937 421 937Q440 937 457 929.5Q474 922 487 909Q500 896 508 879Q516 862 516 843Q516 824 508 807Q500 790 487 777Q474 764 457 756.5Q440 749 421 749ZM660 525H308L295 444H473L442 270H265L249 176H609L579 0H21L140 700H689Z" glyph-name="Edotaccent" horiz-adv-x="649" unicode="&#278;" /><glyph d="M343 769Q360 769 375.5 762Q391 755 403 743.5Q415 732 422 716.5Q429 701 429 684Q429 667 422 652Q415 637 403 625.5Q391 614 375.5 607Q360 600 343 600Q326 600 310.5 607Q295 614 283 625.5Q271 637 264 652Q257 667 257 684Q257 701 264 716.5Q271 732 283 743.5Q295 755 310.5 762Q326 769 343 769ZM110 560H564L537 400H264L258 362H386L357 203H231L224 161H507L479 0H16Z" glyph-name="Edotaccent.smcp" horiz-adv-x="549" unicode="&#62519;" /><glyph d="M510 752H341L235 929H459ZM660 525H308L295 444H473L442 270H265L249 176H609L579 0H21L140 700H689Z" glyph-name="Egrave" horiz-adv-x="649" unicode="&#200;" /><glyph d="M415 605H262L165 730H367ZM110 560H564L537 400H264L258 362H386L357 203H231L224 161H507L479 0H16Z" glyph-name="Egrave.smcp" horiz-adv-x="549" unicode="&#62520;" /><glyph d="M270 904H611L585 754H244ZM660 525H308L295 444H473L442 270H265L249 176H609L579 0H21L140 700H689Z" glyph-name="Emacron" horiz-adv-x="649" unicode="&#274;" /><glyph d="M213 730H511L488 605H190ZM110 560H564L537 400H264L258 362H386L357 203H231L224 161H507L479 0H16Z" glyph-name="Emacron.smcp" horiz-adv-x="549" unicode="&#62521;" /><glyph d="M217 0H20L142 700H414L484 340L551 700H748L618 -51Q612 -87 599.5 -115Q587 -143 566 -161.5Q545 -180 514 -190Q483 -200 440 -200H314L345 -23H391Q406 -23 413.5 -19.5Q421 -16 424 -4L425 0H398L302 448Z" glyph-name="Eng" horiz-adv-x="727" unicode="&#330;" /><glyph d="M112 560H336L398 304L442 560H619L514 -53Q502 -122 463 -158.5Q424 -195 342 -195H233L259 -43H304Q326 -43 335 -35.5Q344 -28 346 -13L348 0H302L239 274L190 0H14Z" glyph-name="Eng.smcp" horiz-adv-x="617" unicode="&#62487;" /><glyph d="M660 525H308L295 444H473L442 270H265L249 176H609L579 0H473Q442 -20 432 -37Q422 -54 422 -67Q422 -83 434.5 -90Q447 -97 461 -97Q481 -97 502 -91.5Q523 -86 533 -84L510 -175Q482 -186 452.5 -194.5Q423 -203 384 -203Q332 -203 296.5 -177.5Q261 -152 261 -107Q261 -72 286.5 -43.5Q312 -15 366 0H21L140 700H689Z" glyph-name="Eogonek" horiz-adv-x="649" unicode="&#280;" /><glyph d="M110 560H564L537 400H264L258 362H386L357 203H231L224 161H507L479 0H408Q377 -14 367.5 -26Q358 -38 356 -46Q354 -58 361 -65Q368 -72 380 -72Q397 -72 412 -69.5Q427 -67 432 -66L414 -153Q409 -155 387.5 -162Q366 -169 316 -169Q290 -169 266.5 -163Q243 -157 226.5 -145.5Q210 -134 202 -118Q194 -102 198 -81Q203 -53 227.5 -32Q252 -11 309 0H16Z" glyph-name="Eogonek.smcp" horiz-adv-x="549" unicode="&#62528;" /><glyph d="M329 524 315 444H451L418 260H282L268 177H342Q388 177 425.5 191.5Q463 206 489.5 231.5Q516 257 530 292.5Q544 328 544 371Q544 414 528.5 443.5Q513 473 490 491Q467 509 439 516.5Q411 524 386 524ZM30 444H117L162 700H412Q490 700 552.5 676Q615 652 659 610Q703 568 726.5 509.5Q750 451 750 382Q750 301 721 231.5Q692 162 640 110.5Q588 59 515.5 29.5Q443 0 356 0H40L85 260H-2Z" glyph-name="Eth" horiz-adv-x="753" unicode="&#208;" /><glyph d="M281 163Q315 163 340.5 173Q366 183 383.5 200.5Q401 218 410 241Q419 264 419 291Q419 324 407.5 345Q396 366 379 378Q362 390 343.5 394.5Q325 399 312 399H271L260 341H346L327 229H240L229 163ZM24 341H80L119 560H334Q397 560 447.5 540.5Q498 521 533.5 486.5Q569 452 588.5 404.5Q608 357 608 300Q608 238 584.5 183.5Q561 129 519.5 88Q478 47 420.5 23.5Q363 0 294 0H21L61 229H5Z" glyph-name="Eth.smcp" horiz-adv-x="624" unicode="&#62498;" /><glyph d="M80 467H128Q148 522 183.5 567.5Q219 613 265 644.5Q311 676 365.5 693.5Q420 711 480 711Q541 711 598.5 692Q656 673 702 636Q748 599 778 544Q808 489 814 418H590Q580 466 552.5 492.5Q525 519 473 519Q438 519 410 505.5Q382 492 362 467H511L493 366H319Q318 358 317.5 350.5Q317 343 316 335H487L469 234H337Q352 210 378 195.5Q404 181 441 181Q486 181 521 208.5Q556 236 570 282H817Q795 211 755.5 156.5Q716 102 665 65Q614 28 554.5 8.5Q495 -11 434 -11Q373 -11 320.5 7Q268 25 227 57Q186 89 157 134.5Q128 180 115 234H38L56 335H104Q104 343 104.5 350.5Q105 358 106 366H62Z" glyph-name="Euro" horiz-adv-x="839" unicode="&#8364;" /><glyph d="M60 363H99Q114 409 143.5 447Q173 485 212 512Q251 539 298 554Q345 569 396 569Q446 569 494 553Q542 537 581 506Q620 475 646 429Q672 383 677 322H471Q455 392 389 392Q366 392 347.5 384.5Q329 377 315 363H403L391 292H282Q281 286 280.5 280Q280 274 280 268H386L374 197H302Q313 184 329 176.5Q345 169 367 169Q397 169 423 187.5Q449 206 458 238H686Q668 178 634 132Q600 86 556.5 55Q513 24 462.5 8Q412 -8 361 -8Q311 -8 267 7Q223 22 188.5 49Q154 76 129.5 114Q105 152 94 197H31L43 268H85V270Q85 275 85 280.5Q85 286 86 292H48Z" glyph-name="Euro.smcp" horiz-adv-x="714" unicode="&#63111;" /><glyph d="M260 251 218 0H21L140 700H679L650 525H308L292 426H555L525 251Z" glyph-name="F" horiz-adv-x="610" unicode="F" /><glyph d="M110 560H558L532 400H264L254 338H464L437 178H225L195 0H16Z" glyph-name="F.smcp" horiz-adv-x="519" unicode="&#62262;" /><glyph d="M572 80Q563 64 545 48Q527 32 501.5 18.5Q476 5 443 -3.5Q410 -12 370 -12Q301 -12 242 12.5Q183 37 139 82.5Q95 128 70 192Q45 256 45 334Q45 416 76.5 485Q108 554 160.5 604.5Q213 655 281.5 683.5Q350 712 425 712Q494 712 555 690.5Q616 669 664 630Q712 591 743.5 537.5Q775 484 784 421H556Q546 461 511 489.5Q476 518 420 518Q386 518 356.5 504Q327 490 305 464.5Q283 439 270 404.5Q257 370 257 330Q257 300 267 271Q277 242 296.5 219.5Q316 197 345 183.5Q374 170 412 170Q440 170 462.5 176.5Q485 183 501.5 193.5Q518 204 529.5 216Q541 228 548 239H399L426 382H769L702 0H556Z" glyph-name="G" horiz-adv-x="777" unicode="G" /><glyph d="M622 302 569 0H440L450 47Q447 43 436.5 33.5Q426 24 407.5 14.5Q389 5 361.5 -2.5Q334 -10 297 -10Q244 -10 196 9.5Q148 29 112 65.5Q76 102 54.5 153.5Q33 205 33 270Q33 334 58.5 389Q84 444 126 484.5Q168 525 223 547.5Q278 570 338 570Q396 570 446.5 551.5Q497 533 536.5 500.5Q576 468 601.5 423.5Q627 379 635 326H425Q420 352 395.5 371Q371 390 333 390Q312 390 292.5 380.5Q273 371 259 354.5Q245 338 236.5 315.5Q228 293 228 266Q228 247 235 227.5Q242 208 255.5 192.5Q269 177 289 167Q309 157 336 157Q371 157 392.5 169.5Q414 182 425 193H310L332 302Z" glyph-name="G.smcp" horiz-adv-x="642" unicode="&#62263;" /><glyph d="M508 929H635L628 887Q615 809 569 774Q523 739 457 739Q425 739 396.5 749.5Q368 760 347.5 780Q327 800 317 829.5Q307 859 312 898L316 929H439L436 907Q433 887 442 875.5Q451 864 467 864Q498 864 504 904ZM572 80Q563 64 545 48Q527 32 501.5 18.5Q476 5 443 -3.5Q410 -12 370 -12Q301 -12 242 12.5Q183 37 139 82.5Q95 128 70 192Q45 256 45 334Q45 416 76.5 485Q108 554 160.5 604.5Q213 655 281.5 683.5Q350 712 425 712Q494 712 555 690.5Q616 669 664 630Q712 591 743.5 537.5Q775 484 784 421H556Q546 461 511 489.5Q476 518 420 518Q386 518 356.5 504Q327 490 305 464.5Q283 439 270 404.5Q257 370 257 330Q257 300 267 271Q277 242 296.5 219.5Q316 197 345 183.5Q374 170 412 170Q440 170 462.5 176.5Q485 183 501.5 193.5Q518 204 529.5 216Q541 228 548 239H399L426 382H769L702 0H556Z" glyph-name="Gbreve" horiz-adv-x="777" unicode="&#286;" /><glyph d="M387 705Q411 705 416 730L417 735H537L535 723Q524 659 483.5 629.5Q443 600 382 600Q314 600 281.5 629.5Q249 659 249 704Q249 716 252 730L253 735H363L362 729Q360 718 367.5 711.5Q375 705 387 705ZM622 302 569 0H440L450 47Q447 43 436.5 33.5Q426 24 407.5 14.5Q389 5 361.5 -2.5Q334 -10 297 -10Q244 -10 196 9.5Q148 29 112 65.5Q76 102 54.5 153.5Q33 205 33 270Q33 334 58.5 389Q84 444 126 484.5Q168 525 223 547.5Q278 570 338 570Q396 570 446.5 551.5Q497 533 536.5 500.5Q576 468 601.5 423.5Q627 379 635 326H425Q420 352 395.5 371Q371 390 333 390Q312 390 292.5 380.5Q273 371 259 354.5Q245 338 236.5 315.5Q228 293 228 266Q228 247 235 227.5Q242 208 255.5 192.5Q269 177 289 167Q309 157 336 157Q371 157 392.5 169.5Q414 182 425 193H310L332 302Z" glyph-name="Gbreve.smcp" horiz-adv-x="642" unicode="&#62325;" /><glyph d="M473 810 436 752H258L398 929H574L652 752H496ZM572 80Q563 64 545 48Q527 32 501.5 18.5Q476 5 443 -3.5Q410 -12 370 -12Q301 -12 242 12.5Q183 37 139 82.5Q95 128 70 192Q45 256 45 334Q45 416 76.5 485Q108 554 160.5 604.5Q213 655 281.5 683.5Q350 712 425 712Q494 712 555 690.5Q616 669 664 630Q712 591 743.5 537.5Q775 484 784 421H556Q546 461 511 489.5Q476 518 420 518Q386 518 356.5 504Q327 490 305 464.5Q283 439 270 404.5Q257 370 257 330Q257 300 267 271Q277 242 296.5 219.5Q316 197 345 183.5Q374 170 412 170Q440 170 462.5 176.5Q485 183 501.5 193.5Q518 204 529.5 216Q541 228 548 239H399L426 382H769L702 0H556Z" glyph-name="Gcircumflex" horiz-adv-x="777" unicode="&#284;" /><glyph d="M394 641 362 605H212L307 730H503L552 605H412ZM622 302 569 0H440L450 47Q447 43 436.5 33.5Q426 24 407.5 14.5Q389 5 361.5 -2.5Q334 -10 297 -10Q244 -10 196 9.5Q148 29 112 65.5Q76 102 54.5 153.5Q33 205 33 270Q33 334 58.5 389Q84 444 126 484.5Q168 525 223 547.5Q278 570 338 570Q396 570 446.5 551.5Q497 533 536.5 500.5Q576 468 601.5 423.5Q627 379 635 326H425Q420 352 395.5 371Q371 390 333 390Q312 390 292.5 380.5Q273 371 259 354.5Q245 338 236.5 315.5Q228 293 228 266Q228 247 235 227.5Q242 208 255.5 192.5Q269 177 289 167Q309 157 336 157Q371 157 392.5 169.5Q414 182 425 193H310L332 302Z" glyph-name="Gcircumflex.smcp" horiz-adv-x="642" unicode="&#62326;" /><glyph d="M204 -268 244 -197Q220 -168 220 -132Q220 -113 227.5 -95Q235 -77 248 -63.5Q261 -50 279.5 -42Q298 -34 319 -34Q341 -34 360 -42.5Q379 -51 393 -65Q407 -79 415 -97Q423 -115 423 -134Q423 -179 383 -225L301 -320ZM572 80Q563 64 545 48Q527 32 501.5 18.5Q476 5 443 -3.5Q410 -12 370 -12Q301 -12 242 12.5Q183 37 139 82.5Q95 128 70 192Q45 256 45 334Q45 416 76.5 485Q108 554 160.5 604.5Q213 655 281.5 683.5Q350 712 425 712Q494 712 555 690.5Q616 669 664 630Q712 591 743.5 537.5Q775 484 784 421H556Q546 461 511 489.5Q476 518 420 518Q386 518 356.5 504Q327 490 305 464.5Q283 439 270 404.5Q257 370 257 330Q257 300 267 271Q277 242 296.5 219.5Q316 197 345 183.5Q374 170 412 170Q440 170 462.5 176.5Q485 183 501.5 193.5Q518 204 529.5 216Q541 228 548 239H399L426 382H769L702 0H556Z" glyph-name="Gcommaaccent" horiz-adv-x="777" unicode="&#290;" /><glyph d="M161 -257 206 -181Q186 -158 186 -126Q186 -92 210.5 -66Q235 -40 273 -40Q292 -40 309 -47.5Q326 -55 338.5 -67Q351 -79 358 -95Q365 -111 365 -128Q365 -173 324 -212L252 -286ZM622 302 569 0H440L450 47Q447 43 436.5 33.5Q426 24 407.5 14.5Q389 5 361.5 -2.5Q334 -10 297 -10Q244 -10 196 9.5Q148 29 112 65.5Q76 102 54.5 153.5Q33 205 33 270Q33 334 58.5 389Q84 444 126 484.5Q168 525 223 547.5Q278 570 338 570Q396 570 446.5 551.5Q497 533 536.5 500.5Q576 468 601.5 423.5Q627 379 635 326H425Q420 352 395.5 371Q371 390 333 390Q312 390 292.5 380.5Q273 371 259 354.5Q245 338 236.5 315.5Q228 293 228 266Q228 247 235 227.5Q242 208 255.5 192.5Q269 177 289 167Q309 157 336 157Q371 157 392.5 169.5Q414 182 425 193H310L332 302Z" glyph-name="Gcommaaccent.smcp" horiz-adv-x="642" unicode="&#62484;" /><glyph d="M436 749Q417 749 400 756.5Q383 764 370 777Q357 790 349 807Q341 824 341 843Q341 862 349 879Q357 896 370 909Q383 922 400 929.5Q417 937 436 937Q455 937 472 929.5Q489 922 502 909Q515 896 523 879Q531 862 531 843Q531 824 523 807Q515 790 502 777Q489 764 472 756.5Q455 749 436 749ZM572 80Q563 64 545 48Q527 32 501.5 18.5Q476 5 443 -3.5Q410 -12 370 -12Q301 -12 242 12.5Q183 37 139 82.5Q95 128 70 192Q45 256 45 334Q45 416 76.5 485Q108 554 160.5 604.5Q213 655 281.5 683.5Q350 712 425 712Q494 712 555 690.5Q616 669 664 630Q712 591 743.5 537.5Q775 484 784 421H556Q546 461 511 489.5Q476 518 420 518Q386 518 356.5 504Q327 490 305 464.5Q283 439 270 404.5Q257 370 257 330Q257 300 267 271Q277 242 296.5 219.5Q316 197 345 183.5Q374 170 412 170Q440 170 462.5 176.5Q485 183 501.5 193.5Q518 204 529.5 216Q541 228 548 239H399L426 382H769L702 0H556Z" glyph-name="Gdotaccent" horiz-adv-x="777" unicode="&#288;" /><glyph d="M373 769Q390 769 405.5 762Q421 755 433 743.5Q445 732 452 716.5Q459 701 459 684Q459 667 452 652Q445 637 433 625.5Q421 614 405.5 607Q390 600 373 600Q356 600 340.5 607Q325 614 313 625.5Q301 637 294 652Q287 667 287 684Q287 701 294 716.5Q301 732 313 743.5Q325 755 340.5 762Q356 769 373 769ZM622 302 569 0H440L450 47Q447 43 436.5 33.5Q426 24 407.5 14.5Q389 5 361.5 -2.5Q334 -10 297 -10Q244 -10 196 9.5Q148 29 112 65.5Q76 102 54.5 153.5Q33 205 33 270Q33 334 58.5 389Q84 444 126 484.5Q168 525 223 547.5Q278 570 338 570Q396 570 446.5 551.5Q497 533 536.5 500.5Q576 468 601.5 423.5Q627 379 635 326H425Q420 352 395.5 371Q371 390 333 390Q312 390 292.5 380.5Q273 371 259 354.5Q245 338 236.5 315.5Q228 293 228 266Q228 247 235 227.5Q242 208 255.5 192.5Q269 177 289 167Q309 157 336 157Q371 157 392.5 169.5Q414 182 425 193H310L332 302Z" glyph-name="Gdotaccent.smcp" horiz-adv-x="642" unicode="&#62327;" /><glyph d="M429 0 474 260H264L219 0H20L142 700H339L295 444H506L549 700H748L627 0Z" glyph-name="H" horiz-adv-x="727" unicode="H" /><glyph d="M112 560H291L258 365H405L437 560H619L522 0H341L375 195H229L195 0H14Z" glyph-name="H.smcp" horiz-adv-x="616" unicode="&#62264;" /><glyph d="M519 444 526 490H316L308 444ZM75 645H145L155 700H352L342 645H552L562 700H761L751 645H813L786 490H724L640 0H442L487 260H277L232 0H33L118 490H49Z" glyph-name="Hbar" horiz-adv-x="747" unicode="&#294;" /><glyph d="M407 365 412 397H265L260 365ZM71 498H103L114 560H293L282 498H429L439 560H621L610 498H642L625 397H593L524 0H343L377 195H231L197 0H16L85 397H54Z" glyph-name="Hbar.smcp" horiz-adv-x="619" unicode="&#62499;" /><glyph d="M459 810 422 752H244L384 929H560L638 752H482ZM429 0 474 260H264L219 0H20L142 700H339L295 444H506L549 700H748L627 0Z" glyph-name="Hcircumflex" horiz-adv-x="727" unicode="&#292;" /><glyph d="M380 641 348 605H198L293 730H489L538 605H398ZM112 560H291L258 365H405L437 560H619L522 0H341L375 195H229L195 0H14Z" glyph-name="Hcircumflex.smcp" horiz-adv-x="616" unicode="&#62328;" /><glyph d="M141 700H339L220 0H21Z" glyph-name="I" horiz-adv-x="319" unicode="I" /><glyph d="M111 560H291L197 0H15Z" glyph-name="I.smcp" horiz-adv-x="290" unicode="&#62265;" /><glyph d="M540 321 534 287Q531 268 532.5 248.5Q534 229 542 213Q550 197 566.5 186.5Q583 176 609 176Q624 176 638.5 180Q653 184 666 194.5Q679 205 688.5 222.5Q698 240 703 267L776 700H975L891 212Q883 164 860 123Q837 82 800.5 52Q764 22 714.5 5Q665 -12 602 -12Q539 -12 485.5 9Q432 30 395.5 68.5Q359 107 342.5 161Q326 215 337 281L344 321ZM141 700H339L220 0H21Z" glyph-name="IJ" horiz-adv-x="948" unicode="&#306;" /><glyph d="M330 17Q347 17 353.5 25.5Q360 34 365 59L475 700H673L549 -11Q544 -47 531.5 -75Q519 -103 498 -121.5Q477 -140 445.5 -150Q414 -160 371 -160H253L284 17ZM141 700H339L220 0H21Z" glyph-name="IJ.alt" horiz-adv-x="651" unicode="&#59530;" /><glyph d="M488 286 480 240Q478 227 478 213.5Q478 200 483.5 188.5Q489 177 500 169.5Q511 162 530 162Q536 162 545 164Q554 166 563 172Q572 178 579.5 190.5Q587 203 590 224L646 560H828L760 171Q753 132 734 99Q715 66 684.5 42Q654 18 612.5 4Q571 -10 519 -10Q468 -10 424 6.5Q380 23 349.5 54Q319 85 305 128.5Q291 172 300 226L310 286ZM111 560H291L197 0H15Z" glyph-name="IJ.smcp" horiz-adv-x="820" unicode="&#62341;" /><glyph d="M232 929H457L331 752H162ZM141 700H339L220 0H21Z" glyph-name="Iacute" horiz-adv-x="319" unicode="&#205;" /><glyph d="M184 730H386L283 605H130ZM111 560H291L197 0H15Z" glyph-name="Iacute.smcp" horiz-adv-x="290" unicode="&#62329;" /><glyph d="M312 929H439L432 887Q419 809 373 774Q327 739 261 739Q229 739 200.5 749.5Q172 760 151.5 780Q131 800 121 829.5Q111 859 116 898L120 929H243L240 907Q237 887 246 875.5Q255 864 271 864Q302 864 308 904ZM141 700H339L220 0H21Z" glyph-name="Ibreve" horiz-adv-x="319" unicode="&#300;" /><glyph d="M221 705Q245 705 250 730L251 735H371L369 723Q358 659 317.5 629.5Q277 600 216 600Q148 600 115.5 629.5Q83 659 83 704Q83 716 86 730L87 735H197L196 729Q194 718 201.5 711.5Q209 705 221 705ZM111 560H291L197 0H15Z" glyph-name="Ibreve.smcp" horiz-adv-x="290" unicode="&#62336;" /><glyph d="M278 810 241 752H63L203 929H379L457 752H301ZM141 700H339L220 0H21Z" glyph-name="Icircumflex" horiz-adv-x="319" unicode="&#206;" /><glyph d="M216 641 184 605H34L129 730H325L374 605H234ZM111 560H291L197 0H15Z" glyph-name="Icircumflex.smcp" horiz-adv-x="290" unicode="&#62337;" /><glyph d="M364 749Q345 749 328 756.5Q311 764 298 777Q285 790 277 807Q269 824 269 843Q269 862 277 879Q285 896 298 909Q311 922 328 929.5Q345 937 364 937Q383 937 400 929.5Q417 922 430 909Q443 896 451 879Q459 862 459 843Q459 824 451 807Q443 790 430 777Q417 764 400 756.5Q383 749 364 749ZM156 749Q137 749 120 756.5Q103 764 90 777Q77 790 69 807Q61 824 61 843Q61 862 69 879Q77 896 90 909Q103 922 120 929.5Q137 937 156 937Q175 937 192 929.5Q209 922 222 909Q235 896 243 879Q251 862 251 843Q251 824 243 807Q235 790 222 777Q209 764 192 756.5Q175 749 156 749ZM141 700H339L220 0H21Z" glyph-name="Idieresis" horiz-adv-x="319" unicode="&#207;" /><glyph d="M314 769Q331 769 346.5 762Q362 755 374 743.5Q386 732 393 716.5Q400 701 400 684Q400 667 393 652Q386 637 374 625.5Q362 614 346.5 607Q331 600 314 600Q297 600 281.5 607Q266 614 254 625.5Q242 637 235 652Q228 667 228 684Q228 701 235 716.5Q242 732 254 743.5Q266 755 281.5 762Q297 769 314 769ZM124 769Q141 769 156.5 762Q172 755 184 743.5Q196 732 203 716.5Q210 701 210 684Q210 667 203 652Q196 637 184 625.5Q172 614 156.5 607Q141 600 124 600Q107 600 91.5 607Q76 614 64 625.5Q52 637 45 652Q38 667 38 684Q38 701 45 716.5Q52 732 64 743.5Q76 755 91.5 762Q107 769 124 769ZM111 560H291L197 0H15Z" glyph-name="Idieresis.smcp" horiz-adv-x="290" unicode="&#62338;" /><glyph d="M258 749Q239 749 222 756.5Q205 764 192 777Q179 790 171 807Q163 824 163 843Q163 862 171 879Q179 896 192 909Q205 922 222 929.5Q239 937 258 937Q277 937 294 929.5Q311 922 324 909Q337 896 345 879Q353 862 353 843Q353 824 345 807Q337 790 324 777Q311 764 294 756.5Q277 749 258 749ZM141 700H339L220 0H21Z" glyph-name="Idotaccent" horiz-adv-x="319" unicode="&#304;" /><glyph d="M215 769Q232 769 247.5 762Q263 755 275 743.5Q287 732 294 716.5Q301 701 301 684Q301 667 294 652Q287 637 275 625.5Q263 614 247.5 607Q232 600 215 600Q198 600 182.5 607Q167 614 155 625.5Q143 637 136 652Q129 667 129 684Q129 701 136 716.5Q143 732 155 743.5Q167 755 182.5 762Q198 769 215 769ZM111 560H291L197 0H15Z" glyph-name="Idotaccent.smcp" horiz-adv-x="290" unicode="&#62339;" /><glyph d="M324 752H155L49 929H273ZM141 700H339L220 0H21Z" glyph-name="Igrave" horiz-adv-x="319" unicode="&#204;" /><glyph d="M279 605H126L29 730H231ZM111 560H291L197 0H15Z" glyph-name="Igrave.smcp" horiz-adv-x="290" unicode="&#62340;" /><glyph d="M107 904H448L422 754H81ZM141 700H339L220 0H21Z" glyph-name="Imacron" horiz-adv-x="319" unicode="&#298;" /><glyph d="M78 730H376L353 605H55ZM111 560H291L197 0H15Z" glyph-name="Imacron.smcp" horiz-adv-x="290" unicode="&#62489;" /><glyph d="M141 700H339L220 0H148Q117 -20 107 -37Q97 -54 97 -67Q97 -83 109.5 -90Q122 -97 136 -97Q156 -97 177 -91.5Q198 -86 208 -84L185 -175Q157 -186 127.5 -194.5Q98 -203 59 -203Q7 -203 -28.5 -177.5Q-64 -152 -64 -107Q-64 -72 -38 -43.5Q-12 -15 41 0H21Z" glyph-name="Iogonek" horiz-adv-x="319" unicode="&#302;" /><glyph d="M111 560H291L197 0H163Q132 -14 122.5 -26Q113 -38 111 -46Q109 -58 116 -65Q123 -72 135 -72Q152 -72 167 -69.5Q182 -67 187 -66L169 -153Q164 -155 142.5 -162Q121 -169 71 -169Q45 -169 21.5 -163Q-2 -157 -18.5 -145.5Q-35 -134 -43 -118Q-51 -102 -47 -81Q-42 -53 -17.5 -32Q7 -11 64 0H15Z" glyph-name="Iogonek.smcp" horiz-adv-x="290" unicode="&#62342;" /><glyph d="M452 897Q452 885 448.5 859.5Q445 834 433 808.5Q421 783 397 763.5Q373 744 333 744Q316 744 299.5 749Q283 754 267.5 760.5Q252 767 238.5 772Q225 777 215 777Q198 777 195 762L193 752L68 764Q68 776 71.5 801.5Q75 827 87 853.5Q99 880 122.5 900Q146 920 187 920Q203 920 220 914.5Q237 909 252.5 902Q268 895 281.5 889.5Q295 884 305 884Q322 884 325 899L327 909ZM141 700H339L220 0H21Z" glyph-name="Itilde" horiz-adv-x="319" unicode="&#296;" /><glyph d="M262 600Q250 600 235 603.5Q220 607 205.5 611Q191 615 178.5 618.5Q166 622 160 622Q155 622 151.5 619.5Q148 617 148 609V605H40L43 630Q44 642 48.5 660.5Q53 679 64.5 697Q76 715 97 727.5Q118 740 153 740Q165 740 180 736.5Q195 733 209.5 729Q224 725 236.5 721.5Q249 718 255 718Q260 718 263.5 720.5Q267 723 267 731V735H375L372 710Q370 698 366 679.5Q362 661 350.5 643Q339 625 318 612.5Q297 600 262 600ZM111 560H291L197 0H15Z" glyph-name="Itilde.smcp" horiz-adv-x="290" unicode="&#62343;" /><glyph d="M221 321 215 287Q212 268 213.5 248.5Q215 229 223 213Q231 197 247.5 186.5Q264 176 290 176Q305 176 319.5 180Q334 184 347 194.5Q360 205 369.5 222.5Q379 240 384 267L457 700H656L572 212Q564 164 541 123Q518 82 481.5 52Q445 22 395.5 5Q346 -12 283 -12Q220 -12 166.5 9Q113 30 76.5 68.5Q40 107 23.5 161Q7 215 18 281L25 321Z" glyph-name="J" horiz-adv-x="629" unicode="J" /><glyph d="M11 17Q28 17 34.5 25.5Q41 34 46 59L156 700H354L230 -11Q225 -47 212.5 -75Q200 -103 179 -121.5Q158 -140 126.5 -150Q95 -160 52 -160H-66L-35 17Z" glyph-name="J.alt" horiz-adv-x="332" unicode="&#58505;" /><glyph d="M198 286 190 240Q188 227 188 213.5Q188 200 193.5 188.5Q199 177 210 169.5Q221 162 240 162Q246 162 255 164Q264 166 273 172Q282 178 289.5 190.5Q297 203 300 224L356 560H538L470 171Q463 132 444 99Q425 66 394.5 42Q364 18 322.5 4Q281 -10 229 -10Q178 -10 134 6.5Q90 23 59.5 54Q29 85 15 128.5Q1 172 10 226L20 286Z" glyph-name="J.smcp" horiz-adv-x="530" unicode="&#62272;" /><glyph d="M386 810 349 752H171L311 929H487L565 752H409ZM221 321 215 287Q212 268 213.5 248.5Q215 229 223 213Q231 197 247.5 186.5Q264 176 290 176Q305 176 319.5 180Q334 184 347 194.5Q360 205 369.5 222.5Q379 240 384 267L457 700H656L572 212Q564 164 541 123Q518 82 481.5 52Q445 22 395.5 5Q346 -12 283 -12Q220 -12 166.5 9Q113 30 76.5 68.5Q40 107 23.5 161Q7 215 18 281L25 321Z" glyph-name="Jcircumflex" horiz-adv-x="629" unicode="&#308;" /><glyph d="M305 641 273 605H123L218 730H414L463 605H323ZM198 286 190 240Q188 227 188 213.5Q188 200 193.5 188.5Q199 177 210 169.5Q221 162 240 162Q246 162 255 164Q264 166 273 172Q282 178 289.5 190.5Q297 203 300 224L356 560H538L470 171Q463 132 444 99Q425 66 394.5 42Q364 18 322.5 4Q281 -10 229 -10Q178 -10 134 6.5Q90 23 59.5 54Q29 85 15 128.5Q1 172 10 226L20 286Z" glyph-name="Jcircumflex.smcp" horiz-adv-x="530" unicode="&#62344;" /><glyph d="M294 447H331L521 700H764L480 350L632 0H404L298 272H267L219 0H20L142 700H339Z" glyph-name="K" horiz-adv-x="673" unicode="K" /><glyph d="M112 560H291L257 367H288L412 560H631L423 276L526 0H319L255 206H232L195 0H14Z" glyph-name="K.smcp" horiz-adv-x="575" unicode="&#62273;" /><glyph d="M175 -268 215 -197Q191 -168 191 -132Q191 -113 198.5 -95Q206 -77 219 -63.5Q232 -50 250.5 -42Q269 -34 290 -34Q312 -34 331 -42.5Q350 -51 364 -65Q378 -79 386 -97Q394 -115 394 -134Q394 -179 354 -225L272 -320ZM294 447H331L521 700H764L480 350L632 0H404L298 272H267L219 0H20L142 700H339Z" glyph-name="Kcommaaccent" horiz-adv-x="673" unicode="&#310;" /><glyph d="M121 -257 166 -181Q146 -158 146 -126Q146 -92 170.5 -66Q195 -40 233 -40Q252 -40 269 -47.5Q286 -55 298.5 -67Q311 -79 318 -95Q325 -111 325 -128Q325 -173 284 -212L212 -286ZM112 560H291L257 367H288L412 560H631L423 276L526 0H319L255 206H232L195 0H14Z" glyph-name="Kcommaaccent.smcp" horiz-adv-x="575" unicode="&#62345;" /><glyph d="M21 0 140 700H339L249 176H530L500 0Z" glyph-name="L" horiz-adv-x="550" unicode="L" /><glyph d="M110 560H292L224 161H445L417 0H16Z" glyph-name="L.smcp" horiz-adv-x="470" unicode="&#62274;" /><glyph d="M307 929H532L406 752H237ZM21 0 140 700H339L249 176H530L500 0Z" glyph-name="Lacute" horiz-adv-x="550" unicode="&#313;" /><glyph d="M251 730H453L350 605H197ZM110 560H292L224 161H445L417 0H16Z" glyph-name="Lacute.smcp" horiz-adv-x="470" unicode="&#62352;" /><glyph d="M388 478 428 549Q404 578 404 614Q404 633 411.5 651Q419 669 432 682.5Q445 696 463.5 704Q482 712 503 712Q525 712 544 703.5Q563 695 577 681Q591 667 599 649Q607 631 607 612Q607 567 567 521L485 426ZM21 0 140 700H339L249 176H530L500 0Z" glyph-name="Lcaron" horiz-adv-x="554" unicode="&#317;" /><glyph d="M316 352 361 428Q341 451 341 483Q341 517 365.5 543Q390 569 428 569Q447 569 464 561.5Q481 554 493.5 542Q506 530 513 514Q520 498 520 481Q520 436 479 397L407 323ZM110 560H292L224 161H445L417 0H16Z" glyph-name="Lcaron.smcp" horiz-adv-x="482" unicode="&#62496;" /><glyph d="M116 -268 156 -197Q132 -168 132 -132Q132 -113 139.5 -95Q147 -77 160 -63.5Q173 -50 191.5 -42Q210 -34 231 -34Q253 -34 272 -42.5Q291 -51 305 -65Q319 -79 327 -97Q335 -115 335 -134Q335 -179 295 -225L213 -320ZM21 0 140 700H339L249 176H530L500 0Z" glyph-name="Lcommaaccent" horiz-adv-x="550" unicode="&#315;" /><glyph d="M81 -257 126 -181Q106 -158 106 -126Q106 -92 130.5 -66Q155 -40 193 -40Q212 -40 229 -47.5Q246 -55 258.5 -67Q271 -79 278 -95Q285 -111 285 -128Q285 -173 244 -212L172 -286ZM110 560H292L224 161H445L417 0H16Z" glyph-name="Lcommaaccent.smcp" horiz-adv-x="470" unicode="&#62488;" /><glyph d="M337 407Q337 431 346 451.5Q355 472 370 487Q385 502 405 511Q425 520 448 520Q472 520 492.5 511Q513 502 528 487Q543 472 552 451.5Q561 431 561 407Q561 384 552 364Q543 344 528 329Q513 314 492.5 305Q472 296 448 296Q425 296 405 305Q385 314 370 329Q355 344 346 364Q337 384 337 407ZM21 0 140 700H339L249 176H530L500 0Z" glyph-name="Ldot" horiz-adv-x="551" unicode="&#319;" /><glyph d="M387 418Q404 418 419.5 411Q435 404 447 392.5Q459 381 466 365.5Q473 350 473 333Q473 316 466 301Q459 286 447 274.5Q435 263 419.5 256Q404 249 387 249Q370 249 354.5 256Q339 263 327 274.5Q315 286 308 301Q301 316 301 333Q301 350 308 365.5Q315 381 327 392.5Q339 404 354.5 411Q370 418 387 418ZM110 560H292L224 161H445L417 0H16Z" glyph-name="Ldot.smcp" horiz-adv-x="472" unicode="&#62501;" /><glyph d="M23 336 88 358 146 700H345L298 429L432 474L410 355L278 310L255 176H536L506 0H27L68 240L2 218Z" glyph-name="Lslash" horiz-adv-x="555" unicode="&#321;" /><glyph d="M16 274 69 290 114 560H296L260 350L354 380L334 270L241 241L228 161H449L421 0H20L50 181L-3 164Z" glyph-name="Lslash.smcp" horiz-adv-x="473" unicode="&#62502;" /><glyph d="M328 150 283 400 215 0H21L140 700H395L445 408L593 700H860L740 0H544L612 400L481 150Z" glyph-name="M" horiz-adv-x="839" unicode="M" /><glyph d="M110 560H341L369 370L460 560H701L605 0H427L475 286L392 120H268L241 286L193 0H16Z" glyph-name="M.smcp" horiz-adv-x="699" unicode="&#62275;" /><glyph d="M214 0H20L142 700H417L488 340L554 700H748L627 0H389L295 448Z" glyph-name="N" horiz-adv-x="727" unicode="N" /><glyph d="M112 560H336L398 304L442 560H619L522 0H302L239 274L190 0H14Z" glyph-name="N.smcp" horiz-adv-x="616" unicode="&#62276;" /><glyph d="M417 929H642L516 752H347ZM214 0H20L142 700H417L488 340L554 700H748L627 0H389L295 448Z" glyph-name="Nacute" horiz-adv-x="727" unicode="&#323;" /><glyph d="M334 730H536L433 605H280ZM112 560H336L398 304L442 560H619L522 0H302L239 274L190 0H14Z" glyph-name="Nacute.smcp" horiz-adv-x="616" unicode="&#62353;" /><glyph d="M468 871 506 929H681L541 752H365L287 929H447ZM214 0H20L142 700H417L488 340L554 700H748L627 0H389L295 448Z" glyph-name="Ncaron" horiz-adv-x="727" unicode="&#327;" /><glyph d="M415 730H565L470 605H274L225 730H365L383 694ZM112 560H336L398 304L442 560H619L522 0H302L239 274L190 0H14Z" glyph-name="Ncaron.smcp" horiz-adv-x="616" unicode="&#62354;" /><glyph d="M187 -268 227 -197Q203 -168 203 -132Q203 -113 210.5 -95Q218 -77 231 -63.5Q244 -50 262.5 -42Q281 -34 302 -34Q324 -34 343 -42.5Q362 -51 376 -65Q390 -79 398 -97Q406 -115 406 -134Q406 -179 366 -225L284 -320ZM214 0H20L142 700H417L488 340L554 700H748L627 0H389L295 448Z" glyph-name="Ncommaaccent" horiz-adv-x="727" unicode="&#325;" /><glyph d="M146 -257 191 -181Q171 -158 171 -126Q171 -92 195.5 -66Q220 -40 258 -40Q277 -40 294 -47.5Q311 -55 323.5 -67Q336 -79 343 -95Q350 -111 350 -128Q350 -173 309 -212L237 -286ZM112 560H336L398 304L442 560H619L522 0H302L239 274L190 0H14Z" glyph-name="Ncommaaccent.smcp" horiz-adv-x="616" unicode="&#62355;" /><glyph d="M646 897Q646 885 642.5 859.5Q639 834 627 808.5Q615 783 591 763.5Q567 744 527 744Q510 744 493.5 749Q477 754 461.5 760.5Q446 767 432.5 772Q419 777 409 777Q392 777 389 762L387 752L262 764Q262 776 265.5 801.5Q269 827 281 853.5Q293 880 316.5 900Q340 920 381 920Q397 920 414 914.5Q431 909 446.5 902Q462 895 475.5 889.5Q489 884 499 884Q516 884 519 899L521 909ZM214 0H20L142 700H417L488 340L554 700H748L627 0H389L295 448Z" glyph-name="Ntilde" horiz-adv-x="727" unicode="&#209;" /><glyph d="M433 600Q421 600 406 603.5Q391 607 376.5 611Q362 615 349.5 618.5Q337 622 331 622Q326 622 322.5 619.5Q319 617 319 609V605H211L214 630Q215 642 219.5 660.5Q224 679 235.5 697Q247 715 268 727.5Q289 740 324 740Q336 740 351 736.5Q366 733 380.5 729Q395 725 407.5 721.5Q420 718 426 718Q431 718 434.5 720.5Q438 723 438 731V735H546L543 710Q541 698 537 679.5Q533 661 521.5 643Q510 625 489 612.5Q468 600 433 600ZM112 560H336L398 304L442 560H619L522 0H302L239 274L190 0H14Z" glyph-name="Ntilde.smcp" horiz-adv-x="616" unicode="&#62356;" /><glyph d="M398 -12Q321 -12 256.5 14.5Q192 41 145 88Q98 135 71.5 199Q45 263 45 337Q45 418 76 486.5Q107 555 159.5 605.5Q212 656 280 684Q348 712 423 712Q500 712 565 685Q630 658 677 611.5Q724 565 750 501Q776 437 776 364Q776 283 745 214Q714 145 662 95Q610 45 541.5 16.5Q473 -12 398 -12ZM402 182Q436 182 465 196.5Q494 211 516 236Q538 261 550.5 295.5Q563 330 563 371Q563 401 554 427.5Q545 454 527 474Q509 494 482 506Q455 518 419 518Q385 518 355.5 504Q326 490 304 465Q282 440 269.5 405.5Q257 371 257 331Q257 301 266 274Q275 247 293.5 226.5Q312 206 339 194Q366 182 402 182Z" glyph-name="O" horiz-adv-x="779" unicode="O" /><glyph d="M321 -10Q259 -10 206 11.5Q153 33 114.5 71.5Q76 110 54.5 162Q33 214 33 274Q33 337 58 391.5Q83 446 125 485.5Q167 525 221.5 547.5Q276 570 336 570Q399 570 452 548Q505 526 543.5 488Q582 450 603 398.5Q624 347 624 288Q624 224 599.5 169.5Q575 115 533 75Q491 35 436 12.5Q381 -10 321 -10ZM324 170Q346 170 365 179.5Q384 189 398 206Q412 223 420 245.5Q428 268 428 295Q428 333 405 361.5Q382 390 333 390Q289 390 258.5 356Q228 322 228 268Q228 229 251.5 199.5Q275 170 324 170Z" glyph-name="O.smcp" horiz-adv-x="641" unicode="&#62277;" /><glyph d="M431 525Q385 525 350.5 506Q316 487 293.5 457Q271 427 260 389.5Q249 352 249 316Q249 248 286.5 212Q324 176 378 176H457L518 525ZM1077 525H716L703 444H881L849 270H672L656 176H1016L987 0H362Q288 0 229.5 25Q171 50 130 92.5Q89 135 67 192.5Q45 250 45 315Q45 390 70.5 460Q96 530 146 583Q196 636 270.5 668Q345 700 443 700H1106Z" glyph-name="OE" horiz-adv-x="1061" unicode="&#338;" /><glyph d="M361 161 403 400H332Q300 400 278.5 385.5Q257 371 244 349.5Q231 328 225 303.5Q219 279 219 259Q219 212 243.5 186.5Q268 161 301 161ZM290 0Q231 0 183.5 20.5Q136 41 102.5 76Q69 111 51 157.5Q33 204 33 256Q33 314 52.5 369Q72 424 111.5 466.5Q151 509 210 534.5Q269 560 349 560H883L856 400H584L577 362H706L676 203H549L543 161H825L799 0Z" glyph-name="OE.smcp" horiz-adv-x="868" unicode="&#62295;" /><glyph d="M459 929H684L558 752H389ZM398 -12Q321 -12 256.5 14.5Q192 41 145 88Q98 135 71.5 199Q45 263 45 337Q45 418 76 486.5Q107 555 159.5 605.5Q212 656 280 684Q348 712 423 712Q500 712 565 685Q630 658 677 611.5Q724 565 750 501Q776 437 776 364Q776 283 745 214Q714 145 662 95Q610 45 541.5 16.5Q473 -12 398 -12ZM402 182Q436 182 465 196.5Q494 211 516 236Q538 261 550.5 295.5Q563 330 563 371Q563 401 554 427.5Q545 454 527 474Q509 494 482 506Q455 518 419 518Q385 518 355.5 504Q326 490 304 465Q282 440 269.5 405.5Q257 371 257 331Q257 301 266 274Q275 247 293.5 226.5Q312 206 339 194Q366 182 402 182Z" glyph-name="Oacute" horiz-adv-x="779" unicode="&#211;" /><glyph d="M336 730H538L435 605H282ZM321 -10Q259 -10 206 11.5Q153 33 114.5 71.5Q76 110 54.5 162Q33 214 33 274Q33 337 58 391.5Q83 446 125 485.5Q167 525 221.5 547.5Q276 570 336 570Q399 570 452 548Q505 526 543.5 488Q582 450 603 398.5Q624 347 624 288Q624 224 599.5 169.5Q575 115 533 75Q491 35 436 12.5Q381 -10 321 -10ZM324 170Q346 170 365 179.5Q384 189 398 206Q412 223 420 245.5Q428 268 428 295Q428 333 405 361.5Q382 390 333 390Q289 390 258.5 356Q228 322 228 268Q228 229 251.5 199.5Q275 170 324 170Z" glyph-name="Oacute.smcp" horiz-adv-x="641" unicode="&#62357;" /><glyph d="M500 929H627L620 887Q607 809 561 774Q515 739 449 739Q417 739 388.5 749.5Q360 760 339.5 780Q319 800 309 829.5Q299 859 304 898L308 929H431L428 907Q425 887 434 875.5Q443 864 459 864Q490 864 496 904ZM398 -12Q321 -12 256.5 14.5Q192 41 145 88Q98 135 71.5 199Q45 263 45 337Q45 418 76 486.5Q107 555 159.5 605.5Q212 656 280 684Q348 712 423 712Q500 712 565 685Q630 658 677 611.5Q724 565 750 501Q776 437 776 364Q776 283 745 214Q714 145 662 95Q610 45 541.5 16.5Q473 -12 398 -12ZM402 182Q436 182 465 196.5Q494 211 516 236Q538 261 550.5 295.5Q563 330 563 371Q563 401 554 427.5Q545 454 527 474Q509 494 482 506Q455 518 419 518Q385 518 355.5 504Q326 490 304 465Q282 440 269.5 405.5Q257 371 257 331Q257 301 266 274Q275 247 293.5 226.5Q312 206 339 194Q366 182 402 182Z" glyph-name="Obreve" horiz-adv-x="779" unicode="&#334;" /><glyph d="M368 705Q392 705 397 730L398 735H518L516 723Q505 659 464.5 629.5Q424 600 363 600Q295 600 262.5 629.5Q230 659 230 704Q230 716 233 730L234 735H344L343 729Q341 718 348.5 711.5Q356 705 368 705ZM321 -10Q259 -10 206 11.5Q153 33 114.5 71.5Q76 110 54.5 162Q33 214 33 274Q33 337 58 391.5Q83 446 125 485.5Q167 525 221.5 547.5Q276 570 336 570Q399 570 452 548Q505 526 543.5 488Q582 450 603 398.5Q624 347 624 288Q624 224 599.5 169.5Q575 115 533 75Q491 35 436 12.5Q381 -10 321 -10ZM324 170Q346 170 365 179.5Q384 189 398 206Q412 223 420 245.5Q428 268 428 295Q428 333 405 361.5Q382 390 333 390Q289 390 258.5 356Q228 322 228 268Q228 229 251.5 199.5Q275 170 324 170Z" glyph-name="Obreve.smcp" horiz-adv-x="641" unicode="&#62534;" /><glyph d="M461 810 424 752H246L386 929H562L640 752H484ZM398 -12Q321 -12 256.5 14.5Q192 41 145 88Q98 135 71.5 199Q45 263 45 337Q45 418 76 486.5Q107 555 159.5 605.5Q212 656 280 684Q348 712 423 712Q500 712 565 685Q630 658 677 611.5Q724 565 750 501Q776 437 776 364Q776 283 745 214Q714 145 662 95Q610 45 541.5 16.5Q473 -12 398 -12ZM402 182Q436 182 465 196.5Q494 211 516 236Q538 261 550.5 295.5Q563 330 563 371Q563 401 554 427.5Q545 454 527 474Q509 494 482 506Q455 518 419 518Q385 518 355.5 504Q326 490 304 465Q282 440 269.5 405.5Q257 371 257 331Q257 301 266 274Q275 247 293.5 226.5Q312 206 339 194Q366 182 402 182Z" glyph-name="Ocircumflex" horiz-adv-x="779" unicode="&#212;" /><glyph d="M366 641 334 605H184L279 730H475L524 605H384ZM321 -10Q259 -10 206 11.5Q153 33 114.5 71.5Q76 110 54.5 162Q33 214 33 274Q33 337 58 391.5Q83 446 125 485.5Q167 525 221.5 547.5Q276 570 336 570Q399 570 452 548Q505 526 543.5 488Q582 450 603 398.5Q624 347 624 288Q624 224 599.5 169.5Q575 115 533 75Q491 35 436 12.5Q381 -10 321 -10ZM324 170Q346 170 365 179.5Q384 189 398 206Q412 223 420 245.5Q428 268 428 295Q428 333 405 361.5Q382 390 333 390Q289 390 258.5 356Q228 322 228 268Q228 229 251.5 199.5Q275 170 324 170Z" glyph-name="Ocircumflex.smcp" horiz-adv-x="641" unicode="&#62535;" /><glyph d="M555 749Q536 749 519 756.5Q502 764 489 777Q476 790 468 807Q460 824 460 843Q460 862 468 879Q476 896 489 909Q502 922 519 929.5Q536 937 555 937Q574 937 591 929.5Q608 922 621 909Q634 896 642 879Q650 862 650 843Q650 824 642 807Q634 790 621 777Q608 764 591 756.5Q574 749 555 749ZM347 749Q328 749 311 756.5Q294 764 281 777Q268 790 260 807Q252 824 252 843Q252 862 260 879Q268 896 281 909Q294 922 311 929.5Q328 937 347 937Q366 937 383 929.5Q400 922 413 909Q426 896 434 879Q442 862 442 843Q442 824 434 807Q426 790 413 777Q400 764 383 756.5Q366 749 347 749ZM398 -12Q321 -12 256.5 14.5Q192 41 145 88Q98 135 71.5 199Q45 263 45 337Q45 418 76 486.5Q107 555 159.5 605.5Q212 656 280 684Q348 712 423 712Q500 712 565 685Q630 658 677 611.5Q724 565 750 501Q776 437 776 364Q776 283 745 214Q714 145 662 95Q610 45 541.5 16.5Q473 -12 398 -12ZM402 182Q436 182 465 196.5Q494 211 516 236Q538 261 550.5 295.5Q563 330 563 371Q563 401 554 427.5Q545 454 527 474Q509 494 482 506Q455 518 419 518Q385 518 355.5 504Q326 490 304 465Q282 440 269.5 405.5Q257 371 257 331Q257 301 266 274Q275 247 293.5 226.5Q312 206 339 194Q366 182 402 182Z" glyph-name="Odieresis" horiz-adv-x="779" unicode="&#214;" /><glyph d="M463 769Q480 769 495.5 762Q511 755 523 743.5Q535 732 542 716.5Q549 701 549 684Q549 667 542 652Q535 637 523 625.5Q511 614 495.5 607Q480 600 463 600Q446 600 430.5 607Q415 614 403 625.5Q391 637 384 652Q377 667 377 684Q377 701 384 716.5Q391 732 403 743.5Q415 755 430.5 762Q446 769 463 769ZM273 769Q290 769 305.5 762Q321 755 333 743.5Q345 732 352 716.5Q359 701 359 684Q359 667 352 652Q345 637 333 625.5Q321 614 305.5 607Q290 600 273 600Q256 600 240.5 607Q225 614 213 625.5Q201 637 194 652Q187 667 187 684Q187 701 194 716.5Q201 732 213 743.5Q225 755 240.5 762Q256 769 273 769ZM321 -10Q259 -10 206 11.5Q153 33 114.5 71.5Q76 110 54.5 162Q33 214 33 274Q33 337 58 391.5Q83 446 125 485.5Q167 525 221.5 547.5Q276 570 336 570Q399 570 452 548Q505 526 543.5 488Q582 450 603 398.5Q624 347 624 288Q624 224 599.5 169.5Q575 115 533 75Q491 35 436 12.5Q381 -10 321 -10ZM324 170Q346 170 365 179.5Q384 189 398 206Q412 223 420 245.5Q428 268 428 295Q428 333 405 361.5Q382 390 333 390Q289 390 258.5 356Q228 322 228 268Q228 229 251.5 199.5Q275 170 324 170Z" glyph-name="Odieresis.smcp" horiz-adv-x="641" unicode="&#62536;" /><glyph d="M483 752H314L208 929H432ZM398 -12Q321 -12 256.5 14.5Q192 41 145 88Q98 135 71.5 199Q45 263 45 337Q45 418 76 486.5Q107 555 159.5 605.5Q212 656 280 684Q348 712 423 712Q500 712 565 685Q630 658 677 611.5Q724 565 750 501Q776 437 776 364Q776 283 745 214Q714 145 662 95Q610 45 541.5 16.5Q473 -12 398 -12ZM402 182Q436 182 465 196.5Q494 211 516 236Q538 261 550.5 295.5Q563 330 563 371Q563 401 554 427.5Q545 454 527 474Q509 494 482 506Q455 518 419 518Q385 518 355.5 504Q326 490 304 465Q282 440 269.5 405.5Q257 371 257 331Q257 301 266 274Q275 247 293.5 226.5Q312 206 339 194Q366 182 402 182Z" glyph-name="Ograve" horiz-adv-x="779" unicode="&#210;" /><glyph d="M410 605H257L160 730H362ZM321 -10Q259 -10 206 11.5Q153 33 114.5 71.5Q76 110 54.5 162Q33 214 33 274Q33 337 58 391.5Q83 446 125 485.5Q167 525 221.5 547.5Q276 570 336 570Q399 570 452 548Q505 526 543.5 488Q582 450 603 398.5Q624 347 624 288Q624 224 599.5 169.5Q575 115 533 75Q491 35 436 12.5Q381 -10 321 -10ZM324 170Q346 170 365 179.5Q384 189 398 206Q412 223 420 245.5Q428 268 428 295Q428 333 405 361.5Q382 390 333 390Q289 390 258.5 356Q228 322 228 268Q228 229 251.5 199.5Q275 170 324 170Z" glyph-name="Ograve.smcp" horiz-adv-x="641" unicode="&#62358;" /><glyph d="M557 929H766L638 752H485ZM335 929H544L415 752H262ZM398 -12Q321 -12 256.5 14.5Q192 41 145 88Q98 135 71.5 199Q45 263 45 337Q45 418 76 486.5Q107 555 159.5 605.5Q212 656 280 684Q348 712 423 712Q500 712 565 685Q630 658 677 611.5Q724 565 750 501Q776 437 776 364Q776 283 745 214Q714 145 662 95Q610 45 541.5 16.5Q473 -12 398 -12ZM402 182Q436 182 465 196.5Q494 211 516 236Q538 261 550.5 295.5Q563 330 563 371Q563 401 554 427.5Q545 454 527 474Q509 494 482 506Q455 518 419 518Q385 518 355.5 504Q326 490 304 465Q282 440 269.5 405.5Q257 371 257 331Q257 301 266 274Q275 247 293.5 226.5Q312 206 339 194Q366 182 402 182Z" glyph-name="Ohungarumlaut" horiz-adv-x="779" unicode="&#336;" /><glyph d="M462 730H664L561 605H408ZM244 730H446L343 605H191ZM321 -10Q259 -10 206 11.5Q153 33 114.5 71.5Q76 110 54.5 162Q33 214 33 274Q33 337 58 391.5Q83 446 125 485.5Q167 525 221.5 547.5Q276 570 336 570Q399 570 452 548Q505 526 543.5 488Q582 450 603 398.5Q624 347 624 288Q624 224 599.5 169.5Q575 115 533 75Q491 35 436 12.5Q381 -10 321 -10ZM324 170Q346 170 365 179.5Q384 189 398 206Q412 223 420 245.5Q428 268 428 295Q428 333 405 361.5Q382 390 333 390Q289 390 258.5 356Q228 322 228 268Q228 229 251.5 199.5Q275 170 324 170Z" glyph-name="Ohungarumlaut.smcp" horiz-adv-x="641" unicode="&#62485;" /><glyph d="M300 904H641L615 754H274ZM398 -12Q321 -12 256.5 14.5Q192 41 145 88Q98 135 71.5 199Q45 263 45 337Q45 418 76 486.5Q107 555 159.5 605.5Q212 656 280 684Q348 712 423 712Q500 712 565 685Q630 658 677 611.5Q724 565 750 501Q776 437 776 364Q776 283 745 214Q714 145 662 95Q610 45 541.5 16.5Q473 -12 398 -12ZM402 182Q436 182 465 196.5Q494 211 516 236Q538 261 550.5 295.5Q563 330 563 371Q563 401 554 427.5Q545 454 527 474Q509 494 482 506Q455 518 419 518Q385 518 355.5 504Q326 490 304 465Q282 440 269.5 405.5Q257 371 257 331Q257 301 266 274Q275 247 293.5 226.5Q312 206 339 194Q366 182 402 182Z" glyph-name="Omacron" horiz-adv-x="779" unicode="&#332;" /><glyph d="M244 730H542L519 605H221ZM321 -10Q259 -10 206 11.5Q153 33 114.5 71.5Q76 110 54.5 162Q33 214 33 274Q33 337 58 391.5Q83 446 125 485.5Q167 525 221.5 547.5Q276 570 336 570Q399 570 452 548Q505 526 543.5 488Q582 450 603 398.5Q624 347 624 288Q624 224 599.5 169.5Q575 115 533 75Q491 35 436 12.5Q381 -10 321 -10ZM324 170Q346 170 365 179.5Q384 189 398 206Q412 223 420 245.5Q428 268 428 295Q428 333 405 361.5Q382 390 333 390Q289 390 258.5 356Q228 322 228 268Q228 229 251.5 199.5Q275 170 324 170Z" glyph-name="Omacron.smcp" horiz-adv-x="641" unicode="&#62537;" /><glyph d="M433 712Q489 712 549.5 697.5Q610 683 660 650.5Q710 618 742.5 566.5Q775 515 775 440Q775 378 751 334.5Q727 291 692.5 263Q658 235 620 221Q582 207 553 206L549 178H693L661 0H393L438 305Q458 306 479 312Q500 318 517 331.5Q534 345 545 366.5Q556 388 556 419Q556 445 545.5 464Q535 483 517.5 496Q500 509 477.5 515Q455 521 431 521Q404 521 379 514Q354 507 334.5 493.5Q315 480 303.5 459Q292 438 292 411Q292 369 317.5 342Q343 315 377 308L331 0H63L94 178H225L229 207Q197 214 168.5 232Q140 250 118.5 278Q97 306 84.5 342Q72 378 72 421Q72 482 97 535Q122 588 169 627.5Q216 667 282.5 689.5Q349 712 433 712Z" glyph-name="Omega" horiz-adv-x="779" unicode="&#937;" /><glyph d="M402 182Q436 182 465 196.5Q494 211 516 236Q538 261 550.5 295.5Q563 330 563 371Q563 391 559 407L345 191Q369 182 402 182ZM257 331Q257 306 263 282L484 505Q470 511 454 514.5Q438 518 419 518Q385 518 355.5 504Q326 490 304 465Q282 440 269.5 405.5Q257 371 257 331ZM398 -12Q341 -12 291 2.5Q241 17 199 44L142 -13H-28L111 128Q79 171 62 224Q45 277 45 337Q45 418 76 486.5Q107 555 159.5 605.5Q212 656 280 684Q348 712 423 712Q482 712 533.5 696Q585 680 628 651L688 712H862L715 564Q744 522 760 471.5Q776 421 776 364Q776 283 745 214Q714 145 662 95Q610 45 541.5 16.5Q473 -12 398 -12Z" glyph-name="Oslash" horiz-adv-x="780" unicode="&#216;" /><glyph d="M228 268Q228 262 228.5 256.5Q229 251 230 246L365 385Q350 390 333 390Q289 390 258.5 356Q228 322 228 268ZM324 170Q346 170 365 179.5Q384 189 398 206Q412 223 420 245.5Q428 268 428 295Q428 300 427.5 304.5Q427 309 426 314L290 175Q307 170 324 170ZM321 -10Q227 -10 156 38L110 -10H-20L88 101Q62 137 47.5 180.5Q33 224 33 274Q33 337 58 391.5Q83 446 125 485.5Q167 525 221.5 547.5Q276 570 336 570Q383 570 424 558Q465 546 499 523L534 559H665L568 459Q595 424 609.5 380.5Q624 337 624 288Q624 224 599.5 169.5Q575 115 533 75Q491 35 436 12.5Q381 -10 321 -10Z" glyph-name="Oslash.smcp" horiz-adv-x="641" unicode="&#62500;" /><glyph d="M638 897Q638 885 634.5 859.5Q631 834 619 808.5Q607 783 583 763.5Q559 744 519 744Q502 744 485.5 749Q469 754 453.5 760.5Q438 767 424.5 772Q411 777 401 777Q384 777 381 762L379 752L254 764Q254 776 257.5 801.5Q261 827 273 853.5Q285 880 308.5 900Q332 920 373 920Q389 920 406 914.5Q423 909 438.5 902Q454 895 467.5 889.5Q481 884 491 884Q508 884 511 899L513 909ZM398 -12Q321 -12 256.5 14.5Q192 41 145 88Q98 135 71.5 199Q45 263 45 337Q45 418 76 486.5Q107 555 159.5 605.5Q212 656 280 684Q348 712 423 712Q500 712 565 685Q630 658 677 611.5Q724 565 750 501Q776 437 776 364Q776 283 745 214Q714 145 662 95Q610 45 541.5 16.5Q473 -12 398 -12ZM402 182Q436 182 465 196.5Q494 211 516 236Q538 261 550.5 295.5Q563 330 563 371Q563 401 554 427.5Q545 454 527 474Q509 494 482 506Q455 518 419 518Q385 518 355.5 504Q326 490 304 465Q282 440 269.5 405.5Q257 371 257 331Q257 301 266 274Q275 247 293.5 226.5Q312 206 339 194Q366 182 402 182Z" glyph-name="Otilde" horiz-adv-x="779" unicode="&#213;" /><glyph d="M437 600Q425 600 410 603.5Q395 607 380.5 611Q366 615 353.5 618.5Q341 622 335 622Q330 622 326.5 619.5Q323 617 323 609V605H215L218 630Q219 642 223.5 660.5Q228 679 239.5 697Q251 715 272 727.5Q293 740 328 740Q340 740 355 736.5Q370 733 384.5 729Q399 725 411.5 721.5Q424 718 430 718Q435 718 438.5 720.5Q442 723 442 731V735H550L547 710Q545 698 541 679.5Q537 661 525.5 643Q514 625 493 612.5Q472 600 437 600ZM321 -10Q259 -10 206 11.5Q153 33 114.5 71.5Q76 110 54.5 162Q33 214 33 274Q33 337 58 391.5Q83 446 125 485.5Q167 525 221.5 547.5Q276 570 336 570Q399 570 452 548Q505 526 543.5 488Q582 450 603 398.5Q624 347 624 288Q624 224 599.5 169.5Q575 115 533 75Q491 35 436 12.5Q381 -10 321 -10ZM324 170Q346 170 365 179.5Q384 189 398 206Q412 223 420 245.5Q428 268 428 295Q428 333 405 361.5Q382 390 333 390Q289 390 258.5 356Q228 322 228 268Q228 229 251.5 199.5Q275 170 324 170Z" glyph-name="Otilde.smcp" horiz-adv-x="641" unicode="&#62359;" /><glyph d="M307 525 280 371H311Q335 371 356.5 375Q378 379 394 388.5Q410 398 419 414.5Q428 431 428 456Q428 491 399.5 508Q371 525 331 525ZM217 0H20L141 700H348Q417 700 469.5 682Q522 664 558 631.5Q594 599 612.5 555Q631 511 631 460Q631 400 609.5 351.5Q588 303 548 268Q508 233 452 214Q396 195 326 195H251Z" glyph-name="P" horiz-adv-x="608" unicode="P" /><glyph d="M253 297Q288 297 311 309.5Q334 322 334 355Q334 378 313.5 388.5Q293 399 266 399H262L244 297ZM111 560H279Q339 560 384.5 545Q430 530 460 503Q490 476 505.5 439Q521 402 521 359Q521 310 503 269Q485 228 451.5 198.5Q418 169 371.5 152.5Q325 136 268 136H218L193 0H14Z" glyph-name="P.smcp" horiz-adv-x="517" unicode="&#62278;" /><glyph d="M402 182Q436 182 465 196.5Q494 211 516 236Q538 261 550.5 295.5Q563 330 563 371Q563 401 554 427.5Q545 454 527 474Q509 494 482 506Q455 518 419 518Q385 518 355.5 504Q326 490 304 465Q282 440 269.5 405.5Q257 371 257 331Q257 301 266 274Q275 247 293.5 226.5Q312 206 339 194Q366 182 402 182ZM398 -12Q321 -12 256.5 14.5Q192 41 145 88Q98 135 71.5 199Q45 263 45 337Q45 418 76 486.5Q107 555 159.5 605.5Q212 656 280 684Q348 712 423 712Q500 712 565 685Q630 658 677 611.5Q724 565 750 501Q776 437 776 364Q776 283 745.5 215Q715 147 663 96L665 93Q671 78 687 74Q703 70 720 70Q732 70 744.5 72.5Q757 75 769 78L741 -92Q725 -94 707 -96Q692 -98 672.5 -99Q653 -100 634 -100Q509 -100 475 -3Q437 -12 398 -12Z" glyph-name="Q" horiz-adv-x="781" unicode="Q" /><glyph d="M324 170Q346 170 365 179.5Q384 189 398 206Q412 223 420 245.5Q428 268 428 295Q428 333 405 361.5Q382 390 333 390Q289 390 258.5 356Q228 322 228 268Q228 229 251.5 199.5Q275 170 324 170ZM321 -10Q259 -10 206 11.5Q153 33 114.5 71.5Q76 110 54.5 162Q33 214 33 274Q33 337 58 391.5Q83 446 125 485.5Q167 525 221.5 547.5Q276 570 336 570Q399 570 452 548Q505 526 543.5 488Q582 450 603 398.5Q624 347 624 288Q624 228 602.5 176.5Q581 125 543 86Q550 78 559 75Q568 72 579 72Q592 72 606 75Q620 78 627 80L600 -63Q589 -66 576 -68Q565 -70 550 -71Q535 -72 518 -72Q489 -72 469 -65.5Q449 -59 435 -49Q421 -39 411.5 -28.5Q402 -18 396 -9L390 -2Q355 -10 321 -10Z" glyph-name="Q.smcp" horiz-adv-x="644" unicode="&#62279;" /><glyph d="M373 404Q409 404 433.5 419.5Q458 435 458 469Q458 488 442 506.5Q426 525 386 525L312 524L288 404ZM332 224H257L219 0H20L141 700H400Q473 700 524 680.5Q575 661 607.5 629Q640 597 654.5 556.5Q669 516 669 474Q669 399 632.5 344Q596 289 520 260L638 0H423Z" glyph-name="R" horiz-adv-x="669" unicode="R" /><glyph d="M304 308Q327 308 346.5 321Q366 334 366 360Q366 377 354 388Q342 399 319 399H268L250 308ZM111 560H322Q387 560 431 543.5Q475 527 502 500Q529 473 540.5 439Q552 405 552 371Q552 305 520.5 263Q489 221 435 198L533 0H337L264 163H224L195 0H14Z" glyph-name="R.smcp" horiz-adv-x="570" unicode="&#62280;" /><glyph d="M363 929H588L462 752H293ZM373 404Q409 404 433.5 419.5Q458 435 458 469Q458 488 442 506.5Q426 525 386 525L312 524L288 404ZM332 224H257L219 0H20L141 700H400Q473 700 524 680.5Q575 661 607.5 629Q640 597 654.5 556.5Q669 516 669 474Q669 399 632.5 344Q596 289 520 260L638 0H423Z" glyph-name="Racute" horiz-adv-x="669" unicode="&#340;" /><glyph d="M290 730H492L389 605H236ZM304 308Q327 308 346.5 321Q366 334 366 360Q366 377 354 388Q342 399 319 399H268L250 308ZM111 560H322Q387 560 431 543.5Q475 527 502 500Q529 473 540.5 439Q552 405 552 371Q552 305 520.5 263Q489 221 435 198L533 0H337L264 163H224L195 0H14Z" glyph-name="Racute.smcp" horiz-adv-x="570" unicode="&#62360;" /><glyph d="M406 871 444 929H619L479 752H303L225 929H385ZM373 404Q409 404 433.5 419.5Q458 435 458 469Q458 488 442 506.5Q426 525 386 525L312 524L288 404ZM332 224H257L219 0H20L141 700H400Q473 700 524 680.5Q575 661 607.5 629Q640 597 654.5 556.5Q669 516 669 474Q669 399 632.5 344Q596 289 520 260L638 0H423Z" glyph-name="Rcaron" horiz-adv-x="669" unicode="&#344;" /><glyph d="M374 730H524L429 605H233L184 730H324L342 694ZM304 308Q327 308 346.5 321Q366 334 366 360Q366 377 354 388Q342 399 319 399H268L250 308ZM111 560H322Q387 560 431 543.5Q475 527 502 500Q529 473 540.5 439Q552 405 552 371Q552 305 520.5 263Q489 221 435 198L533 0H337L264 163H224L195 0H14Z" glyph-name="Rcaron.smcp" horiz-adv-x="570" unicode="&#62361;" /><glyph d="M157 -268 197 -197Q173 -168 173 -132Q173 -113 180.5 -95Q188 -77 201 -63.5Q214 -50 232.5 -42Q251 -34 272 -34Q294 -34 313 -42.5Q332 -51 346 -65Q360 -79 368 -97Q376 -115 376 -134Q376 -179 336 -225L254 -320ZM373 404Q409 404 433.5 419.5Q458 435 458 469Q458 488 442 506.5Q426 525 386 525L312 524L288 404ZM332 224H257L219 0H20L141 700H400Q473 700 524 680.5Q575 661 607.5 629Q640 597 654.5 556.5Q669 516 669 474Q669 399 632.5 344Q596 289 520 260L638 0H423Z" glyph-name="Rcommaaccent" horiz-adv-x="669" unicode="&#342;" /><glyph d="M123 -257 168 -181Q148 -158 148 -126Q148 -92 172.5 -66Q197 -40 235 -40Q254 -40 271 -47.5Q288 -55 300.5 -67Q313 -79 320 -95Q327 -111 327 -128Q327 -173 286 -212L214 -286ZM304 308Q327 308 346.5 321Q366 334 366 360Q366 377 354 388Q342 399 319 399H268L250 308ZM111 560H322Q387 560 431 543.5Q475 527 502 500Q529 473 540.5 439Q552 405 552 371Q552 305 520.5 263Q489 221 435 198L533 0H337L264 163H224L195 0H14Z" glyph-name="Rcommaaccent.smcp" horiz-adv-x="570" unicode="&#62464;" /><glyph d="M346 712Q388 712 431 701Q474 690 512.5 671Q551 652 582 628Q613 604 631 577L500 453Q461 503 421.5 522.5Q382 542 352 542Q320 542 309 529.5Q298 517 298 505Q298 495 304.5 484Q311 473 336 461L420 419Q463 397 493.5 374Q524 351 543 325.5Q562 300 570.5 270.5Q579 241 579 207Q579 171 565.5 132.5Q552 94 521 62Q490 30 439.5 9Q389 -12 315 -12Q251 -12 198.5 3.5Q146 19 106 40.5Q66 62 39.5 85.5Q13 109 1 124L123 267Q136 250 156.5 231Q177 212 201.5 196.5Q226 181 252.5 170.5Q279 160 306 160Q335 160 350.5 172.5Q366 185 366 202Q366 223 352 234Q338 245 308 260L215 306Q143 341 111 391.5Q79 442 79 496Q79 547 99 587Q119 627 154 655Q189 683 238 697.5Q287 712 346 712Z" glyph-name="S" horiz-adv-x="606" unicode="S" /><glyph d="M253 -9Q202 -9 160 4Q118 17 86 34.5Q54 52 32.5 70Q11 88 2 99L105 227Q116 214 133 200Q150 186 170 174Q190 162 211.5 154Q233 146 254 146Q274 146 281 153.5Q288 161 288 169Q288 180 280.5 187Q273 194 260 199L169 236Q108 260 81.5 303Q55 346 55 391Q55 425 69 457.5Q83 490 111 515Q139 540 180.5 555Q222 570 277 570Q321 570 361 558Q401 546 433.5 528.5Q466 511 489 491.5Q512 472 522 457L405 346Q388 367 370.5 380Q353 393 336.5 401Q320 409 306 412Q292 415 282 415Q264 415 258 409Q252 403 252 398Q252 394 254.5 387.5Q257 381 276 373L350 343Q426 312 455.5 270Q485 228 485 171Q485 145 473 113.5Q461 82 433.5 55Q406 28 361.5 9.5Q317 -9 253 -9Z" glyph-name="S.smcp" horiz-adv-x="517" unicode="&#62281;" /><glyph d="M351 929H576L450 752H281ZM346 712Q388 712 431 701Q474 690 512.5 671Q551 652 582 628Q613 604 631 577L500 453Q461 503 421.5 522.5Q382 542 352 542Q320 542 309 529.5Q298 517 298 505Q298 495 304.5 484Q311 473 336 461L420 419Q463 397 493.5 374Q524 351 543 325.5Q562 300 570.5 270.5Q579 241 579 207Q579 171 565.5 132.5Q552 94 521 62Q490 30 439.5 9Q389 -12 315 -12Q251 -12 198.5 3.5Q146 19 106 40.5Q66 62 39.5 85.5Q13 109 1 124L123 267Q136 250 156.5 231Q177 212 201.5 196.5Q226 181 252.5 170.5Q279 160 306 160Q335 160 350.5 172.5Q366 185 366 202Q366 223 352 234Q338 245 308 260L215 306Q143 341 111 391.5Q79 442 79 496Q79 547 99 587Q119 627 154 655Q189 683 238 697.5Q287 712 346 712Z" glyph-name="Sacute" horiz-adv-x="606" unicode="&#346;" /><glyph d="M274 730H476L373 605H220ZM253 -9Q202 -9 160 4Q118 17 86 34.5Q54 52 32.5 70Q11 88 2 99L105 227Q116 214 133 200Q150 186 170 174Q190 162 211.5 154Q233 146 254 146Q274 146 281 153.5Q288 161 288 169Q288 180 280.5 187Q273 194 260 199L169 236Q108 260 81.5 303Q55 346 55 391Q55 425 69 457.5Q83 490 111 515Q139 540 180.5 555Q222 570 277 570Q321 570 361 558Q401 546 433.5 528.5Q466 511 489 491.5Q512 472 522 457L405 346Q388 367 370.5 380Q353 393 336.5 401Q320 409 306 412Q292 415 282 415Q264 415 258 409Q252 403 252 398Q252 394 254.5 387.5Q257 381 276 373L350 343Q426 312 455.5 270Q485 228 485 171Q485 145 473 113.5Q461 82 433.5 55Q406 28 361.5 9.5Q317 -9 253 -9Z" glyph-name="Sacute.smcp" horiz-adv-x="517" unicode="&#62465;" /><glyph d="M379 871 417 929H592L452 752H276L198 929H358ZM346 712Q388 712 431 701Q474 690 512.5 671Q551 652 582 628Q613 604 631 577L500 453Q461 503 421.5 522.5Q382 542 352 542Q320 542 309 529.5Q298 517 298 505Q298 495 304.5 484Q311 473 336 461L420 419Q463 397 493.5 374Q524 351 543 325.5Q562 300 570.5 270.5Q579 241 579 207Q579 171 565.5 132.5Q552 94 521 62Q490 30 439.5 9Q389 -12 315 -12Q251 -12 198.5 3.5Q146 19 106 40.5Q66 62 39.5 85.5Q13 109 1 124L123 267Q136 250 156.5 231Q177 212 201.5 196.5Q226 181 252.5 170.5Q279 160 306 160Q335 160 350.5 172.5Q366 185 366 202Q366 223 352 234Q338 245 308 260L215 306Q143 341 111 391.5Q79 442 79 496Q79 547 99 587Q119 627 154 655Q189 683 238 697.5Q287 712 346 712Z" glyph-name="Scaron" horiz-adv-x="606" unicode="&#352;" /><glyph d="M355 730H505L410 605H214L165 730H305L323 694ZM253 -9Q202 -9 160 4Q118 17 86 34.5Q54 52 32.5 70Q11 88 2 99L105 227Q116 214 133 200Q150 186 170 174Q190 162 211.5 154Q233 146 254 146Q274 146 281 153.5Q288 161 288 169Q288 180 280.5 187Q273 194 260 199L169 236Q108 260 81.5 303Q55 346 55 391Q55 425 69 457.5Q83 490 111 515Q139 540 180.5 555Q222 570 277 570Q321 570 361 558Q401 546 433.5 528.5Q466 511 489 491.5Q512 472 522 457L405 346Q388 367 370.5 380Q353 393 336.5 401Q320 409 306 412Q292 415 282 415Q264 415 258 409Q252 403 252 398Q252 394 254.5 387.5Q257 381 276 373L350 343Q426 312 455.5 270Q485 228 485 171Q485 145 473 113.5Q461 82 433.5 55Q406 28 361.5 9.5Q317 -9 253 -9Z" glyph-name="Scaron.smcp" horiz-adv-x="517" unicode="&#62466;" /><glyph d="M191 5Q153 16 122 32Q91 48 67 64.5Q43 81 26.5 97Q10 113 1 124L123 267Q136 250 156.5 231Q177 212 201.5 196.5Q226 181 252.5 170.5Q279 160 306 160Q335 160 350.5 172.5Q366 185 366 202Q366 223 352 234Q338 245 308 260L215 306Q143 341 111 391.5Q79 442 79 496Q79 547 99 587Q119 627 154 655Q189 683 238 697.5Q287 712 346 712Q388 712 431 701Q474 690 512.5 671Q551 652 582 628Q613 604 631 577L500 453Q461 503 421.5 522.5Q382 542 352 542Q320 542 309 529.5Q298 517 298 505Q298 495 304.5 484Q311 473 336 461L420 419Q463 397 493.5 374Q524 351 543 325.5Q562 300 570.5 270.5Q579 241 579 207Q579 175 568.5 140.5Q558 106 534 76Q510 46 471 23.5Q432 1 376 -7L293 -136H121Z" glyph-name="Scedilla" horiz-adv-x="606" unicode="&#350;" /><glyph d="M144 8Q87 27 51 55Q15 83 2 99L105 227Q116 214 133 200Q150 186 170 174Q190 162 211.5 154Q233 146 254 146Q274 146 281 153.5Q288 161 288 169Q288 180 280.5 187Q273 194 260 199L169 236Q108 260 81.5 303Q55 346 55 391Q55 425 69 457.5Q83 490 111 515Q139 540 180.5 555Q222 570 277 570Q321 570 361 558Q401 546 433.5 528.5Q466 511 489 491.5Q512 472 522 457L405 346Q388 367 370.5 380Q353 393 336.5 401Q320 409 306 412Q292 415 282 415Q264 415 258 409Q252 403 252 398Q252 394 254.5 387.5Q257 381 276 373L350 343Q426 312 455.5 270Q485 228 485 171Q485 148 476 121.5Q467 95 447 70Q427 45 395 25.5Q363 6 318 -3L233 -134H79Z" glyph-name="Scedilla.smcp" horiz-adv-x="517" unicode="&#62467;" /><glyph d="M380 810 343 752H165L305 929H481L559 752H403ZM346 712Q388 712 431 701Q474 690 512.5 671Q551 652 582 628Q613 604 631 577L500 453Q461 503 421.5 522.5Q382 542 352 542Q320 542 309 529.5Q298 517 298 505Q298 495 304.5 484Q311 473 336 461L420 419Q463 397 493.5 374Q524 351 543 325.5Q562 300 570.5 270.5Q579 241 579 207Q579 171 565.5 132.5Q552 94 521 62Q490 30 439.5 9Q389 -12 315 -12Q251 -12 198.5 3.5Q146 19 106 40.5Q66 62 39.5 85.5Q13 109 1 124L123 267Q136 250 156.5 231Q177 212 201.5 196.5Q226 181 252.5 170.5Q279 160 306 160Q335 160 350.5 172.5Q366 185 366 202Q366 223 352 234Q338 245 308 260L215 306Q143 341 111 391.5Q79 442 79 496Q79 547 99 587Q119 627 154 655Q189 683 238 697.5Q287 712 346 712Z" glyph-name="Scircumflex" horiz-adv-x="606" unicode="&#348;" /><glyph d="M311 641 279 605H129L224 730H420L469 605H329ZM253 -9Q202 -9 160 4Q118 17 86 34.5Q54 52 32.5 70Q11 88 2 99L105 227Q116 214 133 200Q150 186 170 174Q190 162 211.5 154Q233 146 254 146Q274 146 281 153.5Q288 161 288 169Q288 180 280.5 187Q273 194 260 199L169 236Q108 260 81.5 303Q55 346 55 391Q55 425 69 457.5Q83 490 111 515Q139 540 180.5 555Q222 570 277 570Q321 570 361 558Q401 546 433.5 528.5Q466 511 489 491.5Q512 472 522 457L405 346Q388 367 370.5 380Q353 393 336.5 401Q320 409 306 412Q292 415 282 415Q264 415 258 409Q252 403 252 398Q252 394 254.5 387.5Q257 381 276 373L350 343Q426 312 455.5 270Q485 228 485 171Q485 145 473 113.5Q461 82 433.5 55Q406 28 361.5 9.5Q317 -9 253 -9Z" glyph-name="Scircumflex.smcp" horiz-adv-x="517" unicode="&#62468;" /><glyph d="M138 -268 178 -197Q154 -168 154 -132Q154 -113 161.5 -95Q169 -77 182 -63.5Q195 -50 213.5 -42Q232 -34 253 -34Q275 -34 294 -42.5Q313 -51 327 -65Q341 -79 349 -97Q357 -115 357 -134Q357 -179 317 -225L235 -320ZM346 712Q388 712 431 701Q474 690 512.5 671Q551 652 582 628Q613 604 631 577L500 453Q461 503 421.5 522.5Q382 542 352 542Q320 542 309 529.5Q298 517 298 505Q298 495 304.5 484Q311 473 336 461L420 419Q463 397 493.5 374Q524 351 543 325.5Q562 300 570.5 270.5Q579 241 579 207Q579 171 565.5 132.5Q552 94 521 62Q490 30 439.5 9Q389 -12 315 -12Q251 -12 198.5 3.5Q146 19 106 40.5Q66 62 39.5 85.5Q13 109 1 124L123 267Q136 250 156.5 231Q177 212 201.5 196.5Q226 181 252.5 170.5Q279 160 306 160Q335 160 350.5 172.5Q366 185 366 202Q366 223 352 234Q338 245 308 260L215 306Q143 341 111 391.5Q79 442 79 496Q79 547 99 587Q119 627 154 655Q189 683 238 697.5Q287 712 346 712Z" glyph-name="Scommaaccent" horiz-adv-x="606" unicode="&#536;" /><glyph d="M98 -257 143 -181Q123 -158 123 -126Q123 -92 147.5 -66Q172 -40 210 -40Q229 -40 246 -47.5Q263 -55 275.5 -67Q288 -79 295 -95Q302 -111 302 -128Q302 -173 261 -212L189 -286ZM253 -9Q202 -9 160 4Q118 17 86 34.5Q54 52 32.5 70Q11 88 2 99L105 227Q116 214 133 200Q150 186 170 174Q190 162 211.5 154Q233 146 254 146Q274 146 281 153.5Q288 161 288 169Q288 180 280.5 187Q273 194 260 199L169 236Q108 260 81.5 303Q55 346 55 391Q55 425 69 457.5Q83 490 111 515Q139 540 180.5 555Q222 570 277 570Q321 570 361 558Q401 546 433.5 528.5Q466 511 489 491.5Q512 472 522 457L405 346Q388 367 370.5 380Q353 393 336.5 401Q320 409 306 412Q292 415 282 415Q264 415 258 409Q252 403 252 398Q252 394 254.5 387.5Q257 381 276 373L350 343Q426 312 455.5 270Q485 228 485 171Q485 145 473 113.5Q461 82 433.5 55Q406 28 361.5 9.5Q317 -9 253 -9Z" glyph-name="Scommaaccent.smcp" horiz-adv-x="517" unicode="&#62469;" /><glyph d="M685 700 653 517H458L368 0H172L261 517H64L95 700Z" glyph-name="T" horiz-adv-x="615" unicode="T" /><glyph d="M197 393H42L70 560H558L529 393H376L308 0H129Z" glyph-name="T.smcp" horiz-adv-x="514" unicode="&#62288;" /><glyph d="M691 700 659 517H464L448 424H593L564 260H419L374 0H178L223 260H79L108 424H251L267 517H70L101 700Z" glyph-name="Tbar" horiz-adv-x="629" unicode="&#358;" /><glyph d="M124 341H188L197 393H42L70 560H558L529 393H376L367 341H434L414 230H348L308 0H129L169 230H104Z" glyph-name="Tbar.smcp" horiz-adv-x="515" unicode="&#62470;" /><glyph d="M410 871 448 929H623L483 752H307L229 929H389ZM685 700 653 517H458L368 0H172L261 517H64L95 700Z" glyph-name="Tcaron" horiz-adv-x="615" unicode="&#356;" /><glyph d="M354 730H504L409 605H213L164 730H304L322 694ZM197 393H42L70 560H558L529 393H376L308 0H129Z" glyph-name="Tcaron.smcp" horiz-adv-x="514" unicode="&#62471;" /><glyph d="M127 -268 167 -197Q143 -168 143 -132Q143 -113 150.5 -95Q158 -77 171 -63.5Q184 -50 202.5 -42Q221 -34 242 -34Q264 -34 283 -42.5Q302 -51 316 -65Q330 -79 338 -97Q346 -115 346 -134Q346 -179 306 -225L224 -320ZM685 700 653 517H458L368 0H172L261 517H64L95 700Z" glyph-name="Tcommaaccent" horiz-adv-x="615" unicode="&#354;" /><glyph d="M88 -257 133 -181Q113 -158 113 -126Q113 -92 137.5 -66Q162 -40 200 -40Q219 -40 236 -47.5Q253 -55 265.5 -67Q278 -79 285 -95Q292 -111 292 -128Q292 -173 251 -212L179 -286ZM197 393H42L70 560H558L529 393H376L308 0H129Z" glyph-name="Tcommaaccent.smcp" horiz-adv-x="514" unicode="&#62308;" /><glyph d="M265 284H298Q322 284 342.5 287.5Q363 291 379 300.5Q395 310 404 326.5Q413 343 413 369Q413 404 385.5 420.5Q358 437 317 437H293ZM218 0H20L141 700H339L323 613H344Q405 613 455.5 596Q506 579 542 548Q578 517 597.5 472Q617 427 617 372Q617 312 595.5 263Q574 214 534 179.5Q494 145 437.5 126Q381 107 311 107H236Z" glyph-name="Thorn" horiz-adv-x="614" unicode="&#222;" /><glyph d="M245 242Q261 242 275.5 244Q290 246 301 252Q312 258 318 268.5Q324 279 324 296Q324 319 304.5 329Q285 339 257 339H253L234 242ZM111 560H291L280 500H281Q333 500 375 486.5Q417 473 447 447Q477 421 493.5 383.5Q510 346 510 298Q510 248 492 208Q474 168 440.5 139.5Q407 111 360.5 95.5Q314 80 257 80H208L195 0H14Z" glyph-name="Thorn.smcp" horiz-adv-x="518" unicode="&#62472;" /><glyph d="M333 176Q348 176 362.5 180Q377 184 390 194.5Q403 205 412.5 222.5Q422 240 427 267L500 700H698L613 212Q605 164 582 123Q559 82 522.5 52Q486 22 436.5 5Q387 -12 324 -12Q261 -12 208 9Q155 30 118.5 68.5Q82 107 66 161Q50 215 61 281L133 700H330L258 287Q255 268 256.5 248.5Q258 229 266 213Q274 197 290.5 186.5Q307 176 333 176Z" glyph-name="U" horiz-adv-x="671" unicode="U" /><glyph d="M266 -10Q215 -10 171 6.5Q127 23 96.5 54Q66 85 52 128.5Q38 172 47 226L104 560H284L227 240Q225 227 225 213.5Q225 200 230.5 188.5Q236 177 247 169.5Q258 162 277 162Q283 162 292 164Q301 166 310 172Q319 178 326.5 190.5Q334 203 337 224L393 560H575L507 171Q500 132 481 99Q462 66 431.5 42Q401 18 359.5 4Q318 -10 266 -10Z" glyph-name="U.smcp" horiz-adv-x="567" unicode="&#62289;" /><glyph d="M407 929H632L506 752H337ZM333 176Q348 176 362.5 180Q377 184 390 194.5Q403 205 412.5 222.5Q422 240 427 267L500 700H698L613 212Q605 164 582 123Q559 82 522.5 52Q486 22 436.5 5Q387 -12 324 -12Q261 -12 208 9Q155 30 118.5 68.5Q82 107 66 161Q50 215 61 281L133 700H330L258 287Q255 268 256.5 248.5Q258 229 266 213Q274 197 290.5 186.5Q307 176 333 176Z" glyph-name="Uacute" horiz-adv-x="671" unicode="&#218;" /><glyph d="M316 730H518L415 605H262ZM266 -10Q215 -10 171 6.5Q127 23 96.5 54Q66 85 52 128.5Q38 172 47 226L104 560H284L227 240Q225 227 225 213.5Q225 200 230.5 188.5Q236 177 247 169.5Q258 162 277 162Q283 162 292 164Q301 166 310 172Q319 178 326.5 190.5Q334 203 337 224L393 560H575L507 171Q500 132 481 99Q462 66 431.5 42Q401 18 359.5 4Q318 -10 266 -10Z" glyph-name="Uacute.smcp" horiz-adv-x="567" unicode="&#62473;" /><glyph d="M462 929H589L582 887Q569 809 523 774Q477 739 411 739Q379 739 350.5 749.5Q322 760 301.5 780Q281 800 271 829.5Q261 859 266 898L270 929H393L390 907Q387 887 396 875.5Q405 864 421 864Q452 864 458 904ZM333 176Q348 176 362.5 180Q377 184 390 194.5Q403 205 412.5 222.5Q422 240 427 267L500 700H698L613 212Q605 164 582 123Q559 82 522.5 52Q486 22 436.5 5Q387 -12 324 -12Q261 -12 208 9Q155 30 118.5 68.5Q82 107 66 161Q50 215 61 281L133 700H330L258 287Q255 268 256.5 248.5Q258 229 266 213Q274 197 290.5 186.5Q307 176 333 176Z" glyph-name="Ubreve" horiz-adv-x="671" unicode="&#364;" /><glyph d="M349 705Q373 705 378 730L379 735H499L497 723Q486 659 445.5 629.5Q405 600 344 600Q276 600 243.5 629.5Q211 659 211 704Q211 716 214 730L215 735H325L324 729Q322 718 329.5 711.5Q337 705 349 705ZM266 -10Q215 -10 171 6.5Q127 23 96.5 54Q66 85 52 128.5Q38 172 47 226L104 560H284L227 240Q225 227 225 213.5Q225 200 230.5 188.5Q236 177 247 169.5Q258 162 277 162Q283 162 292 164Q301 166 310 172Q319 178 326.5 190.5Q334 203 337 224L393 560H575L507 171Q500 132 481 99Q462 66 431.5 42Q401 18 359.5 4Q318 -10 266 -10Z" glyph-name="Ubreve.smcp" horiz-adv-x="567" unicode="&#62480;" /><glyph d="M430 810 393 752H215L355 929H531L609 752H453ZM333 176Q348 176 362.5 180Q377 184 390 194.5Q403 205 412.5 222.5Q422 240 427 267L500 700H698L613 212Q605 164 582 123Q559 82 522.5 52Q486 22 436.5 5Q387 -12 324 -12Q261 -12 208 9Q155 30 118.5 68.5Q82 107 66 161Q50 215 61 281L133 700H330L258 287Q255 268 256.5 248.5Q258 229 266 213Q274 197 290.5 186.5Q307 176 333 176Z" glyph-name="Ucircumflex" horiz-adv-x="671" unicode="&#219;" /><glyph d="M349 641 317 605H167L262 730H458L507 605H367ZM266 -10Q215 -10 171 6.5Q127 23 96.5 54Q66 85 52 128.5Q38 172 47 226L104 560H284L227 240Q225 227 225 213.5Q225 200 230.5 188.5Q236 177 247 169.5Q258 162 277 162Q283 162 292 164Q301 166 310 172Q319 178 326.5 190.5Q334 203 337 224L393 560H575L507 171Q500 132 481 99Q462 66 431.5 42Q401 18 359.5 4Q318 -10 266 -10Z" glyph-name="Ucircumflex.smcp" horiz-adv-x="567" unicode="&#62481;" /><glyph d="M531 749Q512 749 495 756.5Q478 764 465 777Q452 790 444 807Q436 824 436 843Q436 862 444 879Q452 896 465 909Q478 922 495 929.5Q512 937 531 937Q550 937 567 929.5Q584 922 597 909Q610 896 618 879Q626 862 626 843Q626 824 618 807Q610 790 597 777Q584 764 567 756.5Q550 749 531 749ZM323 749Q304 749 287 756.5Q270 764 257 777Q244 790 236 807Q228 824 228 843Q228 862 236 879Q244 896 257 909Q270 922 287 929.5Q304 937 323 937Q342 937 359 929.5Q376 922 389 909Q402 896 410 879Q418 862 418 843Q418 824 410 807Q402 790 389 777Q376 764 359 756.5Q342 749 323 749ZM333 176Q348 176 362.5 180Q377 184 390 194.5Q403 205 412.5 222.5Q422 240 427 267L500 700H698L613 212Q605 164 582 123Q559 82 522.5 52Q486 22 436.5 5Q387 -12 324 -12Q261 -12 208 9Q155 30 118.5 68.5Q82 107 66 161Q50 215 61 281L133 700H330L258 287Q255 268 256.5 248.5Q258 229 266 213Q274 197 290.5 186.5Q307 176 333 176Z" glyph-name="Udieresis" horiz-adv-x="671" unicode="&#220;" /><glyph d="M449 769Q466 769 481.5 762Q497 755 509 743.5Q521 732 528 716.5Q535 701 535 684Q535 667 528 652Q521 637 509 625.5Q497 614 481.5 607Q466 600 449 600Q432 600 416.5 607Q401 614 389 625.5Q377 637 370 652Q363 667 363 684Q363 701 370 716.5Q377 732 389 743.5Q401 755 416.5 762Q432 769 449 769ZM259 769Q276 769 291.5 762Q307 755 319 743.5Q331 732 338 716.5Q345 701 345 684Q345 667 338 652Q331 637 319 625.5Q307 614 291.5 607Q276 600 259 600Q242 600 226.5 607Q211 614 199 625.5Q187 637 180 652Q173 667 173 684Q173 701 180 716.5Q187 732 199 743.5Q211 755 226.5 762Q242 769 259 769ZM266 -10Q215 -10 171 6.5Q127 23 96.5 54Q66 85 52 128.5Q38 172 47 226L104 560H284L227 240Q225 227 225 213.5Q225 200 230.5 188.5Q236 177 247 169.5Q258 162 277 162Q283 162 292 164Q301 166 310 172Q319 178 326.5 190.5Q334 203 337 224L393 560H575L507 171Q500 132 481 99Q462 66 431.5 42Q401 18 359.5 4Q318 -10 266 -10Z" glyph-name="Udieresis.smcp" horiz-adv-x="567" unicode="&#62529;" /><glyph d="M502 752H333L227 929H451ZM333 176Q348 176 362.5 180Q377 184 390 194.5Q403 205 412.5 222.5Q422 240 427 267L500 700H698L613 212Q605 164 582 123Q559 82 522.5 52Q486 22 436.5 5Q387 -12 324 -12Q261 -12 208 9Q155 30 118.5 68.5Q82 107 66 161Q50 215 61 281L133 700H330L258 287Q255 268 256.5 248.5Q258 229 266 213Q274 197 290.5 186.5Q307 176 333 176Z" glyph-name="Ugrave" horiz-adv-x="671" unicode="&#217;" /><glyph d="M424 605H271L174 730H376ZM266 -10Q215 -10 171 6.5Q127 23 96.5 54Q66 85 52 128.5Q38 172 47 226L104 560H284L227 240Q225 227 225 213.5Q225 200 230.5 188.5Q236 177 247 169.5Q258 162 277 162Q283 162 292 164Q301 166 310 172Q319 178 326.5 190.5Q334 203 337 224L393 560H575L507 171Q500 132 481 99Q462 66 431.5 42Q401 18 359.5 4Q318 -10 266 -10Z" glyph-name="Ugrave.smcp" horiz-adv-x="567" unicode="&#62530;" /><glyph d="M517 929H726L598 752H445ZM295 929H504L375 752H222ZM333 176Q348 176 362.5 180Q377 184 390 194.5Q403 205 412.5 222.5Q422 240 427 267L500 700H698L613 212Q605 164 582 123Q559 82 522.5 52Q486 22 436.5 5Q387 -12 324 -12Q261 -12 208 9Q155 30 118.5 68.5Q82 107 66 161Q50 215 61 281L133 700H330L258 287Q255 268 256.5 248.5Q258 229 266 213Q274 197 290.5 186.5Q307 176 333 176Z" glyph-name="Uhungarumlaut" horiz-adv-x="671" unicode="&#368;" /><glyph d="M428 730H630L527 605H374ZM210 730H412L309 605H157ZM266 -10Q215 -10 171 6.5Q127 23 96.5 54Q66 85 52 128.5Q38 172 47 226L104 560H284L227 240Q225 227 225 213.5Q225 200 230.5 188.5Q236 177 247 169.5Q258 162 277 162Q283 162 292 164Q301 166 310 172Q319 178 326.5 190.5Q334 203 337 224L393 560H575L507 171Q500 132 481 99Q462 66 431.5 42Q401 18 359.5 4Q318 -10 266 -10Z" glyph-name="Uhungarumlaut.smcp" horiz-adv-x="567" unicode="&#62486;" /><glyph d="M273 904H614L588 754H247ZM333 176Q348 176 362.5 180Q377 184 390 194.5Q403 205 412.5 222.5Q422 240 427 267L500 700H698L613 212Q605 164 582 123Q559 82 522.5 52Q486 22 436.5 5Q387 -12 324 -12Q261 -12 208 9Q155 30 118.5 68.5Q82 107 66 161Q50 215 61 281L133 700H330L258 287Q255 268 256.5 248.5Q258 229 266 213Q274 197 290.5 186.5Q307 176 333 176Z" glyph-name="Umacron" horiz-adv-x="671" unicode="&#362;" /><glyph d="M212 730H510L487 605H189ZM266 -10Q215 -10 171 6.5Q127 23 96.5 54Q66 85 52 128.5Q38 172 47 226L104 560H284L227 240Q225 227 225 213.5Q225 200 230.5 188.5Q236 177 247 169.5Q258 162 277 162Q283 162 292 164Q301 166 310 172Q319 178 326.5 190.5Q334 203 337 224L393 560H575L507 171Q500 132 481 99Q462 66 431.5 42Q401 18 359.5 4Q318 -10 266 -10Z" glyph-name="Umacron.smcp" horiz-adv-x="567" unicode="&#62531;" /><glyph d="M334 176Q349 176 363.5 180Q378 184 391 194.5Q404 205 413.5 222.5Q423 240 428 267L501 700H699L614 212Q606 165 584 125.5Q562 86 527.5 56Q493 26 446 8Q399 -10 340 -12Q320 -29 312.5 -42.5Q305 -56 305 -67Q305 -83 317.5 -90Q330 -97 344 -97Q364 -97 385 -91.5Q406 -86 416 -84L393 -175Q365 -186 335.5 -194.5Q306 -203 267 -203Q215 -203 179.5 -177.5Q144 -152 144 -107Q144 -72 168 -44.5Q192 -17 242 -1Q196 11 158.5 36Q121 61 96.5 97.5Q72 134 62.5 180.5Q53 227 62 281L134 700H331L259 287Q256 268 257.5 248.5Q259 229 267 213Q275 197 291.5 186.5Q308 176 334 176Z" glyph-name="Uogonek" horiz-adv-x="672" unicode="&#370;" /><glyph d="M507 171Q494 99 440 49Q386 -1 295 -8Q275 -20 268 -29.5Q261 -39 260 -46Q258 -58 265 -65Q272 -72 284 -72Q301 -72 316 -69.5Q331 -67 336 -66L318 -153Q313 -155 291.5 -162Q270 -169 220 -169Q194 -169 170.5 -163Q147 -157 130.5 -145.5Q114 -134 106 -118Q98 -102 102 -81Q107 -55 128.5 -34Q150 -13 200 -2Q161 7 129.5 27Q98 47 77 76Q56 105 47.5 143Q39 181 47 226L104 560H284L227 240Q225 227 225 213.5Q225 200 230.5 188.5Q236 177 247 169.5Q258 162 277 162Q283 162 292 164Q301 166 310 172Q319 178 326.5 190.5Q334 203 337 224L393 560H575Z" glyph-name="Uogonek.smcp" horiz-adv-x="567" unicode="&#62532;" /><glyph d="M426 912Q407 912 394 898Q381 884 381 863Q381 843 394 829Q407 815 426 815Q446 815 458.5 829Q471 843 471 863Q471 884 458.5 898Q446 912 426 912ZM426 733Q397 733 371.5 743Q346 753 327.5 770.5Q309 788 298.5 811.5Q288 835 288 863Q288 892 298.5 916Q309 940 327.5 957.5Q346 975 371.5 984.5Q397 994 426 994Q455 994 480.5 984.5Q506 975 524.5 957.5Q543 940 554 916Q565 892 565 863Q565 835 554 811.5Q543 788 524.5 770.5Q506 753 480.5 743Q455 733 426 733ZM333 176Q348 176 362.5 180Q377 184 390 194.5Q403 205 412.5 222.5Q422 240 427 267L500 700H698L613 212Q605 164 582 123Q559 82 522.5 52Q486 22 436.5 5Q387 -12 324 -12Q261 -12 208 9Q155 30 118.5 68.5Q82 107 66 161Q50 215 61 281L133 700H330L258 287Q255 268 256.5 248.5Q258 229 266 213Q274 197 290.5 186.5Q307 176 333 176Z" glyph-name="Uring" horiz-adv-x="671" unicode="&#366;" /><glyph d="M462 710Q461 662 428 631Q395 600 344 600Q319 600 297.5 608.5Q276 617 260.5 631.5Q245 646 236.5 666Q228 686 228 710Q228 734 236.5 754Q245 774 260.5 788.5Q276 803 297.5 811.5Q319 820 344 820Q395 820 428 789Q461 758 462 710ZM311 710Q310 694 320 683.5Q330 673 344 673Q358 673 368 683.5Q378 694 379 710Q378 726 368 736.5Q358 747 344 747Q330 747 320 736.5Q310 726 311 710ZM266 -10Q215 -10 171 6.5Q127 23 96.5 54Q66 85 52 128.5Q38 172 47 226L104 560H284L227 240Q225 227 225 213.5Q225 200 230.5 188.5Q236 177 247 169.5Q258 162 277 162Q283 162 292 164Q301 166 310 172Q319 178 326.5 190.5Q334 203 337 224L393 560H575L507 171Q500 132 481 99Q462 66 431.5 42Q401 18 359.5 4Q318 -10 266 -10Z" glyph-name="Uring.smcp" horiz-adv-x="567" unicode="&#62533;" /><glyph d="M615 897Q615 885 611.5 859.5Q608 834 596 808.5Q584 783 560 763.5Q536 744 496 744Q479 744 462.5 749Q446 754 430.5 760.5Q415 767 401.5 772Q388 777 378 777Q361 777 358 762L356 752L231 764Q231 776 234.5 801.5Q238 827 250 853.5Q262 880 285.5 900Q309 920 350 920Q366 920 383 914.5Q400 909 415.5 902Q431 895 444.5 889.5Q458 884 468 884Q485 884 488 899L490 909ZM333 176Q348 176 362.5 180Q377 184 390 194.5Q403 205 412.5 222.5Q422 240 427 267L500 700H698L613 212Q605 164 582 123Q559 82 522.5 52Q486 22 436.5 5Q387 -12 324 -12Q261 -12 208 9Q155 30 118.5 68.5Q82 107 66 161Q50 215 61 281L133 700H330L258 287Q255 268 256.5 248.5Q258 229 266 213Q274 197 290.5 186.5Q307 176 333 176Z" glyph-name="Utilde" horiz-adv-x="671" unicode="&#360;" /><glyph d="M403 600Q391 600 376 603.5Q361 607 346.5 611Q332 615 319.5 618.5Q307 622 301 622Q296 622 292.5 619.5Q289 617 289 609V605H181L184 630Q185 642 189.5 660.5Q194 679 205.5 697Q217 715 238 727.5Q259 740 294 740Q306 740 321 736.5Q336 733 350.5 729Q365 725 377.5 721.5Q390 718 396 718Q401 718 404.5 720.5Q408 723 408 731V735H516L513 710Q511 698 507 679.5Q503 661 491.5 643Q480 625 459 612.5Q438 600 403 600ZM266 -10Q215 -10 171 6.5Q127 23 96.5 54Q66 85 52 128.5Q38 172 47 226L104 560H284L227 240Q225 227 225 213.5Q225 200 230.5 188.5Q236 177 247 169.5Q258 162 277 162Q283 162 292 164Q301 166 310 172Q319 178 326.5 190.5Q334 203 337 224L393 560H575L507 171Q500 132 481 99Q462 66 431.5 42Q401 18 359.5 4Q318 -10 266 -10Z" glyph-name="Utilde.smcp" horiz-adv-x="567" unicode="&#62544;" /><glyph d="M92 700H308L313 247H314L539 700H758L392 0H128Z" glyph-name="V" horiz-adv-x="667" unicode="V" /><glyph d="M72 560H271L262 221H264L424 560H624L342 0H89Z" glyph-name="V.smcp" horiz-adv-x="565" unicode="&#62290;" /><glyph d="M659 700 678 325H680L830 700H1032L736 0H516L499 407L316 0H84L101 700H303L288 325H290L472 700Z" glyph-name="W" horiz-adv-x="956" unicode="W" /><glyph d="M81 560H265L249 305H251L374 560H538L555 305H557L650 560H832L607 0H410L394 289L271 0H58Z" glyph-name="W.smcp" horiz-adv-x="784" unicode="&#62291;" /><glyph d="M564 929H789L663 752H494ZM659 700 678 325H680L830 700H1032L736 0H516L499 407L316 0H84L101 700H303L288 325H290L472 700Z" glyph-name="Wacute" horiz-adv-x="956" unicode="&#7810;" /><glyph d="M447 730H649L546 605H393ZM81 560H265L249 305H251L374 560H538L555 305H557L650 560H832L607 0H410L394 289L271 0H58Z" glyph-name="Wacute.smcp" horiz-adv-x="784" unicode="&#62297;" /><glyph d="M595 810 558 752H380L520 929H696L774 752H618ZM659 700 678 325H680L830 700H1032L736 0H516L499 407L316 0H84L101 700H303L288 325H290L472 700Z" glyph-name="Wcircumflex" horiz-adv-x="956" unicode="&#372;" /><glyph d="M470 641 438 605H288L383 730H579L628 605H488ZM81 560H265L249 305H251L374 560H538L555 305H557L650 560H832L607 0H410L394 289L271 0H58Z" glyph-name="Wcircumflex.smcp" horiz-adv-x="784" unicode="&#62545;" /><glyph d="M681 749Q662 749 645 756.5Q628 764 615 777Q602 790 594 807Q586 824 586 843Q586 862 594 879Q602 896 615 909Q628 922 645 929.5Q662 937 681 937Q700 937 717 929.5Q734 922 747 909Q760 896 768 879Q776 862 776 843Q776 824 768 807Q760 790 747 777Q734 764 717 756.5Q700 749 681 749ZM473 749Q454 749 437 756.5Q420 764 407 777Q394 790 386 807Q378 824 378 843Q378 862 386 879Q394 896 407 909Q420 922 437 929.5Q454 937 473 937Q492 937 509 929.5Q526 922 539 909Q552 896 560 879Q568 862 568 843Q568 824 560 807Q552 790 539 777Q526 764 509 756.5Q492 749 473 749ZM659 700 678 325H680L830 700H1032L736 0H516L499 407L316 0H84L101 700H303L288 325H290L472 700Z" glyph-name="Wdieresis" horiz-adv-x="956" unicode="&#7812;" /><glyph d="M569 769Q586 769 601.5 762Q617 755 629 743.5Q641 732 648 716.5Q655 701 655 684Q655 667 648 652Q641 637 629 625.5Q617 614 601.5 607Q586 600 569 600Q552 600 536.5 607Q521 614 509 625.5Q497 637 490 652Q483 667 483 684Q483 701 490 716.5Q497 732 509 743.5Q521 755 536.5 762Q552 769 569 769ZM379 769Q396 769 411.5 762Q427 755 439 743.5Q451 732 458 716.5Q465 701 465 684Q465 667 458 652Q451 637 439 625.5Q427 614 411.5 607Q396 600 379 600Q362 600 346.5 607Q331 614 319 625.5Q307 637 300 652Q293 667 293 684Q293 701 300 716.5Q307 732 319 743.5Q331 755 346.5 762Q362 769 379 769ZM81 560H265L249 305H251L374 560H538L555 305H557L650 560H832L607 0H410L394 289L271 0H58Z" glyph-name="Wdieresis.smcp" horiz-adv-x="784" unicode="&#62304;" /><glyph d="M652 752H483L377 929H601ZM659 700 678 325H680L830 700H1032L736 0H516L499 407L316 0H84L101 700H303L288 325H290L472 700Z" glyph-name="Wgrave" horiz-adv-x="956" unicode="&#7808;" /><glyph d="M529 605H376L279 730H481ZM81 560H265L249 305H251L374 560H538L555 305H557L650 560H832L607 0H410L394 289L271 0H58Z" glyph-name="Wgrave.smcp" horiz-adv-x="784" unicode="&#62305;" /><glyph d="M465 348 613 0H396L326 195L197 0H-45L224 356L81 700H305L369 512L492 700H733Z" glyph-name="X" horiz-adv-x="649" unicode="X" /><glyph d="M172 286 63 560H267L305 430L382 560H602L393 278L505 0H308L265 137L183 0H-38Z" glyph-name="X.smcp" horiz-adv-x="549" unicode="&#62292;" /><glyph d="M69 700H292L369 494H372L518 700H756L438 271L390 0H194L241 268Z" glyph-name="Y" horiz-adv-x="668" unicode="Y" /><glyph d="M186 202 56 560H259L305 417H307L400 560H616L365 204L329 0H151Z" glyph-name="Y.smcp" horiz-adv-x="562" unicode="&#62293;" /><glyph d="M391 929H616L490 752H321ZM69 700H292L369 494H372L518 700H756L438 271L390 0H194L241 268Z" glyph-name="Yacute" horiz-adv-x="668" unicode="&#221;" /><glyph d="M313 730H515L412 605H259ZM186 202 56 560H259L305 417H307L400 560H616L365 204L329 0H151Z" glyph-name="Yacute.smcp" horiz-adv-x="562" unicode="&#62482;" /><glyph d="M419 810 382 752H204L344 929H520L598 752H442ZM69 700H292L369 494H372L518 700H756L438 271L390 0H194L241 268Z" glyph-name="Ycircumflex" horiz-adv-x="668" unicode="&#374;" /><glyph d="M337 641 305 605H155L250 730H446L495 605H355ZM186 202 56 560H259L305 417H307L400 560H616L365 204L329 0H151Z" glyph-name="Ycircumflex.smcp" horiz-adv-x="562" unicode="&#62546;" /><glyph d="M523 749Q504 749 487 756.5Q470 764 457 777Q444 790 436 807Q428 824 428 843Q428 862 436 879Q444 896 457 909Q470 922 487 929.5Q504 937 523 937Q542 937 559 929.5Q576 922 589 909Q602 896 610 879Q618 862 618 843Q618 824 610 807Q602 790 589 777Q576 764 559 756.5Q542 749 523 749ZM315 749Q296 749 279 756.5Q262 764 249 777Q236 790 228 807Q220 824 220 843Q220 862 228 879Q236 896 249 909Q262 922 279 929.5Q296 937 315 937Q334 937 351 929.5Q368 922 381 909Q394 896 402 879Q410 862 410 843Q410 824 402 807Q394 790 381 777Q368 764 351 756.5Q334 749 315 749ZM69 700H292L369 494H372L518 700H756L438 271L390 0H194L241 268Z" glyph-name="Ydieresis" horiz-adv-x="668" unicode="&#376;" /><glyph d="M446 769Q463 769 478.5 762Q494 755 506 743.5Q518 732 525 716.5Q532 701 532 684Q532 667 525 652Q518 637 506 625.5Q494 614 478.5 607Q463 600 446 600Q429 600 413.5 607Q398 614 386 625.5Q374 637 367 652Q360 667 360 684Q360 701 367 716.5Q374 732 386 743.5Q398 755 413.5 762Q429 769 446 769ZM256 769Q273 769 288.5 762Q304 755 316 743.5Q328 732 335 716.5Q342 701 342 684Q342 667 335 652Q328 637 316 625.5Q304 614 288.5 607Q273 600 256 600Q239 600 223.5 607Q208 614 196 625.5Q184 637 177 652Q170 667 170 684Q170 701 177 716.5Q184 732 196 743.5Q208 755 223.5 762Q239 769 256 769ZM186 202 56 560H259L305 417H307L400 560H616L365 204L329 0H151Z" glyph-name="Ydieresis.smcp" horiz-adv-x="562" unicode="&#62547;" /><glyph d="M472 752H303L197 929H421ZM69 700H292L369 494H372L518 700H756L438 271L390 0H194L241 268Z" glyph-name="Ygrave" horiz-adv-x="668" unicode="&#7922;" /><glyph d="M433 605H280L183 730H385ZM186 202 56 560H259L305 417H307L400 560H616L365 204L329 0H151Z" glyph-name="Ygrave.smcp" horiz-adv-x="562" unicode="&#62306;" /><glyph d="M91 517 121 700H711L680 526L296 184H622L590 0H-5L25 167L422 517Z" glyph-name="Z" horiz-adv-x="668" unicode="Z" /><glyph d="M23 153 318 393H68L95 560H584L555 401L273 169H516L487 0H-5Z" glyph-name="Z.smcp" horiz-adv-x="565" unicode="&#62294;" /><glyph d="M387 929H612L486 752H317ZM91 517 121 700H711L680 526L296 184H622L590 0H-5L25 167L422 517Z" glyph-name="Zacute" horiz-adv-x="668" unicode="&#377;" /><glyph d="M300 730H502L399 605H246ZM23 153 318 393H68L95 560H584L555 401L273 169H516L487 0H-5Z" glyph-name="Zacute.smcp" horiz-adv-x="565" unicode="&#62483;" /><glyph d="M414 871 452 929H627L487 752H311L233 929H393ZM91 517 121 700H711L680 526L296 184H622L590 0H-5L25 167L422 517Z" glyph-name="Zcaron" horiz-adv-x="668" unicode="&#381;" /><glyph d="M376 730H526L431 605H235L186 730H326L344 694ZM23 153 318 393H68L95 560H584L555 401L273 169H516L487 0H-5Z" glyph-name="Zcaron.smcp" horiz-adv-x="565" unicode="&#62549;" /><glyph d="M418 749Q399 749 382 756.5Q365 764 352 777Q339 790 331 807Q323 824 323 843Q323 862 331 879Q339 896 352 909Q365 922 382 929.5Q399 937 418 937Q437 937 454 929.5Q471 922 484 909Q497 896 505 879Q513 862 513 843Q513 824 505 807Q497 790 484 777Q471 764 454 756.5Q437 749 418 749ZM91 517 121 700H711L680 526L296 184H622L590 0H-5L25 167L422 517Z" glyph-name="Zdotaccent" horiz-adv-x="668" unicode="&#379;" /><glyph d="M343 769Q360 769 375.5 762Q391 755 403 743.5Q415 732 422 716.5Q429 701 429 684Q429 667 422 652Q415 637 403 625.5Q391 614 375.5 607Q360 600 343 600Q326 600 310.5 607Q295 614 283 625.5Q271 637 264 652Q257 667 257 684Q257 701 264 716.5Q271 732 283 743.5Q295 755 310.5 762Q326 769 343 769ZM23 153 318 393H68L95 560H584L555 401L273 169H516L487 0H-5Z" glyph-name="Zdotaccent.smcp" horiz-adv-x="565" unicode="&#62548;" /><glyph d="M202 223Q202 196 219 173Q236 150 268 150Q298 150 323.5 175Q349 200 349 248Q349 275 332 298Q315 321 283 321Q253 321 227.5 296Q202 271 202 223ZM575 471 494 0H313L324 58Q323 56 316.5 45Q310 34 296 21Q282 8 259.5 -2Q237 -12 204 -12Q165 -12 131.5 4Q98 20 73 49Q48 78 34 118.5Q20 159 20 207Q20 271 40 322Q60 373 92.5 409Q125 445 167 464Q209 483 254 483Q285 483 308.5 474.5Q332 466 348.5 454Q365 442 375 429.5Q385 417 390 409Q388 420 389.5 436Q391 452 393 467L394 471Z" glyph-name="a" horiz-adv-x="579" unicode="a" /><glyph d="M202 223Q202 196 219 173Q236 150 268 150Q298 150 323.5 175Q349 200 349 248Q349 275 332 298Q315 321 283 321Q253 321 227.5 296Q202 271 202 223ZM336 700H561L435 523H266ZM575 471 494 0H313L324 58Q323 56 316.5 45Q310 34 296 21Q282 8 259.5 -2Q237 -12 204 -12Q165 -12 131.5 4Q98 20 73 49Q48 78 34 118.5Q20 159 20 207Q20 271 40 322Q60 373 92.5 409Q125 445 167 464Q209 483 254 483Q285 483 308.5 474.5Q332 466 348.5 454Q365 442 375 429.5Q385 417 390 409Q388 420 389.5 436Q391 452 393 467L394 471Z" glyph-name="aacute" horiz-adv-x="579" unicode="&#225;" /><glyph d="M202 223Q202 196 219 173Q236 150 268 150Q298 150 323.5 175Q349 200 349 248Q349 275 332 298Q315 321 283 321Q253 321 227.5 296Q202 271 202 223ZM401 700H528L521 658Q508 580 462 545Q416 510 350 510Q318 510 289.5 520.5Q261 531 240.5 551Q220 571 210 600.5Q200 630 205 669L209 700H332L329 678Q326 658 335 646.5Q344 635 360 635Q391 635 397 675ZM575 471 494 0H313L324 58Q323 56 316.5 45Q310 34 296 21Q282 8 259.5 -2Q237 -12 204 -12Q165 -12 131.5 4Q98 20 73 49Q48 78 34 118.5Q20 159 20 207Q20 271 40 322Q60 373 92.5 409Q125 445 167 464Q209 483 254 483Q285 483 308.5 474.5Q332 466 348.5 454Q365 442 375 429.5Q385 417 390 409Q388 420 389.5 436Q391 452 393 467L394 471Z" glyph-name="abreve" horiz-adv-x="579" unicode="&#259;" /><glyph d="M202 223Q202 196 219 173Q236 150 268 150Q298 150 323.5 175Q349 200 349 248Q349 275 332 298Q315 321 283 321Q253 321 227.5 296Q202 271 202 223ZM359 581 322 523H144L284 700H460L538 523H382ZM575 471 494 0H313L324 58Q323 56 316.5 45Q310 34 296 21Q282 8 259.5 -2Q237 -12 204 -12Q165 -12 131.5 4Q98 20 73 49Q48 78 34 118.5Q20 159 20 207Q20 271 40 322Q60 373 92.5 409Q125 445 167 464Q209 483 254 483Q285 483 308.5 474.5Q332 466 348.5 454Q365 442 375 429.5Q385 417 390 409Q388 420 389.5 436Q391 452 393 467L394 471Z" glyph-name="acircumflex" horiz-adv-x="579" unicode="&#226;" /><glyph d="M131 700H356L230 523H61Z" glyph-name="acute" horiz-adv-x="278" unicode="&#180;" /><glyph d="M125 730H327L224 605H71Z" glyph-name="acute.smcp" horiz-adv-x="400" unicode="&#63412;" /><glyph d="M202 223Q202 196 219 173Q236 150 268 150Q298 150 323.5 175Q349 200 349 248Q349 275 332 298Q315 321 283 321Q253 321 227.5 296Q202 271 202 223ZM239 520Q220 520 203 527.5Q186 535 173 548Q160 561 152 578Q144 595 144 614Q144 633 152 650Q160 667 173 680Q186 693 203 700.5Q220 708 239 708Q258 708 275 700.5Q292 693 305 680Q318 667 326 650Q334 633 334 614Q334 595 326 578Q318 561 305 548Q292 535 275 527.5Q258 520 239 520ZM447 520Q428 520 411 527.5Q394 535 381 548Q368 561 360 578Q352 595 352 614Q352 633 360 650Q368 667 381 680Q394 693 411 700.5Q428 708 447 708Q466 708 483 700.5Q500 693 513 680Q526 667 534 650Q542 633 542 614Q542 595 534 578Q526 561 513 548Q500 535 483 527.5Q466 520 447 520ZM575 471 494 0H313L324 58Q323 56 316.5 45Q310 34 296 21Q282 8 259.5 -2Q237 -12 204 -12Q165 -12 131.5 4Q98 20 73 49Q48 78 34 118.5Q20 159 20 207Q20 271 40 322Q60 373 92.5 409Q125 445 167 464Q209 483 254 483Q285 483 308.5 474.5Q332 466 348.5 454Q365 442 375 429.5Q385 417 390 409Q388 420 389.5 436Q391 452 393 467L394 471Z" glyph-name="adieresis" horiz-adv-x="579" unicode="&#228;" /><glyph d="M534 343Q515 343 492.5 330Q470 317 462 290H597Q595 313 576 328Q557 343 534 343ZM518 -12Q459 -12 413 8.5Q367 29 337 66Q331 57 318 43.5Q305 30 284.5 18Q264 6 234.5 -3Q205 -12 165 -12Q129 -12 98.5 -1Q68 10 45.5 29.5Q23 49 10.5 76Q-2 103 -2 135Q-2 177 15.5 206Q33 235 60.5 252.5Q88 270 121.5 278Q155 286 187 286H264Q278 286 286.5 292Q295 298 295 310Q295 321 285.5 328.5Q276 336 253 336Q224 336 182.5 328Q141 320 106 308L71 450Q106 462 155 472.5Q204 483 273 483Q315 483 351.5 474.5Q388 466 414 448Q434 464 465.5 473.5Q497 483 531 483Q590 483 637 463.5Q684 444 716.5 409.5Q749 375 766.5 327Q784 279 784 223Q784 214 783.5 205Q783 196 782 186H462Q467 166 483.5 154.5Q500 143 520 143Q544 143 559 153Q574 163 582 177L763 138Q751 102 726 74.5Q701 47 667.5 27.5Q634 8 595.5 -2Q557 -12 518 -12ZM221 115Q247 115 265.5 132.5Q284 150 287 198Q278 190 265 190H227Q208 190 194 181Q180 172 180 151Q180 135 192.5 125Q205 115 221 115Z" glyph-name="ae" horiz-adv-x="798" unicode="&#230;" /><glyph d="M185 360Q239 414 268.5 472.5Q298 531 298 594Q298 609 295 626Q292 643 284.5 657.5Q277 672 265 681Q253 690 236 690Q217 690 201 675Q185 660 185 620ZM324 588Q324 548 312.5 512.5Q301 477 282.5 445Q264 413 239 384.5Q214 356 187 330V99Q187 77 193 61.5Q199 46 208.5 36.5Q218 27 230.5 22.5Q243 18 256 18Q317 18 328 91H348Q344 59 330 39Q316 19 298.5 8Q281 -3 262.5 -7Q244 -11 231 -11Q204 -11 179 -3Q154 5 134.5 25Q115 45 103 79Q91 113 91 164V250Q82 242 72 235Q64 229 55 222Q46 215 39 210L22 229Q35 238 47 247Q59 256 69 264Q79 272 85 276.5Q91 281 91 281V541Q91 620 124 666.5Q157 713 222 713Q273 713 298.5 680Q324 647 324 588Z" glyph-name="afii61289" horiz-adv-x="393" unicode="&#8467;" /><glyph d="M202 223Q202 196 219 173Q236 150 268 150Q298 150 323.5 175Q349 200 349 248Q349 275 332 298Q315 321 283 321Q253 321 227.5 296Q202 271 202 223ZM406 523H237L131 700H355ZM575 471 494 0H313L324 58Q323 56 316.5 45Q310 34 296 21Q282 8 259.5 -2Q237 -12 204 -12Q165 -12 131.5 4Q98 20 73 49Q48 78 34 118.5Q20 159 20 207Q20 271 40 322Q60 373 92.5 409Q125 445 167 464Q209 483 254 483Q285 483 308.5 474.5Q332 466 348.5 454Q365 442 375 429.5Q385 417 390 409Q388 420 389.5 436Q391 452 393 467L394 471Z" glyph-name="agrave" horiz-adv-x="579" unicode="&#224;" /><glyph d="M202 223Q202 196 219 173Q236 150 268 150Q298 150 323.5 175Q349 200 349 248Q349 275 332 298Q315 321 283 321Q253 321 227.5 296Q202 271 202 223ZM182 675H523L497 525H156ZM575 471 494 0H313L324 58Q323 56 316.5 45Q310 34 296 21Q282 8 259.5 -2Q237 -12 204 -12Q165 -12 131.5 4Q98 20 73 49Q48 78 34 118.5Q20 159 20 207Q20 271 40 322Q60 373 92.5 409Q125 445 167 464Q209 483 254 483Q285 483 308.5 474.5Q332 466 348.5 454Q365 442 375 429.5Q385 417 390 409Q388 420 389.5 436Q391 452 393 467L394 471Z" glyph-name="amacron" horiz-adv-x="579" unicode="&#257;" /><glyph d="M252 163Q273 163 287 173.5Q301 184 306 190L253 258Q227 244 219 229.5Q211 215 211 204Q211 188 222.5 175.5Q234 163 252 163ZM373 463Q379 479 381.5 490Q384 501 384 507Q384 523 374.5 533.5Q365 544 348 544Q332 544 321 533.5Q310 523 310 507Q310 494 315.5 484Q321 474 329 465L426 338Q435 351 446.5 371Q458 391 464 404H698Q681 375 659.5 343.5Q638 312 617 282.5Q596 253 577 228Q558 203 545 187L663 41L656 0H455L414 53Q396 35 373 22.5Q350 10 326.5 2.5Q303 -5 279.5 -8.5Q256 -12 236 -12Q191 -12 151.5 2.5Q112 17 82.5 43.5Q53 70 36 107Q19 144 19 189Q19 255 58.5 306Q98 357 166 389L161 396Q141 424 129.5 455.5Q118 487 118 519Q118 553 132.5 587Q147 621 175.5 649Q204 677 247.5 694.5Q291 712 349 712Q402 712 441.5 698.5Q481 685 507.5 661.5Q534 638 547 607Q560 576 560 541Q560 521 555.5 499.5Q551 478 542 460Z" glyph-name="ampersand" horiz-adv-x="699" unicode="&amp;" /><glyph d="M225 219Q197 200 197 172Q197 152 211 140.5Q225 129 244 129Q253 129 265 133.5Q277 138 287 145ZM215 -10Q179 -10 144.5 1.5Q110 13 83 34.5Q56 56 40 86.5Q24 117 24 155Q24 209 58.5 250Q93 291 145 307Q133 321 118 346.5Q103 372 103 417Q103 433 111.5 459Q120 485 141.5 509.5Q163 534 200.5 552Q238 570 296 570Q334 570 367.5 560.5Q401 551 426 532.5Q451 514 465.5 488Q480 462 480 429Q480 399 467 367L319 380Q327 396 327 411Q327 425 318.5 431.5Q310 438 299 438Q288 438 280 431.5Q272 425 272 412Q272 405 275 398.5Q278 392 282 387L370 279Q374 284 380.5 295Q387 306 391 313H598Q583 290 565.5 264Q548 238 531.5 214.5Q515 191 501 171.5Q487 152 478 141L560 42L547 0H375L346 37Q317 11 279 0.5Q241 -10 215 -10Z" glyph-name="ampersand.smcp" horiz-adv-x="604" unicode="&#58369;" /><glyph d="M202 223Q202 196 219 173Q236 150 268 150Q298 150 323.5 175Q349 200 349 248Q349 275 332 298Q315 321 283 321Q253 321 227.5 296Q202 271 202 223ZM575 471 494 0H454Q423 -20 413 -37Q403 -54 403 -67Q403 -83 415.5 -90Q428 -97 442 -97Q462 -97 483 -91.5Q504 -86 514 -84L491 -175Q463 -186 433.5 -194.5Q404 -203 365 -203Q313 -203 277.5 -177.5Q242 -152 242 -107Q242 -72 267.5 -43.5Q293 -15 347 0H313L324 58Q323 56 316.5 45Q310 34 296 21Q282 8 259.5 -2Q237 -12 204 -12Q165 -12 131.5 4Q98 20 73 49Q48 78 34 118.5Q20 159 20 207Q20 271 40 322Q60 373 92.5 409Q125 445 167 464Q209 483 254 483Q285 483 308.5 474.5Q332 466 348.5 454Q365 442 375 429.5Q385 417 390 409Q388 420 389.5 436Q391 452 393 467L394 471Z" glyph-name="aogonek" horiz-adv-x="579" unicode="&#261;" /><glyph d="M208 478 248 549Q224 578 224 614Q224 633 231.5 651Q239 669 252 682.5Q265 696 283.5 704Q302 712 323 712Q345 712 364 703.5Q383 695 397 681Q411 667 419 649Q427 631 427 612Q427 567 387 521L305 426Z" glyph-name="apostrophe" horiz-adv-x="511" unicode="&#700;" /><glyph d="M457 655Q457 641 465.5 631.5Q474 622 488 622Q502 622 511 632Q520 642 520 654Q520 668 511 677.5Q502 687 488 687Q474 687 465.5 677.5Q457 668 457 655ZM601 3Q601 -11 610 -20.5Q619 -30 633 -30Q647 -30 656 -20Q665 -10 665 2Q665 16 656 25.5Q647 35 633 35Q619 35 610 25.5Q601 16 601 3ZM858 613 917 645 942 595Q948 583 942 571Q936 559 925 553Q913 548 901.5 549Q890 550 884 561ZM261 412 375 372Q383 369 389.5 372Q396 375 398 383Q401 390 398 397Q395 404 387 406L272 447L287 494Q289 502 286 508.5Q283 515 275 517Q268 519 261.5 516Q255 513 253 505L210 373Q208 366 210.5 359Q213 352 221 350Q229 348 235.5 351Q242 354 244 362ZM289 575Q281 573 277 567Q273 561 275 553Q277 545 283 541Q289 537 297 539L401 562L410 540Q408 536 405.5 531.5Q403 527 403 522Q403 511 410.5 503.5Q418 496 429 496Q440 496 446 504Q454 511 453.5 520.5Q453 530 450 538L387 697Q384 704 377.5 707Q371 710 363 707Q357 704 353.5 697.5Q350 691 353 683L387 597ZM633 506Q585 506 541 520Q561 555 584.5 588.5Q608 622 635 650Q660 624 683 591Q706 558 728 521Q684 506 633 506ZM1026 492Q1023 499 1015 502Q1008 504 1002 501L873 439Q856 431 863 415L910 310Q913 303 920 300.5Q927 298 934 301Q942 304 944.5 311Q947 318 944 324L904 414L937 429L952 396Q955 389 962 386.5Q969 384 976 387Q992 394 985 411L970 445L1001 460L1033 388Q1036 381 1043 378.5Q1050 376 1057 379Q1063 382 1066 389Q1069 396 1065 403ZM852 545Q863 523 887 515Q916 507 942 522Q968 536 977 562Q986 588 974 611L941 678Q938 686 930 687.5Q922 689 916 686L781 612Q774 608 772 601Q770 594 774 587Q778 580 785 578Q792 576 799 580L826 595ZM782 97Q782 105 777 110Q772 115 764 115H585Q610 128 640.5 146Q671 164 697 187.5Q723 211 740.5 240Q758 269 758 304Q758 327 750 349Q742 371 726.5 388.5Q711 406 688 417Q665 428 635 428Q608 428 584 419.5Q560 411 542 396Q524 381 514 359.5Q504 338 504 312Q504 295 510 278.5Q516 262 527.5 248.5Q539 235 555 227Q571 219 591 219Q604 219 618 223Q632 227 643 236Q654 245 661.5 259Q669 273 669 292Q669 318 656 327Q643 336 633 336Q619 336 609.5 326.5Q600 317 600 304Q600 287 615 277Q616 275 612 265Q608 255 589 255Q566 255 554 274.5Q542 294 542 313Q542 349 567 371Q592 393 633 393Q676 393 697 365.5Q718 338 718 305Q718 282 708.5 262.5Q699 243 683.5 225.5Q668 208 648.5 193.5Q629 179 610 166Q572 142 542 127.5Q512 113 510 110Q500 100 505 90Q511 79 522 79H763Q782 79 782 97ZM853 751Q956 751 1025 682Q1065 643 1086.5 588Q1108 533 1108 473Q1108 402 1083.5 339Q1059 276 1024 223Q962 133 859 53Q821 23 784.5 -1.5Q748 -26 717.5 -44Q687 -62 664.5 -74Q642 -86 633 -90Q624 -86 601.5 -74Q579 -62 549 -44Q519 -26 482.5 -1Q446 24 408 54Q305 135 244 226Q205 283 183 346.5Q161 410 161 474Q161 535 183 590Q205 645 245 684Q316 752 417 752Q474 752 523 729.5Q572 707 610 675Q555 619 510 540Q484 495 464 449.5Q444 404 429 361.5Q414 319 403.5 282.5Q393 246 387 221L337 231Q330 233 324 229Q318 225 316 218Q314 211 318 205.5Q322 200 330 198L465 169Q472 167 477.5 171Q483 175 485 182Q488 199 472 203L424 213Q429 234 437.5 264.5Q446 295 458.5 331Q471 367 487 407Q503 447 524 487Q576 468 633 468Q691 468 745 488Q765 449 781 409Q797 369 809 333Q821 297 829.5 265.5Q838 234 843 212L795 202Q779 198 781 182Q783 174 789 170Q795 166 802 168L937 196Q944 198 948 203.5Q952 209 950 216Q949 224 943 228Q937 232 930 230L881 220Q881 221 880.5 221.5Q880 222 880 223Q873 248 862.5 284.5Q852 321 837 363.5Q822 406 802 452Q782 498 757 543Q714 621 662 674Q704 710 752 730.5Q800 751 853 751ZM1145 474Q1145 541 1120.5 602Q1096 663 1051 708Q969 787 853 787Q787 787 732.5 762.5Q678 738 635 700Q585 743 530 765.5Q475 788 414 788Q300 788 219 710Q174 665 149 603.5Q124 542 124 473Q124 400 149 331.5Q174 263 214 205Q247 157 289 112Q331 67 385 25Q430 -11 472 -38.5Q514 -66 547 -85Q580 -104 601 -113.5Q622 -123 624 -124Q633 -128 642 -124Q644 -123 665 -113.5Q686 -104 719.5 -85Q753 -66 795.5 -39Q838 -12 883 24Q937 66 979 110.5Q1021 155 1054 203Q1096 266 1120.5 334.5Q1145 403 1145 474ZM1088 734Q1136 684 1162.5 615.5Q1189 547 1189 473Q1189 400 1166.5 332Q1144 264 1105.5 202Q1067 140 1015.5 85.5Q964 31 906 -15Q848 -61 785.5 -98Q723 -135 664 -162Q646 -170 633 -170Q620 -170 602 -162Q540 -134 477 -96Q414 -58 356 -11Q298 36 247.5 91Q197 146 160 207.5Q123 269 101.5 336.5Q80 404 80 475Q80 550 107 618.5Q134 687 182 737Q228 784 288.5 807Q349 830 417 830Q484 830 539.5 806Q595 782 639 744Q687 787 741.5 807.5Q796 828 856 828Q923 828 983 804.5Q1043 781 1088 734Z" glyph-name="apple" horiz-adv-x="1200" unicode="&#63743;" /><glyph d="M509 340 492 242Q489 226 483 204.5Q477 183 462.5 164Q448 145 423 131.5Q398 118 357 118Q341 118 318.5 124Q296 130 273.5 136.5Q251 143 233.5 149Q216 155 210 155Q198 155 192 149Q186 143 184 120H12L29 218Q32 234 38 255.5Q44 277 58 296.5Q72 316 97 329Q122 342 164 342Q180 342 202.5 336Q225 330 247.5 323.5Q270 317 288 311Q306 305 312 305Q324 305 330 311Q336 317 338 340ZM549 581 532 483Q529 467 523 445.5Q517 424 502.5 405Q488 386 463 372.5Q438 359 397 359Q381 359 358.5 365Q336 371 313.5 377.5Q291 384 273.5 390Q256 396 250 396Q238 396 232 390Q226 384 224 361H52L69 459Q72 475 78 496.5Q84 518 98 537.5Q112 557 137 570Q162 583 204 583Q220 583 242.5 577Q265 571 287.5 564.5Q310 558 328 552Q346 546 352 546Q364 546 370 552Q376 558 378 581Z" glyph-name="approxequal" horiz-adv-x="520" unicode="&#8776;" /><glyph d="M326 281Q314 281 298 285Q282 289 267 294.5Q252 300 240.5 304Q229 308 226 308Q217 308 213 304Q209 300 207 282H50L67 379Q70 394 75 411.5Q80 429 91.5 444Q103 459 123.5 469Q144 479 178 479Q190 479 206 475Q222 471 237 465.5Q252 460 264 456Q276 452 280 452Q289 452 293 456Q297 460 299 478H455L438 381Q435 367 430 349.5Q425 332 413 317Q401 302 380.5 291.5Q360 281 326 281ZM294 75Q282 75 266 79.5Q250 84 235 89Q220 94 208.5 98.5Q197 103 194 103Q185 103 181 99Q177 95 175 77H18L35 173Q38 188 43 205.5Q48 223 59.5 238.5Q71 254 91.5 264Q112 274 146 274Q158 274 174 269.5Q190 265 205 260Q220 255 232 250.5Q244 246 248 246Q257 246 261 250Q265 254 267 272H423L406 176Q403 161 398 143.5Q393 126 381 111Q369 96 348.5 85.5Q328 75 294 75Z" glyph-name="approxequal.smcp" horiz-adv-x="456" unicode="&#62005;" /><glyph d="M353 683Q334 683 321 669Q308 655 308 634Q308 614 321 600Q334 586 353 586Q373 586 385.5 600Q398 614 398 634Q398 655 385.5 669Q373 683 353 683ZM202 223Q202 196 219 173Q236 150 268 150Q298 150 323.5 175Q349 200 349 248Q349 275 332 298Q315 321 283 321Q253 321 227.5 296Q202 271 202 223ZM353 504Q324 504 298.5 514Q273 524 254.5 541.5Q236 559 225.5 582.5Q215 606 215 634Q215 663 225.5 687Q236 711 254.5 728.5Q273 746 298.5 755.5Q324 765 353 765Q382 765 407.5 755.5Q433 746 451.5 728.5Q470 711 481 687Q492 663 492 634Q492 606 481 582.5Q470 559 451.5 541.5Q433 524 407.5 514Q382 504 353 504ZM575 471 494 0H313L324 58Q323 56 316.5 45Q310 34 296 21Q282 8 259.5 -2Q237 -12 204 -12Q165 -12 131.5 4Q98 20 73 49Q48 78 34 118.5Q20 159 20 207Q20 271 40 322Q60 373 92.5 409Q125 445 167 464Q209 483 254 483Q285 483 308.5 474.5Q332 466 348.5 454Q365 442 375 429.5Q385 417 390 409Q388 420 389.5 436Q391 452 393 467L394 471Z" glyph-name="aring" horiz-adv-x="579" unicode="&#229;" /><glyph d="M283 706H472V357L609 467L732 341L377 20L23 342L146 468L284 357Z" glyph-name="arrow.down" horiz-adv-x="755" unicode="&#62245;" /><glyph d="M284 369 146 258 23 384 377 706 732 385 609 259 472 369V20H283Z" glyph-name="arrow.up" horiz-adv-x="755" unicode="&#62244;" /><glyph d="M532 620 665 487 419 240 593 221 591 45 113 69 90 547 266 549 286 373Z" glyph-name="arrowdown.left" horiz-adv-x="755" unicode="&#62248;" /><glyph d="M469 373 489 549 665 547 642 69 164 45 162 221 336 240 90 487 223 620Z" glyph-name="arrowdown.right" horiz-adv-x="755" unicode="&#62249;" /><glyph d="M286 292 266 116 90 118 113 596 591 620 593 444 419 425 665 178 532 45Z" glyph-name="arrowup.left" horiz-adv-x="755" unicode="&#62246;" /><glyph d="M223 45 90 178 336 425 162 444 164 620 642 596 665 118 489 116 469 292Z" glyph-name="arrowup.right" horiz-adv-x="755" unicode="&#62247;" /><glyph d="M267 700H484L536 225H356L343 484L236 225H44Z" glyph-name="asciicircum" horiz-adv-x="580" unicode="^" /><glyph d="M530 454 513 356Q510 340 504 318.5Q498 297 483.5 278Q469 259 444 245.5Q419 232 378 232Q362 232 339.5 238Q317 244 294.5 250.5Q272 257 254.5 263Q237 269 231 269Q219 269 213 263Q207 257 205 234H33L50 332Q53 348 59 369.5Q65 391 79 410.5Q93 430 118 443Q143 456 185 456Q201 456 223.5 450Q246 444 268.5 437.5Q291 431 309 425Q327 419 333 419Q345 419 351 425Q357 431 359 454Z" glyph-name="asciitilde" horiz-adv-x="520" unicode="~" /><glyph d="M263 478Q258 452 274 429Q290 406 317 402Q343 397 365 413.5Q387 430 392 456Q397 482 381 504.5Q365 527 339 532Q313 536 290 520.5Q267 505 263 478ZM475 434Q515 419 537 393Q559 367 553 334Q547 299 521 283.5Q495 268 464 273Q446 277 421.5 300.5Q397 324 371 356Q376 333 376.5 307Q377 281 375 268Q370 236 342.5 218Q315 200 281 206Q247 212 228 238Q209 264 215 296Q217 310 226.5 333.5Q236 357 248 377Q213 357 181.5 343Q150 329 133 332Q102 337 83 360.5Q64 384 70 419Q75 451 105 468.5Q135 486 177 486L216 487L180 500Q140 515 118 541.5Q96 568 102 600Q108 635 134 650.5Q160 666 191 661Q208 658 233 634Q258 610 284 578Q279 601 278.5 627Q278 653 280 666Q283 682 291.5 695Q300 708 312.5 716Q325 724 340.5 727.5Q356 731 373 728Q408 722 427 696Q446 670 440 638Q438 624 428.5 600.5Q419 577 407 557Q442 577 473 591.5Q504 606 522 602Q553 597 572 573.5Q591 550 585 515Q579 482 549.5 465Q520 448 478 448L439 447Z" glyph-name="asterisk" horiz-adv-x="574" unicode="*" /><glyph d="M410 223Q410 196 427 173Q444 150 476 150Q506 150 531.5 175Q557 200 557 248Q557 275 540 298Q523 321 491 321Q461 321 435.5 296Q410 271 410 223ZM722 117Q720 107 724.5 99.5Q729 92 743 92Q769 92 790 111Q811 130 826 160.5Q841 191 849.5 229.5Q858 268 858 308Q858 384 830.5 439Q803 494 757.5 529Q712 564 653.5 580.5Q595 597 532 597Q461 597 391.5 573.5Q322 550 267 502.5Q212 455 178 382.5Q144 310 144 213Q144 139 169.5 81Q195 23 241 -17.5Q287 -58 349.5 -79.5Q412 -101 486 -101Q533 -101 581.5 -87Q630 -73 666 -53L795 -88Q765 -112 726.5 -131Q688 -150 646 -163Q604 -176 560.5 -183Q517 -190 476 -190Q380 -190 300 -161Q220 -132 162.5 -79.5Q105 -27 73 46Q41 119 41 208Q41 289 61 356Q81 423 115.5 477Q150 531 197.5 570.5Q245 610 299.5 637Q354 664 413.5 677Q473 690 533 690Q614 690 690.5 666Q767 642 826 594Q885 546 920.5 474.5Q956 403 956 309Q956 246 939.5 187.5Q923 129 889 85Q855 41 803.5 14.5Q752 -12 683 -12Q646 -12 619.5 -4Q593 4 575 15.5Q557 27 546.5 38.5Q536 50 531 57Q529 54 522.5 43Q516 32 502 19.5Q488 7 466 -2.5Q444 -12 412 -12Q373 -12 339.5 4Q306 20 281 49Q256 78 242 118.5Q228 159 228 207Q228 271 248 322Q268 373 300.5 409Q333 445 375 464Q417 483 462 483Q493 483 516.5 474.5Q540 466 556.5 454Q573 442 583 429.5Q593 417 598 409Q596 420 597.5 436.5Q599 453 602 471H783Z" glyph-name="at" horiz-adv-x="980" unicode="@" /><glyph d="M410 338Q410 311 427 288Q444 265 476 265Q506 265 531.5 290Q557 315 557 363Q557 390 540 413Q523 436 491 436Q461 436 435.5 411Q410 386 410 338ZM722 232Q720 222 724.5 214.5Q729 207 743 207Q769 207 790 226Q811 245 826 275.5Q841 306 849.5 344.5Q858 383 858 423Q858 499 830.5 554Q803 609 757.5 644Q712 679 653.5 695.5Q595 712 532 712Q461 712 391.5 688.5Q322 665 267 617.5Q212 570 178 497.5Q144 425 144 328Q144 254 169.5 196Q195 138 241 97.5Q287 57 349.5 35.5Q412 14 486 14Q533 14 581.5 28Q630 42 666 62L795 27Q765 3 726.5 -16Q688 -35 646 -48Q604 -61 560.5 -68Q517 -75 476 -75Q380 -75 300 -46Q220 -17 162.5 35.5Q105 88 73 161Q41 234 41 323Q41 404 61 471Q81 538 115.5 592Q150 646 197.5 685.5Q245 725 299.5 752Q354 779 413.5 792Q473 805 533 805Q614 805 690.5 781Q767 757 826 709Q885 661 920.5 589.5Q956 518 956 424Q956 361 939.5 302.5Q923 244 889 200Q855 156 803.5 129.5Q752 103 683 103Q646 103 619.5 111Q593 119 575 130.5Q557 142 546.5 153.5Q536 165 531 172Q529 169 522.5 158Q516 147 502 134.5Q488 122 466 112.5Q444 103 412 103Q373 103 339.5 119Q306 135 281 164Q256 193 242 233.5Q228 274 228 322Q228 386 248 437Q268 488 300.5 524Q333 560 375 579Q417 598 462 598Q493 598 516.5 589.5Q540 581 556.5 569Q573 557 583 544.5Q593 532 598 524Q596 535 597.5 551.5Q599 568 602 586H783Z" glyph-name="at.alt" horiz-adv-x="936" unicode="&#62208;" /><glyph d="M202 223Q202 196 219 173Q236 150 268 150Q298 150 323.5 175Q349 200 349 248Q349 275 332 298Q315 321 283 321Q253 321 227.5 296Q202 271 202 223ZM532 668Q532 656 528.5 630.5Q525 605 513 579.5Q501 554 477 534.5Q453 515 413 515Q396 515 379.5 520Q363 525 347.5 531.5Q332 538 318.5 543Q305 548 295 548Q278 548 275 533L273 523L148 535Q148 547 151.5 572.5Q155 598 167 624.5Q179 651 202.5 671Q226 691 267 691Q283 691 300 685.5Q317 680 332.5 673Q348 666 361.5 660.5Q375 655 385 655Q402 655 405 670L407 680ZM575 471 494 0H313L324 58Q323 56 316.5 45Q310 34 296 21Q282 8 259.5 -2Q237 -12 204 -12Q165 -12 131.5 4Q98 20 73 49Q48 78 34 118.5Q20 159 20 207Q20 271 40 322Q60 373 92.5 409Q125 445 167 464Q209 483 254 483Q285 483 308.5 474.5Q332 466 348.5 454Q365 442 375 429.5Q385 417 390 409Q388 420 389.5 436Q391 452 393 467L394 471Z" glyph-name="atilde" horiz-adv-x="579" unicode="&#227;" /><glyph d="M378 248Q378 275 361 298Q344 321 312 321Q282 321 256.5 296Q231 271 231 223Q231 196 248 173Q265 150 297 150Q327 150 352.5 175Q378 200 378 248ZM5 0 125 700H305L268 483Q266 472 263 461Q260 450 258 441Q255 430 252 421Q256 427 265.5 437.5Q275 448 290.5 458Q306 468 327 475.5Q348 483 376 483Q415 483 448.5 467Q482 451 507 422Q532 393 546 352.5Q560 312 560 264Q560 200 540.5 149Q521 98 488.5 62Q456 26 414 7Q372 -12 327 -12Q296 -12 273 -4.5Q250 3 233.5 13.5Q217 24 207 36.5Q197 49 193 58L181 0Z" glyph-name="b" horiz-adv-x="579" unicode="b" /><glyph d="M384 0H215L102 700H272Z" glyph-name="backslash" horiz-adv-x="446" unicode="\" /><glyph d="M81 560H236L326 0H172Z" glyph-name="backslash.smcp" horiz-adv-x="392" unicode="&#58472;" /><glyph d="M5 -93 152 760H280L132 -93Z" glyph-name="bar" horiz-adv-x="248" unicode="|" /><glyph d="M123 608H236L117 -74H6Z" glyph-name="bar.smcp" horiz-adv-x="229" unicode="&#58473;" /><glyph d="M50 374H119L176 700H452L421 530H338L312 372Q310 364 305.5 351Q301 338 291.5 325.5Q282 313 266.5 303.5Q251 294 228 291Q249 284 260.5 271Q272 258 277 244Q282 230 282 216.5Q282 203 281 195L250 17H333L304 -153H28L91 208H21Z" glyph-name="braceleft" horiz-adv-x="407" unicode="{" /><glyph d="M60 449H129L186 775H462L431 605H348L322 447Q320 439 315.5 426Q311 413 301.5 400.5Q292 388 276.5 378.5Q261 369 238 366Q259 359 270.5 346Q282 333 287 319Q292 305 292 291.5Q292 278 291 270L260 92H343L314 -78H38L101 283H31Z" glyph-name="braceleft.cap" horiz-adv-x="401" unicode="&#58517;" /><glyph d="M79 210H24L51 361H105L149 614H380L352 459H296L278 343Q277 337 272.5 327.5Q268 318 260 309Q252 300 238.5 293Q225 286 206 285Q225 279 235.5 268Q246 257 250 244.5Q254 232 254 221Q254 210 253 205L233 87H288L262 -68H30Z" glyph-name="braceleft.smcp" horiz-adv-x="353" unicode="&#58525;" /><glyph d="M377 208H308L245 -153H-30L0 17H84L116 209Q117 219 122.5 231.5Q128 244 137.5 256Q147 268 162 277.5Q177 287 198 291Q178 298 166.5 309Q155 320 150 333Q145 346 144.5 359Q144 372 146 384L172 530H88L118 700H393L336 374H406Z" glyph-name="braceright" horiz-adv-x="406" unicode="}" /><glyph d="M388 283H319L256 -78H-19L11 92H95L127 284Q128 294 133.5 306.5Q139 319 148.5 331Q158 343 173 352.5Q188 362 209 366Q189 373 177.5 384Q166 395 161 408Q156 421 155.5 434Q155 447 157 459L183 605H99L129 775H404L347 449H417Z" glyph-name="braceright.cap" horiz-adv-x="401" unicode="&#58518;" /><glyph d="M14 87H72L94 227Q95 234 99.5 243.5Q104 253 112.5 261.5Q121 270 134 276.5Q147 283 164 285Q129 298 121 320Q113 342 118 361L135 459H79L106 614H336L292 361H347L320 210H267L218 -68H-13Z" glyph-name="braceright.smcp" horiz-adv-x="352" unicode="&#58526;" /><glyph d="M303 530 215 18H338L309 -153H-7L140 700H457L426 530Z" glyph-name="bracketleft" horiz-adv-x="408" unicode="[" /><glyph d="M316 605 228 93H351L322 -78H6L153 775H470L439 605Z" glyph-name="bracketleft.cap" horiz-adv-x="407" unicode="&#58515;" /><glyph d="M124 614H397L369 459H273L209 88H305L279 -68H7Z" glyph-name="bracketleft.smcp" horiz-adv-x="369" unicode="&#58523;" /><glyph d="M85 530 114 700H431L283 -153H-34L-3 17H120L208 530Z" glyph-name="bracketright" horiz-adv-x="410" unicode="]" /><glyph d="M97 605 126 775H443L295 -78H-22L9 92H132L220 605Z" glyph-name="bracketright.cap" horiz-adv-x="407" unicode="&#58516;" /><glyph d="M14 87H110L174 459H78L105 614H377L259 -68H-14Z" glyph-name="bracketright.smcp" horiz-adv-x="370" unicode="&#58524;" /><glyph d="M291 700H418L411 658Q398 580 352 545Q306 510 240 510Q208 510 179.5 520.5Q151 531 130.5 551Q110 571 100 600.5Q90 630 95 669L99 700H222L219 678Q216 658 225 646.5Q234 635 250 635Q281 635 287 675Z" glyph-name="breve" horiz-adv-x="367" unicode="&#728;" /><glyph d="M203 705Q227 705 232 730L233 735H353L351 723Q340 659 299.5 629.5Q259 600 198 600Q130 600 97.5 629.5Q65 659 65 704Q65 716 68 730L69 735H179L178 729Q176 718 183.5 711.5Q191 705 203 705Z" glyph-name="breve.smcp" horiz-adv-x="400" unicode="&#63220;" /><glyph d="M5 -93 68 288H197L131 -93ZM86 380 152 760H279L214 380Z" glyph-name="brokenbar" horiz-adv-x="248" unicode="&#166;" /><glyph d="M124 608H235L182 300H70ZM57 235H170L116 -74H6Z" glyph-name="brokenbar.smcp" horiz-adv-x="228" unicode="&#58475;" /><glyph d="M79 359Q79 387 89 411Q99 435 117 453Q135 471 159 481Q183 491 210 491Q237 491 261 481Q285 471 302.5 453Q320 435 330 411Q340 387 340 359Q340 332 330 308Q320 284 302.5 266Q285 248 261 238Q237 228 210 228Q183 228 159 238Q135 248 117 266Q99 284 89 308Q79 332 79 359Z" glyph-name="bullet" horiz-adv-x="378" unicode="&#8226;" /><glyph d="M512 182Q501 135 477.5 99Q454 63 420.5 38.5Q387 14 345.5 1Q304 -12 258 -12Q211 -12 168 4.5Q125 21 92 51.5Q59 82 39.5 125Q20 168 20 222Q20 282 42 330Q64 378 101 412Q138 446 185 464.5Q232 483 283 483Q327 483 368 468.5Q409 454 441 427Q473 400 494 361.5Q515 323 520 275L343 248Q343 261 338.5 274Q334 287 325.5 297.5Q317 308 305 314.5Q293 321 278 321Q248 321 222.5 296Q197 271 197 223Q197 196 214 173Q231 150 263 150Q288 150 310.5 167Q333 184 340 220Z" glyph-name="c" horiz-adv-x="530" unicode="c" /><glyph d="M273 700H498L372 523H203ZM512 182Q501 135 477.5 99Q454 63 420.5 38.5Q387 14 345.5 1Q304 -12 258 -12Q211 -12 168 4.5Q125 21 92 51.5Q59 82 39.5 125Q20 168 20 222Q20 282 42 330Q64 378 101 412Q138 446 185 464.5Q232 483 283 483Q327 483 368 468.5Q409 454 441 427Q473 400 494 361.5Q515 323 520 275L343 248Q343 261 338.5 274Q334 287 325.5 297.5Q317 308 305 314.5Q293 321 278 321Q248 321 222.5 296Q197 271 197 223Q197 196 214 173Q231 150 263 150Q288 150 310.5 167Q333 184 340 220Z" glyph-name="cacute" horiz-adv-x="530" unicode="&#263;" /><glyph d="M255 642 293 700H468L328 523H152L74 700H234Z" glyph-name="caron" horiz-adv-x="427" unicode="&#711;" /><glyph d="M231 730H381L286 605H90L41 730H181L199 694Z" glyph-name="caron.smcp" horiz-adv-x="400" unicode="&#63221;" /><glyph d="M321 642 359 700H534L394 523H218L140 700H300ZM512 182Q501 135 477.5 99Q454 63 420.5 38.5Q387 14 345.5 1Q304 -12 258 -12Q211 -12 168 4.5Q125 21 92 51.5Q59 82 39.5 125Q20 168 20 222Q20 282 42 330Q64 378 101 412Q138 446 185 464.5Q232 483 283 483Q327 483 368 468.5Q409 454 441 427Q473 400 494 361.5Q515 323 520 275L343 248Q343 261 338.5 274Q334 287 325.5 297.5Q317 308 305 314.5Q293 321 278 321Q248 321 222.5 296Q197 271 197 223Q197 196 214 173Q231 150 263 150Q288 150 310.5 167Q333 184 340 220Z" glyph-name="ccaron" horiz-adv-x="530" unicode="&#269;" /><glyph d="M158 9Q98 35 59.5 89.5Q21 144 21 222Q21 282 43 330Q65 378 102 412Q139 446 186 464.5Q233 483 284 483Q328 483 369 468.5Q410 454 442 427Q474 400 495 361.5Q516 323 521 275L344 248Q344 261 339.5 274Q335 287 326.5 297.5Q318 308 306 314.5Q294 321 279 321Q249 321 223.5 296Q198 271 198 223Q198 196 215 173Q232 150 264 150Q289 150 311.5 167Q334 184 341 220L513 182Q497 112 452.5 66Q408 20 346 1L258 -136H86Z" glyph-name="ccedilla" horiz-adv-x="532" unicode="&#231;" /><glyph d="M335 581 298 523H120L260 700H436L514 523H358ZM512 182Q501 135 477.5 99Q454 63 420.5 38.5Q387 14 345.5 1Q304 -12 258 -12Q211 -12 168 4.5Q125 21 92 51.5Q59 82 39.5 125Q20 168 20 222Q20 282 42 330Q64 378 101 412Q138 446 185 464.5Q232 483 283 483Q327 483 368 468.5Q409 454 441 427Q473 400 494 361.5Q515 323 520 275L343 248Q343 261 338.5 274Q334 287 325.5 297.5Q317 308 305 314.5Q293 321 278 321Q248 321 222.5 296Q197 271 197 223Q197 196 214 173Q231 150 263 150Q288 150 310.5 167Q333 184 340 220Z" glyph-name="ccircumflex" horiz-adv-x="530" unicode="&#265;" /><glyph d="M338 520Q319 520 302 527.5Q285 535 272 548Q259 561 251 578Q243 595 243 614Q243 633 251 650Q259 667 272 680Q285 693 302 700.5Q319 708 338 708Q357 708 374 700.5Q391 693 404 680Q417 667 425 650Q433 633 433 614Q433 595 425 578Q417 561 404 548Q391 535 374 527.5Q357 520 338 520ZM512 182Q501 135 477.5 99Q454 63 420.5 38.5Q387 14 345.5 1Q304 -12 258 -12Q211 -12 168 4.5Q125 21 92 51.5Q59 82 39.5 125Q20 168 20 222Q20 282 42 330Q64 378 101 412Q138 446 185 464.5Q232 483 283 483Q327 483 368 468.5Q409 454 441 427Q473 400 494 361.5Q515 323 520 275L343 248Q343 261 338.5 274Q334 287 325.5 297.5Q317 308 305 314.5Q293 321 278 321Q248 321 222.5 296Q197 271 197 223Q197 196 214 173Q231 150 263 150Q288 150 310.5 167Q333 184 340 220Z" glyph-name="cdotaccent" horiz-adv-x="530" unicode="&#267;" /><glyph d="M36 19H231L131 -136H-41Z" glyph-name="cedilla" horiz-adv-x="311" unicode="&#184;" /><glyph d="M143 19H326L227 -134H73Z" glyph-name="cedilla.smcp" horiz-adv-x="400" unicode="&#63416;" /><glyph d="M231 337Q231 320 239 302L287 430Q264 422 247.5 398.5Q231 375 231 337ZM546 296Q535 249 511.5 213Q488 177 454.5 152.5Q421 128 379.5 115Q338 102 292 102Q284 102 275 102Q266 102 258 104L220 0H126L175 131Q121 159 87.5 211.5Q54 264 54 336Q54 396 76 444Q98 492 135 526Q172 560 219 578.5Q266 597 317 597Q325 597 332.5 596.5Q340 596 348 595L387 700H479L431 570Q481 544 514 498Q547 452 554 389L377 362Q375 382 367 399L319 267Q338 272 353.5 288.5Q369 305 374 334Z" glyph-name="cent" horiz-adv-x="566" unicode="&#162;" /><glyph d="M208 282Q200 241 223 214L276 356Q251 351 232 332Q213 313 208 282ZM250 41Q243 42 236.5 42.5Q230 43 223 45L207 0H144L167 63Q135 78 110 102Q85 126 68.5 156Q52 186 46 222Q40 258 46 297Q55 348 79 389Q103 430 138 458Q173 486 217.5 499Q262 512 310 508L331 505L348 549H411L388 488Q446 464 482.5 415.5Q519 367 521 301L353 284Q353 319 333 339L279 193Q303 195 321 211Q339 227 347 253L506 199Q491 157 466 125.5Q441 94 407.5 74Q374 54 334 45.5Q294 37 250 41Z" glyph-name="cent.smcp" horiz-adv-x="543" unicode="&#63109;" /><glyph d="M289 581 252 523H74L214 700H390L468 523H312Z" glyph-name="circumflex" horiz-adv-x="427" unicode="&#710;" /><glyph d="M200 641 168 605H18L113 730H309L358 605H218Z" glyph-name="circumflex.smcp" horiz-adv-x="400" unicode="&#63222;" /><glyph d="M62 358Q62 382 71 402.5Q80 423 95 438Q110 453 130 462Q150 471 173 471Q197 471 218 462Q239 453 254 438Q269 423 278 402.5Q287 382 287 358Q287 335 278 314.5Q269 294 254 279Q239 264 218 255Q197 246 173 246Q150 246 130 255Q110 264 95 279Q80 294 71 314.5Q62 335 62 358ZM16 100Q16 124 25 144.5Q34 165 49 180Q64 195 84 204Q104 213 127 213Q151 213 172 204Q193 195 208 180Q223 165 232 144.5Q241 124 241 100Q241 77 232 56.5Q223 36 208 21Q193 6 172 -3Q151 -12 127 -12Q104 -12 84 -3Q64 6 49 21Q34 36 25 56.5Q16 77 16 100Z" glyph-name="colon" horiz-adv-x="305" unicode=":" /><glyph d="M15 101Q15 123 23.5 143.5Q32 164 47 179.5Q62 195 82.5 204Q103 213 127 213Q152 213 174 203.5Q196 194 211.5 178Q227 162 236 141.5Q245 121 245 99Q245 53 205 2L97 -134L-23 -89L41 28Q15 60 15 101Z" glyph-name="comma" horiz-adv-x="302" unicode="," /><glyph d="M-36 -268 4 -197Q-20 -168 -20 -132Q-20 -113 -12.5 -95Q-5 -77 8 -63.5Q21 -50 39.5 -42Q58 -34 79 -34Q101 -34 120 -42.5Q139 -51 153 -65Q167 -79 175 -97Q183 -115 183 -134Q183 -179 143 -225L61 -320Z" glyph-name="commaaccent" horiz-adv-x="310" unicode="&#58388;" /><glyph d="M17 -257 62 -181Q42 -158 42 -126Q42 -92 66.5 -66Q91 -40 129 -40Q148 -40 165 -47.5Q182 -55 194.5 -67Q207 -79 214 -95Q221 -111 221 -128Q221 -173 180 -212L108 -286Z" glyph-name="commaaccent.smcp" horiz-adv-x="400" unicode="&#63080;" /><glyph d="M436 59Q497 59 548 80.5Q599 102 635.5 140.5Q672 179 692 232Q712 285 712 348Q712 410 692 462.5Q672 515 635.5 553.5Q599 592 548 613.5Q497 635 436 635Q375 635 324 613.5Q273 592 236.5 553.5Q200 515 180 462.5Q160 410 160 348Q160 285 180 232Q200 179 236.5 140.5Q273 102 324 80.5Q375 59 436 59ZM436 720Q515 720 583.5 692.5Q652 665 702.5 615.5Q753 566 782 497.5Q811 429 811 348Q811 266 782 198Q753 130 702.5 80.5Q652 31 583.5 3.5Q515 -24 436 -24Q357 -24 288.5 3.5Q220 31 169.5 80.5Q119 130 90 198Q61 266 61 348Q61 429 90 497.5Q119 566 169.5 615.5Q220 665 288.5 692.5Q357 720 436 720ZM443 563Q478 563 511 551Q544 539 571 517Q598 495 618 463.5Q638 432 647 392L522 387Q514 418 492.5 436Q471 454 443 454Q398 454 372 424.5Q346 395 346 350Q346 304 372 274Q398 244 443 244Q471 244 492.5 262Q514 280 522 311L647 306Q638 267 618 235Q598 203 571 181Q544 159 511 147Q478 135 443 135Q398 135 358.5 151Q319 167 289 195.5Q259 224 242 263.5Q225 303 225 350Q225 396 241.5 435.5Q258 475 287.5 503Q317 531 356.5 547Q396 563 443 563Z" glyph-name="copyright" horiz-adv-x="831" unicode="&#169;" /><glyph d="M512 182Q501 135 477.5 99Q454 63 420.5 38.5Q387 14 345.5 1Q304 -12 258 -12Q211 -12 168 4.5Q125 21 92 51.5Q59 82 39.5 125Q20 168 20 222Q20 280 41.5 328Q63 376 98.5 409.5Q134 443 180 462Q226 481 276 483Q246 519 246 566Q246 583 253 606Q260 629 279.5 650Q299 671 334 685.5Q369 700 426 700H874L833 471H920L892 312H806L784 187Q782 177 785 171.5Q788 166 793 163Q798 160 804.5 159Q811 158 817 158Q827 158 837.5 158Q848 158 856 159Q866 160 875 161L846 0Q822 -2 799 -3Q779 -5 758 -5.5Q737 -6 723 -6Q693 -6 666.5 2Q640 10 622 27Q604 44 596 71Q588 98 595 136L625 312H559L587 471H653L668 556H476Q450 556 433 550Q416 544 406 533.5Q396 523 392 510Q388 497 388 483Q388 478 388 471Q388 464 390 459Q442 434 477.5 387.5Q513 341 520 275L343 248Q343 261 338.5 274Q334 287 325.5 297.5Q317 308 305 314.5Q293 321 278 321Q248 321 222.5 296Q197 271 197 223Q197 196 214 173Q231 150 263 150Q288 150 310.5 167Q333 184 340 220Z" glyph-name="ct" horiz-adv-x="916" unicode="&#62211;" /><glyph d="M590 334Q597 373 590.5 408.5Q584 444 565.5 472Q547 500 517 518Q487 536 448 539Q408 543 372.5 531Q337 519 309.5 495Q282 471 263 437.5Q244 404 238 365Q231 327 238 291.5Q245 256 263.5 228Q282 200 312 182Q342 164 382 161Q421 157 456 169Q491 181 519 204.5Q547 228 565.5 261.5Q584 295 590 334ZM103 377Q111 425 132.5 468.5Q154 512 185 547L106 643L217 731L294 633Q333 653 378 662.5Q423 672 470 668Q516 663 557 646Q598 629 629 603L737 685L815 582L705 500Q723 461 728.5 415Q734 369 726 322Q718 274 696.5 230.5Q675 187 644 153L723 56L612 -32L534 67Q496 46 451 36.5Q406 27 359 31Q312 36 271.5 53.5Q231 71 200 97L91 14L15 117L124 200Q106 238 100.5 284Q95 330 103 377Z" glyph-name="currency" horiz-adv-x="789" unicode="&#164;" /><glyph d="M202 223Q202 196 219 173Q236 150 268 150Q298 150 323.5 175Q349 200 349 248Q349 275 332 298Q315 321 283 321Q253 321 227.5 296Q202 271 202 223ZM254 483Q285 483 308 474.5Q331 466 347.5 454Q364 442 373.5 429.5Q383 417 388 409Q388 413 388.5 423Q389 433 390.5 445Q392 457 393.5 468.5Q395 480 397 488L434 700H615L494 0H313L324 58Q323 56 316.5 45Q310 34 296 21Q282 8 259.5 -2Q237 -12 204 -12Q165 -12 131.5 4Q98 20 73 49Q48 78 34 118.5Q20 159 20 207Q20 271 40 322Q60 373 92.5 409Q125 445 167 464Q209 483 254 483Z" glyph-name="d" horiz-adv-x="579" unicode="d" /><glyph d="M87 559H224L249 700H434L409 559H545L513 375H377L311 0H126L192 375H55Z" glyph-name="dagger" horiz-adv-x="520" unicode="&#8224;" /><glyph d="M48 327H185L194 375H57L89 559H226L251 700H436L411 559H547L515 375H379L370 327H506L474 143H338L313 0H128L153 143H17Z" glyph-name="daggerdbl" horiz-adv-x="520" unicode="&#8225;" /><glyph d="M202 223Q202 196 219 173Q236 150 268 150Q298 150 323.5 175Q349 200 349 248Q349 275 332 298Q315 321 283 321Q253 321 227.5 296Q202 271 202 223ZM620 478 660 549Q636 578 636 614Q636 633 643.5 651Q651 669 664 682.5Q677 696 695.5 704Q714 712 735 712Q757 712 776 703.5Q795 695 809 681Q823 667 831 649Q839 631 839 612Q839 567 799 521L717 426ZM254 483Q285 483 308 474.5Q331 466 347.5 454Q364 442 373.5 429.5Q383 417 388 409Q388 413 388.5 423Q389 433 390.5 445Q392 457 393.5 468.5Q395 480 397 488L434 700H615L494 0H313L324 58Q323 56 316.5 45Q310 34 296 21Q282 8 259.5 -2Q237 -12 204 -12Q165 -12 131.5 4Q98 20 73 49Q48 78 34 118.5Q20 159 20 207Q20 271 40 322Q60 373 92.5 409Q125 445 167 464Q209 483 254 483Z" glyph-name="dcaron" horiz-adv-x="695" unicode="&#271;" /><glyph d="M202 223Q202 196 219 173Q236 150 268 150Q298 150 323.5 175Q349 200 349 248Q349 275 332 298Q315 321 283 321Q253 321 227.5 296Q202 271 202 223ZM340 664H427L434 700H615L609 664H674L650 529H585L494 0H313L324 58Q323 56 316.5 45Q310 34 296 21Q282 8 259.5 -2Q237 -12 204 -12Q165 -12 131.5 4Q98 20 73 49Q48 78 34 118.5Q20 159 20 207Q20 271 40 322Q60 373 92.5 409Q125 445 167 464Q209 483 254 483Q285 483 308 474.5Q331 466 347.5 454Q364 442 373.5 429.5Q383 417 388 409Q388 413 388.5 423Q389 433 390.5 445Q392 457 393.5 468.5Q395 480 397 488L404 529H316Z" glyph-name="dcroat" horiz-adv-x="579" unicode="&#273;" /><glyph d="M260 604Q232 604 213.5 585Q195 566 195 537Q195 508 213.5 489Q232 470 260 470Q288 470 306.5 489Q325 508 325 537Q325 566 306.5 585Q288 604 260 604ZM260 362Q223 362 190.5 375.5Q158 389 134 412.5Q110 436 96 468Q82 500 82 537Q82 574 96 606Q110 638 134 661.5Q158 685 190.5 698.5Q223 712 260 712Q297 712 329.5 698.5Q362 685 386 661.5Q410 638 424 606Q438 574 438 537Q438 500 424 468Q410 436 386 412.5Q362 389 329.5 375.5Q297 362 260 362Z" glyph-name="degree" horiz-adv-x="416" unicode="&#176;" /><glyph d="M374 520Q355 520 338 527.5Q321 535 308 548Q295 561 287 578Q279 595 279 614Q279 633 287 650Q295 667 308 680Q321 693 338 700.5Q355 708 374 708Q393 708 410 700.5Q427 693 440 680Q453 667 461 650Q469 633 469 614Q469 595 461 578Q453 561 440 548Q427 535 410 527.5Q393 520 374 520ZM166 520Q147 520 130 527.5Q113 535 100 548Q87 561 79 578Q71 595 71 614Q71 633 79 650Q87 667 100 680Q113 693 130 700.5Q147 708 166 708Q185 708 202 700.5Q219 693 232 680Q245 667 253 650Q261 633 261 614Q261 595 253 578Q245 561 232 548Q219 535 202 527.5Q185 520 166 520Z" glyph-name="dieresis" horiz-adv-x="439" unicode="&#168;" /><glyph d="M294 769Q311 769 326.5 762Q342 755 354 743.5Q366 732 373 716.5Q380 701 380 684Q380 667 373 652Q366 637 354 625.5Q342 614 326.5 607Q311 600 294 600Q277 600 261.5 607Q246 614 234 625.5Q222 637 215 652Q208 667 208 684Q208 701 215 716.5Q222 732 234 743.5Q246 755 261.5 762Q277 769 294 769ZM104 769Q121 769 136.5 762Q152 755 164 743.5Q176 732 183 716.5Q190 701 190 684Q190 667 183 652Q176 637 164 625.5Q152 614 136.5 607Q121 600 104 600Q87 600 71.5 607Q56 614 44 625.5Q32 637 25 652Q18 667 18 684Q18 701 25 716.5Q32 732 44 743.5Q56 755 71.5 762Q87 769 104 769Z" glyph-name="dieresis.smcp" horiz-adv-x="400" unicode="&#63400;" /><glyph d="M69 444H527L494 260H36ZM208 575Q208 598 216.5 618.5Q225 639 240 654Q255 669 275 677.5Q295 686 318 686Q342 686 362.5 677.5Q383 669 398.5 654Q414 639 423 618.5Q432 598 432 575Q431 528 398.5 496Q366 464 318 464Q295 464 275 472.5Q255 481 240 496Q225 511 216.5 531.5Q208 552 208 575ZM128 130Q128 153 137 173Q146 193 161 208Q176 223 196.5 231.5Q217 240 240 240Q264 240 284.5 231.5Q305 223 320 208Q335 193 343.5 173Q352 153 352 130Q352 106 343.5 86Q335 66 320 51Q305 36 284.5 27.5Q264 19 240 19Q217 19 197 27.5Q177 36 161.5 51Q146 66 137 86Q128 106 128 130Z" glyph-name="divide" horiz-adv-x="520" unicode="&#247;" /><glyph d="M267 377Q247 377 229.5 384.5Q212 392 199 405Q186 418 178.5 436Q171 454 171 474Q171 516 199 543.5Q227 571 268 571Q310 571 339 543.5Q368 516 368 474Q368 454 360 436Q352 418 338.5 405Q325 392 306.5 384.5Q288 377 267 377ZM67 365H437L406 195H36ZM199 -11Q159 -11 130.5 17Q102 45 101 87Q101 128 130 155.5Q159 183 200 183Q242 183 270 155.5Q298 128 298 87Q298 66 290.5 48Q283 30 269.5 17Q256 4 238 -3.5Q220 -11 199 -11Z" glyph-name="divide.smcp" horiz-adv-x="456" unicode="&#62003;" /><glyph d="M311 505Q311 496 316 486.5Q321 477 338 466L366 542H365Q333 542 322 529.5Q311 517 311 505ZM379 202Q379 217 371.5 226.5Q364 236 349 245L317 160H319Q348 160 363.5 172.5Q379 185 379 202ZM359 712Q376 712 393 710Q410 708 427 705L455 780H548L510 678Q554 658 589 632Q624 606 644 577L513 453Q497 473 481 487.5Q465 502 449 513L416 427L433 419Q476 397 506.5 374Q537 351 556 325.5Q575 300 583.5 270.5Q592 241 592 207Q592 171 578.5 132.5Q565 94 534 62Q503 30 452.5 9Q402 -12 328 -12Q308 -12 290.5 -10Q273 -8 256 -6L224 -93H131L171 16Q109 40 69.5 72Q30 104 14 124L136 267Q152 247 177.5 224.5Q203 202 234 185L271 284L228 306Q156 341 124 391.5Q92 442 92 496Q92 547 112 587Q132 627 167 655Q202 683 251 697.5Q300 712 359 712Z" glyph-name="dollar" horiz-adv-x="632" unicode="$" /><glyph d="M298 169Q298 183 281 193L263 146H264Q284 146 291 153.5Q298 161 298 169ZM262 398Q262 394 264.5 387.5Q267 381 285 373L300 415H292Q274 415 268 409Q262 403 262 398ZM263 -9Q248 -9 234.5 -7.5Q221 -6 207 -4L183 -70H120L150 10Q95 29 60 56.5Q25 84 12 99L115 227Q129 210 153.5 191Q178 172 205 160L226 216L179 236Q118 260 91.5 303Q65 346 65 391Q65 425 79 457.5Q93 490 121 515Q149 540 190.5 555Q232 570 287 570Q320 570 355 562L378 624H441L411 544Q456 525 487.5 500Q519 475 532 457L415 346Q401 363 385.5 375.5Q370 388 356 396L339 351L360 343Q436 312 465.5 270Q495 228 495 171Q495 145 483 113.5Q471 82 443.5 55Q416 28 371.5 9.5Q327 -9 263 -9Z" glyph-name="dollar.smcp" horiz-adv-x="540" unicode="&#63110;" /><glyph d="M175 520Q156 520 139 527.5Q122 535 109 548Q96 561 88 578Q80 595 80 614Q80 633 88 650Q96 667 109 680Q122 693 139 700.5Q156 708 175 708Q194 708 211 700.5Q228 693 241 680Q254 667 262 650Q270 633 270 614Q270 595 262 578Q254 561 241 548Q228 535 211 527.5Q194 520 175 520Z" glyph-name="dotaccent" horiz-adv-x="227" unicode="&#729;" /><glyph d="M199 769Q216 769 231.5 762Q247 755 259 743.5Q271 732 278 716.5Q285 701 285 684Q285 667 278 652Q271 637 259 625.5Q247 614 231.5 607Q216 600 199 600Q182 600 166.5 607Q151 614 139 625.5Q127 637 120 652Q113 667 113 684Q113 701 120 716.5Q127 732 139 743.5Q151 755 166.5 762Q182 769 199 769Z" glyph-name="dotaccent.smcp" horiz-adv-x="400" unicode="&#63223;" /><glyph d="M37 0 90 312H34L61 471H298L217 0Z" glyph-name="dotlessi" horiz-adv-x="302" unicode="&#305;" /><glyph d="M90 312H34L61 471H298L207 -51Q199 -98 180.5 -123.5Q162 -149 138 -161Q114 -173 87.5 -175Q61 -177 36 -177H-69L-42 -20H2Q22 -20 28.5 -14.5Q35 -9 37 2Z" glyph-name="dotlessj" horiz-adv-x="302" unicode="&#567;" /><glyph d="M274 343Q251 343 230 329.5Q209 316 200 290H337Q335 313 317.5 328Q300 343 274 343ZM506 138Q494 102 470 74.5Q446 47 414 27.5Q382 8 344.5 -2Q307 -12 268 -12Q221 -12 176 3.5Q131 19 96.5 49Q62 79 41 123Q20 167 20 224Q20 282 41.5 330Q63 378 98.5 412Q134 446 180.5 464.5Q227 483 278 483Q335 483 380 463.5Q425 444 456.5 409.5Q488 375 505 327Q522 279 522 223Q522 214 521.5 205Q521 196 520 186H198Q203 166 222.5 154.5Q242 143 262 143Q286 143 303.5 153Q321 163 329 177Z" glyph-name="e" horiz-adv-x="538" unicode="e" /><glyph d="M282 700H507L381 523H212ZM274 343Q251 343 230 329.5Q209 316 200 290H337Q335 313 317.5 328Q300 343 274 343ZM506 138Q494 102 470 74.5Q446 47 414 27.5Q382 8 344.5 -2Q307 -12 268 -12Q221 -12 176 3.5Q131 19 96.5 49Q62 79 41 123Q20 167 20 224Q20 282 41.5 330Q63 378 98.5 412Q134 446 180.5 464.5Q227 483 278 483Q335 483 380 463.5Q425 444 456.5 409.5Q488 375 505 327Q522 279 522 223Q522 214 521.5 205Q521 196 520 186H198Q203 166 222.5 154.5Q242 143 262 143Q286 143 303.5 153Q321 163 329 177Z" glyph-name="eacute" horiz-adv-x="538" unicode="&#233;" /><glyph d="M351 700H478L471 658Q458 580 412 545Q366 510 300 510Q268 510 239.5 520.5Q211 531 190.5 551Q170 571 160 600.5Q150 630 155 669L159 700H282L279 678Q276 658 285 646.5Q294 635 310 635Q341 635 347 675ZM274 343Q251 343 230 329.5Q209 316 200 290H337Q335 313 317.5 328Q300 343 274 343ZM506 138Q494 102 470 74.5Q446 47 414 27.5Q382 8 344.5 -2Q307 -12 268 -12Q221 -12 176 3.5Q131 19 96.5 49Q62 79 41 123Q20 167 20 224Q20 282 41.5 330Q63 378 98.5 412Q134 446 180.5 464.5Q227 483 278 483Q335 483 380 463.5Q425 444 456.5 409.5Q488 375 505 327Q522 279 522 223Q522 214 521.5 205Q521 196 520 186H198Q203 166 222.5 154.5Q242 143 262 143Q286 143 303.5 153Q321 163 329 177Z" glyph-name="ebreve" horiz-adv-x="538" unicode="&#277;" /><glyph d="M312 642 350 700H525L385 523H209L131 700H291ZM274 343Q251 343 230 329.5Q209 316 200 290H337Q335 313 317.5 328Q300 343 274 343ZM506 138Q494 102 470 74.5Q446 47 414 27.5Q382 8 344.5 -2Q307 -12 268 -12Q221 -12 176 3.5Q131 19 96.5 49Q62 79 41 123Q20 167 20 224Q20 282 41.5 330Q63 378 98.5 412Q134 446 180.5 464.5Q227 483 278 483Q335 483 380 463.5Q425 444 456.5 409.5Q488 375 505 327Q522 279 522 223Q522 214 521.5 205Q521 196 520 186H198Q203 166 222.5 154.5Q242 143 262 143Q286 143 303.5 153Q321 163 329 177Z" glyph-name="ecaron" horiz-adv-x="538" unicode="&#283;" /><glyph d="M323 581 286 523H108L248 700H424L502 523H346ZM274 343Q251 343 230 329.5Q209 316 200 290H337Q335 313 317.5 328Q300 343 274 343ZM506 138Q494 102 470 74.5Q446 47 414 27.5Q382 8 344.5 -2Q307 -12 268 -12Q221 -12 176 3.5Q131 19 96.5 49Q62 79 41 123Q20 167 20 224Q20 282 41.5 330Q63 378 98.5 412Q134 446 180.5 464.5Q227 483 278 483Q335 483 380 463.5Q425 444 456.5 409.5Q488 375 505 327Q522 279 522 223Q522 214 521.5 205Q521 196 520 186H198Q203 166 222.5 154.5Q242 143 262 143Q286 143 303.5 153Q321 163 329 177Z" glyph-name="ecircumflex" horiz-adv-x="538" unicode="&#234;" /><glyph d="M419 520Q400 520 383 527.5Q366 535 353 548Q340 561 332 578Q324 595 324 614Q324 633 332 650Q340 667 353 680Q366 693 383 700.5Q400 708 419 708Q438 708 455 700.5Q472 693 485 680Q498 667 506 650Q514 633 514 614Q514 595 506 578Q498 561 485 548Q472 535 455 527.5Q438 520 419 520ZM211 520Q192 520 175 527.5Q158 535 145 548Q132 561 124 578Q116 595 116 614Q116 633 124 650Q132 667 145 680Q158 693 175 700.5Q192 708 211 708Q230 708 247 700.5Q264 693 277 680Q290 667 298 650Q306 633 306 614Q306 595 298 578Q290 561 277 548Q264 535 247 527.5Q230 520 211 520ZM274 343Q251 343 230 329.5Q209 316 200 290H337Q335 313 317.5 328Q300 343 274 343ZM506 138Q494 102 470 74.5Q446 47 414 27.5Q382 8 344.5 -2Q307 -12 268 -12Q221 -12 176 3.5Q131 19 96.5 49Q62 79 41 123Q20 167 20 224Q20 282 41.5 330Q63 378 98.5 412Q134 446 180.5 464.5Q227 483 278 483Q335 483 380 463.5Q425 444 456.5 409.5Q488 375 505 327Q522 279 522 223Q522 214 521.5 205Q521 196 520 186H198Q203 166 222.5 154.5Q242 143 262 143Q286 143 303.5 153Q321 163 329 177Z" glyph-name="edieresis" horiz-adv-x="538" unicode="&#235;" /><glyph d="M308 520Q289 520 272 527.5Q255 535 242 548Q229 561 221 578Q213 595 213 614Q213 633 221 650Q229 667 242 680Q255 693 272 700.5Q289 708 308 708Q327 708 344 700.5Q361 693 374 680Q387 667 395 650Q403 633 403 614Q403 595 395 578Q387 561 374 548Q361 535 344 527.5Q327 520 308 520ZM274 343Q251 343 230 329.5Q209 316 200 290H337Q335 313 317.5 328Q300 343 274 343ZM506 138Q494 102 470 74.5Q446 47 414 27.5Q382 8 344.5 -2Q307 -12 268 -12Q221 -12 176 3.5Q131 19 96.5 49Q62 79 41 123Q20 167 20 224Q20 282 41.5 330Q63 378 98.5 412Q134 446 180.5 464.5Q227 483 278 483Q335 483 380 463.5Q425 444 456.5 409.5Q488 375 505 327Q522 279 522 223Q522 214 521.5 205Q521 196 520 186H198Q203 166 222.5 154.5Q242 143 262 143Q286 143 303.5 153Q321 163 329 177Z" glyph-name="edotaccent" horiz-adv-x="538" unicode="&#279;" /><glyph d="M363 523H194L88 700H312ZM274 343Q251 343 230 329.5Q209 316 200 290H337Q335 313 317.5 328Q300 343 274 343ZM506 138Q494 102 470 74.5Q446 47 414 27.5Q382 8 344.5 -2Q307 -12 268 -12Q221 -12 176 3.5Q131 19 96.5 49Q62 79 41 123Q20 167 20 224Q20 282 41.5 330Q63 378 98.5 412Q134 446 180.5 464.5Q227 483 278 483Q335 483 380 463.5Q425 444 456.5 409.5Q488 375 505 327Q522 279 522 223Q522 214 521.5 205Q521 196 520 186H198Q203 166 222.5 154.5Q242 143 262 143Q286 143 303.5 153Q321 163 329 177Z" glyph-name="egrave" horiz-adv-x="538" unicode="&#232;" /><glyph d="M326 546Q300 546 283.5 529Q267 512 267 487Q267 467 280 452.5Q293 438 320 438Q346 438 362 455Q378 472 378 497Q378 517 365.5 531.5Q353 546 326 546ZM284 275Q252 275 234.5 254.5Q217 234 217 208Q217 187 231 170Q245 153 277 153Q309 153 326.5 173.5Q344 194 344 220Q344 241 330 258Q316 275 284 275ZM271 -12Q208 -12 160.5 6.5Q113 25 81 55Q49 85 33 122.5Q17 160 17 199Q17 268 57 315.5Q97 363 159 384Q140 394 125.5 409Q111 424 101.5 442Q92 460 87 479Q82 498 82 517Q82 560 100 595.5Q118 631 150.5 657Q183 683 228 697.5Q273 712 327 712Q388 712 433.5 696Q479 680 509.5 653.5Q540 627 555.5 593Q571 559 571 524Q571 499 564.5 473Q558 447 543 424Q528 401 504.5 382Q481 363 447 353Q492 330 514 289.5Q536 249 536 204Q536 156 515 116Q494 76 458 47.5Q422 19 373.5 3.5Q325 -12 271 -12Z" glyph-name="eight" horiz-adv-x="560" unicode="8" /><glyph d="M337 546Q311 546 294.5 529Q278 512 278 487Q278 467 291 452.5Q304 438 331 438Q357 438 373 455Q389 472 389 497Q389 517 376.5 531.5Q364 546 337 546ZM295 275Q263 275 245.5 254.5Q228 234 228 208Q228 187 242 170Q256 153 288 153Q320 153 337.5 173.5Q355 194 355 220Q355 241 341 258Q327 275 295 275ZM282 -12Q219 -12 171.5 6.5Q124 25 92 55Q60 85 44 122.5Q28 160 28 199Q28 268 68 315.5Q108 363 170 384Q151 394 136.5 409Q122 424 112.5 442Q103 460 98 479Q93 498 93 517Q93 560 111 595.5Q129 631 161.5 657Q194 683 239 697.5Q284 712 338 712Q399 712 444.5 696Q490 680 520.5 653.5Q551 627 566.5 593Q582 559 582 524Q582 499 575.5 473Q569 447 554 424Q539 401 515.5 382Q492 363 458 353Q503 330 525 289.5Q547 249 547 204Q547 156 526 116Q505 76 469 47.5Q433 19 384.5 3.5Q336 -12 282 -12Z" glyph-name="eight.alt" horiz-adv-x="582" unicode="&#62032;" /><glyph d="M327 524Q300 524 282 505Q264 486 264 460Q264 440 278 424Q292 408 321 408Q350 408 367 427Q384 446 384 472Q384 492 370.5 508Q357 524 327 524ZM280 261Q247 261 228 239.5Q209 218 209 190Q209 168 223.5 150Q238 132 273 132Q306 132 325 153.5Q344 175 344 203Q344 226 329.5 243.5Q315 261 280 261ZM270 -12Q210 -12 164.5 5.5Q119 23 88.5 51Q58 79 42.5 114.5Q27 150 27 186Q27 251 65.5 295.5Q104 340 163 360Q127 380 108 415.5Q89 451 89 486Q89 526 106.5 559.5Q124 593 155 617.5Q186 642 229.5 655.5Q273 669 324 669Q382 669 426 654Q470 639 499 614Q528 589 543 557Q558 525 558 492Q558 468 551.5 444Q545 420 531 398Q517 376 494.5 358.5Q472 341 439 331Q482 309 503 271.5Q524 234 524 191Q524 146 504 108.5Q484 71 449.5 44.5Q415 18 368.5 3Q322 -12 270 -12Z" glyph-name="eight.posf" horiz-adv-x="564" unicode="&#62048;" /><glyph d="M188 73Q202 73 210.5 82.5Q219 92 219 106Q219 117 212 125Q205 133 191 133Q177 133 167 124Q157 115 157 101Q157 90 164.5 81.5Q172 73 188 73ZM162 -109Q181 -109 190.5 -96.5Q200 -84 200 -70Q200 -59 193 -49Q186 -39 166 -39Q147 -39 137.5 -50.5Q128 -62 128 -77Q128 -88 135.5 -98.5Q143 -109 162 -109ZM155 -219Q111 -219 80 -205.5Q49 -192 29.5 -171.5Q10 -151 1 -127Q-8 -103 -8 -81Q-8 -36 18 -6.5Q44 23 82 37Q59 50 46 74.5Q33 99 33 122Q33 177 77 211Q121 245 192 245Q232 245 262 234Q292 223 311.5 206Q331 189 341 167.5Q351 146 351 124Q351 92 333.5 60Q316 28 271 15Q300 -1 314.5 -26.5Q329 -52 329 -81Q329 -111 315 -136.5Q301 -162 277.5 -180Q254 -198 222.5 -208.5Q191 -219 155 -219Z" glyph-name="eight.sinf" horiz-adv-x="430" unicode="&#62080;" /><glyph d="M274 360Q288 360 297 368.5Q306 377 306 391Q306 402 299 410.5Q292 419 277 419Q263 419 253 410.5Q243 402 243 388Q243 377 250.5 368.5Q258 360 274 360ZM242 140Q262 140 271.5 152Q281 164 281 179Q281 190 274 200.5Q267 211 247 211Q227 211 217 199Q207 187 207 172Q207 160 214.5 150Q222 140 242 140ZM234 -10Q178 -10 138.5 7Q99 24 73.5 50Q48 76 36 106.5Q24 137 24 165Q24 222 57 257.5Q90 293 138 311Q108 327 92 357.5Q76 388 76 417Q76 451 91 479Q106 507 132.5 527Q159 547 196.5 558.5Q234 570 279 570Q332 570 370.5 556Q409 542 434 520Q459 498 471 470.5Q483 443 483 417Q483 398 478.5 377.5Q474 357 462.5 339Q451 321 432 306Q413 291 384 283Q420 263 437.5 231Q455 199 455 164Q455 126 437.5 94Q420 62 390 39Q360 16 320 3Q280 -10 234 -10Z" glyph-name="eight.smcp" horiz-adv-x="500" unicode="&#58881;" /><glyph d="M294 672Q308 672 316.5 681.5Q325 691 325 705Q325 716 318 724Q311 732 297 732Q283 732 273 723Q263 714 263 700Q263 689 270.5 680.5Q278 672 294 672ZM268 490Q287 490 296.5 502.5Q306 515 306 529Q306 540 299 550Q292 560 272 560Q253 560 243.5 548.5Q234 537 234 522Q234 511 241.5 500.5Q249 490 268 490ZM261 380Q217 380 186 393.5Q155 407 135.5 427.5Q116 448 107 472Q98 496 98 518Q98 563 124 592.5Q150 622 188 636Q165 649 152 673.5Q139 698 139 721Q139 776 183 810Q227 844 298 844Q338 844 368 833Q398 822 417.5 805Q437 788 447 766.5Q457 745 457 723Q457 691 439.5 659Q422 627 377 614Q406 598 420.5 572.5Q435 547 435 518Q435 488 421 462.5Q407 437 383.5 419Q360 401 328.5 390.5Q297 380 261 380Z" glyph-name="eight.sups" horiz-adv-x="430" unicode="&#62064;" /><glyph d="M226 284Q240 284 248.5 293.5Q257 303 257 317Q257 328 250 336Q243 344 229 344Q215 344 205 335Q195 326 195 312Q195 301 202.5 292.5Q210 284 226 284ZM200 102Q219 102 228.5 114.5Q238 127 238 141Q238 152 231 162Q224 172 204 172Q185 172 175.5 160.5Q166 149 166 134Q166 123 173.5 112.5Q181 102 200 102ZM193 -8Q149 -8 118 5.5Q87 19 67.5 39.5Q48 60 39 84Q30 108 30 130Q30 175 56 204.5Q82 234 120 248Q97 261 84 285.5Q71 310 71 333Q71 388 115 422Q159 456 230 456Q270 456 300 445Q330 434 349.5 417Q369 400 379 378.5Q389 357 389 335Q389 303 371.5 271Q354 239 309 226Q338 210 352.5 184.5Q367 159 367 130Q367 100 353 74.5Q339 49 315.5 31Q292 13 260.5 2.5Q229 -8 193 -8Z" glyph-name="eightinferior" horiz-adv-x="430" unicode="&#8328;" /><glyph d="M882 261Q902 261 912.5 275.5Q923 290 924 307Q924 322 914.5 332Q905 342 888 342Q871 342 859 328.5Q847 315 847 298Q847 281 856 271Q865 261 882 261ZM692 0Q693 1 717 18.5Q741 36 772.5 61.5Q804 87 837 115.5Q870 144 891 167L885 169Q883 168 872.5 164.5Q862 161 845 161Q821 161 797.5 170Q774 179 756 196.5Q738 214 727 239.5Q716 265 716 298Q716 332 729.5 361Q743 390 766.5 411Q790 432 820.5 444Q851 456 886 456Q928 456 960.5 441.5Q993 427 1015 403Q1037 379 1048 348Q1059 317 1059 284Q1059 241 1044 203Q1029 165 1004.5 130Q980 95 947.5 62.5Q915 30 879 0ZM992 686 193 -37 145 18 944 741ZM266 536Q280 536 288.5 545.5Q297 555 297 569Q297 580 290 588Q283 596 269 596Q255 596 245 587Q235 578 235 564Q235 553 242.5 544.5Q250 536 266 536ZM240 354Q259 354 268.5 366.5Q278 379 278 393Q278 404 271 414Q264 424 244 424Q225 424 215.5 412.5Q206 401 206 386Q206 375 213.5 364.5Q221 354 240 354ZM233 244Q189 244 158 257.5Q127 271 107.5 291.5Q88 312 79 336Q70 360 70 382Q70 427 96 456.5Q122 486 160 500Q137 513 124 537.5Q111 562 111 585Q111 640 155 674Q199 708 270 708Q310 708 340 697Q370 686 389.5 669Q409 652 419 630.5Q429 609 429 587Q429 555 411.5 523Q394 491 349 478Q378 462 392.5 436.5Q407 411 407 382Q407 352 393 326.5Q379 301 355.5 283Q332 265 300.5 254.5Q269 244 233 244Z" glyph-name="eightninths" horiz-adv-x="1080" unicode="&#62105;" /><glyph d="M270 536Q284 536 292.5 545.5Q301 555 301 569Q301 580 294 588Q287 596 273 596Q259 596 249 587Q239 578 239 564Q239 553 246.5 544.5Q254 536 270 536ZM244 354Q263 354 272.5 366.5Q282 379 282 393Q282 404 275 414Q268 424 248 424Q229 424 219.5 412.5Q210 401 210 386Q210 375 217.5 364.5Q225 354 244 354ZM237 244Q193 244 162 257.5Q131 271 111.5 291.5Q92 312 83 336Q74 360 74 382Q74 427 100 456.5Q126 486 164 500Q141 513 128 537.5Q115 562 115 585Q115 640 159 674Q203 708 274 708Q314 708 344 697Q374 686 393.5 669Q413 652 423 630.5Q433 609 433 587Q433 555 415.5 523Q398 491 353 478Q382 462 396.5 436.5Q411 411 411 382Q411 352 397 326.5Q383 301 359.5 283Q336 265 304.5 254.5Q273 244 237 244Z" glyph-name="eightsuperior" horiz-adv-x="430" unicode="&#8312;" /><glyph d="M744 100Q744 124 753 144.5Q762 165 777 180Q792 195 812 204Q832 213 855 213Q879 213 900 204Q921 195 936 180Q951 165 960 144.5Q969 124 969 100Q969 77 960 56.5Q951 36 936 21Q921 6 900 -3Q879 -12 855 -12Q832 -12 812 -3Q792 6 777 21Q762 36 753 56.5Q744 77 744 100ZM379 100Q379 124 388 144.5Q397 165 412 180Q427 195 447 204Q467 213 490 213Q514 213 535 204Q556 195 571 180Q586 165 595 144.5Q604 124 604 100Q604 77 595 56.5Q586 36 571 21Q556 6 535 -3Q514 -12 490 -12Q467 -12 447 -3Q427 6 412 21Q397 36 388 56.5Q379 77 379 100ZM14 100Q14 124 23 144.5Q32 165 47 180Q62 195 82 204Q102 213 125 213Q149 213 170 204Q191 195 206 180Q221 165 230 144.5Q239 124 239 100Q239 77 230 56.5Q221 36 206 21Q191 6 170 -3Q149 -12 125 -12Q102 -12 82 -3Q62 6 47 21Q32 36 23 56.5Q14 77 14 100Z" glyph-name="ellipsis" horiz-adv-x="1025" unicode="&#8230;" /><glyph d="M175 675H516L490 525H149ZM274 343Q251 343 230 329.5Q209 316 200 290H337Q335 313 317.5 328Q300 343 274 343ZM506 138Q494 102 470 74.5Q446 47 414 27.5Q382 8 344.5 -2Q307 -12 268 -12Q221 -12 176 3.5Q131 19 96.5 49Q62 79 41 123Q20 167 20 224Q20 282 41.5 330Q63 378 98.5 412Q134 446 180.5 464.5Q227 483 278 483Q335 483 380 463.5Q425 444 456.5 409.5Q488 375 505 327Q522 279 522 223Q522 214 521.5 205Q521 196 520 186H198Q203 166 222.5 154.5Q242 143 262 143Q286 143 303.5 153Q321 163 329 177Z" glyph-name="emacron" horiz-adv-x="538" unicode="&#275;" /><glyph d="M59 348H979L952 189H33Z" glyph-name="emdash" horiz-adv-x="1000" unicode="&#8212;" /><glyph d="M76 444H996L963 260H44Z" glyph-name="emdash.alt" horiz-adv-x="1000" unicode="&#62217;" /><glyph d="M59 348H479L452 189H33Z" glyph-name="endash" horiz-adv-x="500" unicode="&#8211;" /><glyph d="M76 444H496L463 260H44Z" glyph-name="endash.alt" horiz-adv-x="500" unicode="&#62216;" /><glyph d="M334 246Q337 265 334.5 278.5Q332 292 325.5 299.5Q319 307 310.5 310.5Q302 314 294 314Q284 314 274 309.5Q264 305 256 299.5Q248 294 242 288Q236 282 233 279L185 0H5L86 471H266Q262 452 257.5 438.5Q253 425 251 420Q280 452 316.5 467.5Q353 483 386 483Q422 483 451 471.5Q480 460 499 437Q518 414 525.5 380Q533 346 525 301L463 -51Q455 -98 436 -123.5Q417 -149 393 -161Q369 -173 342.5 -175Q316 -177 291 -177H186L213 -20H257Q277 -20 283.5 -14.5Q290 -9 292 2Z" glyph-name="eng" horiz-adv-x="553" unicode="&#331;" /><glyph d="M275 343Q252 343 231 329.5Q210 316 201 290H338Q336 313 318.5 328Q301 343 275 343ZM507 138Q497 107 477.5 82Q458 57 432 38.5Q406 20 375 8Q344 -4 311 -9Q288 -26 280 -41Q272 -56 272 -67Q272 -83 284.5 -90Q297 -97 311 -97Q331 -97 352 -91.5Q373 -86 383 -84L360 -175Q332 -186 302.5 -194.5Q273 -203 234 -203Q182 -203 146.5 -177.5Q111 -152 111 -107Q111 -74 133.5 -47Q156 -20 202 -4Q165 5 132 24Q99 43 74.5 72Q50 101 35.5 139Q21 177 21 224Q21 282 42.5 330Q64 378 99.5 412Q135 446 181.5 464.5Q228 483 279 483Q336 483 381 463.5Q426 444 457.5 409.5Q489 375 506 327Q523 279 523 223Q523 214 522.5 205Q522 196 521 186H199Q204 166 223.5 154.5Q243 143 263 143Q287 143 304.5 153Q322 163 330 177Z" glyph-name="eogonek" horiz-adv-x="540" unicode="&#281;" /><glyph d="M47 327H505L473 143H16ZM88 559H546L514 375H56Z" glyph-name="equal" horiz-adv-x="520" unicode="=" /><glyph d="M83 463H453L423 292H53ZM48 266H418L389 95H20Z" glyph-name="equal.smcp" horiz-adv-x="456" unicode="&#62999;" /><glyph d="M698 375Q707 375 707 384V552Q707 585 680.5 609.5Q654 634 616 650Q578 666 535 674Q492 682 459 682Q429 682 386.5 674Q344 666 305.5 650Q267 634 239.5 609.5Q212 585 212 552V384Q212 375 221 375ZM212 160Q212 128 239 102Q266 76 304.5 58Q343 40 385.5 30Q428 20 459 20Q537 20 606.5 48Q676 76 724 131H771Q717 63 637 26Q557 -11 459 -11Q378 -11 306 17.5Q234 46 180.5 95.5Q127 145 95.5 211Q64 277 64 353Q64 427 95 492.5Q126 558 179 606.5Q232 655 304 683.5Q376 712 459 712Q550 712 623 683Q696 654 748 604.5Q800 555 828 487.5Q856 420 856 344H221Q212 344 212 332Z" glyph-name="estimated" horiz-adv-x="866" unicode="&#8494;" /><glyph d="M266 150Q296 150 321.5 174.5Q347 199 347 248Q347 275 330 298Q313 321 281 321Q251 321 225.5 296Q200 271 200 223Q200 196 217 173Q234 150 266 150ZM388 700Q394 692 400.5 683.5Q407 675 414 664L484 686L506 620L451 603Q468 570 484 532.5Q500 495 512.5 454Q525 413 532.5 370Q540 327 540 284Q540 239 527 187.5Q514 136 482.5 91.5Q451 47 399.5 17.5Q348 -12 271 -12Q217 -12 171.5 6.5Q126 25 93 58Q60 91 41.5 135.5Q23 180 23 231Q23 289 41 334Q59 379 90 410Q121 441 161 457Q201 473 245 473Q292 473 315 460Q338 447 347 439L350 442Q342 455 324.5 483Q307 511 281 550L206 527L185 594L241 611Q227 632 211 654.5Q195 677 178 700Z" glyph-name="eth" horiz-adv-x="558" unicode="&#240;" /><glyph d="M29 100Q29 123 38 143.5Q47 164 62 179.5Q77 195 97.5 204Q118 213 141 213Q165 213 185.5 204Q206 195 221.5 179.5Q237 164 246 143.5Q255 123 255 100Q255 77 246 56.5Q237 36 221.5 21Q206 6 185.5 -3Q165 -12 141 -12Q118 -12 97.5 -3Q77 6 62 21Q47 36 38 56.5Q29 77 29 100ZM70 242 135 700H348L250 242Z" glyph-name="exclam" horiz-adv-x="318" unicode="!" /><glyph d="M109 560H305L224 199H59ZM127 -10Q107 -10 89.5 -2.5Q72 5 58.5 18.5Q45 32 37 50Q29 68 29 89Q29 110 37 128Q45 146 58.5 159.5Q72 173 89.5 181Q107 189 127 189Q148 189 166.5 181Q185 173 198.5 159.5Q212 146 220 128Q228 110 228 89Q228 68 220 50Q212 32 198.5 18.5Q185 5 166.5 -2.5Q148 -10 127 -10Z" glyph-name="exclam.smcp" horiz-adv-x="299" unicode="&#58434;" /><glyph d="M282 371Q282 348 273 327.5Q264 307 249 291.5Q234 276 213.5 267Q193 258 170 258Q146 258 125.5 267Q105 276 89.5 291.5Q74 307 65 327.5Q56 348 56 371Q56 394 65 414.5Q74 435 89.5 450Q105 465 125.5 474Q146 483 170 483Q193 483 213.5 474Q234 465 249 450Q264 435 273 414.5Q282 394 282 371ZM241 229 176 -229H-37L61 229Z" glyph-name="exclamdown" horiz-adv-x="299" unicode="&#161;" /><glyph d="M330 600Q330 577 321 556.5Q312 536 297 520.5Q282 505 261.5 496Q241 487 218 487Q194 487 173.5 496Q153 505 137.5 520.5Q122 536 113 556.5Q104 577 104 600Q104 623 113 643.5Q122 664 137.5 679Q153 694 173.5 703Q194 712 218 712Q241 712 261.5 703Q282 694 297 679Q312 664 321 643.5Q330 623 330 600ZM289 458 224 0H11L109 458Z" glyph-name="exclamdown.alt" horiz-adv-x="316" unicode="&#62214;" /><glyph d="M207 0H11L92 361H257ZM189 570Q209 570 226.5 562.5Q244 555 257.5 541.5Q271 528 279 510Q287 492 287 471Q287 450 279 432Q271 414 257.5 400.5Q244 387 226.5 379Q209 371 189 371Q168 371 149.5 379Q131 387 117.5 400.5Q104 414 96 432Q88 450 88 471Q88 492 96 510Q104 528 117.5 541.5Q131 555 149.5 562.5Q168 570 189 570Z" glyph-name="exclamdown.smcp" horiz-adv-x="299" unicode="&#58435;" /><glyph d="M411 535Q401 536 390 537Q381 538 370.5 539Q360 540 352 540Q340 540 329 535.5Q318 531 316 515L309 471H392L366 312H281L227 0H47L100 312H33L59 471H128L148 580Q161 651 202.5 682.5Q244 714 321 714Q351 714 385.5 711Q420 708 440 706Z" glyph-name="f" horiz-adv-x="366" unicode="f" /><glyph d="M757 535Q747 536 736 537Q727 538 716.5 539Q706 540 698 540Q686 540 675 535.5Q664 531 662 515L655 471H738L712 312H627L573 0H393L446 312H281L227 0H47L100 312H33L59 471H128L148 580Q161 651 202.5 682.5Q244 714 321 714Q351 714 385.5 711Q420 708 440 706L411 535Q401 536 390 537Q381 538 370.5 539Q360 540 352 540Q340 540 329 535.5Q318 531 316 515L309 471H474L494 580Q507 651 548.5 682.5Q590 714 667 714Q697 714 731.5 711Q766 708 786 706Z" glyph-name="f_f" horiz-adv-x="712" unicode="&#64256;" /><glyph d="M1103 535Q1093 536 1082 537Q1073 538 1062.5 539Q1052 540 1044 540Q1032 540 1021 535.5Q1010 531 1008 515L1001 471H1084L1058 312H973L919 0H739L792 312H627L573 0H393L446 312H281L227 0H47L100 312H33L59 471H128L148 580Q161 651 202.5 682.5Q244 714 321 714Q351 714 385.5 711Q420 708 440 706L411 535Q401 536 390 537Q381 538 370.5 539Q360 540 352 540Q340 540 329 535.5Q318 531 316 515L309 471H474L494 580Q507 651 548.5 682.5Q590 714 667 714Q697 714 731.5 711Q766 708 786 706L757 535Q747 536 736 537Q727 538 716.5 539Q706 540 698 540Q686 540 675 535.5Q664 531 662 515L655 471H820L840 580Q853 651 894.5 682.5Q936 714 1013 714Q1043 714 1077.5 711Q1112 708 1132 706Z" glyph-name="f_f_f" horiz-adv-x="1058" unicode="&#62210;" /><glyph d="M464 617Q464 662 494.5 692.5Q525 723 570 723Q615 723 645.5 692.5Q676 662 676 617Q676 572 645.5 541.5Q615 511 570 511Q525 511 494.5 541.5Q464 572 464 617ZM393 0 446 312H281L227 0H47L100 312H33L59 471H128L148 580Q161 651 202.5 682.5Q244 714 321 714Q351 714 385.5 711Q420 708 440 706L411 535Q401 536 390 537Q381 538 370.5 539Q360 540 352 540Q340 540 329 535.5Q318 531 316 515L309 471H654L573 0Z" glyph-name="f_i" horiz-adv-x="657" unicode="&#62209;" /><glyph d="M464 617Q464 662 494.5 692.5Q525 723 570 723Q615 723 645.5 692.5Q676 662 676 617Q676 572 645.5 541.5Q615 511 570 511Q525 511 494.5 541.5Q464 572 464 617ZM446 312H281L227 0H47L100 312H33L59 471H128L148 580Q161 651 202.5 682.5Q244 714 321 714Q351 714 385.5 711Q420 708 440 706L411 535Q401 536 390 537Q381 538 370.5 539Q360 540 352 540Q340 540 329 535.5Q318 531 316 515L309 471H654L564 -51Q556 -98 537.5 -123.5Q519 -149 495 -161Q471 -173 444.5 -175Q418 -177 393 -177H288L315 -20H358Q378 -20 384.5 -14.5Q391 -9 393 2Z" glyph-name="f_j" horiz-adv-x="657" unicode="&#58247;" /><glyph d="M750 535Q740 536 729 537Q720 538 709.5 539Q699 540 691 540Q679 540 668 535.5Q657 531 655 515L648 471H731L705 312H620L566 0H386L439 312H281L227 0H47L100 312H33L59 471H128L148 580Q161 651 202.5 682.5Q244 714 321 714Q351 714 385.5 711Q420 708 440 706L411 535Q401 536 390 537Q381 538 370.5 539Q360 540 352 540Q340 540 329 535.5Q318 531 316 515L309 471H467L487 580Q500 651 541.5 682.5Q583 714 660 714Q690 714 724.5 711Q759 708 779 706Z" glyph-name="ff" horiz-adv-x="705" unicode="&#58249;" /><glyph d="M810 617Q810 662 840.5 692.5Q871 723 916 723Q961 723 991.5 692.5Q1022 662 1022 617Q1022 572 991.5 541.5Q961 511 916 511Q871 511 840.5 541.5Q810 572 810 617ZM739 0 792 312H627L573 0H393L446 312H281L227 0H47L100 312H33L59 471H128L148 580Q161 651 202.5 682.5Q244 714 321 714Q351 714 385.5 711Q420 708 440 706L411 535Q401 536 390 537Q381 538 370.5 539Q360 540 352 540Q340 540 329 535.5Q318 531 316 515L309 471H474L494 580Q507 651 548.5 682.5Q590 714 667 714Q697 714 731.5 711Q766 708 786 706L757 535Q747 536 736 537Q727 538 716.5 539Q706 540 698 540Q686 540 675 535.5Q664 531 662 515L655 471H1000L919 0Z" glyph-name="ffi" horiz-adv-x="1003" unicode="&#64259;" /><glyph d="M905 0H725L778 312H620L566 0H386L439 312H281L227 0H47L100 312H33L59 471H128L148 580Q161 651 202.5 682.5Q244 714 321 714Q351 714 385.5 711Q420 708 440 706L411 535Q401 536 390 537Q381 538 370.5 539Q360 540 352 540Q340 540 329 535.5Q318 531 316 515L309 471H467L487 580Q500 651 541.5 682.5Q583 714 660 714Q690 714 724.5 711Q759 708 779 706L750 535Q740 536 729 537Q720 538 709.5 539Q699 540 691 540Q679 540 668 535.5Q657 531 655 515L648 471H805L844 700H1026Z" glyph-name="ffl" horiz-adv-x="990" unicode="&#58251;" /><glyph d="M464 617Q464 662 494.5 692.5Q525 723 570 723Q615 723 645.5 692.5Q676 662 676 617Q676 572 645.5 541.5Q615 511 570 511Q525 511 494.5 541.5Q464 572 464 617ZM393 0 446 312H281L227 0H47L100 312H33L59 471H128L148 580Q161 651 202.5 682.5Q244 714 321 714Q351 714 385.5 711Q420 708 440 706L411 535Q401 536 390 537Q381 538 370.5 539Q360 540 352 540Q340 540 329 535.5Q318 531 316 515L309 471H654L573 0Z" glyph-name="fi" horiz-adv-x="657" unicode="&#64257;" /><glyph d="M236 239Q232 218 231.5 209.5Q231 201 231 196Q231 182 236.5 169Q242 156 266 156Q296 156 310.5 184.5Q325 213 325 255Q325 275 315.5 292Q306 309 280 309Q266 309 250 302.5Q234 296 225 286L65 327L135 700H585L549 521H279L266 453L269 452Q283 460 304.5 463.5Q326 467 338 467Q385 467 422.5 452Q460 437 486 410.5Q512 384 525.5 346.5Q539 309 539 264Q539 214 522 164.5Q505 115 470.5 76Q436 37 384.5 12.5Q333 -12 263 -12Q197 -12 151 3.5Q105 19 76.5 46Q48 73 35 110Q22 147 22 191Q22 200 22 211Q22 222 25 239Z" glyph-name="five" horiz-adv-x="560" unicode="5" /><glyph d="M238 239Q234 218 233.5 209.5Q233 201 233 196Q233 182 238.5 169Q244 156 268 156Q298 156 312.5 184.5Q327 213 327 255Q327 275 317.5 292Q308 309 282 309Q268 309 252 302.5Q236 296 227 286L67 327L137 700H587L551 521H281L268 453L271 452Q285 460 306.5 463.5Q328 467 340 467Q387 467 424.5 452Q462 437 488 410.5Q514 384 527.5 346.5Q541 309 541 264Q541 214 524 164.5Q507 115 472.5 76Q438 37 386.5 12.5Q335 -12 265 -12Q199 -12 153 3.5Q107 19 78.5 46Q50 73 37 110Q24 147 24 191Q24 200 24 211Q24 222 27 239Z" glyph-name="five.alt" horiz-adv-x="564" unicode="&#62023;" /><glyph d="M211 -26Q228 -26 241.5 -18Q255 -10 264 3.5Q273 17 277.5 34Q282 51 282 69Q282 90 270 110Q258 130 228 130Q214 130 200.5 123.5Q187 117 180 111L23 144L87 499H502L472 336H215L201 253Q207 258 217.5 262.5Q228 267 240 270.5Q252 274 264.5 276Q277 278 287 278Q332 278 366 262.5Q400 247 423 220.5Q446 194 457.5 159Q469 124 469 86Q469 30 449.5 -17.5Q430 -65 395 -100Q360 -135 311.5 -154.5Q263 -174 204 -174Q148 -174 107 -159.5Q66 -145 40 -119.5Q14 -94 1.5 -60Q-11 -26 -11 14Q-11 26 -10 35Q-9 44 -7 57H163Q159 43 158.5 36.5Q158 30 158 26Q158 7 168.5 -9.5Q179 -26 211 -26Z" glyph-name="five.posf" horiz-adv-x="514" unicode="&#62039;" /><glyph d="M155 -105Q172 -105 179.5 -89Q187 -73 187 -48Q187 -38 181.5 -28.5Q176 -19 162 -19Q154 -19 144 -23Q134 -27 129 -32L22 -4L67 237H363L338 123H164L155 81L157 80Q167 85 177.5 87.5Q188 90 203 90Q264 90 298.5 53.5Q333 17 333 -42Q333 -72 322 -103Q311 -134 288.5 -160Q266 -186 231.5 -202.5Q197 -219 149 -219Q115 -219 86.5 -211Q58 -203 37 -187Q16 -171 4.5 -147Q-7 -123 -7 -90Q-7 -75 -4 -58H139Q138 -62 137 -68Q136 -74 136 -81Q136 -90 140 -97.5Q144 -105 155 -105Z" glyph-name="five.sinf" horiz-adv-x="430" unicode="&#62071;" /><glyph d="M226 -10Q184 -10 147 0Q110 10 83 30.5Q56 51 40.5 82Q25 113 25 154Q25 164 26 173.5Q27 183 29 194H220Q218 190 216 182.5Q214 175 214 167Q214 158 217.5 151Q221 144 231 144Q248 144 256 161Q264 178 264 204Q264 212 259 222.5Q254 233 241 233Q232 233 220.5 229Q209 225 203 218L58 257L115 560H495L461 397H247L241 364L243 363Q249 367 257.5 369.5Q266 372 274.5 373.5Q283 375 289.5 376Q296 377 299 377Q342 377 373 362Q404 347 423 323Q442 299 451 270Q460 241 460 213Q460 176 446.5 136.5Q433 97 404.5 64.5Q376 32 331.5 11Q287 -10 226 -10Z" glyph-name="five.smcp" horiz-adv-x="500" unicode="&#58432;" /><glyph d="M261 494Q278 494 285.5 510Q293 526 293 551Q293 561 287.5 570.5Q282 580 268 580Q260 580 250 576Q240 572 235 567L128 595L173 836H469L444 722H270L261 680L263 679Q273 684 283.5 686.5Q294 689 309 689Q370 689 404.5 652.5Q439 616 439 557Q439 527 428 496Q417 465 394.5 439Q372 413 337.5 396.5Q303 380 255 380Q221 380 192.5 388Q164 396 143 412Q122 428 110.5 452Q99 476 99 509Q99 524 102 541H245Q244 537 243 531Q242 525 242 518Q242 509 246 501.5Q250 494 261 494Z" glyph-name="five.sups" horiz-adv-x="430" unicode="&#62055;" /><glyph d="M891 284Q905 284 913.5 293.5Q922 303 922 317Q922 328 915 336Q908 344 894 344Q880 344 870 335Q860 326 860 312Q860 301 867.5 292.5Q875 284 891 284ZM865 102Q884 102 893.5 114.5Q903 127 903 141Q903 152 896 162Q889 172 869 172Q850 172 840.5 160.5Q831 149 831 134Q831 123 838.5 112.5Q846 102 865 102ZM858 -8Q814 -8 783 5.5Q752 19 732.5 39.5Q713 60 704 84Q695 108 695 130Q695 175 721 204.5Q747 234 785 248Q762 261 749 285.5Q736 310 736 333Q736 388 780 422Q824 456 895 456Q935 456 965 445Q995 434 1014.5 417Q1034 400 1044 378.5Q1054 357 1054 335Q1054 303 1036.5 271Q1019 239 974 226Q1003 210 1017.5 184.5Q1032 159 1032 130Q1032 100 1018 74.5Q1004 49 980.5 31Q957 13 925.5 2.5Q894 -8 858 -8ZM252 358Q269 358 276.5 374Q284 390 284 415Q284 425 278.5 434.5Q273 444 259 444Q251 444 241 440Q231 436 226 431L119 459L164 700H460L435 586H261L252 544L254 543Q264 548 274.5 550.5Q285 553 300 553Q361 553 395.5 516.5Q430 480 430 421Q430 391 419 360Q408 329 385.5 303Q363 277 328.5 260.5Q294 244 246 244Q212 244 183.5 252Q155 260 134 276Q113 292 101.5 316Q90 340 90 373Q90 388 93 405H236Q235 401 234 395Q233 389 233 382Q233 373 237 365.5Q241 358 252 358ZM992 686 193 -37 145 18 944 741Z" glyph-name="fiveeighths" horiz-adv-x="1080" unicode="&#8541;" /><glyph d="M195 106Q212 106 219.5 122Q227 138 227 163Q227 173 221.5 182.5Q216 192 202 192Q194 192 184 188Q174 184 169 179L62 207L107 448H403L378 334H204L195 292L197 291Q207 296 217.5 298.5Q228 301 243 301Q304 301 338.5 264.5Q373 228 373 169Q373 139 362 108Q351 77 328.5 51Q306 25 271.5 8.5Q237 -8 189 -8Q155 -8 126.5 0Q98 8 77 24Q56 40 44.5 64Q33 88 33 121Q33 136 36 153H179Q178 149 177 143Q176 137 176 130Q176 121 180 113.5Q184 106 195 106Z" glyph-name="fiveinferior" horiz-adv-x="430" unicode="&#8325;" /><glyph d="M882 261Q902 261 912.5 275.5Q923 290 924 307Q924 322 914.5 332Q905 342 888 342Q871 342 859 328.5Q847 315 847 298Q847 281 856 271Q865 261 882 261ZM692 0Q693 1 717 18.5Q741 36 772.5 61.5Q804 87 837 115.5Q870 144 891 167L885 169Q883 168 872.5 164.5Q862 161 845 161Q821 161 797.5 170Q774 179 756 196.5Q738 214 727 239.5Q716 265 716 298Q716 332 729.5 361Q743 390 766.5 411Q790 432 820.5 444Q851 456 886 456Q928 456 960.5 441.5Q993 427 1015 403Q1037 379 1048 348Q1059 317 1059 284Q1059 241 1044 203Q1029 165 1004.5 130Q980 95 947.5 62.5Q915 30 879 0ZM992 686 193 -37 145 18 944 741ZM252 358Q269 358 276.5 374Q284 390 284 415Q284 425 278.5 434.5Q273 444 259 444Q251 444 241 440Q231 436 226 431L119 459L164 700H460L435 586H261L252 544L254 543Q264 548 274.5 550.5Q285 553 300 553Q361 553 395.5 516.5Q430 480 430 421Q430 391 419 360Q408 329 385.5 303Q363 277 328.5 260.5Q294 244 246 244Q212 244 183.5 252Q155 260 134 276Q113 292 101.5 316Q90 340 90 373Q90 388 93 405H236Q235 401 234 395Q233 389 233 382Q233 373 237 365.5Q241 358 252 358Z" glyph-name="fiveninths" horiz-adv-x="1080" unicode="&#62103;" /><glyph d="M935 327H758L778 448H1106L1083 329L900 0H731ZM992 686 193 -37 145 18 944 741ZM252 358Q269 358 276.5 374Q284 390 284 415Q284 425 278.5 434.5Q273 444 259 444Q251 444 241 440Q231 436 226 431L119 459L164 700H460L435 586H261L252 544L254 543Q264 548 274.5 550.5Q285 553 300 553Q361 553 395.5 516.5Q430 480 430 421Q430 391 419 360Q408 329 385.5 303Q363 277 328.5 260.5Q294 244 246 244Q212 244 183.5 252Q155 260 134 276Q113 292 101.5 316Q90 340 90 373Q90 388 93 405H236Q235 401 234 395Q233 389 233 382Q233 373 237 365.5Q241 358 252 358Z" glyph-name="fivesevenths" horiz-adv-x="1080" unicode="&#62098;" /><glyph d="M242 358Q259 358 266.5 374Q274 390 274 415Q274 425 268.5 434.5Q263 444 249 444Q241 444 231 440Q221 436 216 431L109 459L154 700H450L425 586H251L242 544L244 543Q254 548 264.5 550.5Q275 553 290 553Q351 553 385.5 516.5Q420 480 420 421Q420 391 409 360Q398 329 375.5 303Q353 277 318.5 260.5Q284 244 236 244Q202 244 173.5 252Q145 260 124 276Q103 292 91.5 316Q80 340 80 373Q80 388 83 405H226Q225 401 224 395Q223 389 223 382Q223 373 227 365.5Q231 358 242 358ZM857 106Q874 106 886 119.5Q898 133 898 150Q898 167 889 177Q880 187 863 187Q843 187 832.5 172.5Q822 158 821 141Q821 126 830.5 116Q840 106 857 106ZM858 -8Q816 -8 784 6.5Q752 21 730.5 45Q709 69 698 100Q687 131 687 164Q687 207 701.5 245Q716 283 741 318Q766 353 798 385.5Q830 418 866 448H1054Q1052 447 1028.5 429.5Q1005 412 973 386.5Q941 361 908 332.5Q875 304 854 281L860 279Q862 280 873 283.5Q884 287 901 287Q925 287 948.5 278Q972 269 990 251.5Q1008 234 1019 209Q1030 184 1030 151Q1030 117 1016 88Q1002 59 978.5 37.5Q955 16 923.5 4Q892 -8 858 -8ZM992 686 193 -37 145 18 944 741Z" glyph-name="fivesixths" horiz-adv-x="1080" unicode="&#62087;" /><glyph d="M239 358Q256 358 263.5 374Q271 390 271 415Q271 425 265.5 434.5Q260 444 246 444Q238 444 228 440Q218 436 213 431L106 459L151 700H447L422 586H248L239 544L241 543Q251 548 261.5 550.5Q272 553 287 553Q348 553 382.5 516.5Q417 480 417 421Q417 391 406 360Q395 329 372.5 303Q350 277 315.5 260.5Q281 244 233 244Q199 244 170.5 252Q142 260 121 276Q100 292 88.5 316Q77 340 77 373Q77 388 80 405H223Q222 401 221 395Q220 389 220 382Q220 373 224 365.5Q228 358 239 358Z" glyph-name="fivesuperior" horiz-adv-x="430" unicode="&#8309;" /><glyph d="M550 0H370L423 312H281L227 0H47L100 312H33L59 471H128L148 580Q161 651 202.5 682.5Q244 714 321 714Q351 714 385.5 711Q420 708 440 706L411 535Q401 536 390 537Q381 538 370.5 539Q360 540 352 540Q340 540 329 535.5Q318 531 316 515L309 471H450L489 700H671Z" glyph-name="fl" horiz-adv-x="635" unicode="&#64258;" /><glyph d="M188 567Q192 593 201.5 617.5Q211 642 228 660.5Q245 679 271 690.5Q297 702 335 702H506L472 516H423Q395 516 382.5 507.5Q370 499 365 473L346 366H425L394 192H316L276 -41Q271 -67 262 -91.5Q253 -116 236 -134.5Q219 -153 193 -164.5Q167 -176 129 -176H-42L-8 10H41Q69 10 81.5 18.5Q94 27 99 53L123 192H51L82 366H153Z" glyph-name="florin" horiz-adv-x="443" unicode="&#402;" /><glyph d="M-5 31H40Q64 31 70.5 38Q77 45 80 63L95 146H41L70 306H122L148 454Q152 475 159.5 494.5Q167 514 180.5 529Q194 544 215 553Q236 562 266 562H424L392 391H348Q324 391 317.5 383.5Q311 376 308 359L298 306H360L331 146H271L240 -33Q236 -54 228.5 -73.5Q221 -93 207.5 -108Q194 -123 173 -132Q152 -141 122 -141H-36Z" glyph-name="florin.smcp" horiz-adv-x="402" unicode="&#61840;" /><glyph d="M291 309 322 473 195 309ZM559 700 486 309H556L525 139H456L430 0H235L261 139H-13L16 312L316 700Z" glyph-name="four" horiz-adv-x="560" unicode="4" /><glyph d="M306 309 337 473 210 309ZM574 700 501 309H571L540 139H471L445 0H250L276 139H2L31 312L331 700Z" glyph-name="four.alt" horiz-adv-x="590" unicode="&#62022;" /><glyph d="M286 348 138 149H248L289 348ZM0 157 258 499H482L420 149H494L468 0H394L367 -150H195L222 0H-27Z" glyph-name="four.posf" horiz-adv-x="525" unicode="&#62038;" /><glyph d="M103 -10H171L193 95ZM-16 -8 192 239H349L303 -10H347L325 -125H282L266 -209H134L150 -125H-36Z" glyph-name="four.sinf" horiz-adv-x="430" unicode="&#62070;" /><glyph d="M243 253 262 348 184 253ZM216 97H-4L23 256L263 560H479L421 253H471L443 97H393L375 0H197Z" glyph-name="four.smcp" horiz-adv-x="500" unicode="&#58431;" /><glyph d="M208 589H276L298 694ZM89 591 297 838H454L408 589H452L430 474H387L371 390H239L255 474H69Z" glyph-name="four.sups" horiz-adv-x="430" unicode="&#62054;" /><glyph d="M851 106Q868 106 875.5 122Q883 138 883 163Q883 173 877.5 182.5Q872 192 858 192Q850 192 840 188Q830 184 825 179L718 207L763 448H1059L1034 334H860L851 292L853 291Q863 296 873.5 298.5Q884 301 899 301Q960 301 994.5 264.5Q1029 228 1029 169Q1029 139 1018 108Q1007 77 984.5 51Q962 25 927.5 8.5Q893 -8 845 -8Q811 -8 782.5 0Q754 8 733 24Q712 40 700.5 64Q689 88 689 121Q689 136 692 153H835Q834 149 833 143Q832 137 832 130Q832 121 836 113.5Q840 106 851 106ZM992 686 193 -37 145 18 944 741ZM160 451H228L250 556ZM41 453 249 700H406L360 451H404L382 336H339L323 252H191L207 336H21Z" glyph-name="fourfifths" horiz-adv-x="1080" unicode="&#62085;" /><glyph d="M140 199H208L230 304ZM21 201 229 448H386L340 199H384L362 84H319L303 0H171L187 84H1Z" glyph-name="fourinferior" horiz-adv-x="430" unicode="&#8324;" /><glyph d="M882 261Q902 261 912.5 275.5Q923 290 924 307Q924 322 914.5 332Q905 342 888 342Q871 342 859 328.5Q847 315 847 298Q847 281 856 271Q865 261 882 261ZM692 0Q693 1 717 18.5Q741 36 772.5 61.5Q804 87 837 115.5Q870 144 891 167L885 169Q883 168 872.5 164.5Q862 161 845 161Q821 161 797.5 170Q774 179 756 196.5Q738 214 727 239.5Q716 265 716 298Q716 332 729.5 361Q743 390 766.5 411Q790 432 820.5 444Q851 456 886 456Q928 456 960.5 441.5Q993 427 1015 403Q1037 379 1048 348Q1059 317 1059 284Q1059 241 1044 203Q1029 165 1004.5 130Q980 95 947.5 62.5Q915 30 879 0ZM992 686 193 -37 145 18 944 741ZM160 451H228L250 556ZM41 453 249 700H406L360 451H404L382 336H339L323 252H191L207 336H21Z" glyph-name="fourninths" horiz-adv-x="1080" unicode="&#62102;" /><glyph d="M935 327H758L778 448H1106L1083 329L900 0H731ZM160 451H228L250 556ZM41 453 249 700H406L360 451H404L382 336H339L323 252H191L207 336H21ZM992 686 193 -37 145 18 944 741Z" glyph-name="foursevenths" horiz-adv-x="1080" unicode="&#62097;" /><glyph d="M184 451H252L274 556ZM65 453 273 700H430L384 451H428L406 336H363L347 252H215L231 336H45Z" glyph-name="foursuperior" horiz-adv-x="430" unicode="&#8308;" /><glyph d="M554 686 -245 -37 -293 18 506 741Z" glyph-name="fraction" horiz-adv-x="220" unicode="&#8260;" /><glyph d="M205 236Q205 210 222 188.5Q239 167 271 167Q301 167 326.5 190.5Q352 214 352 260Q352 286 335 307Q318 328 286 328Q256 328 230.5 305Q205 282 205 236ZM401 471H581L496 -31Q491 -59 480 -85Q469 -111 449.5 -131.5Q430 -152 399.5 -164.5Q369 -177 326 -177H110L136 -20H284Q298 -20 308.5 -15Q319 -10 322 8L336 87Q324 66 306 50Q290 36 265.5 25Q241 14 207 14Q168 14 134.5 29Q101 44 76 71.5Q51 99 37 137Q23 175 23 221Q23 281 43 329Q63 377 95.5 411Q128 445 170 463Q212 481 257 481Q288 481 311 473Q334 465 350.5 454Q367 443 376.5 431Q386 419 391 411Z" glyph-name="g" horiz-adv-x="586" unicode="g" /><glyph d="M390 700H517L510 658Q497 580 451 545Q405 510 339 510Q307 510 278.5 520.5Q250 531 229.5 551Q209 571 199 600.5Q189 630 194 669L198 700H321L318 678Q315 658 324 646.5Q333 635 349 635Q380 635 386 675ZM205 236Q205 210 222 188.5Q239 167 271 167Q301 167 326.5 190.5Q352 214 352 260Q352 286 335 307Q318 328 286 328Q256 328 230.5 305Q205 282 205 236ZM401 471H581L496 -31Q491 -59 480 -85Q469 -111 449.5 -131.5Q430 -152 399.5 -164.5Q369 -177 326 -177H110L136 -20H284Q298 -20 308.5 -15Q319 -10 322 8L336 87Q324 66 306 50Q290 36 265.5 25Q241 14 207 14Q168 14 134.5 29Q101 44 76 71.5Q51 99 37 137Q23 175 23 221Q23 281 43 329Q63 377 95.5 411Q128 445 170 463Q212 481 257 481Q288 481 311 473Q334 465 350.5 454Q367 443 376.5 431Q386 419 391 411Z" glyph-name="gbreve" horiz-adv-x="586" unicode="&#287;" /><glyph d="M365 581 328 523H150L290 700H466L544 523H388ZM205 236Q205 210 222 188.5Q239 167 271 167Q301 167 326.5 190.5Q352 214 352 260Q352 286 335 307Q318 328 286 328Q256 328 230.5 305Q205 282 205 236ZM401 471H581L496 -31Q491 -59 480 -85Q469 -111 449.5 -131.5Q430 -152 399.5 -164.5Q369 -177 326 -177H110L136 -20H284Q298 -20 308.5 -15Q319 -10 322 8L336 87Q324 66 306 50Q290 36 265.5 25Q241 14 207 14Q168 14 134.5 29Q101 44 76 71.5Q51 99 37 137Q23 175 23 221Q23 281 43 329Q63 377 95.5 411Q128 445 170 463Q212 481 257 481Q288 481 311 473Q334 465 350.5 454Q367 443 376.5 431Q386 419 391 411Z" glyph-name="gcircumflex" horiz-adv-x="586" unicode="&#285;" /><glyph d="M436 762 396 691Q420 662 420 626Q420 607 412.5 589Q405 571 392 557.5Q379 544 360.5 536Q342 528 321 528Q299 528 280 536.5Q261 545 247 559Q233 573 225 591Q217 609 217 628Q217 673 257 719L339 814ZM205 236Q205 210 222 188.5Q239 167 271 167Q301 167 326.5 190.5Q352 214 352 260Q352 286 335 307Q318 328 286 328Q256 328 230.5 305Q205 282 205 236ZM401 471H581L496 -31Q491 -59 480 -85Q469 -111 449.5 -131.5Q430 -152 399.5 -164.5Q369 -177 326 -177H110L136 -20H284Q298 -20 308.5 -15Q319 -10 322 8L336 87Q324 66 306 50Q290 36 265.5 25Q241 14 207 14Q168 14 134.5 29Q101 44 76 71.5Q51 99 37 137Q23 175 23 221Q23 281 43 329Q63 377 95.5 411Q128 445 170 463Q212 481 257 481Q288 481 311 473Q334 465 350.5 454Q367 443 376.5 431Q386 419 391 411Z" glyph-name="gcommaaccent" horiz-adv-x="586" unicode="&#291;" /><glyph d="M322 520Q303 520 286 527.5Q269 535 256 548Q243 561 235 578Q227 595 227 614Q227 633 235 650Q243 667 256 680Q269 693 286 700.5Q303 708 322 708Q341 708 358 700.5Q375 693 388 680Q401 667 409 650Q417 633 417 614Q417 595 409 578Q401 561 388 548Q375 535 358 527.5Q341 520 322 520ZM205 236Q205 210 222 188.5Q239 167 271 167Q301 167 326.5 190.5Q352 214 352 260Q352 286 335 307Q318 328 286 328Q256 328 230.5 305Q205 282 205 236ZM401 471H581L496 -31Q491 -59 480 -85Q469 -111 449.5 -131.5Q430 -152 399.5 -164.5Q369 -177 326 -177H110L136 -20H284Q298 -20 308.5 -15Q319 -10 322 8L336 87Q324 66 306 50Q290 36 265.5 25Q241 14 207 14Q168 14 134.5 29Q101 44 76 71.5Q51 99 37 137Q23 175 23 221Q23 281 43 329Q63 377 95.5 411Q128 445 170 463Q212 481 257 481Q288 481 311 473Q334 465 350.5 454Q367 443 376.5 431Q386 419 391 411Z" glyph-name="gdotaccent" horiz-adv-x="586" unicode="&#289;" /><glyph d="M89 491Q97 538 115 578.5Q133 619 163.5 648.5Q194 678 238 695Q282 712 341 712Q398 712 438.5 694Q479 676 505 647.5Q531 619 543 584Q555 549 555 515Q555 473 541 442Q527 411 510.5 388Q494 365 480 348.5Q466 332 466 320Q466 308 475.5 291Q485 274 496 251.5Q507 229 516.5 202Q526 175 526 144Q526 110 513 81.5Q500 53 476.5 32Q453 11 420 -0.5Q387 -12 348 -12Q339 -12 323.5 -10.5Q308 -9 290 -6Q272 -3 254.5 1Q237 5 225 11L257 160Q268 155 279.5 153Q291 151 301 151Q321 151 329 161.5Q337 172 337 186Q337 200 328.5 214Q320 228 309.5 244Q299 260 290.5 277.5Q282 295 282 315Q282 341 296.5 366Q311 391 328.5 414.5Q346 438 360.5 459.5Q375 481 375 499Q375 516 363 528.5Q351 541 334 541Q317 541 299.5 528Q282 515 277 483L193 0H5Z" glyph-name="germandbls" horiz-adv-x="560" unicode="&#223;" /><glyph d="M317 523H148L42 700H266Z" glyph-name="grave" horiz-adv-x="278" unicode="`" /><glyph d="M304 605H151L54 730H256Z" glyph-name="grave.smcp" horiz-adv-x="400" unicode="&#63328;" /><glyph d="M53 260 85 448H419L343 583L490 707L739 341L400 -1L255 121L380 260Z" glyph-name="greater" horiz-adv-x="746" unicode="&gt;" /><glyph d="M55 252 387 347 89 449 120 623 549 460 507 218 21 56Z" glyph-name="greater.alt" horiz-adv-x="540" unicode="&#62550;" /><glyph d="M215 96 302 198H61L89 364H336L290 460L419 570L616 270L346 -10Z" glyph-name="greater.smcp" horiz-adv-x="670" unicode="&#62007;" /><glyph d="M25 184H482L450 0H-7ZM62 395 394 490 96 592 127 766 556 603 514 361 28 199Z" glyph-name="greaterequal" horiz-adv-x="520" unicode="&#8805;" /><glyph d="M39 170H40L68 336L332 413L95 491L125 658L471 526L432 300L43 170H409L379 0H9Z" glyph-name="greaterequal.smcp" horiz-adv-x="456" unicode="&#62009;" /><glyph d="M287 236 446 442H646L489 238L567 32H388ZM28 236 187 442H387L230 238L308 32H129Z" glyph-name="guillemotleft" horiz-adv-x="639" unicode="&#171;" /><glyph d="M316 354 475 560H675L518 356L596 150H417ZM57 354 216 560H416L259 356L337 150H158Z" glyph-name="guillemotleft.alt" horiz-adv-x="661" unicode="&#62224;" /><glyph d="M264 266 398 443H579L447 270L513 94H349ZM37 266 171 443H353L220 270L286 94H123Z" glyph-name="guillemotleft.smcp" horiz-adv-x="593" unicode="&#62993;" /><glyph d="M459 32H261L419 237L327 442H504L620 240ZM201 32H3L159 237L66 442H245L361 240Z" glyph-name="guillemotright" horiz-adv-x="647" unicode="&#187;" /><glyph d="M493 150H295L453 355L361 560H538L654 358ZM235 150H37L193 355L100 560H279L395 358Z" glyph-name="guillemotright.alt" horiz-adv-x="667" unicode="&#62225;" /><glyph d="M394 268 314 443H475L576 273L440 94H261ZM166 268 85 443H248L350 273L215 94H35Z" glyph-name="guillemotright.smcp" horiz-adv-x="599" unicode="&#62994;" /><glyph d="M189 442H390L234 238L314 32H137L30 250Z" glyph-name="guilsinglleft" horiz-adv-x="384" unicode="&#8249;" /><glyph d="M214 560H415L259 356L339 150H162L55 368Z" glyph-name="guilsinglleft.alt" horiz-adv-x="403" unicode="&#62226;" /><glyph d="M39 281 173 443H356L225 270L291 94H132Z" glyph-name="guilsinglleft.smcp" horiz-adv-x="370" unicode="&#62992;" /><glyph d="M201 32H2L156 240L66 442H244L361 240Z" glyph-name="guilsinglright" horiz-adv-x="388" unicode="&#8250;" /><glyph d="M235 150H36L190 358L100 560H278L395 358Z" glyph-name="guilsinglright.alt" horiz-adv-x="408" unicode="&#62227;" /><glyph d="M163 271 85 443H247L350 273L215 94H34Z" glyph-name="guilsinglright.smcp" horiz-adv-x="373" unicode="&#62995;" /><glyph d="M5 0 126 700H306L265 462Q263 449 258.5 436Q254 423 252 420Q281 452 317.5 467.5Q354 483 387 483Q423 483 452 471.5Q481 460 500 437Q519 414 526 380Q533 346 526 301L472 0H292L334 246Q337 265 334.5 278.5Q332 292 325.5 299.5Q319 307 310.5 310.5Q302 314 294 314Q284 314 274 309.5Q264 305 256 299.5Q248 294 242 288Q236 282 233 279L185 0Z" glyph-name="h" horiz-adv-x="554" unicode="h" /><glyph d="M62 664H120L126 700H306L300 664H396L372 529H276L265 462Q263 449 258.5 436Q254 423 252 420Q281 452 317.5 467.5Q354 483 387 483Q423 483 452 471.5Q481 460 500 437Q519 414 526 380Q533 346 526 301L472 0H292L334 246Q337 265 334.5 278.5Q332 292 325.5 299.5Q319 307 310.5 310.5Q302 314 294 314Q284 314 274 309.5Q264 305 256 299.5Q248 294 242 288Q236 282 233 279L185 0H5L96 529H39Z" glyph-name="hbar" horiz-adv-x="554" unicode="&#295;" /><glyph d="M381 810 344 752H166L306 929H482L560 752H404ZM5 0 126 700H306L265 462Q263 449 258.5 436Q254 423 252 420Q281 452 317.5 467.5Q354 483 387 483Q423 483 452 471.5Q481 460 500 437Q519 414 526 380Q533 346 526 301L472 0H292L334 246Q337 265 334.5 278.5Q332 292 325.5 299.5Q319 307 310.5 310.5Q302 314 294 314Q284 314 274 309.5Q264 305 256 299.5Q248 294 242 288Q236 282 233 279L185 0Z" glyph-name="hcircumflex" horiz-adv-x="554" unicode="&#293;" /><glyph d="M354 700H563L435 523H282ZM132 700H341L212 523H59Z" glyph-name="hungarumlaut" horiz-adv-x="500" unicode="&#733;" /><glyph d="M235 730H437L334 605H181ZM17 730H219L116 605H-36Z" glyph-name="hungarumlaut.smcp" horiz-adv-x="400" unicode="&#63224;" /><glyph d="M19 348H269L240 178H-9Z" glyph-name="hyphen" horiz-adv-x="250" unicode="-" /><glyph d="M46 444H276L243 260H14Z" glyph-name="hyphen.alt" horiz-adv-x="250" unicode="&#62215;" /><glyph d="M108 617Q108 662 138.5 692.5Q169 723 214 723Q259 723 289.5 692.5Q320 662 320 617Q320 572 289.5 541.5Q259 511 214 511Q169 511 138.5 541.5Q108 572 108 617ZM37 0 90 312H34L61 471H298L217 0Z" glyph-name="i" horiz-adv-x="302" unicode="i" /><glyph d="M108 617Q108 662 138.5 692.5Q169 723 214 723Q259 723 289.5 692.5Q320 662 320 617Q320 572 289.5 541.5Q259 511 214 511Q169 511 138.5 541.5Q108 572 108 617ZM37 0 90 312H34L61 471H298L217 0Z" glyph-name="i.locl" horiz-adv-x="302" unicode="&#62212;" /><glyph d="M184 700H409L283 523H114ZM37 0 90 312H34L61 471H298L217 0Z" glyph-name="iacute" horiz-adv-x="302" unicode="&#237;" /><glyph d="M259 700H386L379 658Q366 580 320 545Q274 510 208 510Q176 510 147.5 520.5Q119 531 98.5 551Q78 571 68 600.5Q58 630 63 669L67 700H190L187 678Q184 658 193 646.5Q202 635 218 635Q249 635 255 675ZM37 0 90 312H34L61 471H298L217 0Z" glyph-name="ibreve" horiz-adv-x="302" unicode="&#301;" /><glyph d="M216 581 179 523H1L141 700H317L395 523H239ZM37 0 90 312H34L61 471H298L217 0Z" glyph-name="icircumflex" horiz-adv-x="302" unicode="&#238;" /><glyph d="M321 520Q302 520 285 527.5Q268 535 255 548Q242 561 234 578Q226 595 226 614Q226 633 234 650Q242 667 255 680Q268 693 285 700.5Q302 708 321 708Q340 708 357 700.5Q374 693 387 680Q400 667 408 650Q416 633 416 614Q416 595 408 578Q400 561 387 548Q374 535 357 527.5Q340 520 321 520ZM113 520Q94 520 77 527.5Q60 535 47 548Q34 561 26 578Q18 595 18 614Q18 633 26 650Q34 667 47 680Q60 693 77 700.5Q94 708 113 708Q132 708 149 700.5Q166 693 179 680Q192 667 200 650Q208 633 208 614Q208 595 200 578Q192 561 179 548Q166 535 149 527.5Q132 520 113 520ZM37 0 90 312H34L61 471H298L217 0Z" glyph-name="idieresis" horiz-adv-x="302" unicode="&#239;" /><glyph d="M287 523H118L12 700H236ZM37 0 90 312H34L61 471H298L217 0Z" glyph-name="igrave" horiz-adv-x="302" unicode="&#236;" /><glyph d="M410 617Q410 662 440.5 692.5Q471 723 516 723Q561 723 591.5 692.5Q622 662 622 617Q622 572 591.5 541.5Q561 511 516 511Q471 511 440.5 541.5Q410 572 410 617ZM392 312H336L363 471H600L510 -51Q502 -98 483.5 -123.5Q465 -149 441 -161Q417 -173 390.5 -175Q364 -177 339 -177H234L261 -20H304Q324 -20 330.5 -14.5Q337 -9 339 2ZM108 617Q108 662 138.5 692.5Q169 723 214 723Q259 723 289.5 692.5Q320 662 320 617Q320 572 289.5 541.5Q259 511 214 511Q169 511 138.5 541.5Q108 572 108 617ZM37 0 90 312H34L61 471H298L217 0Z" glyph-name="ij" horiz-adv-x="604" unicode="&#307;" /><glyph d="M51 675H392L366 525H25ZM37 0 90 312H34L61 471H298L217 0Z" glyph-name="imacron" horiz-adv-x="302" unicode="&#299;" /><glyph d="M561 352Q573 328 587.5 312.5Q602 297 616.5 288.5Q631 280 644.5 277Q658 274 669 274Q677 274 689 277.5Q701 281 712.5 289.5Q724 298 732 313Q740 328 740 352Q740 376 732 391Q724 406 712.5 414.5Q701 423 689 426.5Q677 430 669 430Q658 430 644.5 427Q631 424 616.5 415.5Q602 407 587.5 391.5Q573 376 561 352ZM258 352Q258 328 266 313Q274 298 285 289.5Q296 281 308.5 277.5Q321 274 329 274Q339 274 353 277Q367 280 381.5 288.5Q396 297 410.5 312.5Q425 328 437 352Q425 376 410.5 391.5Q396 407 381.5 415.5Q367 424 353 427Q339 430 329 430Q321 430 308.5 426.5Q296 423 285 414.5Q274 406 266 391Q258 376 258 352ZM935 352Q935 288 914 239.5Q893 191 858.5 158.5Q824 126 779.5 109.5Q735 93 689 93Q633 93 580.5 116Q528 139 499 185Q470 139 417.5 116Q365 93 309 93Q262 93 218 109.5Q174 126 139.5 158.5Q105 191 84 239.5Q63 288 63 352Q63 416 84 464.5Q105 513 139.5 545.5Q174 578 218 594.5Q262 611 309 611Q365 611 417.5 588Q470 565 499 519Q528 565 580.5 588Q633 611 689 611Q735 611 779.5 594.5Q824 578 858.5 545.5Q893 513 914 464.5Q935 416 935 352Z" glyph-name="infinity" horiz-adv-x="956" unicode="&#8734;" /><glyph d="M170 567Q174 593 183.5 617.5Q193 642 210 660.5Q227 679 253 690.5Q279 702 317 702H488L454 516H405Q377 516 364.5 507.5Q352 499 347 473L258 -41Q253 -67 244 -91.5Q235 -116 218 -134.5Q201 -153 175 -164.5Q149 -176 111 -176H-60L-26 10H23Q51 10 63.5 18.5Q76 27 81 53Z" glyph-name="integral" horiz-adv-x="416" unicode="&#8747;" /><glyph d="M108 617Q108 662 138.5 692.5Q169 723 214 723Q259 723 289.5 692.5Q320 662 320 617Q320 572 289.5 541.5Q259 511 214 511Q169 511 138.5 541.5Q108 572 108 617ZM147 0Q116 -20 106 -37Q96 -54 96 -67Q96 -83 108.5 -90Q121 -97 135 -97Q155 -97 176 -91.5Q197 -86 207 -84L184 -175Q156 -186 126.5 -194.5Q97 -203 58 -203Q6 -203 -29.5 -177.5Q-65 -152 -65 -107Q-65 -72 -39 -43.5Q-13 -15 40 0H37L90 312H34L61 471H298L217 0Z" glyph-name="iogonek" horiz-adv-x="302" unicode="&#303;" /><glyph d="M398 668Q398 656 394.5 630.5Q391 605 379 579.5Q367 554 343 534.5Q319 515 279 515Q262 515 245.5 520Q229 525 213.5 531.5Q198 538 184.5 543Q171 548 161 548Q144 548 141 533L139 523L14 535Q14 547 17.5 572.5Q21 598 33 624.5Q45 651 68.5 671Q92 691 133 691Q149 691 166 685.5Q183 680 198.5 673Q214 666 227.5 660.5Q241 655 251 655Q268 655 271 670L273 680ZM37 0 90 312H34L61 471H298L217 0Z" glyph-name="itilde" horiz-adv-x="302" unicode="&#297;" /><glyph d="M108 617Q108 662 138.5 692.5Q169 723 214 723Q259 723 289.5 692.5Q320 662 320 617Q320 572 289.5 541.5Q259 511 214 511Q169 511 138.5 541.5Q108 572 108 617ZM90 312H34L61 471H298L208 -51Q200 -98 181.5 -123.5Q163 -149 139 -161Q115 -173 88.5 -175Q62 -177 37 -177H-68L-41 -20H2Q22 -20 28.5 -14.5Q35 -9 37 2Z" glyph-name="j" horiz-adv-x="302" unicode="j" /><glyph d="M223 581 186 523H8L148 700H324L402 523H246ZM90 312H34L61 471H298L207 -51Q199 -98 180.5 -123.5Q162 -149 138 -161Q114 -173 87.5 -175Q61 -177 36 -177H-69L-42 -20H2Q22 -20 28.5 -14.5Q35 -9 37 2Z" glyph-name="jcircumflex" horiz-adv-x="302" unicode="&#309;" /><glyph d="M235 300H238L365 471H572L391 242L506 0H308L222 194H217L184 0H5L125 700H306Z" glyph-name="k" horiz-adv-x="539" unicode="k" /><glyph d="M97 -268 137 -197Q113 -168 113 -132Q113 -113 120.5 -95Q128 -77 141 -63.5Q154 -50 172.5 -42Q191 -34 212 -34Q234 -34 253 -42.5Q272 -51 286 -65Q300 -79 308 -97Q316 -115 316 -134Q316 -179 276 -225L194 -320ZM235 300H238L365 471H572L391 242L506 0H308L222 194H217L184 0H5L125 700H306Z" glyph-name="kcommaaccent" horiz-adv-x="539" unicode="&#311;" /><glyph d="M240 281H244L380 471H591L403 238L519 0H314L229 193H225L190 0H4L87 471H273Z" glyph-name="kgreenlandic" horiz-adv-x="554" unicode="&#312;" /><glyph d="M186 0H6L125 700H307Z" glyph-name="l" horiz-adv-x="271" unicode="l" /><glyph d="M214 929H439L313 752H144ZM186 0H6L125 700H307Z" glyph-name="lacute" horiz-adv-x="271" unicode="&#314;" /><glyph d="M312 478 352 549Q328 578 328 614Q328 633 335.5 651Q343 669 356 682.5Q369 696 387.5 704Q406 712 427 712Q449 712 468 703.5Q487 695 501 681Q515 667 523 649Q531 631 531 612Q531 567 491 521L409 426ZM186 0H6L125 700H307Z" glyph-name="lcaron" horiz-adv-x="387" unicode="&#318;" /></font>
</defs>
</svg>
