<?xml version="1.0" standalone="no"?><!DOCTYPE svg PUBLIC "-//W3C//DTD SVG 1.1//EN" "http://www.w3.org/Graphics/SVG/1.1/DTD/svg11.dtd" ><svg version="1.1" xmlns="http://www.w3.org/2000/svg"><defs><font horiz-adv-x="0" id="font"><font-face ascent="750" bbox="-292 -270 1190 978" cap-height="700" descent="-250" font-family="Regular Bold Italic" font-stretch="normal" font-style="italic" font-weight="600" units-per-em="1000" x-height="458" /><missing-glyph d="M164 408H118L136 604H146ZM0 671Q0 683 8 691.5Q16 700 28 700H473Q484 700 492 691.5Q500 683 500 671V29Q500 17 492 8.5Q484 0 473 0H28Q16 0 8 8.5Q0 17 0 29ZM415 392Q415 407 429 407H435Q449 407 449 392V388H438V389Q438 392 437.5 394.5Q437 397 432 397Q426 397 426 389V377Q426 369 432 369Q437 369 437.5 371.5Q438 374 438 377V378H449V374Q449 359 435 359H429Q415 359 415 374ZM178 270H244L201 657H83L40 270H105L112 347H170ZM434 470Q445 484 452.5 503Q460 522 460 551V567Q460 609 434 634Q408 659 373 659H356Q321 659 294.5 634Q268 609 268 567V517H330V559Q330 572 336 585.5Q342 599 363 599H366Q386 599 391.5 585.5Q397 572 397 559V552Q396 522 376 495L298 391Q283 371 276 354Q269 337 269 313V270H461V331H339V335Q339 339 342 345.5Q345 352 355 365ZM264 42H292V113H316Q332 113 342 124.5Q352 136 352 154V187Q352 206 342 217Q332 228 316 228H264ZM380 42H465V69H410V123H442V150H410V202H465V228H380ZM237 228H208L191 151L171 228H141L174 107V42H205V107ZM65 42H93V202H123V228H35V202H65ZM460 393Q460 404 454.5 410.5Q449 417 437 417H428Q416 417 410 410.5Q404 404 404 393V373Q404 362 410 355.5Q416 349 428 349H437Q449 349 454.5 355.5Q460 362 460 373ZM292 202H309Q318 202 320.5 195.5Q323 189 323 184V158Q323 153 320.5 147Q318 141 309 141H292Z" horiz-adv-x="500" /><glyph d="M379 550H377L265 310H406ZM586 0H445L419 191H213L125 0H-24L318 700H480Z" glyph-name="A" horiz-adv-x="633" unicode="A" /><glyph d="M321 249 305 416H303L227 249ZM250 560H401L483 0H350L332 136H180L118 0H-21Z" glyph-name="A.smcp" horiz-adv-x="535" unicode="&#62257;" /><glyph d="M491 580 486 581 335 346H451ZM260 227 114 0H-51L419 700H1022L1001 580H627L599 416H840L819 297H579L547 119H922L901 0H391L431 227Z" glyph-name="AE" horiz-adv-x="974" unicode="&#198;" /><glyph d="M355 264 388 454H387L274 264ZM322 560H828L809 447H513L496 341H658L639 229H476L456 112H751L732 0H308L335 151H205L116 0H-37Z" glyph-name="AE.smcp" horiz-adv-x="810" unicode="&#62296;" /><glyph d="M429 941H592L474 768H352ZM379 550H377L265 310H406ZM586 0H445L419 191H213L125 0H-24L318 700H480Z" glyph-name="Aacute" horiz-adv-x="633" unicode="&#193;" /><glyph d="M340 730H491L388 605H281ZM321 249 305 416H303L227 249ZM250 560H401L483 0H350L332 136H180L118 0H-21Z" glyph-name="Aacute.smcp" horiz-adv-x="535" unicode="&#62503;" /><glyph d="M466 923H568L560 869Q554 833 540 808Q526 783 506 767Q486 751 460 744Q434 737 405 737Q376 737 350 746Q324 755 306 773Q288 791 279.5 817.5Q271 844 277 878L285 923H387L379 872Q376 855 384.5 843.5Q393 832 413 832Q433 832 443.5 843Q454 854 457 871ZM379 550H377L265 310H406ZM586 0H445L419 191H213L125 0H-24L318 700H480Z" glyph-name="Abreve" horiz-adv-x="633" unicode="&#258;" /><glyph d="M340 696Q370 696 376 733H471L470 721Q465 659 426.5 632.5Q388 606 333 606Q308 606 285 613.5Q262 621 246 635.5Q230 650 222.5 672Q215 694 221 723L223 733H314L313 729Q310 712 317.5 704Q325 696 340 696ZM321 249 305 416H303L227 249ZM250 560H401L483 0H350L332 136H180L118 0H-21Z" glyph-name="Abreve.smcp" horiz-adv-x="535" unicode="&#62504;" /><glyph d="M375 941H506L577 769H459L432 845L382 769H248ZM379 550H377L265 310H406ZM586 0H445L419 191H213L125 0H-24L318 700H480Z" glyph-name="Acircumflex" horiz-adv-x="633" unicode="&#194;" /><glyph d="M347 660 301 605H187L282 730H428L477 605H372ZM321 249 305 416H303L227 249ZM250 560H401L483 0H350L332 136H180L118 0H-21Z" glyph-name="Acircumflex.smcp" horiz-adv-x="535" unicode="&#62505;" /><glyph d="M422 825Q422 841 428 855Q434 869 444.5 879.5Q455 890 469 896.5Q483 903 499 903Q531 903 554.5 880Q578 857 578 825Q578 793 554.5 770Q531 747 499 747Q483 747 469 753.5Q455 760 444.5 770.5Q434 781 428 795Q422 809 422 825ZM230 825Q230 841 236 855Q242 869 252.5 879.5Q263 890 277.5 896.5Q292 903 308 903Q340 903 363.5 880Q387 857 387 825Q387 793 363.5 770Q340 747 308 747Q292 747 277.5 753.5Q263 760 252.5 770.5Q242 781 236 795Q230 809 230 825ZM379 550H377L265 310H406ZM586 0H445L419 191H213L125 0H-24L318 700H480Z" glyph-name="Adieresis" horiz-adv-x="633" unicode="&#196;" /><glyph d="M344 679Q344 706 365 726.5Q386 747 414 747Q427 747 439.5 741.5Q452 736 461.5 726.5Q471 717 476.5 704.5Q482 692 482 679Q482 652 461 632Q440 612 414 612Q386 612 365 632Q344 652 344 679ZM185 679Q185 692 191 704.5Q197 717 206.5 726.5Q216 736 228.5 741.5Q241 747 254 747Q281 747 302 726.5Q323 706 323 679Q323 652 302 632Q281 612 254 612Q241 612 228.5 617.5Q216 623 206.5 632Q197 641 191 653Q185 665 185 679ZM321 249 305 416H303L227 249ZM250 560H401L483 0H350L332 136H180L118 0H-21Z" glyph-name="Adieresis.smcp" horiz-adv-x="535" unicode="&#62512;" /><glyph d="M466 768H346L243 941H406ZM379 550H377L265 310H406ZM586 0H445L419 191H213L125 0H-24L318 700H480Z" glyph-name="Agrave" horiz-adv-x="633" unicode="&#192;" /><glyph d="M372 605H265L178 730H329ZM321 249 305 416H303L227 249ZM250 560H401L483 0H350L332 136H180L118 0H-21Z" glyph-name="Agrave.smcp" horiz-adv-x="535" unicode="&#62513;" /><glyph d="M286 885H594L575 774H267ZM379 550H377L265 310H406ZM586 0H445L419 191H213L125 0H-24L318 700H480Z" glyph-name="Amacron" horiz-adv-x="633" unicode="&#256;" /><glyph d="M210 716H475L458 621H193ZM321 249 305 416H303L227 249ZM250 560H401L483 0H350L332 136H180L118 0H-21Z" glyph-name="Amacron.smcp" horiz-adv-x="535" unicode="&#62309;" /><glyph d="M379 550H377L265 310H406ZM586 0H539Q500 -24 482 -44.5Q464 -65 464 -83Q464 -97 475.5 -104Q487 -111 502 -111Q520 -111 541 -106.5Q562 -102 576 -97L557 -174Q533 -185 508 -191.5Q483 -198 447 -198Q400 -198 369.5 -175.5Q339 -153 339 -113Q339 -91 349 -73Q359 -55 375.5 -40.5Q392 -26 412.5 -16Q433 -6 453 0H445L419 191H213L125 0H-24L318 700H480Z" glyph-name="Aogonek" horiz-adv-x="633" unicode="&#260;" /><glyph d="M321 249 305 416H303L227 249ZM250 560H401L483 0H452Q400 -25 395 -56Q392 -72 403.5 -79Q415 -86 428 -86Q443 -86 456 -83.5Q469 -81 476 -79L462 -147Q459 -148 434.5 -154.5Q410 -161 375 -161Q327 -161 299.5 -140Q272 -119 278 -84Q283 -56 306 -34Q329 -12 374 0H350L332 136H180L118 0H-21Z" glyph-name="Aogonek.smcp" horiz-adv-x="535" unicode="&#62310;" /><glyph d="M461 857Q461 879 447.5 893Q434 907 414 907Q394 907 380 893Q366 879 366 858Q366 835 380 820.5Q394 806 414 806Q434 806 447.5 820.5Q461 835 461 857ZM288 857Q288 883 297.5 905Q307 927 324 943Q341 959 364 968Q387 977 413 977Q439 977 462 968Q485 959 502.5 943.5Q520 928 530 906Q540 884 540 857Q540 831 530 809Q520 787 503 770.5Q486 754 463 745Q440 736 414 736Q387 736 364 745Q341 754 324 770.5Q307 787 297.5 809Q288 831 288 857ZM379 550H377L265 310H406ZM586 0H445L419 191H213L125 0H-24L318 700H480Z" glyph-name="Aring" horiz-adv-x="633" unicode="&#197;" /><glyph d="M338 655Q354 655 364.5 666.5Q375 678 375 695Q375 712 364.5 724Q354 736 338 736Q321 736 310.5 724Q300 712 300 695Q300 678 310.5 666.5Q321 655 338 655ZM338 596Q316 596 297 603.5Q278 611 263.5 624.5Q249 638 241 656Q233 674 233 695Q233 739 263 767Q293 795 338 795Q383 795 412.5 767Q442 739 442 695Q442 674 434 656Q426 638 412 624.5Q398 611 379 603.5Q360 596 338 596ZM321 249 305 416H303L227 249ZM250 560H401L483 0H350L332 136H180L118 0H-21Z" glyph-name="Aring.smcp" horiz-adv-x="535" unicode="&#62311;" /><glyph d="M359 906Q375 906 392 900Q409 894 424.5 887Q440 880 453.5 874Q467 868 476 868Q496 868 502 892L504 903L603 891Q601 876 597.5 853.5Q594 831 583 809.5Q572 788 550 772.5Q528 757 490 757Q475 757 458 763Q441 769 425 775.5Q409 782 395.5 788Q382 794 374 794Q352 794 348 770L346 758L245 771Q247 786 251 808.5Q255 831 266.5 853Q278 875 299.5 890.5Q321 906 359 906ZM379 550H377L265 310H406ZM586 0H445L419 191H213L125 0H-24L318 700H480Z" glyph-name="Atilde" horiz-adv-x="633" unicode="&#195;" /><glyph d="M372 609Q360 609 347 613Q334 617 322.5 622Q311 627 301 631Q291 635 285 635Q278 635 273 631Q268 627 268 618V613H180L183 632Q185 645 190 662Q195 679 206 694.5Q217 710 235 721Q253 732 281 732Q293 732 306 728Q319 724 330.5 719Q342 714 352 710Q362 706 368 706Q375 706 380 710Q385 714 385 723V728H473L470 709Q468 696 463 679Q458 662 447 646.5Q436 631 418 620Q400 609 372 609ZM321 249 305 416H303L227 249ZM250 560H401L483 0H350L332 136H180L118 0H-21Z" glyph-name="Atilde.smcp" horiz-adv-x="535" unicode="&#62312;" /><glyph d="M270 582 244 426H302Q322 426 343 429.5Q364 433 380.5 443Q397 453 407.5 470Q418 487 418 513Q418 547 393 564.5Q368 582 336 582ZM190 117H262Q329 117 365 143Q401 169 401 220Q401 259 372 284Q343 309 292 309H223ZM559 538Q559 481 529 435.5Q499 390 434 368Q482 348 512 308.5Q542 269 542 218Q542 170 524 130Q506 90 473 61Q440 32 393 16Q346 0 288 0H34L155 700H350Q401 700 440.5 686Q480 672 506 649Q532 626 545.5 597Q559 568 559 538Z" glyph-name="B" horiz-adv-x="576" unicode="B" /><glyph d="M251 349Q265 349 279.5 351Q294 353 306 358.5Q318 364 325.5 375Q333 386 333 404Q333 424 317 436Q301 448 280 448H232L215 349ZM224 111Q273 111 296 130Q319 149 319 179Q319 203 300.5 221Q282 239 247 239H196L174 111ZM123 560H295Q335 560 367 549Q399 538 421.5 520Q444 502 455.5 479Q467 456 467 432Q467 388 445 351Q423 314 369 295Q407 281 431 248.5Q455 216 455 176Q455 138 440.5 105.5Q426 73 399 49.5Q372 26 333.5 13Q295 0 247 0H27Z" glyph-name="B.smcp" horiz-adv-x="496" unicode="&#62258;" /><glyph d="M745 247Q727 187 692 139Q657 91 610.5 57.5Q564 24 508.5 6Q453 -12 393 -12Q319 -12 257 13.5Q195 39 150 84.5Q105 130 80 192Q55 254 55 326Q55 410 86 481Q117 552 168.5 603.5Q220 655 288 683.5Q356 712 431 712Q493 712 547.5 692.5Q602 673 645 638.5Q688 604 717 556Q746 508 756 451H605Q588 510 544.5 547.5Q501 585 428 585Q379 585 337 565Q295 545 263.5 510Q232 475 214 427Q196 379 196 323Q196 280 209.5 242Q223 204 248.5 175.5Q274 147 311.5 130.5Q349 114 397 114Q464 114 512.5 148.5Q561 183 589 247Z" glyph-name="C" horiz-adv-x="756" unicode="C" /><glyph d="M318 -10Q258 -10 207.5 11Q157 32 120.5 68.5Q84 105 63.5 155Q43 205 43 264Q43 330 67.5 386.5Q92 443 134 483.5Q176 524 230.5 547Q285 570 345 570Q396 570 441.5 553.5Q487 537 522.5 508Q558 479 581.5 439Q605 399 613 351H469Q458 393 426.5 420.5Q395 448 342 448Q307 448 277 433.5Q247 419 225 394Q203 369 190 334.5Q177 300 177 260Q177 230 186.5 202.5Q196 175 214 155Q232 135 259 123Q286 111 321 111Q417 111 458 207H607Q594 156 566 116Q538 76 499.5 48Q461 20 414 5Q367 -10 318 -10Z" glyph-name="C.smcp" horiz-adv-x="628" unicode="&#62259;" /><glyph d="M479 942H642L524 769H402ZM745 247Q727 187 692 139Q657 91 610.5 57.5Q564 24 508.5 6Q453 -12 393 -12Q319 -12 257 13.5Q195 39 150 84.5Q105 130 80 192Q55 254 55 326Q55 410 86 481Q117 552 168.5 603.5Q220 655 288 683.5Q356 712 431 712Q493 712 547.5 692.5Q602 673 645 638.5Q688 604 717 556Q746 508 756 451H605Q588 510 544.5 547.5Q501 585 428 585Q379 585 337 565Q295 545 263.5 510Q232 475 214 427Q196 379 196 323Q196 280 209.5 242Q223 204 248.5 175.5Q274 147 311.5 130.5Q349 114 397 114Q464 114 512.5 148.5Q561 183 589 247Z" glyph-name="Cacute" horiz-adv-x="756" unicode="&#262;" /><glyph d="M372 730H523L420 605H313ZM318 -10Q258 -10 207.5 11Q157 32 120.5 68.5Q84 105 63.5 155Q43 205 43 264Q43 330 67.5 386.5Q92 443 134 483.5Q176 524 230.5 547Q285 570 345 570Q396 570 441.5 553.5Q487 537 522.5 508Q558 479 581.5 439Q605 399 613 351H469Q458 393 426.5 420.5Q395 448 342 448Q307 448 277 433.5Q247 419 225 394Q203 369 190 334.5Q177 300 177 260Q177 230 186.5 202.5Q196 175 214 155Q232 135 259 123Q286 111 321 111Q417 111 458 207H607Q594 156 566 116Q538 76 499.5 48Q461 20 414 5Q367 -10 318 -10Z" glyph-name="Cacute.smcp" horiz-adv-x="628" unicode="&#62313;" /><glyph d="M516 770H385L314 942H432L459 866L509 942H643ZM745 247Q727 187 692 139Q657 91 610.5 57.5Q564 24 508.5 6Q453 -12 393 -12Q319 -12 257 13.5Q195 39 150 84.5Q105 130 80 192Q55 254 55 326Q55 410 86 481Q117 552 168.5 603.5Q220 655 288 683.5Q356 712 431 712Q493 712 547.5 692.5Q602 673 645 638.5Q688 604 717 556Q746 508 756 451H605Q588 510 544.5 547.5Q501 585 428 585Q379 585 337 565Q295 545 263.5 510Q232 475 214 427Q196 379 196 323Q196 280 209.5 242Q223 204 248.5 175.5Q274 147 311.5 130.5Q349 114 397 114Q464 114 512.5 148.5Q561 183 589 247Z" glyph-name="Ccaron" horiz-adv-x="756" unicode="&#268;" /><glyph d="M416 730H531L436 605H290L241 730H345L371 675ZM318 -10Q258 -10 207.5 11Q157 32 120.5 68.5Q84 105 63.5 155Q43 205 43 264Q43 330 67.5 386.5Q92 443 134 483.5Q176 524 230.5 547Q285 570 345 570Q396 570 441.5 553.5Q487 537 522.5 508Q558 479 581.5 439Q605 399 613 351H469Q458 393 426.5 420.5Q395 448 342 448Q307 448 277 433.5Q247 419 225 394Q203 369 190 334.5Q177 300 177 260Q177 230 186.5 202.5Q196 175 214 155Q232 135 259 123Q286 111 321 111Q417 111 458 207H607Q594 156 566 116Q538 76 499.5 48Q461 20 414 5Q367 -10 318 -10Z" glyph-name="Ccaron.smcp" horiz-adv-x="628" unicode="&#62320;" /><glyph d="M304 -1Q248 12 202 42Q156 72 123.5 115Q91 158 73 211.5Q55 265 55 326Q55 410 86 481Q117 552 168.5 603.5Q220 655 288 683.5Q356 712 431 712Q493 712 547.5 692.5Q602 673 645 638.5Q688 604 717 556Q746 508 756 451H605Q588 510 544.5 547.5Q501 585 428 585Q379 585 337 565Q295 545 263.5 510Q232 475 214 427Q196 379 196 323Q196 280 209.5 242Q223 204 248.5 175.5Q274 147 311.5 130.5Q349 114 397 114Q464 114 512.5 148.5Q561 183 589 247H745Q729 194 700 150.5Q671 107 632.5 74.5Q594 42 547.5 21Q501 0 450 -7L361 -136H231Z" glyph-name="Ccedilla" horiz-adv-x="757" unicode="&#199;" /><glyph d="M245 -1Q200 10 162.5 34.5Q125 59 98.5 93.5Q72 128 57.5 171.5Q43 215 43 264Q43 330 67.5 386.5Q92 443 134 483.5Q176 524 230.5 547Q285 570 345 570Q396 570 441.5 553.5Q487 537 522.5 508Q558 479 581.5 439Q605 399 613 351H469Q458 393 426.5 420.5Q395 448 342 448Q307 448 277 433.5Q247 419 225 394Q203 369 190 334.5Q177 300 177 260Q177 230 186.5 202.5Q196 175 214 155Q232 135 259 123Q286 111 321 111Q417 111 458 207H607Q596 164 574 128.5Q552 93 521.5 66Q491 39 454 21Q417 3 376 -4L297 -132H190Z" glyph-name="Ccedilla.smcp" horiz-adv-x="628" unicode="&#62321;" /><glyph d="M408 942H539L610 770H492L465 846L415 770H281ZM745 247Q727 187 692 139Q657 91 610.5 57.5Q564 24 508.5 6Q453 -12 393 -12Q319 -12 257 13.5Q195 39 150 84.5Q105 130 80 192Q55 254 55 326Q55 410 86 481Q117 552 168.5 603.5Q220 655 288 683.5Q356 712 431 712Q493 712 547.5 692.5Q602 673 645 638.5Q688 604 717 556Q746 508 756 451H605Q588 510 544.5 547.5Q501 585 428 585Q379 585 337 565Q295 545 263.5 510Q232 475 214 427Q196 379 196 323Q196 280 209.5 242Q223 204 248.5 175.5Q274 147 311.5 130.5Q349 114 397 114Q464 114 512.5 148.5Q561 183 589 247Z" glyph-name="Ccircumflex" horiz-adv-x="756" unicode="&#264;" /><glyph d="M389 660 343 605H229L324 730H470L519 605H414ZM318 -10Q258 -10 207.5 11Q157 32 120.5 68.5Q84 105 63.5 155Q43 205 43 264Q43 330 67.5 386.5Q92 443 134 483.5Q176 524 230.5 547Q285 570 345 570Q396 570 441.5 553.5Q487 537 522.5 508Q558 479 581.5 439Q605 399 613 351H469Q458 393 426.5 420.5Q395 448 342 448Q307 448 277 433.5Q247 419 225 394Q203 369 190 334.5Q177 300 177 260Q177 230 186.5 202.5Q196 175 214 155Q232 135 259 123Q286 111 321 111Q417 111 458 207H607Q594 156 566 116Q538 76 499.5 48Q461 20 414 5Q367 -10 318 -10Z" glyph-name="Ccircumflex.smcp" horiz-adv-x="628" unicode="&#62322;" /><glyph d="M384 856Q384 893 409.5 918.5Q435 944 471 944Q508 944 533.5 918.5Q559 893 559 856Q559 820 533.5 794.5Q508 769 471 769Q435 769 409.5 794.5Q384 820 384 856ZM745 247Q727 187 692 139Q657 91 610.5 57.5Q564 24 508.5 6Q453 -12 393 -12Q319 -12 257 13.5Q195 39 150 84.5Q105 130 80 192Q55 254 55 326Q55 410 86 481Q117 552 168.5 603.5Q220 655 288 683.5Q356 712 431 712Q493 712 547.5 692.5Q602 673 645 638.5Q688 604 717 556Q746 508 756 451H605Q588 510 544.5 547.5Q501 585 428 585Q379 585 337 565Q295 545 263.5 510Q232 475 214 427Q196 379 196 323Q196 280 209.5 242Q223 204 248.5 175.5Q274 147 311.5 130.5Q349 114 397 114Q464 114 512.5 148.5Q561 183 589 247Z" glyph-name="Cdotaccent" horiz-adv-x="756" unicode="&#266;" /><glyph d="M299 679Q299 706 320 726.5Q341 747 368 747Q395 747 415.5 726.5Q436 706 436 679Q436 652 415.5 632Q395 612 368 612Q341 612 320 632Q299 652 299 679ZM318 -10Q258 -10 207.5 11Q157 32 120.5 68.5Q84 105 63.5 155Q43 205 43 264Q43 330 67.5 386.5Q92 443 134 483.5Q176 524 230.5 547Q285 570 345 570Q396 570 441.5 553.5Q487 537 522.5 508Q558 479 581.5 439Q605 399 613 351H469Q458 393 426.5 420.5Q395 448 342 448Q307 448 277 433.5Q247 419 225 394Q203 369 190 334.5Q177 300 177 260Q177 230 186.5 202.5Q196 175 214 155Q232 135 259 123Q286 111 321 111Q417 111 458 207H607Q594 156 566 116Q538 76 499.5 48Q461 20 414 5Q367 -10 318 -10Z" glyph-name="Cdotaccent.smcp" horiz-adv-x="628" unicode="&#62323;" /><glyph d="M271 581 191 118H284Q346 118 395.5 136Q445 154 480 188.5Q515 223 533.5 273Q552 323 552 386Q552 435 535.5 471.5Q519 508 490.5 532.5Q462 557 423.5 569Q385 581 342 581ZM35 0 155 700H363Q439 700 499.5 677Q560 654 603 613.5Q646 573 669 517.5Q692 462 692 397Q692 309 664 236Q636 163 584 110.5Q532 58 458 29Q384 0 293 0Z" glyph-name="D" horiz-adv-x="703" unicode="D" /><glyph d="M123 560H302Q362 560 411.5 541.5Q461 523 495.5 491Q530 459 549 414.5Q568 370 568 318Q568 248 545.5 189.5Q523 131 482 89Q441 47 382 23.5Q323 0 251 0H27ZM244 112Q284 112 319 125.5Q354 139 380 164Q406 189 421 224.5Q436 260 436 304Q436 341 423 368Q410 395 388.5 412.5Q367 430 340 438.5Q313 447 285 447H231L174 112Z" glyph-name="D.smcp" horiz-adv-x="591" unicode="&#62260;" /><glyph d="M479 770H348L277 942H395L422 866L472 942H606ZM271 581 191 118H284Q346 118 395.5 136Q445 154 480 188.5Q515 223 533.5 273Q552 323 552 386Q552 435 535.5 471.5Q519 508 490.5 532.5Q462 557 423.5 569Q385 581 342 581ZM35 0 155 700H363Q439 700 499.5 677Q560 654 603 613.5Q646 573 669 517.5Q692 462 692 397Q692 309 664 236Q636 163 584 110.5Q532 58 458 29Q384 0 293 0Z" glyph-name="Dcaron" horiz-adv-x="703" unicode="&#270;" /><glyph d="M383 730H498L403 605H257L208 730H312L338 675ZM123 560H302Q362 560 411.5 541.5Q461 523 495.5 491Q530 459 549 414.5Q568 370 568 318Q568 248 545.5 189.5Q523 131 482 89Q441 47 382 23.5Q323 0 251 0H27ZM244 112Q284 112 319 125.5Q354 139 380 164Q406 189 421 224.5Q436 260 436 304Q436 341 423 368Q410 395 388.5 412.5Q367 430 340 438.5Q313 447 285 447H231L174 112Z" glyph-name="Dcaron.smcp" horiz-adv-x="591" unicode="&#62324;" /><glyph d="M277 581 248 416H424L403 297H228L197 118H290Q352 118 401.5 136Q451 154 486 188.5Q521 223 539.5 273Q558 323 558 386Q558 435 541.5 471.5Q525 508 496.5 532.5Q468 557 429.5 569Q391 581 348 581ZM30 416H112L161 700H369Q445 700 505.5 677Q566 654 609 613.5Q652 573 675 517.5Q698 462 698 397Q698 309 670 236Q642 163 590 110.5Q538 58 464 29Q390 0 299 0H41L92 297H10Z" glyph-name="Dcroat" horiz-adv-x="709" unicode="&#272;" /><glyph d="M251 112Q291 112 326 125.5Q361 139 387 164Q413 189 428 224.5Q443 260 443 304Q443 341 430 368Q417 395 395.5 412.5Q374 430 347 438.5Q320 447 292 447H238L220 341H348L329 229H201L181 112ZM26 341H92L130 560H309Q369 560 418.5 541.5Q468 523 502.5 491Q537 459 556 414.5Q575 370 575 318Q575 248 552.5 189.5Q530 131 489 89Q448 47 389 23.5Q330 0 258 0H34L73 229H7Z" glyph-name="Dcroat.smcp" horiz-adv-x="598" unicode="&#62497;" /><glyph d="M395 541 160 120H488ZM629 119 607 0H-7L14 122L345 700H493Z" glyph-name="Delta" horiz-adv-x="681" unicode="&#8710;" /><glyph d="M645 580H270L242 416H460L440 297H221L190 119H565L545 0H34L155 700H665Z" glyph-name="E" horiz-adv-x="618" unicode="E" /><glyph d="M123 560H546L527 447H231L213 341H376L357 229H194L174 112H469L451 0H27Z" glyph-name="E.smcp" horiz-adv-x="528" unicode="&#62261;" /><glyph d="M420 941H583L465 768H343ZM645 580H270L242 416H460L440 297H221L190 119H565L545 0H34L155 700H665Z" glyph-name="Eacute" horiz-adv-x="618" unicode="&#201;" /><glyph d="M347 730H498L395 605H288ZM123 560H546L527 447H231L213 341H376L357 229H194L174 112H469L451 0H27Z" glyph-name="Eacute.smcp" horiz-adv-x="528" unicode="&#62514;" /><glyph d="M471 923H573L565 869Q559 833 545 808Q531 783 511 767Q491 751 465 744Q439 737 410 737Q381 737 355 746Q329 755 311 773Q293 791 284.5 817.5Q276 844 282 878L290 923H392L384 872Q381 855 389.5 843.5Q398 832 418 832Q438 832 448.5 843Q459 854 462 871ZM645 580H270L242 416H460L440 297H221L190 119H565L545 0H34L155 700H665Z" glyph-name="Ebreve" horiz-adv-x="618" unicode="&#276;" /><glyph d="M352 696Q382 696 388 733H483L482 721Q477 659 438.5 632.5Q400 606 345 606Q320 606 297 613.5Q274 621 258 635.5Q242 650 234.5 672Q227 694 233 723L235 733H326L325 729Q322 712 329.5 704Q337 696 352 696ZM123 560H546L527 447H231L213 341H376L357 229H194L174 112H469L451 0H27Z" glyph-name="Ebreve.smcp" horiz-adv-x="528" unicode="&#62515;" /><glyph d="M475 770H344L273 942H391L418 866L468 942H602ZM645 580H270L242 416H460L440 297H221L190 119H565L545 0H34L155 700H665Z" glyph-name="Ecaron" horiz-adv-x="618" unicode="&#282;" /><glyph d="M391 730H506L411 605H265L216 730H320L346 675ZM123 560H546L527 447H231L213 341H376L357 229H194L174 112H469L451 0H27Z" glyph-name="Ecaron.smcp" horiz-adv-x="528" unicode="&#62516;" /><glyph d="M375 941H506L577 769H459L432 845L382 769H248ZM645 580H270L242 416H460L440 297H221L190 119H565L545 0H34L155 700H665Z" glyph-name="Ecircumflex" horiz-adv-x="618" unicode="&#202;" /><glyph d="M358 660 312 605H198L293 730H439L488 605H383ZM123 560H546L527 447H231L213 341H376L357 229H194L174 112H469L451 0H27Z" glyph-name="Ecircumflex.smcp" horiz-adv-x="528" unicode="&#62517;" /><glyph d="M436 825Q436 841 442 855Q448 869 458.5 879.5Q469 890 483 896.5Q497 903 513 903Q545 903 568.5 880Q592 857 592 825Q592 793 568.5 770Q545 747 513 747Q497 747 483 753.5Q469 760 458.5 770.5Q448 781 442 795Q436 809 436 825ZM244 825Q244 841 250 855Q256 869 266.5 879.5Q277 890 291.5 896.5Q306 903 322 903Q354 903 377.5 880Q401 857 401 825Q401 793 377.5 770Q354 747 322 747Q306 747 291.5 753.5Q277 760 266.5 770.5Q256 781 250 795Q244 809 244 825ZM645 580H270L242 416H460L440 297H221L190 119H565L545 0H34L155 700H665Z" glyph-name="Edieresis" horiz-adv-x="618" unicode="&#203;" /><glyph d="M352 679Q352 706 373 726.5Q394 747 422 747Q435 747 447.5 741.5Q460 736 469.5 726.5Q479 717 484.5 704.5Q490 692 490 679Q490 652 469 632Q448 612 422 612Q394 612 373 632Q352 652 352 679ZM193 679Q193 692 199 704.5Q205 717 214.5 726.5Q224 736 236.5 741.5Q249 747 262 747Q289 747 310 726.5Q331 706 331 679Q331 652 310 632Q289 612 262 612Q249 612 236.5 617.5Q224 623 214.5 632Q205 641 199 653Q193 665 193 679ZM123 560H546L527 447H231L213 341H376L357 229H194L174 112H469L451 0H27Z" glyph-name="Edieresis.smcp" horiz-adv-x="528" unicode="&#62518;" /><glyph d="M327 856Q327 893 352.5 918.5Q378 944 414 944Q451 944 476.5 918.5Q502 893 502 856Q502 820 476.5 794.5Q451 769 414 769Q378 769 352.5 794.5Q327 820 327 856ZM645 580H270L242 416H460L440 297H221L190 119H565L545 0H34L155 700H665Z" glyph-name="Edotaccent" horiz-adv-x="618" unicode="&#278;" /><glyph d="M268 679Q268 706 289 726.5Q310 747 337 747Q364 747 384.5 726.5Q405 706 405 679Q405 652 384.5 632Q364 612 337 612Q310 612 289 632Q268 652 268 679ZM123 560H546L527 447H231L213 341H376L357 229H194L174 112H469L451 0H27Z" glyph-name="Edotaccent.smcp" horiz-adv-x="528" unicode="&#62519;" /><glyph d="M480 768H360L257 941H420ZM645 580H270L242 416H460L440 297H221L190 119H565L545 0H34L155 700H665Z" glyph-name="Egrave" horiz-adv-x="618" unicode="&#200;" /><glyph d="M388 605H281L194 730H345ZM123 560H546L527 447H231L213 341H376L357 229H194L174 112H469L451 0H27Z" glyph-name="Egrave.smcp" horiz-adv-x="528" unicode="&#62520;" /><glyph d="M275 885H583L564 774H256ZM645 580H270L242 416H460L440 297H221L190 119H565L545 0H34L155 700H665Z" glyph-name="Emacron" horiz-adv-x="618" unicode="&#274;" /><glyph d="M222 716H487L470 621H205ZM123 560H546L527 447H231L213 341H376L357 229H194L174 112H469L451 0H27Z" glyph-name="Emacron.smcp" horiz-adv-x="528" unicode="&#62521;" /><glyph d="M169 0H35L155 700H336L482 224L566 700H700L573 -34Q561 -103 525 -139Q489 -175 410 -175H322L342 -55H386Q413 -55 424 -45Q435 -35 441 -9L443 0H423L262 518Z" glyph-name="Eng" horiz-adv-x="691" unicode="&#330;" /><glyph d="M123 560H296L390 214L452 560H578L476 -25Q466 -82 435.5 -111.5Q405 -141 337 -141H256L276 -27H313Q330 -27 338.5 -22Q347 -17 349 0H335L226 393L153 0H27Z" glyph-name="Eng.smcp" horiz-adv-x="586" unicode="&#62487;" /><glyph d="M645 580H270L242 416H460L440 297H221L190 119H565L545 0H441Q402 -24 384 -44.5Q366 -65 366 -83Q366 -97 377.5 -104Q389 -111 404 -111Q422 -111 443 -106.5Q464 -102 478 -97L459 -174Q435 -185 410 -191.5Q385 -198 349 -198Q302 -198 271.5 -175.5Q241 -153 241 -113Q241 -91 251 -73Q261 -55 277.5 -40.5Q294 -26 314.5 -16Q335 -6 355 0H34L155 700H665Z" glyph-name="Eogonek" horiz-adv-x="618" unicode="&#280;" /><glyph d="M123 560H546L527 447H231L213 341H376L357 229H194L174 112H469L451 0H364Q312 -25 307 -56Q304 -72 315.5 -79Q327 -86 340 -86Q355 -86 368 -83.5Q381 -81 388 -79L374 -147Q371 -148 346.5 -154.5Q322 -161 287 -161Q239 -161 211.5 -140Q184 -119 190 -84Q195 -56 218 -34Q241 -12 286 0H27Z" glyph-name="Eogonek.smcp" horiz-adv-x="528" unicode="&#62528;" /><glyph d="M277 581 246 406H418L401 307H229L197 118H290Q352 118 401.5 136Q451 154 486 188.5Q521 223 539.5 273Q558 323 558 386Q558 435 541.5 471.5Q525 508 496.5 532.5Q468 557 429.5 569Q391 581 348 581ZM49 406H110L161 700H369Q445 700 505.5 677Q566 654 609 613.5Q652 573 675 517.5Q698 462 698 397Q698 309 670 236Q642 163 590 110.5Q538 58 464 29Q390 0 299 0H41L93 307H32Z" glyph-name="Eth" horiz-adv-x="709" unicode="&#208;" /><glyph d="M251 112Q291 112 326 125.5Q361 139 387 164Q413 189 428 224.5Q443 260 443 304Q443 341 430 368Q417 395 395.5 412.5Q374 430 347 438.5Q320 447 292 447H238L220 341H348L329 229H201L181 112ZM26 341H92L130 560H309Q369 560 418.5 541.5Q468 523 502.5 491Q537 459 556 414.5Q575 370 575 318Q575 248 552.5 189.5Q530 131 489 89Q448 47 389 23.5Q330 0 258 0H34L73 229H7Z" glyph-name="Eth.smcp" horiz-adv-x="598" unicode="&#62498;" /><glyph d="M84 478H149Q169 531 201 574Q233 617 274 647.5Q315 678 364 694.5Q413 711 467 711Q526 711 576.5 693.5Q627 676 665.5 642.5Q704 609 729 561Q754 513 761 452H613Q609 480 599 504.5Q589 529 571 546.5Q553 564 526.5 574Q500 584 464 584Q409 584 367.5 555.5Q326 527 300 478H505L489 385H268Q260 350 259 313H477L460 222H268Q282 173 319 143Q356 113 421 113Q481 113 522.5 150Q564 187 584 246H745Q725 186 692.5 138Q660 90 617 56.5Q574 23 522.5 5Q471 -13 414 -13Q355 -13 306 4Q257 21 220.5 52Q184 83 159.5 126.5Q135 170 125 222H39L55 313H118Q119 332 120.5 350Q122 368 125 385H68Z" glyph-name="Euro" horiz-adv-x="776" unicode="&#8364;" /><glyph d="M72 385H122Q156 469 225.5 518.5Q295 568 383 568Q431 568 474 553.5Q517 539 550 511Q583 483 604 443Q625 403 631 351H490Q482 395 457 421Q432 447 380 447Q345 447 317 430.5Q289 414 269 385H410L396 302H236Q234 291 233 279.5Q232 268 231 257H388L373 175H243Q256 146 281.5 128.5Q307 111 349 111Q392 111 423.5 138Q455 165 469 208H623Q607 157 579 116.5Q551 76 514 48Q477 20 433.5 5Q390 -10 343 -10Q296 -10 256.5 3.5Q217 17 186 41.5Q155 66 134.5 100Q114 134 104 175H34L48 257H96Q96 279 99 302H57Z" glyph-name="Euro.smcp" horiz-adv-x="658" unicode="&#63111;" /><glyph d="M218 278 170 0H34L155 700H647L627 580H270L239 398H504L483 278Z" glyph-name="F" horiz-adv-x="578" unicode="F" /><glyph d="M123 560H532L513 447H232L211 327H423L403 214H191L155 0H27Z" glyph-name="F.smcp" horiz-adv-x="493" unicode="&#62262;" /><glyph d="M376 -12Q303 -12 244 13Q185 38 143 83Q101 128 78 190Q55 252 55 326Q55 410 86 481Q117 552 169.5 603.5Q222 655 290 683.5Q358 712 433 712Q495 712 551 692.5Q607 673 651.5 638.5Q696 604 726 556Q756 508 766 451H615Q598 510 550.5 547.5Q503 585 430 585Q381 585 338.5 565Q296 545 264.5 510Q233 475 214.5 427Q196 379 196 323Q196 280 209.5 241.5Q223 203 248.5 174Q274 145 312 128Q350 111 398 111Q439 111 471.5 123Q504 135 528 153.5Q552 172 567.5 193.5Q583 215 589 234H427L446 345H743L683 0H571L587 88Q575 72 556 54.5Q537 37 510.5 22Q484 7 450 -2.5Q416 -12 376 -12Z" glyph-name="G" horiz-adv-x="769" unicode="G" /><glyph d="M306 -10Q245 -10 196.5 11Q148 32 114 68.5Q80 105 61.5 155Q43 205 43 264Q43 330 68 386.5Q93 443 135.5 483.5Q178 524 233 547Q288 570 348 570Q399 570 446 553.5Q493 537 530.5 508Q568 479 593.5 439Q619 399 627 351H482Q471 393 434.5 420.5Q398 448 345 448Q310 448 279.5 433.5Q249 419 226.5 394Q204 369 190.5 334.5Q177 300 177 260Q177 229 187.5 201.5Q198 174 217.5 153Q237 132 265.5 120Q294 108 330 108Q358 108 379.5 115Q401 122 416.5 133.5Q432 145 442 159Q452 173 457 187H333L351 290H603L552 0H451L464 65Q456 54 443 41Q430 28 410.5 16.5Q391 5 365 -2.5Q339 -10 306 -10Z" glyph-name="G.smcp" horiz-adv-x="636" unicode="&#62263;" /><glyph d="M523 923H625L617 869Q611 833 597 808Q583 783 563 767Q543 751 517 744Q491 737 462 737Q433 737 407 746Q381 755 363 773Q345 791 336.5 817.5Q328 844 334 878L342 923H444L436 872Q433 855 441.5 843.5Q450 832 470 832Q490 832 500.5 843Q511 854 514 871ZM376 -12Q303 -12 244 13Q185 38 143 83Q101 128 78 190Q55 252 55 326Q55 410 86 481Q117 552 169.5 603.5Q222 655 290 683.5Q358 712 433 712Q495 712 551 692.5Q607 673 651.5 638.5Q696 604 726 556Q756 508 766 451H615Q598 510 550.5 547.5Q503 585 430 585Q381 585 338.5 565Q296 545 264.5 510Q233 475 214.5 427Q196 379 196 323Q196 280 209.5 241.5Q223 203 248.5 174Q274 145 312 128Q350 111 398 111Q439 111 471.5 123Q504 135 528 153.5Q552 172 567.5 193.5Q583 215 589 234H427L446 345H743L683 0H571L587 88Q575 72 556 54.5Q537 37 510.5 22Q484 7 450 -2.5Q416 -12 376 -12Z" glyph-name="Gbreve" horiz-adv-x="769" unicode="&#286;" /><glyph d="M384 696Q414 696 420 733H515L514 721Q509 659 470.5 632.5Q432 606 377 606Q352 606 329 613.5Q306 621 290 635.5Q274 650 266.5 672Q259 694 265 723L267 733H358L357 729Q354 712 361.5 704Q369 696 384 696ZM306 -10Q245 -10 196.5 11Q148 32 114 68.5Q80 105 61.5 155Q43 205 43 264Q43 330 68 386.5Q93 443 135.5 483.5Q178 524 233 547Q288 570 348 570Q399 570 446 553.5Q493 537 530.5 508Q568 479 593.5 439Q619 399 627 351H482Q471 393 434.5 420.5Q398 448 345 448Q310 448 279.5 433.5Q249 419 226.5 394Q204 369 190.5 334.5Q177 300 177 260Q177 229 187.5 201.5Q198 174 217.5 153Q237 132 265.5 120Q294 108 330 108Q358 108 379.5 115Q401 122 416.5 133.5Q432 145 442 159Q452 173 457 187H333L351 290H603L552 0H451L464 65Q456 54 443 41Q430 28 410.5 16.5Q391 5 365 -2.5Q339 -10 306 -10Z" glyph-name="Gbreve.smcp" horiz-adv-x="636" unicode="&#62325;" /><glyph d="M411 942H542L613 770H495L468 846L418 770H284ZM376 -12Q303 -12 244 13Q185 38 143 83Q101 128 78 190Q55 252 55 326Q55 410 86 481Q117 552 169.5 603.5Q222 655 290 683.5Q358 712 433 712Q495 712 551 692.5Q607 673 651.5 638.5Q696 604 726 556Q756 508 766 451H615Q598 510 550.5 547.5Q503 585 430 585Q381 585 338.5 565Q296 545 264.5 510Q233 475 214.5 427Q196 379 196 323Q196 280 209.5 241.5Q223 203 248.5 174Q274 145 312 128Q350 111 398 111Q439 111 471.5 123Q504 135 528 153.5Q552 172 567.5 193.5Q583 215 589 234H427L446 345H743L683 0H571L587 88Q575 72 556 54.5Q537 37 510.5 22Q484 7 450 -2.5Q416 -12 376 -12Z" glyph-name="Gcircumflex" horiz-adv-x="769" unicode="&#284;" /><glyph d="M383 660 337 605H223L318 730H464L513 605H408ZM306 -10Q245 -10 196.5 11Q148 32 114 68.5Q80 105 61.5 155Q43 205 43 264Q43 330 68 386.5Q93 443 135.5 483.5Q178 524 233 547Q288 570 348 570Q399 570 446 553.5Q493 537 530.5 508Q568 479 593.5 439Q619 399 627 351H482Q471 393 434.5 420.5Q398 448 345 448Q310 448 279.5 433.5Q249 419 226.5 394Q204 369 190.5 334.5Q177 300 177 260Q177 229 187.5 201.5Q198 174 217.5 153Q237 132 265.5 120Q294 108 330 108Q358 108 379.5 115Q401 122 416.5 133.5Q432 145 442 159Q452 173 457 187H333L351 290H603L552 0H451L464 65Q456 54 443 41Q430 28 410.5 16.5Q391 5 365 -2.5Q339 -10 306 -10Z" glyph-name="Gcircumflex.smcp" horiz-adv-x="636" unicode="&#62326;" /><glyph d="M263 -117Q263 -102 269 -88.5Q275 -75 285 -64.5Q295 -54 309 -47.5Q323 -41 340 -41Q375 -41 397.5 -64.5Q420 -88 420 -119Q420 -132 414.5 -147Q409 -162 398 -176L323 -270L237 -254L286 -173Q275 -162 269 -147.5Q263 -133 263 -117ZM376 -12Q303 -12 244 13Q185 38 143 83Q101 128 78 190Q55 252 55 326Q55 410 86 481Q117 552 169.5 603.5Q222 655 290 683.5Q358 712 433 712Q495 712 551 692.5Q607 673 651.5 638.5Q696 604 726 556Q756 508 766 451H615Q598 510 550.5 547.5Q503 585 430 585Q381 585 338.5 565Q296 545 264.5 510Q233 475 214.5 427Q196 379 196 323Q196 280 209.5 241.5Q223 203 248.5 174Q274 145 312 128Q350 111 398 111Q439 111 471.5 123Q504 135 528 153.5Q552 172 567.5 193.5Q583 215 589 234H427L446 345H743L683 0H571L587 88Q575 72 556 54.5Q537 37 510.5 22Q484 7 450 -2.5Q416 -12 376 -12Z" glyph-name="Gcommaaccent" horiz-adv-x="769" unicode="&#290;" /><glyph d="M189 -103Q189 -72 210.5 -54Q232 -36 259 -36Q293 -36 311 -57Q329 -78 329 -104Q329 -131 311 -154L236 -245L162 -232L208 -149Q189 -130 189 -103ZM306 -10Q245 -10 196.5 11Q148 32 114 68.5Q80 105 61.5 155Q43 205 43 264Q43 330 68 386.5Q93 443 135.5 483.5Q178 524 233 547Q288 570 348 570Q399 570 446 553.5Q493 537 530.5 508Q568 479 593.5 439Q619 399 627 351H482Q471 393 434.5 420.5Q398 448 345 448Q310 448 279.5 433.5Q249 419 226.5 394Q204 369 190.5 334.5Q177 300 177 260Q177 229 187.5 201.5Q198 174 217.5 153Q237 132 265.5 120Q294 108 330 108Q358 108 379.5 115Q401 122 416.5 133.5Q432 145 442 159Q452 173 457 187H333L351 290H603L552 0H451L464 65Q456 54 443 41Q430 28 410.5 16.5Q391 5 365 -2.5Q339 -10 306 -10Z" glyph-name="Gcommaaccent.smcp" horiz-adv-x="636" unicode="&#62484;" /><glyph d="M373 856Q373 893 398.5 918.5Q424 944 460 944Q497 944 522.5 918.5Q548 893 548 856Q548 820 522.5 794.5Q497 769 460 769Q424 769 398.5 794.5Q373 820 373 856ZM376 -12Q303 -12 244 13Q185 38 143 83Q101 128 78 190Q55 252 55 326Q55 410 86 481Q117 552 169.5 603.5Q222 655 290 683.5Q358 712 433 712Q495 712 551 692.5Q607 673 651.5 638.5Q696 604 726 556Q756 508 766 451H615Q598 510 550.5 547.5Q503 585 430 585Q381 585 338.5 565Q296 545 264.5 510Q233 475 214.5 427Q196 379 196 323Q196 280 209.5 241.5Q223 203 248.5 174Q274 145 312 128Q350 111 398 111Q439 111 471.5 123Q504 135 528 153.5Q552 172 567.5 193.5Q583 215 589 234H427L446 345H743L683 0H571L587 88Q575 72 556 54.5Q537 37 510.5 22Q484 7 450 -2.5Q416 -12 376 -12Z" glyph-name="Gdotaccent" horiz-adv-x="769" unicode="&#288;" /><glyph d="M320 679Q320 706 341 726.5Q362 747 389 747Q416 747 436.5 726.5Q457 706 457 679Q457 652 436.5 632Q416 612 389 612Q362 612 341 632Q320 652 320 679ZM306 -10Q245 -10 196.5 11Q148 32 114 68.5Q80 105 61.5 155Q43 205 43 264Q43 330 68 386.5Q93 443 135.5 483.5Q178 524 233 547Q288 570 348 570Q399 570 446 553.5Q493 537 530.5 508Q568 479 593.5 439Q619 399 627 351H482Q471 393 434.5 420.5Q398 448 345 448Q310 448 279.5 433.5Q249 419 226.5 394Q204 369 190.5 334.5Q177 300 177 260Q177 229 187.5 201.5Q198 174 217.5 153Q237 132 265.5 120Q294 108 330 108Q358 108 379.5 115Q401 122 416.5 133.5Q432 145 442 159Q452 173 457 187H333L351 290H603L552 0H451L464 65Q456 54 443 41Q430 28 410.5 16.5Q391 5 365 -2.5Q339 -10 306 -10Z" glyph-name="Gdotaccent.smcp" horiz-adv-x="636" unicode="&#62327;" /><glyph d="M444 0 495 297H222L171 0H35L155 700H291L242 416H515L564 700H700L579 0Z" glyph-name="H" horiz-adv-x="691" unicode="H" /><glyph d="M483 0H355L394 229H194L155 0H27L123 560H251L213 341H413L451 560H579Z" glyph-name="H.smcp" horiz-adv-x="588" unicode="&#62264;" /><glyph d="M527 416 541 497H268L254 416ZM74 616H152L167 700H303L288 616H561L576 700H712L697 616H776L754 497H677L591 0H456L507 297H234L183 0H47L132 497H53Z" glyph-name="Hbar" horiz-adv-x="713" unicode="&#294;" /><glyph d="M420 341 429 397H229L220 341ZM575 498H634L617 397H558L490 0H362L401 229H201L162 0H34L102 397H46L63 498H119L130 560H258L247 498H447L458 560H586Z" glyph-name="Hbar.smcp" horiz-adv-x="600" unicode="&#62499;" /><glyph d="M393 942H524L595 770H477L450 846L400 770H266ZM444 0 495 297H222L171 0H35L155 700H291L242 416H515L564 700H700L579 0Z" glyph-name="Hcircumflex" horiz-adv-x="691" unicode="&#292;" /><glyph d="M369 660 323 605H209L304 730H450L499 605H394ZM483 0H355L394 229H194L155 0H27L123 560H251L213 341H413L451 560H579Z" glyph-name="Hcircumflex.smcp" horiz-adv-x="588" unicode="&#62328;" /><glyph d="M155 700H291L170 0H35Z" glyph-name="I" horiz-adv-x="282" unicode="I" /><glyph d="M155 0H27L123 560H251Z" glyph-name="I.smcp" horiz-adv-x="260" unicode="&#62265;" /><glyph d="M449 299 442 259Q437 233 441 207.5Q445 182 458 161.5Q471 141 493 128.5Q515 116 547 116Q606 116 639.5 149.5Q673 183 682 237L762 700H898L813 209Q805 162 783.5 121.5Q762 81 728.5 51.5Q695 22 649.5 5Q604 -12 548 -12Q489 -12 440 7.5Q391 27 358 63Q325 99 310.5 149Q296 199 306 261L312 299ZM155 700H291L170 0H35Z" glyph-name="IJ" horiz-adv-x="883" unicode="&#306;" /><glyph d="M266 -15Q296 -15 307 -3Q318 9 324 42L437 700H573L453 6Q441 -63 405 -99Q369 -135 290 -135H202L222 -15ZM155 700H291L170 0H35Z" glyph-name="IJ.alt" horiz-adv-x="564" unicode="&#59530;" /><glyph d="M412 259 403 205Q396 163 415.5 134.5Q435 106 477 106Q519 106 541.5 131.5Q564 157 571 199L633 560H761L694 168Q687 130 670 97.5Q653 65 625.5 41Q598 17 560.5 3.5Q523 -10 477 -10Q427 -10 386.5 6.5Q346 23 318.5 53Q291 83 279.5 124.5Q268 166 276 216L283 259ZM155 0H27L123 560H251Z" glyph-name="IJ.smcp" horiz-adv-x="764" unicode="&#62341;" /><glyph d="M246 941H409L291 768H169ZM155 700H291L170 0H35Z" glyph-name="Iacute" horiz-adv-x="282" unicode="&#205;" /><glyph d="M199 730H350L247 605H140ZM155 0H27L123 560H251Z" glyph-name="Iacute.smcp" horiz-adv-x="260" unicode="&#62329;" /><glyph d="M292 923H394L386 869Q380 833 366 808Q352 783 332 767Q312 751 286 744Q260 737 231 737Q202 737 176 746Q150 755 132 773Q114 791 105.5 817.5Q97 844 103 878L111 923H213L205 872Q202 855 210.5 843.5Q219 832 239 832Q259 832 269.5 843Q280 854 283 871ZM155 700H291L170 0H35Z" glyph-name="Ibreve" horiz-adv-x="282" unicode="&#300;" /><glyph d="M199 696Q229 696 235 733H330L329 721Q324 659 285.5 632.5Q247 606 192 606Q167 606 144 613.5Q121 621 105 635.5Q89 650 81.5 672Q74 694 80 723L82 733H173L172 729Q169 712 176.5 704Q184 696 199 696ZM155 0H27L123 560H251Z" glyph-name="Ibreve.smcp" horiz-adv-x="260" unicode="&#62336;" /><glyph d="M193 941H324L395 769H277L250 845L200 769H66ZM155 700H291L170 0H35Z" glyph-name="Icircumflex" horiz-adv-x="282" unicode="&#206;" /><glyph d="M207 660 161 605H47L142 730H288L337 605H232ZM155 0H27L123 560H251Z" glyph-name="Icircumflex.smcp" horiz-adv-x="260" unicode="&#62337;" /><glyph d="M259 825Q259 841 265 855Q271 869 281.5 879.5Q292 890 306 896.5Q320 903 336 903Q368 903 391.5 880Q415 857 415 825Q415 793 391.5 770Q368 747 336 747Q320 747 306 753.5Q292 760 281.5 770.5Q271 781 265 795Q259 809 259 825ZM67 825Q67 841 73 855Q79 869 89.5 879.5Q100 890 114.5 896.5Q129 903 145 903Q177 903 200.5 880Q224 857 224 825Q224 793 200.5 770Q177 747 145 747Q129 747 114.5 753.5Q100 760 89.5 770.5Q79 781 73 795Q67 809 67 825ZM155 700H291L170 0H35Z" glyph-name="Idieresis" horiz-adv-x="282" unicode="&#207;" /><glyph d="M215 679Q215 706 236 726.5Q257 747 285 747Q298 747 310.5 741.5Q323 736 332.5 726.5Q342 717 347.5 704.5Q353 692 353 679Q353 652 332 632Q311 612 285 612Q257 612 236 632Q215 652 215 679ZM56 679Q56 692 62 704.5Q68 717 77.5 726.5Q87 736 99.5 741.5Q112 747 125 747Q152 747 173 726.5Q194 706 194 679Q194 652 173 632Q152 612 125 612Q112 612 99.5 617.5Q87 623 77.5 632Q68 641 62 653Q56 665 56 679ZM155 0H27L123 560H251Z" glyph-name="Idieresis.smcp" horiz-adv-x="260" unicode="&#62338;" /><glyph d="M154 856Q154 893 179.5 918.5Q205 944 241 944Q278 944 303.5 918.5Q329 893 329 856Q329 820 303.5 794.5Q278 769 241 769Q205 769 179.5 794.5Q154 820 154 856ZM155 700H291L170 0H35Z" glyph-name="Idotaccent" horiz-adv-x="282" unicode="&#304;" /><glyph d="M133 679Q133 706 154 726.5Q175 747 202 747Q229 747 249.5 726.5Q270 706 270 679Q270 652 249.5 632Q229 612 202 612Q175 612 154 632Q133 652 133 679ZM155 0H27L123 560H251Z" glyph-name="Idotaccent.smcp" horiz-adv-x="260" unicode="&#62339;" /><glyph d="M286 768H166L63 941H226ZM155 700H291L170 0H35Z" glyph-name="Igrave" horiz-adv-x="282" unicode="&#204;" /><glyph d="M234 605H127L40 730H191ZM155 0H27L123 560H251Z" glyph-name="Igrave.smcp" horiz-adv-x="260" unicode="&#62340;" /><glyph d="M98 885H406L387 774H79ZM155 700H291L170 0H35Z" glyph-name="Imacron" horiz-adv-x="282" unicode="&#298;" /><glyph d="M79 716H344L327 621H62ZM155 0H27L123 560H251Z" glyph-name="Imacron.smcp" horiz-adv-x="260" unicode="&#62489;" /><glyph d="M155 700H291L170 0H155Q116 -24 98 -44.5Q80 -65 80 -83Q80 -97 91.5 -104Q103 -111 118 -111Q136 -111 157 -106.5Q178 -102 192 -97L173 -174Q149 -185 124 -191.5Q99 -198 63 -198Q16 -198 -14.5 -175.5Q-45 -153 -45 -113Q-45 -91 -35 -73Q-25 -55 -8.5 -40.5Q8 -26 28.5 -16Q49 -6 69 0H35Z" glyph-name="Iogonek" horiz-adv-x="282" unicode="&#302;" /><glyph d="M155 0H120Q68 -25 63 -56Q60 -72 71.5 -79Q83 -86 96 -86Q111 -86 124 -83.5Q137 -81 144 -79L130 -147Q127 -148 102.5 -154.5Q78 -161 43 -161Q-5 -161 -32.5 -140Q-60 -119 -54 -84Q-49 -56 -25.5 -34Q-2 -12 42 0H27L123 560H251Z" glyph-name="Iogonek.smcp" horiz-adv-x="260" unicode="&#62342;" /><glyph d="M168 907Q184 907 201 901Q218 895 233.5 888Q249 881 262.5 875Q276 869 285 869Q305 869 311 893L313 904L412 892Q410 877 406.5 854.5Q403 832 392 810.5Q381 789 359 773.5Q337 758 299 758Q284 758 267 764Q250 770 234 776.5Q218 783 204.5 789Q191 795 183 795Q161 795 157 771L155 759L54 772Q56 787 60 809.5Q64 832 75.5 854Q87 876 108.5 891.5Q130 907 168 907ZM155 700H291L170 0H35Z" glyph-name="Itilde" horiz-adv-x="282" unicode="&#296;" /><glyph d="M251 609Q239 609 226 613Q213 617 201.5 622Q190 627 180 631Q170 635 164 635Q157 635 152 631Q147 627 147 618V613H59L62 632Q64 645 69 662Q74 679 85 694.5Q96 710 114 721Q132 732 160 732Q172 732 185 728Q198 724 209.5 719Q221 714 231 710Q241 706 247 706Q254 706 259 710Q264 714 264 723V728H352L349 709Q347 696 342 679Q337 662 326 646.5Q315 631 297 620Q279 609 251 609ZM155 0H27L123 560H251Z" glyph-name="Itilde.smcp" horiz-adv-x="260" unicode="&#62343;" /><glyph d="M167 299 160 259Q155 233 159 207.5Q163 182 176 161.5Q189 141 211 128.5Q233 116 265 116Q324 116 357.5 149.5Q391 183 400 237L480 700H616L531 209Q523 162 501.5 121.5Q480 81 446.5 51.5Q413 22 367.5 5Q322 -12 266 -12Q207 -12 158 7.5Q109 27 76 63Q43 99 28.5 149Q14 199 24 261L30 299Z" glyph-name="J" horiz-adv-x="601" unicode="J" /><glyph d="M-16 -15Q14 -15 25 -3Q36 9 42 42L155 700H291L171 6Q159 -63 123 -99Q87 -135 8 -135H-80L-60 -15Z" glyph-name="J.alt" horiz-adv-x="282" unicode="&#58505;" /><glyph d="M152 259 143 205Q136 163 155.5 134.5Q175 106 217 106Q259 106 281.5 131.5Q304 157 311 199L373 560H501L434 168Q427 130 410 97.5Q393 65 365.5 41Q338 17 300.5 3.5Q263 -10 217 -10Q167 -10 126.5 6.5Q86 23 58.5 53Q31 83 19.5 124.5Q8 166 16 216L23 259Z" glyph-name="J.smcp" horiz-adv-x="504" unicode="&#62272;" /><glyph d="M312 942H443L514 770H396L369 846L319 770H185ZM167 299 160 259Q155 233 159 207.5Q163 182 176 161.5Q189 141 211 128.5Q233 116 265 116Q324 116 357.5 149.5Q391 183 400 237L480 700H616L531 209Q523 162 501.5 121.5Q480 81 446.5 51.5Q413 22 367.5 5Q322 -12 266 -12Q207 -12 158 7.5Q109 27 76 63Q43 99 28.5 149Q14 199 24 261L30 299Z" glyph-name="Jcircumflex" horiz-adv-x="601" unicode="&#308;" /><glyph d="M164 660 118 605H4L99 730H245L294 605H189ZM152 259 143 205Q136 163 155.5 134.5Q175 106 217 106Q259 106 281.5 131.5Q304 157 311 199L373 560H501L434 168Q427 130 410 97.5Q393 65 365.5 41Q338 17 300.5 3.5Q263 -10 217 -10Q167 -10 126.5 6.5Q86 23 58.5 53Q31 83 19.5 124.5Q8 166 16 216L23 259Z" glyph-name="Jcircumflex.smcp" horiz-adv-x="504" unicode="&#62344;" /><glyph d="M243 422H276L542 700H716L379 360L584 0H425L260 304H223L171 0H35L155 700H291Z" glyph-name="K" horiz-adv-x="624" unicode="K" /><glyph d="M123 560H251L214 345H241L431 560H591L338 285L485 0H337L224 233H195L155 0H27Z" glyph-name="K.smcp" horiz-adv-x="536" unicode="&#62273;" /><glyph d="M196 -117Q196 -102 202 -88.5Q208 -75 218 -64.5Q228 -54 242 -47.5Q256 -41 273 -41Q308 -41 330.5 -64.5Q353 -88 353 -119Q353 -132 347.5 -147Q342 -162 331 -176L256 -270L170 -254L219 -173Q208 -162 202 -147.5Q196 -133 196 -117ZM243 422H276L542 700H716L379 360L584 0H425L260 304H223L171 0H35L155 700H291Z" glyph-name="Kcommaaccent" horiz-adv-x="624" unicode="&#310;" /><glyph d="M150 -103Q150 -72 171.5 -54Q193 -36 220 -36Q254 -36 272 -57Q290 -78 290 -104Q290 -131 272 -154L197 -245L123 -232L169 -149Q150 -130 150 -103ZM123 560H251L214 345H241L431 560H591L338 285L485 0H337L224 233H195L155 0H27Z" glyph-name="Kcommaaccent.smcp" horiz-adv-x="536" unicode="&#62345;" /><glyph d="M34 0 155 700H291L190 119H482L462 0Z" glyph-name="L" horiz-adv-x="510" unicode="L" /><glyph d="M123 560H251L174 112H404L385 0H27Z" glyph-name="L.smcp" horiz-adv-x="438" unicode="&#62274;" /><glyph d="M309 942H472L354 769H232ZM34 0 155 700H291L190 119H482L462 0Z" glyph-name="Lacute" horiz-adv-x="510" unicode="&#313;" /><glyph d="M246 730H397L294 605H187ZM123 560H251L174 112H404L385 0H27Z" glyph-name="Lacute.smcp" horiz-adv-x="438" unicode="&#62352;" /><glyph d="M390 608Q390 623 396 636.5Q402 650 412 660.5Q422 671 436 677.5Q450 684 467 684Q502 684 524.5 660.5Q547 637 547 606Q547 593 541.5 578Q536 563 525 549L450 455L364 471L413 552Q402 563 396 577.5Q390 592 390 608ZM34 0 155 700H291L190 119H482L462 0Z" glyph-name="Lcaron" horiz-adv-x="514" unicode="&#317;" /><glyph d="M329 506Q329 537 350.5 555Q372 573 399 573Q433 573 451 552Q469 531 469 505Q469 478 451 455L376 364L302 377L348 460Q329 479 329 506ZM123 560H251L174 112H404L385 0H27Z" glyph-name="Lcaron.smcp" horiz-adv-x="442" unicode="&#62496;" /><glyph d="M150 -117Q150 -102 156 -88.5Q162 -75 172 -64.5Q182 -54 196 -47.5Q210 -41 227 -41Q262 -41 284.5 -64.5Q307 -88 307 -119Q307 -132 301.5 -147Q296 -162 285 -176L210 -270L124 -254L173 -173Q162 -162 156 -147.5Q150 -133 150 -117ZM34 0 155 700H291L190 119H482L462 0Z" glyph-name="Lcommaaccent" horiz-adv-x="510" unicode="&#315;" /><glyph d="M119 -103Q119 -72 140.5 -54Q162 -36 189 -36Q223 -36 241 -57Q259 -78 259 -104Q259 -131 241 -154L166 -245L92 -232L138 -149Q119 -130 119 -103ZM123 560H251L174 112H404L385 0H27Z" glyph-name="Lcommaaccent.smcp" horiz-adv-x="438" unicode="&#62488;" /><glyph d="M331 355Q331 392 356.5 417.5Q382 443 418 443Q455 443 480.5 417.5Q506 392 506 355Q506 319 480.5 293.5Q455 268 418 268Q382 268 356.5 293.5Q331 319 331 355ZM34 0 155 700H291L190 119H482L462 0Z" glyph-name="Ldot" horiz-adv-x="511" unicode="&#319;" /><glyph d="M277 328Q277 355 298 375.5Q319 396 346 396Q373 396 393.5 375.5Q414 355 414 328Q414 301 393.5 281Q373 261 346 261Q319 261 298 281Q277 301 277 328ZM123 560H251L174 112H404L385 0H27Z" glyph-name="Ldot.smcp" horiz-adv-x="439" unicode="&#62501;" /><glyph d="M35 327 100 349 161 700H297L244 399L418 459L398 363L228 304L196 119H488L468 0H40L84 254L16 231Z" glyph-name="Lslash" horiz-adv-x="515" unicode="&#321;" /><glyph d="M22 274 86 294 132 560H260L221 336L360 380L340 270L203 227L183 112H413L394 0H36L67 184L3 164Z" glyph-name="Lslash.smcp" horiz-adv-x="447" unicode="&#62502;" /><glyph d="M323 150 252 495 166 0H34L155 700H335L420 287L643 700H833L713 0H577L663 495L472 150Z" glyph-name="M" horiz-adv-x="824" unicode="M" /><glyph d="M123 560H285L347 262L505 560H678L582 0H454L515 355L384 117H260L212 355L152 0H27Z" glyph-name="M.smcp" horiz-adv-x="687" unicode="&#62275;" /><glyph d="M169 0H35L155 700H336L482 224L566 700H700L579 0H423L262 518Z" glyph-name="N" horiz-adv-x="691" unicode="N" /><glyph d="M123 560H296L390 214L452 560H578L481 0H335L226 393L153 0H27Z" glyph-name="N.smcp" horiz-adv-x="586" unicode="&#62276;" /><glyph d="M433 942H596L478 769H356ZM169 0H35L155 700H336L482 224L566 700H700L579 0H423L262 518Z" glyph-name="Nacute" horiz-adv-x="691" unicode="&#323;" /><glyph d="M355 730H506L403 605H296ZM123 560H296L390 214L452 560H578L481 0H335L226 393L153 0H27Z" glyph-name="Nacute.smcp" horiz-adv-x="586" unicode="&#62353;" /><glyph d="M494 770H363L292 942H410L437 866L487 942H621ZM169 0H35L155 700H336L482 224L566 700H700L579 0H423L262 518Z" glyph-name="Ncaron" horiz-adv-x="691" unicode="&#327;" /><glyph d="M402 730H517L422 605H276L227 730H331L357 675ZM123 560H296L390 214L452 560H578L481 0H335L226 393L153 0H27Z" glyph-name="Ncaron.smcp" horiz-adv-x="586" unicode="&#62354;" /><glyph d="M214 -117Q214 -102 220 -88.5Q226 -75 236 -64.5Q246 -54 260 -47.5Q274 -41 291 -41Q326 -41 348.5 -64.5Q371 -88 371 -119Q371 -132 365.5 -147Q360 -162 349 -176L274 -270L188 -254L237 -173Q226 -162 220 -147.5Q214 -133 214 -117ZM169 0H35L155 700H336L482 224L566 700H700L579 0H423L262 518Z" glyph-name="Ncommaaccent" horiz-adv-x="691" unicode="&#325;" /><glyph d="M175 -103Q175 -72 196.5 -54Q218 -36 245 -36Q279 -36 297 -57Q315 -78 315 -104Q315 -131 297 -154L222 -245L148 -232L194 -149Q175 -130 175 -103ZM123 560H296L390 214L452 560H578L481 0H335L226 393L153 0H27Z" glyph-name="Ncommaaccent.smcp" horiz-adv-x="586" unicode="&#62355;" /><glyph d="M375 906Q391 906 408 900Q425 894 440.5 887Q456 880 469.5 874Q483 868 492 868Q512 868 518 892L520 903L619 891Q617 876 613.5 853.5Q610 831 599 809.5Q588 788 566 772.5Q544 757 506 757Q491 757 474 763Q457 769 441 775.5Q425 782 411.5 788Q398 794 390 794Q368 794 364 770L362 758L261 771Q263 786 267 808.5Q271 831 282.5 853Q294 875 315.5 890.5Q337 906 375 906ZM169 0H35L155 700H336L482 224L566 700H700L579 0H423L262 518Z" glyph-name="Ntilde" horiz-adv-x="691" unicode="&#209;" /><glyph d="M417 609Q405 609 392 613Q379 617 367.5 622Q356 627 346 631Q336 635 330 635Q323 635 318 631Q313 627 313 618V613H225L228 632Q230 645 235 662Q240 679 251 694.5Q262 710 280 721Q298 732 326 732Q338 732 351 728Q364 724 375.5 719Q387 714 397 710Q407 706 413 706Q420 706 425 710Q430 714 430 723V728H518L515 709Q513 696 508 679Q503 662 492 646.5Q481 631 463 620Q445 609 417 609ZM123 560H296L390 214L452 560H578L481 0H335L226 393L153 0H27Z" glyph-name="Ntilde.smcp" horiz-adv-x="586" unicode="&#62356;" /><glyph d="M197 323Q197 280 210 242Q223 204 248.5 175.5Q274 147 311.5 130.5Q349 114 397 114Q446 114 488 133.5Q530 153 561.5 188Q593 223 611 271Q629 319 629 375Q629 418 615.5 456.5Q602 495 576.5 523.5Q551 552 513.5 568.5Q476 585 428 585Q379 585 337 565Q295 545 264 510Q233 475 215 427Q197 379 197 323ZM432 712Q505 712 567 686.5Q629 661 674.5 615.5Q720 570 745.5 507.5Q771 445 771 372Q771 288 740 217.5Q709 147 656.5 96Q604 45 535.5 16.5Q467 -12 393 -12Q319 -12 257 13.5Q195 39 150 84.5Q105 130 80 192Q55 254 55 326Q55 410 86 481Q117 552 169 603.5Q221 655 289.5 683.5Q358 712 432 712Z" glyph-name="O" horiz-adv-x="783" unicode="O" /><glyph d="M317 -10Q257 -10 206.5 11Q156 32 119.5 68.5Q83 105 62.5 155Q42 205 42 264Q42 330 67 386.5Q92 443 133.5 483.5Q175 524 229.5 547Q284 570 344 570Q404 570 454 549Q504 528 541 491.5Q578 455 598.5 404.5Q619 354 619 295Q619 229 594 173Q569 117 527.5 76.5Q486 36 431.5 13Q377 -10 317 -10ZM320 111Q354 111 384.5 125.5Q415 140 437 165Q459 190 472 224.5Q485 259 485 299Q485 329 475.5 356Q466 383 448 403.5Q430 424 403 436Q376 448 341 448Q306 448 276.5 433.5Q247 419 224.5 394Q202 369 189.5 334.5Q177 300 177 260Q177 230 186.5 202.5Q196 175 214 155Q232 135 258.5 123Q285 111 320 111Z" glyph-name="O.smcp" horiz-adv-x="643" unicode="&#62277;" /><glyph d="M466 580Q405 580 354.5 559.5Q304 539 268 501.5Q232 464 212.5 412.5Q193 361 193 299Q193 254 207 220.5Q221 187 246 164.5Q271 142 306 130.5Q341 119 382 119H471L551 580ZM1061 580H686L658 416H876L856 297H637L606 119H981L961 0H361Q287 0 229.5 23.5Q172 47 133 88Q94 129 73.5 184.5Q53 240 53 304Q53 384 81 456Q109 528 161.5 582Q214 636 288.5 668Q363 700 457 700H1082Z" glyph-name="OE" horiz-adv-x="1034" unicode="&#338;" /><glyph d="M374 112 432 447H363Q319 447 284 431Q249 415 224 387.5Q199 360 186 323Q173 286 173 244Q173 212 183.5 187Q194 162 211.5 145.5Q229 129 252.5 120.5Q276 112 303 112ZM290 0Q231 0 185 19Q139 38 107 71.5Q75 105 58.5 150Q42 195 42 246Q42 309 63.5 365.5Q85 422 126 465.5Q167 509 226 534.5Q285 560 360 560H875L855 447H559L542 341H703L684 229H521L501 112H797L778 0Z" glyph-name="OE.smcp" horiz-adv-x="856" unicode="&#62295;" /><glyph d="M460 941H623L505 768H383ZM197 323Q197 280 210 242Q223 204 248.5 175.5Q274 147 311.5 130.5Q349 114 397 114Q446 114 488 133.5Q530 153 561.5 188Q593 223 611 271Q629 319 629 375Q629 418 615.5 456.5Q602 495 576.5 523.5Q551 552 513.5 568.5Q476 585 428 585Q379 585 337 565Q295 545 264 510Q233 475 215 427Q197 379 197 323ZM432 712Q505 712 567 686.5Q629 661 674.5 615.5Q720 570 745.5 507.5Q771 445 771 372Q771 288 740 217.5Q709 147 656.5 96Q604 45 535.5 16.5Q467 -12 393 -12Q319 -12 257 13.5Q195 39 150 84.5Q105 130 80 192Q55 254 55 326Q55 410 86 481Q117 552 169 603.5Q221 655 289.5 683.5Q358 712 432 712Z" glyph-name="Oacute" horiz-adv-x="783" unicode="&#211;" /><glyph d="M384 730H535L432 605H325ZM317 -10Q257 -10 206.5 11Q156 32 119.5 68.5Q83 105 62.5 155Q42 205 42 264Q42 330 67 386.5Q92 443 133.5 483.5Q175 524 229.5 547Q284 570 344 570Q404 570 454 549Q504 528 541 491.5Q578 455 598.5 404.5Q619 354 619 295Q619 229 594 173Q569 117 527.5 76.5Q486 36 431.5 13Q377 -10 317 -10ZM320 111Q354 111 384.5 125.5Q415 140 437 165Q459 190 472 224.5Q485 259 485 299Q485 329 475.5 356Q466 383 448 403.5Q430 424 403 436Q376 448 341 448Q306 448 276.5 433.5Q247 419 224.5 394Q202 369 189.5 334.5Q177 300 177 260Q177 230 186.5 202.5Q196 175 214 155Q232 135 258.5 123Q285 111 320 111Z" glyph-name="Oacute.smcp" horiz-adv-x="643" unicode="&#62357;" /><glyph d="M519 923H621L613 869Q607 833 593 808Q579 783 559 767Q539 751 513 744Q487 737 458 737Q429 737 403 746Q377 755 359 773Q341 791 332.5 817.5Q324 844 330 878L338 923H440L432 872Q429 855 437.5 843.5Q446 832 466 832Q486 832 496.5 843Q507 854 510 871ZM197 323Q197 280 210 242Q223 204 248.5 175.5Q274 147 311.5 130.5Q349 114 397 114Q446 114 488 133.5Q530 153 561.5 188Q593 223 611 271Q629 319 629 375Q629 418 615.5 456.5Q602 495 576.5 523.5Q551 552 513.5 568.5Q476 585 428 585Q379 585 337 565Q295 545 264 510Q233 475 215 427Q197 379 197 323ZM432 712Q505 712 567 686.5Q629 661 674.5 615.5Q720 570 745.5 507.5Q771 445 771 372Q771 288 740 217.5Q709 147 656.5 96Q604 45 535.5 16.5Q467 -12 393 -12Q319 -12 257 13.5Q195 39 150 84.5Q105 130 80 192Q55 254 55 326Q55 410 86 481Q117 552 169 603.5Q221 655 289.5 683.5Q358 712 432 712Z" glyph-name="Obreve" horiz-adv-x="783" unicode="&#334;" /><glyph d="M383 696Q413 696 419 733H514L513 721Q508 659 469.5 632.5Q431 606 376 606Q351 606 328 613.5Q305 621 289 635.5Q273 650 265.5 672Q258 694 264 723L266 733H357L356 729Q353 712 360.5 704Q368 696 383 696ZM317 -10Q257 -10 206.5 11Q156 32 119.5 68.5Q83 105 62.5 155Q42 205 42 264Q42 330 67 386.5Q92 443 133.5 483.5Q175 524 229.5 547Q284 570 344 570Q404 570 454 549Q504 528 541 491.5Q578 455 598.5 404.5Q619 354 619 295Q619 229 594 173Q569 117 527.5 76.5Q486 36 431.5 13Q377 -10 317 -10ZM320 111Q354 111 384.5 125.5Q415 140 437 165Q459 190 472 224.5Q485 259 485 299Q485 329 475.5 356Q466 383 448 403.5Q430 424 403 436Q376 448 341 448Q306 448 276.5 433.5Q247 419 224.5 394Q202 369 189.5 334.5Q177 300 177 260Q177 230 186.5 202.5Q196 175 214 155Q232 135 258.5 123Q285 111 320 111Z" glyph-name="Obreve.smcp" horiz-adv-x="643" unicode="&#62534;" /><glyph d="M413 941H544L615 769H497L470 845L420 769H286ZM197 323Q197 280 210 242Q223 204 248.5 175.5Q274 147 311.5 130.5Q349 114 397 114Q446 114 488 133.5Q530 153 561.5 188Q593 223 611 271Q629 319 629 375Q629 418 615.5 456.5Q602 495 576.5 523.5Q551 552 513.5 568.5Q476 585 428 585Q379 585 337 565Q295 545 264 510Q233 475 215 427Q197 379 197 323ZM432 712Q505 712 567 686.5Q629 661 674.5 615.5Q720 570 745.5 507.5Q771 445 771 372Q771 288 740 217.5Q709 147 656.5 96Q604 45 535.5 16.5Q467 -12 393 -12Q319 -12 257 13.5Q195 39 150 84.5Q105 130 80 192Q55 254 55 326Q55 410 86 481Q117 552 169 603.5Q221 655 289.5 683.5Q358 712 432 712Z" glyph-name="Ocircumflex" horiz-adv-x="783" unicode="&#212;" /><glyph d="M381 660 335 605H221L316 730H462L511 605H406ZM317 -10Q257 -10 206.5 11Q156 32 119.5 68.5Q83 105 62.5 155Q42 205 42 264Q42 330 67 386.5Q92 443 133.5 483.5Q175 524 229.5 547Q284 570 344 570Q404 570 454 549Q504 528 541 491.5Q578 455 598.5 404.5Q619 354 619 295Q619 229 594 173Q569 117 527.5 76.5Q486 36 431.5 13Q377 -10 317 -10ZM320 111Q354 111 384.5 125.5Q415 140 437 165Q459 190 472 224.5Q485 259 485 299Q485 329 475.5 356Q466 383 448 403.5Q430 424 403 436Q376 448 341 448Q306 448 276.5 433.5Q247 419 224.5 394Q202 369 189.5 334.5Q177 300 177 260Q177 230 186.5 202.5Q196 175 214 155Q232 135 258.5 123Q285 111 320 111Z" glyph-name="Ocircumflex.smcp" horiz-adv-x="643" unicode="&#62535;" /><glyph d="M474 825Q474 841 480 855Q486 869 496.5 879.5Q507 890 521 896.5Q535 903 551 903Q583 903 606.5 880Q630 857 630 825Q630 793 606.5 770Q583 747 551 747Q535 747 521 753.5Q507 760 496.5 770.5Q486 781 480 795Q474 809 474 825ZM282 825Q282 841 288 855Q294 869 304.5 879.5Q315 890 329.5 896.5Q344 903 360 903Q392 903 415.5 880Q439 857 439 825Q439 793 415.5 770Q392 747 360 747Q344 747 329.5 753.5Q315 760 304.5 770.5Q294 781 288 795Q282 809 282 825ZM197 323Q197 280 210 242Q223 204 248.5 175.5Q274 147 311.5 130.5Q349 114 397 114Q446 114 488 133.5Q530 153 561.5 188Q593 223 611 271Q629 319 629 375Q629 418 615.5 456.5Q602 495 576.5 523.5Q551 552 513.5 568.5Q476 585 428 585Q379 585 337 565Q295 545 264 510Q233 475 215 427Q197 379 197 323ZM432 712Q505 712 567 686.5Q629 661 674.5 615.5Q720 570 745.5 507.5Q771 445 771 372Q771 288 740 217.5Q709 147 656.5 96Q604 45 535.5 16.5Q467 -12 393 -12Q319 -12 257 13.5Q195 39 150 84.5Q105 130 80 192Q55 254 55 326Q55 410 86 481Q117 552 169 603.5Q221 655 289.5 683.5Q358 712 432 712Z" glyph-name="Odieresis" horiz-adv-x="783" unicode="&#214;" /><glyph d="M395 679Q395 706 416 726.5Q437 747 465 747Q478 747 490.5 741.5Q503 736 512.5 726.5Q522 717 527.5 704.5Q533 692 533 679Q533 652 512 632Q491 612 465 612Q437 612 416 632Q395 652 395 679ZM236 679Q236 692 242 704.5Q248 717 257.5 726.5Q267 736 279.5 741.5Q292 747 305 747Q332 747 353 726.5Q374 706 374 679Q374 652 353 632Q332 612 305 612Q292 612 279.5 617.5Q267 623 257.5 632Q248 641 242 653Q236 665 236 679ZM317 -10Q257 -10 206.5 11Q156 32 119.5 68.5Q83 105 62.5 155Q42 205 42 264Q42 330 67 386.5Q92 443 133.5 483.5Q175 524 229.5 547Q284 570 344 570Q404 570 454 549Q504 528 541 491.5Q578 455 598.5 404.5Q619 354 619 295Q619 229 594 173Q569 117 527.5 76.5Q486 36 431.5 13Q377 -10 317 -10ZM320 111Q354 111 384.5 125.5Q415 140 437 165Q459 190 472 224.5Q485 259 485 299Q485 329 475.5 356Q466 383 448 403.5Q430 424 403 436Q376 448 341 448Q306 448 276.5 433.5Q247 419 224.5 394Q202 369 189.5 334.5Q177 300 177 260Q177 230 186.5 202.5Q196 175 214 155Q232 135 258.5 123Q285 111 320 111Z" glyph-name="Odieresis.smcp" horiz-adv-x="643" unicode="&#62536;" /><glyph d="M500 768H380L277 941H440ZM197 323Q197 280 210 242Q223 204 248.5 175.5Q274 147 311.5 130.5Q349 114 397 114Q446 114 488 133.5Q530 153 561.5 188Q593 223 611 271Q629 319 629 375Q629 418 615.5 456.5Q602 495 576.5 523.5Q551 552 513.5 568.5Q476 585 428 585Q379 585 337 565Q295 545 264 510Q233 475 215 427Q197 379 197 323ZM432 712Q505 712 567 686.5Q629 661 674.5 615.5Q720 570 745.5 507.5Q771 445 771 372Q771 288 740 217.5Q709 147 656.5 96Q604 45 535.5 16.5Q467 -12 393 -12Q319 -12 257 13.5Q195 39 150 84.5Q105 130 80 192Q55 254 55 326Q55 410 86 481Q117 552 169 603.5Q221 655 289.5 683.5Q358 712 432 712Z" glyph-name="Ograve" horiz-adv-x="783" unicode="&#210;" /><glyph d="M402 605H295L208 730H359ZM317 -10Q257 -10 206.5 11Q156 32 119.5 68.5Q83 105 62.5 155Q42 205 42 264Q42 330 67 386.5Q92 443 133.5 483.5Q175 524 229.5 547Q284 570 344 570Q404 570 454 549Q504 528 541 491.5Q578 455 598.5 404.5Q619 354 619 295Q619 229 594 173Q569 117 527.5 76.5Q486 36 431.5 13Q377 -10 317 -10ZM320 111Q354 111 384.5 125.5Q415 140 437 165Q459 190 472 224.5Q485 259 485 299Q485 329 475.5 356Q466 383 448 403.5Q430 424 403 436Q376 448 341 448Q306 448 276.5 433.5Q247 419 224.5 394Q202 369 189.5 334.5Q177 300 177 260Q177 230 186.5 202.5Q196 175 214 155Q232 135 258.5 123Q285 111 320 111Z" glyph-name="Ograve.smcp" horiz-adv-x="643" unicode="&#62358;" /><glyph d="M564 942H727L608 769H485ZM368 942H531L410 769H288ZM197 323Q197 280 210 242Q223 204 248.5 175.5Q274 147 311.5 130.5Q349 114 397 114Q446 114 488 133.5Q530 153 561.5 188Q593 223 611 271Q629 319 629 375Q629 418 615.5 456.5Q602 495 576.5 523.5Q551 552 513.5 568.5Q476 585 428 585Q379 585 337 565Q295 545 264 510Q233 475 215 427Q197 379 197 323ZM432 712Q505 712 567 686.5Q629 661 674.5 615.5Q720 570 745.5 507.5Q771 445 771 372Q771 288 740 217.5Q709 147 656.5 96Q604 45 535.5 16.5Q467 -12 393 -12Q319 -12 257 13.5Q195 39 150 84.5Q105 130 80 192Q55 254 55 326Q55 410 86 481Q117 552 169 603.5Q221 655 289.5 683.5Q358 712 432 712Z" glyph-name="Ohungarumlaut" horiz-adv-x="783" unicode="&#336;" /><glyph d="M467 730H618L515 605H408ZM287 730H438L335 605H229ZM317 -10Q257 -10 206.5 11Q156 32 119.5 68.5Q83 105 62.5 155Q42 205 42 264Q42 330 67 386.5Q92 443 133.5 483.5Q175 524 229.5 547Q284 570 344 570Q404 570 454 549Q504 528 541 491.5Q578 455 598.5 404.5Q619 354 619 295Q619 229 594 173Q569 117 527.5 76.5Q486 36 431.5 13Q377 -10 317 -10ZM320 111Q354 111 384.5 125.5Q415 140 437 165Q459 190 472 224.5Q485 259 485 299Q485 329 475.5 356Q466 383 448 403.5Q430 424 403 436Q376 448 341 448Q306 448 276.5 433.5Q247 419 224.5 394Q202 369 189.5 334.5Q177 300 177 260Q177 230 186.5 202.5Q196 175 214 155Q232 135 258.5 123Q285 111 320 111Z" glyph-name="Ohungarumlaut.smcp" horiz-adv-x="643" unicode="&#62485;" /><glyph d="M321 885H629L610 774H302ZM197 323Q197 280 210 242Q223 204 248.5 175.5Q274 147 311.5 130.5Q349 114 397 114Q446 114 488 133.5Q530 153 561.5 188Q593 223 611 271Q629 319 629 375Q629 418 615.5 456.5Q602 495 576.5 523.5Q551 552 513.5 568.5Q476 585 428 585Q379 585 337 565Q295 545 264 510Q233 475 215 427Q197 379 197 323ZM432 712Q505 712 567 686.5Q629 661 674.5 615.5Q720 570 745.5 507.5Q771 445 771 372Q771 288 740 217.5Q709 147 656.5 96Q604 45 535.5 16.5Q467 -12 393 -12Q319 -12 257 13.5Q195 39 150 84.5Q105 130 80 192Q55 254 55 326Q55 410 86 481Q117 552 169 603.5Q221 655 289.5 683.5Q358 712 432 712Z" glyph-name="Omacron" horiz-adv-x="783" unicode="&#332;" /><glyph d="M252 716H517L500 621H235ZM317 -10Q257 -10 206.5 11Q156 32 119.5 68.5Q83 105 62.5 155Q42 205 42 264Q42 330 67 386.5Q92 443 133.5 483.5Q175 524 229.5 547Q284 570 344 570Q404 570 454 549Q504 528 541 491.5Q578 455 598.5 404.5Q619 354 619 295Q619 229 594 173Q569 117 527.5 76.5Q486 36 431.5 13Q377 -10 317 -10ZM320 111Q354 111 384.5 125.5Q415 140 437 165Q459 190 472 224.5Q485 259 485 299Q485 329 475.5 356Q466 383 448 403.5Q430 424 403 436Q376 448 341 448Q306 448 276.5 433.5Q247 419 224.5 394Q202 369 189.5 334.5Q177 300 177 260Q177 230 186.5 202.5Q196 175 214 155Q232 135 258.5 123Q285 111 320 111Z" glyph-name="Omacron.smcp" horiz-adv-x="643" unicode="&#62537;" /><glyph d="M562 441Q562 475 548.5 501.5Q535 528 512.5 547Q490 566 460 576Q430 586 397 586Q365 586 333.5 575.5Q302 565 276.5 542.5Q251 520 235 485.5Q219 451 219 404Q219 374 228.5 350.5Q238 327 254.5 309.5Q271 292 293 280Q315 268 339 262L296 0H48L69 117H197L212 198Q186 206 161 223.5Q136 241 116.5 267.5Q97 294 85.5 329Q74 364 74 407Q74 478 100 534.5Q126 591 170.5 630.5Q215 670 274 691Q333 712 400 712Q458 712 513 694.5Q568 677 611 644Q654 611 680 562Q706 513 706 450Q706 386 686.5 337Q667 288 635.5 253.5Q604 219 565 199Q526 179 486 173L476 117H611L591 0H344L385 258Q421 260 453 272.5Q485 285 509.5 308Q534 331 548 364Q562 397 562 441Z" glyph-name="Omega" horiz-adv-x="711" unicode="&#937;" /><glyph d="M629 375Q629 426 611 468L288 143Q332 114 397 114Q446 114 488 133.5Q530 153 561.5 188Q593 223 611 271Q629 319 629 375ZM197 323Q197 266 220 218L548 548Q525 565 494.5 575Q464 585 428 585Q379 585 337 565Q295 545 264 510Q233 475 215 427Q197 379 197 323ZM432 712Q493 712 546 693.5Q599 675 642 643L711 712H853L712 570Q740 528 755.5 478.5Q771 429 771 372Q771 288 740 217.5Q709 147 656.5 96Q604 45 535.5 16.5Q467 -12 393 -12Q335 -12 285.5 3.5Q236 19 194 48L134 -12H-8L121 118Q89 161 72 213.5Q55 266 55 326Q55 410 86 481Q117 552 169 603.5Q221 655 289.5 683.5Q358 712 432 712Z" glyph-name="Oslash" horiz-adv-x="784" unicode="&#216;" /><glyph d="M320 111Q354 111 384.5 125.5Q415 140 437 165Q459 190 472 224.5Q485 259 485 299Q485 330 475 356L250 127Q280 111 320 111ZM177 260Q177 224 189 196L417 428Q401 437 382.5 442.5Q364 448 341 448Q306 448 276.5 433.5Q247 419 224.5 394Q202 369 189.5 334.5Q177 300 177 260ZM317 -10Q227 -10 159 35L115 -10H-13L93 98Q42 169 42 264Q42 330 67 386.5Q92 443 133.5 483.5Q175 524 229.5 547Q284 570 344 570Q391 570 432 556.5Q473 543 507 520L556 570H685L571 454Q619 386 619 295Q619 229 594 173Q569 117 527.5 76.5Q486 36 431.5 13Q377 -10 317 -10Z" glyph-name="Oslash.smcp" horiz-adv-x="643" unicode="&#62500;" /><glyph d="M396 906Q412 906 429 900Q446 894 461.5 887Q477 880 490.5 874Q504 868 513 868Q533 868 539 892L541 903L640 891Q638 876 634.5 853.5Q631 831 620 809.5Q609 788 587 772.5Q565 757 527 757Q512 757 495 763Q478 769 462 775.5Q446 782 432.5 788Q419 794 411 794Q389 794 385 770L383 758L282 771Q284 786 288 808.5Q292 831 303.5 853Q315 875 336.5 890.5Q358 906 396 906ZM197 323Q197 280 210 242Q223 204 248.5 175.5Q274 147 311.5 130.5Q349 114 397 114Q446 114 488 133.5Q530 153 561.5 188Q593 223 611 271Q629 319 629 375Q629 418 615.5 456.5Q602 495 576.5 523.5Q551 552 513.5 568.5Q476 585 428 585Q379 585 337 565Q295 545 264 510Q233 475 215 427Q197 379 197 323ZM432 712Q505 712 567 686.5Q629 661 674.5 615.5Q720 570 745.5 507.5Q771 445 771 372Q771 288 740 217.5Q709 147 656.5 96Q604 45 535.5 16.5Q467 -12 393 -12Q319 -12 257 13.5Q195 39 150 84.5Q105 130 80 192Q55 254 55 326Q55 410 86 481Q117 552 169 603.5Q221 655 289.5 683.5Q358 712 432 712Z" glyph-name="Otilde" horiz-adv-x="783" unicode="&#213;" /><glyph d="M424 609Q412 609 399 613Q386 617 374.5 622Q363 627 353 631Q343 635 337 635Q330 635 325 631Q320 627 320 618V613H232L235 632Q237 645 242 662Q247 679 258 694.5Q269 710 287 721Q305 732 333 732Q345 732 358 728Q371 724 382.5 719Q394 714 404 710Q414 706 420 706Q427 706 432 710Q437 714 437 723V728H525L522 709Q520 696 515 679Q510 662 499 646.5Q488 631 470 620Q452 609 424 609ZM317 -10Q257 -10 206.5 11Q156 32 119.5 68.5Q83 105 62.5 155Q42 205 42 264Q42 330 67 386.5Q92 443 133.5 483.5Q175 524 229.5 547Q284 570 344 570Q404 570 454 549Q504 528 541 491.5Q578 455 598.5 404.5Q619 354 619 295Q619 229 594 173Q569 117 527.5 76.5Q486 36 431.5 13Q377 -10 317 -10ZM320 111Q354 111 384.5 125.5Q415 140 437 165Q459 190 472 224.5Q485 259 485 299Q485 329 475.5 356Q466 383 448 403.5Q430 424 403 436Q376 448 341 448Q306 448 276.5 433.5Q247 419 224.5 394Q202 369 189.5 334.5Q177 300 177 260Q177 230 186.5 202.5Q196 175 214 155Q232 135 258.5 123Q285 111 320 111Z" glyph-name="Otilde.smcp" horiz-adv-x="643" unicode="&#62359;" /><glyph d="M270 580 231 356H306Q336 356 363.5 362.5Q391 369 412.5 383.5Q434 398 446.5 422Q459 446 459 481Q459 529 424 554.5Q389 580 336 580ZM170 0H34L155 700H355Q409 700 454 683.5Q499 667 531 638Q563 609 580.5 570Q598 531 598 486Q598 430 578.5 384.5Q559 339 522.5 306Q486 273 433.5 255Q381 237 315 237H210Z" glyph-name="P" horiz-adv-x="576" unicode="P" /><glyph d="M247 289Q269 289 290 293Q311 297 327 307Q343 317 352.5 334Q362 351 362 377Q362 412 336 429.5Q310 447 272 447H232L204 289ZM123 560H290Q335 560 372.5 546Q410 532 437 508Q464 484 478.5 451.5Q493 419 493 381Q493 335 477 297.5Q461 260 430.5 233Q400 206 356.5 191.5Q313 177 259 177H185L155 0H27Z" glyph-name="P.smcp" horiz-adv-x="492" unicode="&#62278;" /><glyph d="M197 323Q197 280 210 242Q223 204 248.5 175.5Q274 147 311.5 130.5Q349 114 397 114Q402 114 407.5 114Q413 114 418 115L364 219L487 282L545 172Q584 207 606.5 259Q629 311 629 375Q629 418 615.5 456.5Q602 495 576.5 523.5Q551 552 513.5 568.5Q476 585 428 585Q379 585 337 565Q295 545 264 510Q233 475 215 427Q197 379 197 323ZM432 712Q505 712 567 686.5Q629 661 674.5 615.5Q720 570 745.5 507.5Q771 445 771 372Q771 269 725.5 188Q680 107 607 56L615 42Q626 20 642.5 7Q659 -6 692 -6Q701 -6 710 -5.5Q719 -5 727 -4Q736 -3 744 -1L725 -123Q709 -125 693 -126Q679 -127 664 -127.5Q649 -128 635 -128Q590 -128 557.5 -108Q525 -88 502 -44L480 -1Q436 -12 393 -12Q319 -12 257 13.5Q195 39 150 84.5Q105 130 80 192Q55 254 55 326Q55 410 86 481Q117 552 169 603.5Q221 655 289.5 683.5Q358 712 432 712Z" glyph-name="Q" horiz-adv-x="783" unicode="Q" /><glyph d="M323 111 284 187 400 246 440 168Q461 194 473 227Q485 260 485 299Q485 329 475.5 356Q466 383 448 403.5Q430 424 403 436Q376 448 341 448Q306 448 276.5 433.5Q247 419 224.5 394Q202 369 189.5 334.5Q177 300 177 260Q177 230 186.5 202.5Q196 175 214 155Q232 135 258.5 123Q285 111 320 111ZM317 -10Q257 -10 206.5 11Q156 32 119.5 68.5Q83 105 62.5 155Q42 205 42 264Q42 330 67 386.5Q92 443 133.5 483.5Q175 524 229.5 547Q284 570 344 570Q404 570 454 549Q504 528 541 491.5Q578 455 598.5 404.5Q619 354 619 295Q619 218 586.5 156Q554 94 501 53L506 43Q515 26 529 18Q543 10 566 10Q572 10 579 10.5Q586 11 592 12Q599 13 607 15L586 -100Q571 -102 557 -103Q545 -104 532 -104.5Q519 -105 508 -105Q474 -105 445.5 -88Q417 -71 400 -38L381 -2Q365 -6 349.5 -8Q334 -10 317 -10Z" glyph-name="Q.smcp" horiz-adv-x="643" unicode="&#62279;" /><glyph d="M342 389Q366 389 390.5 395Q415 401 434 413.5Q453 426 465 446.5Q477 467 477 496Q477 535 446 557.5Q415 580 363 580H270L237 389ZM315 268H217L170 0H34L155 700H381Q436 700 479.5 683.5Q523 667 553.5 639Q584 611 600 574.5Q616 538 616 498Q616 468 607.5 436.5Q599 405 579.5 376.5Q560 348 527.5 324.5Q495 301 448 287L583 0H434Z" glyph-name="R" horiz-adv-x="620" unicode="R" /><glyph d="M288 311Q304 311 320 315.5Q336 320 349 329Q362 338 370 352Q378 366 378 386Q378 413 356 431.5Q334 450 296 450H232L208 311ZM123 560H310Q359 560 396.5 546Q434 532 459.5 508Q485 484 498 452.5Q511 421 511 387Q511 363 503.5 338Q496 313 480 290Q464 267 439.5 248.5Q415 230 381 221L475 0H340L260 201H189L155 0H27Z" glyph-name="R.smcp" horiz-adv-x="527" unicode="&#62280;" /><glyph d="M398 942H561L443 769H321ZM342 389Q366 389 390.5 395Q415 401 434 413.5Q453 426 465 446.5Q477 467 477 496Q477 535 446 557.5Q415 580 363 580H270L237 389ZM315 268H217L170 0H34L155 700H381Q436 700 479.5 683.5Q523 667 553.5 639Q584 611 600 574.5Q616 538 616 498Q616 468 607.5 436.5Q599 405 579.5 376.5Q560 348 527.5 324.5Q495 301 448 287L583 0H434Z" glyph-name="Racute" horiz-adv-x="620" unicode="&#340;" /><glyph d="M330 730H481L378 605H271ZM288 311Q304 311 320 315.5Q336 320 349 329Q362 338 370 352Q378 366 378 386Q378 413 356 431.5Q334 450 296 450H232L208 311ZM123 560H310Q359 560 396.5 546Q434 532 459.5 508Q485 484 498 452.5Q511 421 511 387Q511 363 503.5 338Q496 313 480 290Q464 267 439.5 248.5Q415 230 381 221L475 0H340L260 201H189L155 0H27Z" glyph-name="Racute.smcp" horiz-adv-x="527" unicode="&#62360;" /><glyph d="M447 770H316L245 942H363L390 866L440 942H574ZM342 389Q366 389 390.5 395Q415 401 434 413.5Q453 426 465 446.5Q477 467 477 496Q477 535 446 557.5Q415 580 363 580H270L237 389ZM315 268H217L170 0H34L155 700H381Q436 700 479.5 683.5Q523 667 553.5 639Q584 611 600 574.5Q616 538 616 498Q616 468 607.5 436.5Q599 405 579.5 376.5Q560 348 527.5 324.5Q495 301 448 287L583 0H434Z" glyph-name="Rcaron" horiz-adv-x="620" unicode="&#344;" /><glyph d="M372 730H487L392 605H246L197 730H301L327 675ZM288 311Q304 311 320 315.5Q336 320 349 329Q362 338 370 352Q378 366 378 386Q378 413 356 431.5Q334 450 296 450H232L208 311ZM123 560H310Q359 560 396.5 546Q434 532 459.5 508Q485 484 498 452.5Q511 421 511 387Q511 363 503.5 338Q496 313 480 290Q464 267 439.5 248.5Q415 230 381 221L475 0H340L260 201H189L155 0H27Z" glyph-name="Rcaron.smcp" horiz-adv-x="527" unicode="&#62361;" /><glyph d="M192 -117Q192 -102 198 -88.5Q204 -75 214 -64.5Q224 -54 238 -47.5Q252 -41 269 -41Q304 -41 326.5 -64.5Q349 -88 349 -119Q349 -132 343.5 -147Q338 -162 327 -176L252 -270L166 -254L215 -173Q204 -162 198 -147.5Q192 -133 192 -117ZM342 389Q366 389 390.5 395Q415 401 434 413.5Q453 426 465 446.5Q477 467 477 496Q477 535 446 557.5Q415 580 363 580H270L237 389ZM315 268H217L170 0H34L155 700H381Q436 700 479.5 683.5Q523 667 553.5 639Q584 611 600 574.5Q616 538 616 498Q616 468 607.5 436.5Q599 405 579.5 376.5Q560 348 527.5 324.5Q495 301 448 287L583 0H434Z" glyph-name="Rcommaaccent" horiz-adv-x="620" unicode="&#342;" /><glyph d="M152 -103Q152 -72 173.5 -54Q195 -36 222 -36Q256 -36 274 -57Q292 -78 292 -104Q292 -131 274 -154L199 -245L125 -232L171 -149Q152 -130 152 -103ZM288 311Q304 311 320 315.5Q336 320 349 329Q362 338 370 352Q378 366 378 386Q378 413 356 431.5Q334 450 296 450H232L208 311ZM123 560H310Q359 560 396.5 546Q434 532 459.5 508Q485 484 498 452.5Q511 421 511 387Q511 363 503.5 338Q496 313 480 290Q464 267 439.5 248.5Q415 230 381 221L475 0H340L260 201H189L155 0H27Z" glyph-name="Rcommaaccent.smcp" horiz-adv-x="527" unicode="&#62464;" /><glyph d="M484 510Q452 552 411 574Q370 596 328 596Q302 596 284.5 589Q267 582 256.5 571.5Q246 561 241 548Q236 535 236 523Q236 500 249.5 481Q263 462 291 444L369 393Q442 345 477.5 299Q513 253 513 194Q513 150 494.5 112Q476 74 444 46.5Q412 19 368.5 3.5Q325 -12 275 -12Q222 -12 178 1Q134 14 99.5 33Q65 52 40.5 74Q16 96 1 114L90 208Q105 189 125 171Q145 153 169 138.5Q193 124 219.5 115.5Q246 107 274 107Q325 107 350 131Q375 155 375 190Q375 220 349.5 242.5Q324 265 272 298L219 332Q154 374 125.5 419Q97 464 97 513Q97 560 115.5 597Q134 634 165.5 659.5Q197 685 239.5 698.5Q282 712 329 712Q400 712 465 682Q530 652 576 592Z" glyph-name="S" horiz-adv-x="551" unicode="S" /><glyph d="M231 -12Q185 -12 146.5 -0.5Q108 11 78.5 27Q49 43 29.5 59.5Q10 76 1 87L77 176Q88 162 105 148Q122 134 143 122Q164 110 187 102.5Q210 95 233 95Q265 95 285 110Q305 125 305 148Q305 171 286.5 186.5Q268 202 237 220L176 255Q117 289 94.5 327.5Q72 366 72 408Q72 439 85 468Q98 497 123 519Q148 541 184 554Q220 567 266 567Q327 567 384.5 542.5Q442 518 485 467L400 389Q372 424 335.5 442Q299 460 267 460Q248 460 235.5 455Q223 450 216 442.5Q209 435 206 426.5Q203 418 203 411Q203 381 242 359L316 315Q342 299 364 283Q386 267 402 248.5Q418 230 427 207Q436 184 436 154Q436 123 423.5 93Q411 63 386 40Q361 17 322 2.5Q283 -12 231 -12Z" glyph-name="S.smcp" horiz-adv-x="481" unicode="&#62281;" /><glyph d="M357 942H520L402 769H280ZM484 510Q452 552 411 574Q370 596 328 596Q302 596 284.5 589Q267 582 256.5 571.5Q246 561 241 548Q236 535 236 523Q236 500 249.5 481Q263 462 291 444L369 393Q442 345 477.5 299Q513 253 513 194Q513 150 494.5 112Q476 74 444 46.5Q412 19 368.5 3.5Q325 -12 275 -12Q222 -12 178 1Q134 14 99.5 33Q65 52 40.5 74Q16 96 1 114L90 208Q105 189 125 171Q145 153 169 138.5Q193 124 219.5 115.5Q246 107 274 107Q325 107 350 131Q375 155 375 190Q375 220 349.5 242.5Q324 265 272 298L219 332Q154 374 125.5 419Q97 464 97 513Q97 560 115.5 597Q134 634 165.5 659.5Q197 685 239.5 698.5Q282 712 329 712Q400 712 465 682Q530 652 576 592Z" glyph-name="Sacute" horiz-adv-x="551" unicode="&#346;" /><glyph d="M298 730H449L346 605H239ZM231 -12Q185 -12 146.5 -0.5Q108 11 78.5 27Q49 43 29.5 59.5Q10 76 1 87L77 176Q88 162 105 148Q122 134 143 122Q164 110 187 102.5Q210 95 233 95Q265 95 285 110Q305 125 305 148Q305 171 286.5 186.5Q268 202 237 220L176 255Q117 289 94.5 327.5Q72 366 72 408Q72 439 85 468Q98 497 123 519Q148 541 184 554Q220 567 266 567Q327 567 384.5 542.5Q442 518 485 467L400 389Q372 424 335.5 442Q299 460 267 460Q248 460 235.5 455Q223 450 216 442.5Q209 435 206 426.5Q203 418 203 411Q203 381 242 359L316 315Q342 299 364 283Q386 267 402 248.5Q418 230 427 207Q436 184 436 154Q436 123 423.5 93Q411 63 386 40Q361 17 322 2.5Q283 -12 231 -12Z" glyph-name="Sacute.smcp" horiz-adv-x="481" unicode="&#62465;" /><glyph d="M417 769H286L215 941H333L360 865L410 941H544ZM484 510Q452 552 411 574Q370 596 328 596Q302 596 284.5 589Q267 582 256.5 571.5Q246 561 241 548Q236 535 236 523Q236 500 249.5 481Q263 462 291 444L369 393Q442 345 477.5 299Q513 253 513 194Q513 150 494.5 112Q476 74 444 46.5Q412 19 368.5 3.5Q325 -12 275 -12Q222 -12 178 1Q134 14 99.5 33Q65 52 40.5 74Q16 96 1 114L90 208Q105 189 125 171Q145 153 169 138.5Q193 124 219.5 115.5Q246 107 274 107Q325 107 350 131Q375 155 375 190Q375 220 349.5 242.5Q324 265 272 298L219 332Q154 374 125.5 419Q97 464 97 513Q97 560 115.5 597Q134 634 165.5 659.5Q197 685 239.5 698.5Q282 712 329 712Q400 712 465 682Q530 652 576 592Z" glyph-name="Scaron" horiz-adv-x="551" unicode="&#352;" /><glyph d="M352 730H467L372 605H226L177 730H281L307 675ZM231 -12Q185 -12 146.5 -0.5Q108 11 78.5 27Q49 43 29.5 59.5Q10 76 1 87L77 176Q88 162 105 148Q122 134 143 122Q164 110 187 102.5Q210 95 233 95Q265 95 285 110Q305 125 305 148Q305 171 286.5 186.5Q268 202 237 220L176 255Q117 289 94.5 327.5Q72 366 72 408Q72 439 85 468Q98 497 123 519Q148 541 184 554Q220 567 266 567Q327 567 384.5 542.5Q442 518 485 467L400 389Q372 424 335.5 442Q299 460 267 460Q248 460 235.5 455Q223 450 216 442.5Q209 435 206 426.5Q203 418 203 411Q203 381 242 359L316 315Q342 299 364 283Q386 267 402 248.5Q418 230 427 207Q436 184 436 154Q436 123 423.5 93Q411 63 386 40Q361 17 322 2.5Q283 -12 231 -12Z" glyph-name="Scaron.smcp" horiz-adv-x="481" unicode="&#62466;" /><glyph d="M156 8Q99 28 60.5 58Q22 88 2 114L91 208Q106 189 126 171Q146 153 170 138.5Q194 124 220.5 115.5Q247 107 275 107Q326 107 351 131Q376 155 376 190Q376 220 350.5 242.5Q325 265 273 298L220 332Q155 374 126.5 419Q98 464 98 513Q98 560 116.5 597Q135 634 166.5 659.5Q198 685 240.5 698.5Q283 712 330 712Q401 712 466 682Q531 652 577 592L485 510Q453 552 412 574Q371 596 329 596Q303 596 285.5 589Q268 582 257.5 571.5Q247 561 242 548Q237 535 237 523Q237 500 250.5 481Q264 462 292 444L370 393Q443 345 478.5 299Q514 253 514 194Q514 152 497 115.5Q480 79 450.5 52Q421 25 380.5 8.5Q340 -8 293 -11L207 -136H77Z" glyph-name="Scedilla" horiz-adv-x="553" unicode="&#350;" /><glyph d="M155 -2Q125 5 100 17Q75 29 55.5 41.5Q36 54 22.5 66.5Q9 79 3 87L79 176Q90 162 107 148Q124 134 145 122Q166 110 189 102.5Q212 95 235 95Q267 95 287 110Q307 125 307 148Q307 171 288.5 186.5Q270 202 239 220L178 255Q119 289 96.5 327.5Q74 366 74 408Q74 439 87 468Q100 497 125 519Q150 541 186 554Q222 567 268 567Q329 567 386.5 542.5Q444 518 487 467L402 389Q374 424 337.5 442Q301 460 269 460Q250 460 237.5 455Q225 450 218 442.5Q211 435 208 426.5Q205 418 205 411Q205 381 244 359L318 315Q344 299 366 283Q388 267 404 248.5Q420 230 429 207Q438 184 438 154Q438 127 428.5 101Q419 75 400 53Q381 31 352 15Q323 -1 284 -8L207 -132H100Z" glyph-name="Scedilla.smcp" horiz-adv-x="483" unicode="&#62467;" /><glyph d="M323 942H454L525 770H407L380 846L330 770H196ZM484 510Q452 552 411 574Q370 596 328 596Q302 596 284.5 589Q267 582 256.5 571.5Q246 561 241 548Q236 535 236 523Q236 500 249.5 481Q263 462 291 444L369 393Q442 345 477.5 299Q513 253 513 194Q513 150 494.5 112Q476 74 444 46.5Q412 19 368.5 3.5Q325 -12 275 -12Q222 -12 178 1Q134 14 99.5 33Q65 52 40.5 74Q16 96 1 114L90 208Q105 189 125 171Q145 153 169 138.5Q193 124 219.5 115.5Q246 107 274 107Q325 107 350 131Q375 155 375 190Q375 220 349.5 242.5Q324 265 272 298L219 332Q154 374 125.5 419Q97 464 97 513Q97 560 115.5 597Q134 634 165.5 659.5Q197 685 239.5 698.5Q282 712 329 712Q400 712 465 682Q530 652 576 592Z" glyph-name="Scircumflex" horiz-adv-x="551" unicode="&#348;" /><glyph d="M321 660 275 605H161L256 730H402L451 605H346ZM231 -12Q185 -12 146.5 -0.5Q108 11 78.5 27Q49 43 29.5 59.5Q10 76 1 87L77 176Q88 162 105 148Q122 134 143 122Q164 110 187 102.5Q210 95 233 95Q265 95 285 110Q305 125 305 148Q305 171 286.5 186.5Q268 202 237 220L176 255Q117 289 94.5 327.5Q72 366 72 408Q72 439 85 468Q98 497 123 519Q148 541 184 554Q220 567 266 567Q327 567 384.5 542.5Q442 518 485 467L400 389Q372 424 335.5 442Q299 460 267 460Q248 460 235.5 455Q223 450 216 442.5Q209 435 206 426.5Q203 418 203 411Q203 381 242 359L316 315Q342 299 364 283Q386 267 402 248.5Q418 230 427 207Q436 184 436 154Q436 123 423.5 93Q411 63 386 40Q361 17 322 2.5Q283 -12 231 -12Z" glyph-name="Scircumflex.smcp" horiz-adv-x="481" unicode="&#62468;" /><glyph d="M130 -117Q130 -102 136 -88.5Q142 -75 152 -64.5Q162 -54 176 -47.5Q190 -41 207 -41Q242 -41 264.5 -64.5Q287 -88 287 -119Q287 -132 281.5 -147Q276 -162 265 -176L190 -270L104 -254L153 -173Q142 -162 136 -147.5Q130 -133 130 -117ZM484 510Q452 552 411 574Q370 596 328 596Q302 596 284.5 589Q267 582 256.5 571.5Q246 561 241 548Q236 535 236 523Q236 500 249.5 481Q263 462 291 444L369 393Q442 345 477.5 299Q513 253 513 194Q513 150 494.5 112Q476 74 444 46.5Q412 19 368.5 3.5Q325 -12 275 -12Q222 -12 178 1Q134 14 99.5 33Q65 52 40.5 74Q16 96 1 114L90 208Q105 189 125 171Q145 153 169 138.5Q193 124 219.5 115.5Q246 107 274 107Q325 107 350 131Q375 155 375 190Q375 220 349.5 242.5Q324 265 272 298L219 332Q154 374 125.5 419Q97 464 97 513Q97 560 115.5 597Q134 634 165.5 659.5Q197 685 239.5 698.5Q282 712 329 712Q400 712 465 682Q530 652 576 592Z" glyph-name="Scommaaccent" horiz-adv-x="551" unicode="&#536;" /><glyph d="M126 -103Q126 -72 147.5 -54Q169 -36 196 -36Q230 -36 248 -57Q266 -78 266 -104Q266 -131 248 -154L173 -245L99 -232L145 -149Q126 -130 126 -103ZM231 -12Q185 -12 146.5 -0.5Q108 11 78.5 27Q49 43 29.5 59.5Q10 76 1 87L77 176Q88 162 105 148Q122 134 143 122Q164 110 187 102.5Q210 95 233 95Q265 95 285 110Q305 125 305 148Q305 171 286.5 186.5Q268 202 237 220L176 255Q117 289 94.5 327.5Q72 366 72 408Q72 439 85 468Q98 497 123 519Q148 541 184 554Q220 567 266 567Q327 567 384.5 542.5Q442 518 485 467L400 389Q372 424 335.5 442Q299 460 267 460Q248 460 235.5 455Q223 450 216 442.5Q209 435 206 426.5Q203 418 203 411Q203 381 242 359L316 315Q342 299 364 283Q386 267 402 248.5Q418 230 427 207Q436 184 436 154Q436 123 423.5 93Q411 63 386 40Q361 17 322 2.5Q283 -12 231 -12Z" glyph-name="Scommaaccent.smcp" horiz-adv-x="481" unicode="&#62469;" /><glyph d="M641 700 620 576H416L316 0H181L280 576H75L97 700Z" glyph-name="T" horiz-adv-x="572" unicode="T" /><glyph d="M216 442H54L75 560H524L504 442H344L268 0H140Z" glyph-name="T.smcp" horiz-adv-x="482" unicode="&#62288;" /><glyph d="M644 700 623 576H419L391 416H515L494 298H370L319 0H184L235 298H114L135 416H255L283 576H78L100 700Z" glyph-name="Tbar" horiz-adv-x="580" unicode="&#358;" /><glyph d="M110 341H200L218 442H56L77 560H526L506 442H346L328 341H420L401 230H309L270 0H142L181 230H91Z" glyph-name="Tbar.smcp" horiz-adv-x="488" unicode="&#62470;" /><glyph d="M435 770H304L233 942H351L378 866L428 942H562ZM641 700 620 576H416L316 0H181L280 576H75L97 700Z" glyph-name="Tcaron" horiz-adv-x="572" unicode="&#356;" /><glyph d="M359 730H474L379 605H233L184 730H288L314 675ZM216 442H54L75 560H524L504 442H344L268 0H140Z" glyph-name="Tcaron.smcp" horiz-adv-x="482" unicode="&#62471;" /><glyph d="M153 -117Q153 -102 159 -88.5Q165 -75 175 -64.5Q185 -54 199 -47.5Q213 -41 230 -41Q265 -41 287.5 -64.5Q310 -88 310 -119Q310 -132 304.5 -147Q299 -162 288 -176L213 -270L127 -254L176 -173Q165 -162 159 -147.5Q153 -133 153 -117ZM641 700 620 576H416L316 0H181L280 576H75L97 700Z" glyph-name="Tcommaaccent" horiz-adv-x="572" unicode="&#354;" /><glyph d="M114 -103Q114 -72 135.5 -54Q157 -36 184 -36Q218 -36 236 -57Q254 -78 254 -104Q254 -131 236 -154L161 -245L87 -232L133 -149Q114 -130 114 -103ZM216 442H54L75 560H524L504 442H344L268 0H140Z" glyph-name="Tcommaaccent.smcp" horiz-adv-x="482" unicode="&#62308;" /><glyph d="M211 242H287Q317 242 344.5 248Q372 254 393 268.5Q414 283 426.5 307Q439 331 439 367Q439 415 404.5 441Q370 467 316 467H250ZM169 0H34L155 700H290L271 586H335Q389 586 434 569.5Q479 553 511 524Q543 495 560.5 456Q578 417 578 372Q578 317 559 271Q540 225 503.5 192Q467 159 414.5 141Q362 123 295 123H191Z" glyph-name="Thorn" horiz-adv-x="578" unicode="&#222;" /><glyph d="M234 206Q256 206 276.5 210Q297 214 312.5 223.5Q328 233 337.5 250Q347 267 347 294Q347 328 321.5 346Q296 364 257 364H216L189 206ZM124 560H250L237 476H274Q320 476 357.5 462Q395 448 422 424Q449 400 463.5 367.5Q478 335 478 297Q478 252 462 214.5Q446 177 416 150Q386 123 342.5 108Q299 93 244 93H170L153 0H27Z" glyph-name="Thorn.smcp" horiz-adv-x="493" unicode="&#62472;" /><glyph d="M283 700 208 259Q203 233 207 207.5Q211 182 224 161.5Q237 141 259 128.5Q281 116 313 116Q372 116 405.5 149.5Q439 183 448 237L527 700H660L575 209Q567 162 546 121.5Q525 81 492.5 51.5Q460 22 415 5Q370 -12 314 -12Q255 -12 205.5 7.5Q156 27 122.5 63Q89 99 75 149.5Q61 200 72 261L147 700Z" glyph-name="U" horiz-adv-x="645" unicode="U" /><glyph d="M259 -10Q209 -10 167.5 6.5Q126 23 98.5 53Q71 83 59.5 124.5Q48 166 58 216L116 560H244L185 205Q178 163 197.5 134.5Q217 106 259 106Q301 106 323.5 131.5Q346 157 353 199L417 560H542L474 168Q467 130 450 97.5Q433 65 406 41Q379 17 342 3.5Q305 -10 259 -10Z" glyph-name="U.smcp" horiz-adv-x="545" unicode="&#62289;" /><glyph d="M421 941H584L466 768H344ZM283 700 208 259Q203 233 207 207.5Q211 182 224 161.5Q237 141 259 128.5Q281 116 313 116Q372 116 405.5 149.5Q439 183 448 237L527 700H660L575 209Q567 162 546 121.5Q525 81 492.5 51.5Q460 22 415 5Q370 -12 314 -12Q255 -12 205.5 7.5Q156 27 122.5 63Q89 99 75 149.5Q61 200 72 261L147 700Z" glyph-name="Uacute" horiz-adv-x="645" unicode="&#218;" /><glyph d="M341 730H492L389 605H282ZM259 -10Q209 -10 167.5 6.5Q126 23 98.5 53Q71 83 59.5 124.5Q48 166 58 216L116 560H244L185 205Q178 163 197.5 134.5Q217 106 259 106Q301 106 323.5 131.5Q346 157 353 199L417 560H542L474 168Q467 130 450 97.5Q433 65 406 41Q379 17 342 3.5Q305 -10 259 -10Z" glyph-name="Uacute.smcp" horiz-adv-x="545" unicode="&#62473;" /><glyph d="M462 923H564L556 869Q550 833 536 808Q522 783 502 767Q482 751 456 744Q430 737 401 737Q372 737 346 746Q320 755 302 773Q284 791 275.5 817.5Q267 844 273 878L281 923H383L375 872Q372 855 380.5 843.5Q389 832 409 832Q429 832 439.5 843Q450 854 453 871ZM283 700 208 259Q203 233 207 207.5Q211 182 224 161.5Q237 141 259 128.5Q281 116 313 116Q372 116 405.5 149.5Q439 183 448 237L527 700H660L575 209Q567 162 546 121.5Q525 81 492.5 51.5Q460 22 415 5Q370 -12 314 -12Q255 -12 205.5 7.5Q156 27 122.5 63Q89 99 75 149.5Q61 200 72 261L147 700Z" glyph-name="Ubreve" horiz-adv-x="645" unicode="&#364;" /><glyph d="M347 696Q377 696 383 733H478L477 721Q472 659 433.5 632.5Q395 606 340 606Q315 606 292 613.5Q269 621 253 635.5Q237 650 229.5 672Q222 694 228 723L230 733H321L320 729Q317 712 324.5 704Q332 696 347 696ZM259 -10Q209 -10 167.5 6.5Q126 23 98.5 53Q71 83 59.5 124.5Q48 166 58 216L116 560H244L185 205Q178 163 197.5 134.5Q217 106 259 106Q301 106 323.5 131.5Q346 157 353 199L417 560H542L474 168Q467 130 450 97.5Q433 65 406 41Q379 17 342 3.5Q305 -10 259 -10Z" glyph-name="Ubreve.smcp" horiz-adv-x="545" unicode="&#62480;" /><glyph d="M368 941H499L570 769H452L425 845L375 769H241ZM283 700 208 259Q203 233 207 207.5Q211 182 224 161.5Q237 141 259 128.5Q281 116 313 116Q372 116 405.5 149.5Q439 183 448 237L527 700H660L575 209Q567 162 546 121.5Q525 81 492.5 51.5Q460 22 415 5Q370 -12 314 -12Q255 -12 205.5 7.5Q156 27 122.5 63Q89 99 75 149.5Q61 200 72 261L147 700Z" glyph-name="Ucircumflex" horiz-adv-x="645" unicode="&#219;" /><glyph d="M349 660 303 605H189L284 730H430L479 605H374ZM259 -10Q209 -10 167.5 6.5Q126 23 98.5 53Q71 83 59.5 124.5Q48 166 58 216L116 560H244L185 205Q178 163 197.5 134.5Q217 106 259 106Q301 106 323.5 131.5Q346 157 353 199L417 560H542L474 168Q467 130 450 97.5Q433 65 406 41Q379 17 342 3.5Q305 -10 259 -10Z" glyph-name="Ucircumflex.smcp" horiz-adv-x="545" unicode="&#62481;" /><glyph d="M429 825Q429 841 435 855Q441 869 451.5 879.5Q462 890 476 896.5Q490 903 506 903Q538 903 561.5 880Q585 857 585 825Q585 793 561.5 770Q538 747 506 747Q490 747 476 753.5Q462 760 451.5 770.5Q441 781 435 795Q429 809 429 825ZM237 825Q237 841 243 855Q249 869 259.5 879.5Q270 890 284.5 896.5Q299 903 315 903Q347 903 370.5 880Q394 857 394 825Q394 793 370.5 770Q347 747 315 747Q299 747 284.5 753.5Q270 760 259.5 770.5Q249 781 243 795Q237 809 237 825ZM283 700 208 259Q203 233 207 207.5Q211 182 224 161.5Q237 141 259 128.5Q281 116 313 116Q372 116 405.5 149.5Q439 183 448 237L527 700H660L575 209Q567 162 546 121.5Q525 81 492.5 51.5Q460 22 415 5Q370 -12 314 -12Q255 -12 205.5 7.5Q156 27 122.5 63Q89 99 75 149.5Q61 200 72 261L147 700Z" glyph-name="Udieresis" horiz-adv-x="645" unicode="&#220;" /><glyph d="M351 679Q351 706 372 726.5Q393 747 421 747Q434 747 446.5 741.5Q459 736 468.5 726.5Q478 717 483.5 704.5Q489 692 489 679Q489 652 468 632Q447 612 421 612Q393 612 372 632Q351 652 351 679ZM192 679Q192 692 198 704.5Q204 717 213.5 726.5Q223 736 235.5 741.5Q248 747 261 747Q288 747 309 726.5Q330 706 330 679Q330 652 309 632Q288 612 261 612Q248 612 235.5 617.5Q223 623 213.5 632Q204 641 198 653Q192 665 192 679ZM259 -10Q209 -10 167.5 6.5Q126 23 98.5 53Q71 83 59.5 124.5Q48 166 58 216L116 560H244L185 205Q178 163 197.5 134.5Q217 106 259 106Q301 106 323.5 131.5Q346 157 353 199L417 560H542L474 168Q467 130 450 97.5Q433 65 406 41Q379 17 342 3.5Q305 -10 259 -10Z" glyph-name="Udieresis.smcp" horiz-adv-x="545" unicode="&#62529;" /><glyph d="M466 768H346L243 941H406ZM283 700 208 259Q203 233 207 207.5Q211 182 224 161.5Q237 141 259 128.5Q281 116 313 116Q372 116 405.5 149.5Q439 183 448 237L527 700H660L575 209Q567 162 546 121.5Q525 81 492.5 51.5Q460 22 415 5Q370 -12 314 -12Q255 -12 205.5 7.5Q156 27 122.5 63Q89 99 75 149.5Q61 200 72 261L147 700Z" glyph-name="Ugrave" horiz-adv-x="645" unicode="&#217;" /><glyph d="M388 605H281L194 730H345ZM259 -10Q209 -10 167.5 6.5Q126 23 98.5 53Q71 83 59.5 124.5Q48 166 58 216L116 560H244L185 205Q178 163 197.5 134.5Q217 106 259 106Q301 106 323.5 131.5Q346 157 353 199L417 560H542L474 168Q467 130 450 97.5Q433 65 406 41Q379 17 342 3.5Q305 -10 259 -10Z" glyph-name="Ugrave.smcp" horiz-adv-x="545" unicode="&#62530;" /><glyph d="M516 942H679L560 769H437ZM320 942H483L362 769H240ZM283 700 208 259Q203 233 207 207.5Q211 182 224 161.5Q237 141 259 128.5Q281 116 313 116Q372 116 405.5 149.5Q439 183 448 237L527 700H660L575 209Q567 162 546 121.5Q525 81 492.5 51.5Q460 22 415 5Q370 -12 314 -12Q255 -12 205.5 7.5Q156 27 122.5 63Q89 99 75 149.5Q61 200 72 261L147 700Z" glyph-name="Uhungarumlaut" horiz-adv-x="645" unicode="&#368;" /><glyph d="M425 730H576L473 605H366ZM245 730H396L293 605H187ZM259 -10Q209 -10 167.5 6.5Q126 23 98.5 53Q71 83 59.5 124.5Q48 166 58 216L116 560H244L185 205Q178 163 197.5 134.5Q217 106 259 106Q301 106 323.5 131.5Q346 157 353 199L417 560H542L474 168Q467 130 450 97.5Q433 65 406 41Q379 17 342 3.5Q305 -10 259 -10Z" glyph-name="Uhungarumlaut.smcp" horiz-adv-x="545" unicode="&#62486;" /><glyph d="M278 885H586L567 774H259ZM283 700 208 259Q203 233 207 207.5Q211 182 224 161.5Q237 141 259 128.5Q281 116 313 116Q372 116 405.5 149.5Q439 183 448 237L527 700H660L575 209Q567 162 546 121.5Q525 81 492.5 51.5Q460 22 415 5Q370 -12 314 -12Q255 -12 205.5 7.5Q156 27 122.5 63Q89 99 75 149.5Q61 200 72 261L147 700Z" glyph-name="Umacron" horiz-adv-x="645" unicode="&#362;" /><glyph d="M222 716H487L470 621H205ZM259 -10Q209 -10 167.5 6.5Q126 23 98.5 53Q71 83 59.5 124.5Q48 166 58 216L116 560H244L185 205Q178 163 197.5 134.5Q217 106 259 106Q301 106 323.5 131.5Q346 157 353 199L417 560H542L474 168Q467 130 450 97.5Q433 65 406 41Q379 17 342 3.5Q305 -10 259 -10Z" glyph-name="Umacron.smcp" horiz-adv-x="545" unicode="&#62531;" /><glyph d="M283 700 208 259Q203 233 207 207.5Q211 182 224 161.5Q237 141 259 128.5Q281 116 313 116Q372 116 405.5 149.5Q439 183 448 237L527 700H660L575 209Q567 164 547.5 124.5Q528 85 497.5 56Q467 27 425 9.5Q383 -8 331 -11Q274 -52 274 -83Q274 -97 285.5 -104Q297 -111 312 -111Q330 -111 351 -106.5Q372 -102 386 -97L367 -174Q343 -185 318 -191.5Q293 -198 257 -198Q210 -198 179.5 -175.5Q149 -153 149 -113Q149 -93 157.5 -76Q166 -59 179.5 -45.5Q193 -32 211 -22Q229 -12 247 -5Q201 5 164.5 28Q128 51 104 85.5Q80 120 71 164.5Q62 209 72 261L147 700Z" glyph-name="Uogonek" horiz-adv-x="646" unicode="&#370;" /><glyph d="M475 168Q462 96 414 47Q366 -2 284 -9Q246 -32 243 -56Q240 -72 251.5 -79Q263 -86 276 -86Q291 -86 304 -83.5Q317 -81 324 -79L310 -147Q307 -148 282.5 -154.5Q258 -161 223 -161Q175 -161 147.5 -140Q120 -119 126 -84Q131 -58 150.5 -37.5Q170 -17 207 -4Q168 4 137 23.5Q106 43 85.5 71.5Q65 100 57.5 136.5Q50 173 59 216L117 560H245L186 205Q179 163 198.5 134.5Q218 106 260 106Q302 106 324.5 131.5Q347 157 354 199L418 560H543Z" glyph-name="Uogonek.smcp" horiz-adv-x="546" unicode="&#62532;" /><glyph d="M458 858Q458 880 444.5 894Q431 908 411 908Q391 908 377 894Q363 880 363 859Q363 836 377 821.5Q391 807 411 807Q431 807 444.5 821.5Q458 836 458 858ZM285 858Q285 884 294.5 906Q304 928 321 944Q338 960 361 969Q384 978 410 978Q436 978 459 969Q482 960 499.5 944.5Q517 929 527 907Q537 885 537 858Q537 832 527 810Q517 788 500 771.5Q483 755 460 746Q437 737 411 737Q384 737 361 746Q338 755 321 771.5Q304 788 294.5 810Q285 832 285 858ZM283 700 208 259Q203 233 207 207.5Q211 182 224 161.5Q237 141 259 128.5Q281 116 313 116Q372 116 405.5 149.5Q439 183 448 237L527 700H660L575 209Q567 162 546 121.5Q525 81 492.5 51.5Q460 22 415 5Q370 -12 314 -12Q255 -12 205.5 7.5Q156 27 122.5 63Q89 99 75 149.5Q61 200 72 261L147 700Z" glyph-name="Uring" horiz-adv-x="645" unicode="&#366;" /><glyph d="M341 655Q357 655 367.5 666.5Q378 678 378 695Q378 712 367.5 724Q357 736 341 736Q324 736 313.5 724Q303 712 303 695Q303 678 313.5 666.5Q324 655 341 655ZM341 596Q319 596 300 603.5Q281 611 266.5 624.5Q252 638 244 656Q236 674 236 695Q236 739 266 767Q296 795 341 795Q386 795 415.5 767Q445 739 445 695Q445 674 437 656Q429 638 415 624.5Q401 611 382 603.5Q363 596 341 596ZM259 -10Q209 -10 167.5 6.5Q126 23 98.5 53Q71 83 59.5 124.5Q48 166 58 216L116 560H244L185 205Q178 163 197.5 134.5Q217 106 259 106Q301 106 323.5 131.5Q346 157 353 199L417 560H542L474 168Q467 130 450 97.5Q433 65 406 41Q379 17 342 3.5Q305 -10 259 -10Z" glyph-name="Uring.smcp" horiz-adv-x="545" unicode="&#62533;" /><glyph d="M345 907Q361 907 378 901Q395 895 410.5 888Q426 881 439.5 875Q453 869 462 869Q482 869 488 893L490 904L589 892Q587 877 583.5 854.5Q580 832 569 810.5Q558 789 536 773.5Q514 758 476 758Q461 758 444 764Q427 770 411 776.5Q395 783 381.5 789Q368 795 360 795Q338 795 334 771L332 759L231 772Q233 787 237 809.5Q241 832 252.5 854Q264 876 285.5 891.5Q307 907 345 907ZM283 700 208 259Q203 233 207 207.5Q211 182 224 161.5Q237 141 259 128.5Q281 116 313 116Q372 116 405.5 149.5Q439 183 448 237L527 700H660L575 209Q567 162 546 121.5Q525 81 492.5 51.5Q460 22 415 5Q370 -12 314 -12Q255 -12 205.5 7.5Q156 27 122.5 63Q89 99 75 149.5Q61 200 72 261L147 700Z" glyph-name="Utilde" horiz-adv-x="645" unicode="&#360;" /><glyph d="M392 609Q380 609 367 613Q354 617 342.5 622Q331 627 321 631Q311 635 305 635Q298 635 293 631Q288 627 288 618V613H200L203 632Q205 645 210 662Q215 679 226 694.5Q237 710 255 721Q273 732 301 732Q313 732 326 728Q339 724 350.5 719Q362 714 372 710Q382 706 388 706Q395 706 400 710Q405 714 405 723V728H493L490 709Q488 696 483 679Q478 662 467 646.5Q456 631 438 620Q420 609 392 609ZM259 -10Q209 -10 167.5 6.5Q126 23 98.5 53Q71 83 59.5 124.5Q48 166 58 216L116 560H244L185 205Q178 163 197.5 134.5Q217 106 259 106Q301 106 323.5 131.5Q346 157 353 199L417 560H542L474 168Q467 130 450 97.5Q433 65 406 41Q379 17 342 3.5Q305 -10 259 -10Z" glyph-name="Utilde.smcp" horiz-adv-x="545" unicode="&#62544;" /><glyph d="M100 700H242L280 181H281L564 700H712L318 0H170Z" glyph-name="V" horiz-adv-x="626" unicode="V" /><glyph d="M74 560H208L230 176H232L441 560H580L264 0H128Z" glyph-name="V.smcp" horiz-adv-x="523" unicode="&#62290;" /><glyph d="M635 700 650 199H651L877 700H1020L691 0H531L521 510L272 0H116L107 700H245L242 199H243L488 700Z" glyph-name="W" horiz-adv-x="951" unicode="W" /><glyph d="M85 560H215L209 198H211L387 560H517L530 198H532L697 560H831L565 0H420L407 372L228 0H91Z" glyph-name="W.smcp" horiz-adv-x="789" unicode="&#62291;" /><glyph d="M591 942H754L636 769H514ZM635 700 650 199H651L877 700H1020L691 0H531L521 510L272 0H116L107 700H245L242 199H243L488 700Z" glyph-name="Wacute" horiz-adv-x="951" unicode="&#7810;" /><glyph d="M471 730H622L519 605H412ZM85 560H215L209 198H211L387 560H517L530 198H532L697 560H831L565 0H420L407 372L228 0H91Z" glyph-name="Wacute.smcp" horiz-adv-x="789" unicode="&#62297;" /><glyph d="M527 942H658L729 770H611L584 846L534 770H400ZM635 700 650 199H651L877 700H1020L691 0H531L521 510L272 0H116L107 700H245L242 199H243L488 700Z" glyph-name="Wcircumflex" horiz-adv-x="951" unicode="&#372;" /><glyph d="M467 660 421 605H307L402 730H548L597 605H492ZM85 560H215L209 198H211L387 560H517L530 198H532L697 560H831L565 0H420L407 372L228 0H91Z" glyph-name="Wcircumflex.smcp" horiz-adv-x="789" unicode="&#62545;" /><glyph d="M587 826Q587 842 593 856Q599 870 609.5 880.5Q620 891 634 897.5Q648 904 664 904Q696 904 719.5 881Q743 858 743 826Q743 794 719.5 771Q696 748 664 748Q648 748 634 754.5Q620 761 609.5 771.5Q599 782 593 796Q587 810 587 826ZM395 826Q395 842 401 856Q407 870 417.5 880.5Q428 891 442.5 897.5Q457 904 473 904Q505 904 528.5 881Q552 858 552 826Q552 794 528.5 771Q505 748 473 748Q457 748 442.5 754.5Q428 761 417.5 771.5Q407 782 401 796Q395 810 395 826ZM635 700 650 199H651L877 700H1020L691 0H531L521 510L272 0H116L107 700H245L242 199H243L488 700Z" glyph-name="Wdieresis" horiz-adv-x="951" unicode="&#7812;" /><glyph d="M478 679Q478 706 499 726.5Q520 747 548 747Q561 747 573.5 741.5Q586 736 595.5 726.5Q605 717 610.5 704.5Q616 692 616 679Q616 652 595 632Q574 612 548 612Q520 612 499 632Q478 652 478 679ZM319 679Q319 692 325 704.5Q331 717 340.5 726.5Q350 736 362.5 741.5Q375 747 388 747Q415 747 436 726.5Q457 706 457 679Q457 652 436 632Q415 612 388 612Q375 612 362.5 617.5Q350 623 340.5 632Q331 641 325 653Q319 665 319 679ZM85 560H215L209 198H211L387 560H517L530 198H532L697 560H831L565 0H420L407 372L228 0H91Z" glyph-name="Wdieresis.smcp" horiz-adv-x="789" unicode="&#62304;" /><glyph d="M617 769H497L394 942H557ZM635 700 650 199H651L877 700H1020L691 0H531L521 510L272 0H116L107 700H245L242 199H243L488 700Z" glyph-name="Wgrave" horiz-adv-x="951" unicode="&#7808;" /><glyph d="M500 605H393L306 730H457ZM85 560H215L209 198H211L387 560H517L530 198H532L697 560H831L565 0H420L407 372L228 0H91Z" glyph-name="Wgrave.smcp" horiz-adv-x="789" unicode="&#62305;" /><glyph d="M410 348 575 0H424L316 248L129 0H-37L247 354L90 700H242L344 455L528 700H691Z" glyph-name="X" horiz-adv-x="615" unicode="X" /><glyph d="M193 283 72 560H215L285 381L414 560H567L347 278L474 0H333L258 182L126 0H-30Z" glyph-name="X.smcp" horiz-adv-x="522" unicode="&#62292;" /><glyph d="M81 700H233L354 434H359L571 700H738L410 307L356 0H220L273 304Z" glyph-name="Y" horiz-adv-x="659" unicode="Y" /><glyph d="M221 241 71 560H211L298 366H303L454 560H610L350 244L307 0H179Z" glyph-name="Y.smcp" horiz-adv-x="569" unicode="&#62293;" /><glyph d="M419 941H582L464 768H342ZM81 700H233L354 434H359L571 700H738L410 307L356 0H220L273 304Z" glyph-name="Yacute" horiz-adv-x="659" unicode="&#221;" /><glyph d="M336 730H487L384 605H277ZM221 241 71 560H211L298 366H303L454 560H610L350 244L307 0H179Z" glyph-name="Yacute.smcp" horiz-adv-x="569" unicode="&#62482;" /><glyph d="M367 942H498L569 770H451L424 846L374 770H240ZM81 700H233L354 434H359L571 700H738L410 307L356 0H220L273 304Z" glyph-name="Ycircumflex" horiz-adv-x="659" unicode="&#374;" /><glyph d="M355 660 309 605H195L290 730H436L485 605H380ZM221 241 71 560H211L298 366H303L454 560H610L350 244L307 0H179Z" glyph-name="Ycircumflex.smcp" horiz-adv-x="569" unicode="&#62546;" /><glyph d="M418 825Q418 841 424 855Q430 869 440.5 879.5Q451 890 465 896.5Q479 903 495 903Q527 903 550.5 880Q574 857 574 825Q574 793 550.5 770Q527 747 495 747Q479 747 465 753.5Q451 760 440.5 770.5Q430 781 424 795Q418 809 418 825ZM226 825Q226 841 232 855Q238 869 248.5 879.5Q259 890 273.5 896.5Q288 903 304 903Q336 903 359.5 880Q383 857 383 825Q383 793 359.5 770Q336 747 304 747Q288 747 273.5 753.5Q259 760 248.5 770.5Q238 781 232 795Q226 809 226 825ZM81 700H233L354 434H359L571 700H738L410 307L356 0H220L273 304Z" glyph-name="Ydieresis" horiz-adv-x="659" unicode="&#376;" /><glyph d="M356 679Q356 706 377 726.5Q398 747 426 747Q439 747 451.5 741.5Q464 736 473.5 726.5Q483 717 488.5 704.5Q494 692 494 679Q494 652 473 632Q452 612 426 612Q398 612 377 632Q356 652 356 679ZM197 679Q197 692 203 704.5Q209 717 218.5 726.5Q228 736 240.5 741.5Q253 747 266 747Q293 747 314 726.5Q335 706 335 679Q335 652 314 632Q293 612 266 612Q253 612 240.5 617.5Q228 623 218.5 632Q209 641 203 653Q197 665 197 679ZM221 241 71 560H211L298 366H303L454 560H610L350 244L307 0H179Z" glyph-name="Ydieresis.smcp" horiz-adv-x="569" unicode="&#62547;" /><glyph d="M467 769H347L244 942H407ZM81 700H233L354 434H359L571 700H738L410 307L356 0H220L273 304Z" glyph-name="Ygrave" horiz-adv-x="659" unicode="&#7922;" /><glyph d="M385 605H278L191 730H342ZM221 241 71 560H211L298 366H303L454 560H610L350 244L307 0H179Z" glyph-name="Ygrave.smcp" horiz-adv-x="569" unicode="&#62306;" /><glyph d="M102 576 123 700H667L646 581L193 123H567L546 0H-5L15 114L473 576Z" glyph-name="Z" horiz-adv-x="622" unicode="Z" /><glyph d="M16 107 365 442H79L99 560H549L528 448L187 117H471L452 0H-3Z" glyph-name="Z.smcp" horiz-adv-x="530" unicode="&#62294;" /><glyph d="M399 942H562L444 769H322ZM102 576 123 700H667L646 581L193 123H567L546 0H-5L15 114L473 576Z" glyph-name="Zacute" horiz-adv-x="622" unicode="&#377;" /><glyph d="M324 730H475L372 605H265ZM16 107 365 442H79L99 560H549L528 448L187 117H471L452 0H-3Z" glyph-name="Zacute.smcp" horiz-adv-x="530" unicode="&#62483;" /><glyph d="M453 769H322L251 941H369L396 865L446 941H580ZM102 576 123 700H667L646 581L193 123H567L546 0H-5L15 114L473 576Z" glyph-name="Zcaron" horiz-adv-x="622" unicode="&#381;" /><glyph d="M383 730H498L403 605H257L208 730H312L338 675ZM16 107 365 442H79L99 560H549L528 448L187 117H471L452 0H-3Z" glyph-name="Zcaron.smcp" horiz-adv-x="530" unicode="&#62549;" /><glyph d="M312 856Q312 893 337.5 918.5Q363 944 399 944Q436 944 461.5 918.5Q487 893 487 856Q487 820 461.5 794.5Q436 769 399 769Q363 769 337.5 794.5Q312 820 312 856ZM102 576 123 700H667L646 581L193 123H567L546 0H-5L15 114L473 576Z" glyph-name="Zdotaccent" horiz-adv-x="622" unicode="&#379;" /><glyph d="M270 679Q270 706 291 726.5Q312 747 339 747Q366 747 386.5 726.5Q407 706 407 679Q407 652 386.5 632Q366 612 339 612Q312 612 291 632Q270 652 270 679ZM16 107 365 442H79L99 560H549L528 448L187 117H471L452 0H-3Z" glyph-name="Zdotaccent.smcp" horiz-adv-x="530" unicode="&#62548;" /><glyph d="M261 100Q286 100 308.5 111Q331 122 347.5 141Q364 160 374 186Q384 212 384 242Q384 290 356 323Q328 356 281 356Q255 356 232.5 345Q210 334 193.5 315Q177 296 167 270Q157 244 157 213Q157 165 185 132.5Q213 100 261 100ZM415 378Q415 415 423 453L424 458H552L473 0H345L356 54Q339 28 306 8Q273 -12 225 -12Q181 -12 145 4.5Q109 21 83.5 50Q58 79 43.5 119Q29 159 29 206Q29 265 48 313.5Q67 362 99.5 397Q132 432 174.5 451Q217 470 265 470Q293 470 317.5 462Q342 454 361.5 441Q381 428 394.5 411.5Q408 395 415 378Z" glyph-name="a" horiz-adv-x="568" unicode="a" /><glyph d="M341 700H504L386 527H264ZM261 100Q286 100 308.5 111Q331 122 347.5 141Q364 160 374 186Q384 212 384 242Q384 290 356 323Q328 356 281 356Q255 356 232.5 345Q210 334 193.5 315Q177 296 167 270Q157 244 157 213Q157 165 185 132.5Q213 100 261 100ZM415 378Q415 415 423 453L424 458H552L473 0H345L356 54Q339 28 306 8Q273 -12 225 -12Q181 -12 145 4.5Q109 21 83.5 50Q58 79 43.5 119Q29 159 29 206Q29 265 48 313.5Q67 362 99.5 397Q132 432 174.5 451Q217 470 265 470Q293 470 317.5 462Q342 454 361.5 441Q381 428 394.5 411.5Q408 395 415 378Z" glyph-name="aacute" horiz-adv-x="568" unicode="&#225;" /><glyph d="M407 681H509L501 627Q495 591 481 566Q467 541 447 525Q427 509 401 502Q375 495 346 495Q317 495 291 504Q265 513 247 531Q229 549 220.5 575.5Q212 602 218 636L226 681H328L320 630Q317 613 325.5 601.5Q334 590 354 590Q374 590 384.5 601Q395 612 398 629ZM261 100Q286 100 308.5 111Q331 122 347.5 141Q364 160 374 186Q384 212 384 242Q384 290 356 323Q328 356 281 356Q255 356 232.5 345Q210 334 193.5 315Q177 296 167 270Q157 244 157 213Q157 165 185 132.5Q213 100 261 100ZM415 378Q415 415 423 453L424 458H552L473 0H345L356 54Q339 28 306 8Q273 -12 225 -12Q181 -12 145 4.5Q109 21 83.5 50Q58 79 43.5 119Q29 159 29 206Q29 265 48 313.5Q67 362 99.5 397Q132 432 174.5 451Q217 470 265 470Q293 470 317.5 462Q342 454 361.5 441Q381 428 394.5 411.5Q408 395 415 378Z" glyph-name="abreve" horiz-adv-x="568" unicode="&#259;" /><glyph d="M283 700H414L485 528H367L340 604L290 528H156ZM261 100Q286 100 308.5 111Q331 122 347.5 141Q364 160 374 186Q384 212 384 242Q384 290 356 323Q328 356 281 356Q255 356 232.5 345Q210 334 193.5 315Q177 296 167 270Q157 244 157 213Q157 165 185 132.5Q213 100 261 100ZM415 378Q415 415 423 453L424 458H552L473 0H345L356 54Q339 28 306 8Q273 -12 225 -12Q181 -12 145 4.5Q109 21 83.5 50Q58 79 43.5 119Q29 159 29 206Q29 265 48 313.5Q67 362 99.5 397Q132 432 174.5 451Q217 470 265 470Q293 470 317.5 462Q342 454 361.5 441Q381 428 394.5 411.5Q408 395 415 378Z" glyph-name="acircumflex" horiz-adv-x="568" unicode="&#226;" /><glyph d="M160 700H323L205 527H83Z" glyph-name="acute" horiz-adv-x="255" unicode="&#180;" /><glyph d="M208 730H359L256 605H149Z" glyph-name="acute.smcp" horiz-adv-x="350" unicode="&#63412;" /><glyph d="M353 584Q353 600 359 614Q365 628 375.5 638.5Q386 649 400 655.5Q414 662 430 662Q462 662 485.5 639Q509 616 509 584Q509 552 485.5 529Q462 506 430 506Q414 506 400 512.5Q386 519 375.5 529.5Q365 540 359 554Q353 568 353 584ZM161 584Q161 600 167 614Q173 628 183.5 638.5Q194 649 208.5 655.5Q223 662 239 662Q271 662 294.5 639Q318 616 318 584Q318 552 294.5 529Q271 506 239 506Q223 506 208.5 512.5Q194 519 183.5 529.5Q173 540 167 554Q161 568 161 584ZM261 100Q286 100 308.5 111Q331 122 347.5 141Q364 160 374 186Q384 212 384 242Q384 290 356 323Q328 356 281 356Q255 356 232.5 345Q210 334 193.5 315Q177 296 167 270Q157 244 157 213Q157 165 185 132.5Q213 100 261 100ZM415 378Q415 415 423 453L424 458H552L473 0H345L356 54Q339 28 306 8Q273 -12 225 -12Q181 -12 145 4.5Q109 21 83.5 50Q58 79 43.5 119Q29 159 29 206Q29 265 48 313.5Q67 362 99.5 397Q132 432 174.5 451Q217 470 265 470Q293 470 317.5 462Q342 454 361.5 441Q381 428 394.5 411.5Q408 395 415 378Z" glyph-name="adieresis" horiz-adv-x="568" unicode="&#228;" /><glyph d="M552 362Q516 362 485.5 340.5Q455 319 444 278H642Q640 314 616 338Q592 362 552 362ZM203 82Q240 82 269.5 110.5Q299 139 303 199Q297 192 287 190Q277 188 266 188H215Q183 188 162 176.5Q141 165 141 136Q141 113 157.5 97.5Q174 82 203 82ZM530 -12Q468 -12 421 13.5Q374 39 346 85Q337 66 322 48.5Q307 31 285 17.5Q263 4 234.5 -4Q206 -12 169 -12Q133 -12 103.5 -1Q74 10 53 29.5Q32 49 20.5 75Q9 101 9 130Q9 170 22.5 198Q36 226 59.5 243Q83 260 115 267.5Q147 275 184 275H279Q299 275 310 284Q321 293 321 313Q321 334 302 346Q283 358 248 358Q210 358 174 347.5Q138 337 110 320L73 425Q122 448 166 459Q210 470 264 470Q309 470 347 456.5Q385 443 408 417Q437 442 474 456Q511 470 553 470Q597 470 637 455Q677 440 707.5 410.5Q738 381 756 337Q774 293 774 235Q774 221 773.5 210Q773 199 772 191H436Q438 151 465 125Q492 99 533 99Q562 99 585 111.5Q608 124 622 145L757 126Q730 62 669 25Q608 -12 530 -12Z" glyph-name="ae" horiz-adv-x="799" unicode="&#230;" /><glyph d="M188 360Q242 414 271.5 472.5Q301 531 301 594Q301 609 298 626Q295 643 287.5 657.5Q280 672 268 681Q256 690 239 690Q220 690 204 675Q188 660 188 620ZM327 588Q327 548 315.5 512.5Q304 477 285.5 445Q267 413 242 384.5Q217 356 190 330V99Q190 77 196 61.5Q202 46 211.5 36.5Q221 27 233.5 22.5Q246 18 259 18Q320 18 331 91H351Q347 59 333 39Q319 19 301.5 8Q284 -3 265.5 -7Q247 -11 234 -11Q207 -11 182 -3Q157 5 137.5 25Q118 45 106 79Q94 113 94 164V250Q85 242 75 235Q67 229 58 222Q49 215 42 210L25 229Q38 238 50 247Q62 256 72 264Q82 272 88 276.5Q94 281 94 281V541Q94 620 127 666.5Q160 713 225 713Q276 713 301.5 680Q327 647 327 588Z" glyph-name="afii61289" horiz-adv-x="398" unicode="&#8467;" /><glyph d="M375 527H255L152 700H315ZM261 100Q286 100 308.5 111Q331 122 347.5 141Q364 160 374 186Q384 212 384 242Q384 290 356 323Q328 356 281 356Q255 356 232.5 345Q210 334 193.5 315Q177 296 167 270Q157 244 157 213Q157 165 185 132.5Q213 100 261 100ZM415 378Q415 415 423 453L424 458H552L473 0H345L356 54Q339 28 306 8Q273 -12 225 -12Q181 -12 145 4.5Q109 21 83.5 50Q58 79 43.5 119Q29 159 29 206Q29 265 48 313.5Q67 362 99.5 397Q132 432 174.5 451Q217 470 265 470Q293 470 317.5 462Q342 454 361.5 441Q381 428 394.5 411.5Q408 395 415 378Z" glyph-name="agrave" horiz-adv-x="568" unicode="&#224;" /><glyph d="M205 643H513L494 532H186ZM261 100Q286 100 308.5 111Q331 122 347.5 141Q364 160 374 186Q384 212 384 242Q384 290 356 323Q328 356 281 356Q255 356 232.5 345Q210 334 193.5 315Q177 296 167 270Q157 244 157 213Q157 165 185 132.5Q213 100 261 100ZM415 378Q415 415 423 453L424 458H552L473 0H345L356 54Q339 28 306 8Q273 -12 225 -12Q181 -12 145 4.5Q109 21 83.5 50Q58 79 43.5 119Q29 159 29 206Q29 265 48 313.5Q67 362 99.5 397Q132 432 174.5 451Q217 470 265 470Q293 470 317.5 462Q342 454 361.5 441Q381 428 394.5 411.5Q408 395 415 378Z" glyph-name="amacron" horiz-adv-x="568" unicode="&#257;" /><glyph d="M166 186Q166 151 190 130Q214 109 246 109Q271 109 296.5 122.5Q322 136 343 166L243 298Q202 271 184 242.5Q166 214 166 186ZM376 474Q382 482 387.5 498.5Q393 515 393 529Q393 562 373 579Q353 596 328 596Q302 596 280 578.5Q258 561 258 524Q258 498 271.5 472Q285 446 302 424L420 267Q437 296 454 329Q471 362 482 385H636Q621 356 604 326Q587 296 569 267.5Q551 239 533 213Q515 187 499 166L620 5L619 0H463L412 69Q343 -12 231 -12Q187 -12 150 3Q113 18 86 43.5Q59 69 44 103.5Q29 138 29 177Q29 242 67.5 297Q106 352 175 390Q155 416 141 451Q127 486 127 526Q127 557 139 590Q151 623 175.5 650Q200 677 238.5 694.5Q277 712 331 712Q372 712 406.5 698.5Q441 685 466 663Q491 641 505 612.5Q519 584 519 553Q519 521 508 496Q497 471 490 462Z" glyph-name="ampersand" horiz-adv-x="656" unicode="&amp;" /><glyph d="M219 224Q193 212 179 194.5Q165 177 165 156Q165 132 181.5 118Q198 104 221 104Q238 104 255.5 113Q273 122 284 138ZM203 -10Q163 -10 131 3.5Q99 17 77 39.5Q55 62 43.5 90Q32 118 32 148Q32 202 64 244.5Q96 287 153 310Q139 329 127 354.5Q115 380 115 419Q115 440 123.5 466Q132 492 152 515Q172 538 205.5 554Q239 570 290 570Q325 570 354.5 558.5Q384 547 405 528Q426 509 438 483Q450 457 450 429Q450 406 444 390Q438 374 433 367L319 380Q322 385 325 395Q328 405 328 414Q328 437 315 448Q302 459 286 459Q269 459 256.5 447.5Q244 436 244 414Q244 385 273 346L358 229Q364 238 370 249Q376 260 382 272Q388 284 393.5 294.5Q399 305 403 313H550Q537 290 522 265.5Q507 241 491.5 217.5Q476 194 461.5 173Q447 152 435 137L539 5L538 0H390L351 51Q325 23 289 6.5Q253 -10 203 -10Z" glyph-name="ampersand.smcp" horiz-adv-x="574" unicode="&#58369;" /><glyph d="M261 100Q286 100 308.5 111Q331 122 347.5 141Q364 160 374 186Q384 212 384 242Q384 290 356 323Q328 356 281 356Q255 356 232.5 345Q210 334 193.5 315Q177 296 167 270Q157 244 157 213Q157 165 185 132.5Q213 100 261 100ZM415 378Q415 415 423 453L424 458H552L473 0H460Q421 -24 403 -44.5Q385 -65 385 -83Q385 -97 396.5 -104Q408 -111 423 -111Q441 -111 462 -106.5Q483 -102 497 -97L478 -174Q454 -185 429 -191.5Q404 -198 368 -198Q321 -198 290.5 -175.5Q260 -153 260 -113Q260 -91 270 -73Q280 -55 296.5 -40.5Q313 -26 333.5 -16Q354 -6 374 0H345L356 54Q339 28 306 8Q273 -12 225 -12Q181 -12 145 4.5Q109 21 83.5 50Q58 79 43.5 119Q29 159 29 206Q29 265 48 313.5Q67 362 99.5 397Q132 432 174.5 451Q217 470 265 470Q293 470 317.5 462Q342 454 361.5 441Q381 428 394.5 411.5Q408 395 415 378Z" glyph-name="aogonek" horiz-adv-x="568" unicode="&#261;" /><glyph d="M262 636Q262 651 268 664.5Q274 678 284 688.5Q294 699 308 705.5Q322 712 339 712Q374 712 396.5 688.5Q419 665 419 634Q419 621 413.5 606Q408 591 397 577L322 483L236 499L285 580Q274 591 268 605.5Q262 620 262 636Z" glyph-name="apostrophe" horiz-adv-x="525" unicode="&#700;" /><glyph d="M458 655Q458 641 466.5 631.5Q475 622 489 622Q503 622 512 632Q521 642 521 654Q521 668 512 677.5Q503 687 489 687Q475 687 466.5 677.5Q458 668 458 655ZM602 3Q602 -11 611 -20.5Q620 -30 634 -30Q648 -30 657 -20Q666 -10 666 2Q666 16 657 25.5Q648 35 634 35Q620 35 611 25.5Q602 16 602 3ZM859 613 918 645 943 595Q949 583 943 571Q937 559 926 553Q914 548 902.5 549Q891 550 885 561ZM262 412 376 372Q384 369 390.5 372Q397 375 399 383Q402 390 399 397Q396 404 388 406L273 447L288 494Q290 502 287 508.5Q284 515 276 517Q269 519 262.5 516Q256 513 254 505L211 373Q209 366 211.5 359Q214 352 222 350Q230 348 236.5 351Q243 354 245 362ZM290 575Q282 573 278 567Q274 561 276 553Q278 545 284 541Q290 537 298 539L402 562L411 540Q409 536 406.5 531.5Q404 527 404 522Q404 511 411.5 503.5Q419 496 430 496Q441 496 447 504Q455 511 454.5 520.5Q454 530 451 538L388 697Q385 704 378.5 707Q372 710 364 707Q358 704 354.5 697.5Q351 691 354 683L388 597ZM634 506Q586 506 542 520Q562 555 585.5 588.5Q609 622 636 650Q661 624 684 591Q707 558 729 521Q685 506 634 506ZM1027 492Q1024 499 1016 502Q1009 504 1003 501L874 439Q857 431 864 415L911 310Q914 303 921 300.5Q928 298 935 301Q943 304 945.5 311Q948 318 945 324L905 414L938 429L953 396Q956 389 963 386.5Q970 384 977 387Q993 394 986 411L971 445L1002 460L1034 388Q1037 381 1044 378.5Q1051 376 1058 379Q1064 382 1067 389Q1070 396 1066 403ZM853 545Q864 523 888 515Q917 507 943 522Q969 536 978 562Q987 588 975 611L942 678Q939 686 931 687.5Q923 689 917 686L782 612Q775 608 773 601Q771 594 775 587Q779 580 786 578Q793 576 800 580L827 595ZM783 97Q783 105 778 110Q773 115 765 115H586Q611 128 641.5 146Q672 164 698 187.5Q724 211 741.5 240Q759 269 759 304Q759 327 751 349Q743 371 727.5 388.5Q712 406 689 417Q666 428 636 428Q609 428 585 419.5Q561 411 543 396Q525 381 515 359.5Q505 338 505 312Q505 295 511 278.5Q517 262 528.5 248.5Q540 235 556 227Q572 219 592 219Q605 219 619 223Q633 227 644 236Q655 245 662.5 259Q670 273 670 292Q670 318 657 327Q644 336 634 336Q620 336 610.5 326.5Q601 317 601 304Q601 287 616 277Q617 275 613 265Q609 255 590 255Q567 255 555 274.5Q543 294 543 313Q543 349 568 371Q593 393 634 393Q677 393 698 365.5Q719 338 719 305Q719 282 709.5 262.5Q700 243 684.5 225.5Q669 208 649.5 193.5Q630 179 611 166Q573 142 543 127.5Q513 113 511 110Q501 100 506 90Q512 79 523 79H764Q783 79 783 97ZM854 751Q957 751 1026 682Q1066 643 1087.5 588Q1109 533 1109 473Q1109 402 1084.5 339Q1060 276 1025 223Q963 133 860 53Q822 23 785.5 -1.5Q749 -26 718.5 -44Q688 -62 665.5 -74Q643 -86 634 -90Q625 -86 602.5 -74Q580 -62 550 -44Q520 -26 483.5 -1Q447 24 409 54Q306 135 245 226Q206 283 184 346.5Q162 410 162 474Q162 535 184 590Q206 645 246 684Q317 752 418 752Q475 752 524 729.5Q573 707 611 675Q556 619 511 540Q485 495 465 449.5Q445 404 430 361.5Q415 319 404.5 282.5Q394 246 388 221L338 231Q331 233 325 229Q319 225 317 218Q315 211 319 205.5Q323 200 331 198L466 169Q473 167 478.5 171Q484 175 486 182Q489 199 473 203L425 213Q430 234 438.5 264.5Q447 295 459.5 331Q472 367 488 407Q504 447 525 487Q577 468 634 468Q692 468 746 488Q766 449 782 409Q798 369 810 333Q822 297 830.5 265.5Q839 234 844 212L796 202Q780 198 782 182Q784 174 790 170Q796 166 803 168L938 196Q945 198 949 203.5Q953 209 951 216Q950 224 944 228Q938 232 931 230L882 220Q882 221 881.5 221.5Q881 222 881 223Q874 248 863.5 284.5Q853 321 838 363.5Q823 406 803 452Q783 498 758 543Q715 621 663 674Q705 710 753 730.5Q801 751 854 751ZM1146 474Q1146 541 1121.5 602Q1097 663 1052 708Q970 787 854 787Q788 787 733.5 762.5Q679 738 636 700Q586 743 531 765.5Q476 788 415 788Q301 788 220 710Q175 665 150 603.5Q125 542 125 473Q125 400 150 331.5Q175 263 215 205Q248 157 290 112Q332 67 386 25Q431 -11 473 -38.5Q515 -66 548 -85Q581 -104 602 -113.5Q623 -123 625 -124Q634 -128 643 -124Q645 -123 666 -113.5Q687 -104 720.5 -85Q754 -66 796.5 -39Q839 -12 884 24Q938 66 980 110.5Q1022 155 1055 203Q1097 266 1121.5 334.5Q1146 403 1146 474ZM1089 734Q1137 684 1163.5 615.5Q1190 547 1190 473Q1190 400 1167.5 332Q1145 264 1106.5 202Q1068 140 1016.5 85.5Q965 31 907 -15Q849 -61 786.5 -98Q724 -135 665 -162Q647 -170 634 -170Q621 -170 603 -162Q541 -134 478 -96Q415 -58 357 -11Q299 36 248.5 91Q198 146 161 207.5Q124 269 102.5 336.5Q81 404 81 475Q81 550 108 618.5Q135 687 183 737Q229 784 289.5 807Q350 830 418 830Q485 830 540.5 806Q596 782 640 744Q688 787 742.5 807.5Q797 828 857 828Q924 828 984 804.5Q1044 781 1089 734Z" glyph-name="apple" horiz-adv-x="1200" unicode="&#63743;" /><glyph d="M370 172Q353 172 323 178.5Q293 185 263 193.5Q233 202 208 208.5Q183 215 175 215Q161 215 154 206Q147 197 143 174H26L34 222Q36 234 41 254Q46 274 58.5 293.5Q71 313 95 327.5Q119 342 158 342Q175 342 205 335.5Q235 329 265 320.5Q295 312 320 305.5Q345 299 353 299Q367 299 373.5 308Q380 317 384 340H502L494 292Q492 280 487 259.5Q482 239 469 219.5Q456 200 432.5 186Q409 172 370 172ZM410 377Q393 377 363 383.5Q333 390 303 398.5Q273 407 248 413.5Q223 420 215 420Q201 420 194 411Q187 402 183 379H66L74 427Q76 439 81 459Q86 479 98.5 498.5Q111 518 135 532.5Q159 547 198 547Q215 547 245 540.5Q275 534 305 525.5Q335 517 360 510.5Q385 504 393 504Q407 504 413.5 513Q420 522 424 545H542L534 497Q532 485 527 464.5Q522 444 509 424.5Q496 405 472.5 391Q449 377 410 377Z" glyph-name="approxequal" horiz-adv-x="520" unicode="&#8776;" /><glyph d="M350 300Q336 300 314.5 305Q293 310 271 316Q249 322 231 327Q213 332 207 332Q197 332 191 325.5Q185 319 182 301H73L81 356Q82 367 86 383Q90 399 100.5 414Q111 429 130.5 440Q150 451 183 451Q196 451 218 446Q240 441 262 435.5Q284 430 302 425Q320 420 326 420Q336 420 341.5 426Q347 432 350 450H460L452 396Q450 385 446 368.5Q442 352 431.5 337Q421 322 401.5 311Q382 300 350 300ZM318 127Q304 127 282.5 132Q261 137 239 143Q217 149 199 154Q181 159 175 159Q165 159 159 152.5Q153 146 150 129H41L49 183Q50 194 54 210.5Q58 227 68.5 242Q79 257 98.5 268Q118 279 151 279Q164 279 186 274Q208 269 230 263Q252 257 270 252Q288 247 294 247Q304 247 309.5 253Q315 259 318 277H428L420 223Q418 212 414 195.5Q410 179 399.5 164Q389 149 369.5 138Q350 127 318 127Z" glyph-name="approxequal.smcp" horiz-adv-x="479" unicode="&#62005;" /><glyph d="M379 616Q379 638 365.5 652Q352 666 332 666Q312 666 298 652Q284 638 284 617Q284 594 298 579.5Q312 565 332 565Q352 565 365.5 579.5Q379 594 379 616ZM206 616Q206 642 215.5 664Q225 686 242 702Q259 718 282 727Q305 736 331 736Q357 736 380 727Q403 718 420.5 702.5Q438 687 448 665Q458 643 458 616Q458 590 448 568Q438 546 421 529.5Q404 513 381 504Q358 495 332 495Q305 495 282 504Q259 513 242 529.5Q225 546 215.5 568Q206 590 206 616ZM261 100Q286 100 308.5 111Q331 122 347.5 141Q364 160 374 186Q384 212 384 242Q384 290 356 323Q328 356 281 356Q255 356 232.5 345Q210 334 193.5 315Q177 296 167 270Q157 244 157 213Q157 165 185 132.5Q213 100 261 100ZM415 378Q415 415 423 453L424 458H552L473 0H345L356 54Q339 28 306 8Q273 -12 225 -12Q181 -12 145 4.5Q109 21 83.5 50Q58 79 43.5 119Q29 159 29 206Q29 265 48 313.5Q67 362 99.5 397Q132 432 174.5 451Q217 470 265 470Q293 470 317.5 462Q342 454 361.5 441Q381 428 394.5 411.5Q408 395 415 378Z" glyph-name="aring" horiz-adv-x="568" unicode="&#229;" /><glyph d="M393 293 542 428 625 343 332 66 38 343 121 428 270 293V653H393Z" glyph-name="arrow.down" horiz-adv-x="664" unicode="&#62245;" /><glyph d="M393 66H270V426L121 291L38 376L332 653L625 376L542 291L393 426Z" glyph-name="arrow.up" horiz-adv-x="664" unicode="&#62244;" /><glyph d="M312 237 513 227 511 108 108 120 96 523 215 525 225 324 480 579 567 492Z" glyph-name="arrowdown.left" horiz-adv-x="664" unicode="&#62248;" /><glyph d="M96 492 183 579 438 324 448 525 567 523 555 120 152 108 150 227 351 237Z" glyph-name="arrowdown.right" horiz-adv-x="664" unicode="&#62249;" /><glyph d="M567 195 480 108 225 363 215 162 96 164 108 567 511 579 513 460 312 450Z" glyph-name="arrowup.left" horiz-adv-x="664" unicode="&#62246;" /><glyph d="M351 450 150 460 152 579 555 567 567 164 448 162 438 363 183 108 96 195Z" glyph-name="arrowup.right" horiz-adv-x="664" unicode="&#62247;" /><glyph d="M278 700H435L494 225H367L335 562L181 225H48Z" glyph-name="asciicircum" horiz-adv-x="540" unicode="^" /><glyph d="M390 271Q373 271 343 277.5Q313 284 283 292.5Q253 301 228 307.5Q203 314 195 314Q181 314 174 305Q167 296 163 273H46L54 321Q56 333 61 353Q66 373 78.5 392.5Q91 412 115 426.5Q139 441 178 441Q195 441 225 434.5Q255 428 285 419.5Q315 411 340 404.5Q365 398 373 398Q387 398 393.5 407Q400 416 404 439H522L514 391Q512 379 507 358.5Q502 338 489 318.5Q476 299 452.5 285Q429 271 390 271Z" glyph-name="asciitilde" horiz-adv-x="520" unicode="~" /><glyph d="M248 492Q244 471 256.5 454Q269 437 289 433Q311 429 328 441Q345 453 349 474Q353 495 340.5 512Q328 529 307 533Q286 537 269 525Q252 513 248 492ZM377 469Q396 461 418 451.5Q440 442 458 430.5Q476 419 486 403.5Q496 388 493 368Q488 342 468 329Q448 316 427 320Q415 322 402 331.5Q389 341 375.5 354.5Q362 368 349 384Q336 400 324 416Q325 406 327 392Q329 378 330.5 363.5Q332 349 332 336Q332 323 331 315Q326 287 309 270.5Q292 254 260 259Q227 265 216 287Q205 309 210 336Q211 345 216 357Q221 369 227.5 382Q234 395 240.5 407Q247 419 252 428Q235 418 217 407.5Q199 397 181.5 389Q164 381 149 376.5Q134 372 122 374Q101 378 86 397Q71 416 76 442Q80 462 95 472.5Q110 483 131 488Q152 493 175.5 494.5Q199 496 220 497Q200 505 178.5 514.5Q157 524 139 535.5Q121 547 111 562.5Q101 578 104 598Q109 624 129 637Q149 650 170 646Q182 644 195 634.5Q208 625 221.5 611.5Q235 598 248 582Q261 566 273 550Q271 560 269.5 574Q268 588 266.5 602.5Q265 617 264.5 630Q264 643 266 651Q271 679 288.5 695.5Q306 712 338 706Q370 701 381 679Q392 657 387 630Q385 621 380.5 609Q376 597 369.5 584Q363 571 356.5 559Q350 547 345 538Q362 548 380 558.5Q398 569 415 577Q432 585 447.5 589.5Q463 594 475 592Q496 588 511 569Q526 550 521 524Q517 504 502 493.5Q487 483 466 478Q445 473 421.5 471.5Q398 470 377 469Z" glyph-name="asterisk" horiz-adv-x="512" unicode="*" /><glyph d="M450 102Q475 102 497.5 113Q520 124 536.5 143Q553 162 563 188Q573 214 573 244Q573 292 545 325Q517 358 469 358Q444 358 421.5 347Q399 336 382.5 317Q366 298 356 272Q346 246 346 215Q346 167 374 134.5Q402 102 450 102ZM681 116Q677 93 682 80Q687 67 707 67Q737 67 760.5 89.5Q784 112 800.5 146.5Q817 181 826 222.5Q835 264 835 301Q835 366 811.5 419.5Q788 473 746 511.5Q704 550 645 571Q586 592 515 592Q439 592 369.5 564.5Q300 537 247.5 485.5Q195 434 163.5 360.5Q132 287 132 194Q132 121 156.5 62.5Q181 4 225.5 -37.5Q270 -79 332 -101Q394 -123 469 -123Q515 -123 561.5 -112.5Q608 -102 644 -80L762 -98Q702 -146 624 -172Q546 -198 465 -198Q370 -198 292 -168.5Q214 -139 158.5 -87Q103 -35 73 36.5Q43 108 43 193Q43 301 80.5 388.5Q118 476 182.5 538Q247 600 333 633.5Q419 667 517 667Q596 667 668 642Q740 617 795 570.5Q850 524 882 457Q914 390 914 306Q914 237 897.5 179Q881 121 850 79Q819 37 775 13.5Q731 -10 677 -10Q647 -10 625 -3Q603 4 588 14.5Q573 25 564 38Q555 51 551 62Q534 33 498 11.5Q462 -10 414 -10Q370 -10 334 6.5Q298 23 272.5 52Q247 81 232.5 121Q218 161 218 208Q218 267 237 315.5Q256 364 288 399Q320 434 363 453Q406 472 453 472Q481 472 506 464Q531 456 550.5 443Q570 430 583.5 413.5Q597 397 604 380Q604 418 613 460H740Z" glyph-name="at" horiz-adv-x="942" unicode="@" /><glyph d="M462 233Q487 233 509.5 244Q532 255 548.5 274Q565 293 575 319Q585 345 585 375Q585 423 557 456Q529 489 481 489Q456 489 433.5 478Q411 467 394.5 448Q378 429 368 403Q358 377 358 346Q358 298 386 265.5Q414 233 462 233ZM693 247Q689 224 694 211Q699 198 719 198Q749 198 772.5 220.5Q796 243 812.5 277.5Q829 312 838 353.5Q847 395 847 432Q847 497 823.5 550.5Q800 604 758 642.5Q716 681 657 702Q598 723 527 723Q451 723 381.5 695.5Q312 668 259.5 616.5Q207 565 175.5 491.5Q144 418 144 325Q144 252 168.5 193.5Q193 135 237.5 93.5Q282 52 344 30Q406 8 481 8Q527 8 573.5 18.5Q620 29 656 51L774 33Q714 -15 636 -41Q558 -67 477 -67Q382 -67 304 -37.5Q226 -8 170.5 44Q115 96 85 167.5Q55 239 55 324Q55 432 92.5 519.5Q130 607 194.5 669Q259 731 345 764.5Q431 798 529 798Q608 798 680 773Q752 748 807 701.5Q862 655 894 588Q926 521 926 437Q926 368 909.5 310Q893 252 862 210Q831 168 787 144.5Q743 121 689 121Q659 121 637 128Q615 135 600 145.5Q585 156 576 169Q567 182 563 193Q546 164 510 142.5Q474 121 426 121Q382 121 346 137.5Q310 154 284.5 183Q259 212 244.5 252Q230 292 230 339Q230 398 249 446.5Q268 495 300 530Q332 565 375 584Q418 603 465 603Q493 603 518 595Q543 587 562.5 574Q582 561 595.5 544.5Q609 528 616 511Q616 549 625 591H752Z" glyph-name="at.alt" horiz-adv-x="915" unicode="&#62208;" /><glyph d="M263 665Q279 665 296 659Q313 653 328.5 646Q344 639 357.5 633Q371 627 380 627Q400 627 406 651L408 662L507 650Q505 635 501.5 612.5Q498 590 487 568.5Q476 547 454 531.5Q432 516 394 516Q379 516 362 522Q345 528 329 534.5Q313 541 299.5 547Q286 553 278 553Q256 553 252 529L250 517L149 530Q151 545 155 567.5Q159 590 170.5 612Q182 634 203.5 649.5Q225 665 263 665ZM261 100Q286 100 308.5 111Q331 122 347.5 141Q364 160 374 186Q384 212 384 242Q384 290 356 323Q328 356 281 356Q255 356 232.5 345Q210 334 193.5 315Q177 296 167 270Q157 244 157 213Q157 165 185 132.5Q213 100 261 100ZM415 378Q415 415 423 453L424 458H552L473 0H345L356 54Q339 28 306 8Q273 -12 225 -12Q181 -12 145 4.5Q109 21 83.5 50Q58 79 43.5 119Q29 159 29 206Q29 265 48 313.5Q67 362 99.5 397Q132 432 174.5 451Q217 470 265 470Q293 470 317.5 462Q342 454 361.5 441Q381 428 394.5 411.5Q408 395 415 378Z" glyph-name="atilde" horiz-adv-x="568" unicode="&#227;" /><glyph d="M309 358Q284 358 261.5 347Q239 336 222 317Q205 298 195 271.5Q185 245 185 215Q185 167 213 134Q241 101 289 101Q314 101 336.5 112Q359 123 376 142Q393 161 403 187Q413 213 413 244Q413 292 385 325Q357 358 309 358ZM17 0 138 700H267L226 472L213 404Q229 428 263 449Q297 470 345 470Q388 470 424 453.5Q460 437 485.5 408Q511 379 525.5 339Q540 299 540 252Q540 193 521 144.5Q502 96 469.5 61Q437 26 394.5 7Q352 -12 305 -12Q276 -12 251.5 -4Q227 4 207.5 17Q188 30 174.5 46Q161 62 154 79L139 0Z" glyph-name="b" horiz-adv-x="568" unicode="b" /><glyph d="M338 0H221L109 700H226Z" glyph-name="backslash" horiz-adv-x="405" unicode="\" /><glyph d="M90 560H200L289 0H180Z" glyph-name="backslash.smcp" horiz-adv-x="362" unicode="&#58472;" /><glyph d="M16 -93 163 760H263L115 -93Z" glyph-name="bar" horiz-adv-x="240" unicode="|" /><glyph d="M135 608H223L105 -74H18Z" glyph-name="bar.smcp" horiz-adv-x="227" unicode="&#58473;" /><glyph d="M54 357H127L187 700H434L413 583H299L267 397Q265 386 261.5 371Q258 356 250 341.5Q242 327 228.5 314.5Q215 302 194 295Q223 284 231 257.5Q239 231 235 208L192 -36H306L286 -153H39L107 238H33Z" glyph-name="braceleft" horiz-adv-x="387" unicode="{" /><glyph d="M64 432H137L197 775H444L423 658H309L277 472Q275 461 271.5 446Q268 431 260 416.5Q252 402 238.5 389.5Q225 377 204 370Q233 359 241 332.5Q249 306 245 283L202 39H316L296 -78H49L117 313H43Z" glyph-name="braceleft.cap" horiz-adv-x="384" unicode="&#58517;" /><glyph d="M40 -64Q42 -53 46 -29Q50 -5 55 25Q60 55 66 87.5Q72 120 77 150Q82 180 86 204Q90 228 92 239H34L53 346H111L158 618H365L345 508H263L239 368Q238 360 234.5 349Q231 338 224.5 327.5Q218 317 207 307.5Q196 298 179 293Q193 287 200.5 278Q208 269 211 259Q214 249 214.5 238.5Q215 228 214 220L182 45H264L246 -64Z" glyph-name="braceleft.smcp" horiz-adv-x="337" unicode="&#58525;" /><glyph d="M357 238H284L216 -153H-29L-8 -36H104L144 192Q146 205 150 220Q154 235 162 249Q170 263 183 275Q196 287 216 295Q200 301 191 311Q182 321 178 333.5Q174 346 174 359Q174 372 176 384L211 583H97L117 700H364L304 357H378Z" glyph-name="braceright" horiz-adv-x="386" unicode="}" /><glyph d="M369 313H296L228 -78H-17L4 39H116L156 267Q158 280 162 295Q166 310 174 324Q182 338 195 350Q208 362 228 370Q212 376 203 386Q194 396 190 408.5Q186 421 186 434Q186 447 188 459L223 658H109L129 775H376L316 432H390Z" glyph-name="braceright.cap" horiz-adv-x="382" unicode="&#58518;" /><glyph d="M11 45H91Q89 34 91 43.5Q93 53 96.5 73.5Q100 94 104.5 120.5Q109 147 113 170.5Q117 194 119.5 209Q122 224 122 221Q126 239 138 260Q150 281 180 293Q166 297 158.5 306Q151 315 147.5 325.5Q144 336 144 346.5Q144 357 146 365L172 508H90L108 618H314L266 346H324L306 239H248L196 -64H-9Z" glyph-name="braceright.smcp" horiz-adv-x="335" unicode="&#58526;" /><glyph d="M264 583 157 -37H288L268 -153H5L152 700H416L395 583Z" glyph-name="bracketleft" horiz-adv-x="369" unicode="[" /><glyph d="M278 658 171 38H302L282 -78H19L166 775H430L409 658Z" glyph-name="bracketleft.cap" horiz-adv-x="369" unicode="&#58515;" /><glyph d="M137 618H364L344 508H242L162 45H264L246 -64H20Z" glyph-name="bracketleft.smcp" horiz-adv-x="334" unicode="&#58523;" /><glyph d="M96 583 116 700H380L232 -153H-30L-9 -36H120L227 583Z" glyph-name="bracketright" horiz-adv-x="368" unicode="]" /><glyph d="M109 658 129 775H393L245 -78H-17L4 39H133L240 658Z" glyph-name="bracketright.cap" horiz-adv-x="369" unicode="&#58516;" /><glyph d="M9 46H110L190 508H88L106 618H333L215 -64H-11Z" glyph-name="bracketright.smcp" horiz-adv-x="335" unicode="&#58524;" /><glyph d="M278 681H380L372 627Q366 591 352 566Q338 541 318 525Q298 509 272 502Q246 495 217 495Q188 495 162 504Q136 513 118 531Q100 549 91.5 575.5Q83 602 89 636L97 681H199L191 630Q188 613 196.5 601.5Q205 590 225 590Q245 590 255.5 601Q266 612 269 629Z" glyph-name="breve" horiz-adv-x="337" unicode="&#728;" /><glyph d="M249 696Q279 696 285 733H380L379 721Q374 659 335.5 632.5Q297 606 242 606Q217 606 194 613.5Q171 621 155 635.5Q139 650 131.5 672Q124 694 130 723L132 733H223L222 729Q219 712 226.5 704Q234 696 249 696Z" glyph-name="breve.smcp" horiz-adv-x="350" unicode="&#63220;" /><glyph d="M16 -93 79 275H180L116 -93ZM99 391 163 760H264L201 391Z" glyph-name="brokenbar" horiz-adv-x="242" unicode="&#166;" /><glyph d="M136 608H225L174 309H84ZM70 224H158L107 -74H19Z" glyph-name="brokenbar.smcp" horiz-adv-x="229" unicode="&#58475;" /><glyph d="M89 359Q89 384 98 406Q107 428 123 444.5Q139 461 161 470.5Q183 480 208 480Q233 480 255 470.5Q277 461 293.5 444.5Q310 428 319.5 406Q329 384 329 359Q329 334 319.5 312Q310 290 293.5 273.5Q277 257 255 247.5Q233 238 208 238Q183 238 161 247.5Q139 257 123 273.5Q107 290 98 312Q89 334 89 359Z" glyph-name="bullet" horiz-adv-x="375" unicode="&#8226;" /><glyph d="M477 134Q452 67 393.5 27.5Q335 -12 253 -12Q205 -12 164 4.5Q123 21 93 51Q63 81 46 122Q29 163 29 213Q29 267 48 314Q67 361 100 395.5Q133 430 178 450Q223 470 276 470Q354 470 410.5 430Q467 390 487 318L368 283Q359 315 335.5 335.5Q312 356 277 356Q251 356 229 345.5Q207 335 191 316Q175 297 165.5 270.5Q156 244 156 213Q156 165 183.5 133Q211 101 258 101Q293 101 320 120Q347 139 359 172Z" glyph-name="c" horiz-adv-x="505" unicode="c" /><glyph d="M311 700H474L356 527H234ZM477 134Q452 67 393.5 27.5Q335 -12 253 -12Q205 -12 164 4.5Q123 21 93 51Q63 81 46 122Q29 163 29 213Q29 267 48 314Q67 361 100 395.5Q133 430 178 450Q223 470 276 470Q354 470 410.5 430Q467 390 487 318L368 283Q359 315 335.5 335.5Q312 356 277 356Q251 356 229 345.5Q207 335 191 316Q175 297 165.5 270.5Q156 244 156 213Q156 165 183.5 133Q211 101 258 101Q293 101 320 120Q347 139 359 172Z" glyph-name="cacute" horiz-adv-x="505" unicode="&#263;" /><glyph d="M298 528H167L96 700H214L241 624L291 700H425Z" glyph-name="caron" horiz-adv-x="395" unicode="&#711;" /><glyph d="M287 730H402L307 605H161L112 730H216L242 675Z" glyph-name="caron.smcp" horiz-adv-x="350" unicode="&#63221;" /><glyph d="M357 528H226L155 700H273L300 624L350 700H484ZM477 134Q452 67 393.5 27.5Q335 -12 253 -12Q205 -12 164 4.5Q123 21 93 51Q63 81 46 122Q29 163 29 213Q29 267 48 314Q67 361 100 395.5Q133 430 178 450Q223 470 276 470Q354 470 410.5 430Q467 390 487 318L368 283Q359 315 335.5 335.5Q312 356 277 356Q251 356 229 345.5Q207 335 191 316Q175 297 165.5 270.5Q156 244 156 213Q156 165 183.5 133Q211 101 258 101Q293 101 320 120Q347 139 359 172Z" glyph-name="ccaron" horiz-adv-x="505" unicode="&#269;" /><glyph d="M162 6Q102 31 66 85Q30 139 30 213Q30 267 49 314Q68 361 101 395.5Q134 430 179 450Q224 470 277 470Q355 470 411.5 430Q468 390 488 318L369 283Q360 315 336.5 335.5Q313 356 278 356Q252 356 230 345.5Q208 335 192 316Q176 297 166.5 270.5Q157 244 157 213Q157 165 184.5 133Q212 101 259 101Q294 101 321 120Q348 139 360 172L478 134Q457 77 412 40.5Q367 4 304 -7L215 -136H85Z" glyph-name="ccedilla" horiz-adv-x="507" unicode="&#231;" /><glyph d="M249 700H380L451 528H333L306 604L256 528H122ZM477 134Q452 67 393.5 27.5Q335 -12 253 -12Q205 -12 164 4.5Q123 21 93 51Q63 81 46 122Q29 163 29 213Q29 267 48 314Q67 361 100 395.5Q133 430 178 450Q223 470 276 470Q354 470 410.5 430Q467 390 487 318L368 283Q359 315 335.5 335.5Q312 356 277 356Q251 356 229 345.5Q207 335 191 316Q175 297 165.5 270.5Q156 244 156 213Q156 165 183.5 133Q211 101 258 101Q293 101 320 120Q347 139 359 172Z" glyph-name="ccircumflex" horiz-adv-x="505" unicode="&#265;" /><glyph d="M211 614Q211 651 236.5 676.5Q262 702 298 702Q335 702 360.5 676.5Q386 651 386 614Q386 578 360.5 552.5Q335 527 298 527Q262 527 236.5 552.5Q211 578 211 614ZM477 134Q452 67 393.5 27.5Q335 -12 253 -12Q205 -12 164 4.5Q123 21 93 51Q63 81 46 122Q29 163 29 213Q29 267 48 314Q67 361 100 395.5Q133 430 178 450Q223 470 276 470Q354 470 410.5 430Q467 390 487 318L368 283Q359 315 335.5 335.5Q312 356 277 356Q251 356 229 345.5Q207 335 191 316Q175 297 165.5 270.5Q156 244 156 213Q156 165 183.5 133Q211 101 258 101Q293 101 320 120Q347 139 359 172Z" glyph-name="cdotaccent" horiz-adv-x="505" unicode="&#267;" /><glyph d="M26 12H178L75 -136H-55Z" glyph-name="cedilla" horiz-adv-x="278" unicode="&#184;" /><glyph d="M76 12H212L122 -132H15Z" glyph-name="cedilla.smcp" horiz-adv-x="350" unicode="&#63416;" /><glyph d="M185 337Q185 280 222 248L290 479Q245 472 215 433Q185 394 185 337ZM506 258Q481 191 422.5 151.5Q364 112 282 112Q276 112 270 112Q264 112 258 113L225 0H149L187 131Q129 156 93.5 210Q58 264 58 337Q58 391 77 438Q96 485 129 519.5Q162 554 207 574Q252 594 305 594Q310 594 314 594Q318 594 323 593L355 700H431L395 577Q440 560 471 525.5Q502 491 516 442L397 407Q386 443 361 462L291 225Q324 226 350 245Q376 264 388 296Z" glyph-name="cent" horiz-adv-x="533" unicode="&#162;" /><glyph d="M165 268Q165 232 187 210L233 366Q204 358 184.5 331.5Q165 305 165 268ZM218 85 193 0H124L154 100Q105 121 77 165Q49 209 49 266Q49 309 64.5 347Q80 385 107 413.5Q134 442 172 459Q210 476 255 476H266L292 560H361L332 463Q366 450 390.5 426.5Q415 403 426 368L318 325Q310 341 299 353L250 191Q270 194 286 206Q302 218 309 235L415 184Q406 169 392 152Q378 135 356 120Q334 105 304 95Q274 85 234 85Z" glyph-name="cent.smcp" horiz-adv-x="455" unicode="&#63109;" /><glyph d="M188 700H319L390 528H272L245 604L195 528H61Z" glyph-name="circumflex" horiz-adv-x="395" unicode="&#710;" /><glyph d="M268 660 222 605H108L203 730H349L398 605H293Z" glyph-name="circumflex.smcp" horiz-adv-x="350" unicode="&#63222;" /><glyph d="M86 370Q86 407 111 432.5Q136 458 172 458Q209 458 234 432.5Q259 407 259 370Q259 334 234 308.5Q209 283 172 283Q136 283 111 308.5Q86 334 86 370ZM31 75Q31 111 56 136.5Q81 162 118 162Q154 162 179 136.5Q204 111 204 75Q204 38 179 13Q154 -12 118 -12Q81 -12 56 13Q31 38 31 75Z" glyph-name="colon" horiz-adv-x="292" unicode=":" /><glyph d="M24 76Q24 92 30.5 107.5Q37 123 48.5 135Q60 147 76 154.5Q92 162 111 162Q131 162 147.5 154.5Q164 147 176 135Q188 123 195 107Q202 91 202 74Q202 60 195.5 42.5Q189 25 179 12L75 -119L-27 -101L50 13Q38 25 31 41.5Q24 58 24 76Z" glyph-name="comma" horiz-adv-x="274" unicode="," /><glyph d="M-1 -117Q-1 -102 5 -88.5Q11 -75 21 -64.5Q31 -54 45 -47.5Q59 -41 76 -41Q111 -41 133.5 -64.5Q156 -88 156 -119Q156 -132 150.5 -147Q145 -162 134 -176L59 -270L-27 -254L22 -173Q11 -162 5 -147.5Q-1 -133 -1 -117Z" glyph-name="commaaccent" horiz-adv-x="273" unicode="&#58388;" /><glyph d="M44 -103Q44 -72 65.5 -54Q87 -36 114 -36Q148 -36 166 -57Q184 -78 184 -104Q184 -131 166 -154L91 -245L17 -232L63 -149Q44 -130 44 -103Z" glyph-name="commaaccent.smcp" horiz-adv-x="350" unicode="&#63080;" /><glyph d="M442 52Q505 52 558 74Q611 96 648.5 135.5Q686 175 707 229.5Q728 284 728 348Q728 412 707 466Q686 520 648.5 559.5Q611 599 558 621Q505 643 442 643Q379 643 326.5 621Q274 599 236.5 559.5Q199 520 178 466Q157 412 157 348Q157 284 178 229.5Q199 175 236.5 135.5Q274 96 326.5 74Q379 52 442 52ZM442 723Q521 723 589.5 695Q658 667 709 617Q760 567 789.5 498.5Q819 430 819 348Q819 266 789.5 197.5Q760 129 709 79.5Q658 30 589.5 2Q521 -26 442 -26Q363 -26 294.5 2Q226 30 175 79.5Q124 129 94.5 197.5Q65 266 65 348Q65 430 94.5 498.5Q124 567 175 617Q226 667 294.5 695Q363 723 442 723ZM447 563Q482 563 514 551.5Q546 540 572.5 519Q599 498 618 468Q637 438 646 401L542 398Q531 433 506.5 453Q482 473 447 473Q394 473 363 438Q332 403 332 350Q332 296 363 261Q394 226 447 226Q482 226 506.5 246Q531 266 542 301L646 298Q637 261 618 231Q599 201 572.5 180Q546 159 514 148Q482 137 447 137Q402 137 363 153Q324 169 294.5 197Q265 225 248 264Q231 303 231 350Q231 396 247.5 435.5Q264 475 293 503Q322 531 361.5 547Q401 563 447 563Z" glyph-name="copyright" horiz-adv-x="841" unicode="&#169;" /><glyph d="M478 134Q453 67 394.5 27.5Q336 -12 254 -12Q206 -12 165 4.5Q124 21 94 51Q64 81 47 122Q30 163 30 213Q30 262 45.5 305.5Q61 349 88.5 382.5Q116 416 154.5 438Q193 460 239 467Q223 498 223 534Q223 556 231.5 582Q240 608 261.5 630Q283 652 319 666.5Q355 681 411 681H801L762 458H860L841 348H743L708 142Q702 106 740 106Q752 106 763.5 106.5Q775 107 784 108Q795 109 804 111L784 0Q769 -2 752 -3Q738 -5 720 -5.5Q702 -6 685 -6Q658 -6 636 2.5Q614 11 599 27Q584 43 578 66.5Q572 90 577 120L616 348H546L565 458H635L655 571H413Q365 571 346 550Q327 529 327 500Q327 479 336 463Q393 450 432.5 412.5Q472 375 488 318L369 283Q360 315 336.5 335.5Q313 356 278 356Q252 356 230 345.5Q208 335 192 316Q176 297 166.5 270.5Q157 244 157 213Q157 165 184.5 133Q212 101 259 101Q294 101 321 120Q348 139 360 172Z" glyph-name="ct" horiz-adv-x="853" unicode="&#62211;" /><glyph d="M366 148Q408 144 445.5 157Q483 170 513 195Q543 220 563.5 255.5Q584 291 591 332Q598 374 590.5 412Q583 450 562.5 479.5Q542 509 510.5 528Q479 547 437 550Q395 554 357 541Q319 528 289 503Q259 478 239 442.5Q219 407 212 365Q204 324 211.5 286Q219 248 239.5 218.5Q260 189 292 170Q324 151 366 148ZM454 655Q546 646 615 586L721 666L783 582L675 502Q696 461 702 414Q708 367 700 322Q692 277 670 232.5Q648 188 614 153L691 56L601 -15L527 82Q484 59 438.5 48.5Q393 38 348 42Q303 47 262 65Q221 83 187 112L82 31L20 115L127 196Q106 236 100 283Q94 330 102 375Q110 420 132 464.5Q154 509 188 545L111 641L201 712L276 616Q318 638 363.5 648.5Q409 659 454 655Z" glyph-name="currency" horiz-adv-x="759" unicode="&#164;" /><glyph d="M224 -12Q181 -12 145 4.5Q109 21 83.5 50Q58 79 43.5 119Q29 159 29 206Q29 265 48 313.5Q67 362 99 397Q131 432 174 451Q217 470 264 470Q292 470 317 462Q342 454 361.5 441Q381 428 395 411.5Q409 395 415 378Q416 388 417.5 409.5Q419 431 425 464L466 700H593L472 0H345L355 54Q339 29 305.5 8.5Q272 -12 224 -12ZM260 100Q285 100 307.5 111Q330 122 347 141Q364 160 374 186Q384 212 384 242Q384 290 356 323Q328 356 280 356Q255 356 232.5 345Q210 334 193 315Q176 296 166 270Q156 244 156 213Q156 165 184 132.5Q212 100 260 100Z" glyph-name="d" horiz-adv-x="568" unicode="d" /><glyph d="M87 516H246L278 700H406L374 516H534L513 397H353L283 0H155L225 397H66Z" glyph-name="dagger" horiz-adv-x="520" unicode="&#8224;" /><glyph d="M87 516H246L278 700H406L374 516H534L513 397H353L339 316H499L478 197H318L283 0H155L190 197H31L52 316H211L225 397H66Z" glyph-name="daggerdbl" horiz-adv-x="520" unicode="&#8225;" /><glyph d="M629 636Q629 651 635 664.5Q641 678 651 688.5Q661 699 675 705.5Q689 712 706 712Q741 712 763.5 688.5Q786 665 786 634Q786 621 780.5 606Q775 591 764 577L689 483L603 499L652 580Q641 591 635 605.5Q629 620 629 636ZM224 -12Q181 -12 145 4.5Q109 21 83.5 50Q58 79 43.5 119Q29 159 29 206Q29 265 48 313.5Q67 362 99 397Q131 432 174 451Q217 470 264 470Q292 470 317 462Q342 454 361.5 441Q381 428 395 411.5Q409 395 415 378Q416 388 417.5 409.5Q419 431 425 464L466 700H593L472 0H345L355 54Q339 29 305.5 8.5Q272 -12 224 -12ZM260 100Q285 100 307.5 111Q330 122 347 141Q364 160 374 186Q384 212 384 242Q384 290 356 323Q328 356 280 356Q255 356 232.5 345Q210 334 193 315Q176 296 166 270Q156 244 156 213Q156 165 184 132.5Q212 100 260 100Z" glyph-name="dcaron" horiz-adv-x="568" unicode="&#271;" /><glyph d="M260 100Q285 100 307.5 111Q330 122 347 141Q364 160 374 186Q384 212 384 242Q384 290 356 323Q328 356 280 356Q255 356 232.5 345Q210 334 193 315Q176 296 166 270Q156 244 156 213Q156 165 184 132.5Q212 100 260 100ZM336 646H456L466 700H593L583 646H653L634 536H564L472 0H345L355 54Q339 29 305.5 8.5Q272 -12 224 -12Q181 -12 145 4.5Q109 21 83.5 50Q58 79 43.5 119Q29 159 29 206Q29 265 48 313.5Q67 362 99 397Q131 432 174 451Q217 470 264 470Q292 470 317 462Q342 454 361.5 441Q381 428 395 411.5Q409 395 415 378Q416 388 417.5 409.5Q419 431 425 464L437 536H317Z" glyph-name="dcroat" horiz-adv-x="567" unicode="&#273;" /><glyph d="M186 543Q186 509 207.5 485.5Q229 462 261 462Q292 462 314 485.5Q336 509 336 543Q336 559 330 573.5Q324 588 314 599.5Q304 611 290 617.5Q276 624 261 624Q245 624 231.5 617.5Q218 611 208 599.5Q198 588 192 573.5Q186 559 186 543ZM93 543Q93 578 106 608.5Q119 639 142 662Q165 685 195.5 698.5Q226 712 261 712Q295 712 326 698.5Q357 685 379.5 662Q402 639 415.5 608.5Q429 578 429 543Q429 508 415.5 477.5Q402 447 379.5 424Q357 401 326 387.5Q295 374 261 374Q226 374 195.5 387.5Q165 401 142 424Q119 447 106 477.5Q93 508 93 543Z" glyph-name="degree" horiz-adv-x="414" unicode="&#176;" /><glyph d="M260 584Q260 600 266 614Q272 628 282.5 638.5Q293 649 307 655.5Q321 662 337 662Q369 662 392.5 639Q416 616 416 584Q416 552 392.5 529Q369 506 337 506Q321 506 307 512.5Q293 519 282.5 529.5Q272 540 266 554Q260 568 260 584ZM68 584Q68 600 74 614Q80 628 90.5 638.5Q101 649 115.5 655.5Q130 662 146 662Q178 662 201.5 639Q225 616 225 584Q225 552 201.5 529Q178 506 146 506Q130 506 115.5 512.5Q101 519 90.5 529.5Q80 540 74 554Q68 568 68 584Z" glyph-name="dieresis" horiz-adv-x="386" unicode="&#168;" /><glyph d="M264 679Q264 706 285 726.5Q306 747 334 747Q347 747 359.5 741.5Q372 736 381.5 726.5Q391 717 396.5 704.5Q402 692 402 679Q402 652 381 632Q360 612 334 612Q306 612 285 632Q264 652 264 679ZM105 679Q105 692 111 704.5Q117 717 126.5 726.5Q136 736 148.5 741.5Q161 747 174 747Q201 747 222 726.5Q243 706 243 679Q243 652 222 632Q201 612 174 612Q161 612 148.5 617.5Q136 623 126.5 632Q117 641 111 653Q105 665 105 679Z" glyph-name="dieresis.smcp" horiz-adv-x="350" unicode="&#63400;" /><glyph d="M496 297H49L70 416H517ZM228 535Q228 572 253 597.5Q278 623 314 623Q350 623 376 597.5Q402 572 402 535Q401 499 376 473.5Q351 448 315 448Q297 448 281 455Q265 462 253 473.5Q241 485 234.5 501Q228 517 228 535ZM165 178Q165 215 190 240Q215 265 251 265Q287 265 313 240Q339 215 339 178Q338 142 313 116.5Q288 91 252 91Q234 91 218 98Q202 105 190 116.5Q178 128 171.5 144Q165 160 165 178Z" glyph-name="divide" horiz-adv-x="520" unicode="&#247;" /><glyph d="M276 351Q260 351 246 357Q232 363 221.5 373.5Q211 384 205 398.5Q199 413 199 429Q200 461 221.5 484Q243 507 275 507Q291 507 305.5 501Q320 495 330.5 484.5Q341 474 347 459.5Q353 445 353 429Q352 397 330 374Q308 351 276 351ZM79 341H441L421 229H59ZM226 65Q210 65 195.5 71Q181 77 170.5 87.5Q160 98 154 112Q148 126 149 142Q149 175 171 197Q193 219 225 219Q257 219 280 197Q303 175 303 142Q301 110 279.5 87.5Q258 65 226 65Z" glyph-name="divide.smcp" horiz-adv-x="479" unicode="&#62003;" /><glyph d="M250 523Q250 500 263.5 481Q277 462 305 444L308 442L353 595Q349 596 342 596Q316 596 298.5 589Q281 582 270.5 571.5Q260 561 255 548Q250 535 250 523ZM389 190Q389 212 375 229.5Q361 247 333 267L286 107H288Q339 107 364 131Q389 155 389 190ZM498 510Q464 554 423 574L372 400L383 393Q456 345 491.5 299Q527 253 527 194Q527 150 508.5 112Q490 74 458 46.5Q426 19 382.5 3.5Q339 -12 289 -12Q279 -12 269.5 -11.5Q260 -11 251 -10L227 -93H150L179 4Q149 14 123.5 27.5Q98 41 77.5 56Q57 71 41 86Q25 101 15 114L104 208Q123 182 151.5 159Q180 136 214 122L269 309L233 332Q168 374 139.5 419Q111 464 111 513Q111 560 129.5 597Q148 634 179.5 659.5Q211 685 253.5 698.5Q296 712 343 712Q364 712 387 709L408 780H484L458 691Q496 676 529.5 651.5Q563 627 590 592Z" glyph-name="dollar" horiz-adv-x="575" unicode="$" /><glyph d="M210 411Q210 381 249 359L250 358L280 460H274Q255 460 242.5 455Q230 450 223 442.5Q216 435 213 426.5Q210 418 210 411ZM312 148Q312 165 301.5 177.5Q291 190 273 202L240 95Q272 95 292 110Q312 125 312 148ZM238 -12Q230 -12 223 -11.5Q216 -11 209 -10L191 -70H122L143 2Q117 11 94.5 22.5Q72 34 55 46Q38 58 26 68.5Q14 79 8 87L84 176Q98 159 122 140Q146 121 175 109L214 237L183 255Q124 289 101.5 327.5Q79 366 79 408Q79 439 92 468Q105 497 130 519Q155 541 191 554Q227 567 273 567Q292 567 312 564L330 624H399L376 548Q443 524 492 467L407 389Q380 422 344 441L309 323L323 315Q349 299 371 283Q393 267 409 248.5Q425 230 434 207Q443 184 443 154Q443 123 430.5 93Q418 63 393 40Q368 17 329 2.5Q290 -12 238 -12Z" glyph-name="dollar.smcp" horiz-adv-x="494" unicode="&#63110;" /><glyph d="M94 614Q94 651 119.5 676.5Q145 702 181 702Q218 702 243.5 676.5Q269 651 269 614Q269 578 243.5 552.5Q218 527 181 527Q145 527 119.5 552.5Q94 578 94 614Z" glyph-name="dotaccent" horiz-adv-x="223" unicode="&#729;" /><glyph d="M185 679Q185 706 206 726.5Q227 747 254 747Q281 747 301.5 726.5Q322 706 322 679Q322 652 301.5 632Q281 612 254 612Q227 612 206 632Q185 652 185 679Z" glyph-name="dotaccent.smcp" horiz-adv-x="350" unicode="&#63223;" /><glyph d="M173 0H45L106 348H43L61 458H252Z" glyph-name="dotlessi" horiz-adv-x="268" unicode="&#305;" /><glyph d="M106 348H43L62 458H253L162 -64Q155 -103 139 -125Q123 -147 102 -158.5Q81 -170 57.5 -172.5Q34 -175 12 -175H-66L-48 -65H-4Q16 -65 26.5 -59Q37 -53 40 -36Z" glyph-name="dotlessj" horiz-adv-x="269" unicode="&#567;" /><glyph d="M274 362Q238 362 208 340Q178 318 166 278H364Q362 314 338 338Q314 362 274 362ZM253 -12Q205 -12 164 4.5Q123 21 93 50Q63 79 45.5 120Q28 161 28 211Q28 267 48 314.5Q68 362 101.5 396.5Q135 431 180 450.5Q225 470 275 470Q321 470 361 454.5Q401 439 431 407.5Q461 376 478 329.5Q495 283 495 222Q495 213 495 205Q495 197 494 191H158Q160 151 187 125Q214 99 255 99Q284 99 307 111Q330 123 344 145L479 126Q452 62 391.5 25Q331 -12 253 -12Z" glyph-name="e" horiz-adv-x="521" unicode="e" /><glyph d="M300 700H463L345 527H223ZM274 362Q238 362 208 340Q178 318 166 278H364Q362 314 338 338Q314 362 274 362ZM253 -12Q205 -12 164 4.5Q123 21 93 50Q63 79 45.5 120Q28 161 28 211Q28 267 48 314.5Q68 362 101.5 396.5Q135 431 180 450.5Q225 470 275 470Q321 470 361 454.5Q401 439 431 407.5Q461 376 478 329.5Q495 283 495 222Q495 213 495 205Q495 197 494 191H158Q160 151 187 125Q214 99 255 99Q284 99 307 111Q330 123 344 145L479 126Q452 62 391.5 25Q331 -12 253 -12Z" glyph-name="eacute" horiz-adv-x="521" unicode="&#233;" /><glyph d="M357 681H459L451 627Q445 591 431 566Q417 541 397 525Q377 509 351 502Q325 495 296 495Q267 495 241 504Q215 513 197 531Q179 549 170.5 575.5Q162 602 168 636L176 681H278L270 630Q267 613 275.5 601.5Q284 590 304 590Q324 590 334.5 601Q345 612 348 629ZM274 362Q238 362 208 340Q178 318 166 278H364Q362 314 338 338Q314 362 274 362ZM253 -12Q205 -12 164 4.5Q123 21 93 50Q63 79 45.5 120Q28 161 28 211Q28 267 48 314.5Q68 362 101.5 396.5Q135 431 180 450.5Q225 470 275 470Q321 470 361 454.5Q401 439 431 407.5Q461 376 478 329.5Q495 283 495 222Q495 213 495 205Q495 197 494 191H158Q160 151 187 125Q214 99 255 99Q284 99 307 111Q330 123 344 145L479 126Q452 62 391.5 25Q331 -12 253 -12Z" glyph-name="ebreve" horiz-adv-x="521" unicode="&#277;" /><glyph d="M355 528H224L153 700H271L298 624L348 700H482ZM274 362Q238 362 208 340Q178 318 166 278H364Q362 314 338 338Q314 362 274 362ZM253 -12Q205 -12 164 4.5Q123 21 93 50Q63 79 45.5 120Q28 161 28 211Q28 267 48 314.5Q68 362 101.5 396.5Q135 431 180 450.5Q225 470 275 470Q321 470 361 454.5Q401 439 431 407.5Q461 376 478 329.5Q495 283 495 222Q495 213 495 205Q495 197 494 191H158Q160 151 187 125Q214 99 255 99Q284 99 307 111Q330 123 344 145L479 126Q452 62 391.5 25Q331 -12 253 -12Z" glyph-name="ecaron" horiz-adv-x="521" unicode="&#283;" /><glyph d="M248 700H379L450 528H332L305 604L255 528H121ZM274 362Q238 362 208 340Q178 318 166 278H364Q362 314 338 338Q314 362 274 362ZM253 -12Q205 -12 164 4.5Q123 21 93 50Q63 79 45.5 120Q28 161 28 211Q28 267 48 314.5Q68 362 101.5 396.5Q135 431 180 450.5Q225 470 275 470Q321 470 361 454.5Q401 439 431 407.5Q461 376 478 329.5Q495 283 495 222Q495 213 495 205Q495 197 494 191H158Q160 151 187 125Q214 99 255 99Q284 99 307 111Q330 123 344 145L479 126Q452 62 391.5 25Q331 -12 253 -12Z" glyph-name="ecircumflex" horiz-adv-x="521" unicode="&#234;" /><glyph d="M314 584Q314 600 320 614Q326 628 336.5 638.5Q347 649 361 655.5Q375 662 391 662Q423 662 446.5 639Q470 616 470 584Q470 552 446.5 529Q423 506 391 506Q375 506 361 512.5Q347 519 336.5 529.5Q326 540 320 554Q314 568 314 584ZM122 584Q122 600 128 614Q134 628 144.5 638.5Q155 649 169.5 655.5Q184 662 200 662Q232 662 255.5 639Q279 616 279 584Q279 552 255.5 529Q232 506 200 506Q184 506 169.5 512.5Q155 519 144.5 529.5Q134 540 128 554Q122 568 122 584ZM274 362Q238 362 208 340Q178 318 166 278H364Q362 314 338 338Q314 362 274 362ZM253 -12Q205 -12 164 4.5Q123 21 93 50Q63 79 45.5 120Q28 161 28 211Q28 267 48 314.5Q68 362 101.5 396.5Q135 431 180 450.5Q225 470 275 470Q321 470 361 454.5Q401 439 431 407.5Q461 376 478 329.5Q495 283 495 222Q495 213 495 205Q495 197 494 191H158Q160 151 187 125Q214 99 255 99Q284 99 307 111Q330 123 344 145L479 126Q452 62 391.5 25Q331 -12 253 -12Z" glyph-name="edieresis" horiz-adv-x="521" unicode="&#235;" /><glyph d="M214 614Q214 651 239.5 676.5Q265 702 301 702Q338 702 363.5 676.5Q389 651 389 614Q389 578 363.5 552.5Q338 527 301 527Q265 527 239.5 552.5Q214 578 214 614ZM274 362Q238 362 208 340Q178 318 166 278H364Q362 314 338 338Q314 362 274 362ZM253 -12Q205 -12 164 4.5Q123 21 93 50Q63 79 45.5 120Q28 161 28 211Q28 267 48 314.5Q68 362 101.5 396.5Q135 431 180 450.5Q225 470 275 470Q321 470 361 454.5Q401 439 431 407.5Q461 376 478 329.5Q495 283 495 222Q495 213 495 205Q495 197 494 191H158Q160 151 187 125Q214 99 255 99Q284 99 307 111Q330 123 344 145L479 126Q452 62 391.5 25Q331 -12 253 -12Z" glyph-name="edotaccent" horiz-adv-x="521" unicode="&#279;" /><glyph d="M339 527H219L116 700H279ZM274 362Q238 362 208 340Q178 318 166 278H364Q362 314 338 338Q314 362 274 362ZM253 -12Q205 -12 164 4.5Q123 21 93 50Q63 79 45.5 120Q28 161 28 211Q28 267 48 314.5Q68 362 101.5 396.5Q135 431 180 450.5Q225 470 275 470Q321 470 361 454.5Q401 439 431 407.5Q461 376 478 329.5Q495 283 495 222Q495 213 495 205Q495 197 494 191H158Q160 151 187 125Q214 99 255 99Q284 99 307 111Q330 123 344 145L479 126Q452 62 391.5 25Q331 -12 253 -12Z" glyph-name="egrave" horiz-adv-x="521" unicode="&#232;" /><glyph d="M320 597Q275 597 250 565.5Q225 534 225 492Q225 459 246 435Q267 411 311 411Q334 411 352 419.5Q370 428 382.5 442.5Q395 457 401.5 475.5Q408 494 408 515Q408 548 387.5 572.5Q367 597 320 597ZM259 103Q283 103 303 112Q323 121 337.5 136Q352 151 359.5 170.5Q367 190 367 211Q367 247 343 274Q319 301 269 301Q246 301 226.5 292Q207 283 193 268Q179 253 171 233.5Q163 214 163 193Q163 158 186 130.5Q209 103 259 103ZM262 -12Q214 -12 171.5 0.5Q129 13 97 37.5Q65 62 46.5 98.5Q28 135 28 182Q28 214 38 244.5Q48 275 66.5 300.5Q85 326 111 345.5Q137 365 169 374Q132 395 113 431Q94 467 94 508Q94 552 111.5 589.5Q129 627 159 654Q189 681 230.5 696.5Q272 712 320 712Q368 712 408 699Q448 686 477 662Q506 638 522.5 604Q539 570 539 529Q539 473 506.5 423.5Q474 374 414 352Q456 330 479 290Q502 250 502 203Q502 153 482.5 113Q463 73 430 45Q397 17 353.5 2.5Q310 -12 262 -12Z" glyph-name="eight" horiz-adv-x="539" unicode="8" /><glyph d="M328 597Q283 597 258 565.5Q233 534 233 492Q233 459 254 435Q275 411 319 411Q342 411 360 419.5Q378 428 390.5 442.5Q403 457 409.5 475.5Q416 494 416 515Q416 548 395.5 572.5Q375 597 328 597ZM267 103Q291 103 311 112Q331 121 345.5 136Q360 151 367.5 170.5Q375 190 375 211Q375 247 351 274Q327 301 277 301Q254 301 234.5 292Q215 283 201 268Q187 253 179 233.5Q171 214 171 193Q171 158 194 130.5Q217 103 267 103ZM270 -12Q222 -12 179.5 0.5Q137 13 105 37.5Q73 62 54.5 98.5Q36 135 36 182Q36 214 46 244.5Q56 275 74.5 300.5Q93 326 119 345.5Q145 365 177 374Q140 395 121 431Q102 467 102 508Q102 552 119.5 589.5Q137 627 167 654Q197 681 238.5 696.5Q280 712 328 712Q376 712 416 699Q456 686 485 662Q514 638 530.5 604Q547 570 547 529Q547 473 514.5 423.5Q482 374 422 352Q464 330 487 290Q510 250 510 203Q510 153 490.5 113Q471 73 438 45Q405 17 361.5 2.5Q318 -12 270 -12Z" glyph-name="eight.alt" horiz-adv-x="555" unicode="&#62032;" /><glyph d="M322 550Q277 550 252.5 521Q228 492 228 453Q228 422 249 400Q270 378 313 378Q335 378 353 386Q371 394 383 407Q395 420 401.5 437.5Q408 455 408 474Q408 505 387.5 527.5Q367 550 322 550ZM262 94Q286 94 305.5 102Q325 110 339 124Q353 138 360.5 156Q368 174 368 194Q368 227 344 252Q320 277 272 277Q249 277 230 269Q211 261 197 247Q183 233 175.5 215Q168 197 168 177Q168 145 190.5 119.5Q213 94 262 94ZM265 -12Q218 -12 176 -0.5Q134 11 102.5 34Q71 57 53 90Q35 123 35 167Q35 197 45 225Q55 253 73 276.5Q91 300 116.5 317.5Q142 335 174 344Q138 364 119 397Q100 430 100 468Q100 509 117 543.5Q134 578 164 603Q194 628 234.5 642Q275 656 322 656Q368 656 407.5 644Q447 632 475.5 610Q504 588 520 556.5Q536 525 536 487Q536 461 528 436.5Q520 412 504.5 390Q489 368 466 351Q443 334 414 324Q455 304 477.5 267Q500 230 500 186Q500 140 481 103Q462 66 429.5 40.5Q397 15 354.5 1.5Q312 -12 265 -12Z" glyph-name="eight.posf" horiz-adv-x="551" unicode="&#62048;" /><glyph d="M190 69Q212 69 224.5 83Q237 97 237 117Q237 132 227 144Q217 156 195 156Q174 156 161.5 141.5Q149 127 149 107Q149 92 159 80.5Q169 69 190 69ZM161 -113Q186 -113 199.5 -97.5Q213 -82 213 -61Q213 -44 202 -31Q191 -18 166 -18Q143 -18 128.5 -34Q114 -50 114 -70Q114 -87 125.5 -100Q137 -113 161 -113ZM160 -202Q125 -202 97 -192Q69 -182 49.5 -165Q30 -148 19.5 -125Q9 -102 9 -76Q9 -34 33.5 -3.5Q58 27 96 40Q73 52 61 75Q49 98 49 122Q49 149 60 171.5Q71 194 90.5 210.5Q110 227 136.5 236Q163 245 195 245Q229 245 255.5 235.5Q282 226 300.5 210.5Q319 195 328.5 174Q338 153 338 130Q338 98 320 67.5Q302 37 262 23Q288 9 302.5 -15.5Q317 -40 317 -69Q317 -99 304.5 -123.5Q292 -148 270.5 -165.5Q249 -183 220.5 -192.5Q192 -202 160 -202Z" glyph-name="eight.sinf" horiz-adv-x="430" unicode="&#62080;" /><glyph d="M269 335Q301 335 319 357Q337 379 337 407Q337 429 323 445Q309 461 277 461Q247 461 229.5 439Q212 417 212 388Q212 367 225.5 351Q239 335 269 335ZM225 100Q258 100 279.5 121.5Q301 143 301 173Q301 197 284.5 215Q268 233 234 233Q202 233 182 210Q162 187 162 158Q162 135 177 117.5Q192 100 225 100ZM227 -10Q185 -10 149.5 1.5Q114 13 88 34Q62 55 47.5 85Q33 115 33 152Q33 204 64 244.5Q95 285 148 300Q116 317 102 344.5Q88 372 88 404Q88 440 102.5 470.5Q117 501 142 523Q167 545 201 557.5Q235 570 275 570Q318 570 352 558.5Q386 547 410 527Q434 507 447 480Q460 453 460 422Q460 401 453 379.5Q446 358 433 339Q420 320 401 305.5Q382 291 358 282Q392 262 409 231Q426 200 426 164Q426 123 410 91Q394 59 366.5 36.5Q339 14 303 2Q267 -10 227 -10Z" glyph-name="eight.smcp" horiz-adv-x="484" unicode="&#58881;" /><glyph d="M296 668Q318 668 330.5 682Q343 696 343 716Q343 731 333 743Q323 755 301 755Q280 755 267.5 740.5Q255 726 255 706Q255 691 265 679.5Q275 668 296 668ZM267 486Q292 486 305.5 501.5Q319 517 319 538Q319 555 308 568Q297 581 272 581Q249 581 234.5 565Q220 549 220 529Q220 512 231.5 499Q243 486 267 486ZM266 397Q231 397 203 407Q175 417 155.5 434Q136 451 125.5 474Q115 497 115 523Q115 565 139.5 595.5Q164 626 202 639Q179 651 167 674Q155 697 155 721Q155 748 166 770.5Q177 793 196.5 809.5Q216 826 242.5 835Q269 844 301 844Q335 844 361.5 834.5Q388 825 406.5 809.5Q425 794 434.5 773Q444 752 444 729Q444 697 426 666.5Q408 636 368 622Q394 608 408.5 583.5Q423 559 423 530Q423 500 410.5 475.5Q398 451 376.5 433.5Q355 416 326.5 406.5Q298 397 266 397Z" glyph-name="eight.sups" horiz-adv-x="430" unicode="&#62064;" /><glyph d="M224 261Q246 261 258.5 275Q271 289 271 309Q271 324 261 336Q251 348 229 348Q208 348 195.5 333.5Q183 319 183 299Q183 284 193 272.5Q203 261 224 261ZM195 79Q220 79 233.5 94.5Q247 110 247 131Q247 148 236 161Q225 174 200 174Q177 174 162.5 158Q148 142 148 122Q148 105 159.5 92Q171 79 195 79ZM194 -10Q159 -10 131 0Q103 10 83.5 27Q64 44 53.5 67Q43 90 43 116Q43 158 67.5 188.5Q92 219 130 232Q107 244 95 267Q83 290 83 314Q83 341 94 363.5Q105 386 124.5 402.5Q144 419 170.5 428Q197 437 229 437Q263 437 289.5 427.5Q316 418 334.5 402.5Q353 387 362.5 366Q372 345 372 322Q372 290 354 259.5Q336 229 296 215Q322 201 336.5 176.5Q351 152 351 123Q351 93 338.5 68.5Q326 44 304.5 26.5Q283 9 254.5 -0.5Q226 -10 194 -10Z" glyph-name="eightinferior" horiz-adv-x="430" unicode="&#8328;" /><glyph d="M876 238Q902 238 916 258Q930 278 930 301Q930 321 918 335Q906 349 883 349Q858 349 844 330Q830 311 830 286Q830 266 841.5 252Q853 238 876 238ZM707 0Q711 4 733.5 21.5Q756 39 785.5 63.5Q815 88 845.5 116Q876 144 897 169L893 171Q888 167 875.5 162.5Q863 158 846 158Q823 158 801 166Q779 174 762 190Q745 206 734.5 229.5Q724 253 724 284Q724 318 736.5 346.5Q749 375 770.5 395.5Q792 416 821 427.5Q850 439 882 439Q919 439 947.5 427Q976 415 995.5 394Q1015 373 1025 345.5Q1035 318 1035 287Q1035 241 1019 200.5Q1003 160 977 124.5Q951 89 919 58Q887 27 854 0ZM1002 686 203 -37 155 18 954 741ZM266 532Q288 532 300.5 546Q313 560 313 580Q313 595 303 607Q293 619 271 619Q250 619 237.5 604.5Q225 590 225 570Q225 555 235 543.5Q245 532 266 532ZM237 350Q262 350 275.5 365.5Q289 381 289 402Q289 419 278 432Q267 445 242 445Q219 445 204.5 429Q190 413 190 393Q190 376 201.5 363Q213 350 237 350ZM236 261Q201 261 173 271Q145 281 125.5 298Q106 315 95.5 338Q85 361 85 387Q85 429 109.5 459.5Q134 490 172 503Q149 515 137 538Q125 561 125 585Q125 612 136 634.5Q147 657 166.5 673.5Q186 690 212.5 699Q239 708 271 708Q305 708 331.5 698.5Q358 689 376.5 673.5Q395 658 404.5 637Q414 616 414 593Q414 561 396 530.5Q378 500 338 486Q364 472 378.5 447.5Q393 423 393 394Q393 364 380.5 339.5Q368 315 346.5 297.5Q325 280 296.5 270.5Q268 261 236 261Z" glyph-name="eightninths" horiz-adv-x="1080" unicode="&#62105;" /><glyph d="M272 532Q294 532 306.5 546Q319 560 319 580Q319 595 309 607Q299 619 277 619Q256 619 243.5 604.5Q231 590 231 570Q231 555 241 543.5Q251 532 272 532ZM243 350Q268 350 281.5 365.5Q295 381 295 402Q295 419 284 432Q273 445 248 445Q225 445 210.5 429Q196 413 196 393Q196 376 207.5 363Q219 350 243 350ZM242 261Q207 261 179 271Q151 281 131.5 298Q112 315 101.5 338Q91 361 91 387Q91 429 115.5 459.5Q140 490 178 503Q155 515 143 538Q131 561 131 585Q131 612 142 634.5Q153 657 172.5 673.5Q192 690 218.5 699Q245 708 277 708Q311 708 337.5 698.5Q364 689 382.5 673.5Q401 658 410.5 637Q420 616 420 593Q420 561 402 530.5Q384 500 344 486Q370 472 384.5 447.5Q399 423 399 394Q399 364 386.5 339.5Q374 315 352.5 297.5Q331 280 302.5 270.5Q274 261 242 261Z" glyph-name="eightsuperior" horiz-adv-x="430" unicode="&#8312;" /><glyph d="M675 75Q675 111 700.5 136.5Q726 162 762 162Q799 162 824 136.5Q849 111 849 75Q849 39 824 13.5Q799 -12 762 -12Q726 -12 700.5 13.5Q675 39 675 75ZM349 75Q349 111 374.5 136.5Q400 162 436 162Q473 162 498.5 136.5Q524 111 524 75Q524 39 498.5 13.5Q473 -12 436 -12Q400 -12 374.5 13.5Q349 39 349 75ZM24 75Q24 111 49 136.5Q74 162 110 162Q147 162 172.5 136.5Q198 111 198 75Q198 39 172.5 13.5Q147 -12 110 -12Q74 -12 49 13.5Q24 39 24 75Z" glyph-name="ellipsis" horiz-adv-x="921" unicode="&#8230;" /><glyph d="M167 643H475L456 532H148ZM274 362Q238 362 208 340Q178 318 166 278H364Q362 314 338 338Q314 362 274 362ZM253 -12Q205 -12 164 4.5Q123 21 93 50Q63 79 45.5 120Q28 161 28 211Q28 267 48 314.5Q68 362 101.5 396.5Q135 431 180 450.5Q225 470 275 470Q321 470 361 454.5Q401 439 431 407.5Q461 376 478 329.5Q495 283 495 222Q495 213 495 205Q495 197 494 191H158Q160 151 187 125Q214 99 255 99Q284 99 307 111Q330 123 344 145L479 126Q452 62 391.5 25Q331 -12 253 -12Z" glyph-name="emacron" horiz-adv-x="521" unicode="&#275;" /><glyph d="M56 323H976L957 213H38Z" glyph-name="emdash" horiz-adv-x="1000" unicode="&#8212;" /><glyph d="M72 416H992L971 297H52Z" glyph-name="emdash.alt" horiz-adv-x="1000" unicode="&#62217;" /><glyph d="M56 323H476L457 213H38Z" glyph-name="endash" horiz-adv-x="500" unicode="&#8211;" /><glyph d="M72 416H492L471 297H52Z" glyph-name="endash.alt" horiz-adv-x="500" unicode="&#62216;" /><glyph d="M433 -64Q426 -103 410 -125Q394 -147 373 -158.5Q352 -170 328.5 -172.5Q305 -175 283 -175H205L223 -65H267Q287 -65 297.5 -59Q308 -53 311 -36L363 268Q370 308 355 331Q340 354 306 354Q277 354 246.5 335.5Q216 317 196 297L144 0H17L97 458H222Q221 450 219.5 440.5Q218 431 216 423Q213 413 210 404Q242 436 279.5 453Q317 470 357 470Q393 470 422 456.5Q451 443 469.5 418.5Q488 394 495 360.5Q502 327 495 288Z" glyph-name="eng" horiz-adv-x="535" unicode="&#331;" /><glyph d="M275 362Q239 362 209 340Q179 318 167 278H365Q363 314 339 338Q315 362 275 362ZM480 126Q455 68 403 32Q351 -4 282 -10Q251 -31 237 -49Q223 -67 223 -83Q223 -97 234.5 -104Q246 -111 261 -111Q279 -111 300 -106.5Q321 -102 335 -97L316 -174Q292 -185 267 -191.5Q242 -198 206 -198Q159 -198 128.5 -175.5Q98 -153 98 -113Q98 -93 106.5 -76.5Q115 -60 128.5 -46.5Q142 -33 160 -22.5Q178 -12 196 -5Q159 3 128.5 22.5Q98 42 76 70Q54 98 41.5 133.5Q29 169 29 211Q29 267 49 314.5Q69 362 102.5 396.5Q136 431 181 450.5Q226 470 276 470Q322 470 362 454.5Q402 439 432 407.5Q462 376 479 329.5Q496 283 496 222Q496 213 496 205Q496 197 495 191H159Q161 151 188 125Q215 99 256 99Q285 99 308 111Q331 123 345 145Z" glyph-name="eogonek" horiz-adv-x="522" unicode="&#281;" /><glyph d="M478 197H31L52 316H499ZM514 397H67L88 516H535Z" glyph-name="equal" horiz-adv-x="520" unicode="=" /><glyph d="M93 421H455L436 309H73ZM64 261H426L406 149H43Z" glyph-name="equal.smcp" horiz-adv-x="479" unicode="&#62999;" /><glyph d="M703 375Q712 375 712 384V552Q712 585 685.5 609.5Q659 634 621 650Q583 666 540 674Q497 682 464 682Q434 682 391.5 674Q349 666 310.5 650Q272 634 244.5 609.5Q217 585 217 552V384Q217 375 226 375ZM217 160Q217 128 244 102Q271 76 309.5 58Q348 40 390.5 30Q433 20 464 20Q542 20 611.5 48Q681 76 729 131H776Q722 63 642 26Q562 -11 464 -11Q383 -11 311 17.5Q239 46 185.5 95.5Q132 145 100.5 211Q69 277 69 353Q69 427 100 492.5Q131 558 184 606.5Q237 655 309 683.5Q381 712 464 712Q555 712 628 683Q701 654 753 604.5Q805 555 833 487.5Q861 420 861 344H226Q217 344 217 332Z" glyph-name="estimated" horiz-adv-x="873" unicode="&#8494;" /><glyph d="M258 101Q283 101 305.5 112Q328 123 345 142Q362 161 371.5 187.5Q381 214 381 244Q381 292 353.5 324Q326 356 279 356Q253 356 231 345.5Q209 335 192 316Q175 297 165.5 270.5Q156 244 156 213Q156 165 184 133Q212 101 258 101ZM343 700Q359 683 378 659L447 694L475 637L416 607Q435 577 454 541Q473 505 487.5 465Q502 425 511 382Q520 339 520 294Q520 234 503 178.5Q486 123 452.5 81Q419 39 370.5 13.5Q322 -12 259 -12Q209 -12 166.5 5Q124 22 93.5 52.5Q63 83 46 124.5Q29 166 29 215Q29 269 47.5 315.5Q66 362 97.5 395.5Q129 429 171 448Q213 467 260 467Q298 467 330 454.5Q362 442 378 419L383 423Q370 452 350 485.5Q330 519 307 552L235 516L208 575L268 605Q242 639 221 664Q200 689 192 700Z" glyph-name="eth" horiz-adv-x="545" unicode="&#240;" /><glyph d="M75 226 146 700H287L196 226ZM28 74Q27 111 52.5 136.5Q78 162 115 162Q151 162 176.5 136.5Q202 111 202 74Q202 56 195 40.5Q188 25 176.5 13.5Q165 2 149 -5Q133 -12 115 -12Q97 -12 81 -5Q65 2 53 13.5Q41 25 34.5 40.5Q28 56 28 74Z" glyph-name="exclam" horiz-adv-x="278" unicode="!" /><glyph d="M122 560H256L182 181H68ZM110 -10Q78 -10 55.5 12.5Q33 35 33 67Q33 83 38.5 97.5Q44 112 54.5 122.5Q65 133 79.5 139Q94 145 110 145Q126 145 140 139Q154 133 164.5 122.5Q175 112 181 97.5Q187 83 187 67Q187 35 164.5 12.5Q142 -10 110 -10Z" glyph-name="exclam.smcp" horiz-adv-x="266" unicode="&#58434;" /><glyph d="M192 232 121 -242H-20L71 232ZM239 384Q240 347 214.5 321.5Q189 296 152 296Q116 296 90.5 321.5Q65 347 65 384Q65 402 72 417.5Q79 433 90.5 444.5Q102 456 118 463Q134 470 152 470Q170 470 186 463Q202 456 214 444.5Q226 433 232.5 417.5Q239 402 239 384Z" glyph-name="exclamdown" horiz-adv-x="255" unicode="&#161;" /><glyph d="M245 462 174 -12H33L124 462ZM292 614Q293 577 267.5 551.5Q242 526 205 526Q169 526 143.5 551.5Q118 577 118 614Q118 632 125 647.5Q132 663 143.5 674.5Q155 686 171 693Q187 700 205 700Q223 700 239 693Q255 686 267 674.5Q279 663 285.5 647.5Q292 632 292 614Z" glyph-name="exclamdown.alt" horiz-adv-x="280" unicode="&#62214;" /><glyph d="M163 0H29L103 379H217ZM175 570Q207 570 229.5 547.5Q252 525 252 493Q252 477 246 462.5Q240 448 229.5 437.5Q219 427 205 421Q191 415 175 415Q159 415 145 421Q131 427 120.5 437.5Q110 448 104 462.5Q98 477 98 493Q98 525 120.5 547.5Q143 570 175 570Z" glyph-name="exclamdown.smcp" horiz-adv-x="266" unicode="&#58435;" /><glyph d="M156 587Q168 655 204.5 682Q241 709 294 709Q307 709 324.5 708Q342 707 358 706Q376 704 396 703L376 584Q365 585 355 586Q347 587 338 588Q329 589 324 589Q304 589 292 582Q280 575 276 551L260 458H348L329 348H241L181 0H54L114 348H43L62 458H133Z" glyph-name="f" horiz-adv-x="330" unicode="f" /><glyph d="M446 587Q458 655 494.5 682Q531 709 584 709Q597 709 614.5 708Q632 707 648 706Q666 704 686 703L666 584Q655 585 645 586Q637 587 628 588Q619 589 614 589Q594 589 582 582Q570 575 566 551L550 458H638L619 348H531L471 0H344L404 348H241L181 0H54L114 348H43L62 458H133L156 587Q168 655 204.5 682Q241 709 294 709Q307 709 324.5 708Q342 707 358 706Q376 704 396 703L376 584Q365 585 355 586Q347 587 338 588Q329 589 324 589Q304 589 292 582Q280 575 276 551L260 458H423Z" glyph-name="f_f" horiz-adv-x="620" unicode="&#64256;" /><glyph d="M736 587Q748 655 784.5 682Q821 709 874 709Q887 709 904.5 708Q922 707 938 706Q956 704 976 703L956 584Q945 585 935 586Q927 587 918 588Q909 589 904 589Q884 589 872 582Q860 575 856 551L840 458H928L909 348H821L761 0H634L694 348H531L471 0H344L404 348H241L181 0H54L114 348H43L62 458H133L156 587Q168 655 204.5 682Q241 709 294 709Q307 709 324.5 708Q342 707 358 706Q376 704 396 703L376 584Q365 585 355 586Q347 587 338 588Q329 589 324 589Q304 589 292 582Q280 575 276 551L260 458H423L446 587Q458 655 494.5 682Q531 709 584 709Q597 709 614.5 708Q632 707 648 706Q666 704 686 703L666 584Q655 585 645 586Q637 587 628 588Q619 589 614 589Q594 589 582 582Q570 575 566 551L550 458H713Z" glyph-name="f_f_f" horiz-adv-x="910" unicode="&#62210;" /><glyph d="M420 614Q420 649 444 673.5Q468 698 503 698Q538 698 562.5 673.5Q587 649 587 614Q587 579 562.5 555Q538 531 503 531Q468 531 444 555Q420 579 420 614ZM471 0H343L404 348H241L181 0H54L114 348H43L62 458H133L156 587Q168 655 204.5 682Q241 709 294 709Q307 709 324.5 708Q342 707 358 706Q376 704 396 703L376 584Q365 585 355 586Q347 587 338 588Q329 589 324 589Q304 589 292 582Q280 575 276 551L260 458H550Z" glyph-name="f_i" horiz-adv-x="565" unicode="&#62209;" /><glyph d="M420 614Q420 649 444 673.5Q468 698 503 698Q538 698 562 673.5Q586 649 586 614Q586 579 562 555Q538 531 503 531Q468 531 444 555Q420 579 420 614ZM404 348H241L181 0H54L114 348H43L62 458H133L156 587Q168 655 204.5 682Q241 709 294 709Q307 709 324.5 708Q342 707 358 706Q376 704 396 703L376 584Q365 585 355 586Q347 587 338 588Q329 589 324 589Q304 589 292 582Q280 575 276 551L260 458H551L460 -64Q453 -103 437 -125Q421 -147 400 -158.5Q379 -170 355.5 -172.5Q332 -175 310 -175H232L250 -65H294Q314 -65 324.5 -58.5Q335 -52 338 -35Z" glyph-name="f_j" horiz-adv-x="566" unicode="&#58247;" /><glyph d="M446 587Q458 655 494.5 682Q531 709 584 709Q597 709 614.5 708Q632 707 648 706Q666 704 686 703L666 584Q655 585 645 586Q637 587 628 588Q619 589 614 589Q594 589 582 582Q570 575 566 551L550 458H638L619 348H531L471 0H344L404 348H241L181 0H54L114 348H43L62 458H133L156 587Q168 655 204.5 682Q241 709 294 709Q307 709 324.5 708Q342 707 358 706Q376 704 396 703L376 584Q365 585 355 586Q347 587 338 588Q329 589 324 589Q304 589 292 582Q280 575 276 551L260 458H423Z" glyph-name="ff" horiz-adv-x="620" unicode="&#58249;" /><glyph d="M710 614Q710 649 734 673.5Q758 698 793 698Q828 698 852.5 673.5Q877 649 877 614Q877 579 852.5 555Q828 531 793 531Q758 531 734 555Q710 579 710 614ZM761 0H633L694 348H531L471 0H344L404 348H241L181 0H54L114 348H43L62 458H133L156 587Q168 655 204.5 682Q241 709 294 709Q307 709 324.5 708Q342 707 358 706Q376 704 396 703L376 584Q365 585 355 586Q347 587 338 588Q329 589 324 589Q304 589 292 582Q280 575 276 551L260 458H423L446 587Q458 655 494.5 682Q531 709 584 709Q597 709 614.5 708Q632 707 648 706Q666 704 686 703L666 584Q655 585 645 586Q637 587 628 588Q619 589 614 589Q594 589 582 582Q570 575 566 551L550 458H840Z" glyph-name="ffi" horiz-adv-x="855" unicode="&#64259;" /><glyph d="M773 0H647L706 348H537L477 0H350L410 348H241L181 0H54L114 348H43L62 458H133L156 587Q168 655 204.5 682Q241 709 294 709Q307 709 324.5 708Q342 707 358 706Q376 704 396 703L376 584Q365 585 355 586Q347 587 338 588Q329 589 324 589Q304 589 292 582Q280 575 276 551L260 458H429L452 587Q464 655 500.5 682Q537 709 590 709Q603 709 620.5 708Q638 707 654 706Q672 704 692 703L672 584Q661 585 651 586Q643 587 634 588Q625 589 620 589Q600 589 588 582Q576 575 572 551L556 458H725L767 700H894Z" glyph-name="ffl" horiz-adv-x="869" unicode="&#58251;" /><glyph d="M420 614Q420 649 444 673.5Q468 698 503 698Q538 698 562.5 673.5Q587 649 587 614Q587 579 562.5 555Q538 531 503 531Q468 531 444 555Q420 579 420 614ZM471 0H343L404 348H241L181 0H54L114 348H43L62 458H133L156 587Q168 655 204.5 682Q241 709 294 709Q307 709 324.5 708Q342 707 358 706Q376 704 396 703L376 584Q365 585 355 586Q347 587 338 588Q329 589 324 589Q304 589 292 582Q280 575 276 551L260 458H550Z" glyph-name="fi" horiz-adv-x="565" unicode="&#64257;" /><glyph d="M178 231Q174 208 173.5 198Q173 188 173 181Q173 149 191 126Q209 103 253 103Q278 103 297.5 115Q317 127 330.5 147.5Q344 168 351.5 195.5Q359 223 359 255Q359 295 339 321Q319 347 273 347Q251 347 231.5 338Q212 329 200 316L88 340L156 700H548L526 576H251L224 438L227 437Q244 448 266.5 453Q289 458 310 458Q356 458 391.5 443Q427 428 451 401.5Q475 375 487 338.5Q499 302 499 260Q499 201 482 151Q465 101 433.5 65Q402 29 357.5 8.5Q313 -12 258 -12Q204 -12 162 2Q120 16 92 41.5Q64 67 49.5 101.5Q35 136 35 178Q35 189 36 201.5Q37 214 40 231Z" glyph-name="five" horiz-adv-x="539" unicode="5" /><glyph d="M172 231Q168 208 167.5 198Q167 188 167 181Q167 149 185 126Q203 103 247 103Q272 103 291.5 115Q311 127 324.5 147.5Q338 168 345.5 195.5Q353 223 353 255Q353 295 333 321Q313 347 267 347Q245 347 225.5 338Q206 329 194 316L82 340L150 700H542L520 576H245L218 438L221 437Q238 448 260.5 453Q283 458 304 458Q350 458 385.5 443Q421 428 445 401.5Q469 375 481 338.5Q493 302 493 260Q493 201 476 151Q459 101 427.5 65Q396 29 351.5 8.5Q307 -12 252 -12Q198 -12 156 2Q114 16 86 41.5Q58 67 43.5 101.5Q29 136 29 178Q29 189 30 201.5Q31 214 34 231Z" glyph-name="five.alt" horiz-adv-x="527" unicode="&#62023;" /><glyph d="M197 -164Q95 -164 43.5 -116.5Q-8 -69 -8 9Q-8 19 -7 32Q-6 45 -3 64H130Q126 44 125.5 35Q125 26 125 20Q125 7 129 -6Q133 -19 142 -30Q151 -41 166 -48Q181 -55 203 -55Q227 -55 247 -43.5Q267 -32 280.5 -13.5Q294 5 301.5 29Q309 53 309 79Q309 94 304 109.5Q299 125 288.5 138Q278 151 261 159Q244 167 220 167Q199 167 178.5 157Q158 147 147 139L46 150L107 495H487L466 381H204L180 252Q202 265 224 269Q246 273 260 273Q305 273 339 257.5Q373 242 395.5 217Q418 192 429 160Q440 128 440 94Q440 38 423 -9Q406 -56 374 -90.5Q342 -125 297 -144.5Q252 -164 197 -164Z" glyph-name="five.posf" horiz-adv-x="496" unicode="&#62039;" /><glyph d="M159 -112Q182 -112 194.5 -90.5Q207 -69 207 -37Q207 -20 198.5 -7Q190 6 168 6Q157 6 146.5 1.5Q136 -3 130 -10L44 11L86 237H348L331 144H163L151 81H153Q161 86 174.5 88.5Q188 91 199 91Q257 91 288 56.5Q319 22 319 -33Q319 -66 308.5 -96.5Q298 -127 277.5 -150.5Q257 -174 227.5 -188Q198 -202 159 -202Q83 -202 49 -167.5Q15 -133 15 -80Q15 -74 15 -67Q15 -60 17 -49H127Q125 -63 124.5 -68.5Q124 -74 124 -78Q124 -91 131 -101.5Q138 -112 159 -112Z" glyph-name="five.sinf" horiz-adv-x="430" unicode="&#62071;" /><glyph d="M228 -10Q182 -10 147 1.5Q112 13 89 34Q66 55 54 83.5Q42 112 42 146Q42 154 42.5 163.5Q43 173 46 187H176Q173 169 172.5 161.5Q172 154 172 149Q172 129 182.5 114Q193 99 222 99Q255 99 273.5 129Q292 159 292 204Q292 230 279 248Q266 266 236 266Q221 266 206.5 259.5Q192 253 184 243L81 267L135 560H462L441 444H225L208 356L211 355Q223 363 240 366Q257 369 271 369Q308 369 337 357Q366 345 385.5 323.5Q405 302 415 272.5Q425 243 425 209Q425 162 411 121.5Q397 81 371.5 52Q346 23 309.5 6.5Q273 -10 228 -10Z" glyph-name="five.smcp" horiz-adv-x="484" unicode="&#58432;" /><glyph d="M265 487Q288 487 300.5 508.5Q313 530 313 562Q313 579 304.5 592Q296 605 274 605Q263 605 252.5 600.5Q242 596 236 589L150 610L192 836H454L437 743H269L257 680H259Q267 685 280.5 687.5Q294 690 305 690Q363 690 394 655.5Q425 621 425 566Q425 533 414.5 502.5Q404 472 383.5 448.5Q363 425 333.5 411Q304 397 265 397Q189 397 155 431.5Q121 466 121 519Q121 525 121 532Q121 539 123 550H233Q231 536 230.5 530.5Q230 525 230 521Q230 508 237 497.5Q244 487 265 487Z" glyph-name="five.sups" horiz-adv-x="430" unicode="&#62055;" /><glyph d="M879 261Q901 261 913.5 275Q926 289 926 309Q926 324 916 336Q906 348 884 348Q863 348 850.5 333.5Q838 319 838 299Q838 284 848 272.5Q858 261 879 261ZM850 79Q875 79 888.5 94.5Q902 110 902 131Q902 148 891 161Q880 174 855 174Q832 174 817.5 158Q803 142 803 122Q803 105 814.5 92Q826 79 850 79ZM849 -10Q814 -10 786 0Q758 10 738.5 27Q719 44 708.5 67Q698 90 698 116Q698 158 722.5 188.5Q747 219 785 232Q762 244 750 267Q738 290 738 314Q738 341 749 363.5Q760 386 779.5 402.5Q799 419 825.5 428Q852 437 884 437Q918 437 944.5 427.5Q971 418 989.5 402.5Q1008 387 1017.5 366Q1027 345 1027 322Q1027 290 1009 259.5Q991 229 951 215Q977 201 991.5 176.5Q1006 152 1006 123Q1006 93 993.5 68.5Q981 44 959.5 26.5Q938 9 909.5 -0.5Q881 -10 849 -10ZM1000 686 201 -37 153 18 952 741ZM251 351Q274 351 286.5 372.5Q299 394 299 426Q299 443 290.5 456Q282 469 260 469Q249 469 238.5 464.5Q228 460 222 453L136 474L178 700H440L423 607H255L243 544H245Q253 549 266.5 551.5Q280 554 291 554Q349 554 380 519.5Q411 485 411 430Q411 397 400.5 366.5Q390 336 369.5 312.5Q349 289 319.5 275Q290 261 251 261Q175 261 141 295.5Q107 330 107 383Q107 389 107 396Q107 403 109 414H219Q217 400 216.5 394.5Q216 389 216 385Q216 372 223 361.5Q230 351 251 351Z" glyph-name="fiveeighths" horiz-adv-x="1080" unicode="&#8541;" /><glyph d="M191 80Q214 80 226.5 101.5Q239 123 239 155Q239 172 230.5 185Q222 198 200 198Q189 198 178.5 193.5Q168 189 162 182L76 203L118 429H380L363 336H195L183 273H185Q193 278 206.5 280.5Q220 283 231 283Q289 283 320 248.5Q351 214 351 159Q351 126 340.5 95.5Q330 65 309.5 41.5Q289 18 259.5 4Q230 -10 191 -10Q115 -10 81 24.5Q47 59 47 112Q47 118 47 125Q47 132 49 143H159Q157 129 156.5 123.5Q156 118 156 114Q156 101 163 90.5Q170 80 191 80Z" glyph-name="fiveinferior" horiz-adv-x="430" unicode="&#8325;" /><glyph d="M874 238Q900 238 914 258Q928 278 928 301Q928 321 916 335Q904 349 881 349Q856 349 842 330Q828 311 828 286Q828 266 839.5 252Q851 238 874 238ZM705 0Q709 4 731.5 21.5Q754 39 783.5 63.5Q813 88 843.5 116Q874 144 895 169L891 171Q886 167 873.5 162.5Q861 158 844 158Q821 158 799 166Q777 174 760 190Q743 206 732.5 229.5Q722 253 722 284Q722 318 734.5 346.5Q747 375 768.5 395.5Q790 416 819 427.5Q848 439 880 439Q917 439 945.5 427Q974 415 993.5 394Q1013 373 1023 345.5Q1033 318 1033 287Q1033 241 1017 200.5Q1001 160 975 124.5Q949 89 917 58Q885 27 852 0ZM1000 686 201 -37 153 18 952 741ZM251 351Q274 351 286.5 372.5Q299 394 299 426Q299 443 290.5 456Q282 469 260 469Q249 469 238.5 464.5Q228 460 222 453L136 474L178 700H440L423 607H255L243 544H245Q253 549 266.5 551.5Q280 554 291 554Q349 554 380 519.5Q411 485 411 430Q411 397 400.5 366.5Q390 336 369.5 312.5Q349 289 319.5 275Q290 261 251 261Q175 261 141 295.5Q107 330 107 383Q107 389 107 396Q107 403 109 414H219Q217 400 216.5 394.5Q216 389 216 385Q216 372 223 361.5Q230 351 251 351Z" glyph-name="fiveninths" horiz-adv-x="1080" unicode="&#62103;" /><glyph d="M932 335H750L767 431H1064L1047 338L860 0H730ZM1000 686 201 -37 153 18 952 741ZM251 351Q274 351 286.5 372.5Q299 394 299 426Q299 443 290.5 456Q282 469 260 469Q249 469 238.5 464.5Q228 460 222 453L136 474L178 700H440L423 607H255L243 544H245Q253 549 266.5 551.5Q280 554 291 554Q349 554 380 519.5Q411 485 411 430Q411 397 400.5 366.5Q390 336 369.5 312.5Q349 289 319.5 275Q290 261 251 261Q175 261 141 295.5Q107 330 107 383Q107 389 107 396Q107 403 109 414H219Q217 400 216.5 394.5Q216 389 216 385Q216 372 223 361.5Q230 351 251 351Z" glyph-name="fivesevenths" horiz-adv-x="1080" unicode="&#62098;" /><glyph d="M867 80Q892 80 906 98.5Q920 117 920 142Q920 162 909 176.5Q898 191 874 191Q848 191 834 171Q820 151 820 128Q820 108 832 94Q844 80 867 80ZM868 -10Q831 -10 802.5 2Q774 14 754.5 34.5Q735 55 725 82.5Q715 110 715 141Q715 187 731 227.5Q747 268 773 304Q799 340 831.5 371Q864 402 896 429H1043Q1038 425 1016 407.5Q994 390 964.5 365.5Q935 341 904.5 313Q874 285 853 260L857 258Q862 262 875 266.5Q888 271 905 271Q928 271 949.5 263Q971 255 988 239Q1005 223 1015.5 199.5Q1026 176 1026 146Q1026 111 1013.5 82.5Q1001 54 979.5 33.5Q958 13 929 1.5Q900 -10 868 -10ZM1000 686 201 -37 153 18 952 741ZM251 351Q274 351 286.5 372.5Q299 394 299 426Q299 443 290.5 456Q282 469 260 469Q249 469 238.5 464.5Q228 460 222 453L136 474L178 700H440L423 607H255L243 544H245Q253 549 266.5 551.5Q280 554 291 554Q349 554 380 519.5Q411 485 411 430Q411 397 400.5 366.5Q390 336 369.5 312.5Q349 289 319.5 275Q290 261 251 261Q175 261 141 295.5Q107 330 107 383Q107 389 107 396Q107 403 109 414H219Q217 400 216.5 394.5Q216 389 216 385Q216 372 223 361.5Q230 351 251 351Z" glyph-name="fivesixths" horiz-adv-x="1080" unicode="&#62087;" /><glyph d="M239 351Q262 351 274.5 372.5Q287 394 287 426Q287 443 278.5 456Q270 469 248 469Q237 469 226.5 464.5Q216 460 210 453L124 474L166 700H428L411 607H243L231 544H233Q241 549 254.5 551.5Q268 554 279 554Q337 554 368 519.5Q399 485 399 430Q399 397 388.5 366.5Q378 336 357.5 312.5Q337 289 307.5 275Q278 261 239 261Q163 261 129 295.5Q95 330 95 383Q95 389 95 396Q95 403 97 414H207Q205 400 204.5 394.5Q204 389 204 385Q204 372 211 361.5Q218 351 239 351Z" glyph-name="fivesuperior" horiz-adv-x="430" unicode="&#8309;" /><glyph d="M470 0H344L403 348H241L181 0H54L114 348H43L62 458H133L156 587Q168 655 204.5 682Q241 709 294 709Q307 709 324.5 708Q342 707 358 706Q376 704 396 703L376 584Q365 585 355 586Q347 587 338 588Q329 589 324 589Q304 589 292 582Q280 575 276 551L260 458H422L464 700H591Z" glyph-name="fl" horiz-adv-x="566" unicode="&#64258;" /><glyph d="M270 330H353L333 213H250L207 -41Q202 -67 193 -91.5Q184 -116 167 -134.5Q150 -153 124 -164.5Q98 -176 60 -176H-50L-28 -55H6Q17 -55 29 -54Q41 -53 51.5 -47.5Q62 -42 70 -32Q78 -22 81 -4L118 213H36L55 330H138L179 565Q183 591 192.5 615.5Q202 640 219 658.5Q236 677 262 688.5Q288 700 326 700H437L415 578H381Q369 578 356.5 577Q344 576 333.5 571Q323 566 315.5 556Q308 546 305 528Z" glyph-name="florin" horiz-adv-x="379" unicode="&#402;" /><glyph d="M-21 -26H5Q14 -26 24 -25Q34 -24 42.5 -20Q51 -16 57.5 -8Q64 0 66 14L88 148H25L43 259H108L141 452Q145 473 152.5 492.5Q160 512 173.5 527Q187 542 207 551Q227 560 257 560H367L345 443H319Q309 443 299 442.5Q289 442 280.5 438.5Q272 435 266 427.5Q260 420 258 405L232 259H296L277 148H212L184 -25Q180 -47 173 -67.5Q166 -88 152.5 -104.5Q139 -121 118 -131Q97 -141 66 -141H-43Z" glyph-name="florin.smcp" horiz-adv-x="352" unicode="&#61840;" /><glyph d="M308 294 355 557 160 294ZM516 700 442 294H529L507 179H422L390 0H256L287 179H11L31 295L334 700Z" glyph-name="four" horiz-adv-x="539" unicode="4" /><glyph d="M311 294 358 557 163 294ZM519 700 445 294H532L510 179H425L393 0H259L290 179H14L34 295L337 700Z" glyph-name="four.alt" horiz-adv-x="544" unicode="&#62022;" /><glyph d="M124 122H266L308 362H306ZM-2 122 289 495H458L392 122H474L455 13H373L343 -152H217L247 13H-20Z" glyph-name="four.posf" horiz-adv-x="511" unicode="&#62038;" /><glyph d="M104 -5H183L206 122ZM3 -4 198 239H331L286 -5H334L318 -95H271L253 -192H149L166 -95H-12Z" glyph-name="four.sinf" horiz-adv-x="430" unicode="&#62070;" /><glyph d="M252 240 284 416 157 240ZM232 131H18L36 241L270 560H437L377 240H439L418 131H358L335 0H209Z" glyph-name="four.smcp" horiz-adv-x="484" unicode="&#58431;" /><glyph d="M209 594H288L311 721ZM108 595 303 838H436L391 594H439L423 504H376L358 407H254L271 504H93Z" glyph-name="four.sups" horiz-adv-x="430" unicode="&#62054;" /><glyph d="M872 80Q895 80 907.5 101.5Q920 123 920 155Q920 172 911.5 185Q903 198 881 198Q870 198 859.5 193.5Q849 189 843 182L757 203L799 429H1061L1044 336H876L864 273H866Q874 278 887.5 280.5Q901 283 912 283Q970 283 1001 248.5Q1032 214 1032 159Q1032 126 1021.5 95.5Q1011 65 990.5 41.5Q970 18 940.5 4Q911 -10 872 -10Q796 -10 762 24.5Q728 59 728 112Q728 118 728 125Q728 132 730 143H840Q838 129 837.5 123.5Q837 118 837 114Q837 101 844 90.5Q851 80 872 80ZM1002 686 203 -37 155 18 954 741ZM176 456H255L278 583ZM75 457 270 700H403L358 456H406L390 366H343L325 269H221L238 366H60Z" glyph-name="fourfifths" horiz-adv-x="1080" unicode="&#62085;" /><glyph d="M137 187H216L239 314ZM36 188 231 431H364L319 187H367L351 97H304L286 0H182L199 97H21Z" glyph-name="fourinferior" horiz-adv-x="430" unicode="&#8324;" /><glyph d="M176 456H255L278 583ZM75 457 270 700H403L358 456H406L390 366H343L325 269H221L238 366H60ZM876 238Q902 238 916 258Q930 278 930 301Q930 321 918 335Q906 349 883 349Q858 349 844 330Q830 311 830 286Q830 266 841.5 252Q853 238 876 238ZM707 0Q711 4 733.5 21.5Q756 39 785.5 63.5Q815 88 845.5 116Q876 144 897 169L893 171Q888 167 875.5 162.5Q863 158 846 158Q823 158 801 166Q779 174 762 190Q745 206 734.5 229.5Q724 253 724 284Q724 318 736.5 346.5Q749 375 770.5 395.5Q792 416 821 427.5Q850 439 882 439Q919 439 947.5 427Q976 415 995.5 394Q1015 373 1025 345.5Q1035 318 1035 287Q1035 241 1019 200.5Q1003 160 977 124.5Q951 89 919 58Q887 27 854 0ZM1002 686 203 -37 155 18 954 741Z" glyph-name="fourninths" horiz-adv-x="1080" unicode="&#62102;" /><glyph d="M934 335H752L769 431H1066L1049 338L862 0H732ZM176 456H255L278 583ZM75 457 270 700H403L358 456H406L390 366H343L325 269H221L238 366H60ZM1002 686 203 -37 155 18 954 741Z" glyph-name="foursevenths" horiz-adv-x="1080" unicode="&#62097;" /><glyph d="M184 456H263L286 583ZM83 457 278 700H411L366 456H414L398 366H351L333 269H229L246 366H68Z" glyph-name="foursuperior" horiz-adv-x="430" unicode="&#8308;" /><glyph d="M555 686 -244 -37 -292 18 507 741Z" glyph-name="fraction" horiz-adv-x="220" unicode="&#8260;" /><glyph d="M556 458 471 -34Q466 -61 456.5 -86Q447 -111 429 -131Q411 -151 383 -163Q355 -175 315 -175H125L144 -65H289Q307 -65 323.5 -57.5Q340 -50 345 -24L361 58Q339 29 305.5 12.5Q272 -4 229 -4Q185 -4 148.5 12.5Q112 29 85.5 58.5Q59 88 44.5 127.5Q30 167 30 212Q30 270 49.5 317.5Q69 365 101 399Q133 433 175.5 451.5Q218 470 265 470Q322 470 360 445Q398 420 415 384Q415 386 415.5 394Q416 402 417.5 413.5Q419 425 420.5 437Q422 449 424 458ZM388 245Q388 268 380.5 288.5Q373 309 359.5 324.5Q346 340 326 349Q306 358 282 358Q256 358 233.5 347.5Q211 337 194 318.5Q177 300 167.5 274.5Q158 249 158 220Q158 172 186 138.5Q214 105 265 105Q291 105 313.5 116Q336 127 352.5 146.5Q369 166 378.5 191Q388 216 388 245Z" glyph-name="g" horiz-adv-x="572" unicode="g" /><glyph d="M373 681H475L467 627Q461 591 447 566Q433 541 413 525Q393 509 367 502Q341 495 312 495Q283 495 257 504Q231 513 213 531Q195 549 186.5 575.5Q178 602 184 636L192 681H294L286 630Q283 613 291.5 601.5Q300 590 320 590Q340 590 350.5 601Q361 612 364 629ZM556 458 471 -34Q466 -61 456.5 -86Q447 -111 429 -131Q411 -151 383 -163Q355 -175 315 -175H125L144 -65H289Q307 -65 323.5 -57.5Q340 -50 345 -24L361 58Q339 29 305.5 12.5Q272 -4 229 -4Q185 -4 148.5 12.5Q112 29 85.5 58.5Q59 88 44.5 127.5Q30 167 30 212Q30 270 49.5 317.5Q69 365 101 399Q133 433 175.5 451.5Q218 470 265 470Q322 470 360 445Q398 420 415 384Q415 386 415.5 394Q416 402 417.5 413.5Q419 425 420.5 437Q422 449 424 458ZM388 245Q388 268 380.5 288.5Q373 309 359.5 324.5Q346 340 326 349Q306 358 282 358Q256 358 233.5 347.5Q211 337 194 318.5Q177 300 167.5 274.5Q158 249 158 220Q158 172 186 138.5Q214 105 265 105Q291 105 313.5 116Q336 127 352.5 146.5Q369 166 378.5 191Q388 216 388 245Z" glyph-name="gbreve" horiz-adv-x="572" unicode="&#287;" /><glyph d="M284 700H415L486 528H368L341 604L291 528H157ZM556 458 471 -34Q466 -61 456.5 -86Q447 -111 429 -131Q411 -151 383 -163Q355 -175 315 -175H125L144 -65H289Q307 -65 323.5 -57.5Q340 -50 345 -24L361 58Q339 29 305.5 12.5Q272 -4 229 -4Q185 -4 148.5 12.5Q112 29 85.5 58.5Q59 88 44.5 127.5Q30 167 30 212Q30 270 49.5 317.5Q69 365 101 399Q133 433 175.5 451.5Q218 470 265 470Q322 470 360 445Q398 420 415 384Q415 386 415.5 394Q416 402 417.5 413.5Q419 425 420.5 437Q422 449 424 458ZM388 245Q388 268 380.5 288.5Q373 309 359.5 324.5Q346 340 326 349Q306 358 282 358Q256 358 233.5 347.5Q211 337 194 318.5Q177 300 167.5 274.5Q158 249 158 220Q158 172 186 138.5Q214 105 265 105Q291 105 313.5 116Q336 127 352.5 146.5Q369 166 378.5 191Q388 216 388 245Z" glyph-name="gcircumflex" horiz-adv-x="572" unicode="&#285;" /><glyph d="M404 593Q404 578 398 564.5Q392 551 382 540.5Q372 530 357.5 523.5Q343 517 327 517Q292 517 269.5 540.5Q247 564 247 595Q247 608 252.5 623Q258 638 269 652L344 746L430 730L381 649Q392 638 398 623.5Q404 609 404 593ZM556 458 471 -34Q466 -61 456.5 -86Q447 -111 429 -131Q411 -151 383 -163Q355 -175 315 -175H125L144 -65H289Q307 -65 323.5 -57.5Q340 -50 345 -24L361 58Q339 29 305.5 12.5Q272 -4 229 -4Q185 -4 148.5 12.5Q112 29 85.5 58.5Q59 88 44.5 127.5Q30 167 30 212Q30 270 49.5 317.5Q69 365 101 399Q133 433 175.5 451.5Q218 470 265 470Q322 470 360 445Q398 420 415 384Q415 386 415.5 394Q416 402 417.5 413.5Q419 425 420.5 437Q422 449 424 458ZM388 245Q388 268 380.5 288.5Q373 309 359.5 324.5Q346 340 326 349Q306 358 282 358Q256 358 233.5 347.5Q211 337 194 318.5Q177 300 167.5 274.5Q158 249 158 220Q158 172 186 138.5Q214 105 265 105Q291 105 313.5 116Q336 127 352.5 146.5Q369 166 378.5 191Q388 216 388 245Z" glyph-name="gcommaaccent" horiz-adv-x="572" unicode="&#291;" /><glyph d="M231 614Q231 651 256.5 676.5Q282 702 318 702Q355 702 380.5 676.5Q406 651 406 614Q406 578 380.5 552.5Q355 527 318 527Q282 527 256.5 552.5Q231 578 231 614ZM556 458 471 -34Q466 -61 456.5 -86Q447 -111 429 -131Q411 -151 383 -163Q355 -175 315 -175H125L144 -65H289Q307 -65 323.5 -57.5Q340 -50 345 -24L361 58Q339 29 305.5 12.5Q272 -4 229 -4Q185 -4 148.5 12.5Q112 29 85.5 58.5Q59 88 44.5 127.5Q30 167 30 212Q30 270 49.5 317.5Q69 365 101 399Q133 433 175.5 451.5Q218 470 265 470Q322 470 360 445Q398 420 415 384Q415 386 415.5 394Q416 402 417.5 413.5Q419 425 420.5 437Q422 449 424 458ZM388 245Q388 268 380.5 288.5Q373 309 359.5 324.5Q346 340 326 349Q306 358 282 358Q256 358 233.5 347.5Q211 337 194 318.5Q177 300 167.5 274.5Q158 249 158 220Q158 172 186 138.5Q214 105 265 105Q291 105 313.5 116Q336 127 352.5 146.5Q369 166 378.5 191Q388 216 388 245Z" glyph-name="gdotaccent" horiz-adv-x="572" unicode="&#289;" /><glyph d="M105 513Q114 565 135 602.5Q156 640 184.5 663Q213 686 247 697Q281 708 317 708Q356 708 389 696.5Q422 685 447 663.5Q472 642 486 612.5Q500 583 500 547Q500 499 482 465.5Q464 432 442 408Q420 384 402 367Q384 350 384 334Q384 316 398.5 298.5Q413 281 430 260Q447 239 461.5 211.5Q476 184 476 145Q476 109 463.5 80Q451 51 429 30.5Q407 10 376 -1Q345 -12 308 -12Q292 -12 260.5 -7.5Q229 -3 201 10L236 107Q248 102 262 97.5Q276 93 287 93Q319 93 333.5 108Q348 123 348 145Q348 165 333.5 185Q319 205 301.5 226.5Q284 248 269.5 272Q255 296 255 324Q255 360 274 387.5Q293 415 315.5 439Q338 463 357 485.5Q376 508 376 534Q376 558 358.5 574Q341 590 315 590Q247 590 232 503L146 0H17Z" glyph-name="germandbls" horiz-adv-x="512" unicode="&#223;" /><glyph d="M294 527H174L71 700H234Z" glyph-name="grave" horiz-adv-x="255" unicode="`" /><glyph d="M326 605H219L132 730H283Z" glyph-name="grave.smcp" horiz-adv-x="350" unicode="&#63328;" /><glyph d="M62 298 81 421H436L328 572L423 654L646 351L347 66L261 151L410 298Z" glyph-name="greater" horiz-adv-x="654" unicode="&gt;" /><glyph d="M67 248 405 350 103 451 126 577 545 418 519 269 43 110Z" glyph-name="greater.alt" horiz-adv-x="548" unicode="&#62550;" /><glyph d="M213 112 326 229H51L72 341H350L273 457L365 536L551 274L300 30Z" glyph-name="greater.smcp" horiz-adv-x="589" unicode="&#62007;" /><glyph d="M20 119H467L446 0H0ZM53 310 391 412 89 513 112 639 531 480 505 331 29 172Z" glyph-name="greaterequal" horiz-adv-x="520" unicode="&#8805;" /><glyph d="M45 112H408L388 0H27ZM74 267 343 348 102 427 123 550 463 421 437 274 50 145Z" glyph-name="greaterequal.smcp" horiz-adv-x="479" unicode="&#62009;" /><glyph d="M242 240 382 414H521L383 237L451 61H329ZM38 240 178 414H317L179 237L247 61H124Z" glyph-name="guillemotleft" horiz-adv-x="527" unicode="&#171;" /><glyph d="M281 359 421 533H560L422 356L490 180H368ZM77 359 217 533H356L218 356L286 180H163Z" glyph-name="guillemotleft.alt" horiz-adv-x="562" unicode="&#62224;" /><glyph d="M233 278 351 428H481L365 278L422 128H307ZM53 278 172 428H301L185 278L242 128H127Z" glyph-name="guillemotleft.smcp" horiz-adv-x="509" unicode="&#62993;" /><glyph d="M150 61H12L150 239L76 414H199L291 235ZM355 61H215L354 239L281 414H403L495 235Z" glyph-name="guillemotright" horiz-adv-x="528" unicode="&#187;" /><glyph d="M190 180H52L190 358L116 533H239L331 354ZM395 180H255L394 358L321 533H443L535 354Z" glyph-name="guillemotright.alt" horiz-adv-x="566" unicode="&#62225;" /><glyph d="M346 279 282 428H396L478 277L359 128H229ZM166 279 101 428H217L298 277L179 128H51Z" glyph-name="guillemotright.smcp" horiz-adv-x="512" unicode="&#62994;" /><glyph d="M178 414H318L179 237L252 61H125L38 245Z" glyph-name="guilsinglleft" horiz-adv-x="325" unicode="&#8249;" /><glyph d="M219 533H359L220 356L293 180H166L79 364Z" glyph-name="guilsinglleft.alt" horiz-adv-x="365" unicode="&#62226;" /><glyph d="M53 285 171 428H302L185 278L249 128H128Z" glyph-name="guilsinglleft.smcp" horiz-adv-x="333" unicode="&#62992;" /><glyph d="M151 61H12L151 239L77 414H200L292 235Z" glyph-name="guilsinglright" horiz-adv-x="325" unicode="&#8250;" /><glyph d="M191 180H52L191 358L117 533H240L332 354Z" glyph-name="guilsinglright.alt" horiz-adv-x="363" unicode="&#62227;" /><glyph d="M167 279 102 428H218L299 277L180 128H50Z" glyph-name="guilsinglright.smcp" horiz-adv-x="333" unicode="&#62995;" /><glyph d="M143 0H17L137 700H262L221 460Q216 437 213 424.5Q210 412 208 404Q240 436 278 453Q316 470 356 470Q392 470 421 456.5Q450 443 468 418.5Q486 394 493 360.5Q500 327 493 288L442 0H315L361 268Q368 308 353.5 331Q339 354 304 354Q276 354 245 335.5Q214 317 194 297Z" glyph-name="h" horiz-adv-x="532" unicode="h" /><glyph d="M60 646H128L137 700H262L253 646H377L358 536H234L221 460Q216 437 213 424.5Q210 412 208 404Q240 436 278 453Q316 470 356 470Q392 470 421 456.5Q450 443 468 418.5Q486 394 493 360.5Q500 327 493 288L442 0H315L361 268Q368 308 353.5 331Q339 354 304 354Q276 354 245 335.5Q214 317 194 297L143 0H17L109 536H41Z" glyph-name="hbar" horiz-adv-x="532" unicode="&#295;" /><glyph d="M305 942H436L507 770H389L362 846L312 770H178ZM143 0H17L137 700H262L221 460Q216 437 213 424.5Q210 412 208 404Q240 436 278 453Q316 470 356 470Q392 470 421 456.5Q450 443 468 418.5Q486 394 493 360.5Q500 327 493 288L442 0H315L361 268Q368 308 353.5 331Q339 354 304 354Q276 354 245 335.5Q214 317 194 297Z" glyph-name="hcircumflex" horiz-adv-x="532" unicode="&#293;" /><glyph d="M334 700H497L378 527H255ZM138 700H301L180 527H58Z" glyph-name="hungarumlaut" horiz-adv-x="457" unicode="&#733;" /><glyph d="M300 730H451L348 605H241ZM120 730H271L168 605H62Z" glyph-name="hungarumlaut.smcp" horiz-adv-x="350" unicode="&#63224;" /><glyph d="M36 323H246L227 213H17Z" glyph-name="hyphen" horiz-adv-x="250" unicode="-" /><glyph d="M52 416H262L241 297H31Z" glyph-name="hyphen.alt" horiz-adv-x="250" unicode="&#62215;" /><glyph d="M123 614Q123 649 147 673.5Q171 698 206 698Q241 698 265.5 673.5Q290 649 290 614Q290 579 265.5 555Q241 531 206 531Q171 531 147 555Q123 579 123 614ZM174 0H46L107 348H44L62 458H253Z" glyph-name="i" horiz-adv-x="269" unicode="i" /><glyph d="M123 614Q123 649 147 673.5Q171 698 206 698Q241 698 265.5 673.5Q290 649 290 614Q290 579 265.5 555Q241 531 206 531Q171 531 147 555Q123 579 123 614ZM174 0H46L107 348H44L62 458H253Z" glyph-name="i.locl" horiz-adv-x="269" unicode="&#62212;" /><glyph d="M174 0H46L107 348H44L62 458H253ZM197 700H360L242 527H120Z" glyph-name="iacute" horiz-adv-x="269" unicode="&#237;" /><glyph d="M241 681H343L335 627Q329 591 315 566Q301 541 281 525Q261 509 235 502Q209 495 180 495Q151 495 125 504Q99 513 81 531Q63 549 54.5 575.5Q46 602 52 636L60 681H162L154 630Q151 613 159.5 601.5Q168 590 188 590Q208 590 218.5 601Q229 612 232 629ZM174 0H46L107 348H44L62 458H253Z" glyph-name="ibreve" horiz-adv-x="269" unicode="&#301;" /><glyph d="M133 700H264L335 528H217L190 604L140 528H6ZM174 0H46L107 348H44L62 458H253Z" glyph-name="icircumflex" horiz-adv-x="269" unicode="&#238;" /><glyph d="M174 0H46L107 348H44L62 458H253ZM193 584Q193 600 199 614Q205 628 215.5 638.5Q226 649 240 655.5Q254 662 270 662Q302 662 325.5 639Q349 616 349 584Q349 552 325.5 529Q302 506 270 506Q254 506 240 512.5Q226 519 215.5 529.5Q205 540 199 554Q193 568 193 584ZM1 584Q1 600 7 614Q13 628 23.5 638.5Q34 649 48.5 655.5Q63 662 79 662Q111 662 134.5 639Q158 616 158 584Q158 552 134.5 529Q111 506 79 506Q63 506 48.5 512.5Q34 519 23.5 529.5Q13 540 7 554Q1 568 1 584Z" glyph-name="idieresis" horiz-adv-x="269" unicode="&#239;" /><glyph d="M174 0H46L107 348H44L62 458H253ZM231 527H111L8 700H171Z" glyph-name="igrave" horiz-adv-x="269" unicode="&#236;" /><glyph d="M392 614Q392 649 416 673.5Q440 698 475 698Q510 698 534 673.5Q558 649 558 614Q558 579 534 555Q510 531 475 531Q440 531 416 555Q392 579 392 614ZM376 348H313L332 458H523L432 -64Q425 -103 409 -125Q393 -147 372 -158.5Q351 -170 327.5 -172.5Q304 -175 282 -175H204L222 -65H266Q286 -65 296.5 -58.5Q307 -52 310 -35ZM123 614Q123 649 147 673.5Q171 698 206 698Q241 698 265.5 673.5Q290 649 290 614Q290 579 265.5 555Q241 531 206 531Q171 531 147 555Q123 579 123 614ZM174 0H46L107 348H44L62 458H253Z" glyph-name="ij" horiz-adv-x="539" unicode="&#307;" /><glyph d="M60 643H368L349 532H41ZM174 0H46L107 348H44L62 458H253Z" glyph-name="imacron" horiz-adv-x="269" unicode="&#299;" /><glyph d="M761 351Q761 383 751 404Q741 425 726.5 437Q712 449 695.5 453.5Q679 458 666 458Q649 458 633 454Q617 450 600.5 438Q584 426 568 405Q552 384 536 350Q552 316 568 295Q584 274 600.5 262Q617 250 633 246Q649 242 666 242Q680 242 696.5 247Q713 252 727 264Q741 276 751 297Q761 318 761 351ZM77 350Q77 407 95 450Q113 493 142.5 522Q172 551 210.5 565.5Q249 580 290 580Q418 580 484 464Q516 522 565.5 551Q615 580 678 580Q719 580 758 565.5Q797 551 827 522Q857 493 875 450Q893 407 893 350Q893 293 875 250Q857 207 827 178Q797 149 758 134.5Q719 120 678 120Q615 120 565.5 149.5Q516 179 484 236Q452 179 402.5 149.5Q353 120 290 120Q249 120 210.5 134.5Q172 149 142.5 178Q113 207 95 250Q77 293 77 350ZM433 350Q417 384 400.5 405Q384 426 367.5 438Q351 450 334.5 454Q318 458 302 458Q289 458 273 453.5Q257 449 242.5 437Q228 425 218.5 404.5Q209 384 209 352Q209 319 218.5 297.5Q228 276 242 264Q256 252 272 247Q288 242 302 242Q318 242 334.5 246Q351 250 367.5 262Q384 274 400.5 295Q417 316 433 350Z" glyph-name="infinity" horiz-adv-x="927" unicode="&#8734;" /><glyph d="M203 -41Q198 -67 189 -91.5Q180 -116 163 -134.5Q146 -153 120 -164.5Q94 -176 56 -176H-54L-32 -55H2Q13 -55 25 -54Q37 -53 47.5 -47.5Q58 -42 66 -32Q74 -22 77 -4L175 565Q179 591 188.5 615.5Q198 640 215 658.5Q232 677 258 688.5Q284 700 322 700H433L411 578H377Q365 578 352.5 577Q340 576 329.5 571Q319 566 311.5 556Q304 546 301 528Z" glyph-name="integral" horiz-adv-x="366" unicode="&#8747;" /><glyph d="M123 614Q123 649 147 673.5Q171 698 206 698Q241 698 265.5 673.5Q290 649 290 614Q290 579 265.5 555Q241 531 206 531Q171 531 147 555Q123 579 123 614ZM174 0H155Q116 -24 98 -44.5Q80 -65 80 -83Q80 -97 91.5 -104Q103 -111 118 -111Q136 -111 157 -106.5Q178 -102 192 -97L173 -174Q149 -185 124 -191.5Q99 -198 63 -198Q16 -198 -14.5 -175.5Q-45 -153 -45 -113Q-45 -91 -35 -73Q-25 -55 -8.5 -40.5Q8 -26 28.5 -16Q49 -6 69 0H46L107 348H44L62 458H253Z" glyph-name="iogonek" horiz-adv-x="269" unicode="&#303;" /><glyph d="M123 665Q139 665 156 659Q173 653 188.5 646Q204 639 217.5 633Q231 627 240 627Q260 627 266 651L268 662L367 650Q365 635 361.5 612.5Q358 590 347 568.5Q336 547 314 531.5Q292 516 254 516Q239 516 222 522Q205 528 189 534.5Q173 541 159.5 547Q146 553 138 553Q116 553 112 529L110 517L9 530Q11 545 15 567.5Q19 590 30.5 612Q42 634 63.5 649.5Q85 665 123 665ZM174 0H46L107 348H44L62 458H253Z" glyph-name="itilde" horiz-adv-x="269" unicode="&#297;" /><glyph d="M123 614Q123 649 147 673.5Q171 698 206 698Q241 698 265 673.5Q289 649 289 614Q289 579 265 555Q241 531 206 531Q171 531 147 555Q123 579 123 614ZM107 348H44L63 458H254L163 -64Q156 -103 140 -125Q124 -147 103 -158.5Q82 -170 58.5 -172.5Q35 -175 13 -175H-65L-47 -65H-3Q17 -65 27.5 -58.5Q38 -52 41 -35Z" glyph-name="j" horiz-adv-x="270" unicode="j" /><glyph d="M142 700H273L344 528H226L199 604L149 528H15ZM107 348H44L63 458H254L163 -64Q156 -103 140 -125Q124 -147 103 -158.5Q82 -170 58.5 -172.5Q35 -175 13 -175H-65L-47 -65H-3Q17 -65 27.5 -59Q38 -53 41 -36Z" glyph-name="jcircumflex" horiz-adv-x="270" unicode="&#309;" /><glyph d="M194 299H224L368 458H526L321 242L452 0H309L211 189H175L143 0H17L137 700H263Z" glyph-name="k" horiz-adv-x="496" unicode="k" /><glyph d="M116 -117Q116 -102 122 -88.5Q128 -75 138 -64.5Q148 -54 162 -47.5Q176 -41 193 -41Q228 -41 250.5 -64.5Q273 -88 273 -119Q273 -132 267.5 -147Q262 -162 251 -176L176 -270L90 -254L139 -173Q128 -162 122 -147.5Q116 -133 116 -117ZM194 299H224L368 458H526L321 242L452 0H309L211 189H175L143 0H17L137 700H263Z" glyph-name="kcommaaccent" horiz-adv-x="496" unicode="&#311;" /><glyph d="M195 289H226L385 458H543L323 238L480 0H332L222 179H176L144 0H16L97 458H225Z" glyph-name="kgreenlandic" horiz-adv-x="515" unicode="&#312;" /><glyph d="M143 0H17L137 700H264Z" glyph-name="l" horiz-adv-x="239" unicode="l" /><glyph d="M228 942H391L273 769H151ZM143 0H17L137 700H264Z" glyph-name="lacute" horiz-adv-x="239" unicode="&#314;" /><glyph d="M300 636Q300 651 306 664.5Q312 678 322 688.5Q332 699 346 705.5Q360 712 377 712Q412 712 434.5 688.5Q457 665 457 634Q457 621 451.5 606Q446 591 435 577L360 483L274 499L323 580Q312 591 306 605.5Q300 620 300 636ZM143 0H17L137 700H264Z" glyph-name="lcaron" horiz-adv-x="239" unicode="&#318;" /><glyph d="M-13 -117Q-13 -102 -7 -88.5Q-1 -75 9 -64.5Q19 -54 33 -47.5Q47 -41 64 -41Q99 -41 121.5 -64.5Q144 -88 144 -119Q144 -132 138.5 -147Q133 -162 122 -176L47 -270L-39 -254L10 -173Q-1 -162 -7 -147.5Q-13 -133 -13 -117ZM143 0H17L137 700H264Z" glyph-name="lcommaaccent" horiz-adv-x="239" unicode="&#316;" /><glyph d="M266 362Q266 399 291.5 424.5Q317 450 353 450Q390 450 415.5 424.5Q441 399 441 362Q441 326 415.5 300.5Q390 275 353 275Q317 275 291.5 300.5Q266 326 266 362ZM143 0H17L137 700H264Z" glyph-name="ldot" horiz-adv-x="422" unicode="&#320;" /><glyph d="M640 421 620 298H265L373 147L278 66L55 368L354 654L440 568L291 421Z" glyph-name="less" horiz-adv-x="655" unicode="&lt;" /><glyph d="M464 122 46 281 72 430 547 589 524 451 186 350 488 248Z" glyph-name="less.alt" horiz-adv-x="547" unicode="&#62551;" /><glyph d="M59 290 311 536 398 457 286 341H558L539 229H258L340 98L246 30Z" glyph-name="less.smcp" horiz-adv-x="592" unicode="&#62006;" /><glyph d="M469 172 51 331 77 480 552 639 529 501 191 400 493 298ZM439 0H-7L13 119H460Z" glyph-name="lessequal" horiz-adv-x="520" unicode="&#8804;" /><glyph d="M30 112H393L373 0H12ZM60 274 86 421 470 550 449 427 179 348 421 267 398 145Z" glyph-name="lessequal.smcp" horiz-adv-x="479" unicode="&#62008;" /><glyph d="M72 516H519L462 197H334L370 397H51Z" glyph-name="logicalnot" horiz-adv-x="520" unicode="&#172;" /><glyph d="M181 0H54L114 348H43L62 458H133L156 587Q168 655 204.5 682Q241 709 294 709Q307 709 324.5 708Q342 707 358 706Q376 704 396 703L376 584Q365 585 355 586Q347 587 338 588Q329 589 324 589Q304 589 292.5 582Q281 575 276 551Z" glyph-name="longs" horiz-adv-x="296" unicode="&#383;" /><glyph d="M333 559 195 339 253 137 386 362ZM280 700H423L526 350L303 0H160L55 350Z" glyph-name="lozenge" horiz-adv-x="537" unicode="&#9674;" /><glyph d="M225 411 285 445 268 344 207 310 154 0H28L67 230L7 196L23 296L85 331L148 700H275Z" glyph-name="lslash" horiz-adv-x="262" unicode="&#322;" /><glyph d="M606 0Q624 103 633.5 160.5Q643 218 647.5 246Q652 274 653 281Q654 288 654 291Q654 320 639 337Q624 354 595 354Q581 354 566.5 349Q552 344 538 335.5Q524 327 511.5 317Q499 307 489 297Q489 291 488 285Q487 280 486.5 274Q486 268 485 264L438 0H311L357 267Q360 283 358.5 298.5Q357 314 350.5 326.5Q344 339 331.5 346.5Q319 354 300 354Q272 354 243.5 335.5Q215 317 195 297L144 0H17L96 458H221Q220 450 218.5 440.5Q217 431 215 423Q212 413 209 404Q241 436 276 453Q311 470 351 470Q399 470 431 447.5Q463 425 477 384Q553 470 646 470Q686 470 715.5 456Q745 442 762.5 417.5Q780 393 785.5 360Q791 327 784 289L733 0Z" glyph-name="m" horiz-adv-x="824" unicode="m" /><glyph d="M98 643H406L387 532H79Z" glyph-name="macron" horiz-adv-x="361" unicode="&#175;" /><glyph d="M110 716H375L358 621H93Z" glyph-name="macron.smcp" horiz-adv-x="350" unicode="&#63407;" /><glyph d="M495 297H48L69 416H516Z" glyph-name="minus" horiz-adv-x="520" unicode="&#8722;" /><glyph d="M78 341H440L420 229H58Z" glyph-name="minus.smcp" horiz-adv-x="479" unicode="&#62998;" /><glyph d="M230 458 186 200Q178 155 199 129.5Q220 104 265 104Q295 104 319 122.5Q343 141 351 185L398 458H526L472 150Q466 115 450 85.5Q434 56 408 34.5Q382 13 345.5 0.5Q309 -12 263 -12Q229 -12 195.5 0Q162 12 143 32L108 -176H-6L103 458Z" glyph-name="mu" horiz-adv-x="520" unicode="&#181;" /><glyph d="M47 236 214 369 101 522 194 595 306 443 466 571 536 479 375 351 488 197 394 124 282 277 118 145Z" glyph-name="multiply" horiz-adv-x="540" unicode="&#215;" /><glyph d="M256 205 131 105 64 191 191 292 106 406 193 475 277 362 397 458 463 371 342 275 427 159 339 90Z" glyph-name="multiply.smcp" horiz-adv-x="511" unicode="&#62002;" /><glyph d="M210 404Q242 436 279.5 453Q317 470 357 470Q393 470 422 456.5Q451 443 469.5 418.5Q488 394 495 360.5Q502 327 495 288L444 0H317L363 268Q370 308 355 331Q340 354 306 354Q277 354 246.5 335.5Q216 317 196 297L144 0H17L97 458H222Q221 450 219.5 440.5Q218 431 216 423Q213 413 210 404Z" glyph-name="n" horiz-adv-x="534" unicode="n" /><glyph d="M327 700H490L372 527H250ZM210 404Q242 436 279.5 453Q317 470 357 470Q393 470 422 456.5Q451 443 469.5 418.5Q488 394 495 360.5Q502 327 495 288L444 0H317L363 268Q370 308 355 331Q340 354 306 354Q277 354 246.5 335.5Q216 317 196 297L144 0H17L97 458H222Q221 450 219.5 440.5Q218 431 216 423Q213 413 210 404Z" glyph-name="nacute" horiz-adv-x="534" unicode="&#324;" /></font>
</defs>
</svg>
