<?xml version="1.0" standalone="no"?><!DOCTYPE svg PUBLIC "-//W3C//DTD SVG 1.1//EN" "http://www.w3.org/Graphics/SVG/1.1/DTD/svg11.dtd" ><svg version="1.1" xmlns="http://www.w3.org/2000/svg"><defs><font horiz-adv-x="0" id="font"><font-face ascent="750" bbox="-284 -264 1192 964" cap-height="700" descent="-250" font-family="Regular Medium Italic" font-stretch="normal" font-style="italic" font-weight="600" units-per-em="1000" x-height="448" /><missing-glyph d="M164 408H118L136 604H146ZM0 671Q0 683 8 691.5Q16 700 28 700H473Q484 700 492 691.5Q500 683 500 671V29Q500 17 492 8.5Q484 0 473 0H28Q16 0 8 8.5Q0 17 0 29ZM415 392Q415 407 429 407H435Q449 407 449 392V388H438V389Q438 392 437.5 394.5Q437 397 432 397Q426 397 426 389V377Q426 369 432 369Q437 369 437.5 371.5Q438 374 438 377V378H449V374Q449 359 435 359H429Q415 359 415 374ZM178 270H244L201 657H83L40 270H105L112 347H170ZM434 470Q445 484 452.5 503Q460 522 460 551V567Q460 609 434 634Q408 659 373 659H356Q321 659 294.5 634Q268 609 268 567V517H330V559Q330 572 336 585.5Q342 599 363 599H366Q386 599 391.5 585.5Q397 572 397 559V552Q396 522 376 495L298 391Q283 371 276 354Q269 337 269 313V270H461V331H339V335Q339 339 342 345.5Q345 352 355 365ZM264 42H292V113H316Q332 113 342 124.5Q352 136 352 154V187Q352 206 342 217Q332 228 316 228H264ZM380 42H465V69H410V123H442V150H410V202H465V228H380ZM237 228H208L191 151L171 228H141L174 107V42H205V107ZM65 42H93V202H123V228H35V202H65ZM460 393Q460 404 454.5 410.5Q449 417 437 417H428Q416 417 410 410.5Q404 404 404 393V373Q404 362 410 355.5Q416 349 428 349H437Q449 349 454.5 355.5Q460 362 460 373ZM292 202H309Q318 202 320.5 195.5Q323 189 323 184V158Q323 153 320.5 147Q318 141 309 141H292Z" horiz-adv-x="500" /><glyph d="M381 621H380L225 308H427ZM191 239 74 0H-12L342 700H437L552 0H474L437 239Z" glyph-name="A" horiz-adv-x="610" unicode="A" /><glyph d="M340 247 309 479H308L195 247ZM271 560H366L455 0H375L349 180H163L78 0H-8Z" glyph-name="A.smcp" horiz-adv-x="518" unicode="&#62257;" /><glyph d="M506 630 334 393H485L526 630ZM992 630H606L565 391H815L803 322H553L509 69H895L883 0H417L473 324H286L56 0H-46L473 700H1003Z" glyph-name="AE" horiz-adv-x="954" unicode="&#198;" /><glyph d="M386 300 419 492H408L274 300ZM372 560H814L802 492H497L467 319H665L653 252H456L424 67H729L718 0H334L374 232H228L66 0H-32Z" glyph-name="AE.smcp" horiz-adv-x="793" unicode="&#62296;" /><glyph d="M464 952H568L449 788H377ZM381 621H380L225 308H427ZM191 239 74 0H-12L342 700H437L552 0H474L437 239Z" glyph-name="Aacute" horiz-adv-x="610" unicode="&#193;" /><glyph d="M362 730H454L361 605H298ZM340 247 309 479H308L195 247ZM271 560H366L455 0H375L349 180H163L78 0H-8Z" glyph-name="Aacute.smcp" horiz-adv-x="518" unicode="&#62503;" /><glyph d="M472 936H540L533 884Q525 825 490 798.5Q455 772 407 772Q383 772 362.5 779.5Q342 787 327 801.5Q312 816 305 838Q298 860 303 889L311 936H379L370 888Q366 865 376 851Q386 837 411 837Q436 837 447.5 851Q459 865 463 888ZM381 621H380L225 308H427ZM191 239 74 0H-12L342 700H437L552 0H474L437 239Z" glyph-name="Abreve" horiz-adv-x="610" unicode="&#258;" /><glyph d="M338 672Q381 672 391 721L393 731H453L450 714Q442 664 409 639.5Q376 615 332 615Q310 615 291 623Q272 631 259.5 645.5Q247 660 242 679Q237 698 243 720L246 731H303Q299 722 299 711Q299 693 309 682.5Q319 672 338 672ZM340 247 309 479H308L195 247ZM271 560H366L455 0H375L349 180H163L78 0H-8Z" glyph-name="Abreve.smcp" horiz-adv-x="518" unicode="&#62504;" /><glyph d="M383 952H481L541 788H466L426 896L348 788H267ZM381 621H380L225 308H427ZM191 239 74 0H-12L342 700H437L552 0H474L437 239Z" glyph-name="Acircumflex" horiz-adv-x="610" unicode="&#194;" /><glyph d="M337 681 276 605H203L298 730H386L435 605H370ZM340 247 309 479H308L195 247ZM271 560H366L455 0H375L349 180H163L78 0H-8Z" glyph-name="Acircumflex.smcp" horiz-adv-x="518" unicode="&#62505;" /><glyph d="M428 836Q428 859 445.5 876.5Q463 894 486 894Q509 894 526.5 876.5Q544 859 544 836Q544 813 526.5 796Q509 779 486 779Q463 779 445.5 796Q428 813 428 836ZM264 836Q264 859 281 876.5Q298 894 321 894Q344 894 361 876.5Q378 859 378 836Q378 813 361 796Q344 779 321 779Q298 779 281 796Q264 813 264 836ZM381 621H380L225 308H427ZM191 239 74 0H-12L342 700H437L552 0H474L437 239Z" glyph-name="Adieresis" horiz-adv-x="610" unicode="&#196;" /><glyph d="M344 673Q343 694 358.5 709Q374 724 396 724Q417 724 432.5 709Q448 694 449 673Q448 653 432.5 637.5Q417 622 396 622Q374 622 358.5 637.5Q343 653 344 673ZM212 673Q211 694 227 709Q243 724 264 724Q285 724 300.5 709Q316 694 317 673Q316 653 300.5 637.5Q285 622 264 622Q243 622 227 637.5Q211 653 212 673ZM340 247 309 479H308L195 247ZM271 560H366L455 0H375L349 180H163L78 0H-8Z" glyph-name="Adieresis.smcp" horiz-adv-x="518" unicode="&#62512;" /><glyph d="M422 788H351L249 952H353ZM381 621H380L225 308H427ZM191 239 74 0H-12L342 700H437L552 0H474L437 239Z" glyph-name="Agrave" horiz-adv-x="610" unicode="&#192;" /><glyph d="M347 605H284L207 730H299ZM340 247 309 479H308L195 247ZM271 560H366L455 0H375L349 180H163L78 0H-8Z" glyph-name="Agrave.smcp" horiz-adv-x="518" unicode="&#62513;" /><glyph d="M283 868H543L532 801H272ZM381 621H380L225 308H427ZM191 239 74 0H-12L342 700H437L552 0H474L437 239Z" glyph-name="Amacron" horiz-adv-x="610" unicode="&#256;" /><glyph d="M223 700H450L439 639H212ZM340 247 309 479H308L195 247ZM271 560H366L455 0H375L349 180H163L78 0H-8Z" glyph-name="Amacron.smcp" horiz-adv-x="518" unicode="&#62309;" /><glyph d="M381 621H380L225 308H427ZM191 239 74 0H-12L342 700H437L552 0H535Q492 -27 460.5 -53Q429 -79 429 -105Q429 -118 440.5 -126Q452 -134 471 -134Q487 -134 503.5 -131Q520 -128 543 -120L535 -173Q518 -181 500 -186Q482 -191 450 -191Q407 -191 383 -170.5Q359 -150 359 -116Q359 -92 369 -73.5Q379 -55 395 -41Q411 -27 431.5 -17Q452 -7 474 1L437 239Z" glyph-name="Aogonek" horiz-adv-x="610" unicode="&#260;" /><glyph d="M340 247 309 479H308L195 247ZM271 560H366L455 0H431Q406 -13 384.5 -30.5Q363 -48 363 -72Q363 -87 376 -94.5Q389 -102 404 -102Q417 -102 430 -100.5Q443 -99 451 -95L443 -139Q441 -140 422 -145.5Q403 -151 377 -151Q339 -151 317 -133Q295 -115 295 -90Q295 -59 317.5 -36Q340 -13 375 0L349 180H163L78 0H-8Z" glyph-name="Aogonek.smcp" horiz-adv-x="518" unicode="&#62310;" /><glyph d="M403 808Q424 808 438 822Q452 836 452 859Q452 882 438 896Q424 910 403 910Q382 910 368 896Q354 882 354 859Q354 836 368 822Q382 808 403 808ZM403 964Q424 964 443.5 956Q463 948 478 934Q493 920 501.5 900.5Q510 881 510 859Q510 836 501.5 817Q493 798 478 784Q463 770 443.5 762Q424 754 403 754Q382 754 362.5 762Q343 770 328 784Q313 798 304.5 817Q296 836 296 859Q296 881 304.5 900.5Q313 920 328 934Q343 948 362.5 956Q382 964 403 964ZM381 621H380L225 308H427ZM191 239 74 0H-12L342 700H437L552 0H474L437 239Z" glyph-name="Aring" horiz-adv-x="610" unicode="&#197;" /><glyph d="M329 634Q347 634 358.5 647Q370 660 370 679Q370 698 358.5 710.5Q347 723 329 723Q310 723 298 710.5Q286 698 286 679Q286 660 298 647Q310 634 329 634ZM329 591Q291 591 264.5 616Q238 641 238 679Q238 717 264.5 741.5Q291 766 329 766Q366 766 392.5 741.5Q419 717 419 679Q419 641 392.5 616Q366 591 329 591ZM340 247 309 479H308L195 247ZM271 560H366L455 0H375L349 180H163L78 0H-8Z" glyph-name="Aring.smcp" horiz-adv-x="518" unicode="&#62311;" /><glyph d="M249 791Q250 800 253 819Q256 838 265 858Q274 878 293 893Q312 908 347 908Q363 908 380 901Q397 894 413 885Q429 876 443.5 869Q458 862 469 862Q482 862 487.5 872Q493 882 496 896L498 906H565Q563 897 561.5 878Q560 859 551.5 839Q543 819 524.5 804Q506 789 472 789Q457 789 440 796Q423 803 406.5 812Q390 821 375.5 828Q361 835 351 835Q337 835 329 825Q321 815 318 801L316 791ZM381 621H380L225 308H427ZM191 239 74 0H-12L342 700H437L552 0H474L437 239Z" glyph-name="Atilde" horiz-adv-x="610" unicode="&#195;" /><glyph d="M362 623Q350 623 337.5 628Q325 633 314 639Q303 645 293.5 650Q284 655 277 655Q268 655 263.5 650Q259 645 255 632L253 625H194L196 637Q197 646 200.5 660Q204 674 212.5 686.5Q221 699 236 708.5Q251 718 275 718Q287 718 300 713Q313 708 324.5 702Q336 696 345.5 691Q355 686 362 686Q371 686 375.5 691.5Q380 697 383 709L385 716H443L441 702Q439 693 436 679.5Q433 666 424.5 653.5Q416 641 401 632Q386 623 362 623ZM340 247 309 479H308L195 247ZM271 560H366L455 0H375L349 180H163L78 0H-8Z" glyph-name="Atilde.smcp" horiz-adv-x="518" unicode="&#62312;" /><glyph d="M237 632 198 402H277Q309 402 338 409.5Q367 417 389.5 433Q412 449 425.5 474Q439 499 439 533Q439 558 429.5 577Q420 596 404 608Q388 620 367.5 626Q347 632 325 632ZM139 67H235Q276 67 310.5 76Q345 85 369.5 103Q394 121 408 148.5Q422 176 422 212Q422 245 409.5 268Q397 291 375.5 306Q354 321 326 328Q298 335 267 335H186ZM518 545Q518 483 484 435.5Q450 388 385 369Q437 352 469.5 312Q502 272 502 215Q502 168 484.5 128.5Q467 89 434.5 60.5Q402 32 356.5 16Q311 0 254 0H48L169 700H335Q380 700 414 686.5Q448 673 471.5 651.5Q495 630 506.5 602Q518 574 518 545Z" glyph-name="B" horiz-adv-x="544" unicode="B" /><glyph d="M238 327Q258 327 278.5 332Q299 337 315 348Q331 359 341 377Q351 395 351 421Q351 439 344 452.5Q337 466 325 475Q313 484 297.5 488.5Q282 493 266 493H203L175 327ZM200 66Q262 66 300 91.5Q338 117 338 171Q338 214 306 237.5Q274 261 226 261H164L130 66ZM137 560H272Q313 560 342.5 548.5Q372 537 391.5 518.5Q411 500 420.5 477Q430 454 430 431Q430 383 403 346Q376 309 326 294Q368 280 392.5 247Q417 214 417 170Q417 131 402.5 100Q388 69 362 46.5Q336 24 299 12Q262 0 217 0H41Z" glyph-name="B.smcp" horiz-adv-x="467" unicode="&#62258;" /><glyph d="M656 481Q633 554 576.5 598.5Q520 643 431 643Q370 643 317.5 619Q265 595 226.5 552.5Q188 510 166 452Q144 394 144 325Q144 270 161 221.5Q178 173 210.5 136.5Q243 100 290 78.5Q337 57 396 57Q481 57 542 100.5Q603 144 639 219H723Q703 166 670.5 123.5Q638 81 595.5 51Q553 21 502.5 4.5Q452 -12 397 -12Q325 -12 264.5 14Q204 40 160 85.5Q116 131 91 193Q66 255 66 328Q66 412 95.5 482.5Q125 553 175.5 604Q226 655 292 683.5Q358 712 430 712Q488 712 538 695Q588 678 628 647.5Q668 617 696 574.5Q724 532 738 481Z" glyph-name="C" horiz-adv-x="745" unicode="C" /><glyph d="M317 -10Q259 -10 210.5 10.5Q162 31 126.5 67Q91 103 71.5 152Q52 201 52 258Q52 326 76.5 383.5Q101 441 142 482.5Q183 524 236.5 547Q290 570 349 570Q396 570 437 555.5Q478 541 510.5 515.5Q543 490 565.5 454.5Q588 419 597 377H515Q498 432 457 466Q416 500 348 500Q302 500 262 481.5Q222 463 193 431Q164 399 147 354Q130 309 130 257Q130 216 143 180Q156 144 180 117Q204 90 239 74.5Q274 59 319 59Q382 59 427.5 92.5Q473 126 499 182H585Q568 138 541 102.5Q514 67 479 42Q444 17 403 3.5Q362 -10 317 -10Z" glyph-name="C.smcp" horiz-adv-x="617" unicode="&#62259;" /><glyph d="M520 952H624L505 788H433ZM656 481Q633 554 576.5 598.5Q520 643 431 643Q370 643 317.5 619Q265 595 226.5 552.5Q188 510 166 452Q144 394 144 325Q144 270 161 221.5Q178 173 210.5 136.5Q243 100 290 78.5Q337 57 396 57Q481 57 542 100.5Q603 144 639 219H723Q703 166 670.5 123.5Q638 81 595.5 51Q553 21 502.5 4.5Q452 -12 397 -12Q325 -12 264.5 14Q204 40 160 85.5Q116 131 91 193Q66 255 66 328Q66 412 95.5 482.5Q125 553 175.5 604Q226 655 292 683.5Q358 712 430 712Q488 712 538 695Q588 678 628 647.5Q668 617 696 574.5Q724 532 738 481Z" glyph-name="Cacute" horiz-adv-x="745" unicode="&#262;" /><glyph d="M405 730H497L404 605H341ZM317 -10Q259 -10 210.5 10.5Q162 31 126.5 67Q91 103 71.5 152Q52 201 52 258Q52 326 76.5 383.5Q101 441 142 482.5Q183 524 236.5 547Q290 570 349 570Q396 570 437 555.5Q478 541 510.5 515.5Q543 490 565.5 454.5Q588 419 597 377H515Q498 432 457 466Q416 500 348 500Q302 500 262 481.5Q222 463 193 431Q164 399 147 354Q130 309 130 257Q130 216 143 180Q156 144 180 117Q204 90 239 74.5Q274 59 319 59Q382 59 427.5 92.5Q473 126 499 182H585Q568 138 541 102.5Q514 67 479 42Q444 17 403 3.5Q362 -10 317 -10Z" glyph-name="Cacute.smcp" horiz-adv-x="617" unicode="&#62313;" /><glyph d="M358 952H434L474 844L552 952H633L517 788H418ZM656 481Q633 554 576.5 598.5Q520 643 431 643Q370 643 317.5 619Q265 595 226.5 552.5Q188 510 166 452Q144 394 144 325Q144 270 161 221.5Q178 173 210.5 136.5Q243 100 290 78.5Q337 57 396 57Q481 57 542 100.5Q603 144 639 219H723Q703 166 670.5 123.5Q638 81 595.5 51Q553 21 502.5 4.5Q452 -12 397 -12Q325 -12 264.5 14Q204 40 160 85.5Q116 131 91 193Q66 255 66 328Q66 412 95.5 482.5Q125 553 175.5 604Q226 655 292 683.5Q358 712 430 712Q488 712 538 695Q588 678 628 647.5Q668 617 696 574.5Q724 532 738 481Z" glyph-name="Ccaron" horiz-adv-x="745" unicode="&#268;" /><glyph d="M435 730H507L412 605H324L275 730H341L374 654ZM317 -10Q259 -10 210.5 10.5Q162 31 126.5 67Q91 103 71.5 152Q52 201 52 258Q52 326 76.5 383.5Q101 441 142 482.5Q183 524 236.5 547Q290 570 349 570Q396 570 437 555.5Q478 541 510.5 515.5Q543 490 565.5 454.5Q588 419 597 377H515Q498 432 457 466Q416 500 348 500Q302 500 262 481.5Q222 463 193 431Q164 399 147 354Q130 309 130 257Q130 216 143 180Q156 144 180 117Q204 90 239 74.5Q274 59 319 59Q382 59 427.5 92.5Q473 126 499 182H585Q568 138 541 102.5Q514 67 479 42Q444 17 403 3.5Q362 -10 317 -10Z" glyph-name="Ccaron.smcp" horiz-adv-x="617" unicode="&#62320;" /><glyph d="M332 -6Q273 5 224.5 34.5Q176 64 141 108Q106 152 86.5 208Q67 264 67 328Q67 412 96.5 482.5Q126 553 176.5 604Q227 655 293 683.5Q359 712 431 712Q489 712 539 695Q589 678 629 647.5Q669 617 697 574.5Q725 532 739 481H657Q634 554 577.5 598.5Q521 643 432 643Q371 643 318.5 619Q266 595 227.5 552.5Q189 510 167 452Q145 394 145 325Q145 270 162 221.5Q179 173 211.5 136.5Q244 100 291 78.5Q338 57 397 57Q482 57 543 100.5Q604 144 640 219H724Q706 169 675.5 128.5Q645 88 605.5 58Q566 28 519.5 10.5Q473 -7 422 -11L341 -136H260Z" glyph-name="Ccedilla" horiz-adv-x="747" unicode="&#199;" /><glyph d="M233 2Q192 15 159 39Q126 63 102.5 96.5Q79 130 66 171Q53 212 53 258Q53 326 77.5 383.5Q102 441 143 482.5Q184 524 237.5 547Q291 570 350 570Q397 570 438 555.5Q479 541 511.5 515.5Q544 490 566.5 454.5Q589 419 598 377H516Q499 432 458 466Q417 500 349 500Q303 500 263 481.5Q223 463 194 431Q165 399 148 354Q131 309 131 257Q131 216 144 180Q157 144 181 117Q205 90 240 74.5Q275 59 320 59Q383 59 428.5 92.5Q474 126 500 182H586Q569 138 542 102.5Q515 67 480 42Q445 17 404 3.5Q363 -10 318 -10H307L236 -129H173Z" glyph-name="Ccedilla.smcp" horiz-adv-x="618" unicode="&#62321;" /><glyph d="M448 952H546L606 788H531L491 896L413 788H332ZM656 481Q633 554 576.5 598.5Q520 643 431 643Q370 643 317.5 619Q265 595 226.5 552.5Q188 510 166 452Q144 394 144 325Q144 270 161 221.5Q178 173 210.5 136.5Q243 100 290 78.5Q337 57 396 57Q481 57 542 100.5Q603 144 639 219H723Q703 166 670.5 123.5Q638 81 595.5 51Q553 21 502.5 4.5Q452 -12 397 -12Q325 -12 264.5 14Q204 40 160 85.5Q116 131 91 193Q66 255 66 328Q66 412 95.5 482.5Q125 553 175.5 604Q226 655 292 683.5Q358 712 430 712Q488 712 538 695Q588 678 628 647.5Q668 617 696 574.5Q724 532 738 481Z" glyph-name="Ccircumflex" horiz-adv-x="745" unicode="&#264;" /><glyph d="M385 681 324 605H251L346 730H434L483 605H418ZM317 -10Q259 -10 210.5 10.5Q162 31 126.5 67Q91 103 71.5 152Q52 201 52 258Q52 326 76.5 383.5Q101 441 142 482.5Q183 524 236.5 547Q290 570 349 570Q396 570 437 555.5Q478 541 510.5 515.5Q543 490 565.5 454.5Q588 419 597 377H515Q498 432 457 466Q416 500 348 500Q302 500 262 481.5Q222 463 193 431Q164 399 147 354Q130 309 130 257Q130 216 143 180Q156 144 180 117Q204 90 239 74.5Q274 59 319 59Q382 59 427.5 92.5Q473 126 499 182H585Q568 138 541 102.5Q514 67 479 42Q444 17 403 3.5Q362 -10 317 -10Z" glyph-name="Ccircumflex.smcp" horiz-adv-x="617" unicode="&#62322;" /><glyph d="M527 843Q527 820 510 803Q493 786 470 786Q447 786 429.5 803Q412 820 412 843Q412 866 429.5 883Q447 900 470 900Q493 900 510 883Q527 866 527 843ZM656 481Q633 554 576.5 598.5Q520 643 431 643Q370 643 317.5 619Q265 595 226.5 552.5Q188 510 166 452Q144 394 144 325Q144 270 161 221.5Q178 173 210.5 136.5Q243 100 290 78.5Q337 57 396 57Q481 57 542 100.5Q603 144 639 219H723Q703 166 670.5 123.5Q638 81 595.5 51Q553 21 502.5 4.5Q452 -12 397 -12Q325 -12 264.5 14Q204 40 160 85.5Q116 131 91 193Q66 255 66 328Q66 412 95.5 482.5Q125 553 175.5 604Q226 655 292 683.5Q358 712 430 712Q488 712 538 695Q588 678 628 647.5Q668 617 696 574.5Q724 532 738 481Z" glyph-name="Cdotaccent" horiz-adv-x="745" unicode="&#266;" /><glyph d="M330 673Q329 694 345 709Q361 724 382 724Q403 724 418.5 709Q434 694 435 673Q434 653 418.5 637.5Q403 622 382 622Q361 622 345 637.5Q329 653 330 673ZM317 -10Q259 -10 210.5 10.5Q162 31 126.5 67Q91 103 71.5 152Q52 201 52 258Q52 326 76.5 383.5Q101 441 142 482.5Q183 524 236.5 547Q290 570 349 570Q396 570 437 555.5Q478 541 510.5 515.5Q543 490 565.5 454.5Q588 419 597 377H515Q498 432 457 466Q416 500 348 500Q302 500 262 481.5Q222 463 193 431Q164 399 147 354Q130 309 130 257Q130 216 143 180Q156 144 180 117Q204 90 239 74.5Q274 59 319 59Q382 59 427.5 92.5Q473 126 499 182H585Q568 138 541 102.5Q514 67 479 42Q444 17 403 3.5Q362 -10 317 -10Z" glyph-name="Cdotaccent.smcp" horiz-adv-x="617" unicode="&#62323;" /><glyph d="M251 67Q326 67 387 89.5Q448 112 491.5 155Q535 198 558.5 261Q582 324 582 404Q582 459 563.5 502Q545 545 510.5 574Q476 603 427.5 618Q379 633 319 633H237L139 67ZM662 399Q662 313 634.5 240Q607 167 556 114Q505 61 432 30.5Q359 0 268 0H48L169 700H344Q419 700 478 677.5Q537 655 578 615Q619 575 640.5 519.5Q662 464 662 399Z" glyph-name="D" horiz-adv-x="681" unicode="D" /><glyph d="M137 560H284Q344 560 392 541.5Q440 523 473.5 491Q507 459 524.5 414.5Q542 370 542 318Q542 247 519.5 188.5Q497 130 455 88Q413 46 354 23Q295 0 222 0H41ZM212 66Q267 66 313 82.5Q359 99 392.5 131Q426 163 444.5 210Q463 257 463 318Q463 403 410 448.5Q357 494 267 494H203L130 66Z" glyph-name="D.smcp" horiz-adv-x="574" unicode="&#62260;" /><glyph d="M296 952H372L412 844L490 952H571L455 788H356ZM251 67Q326 67 387 89.5Q448 112 491.5 155Q535 198 558.5 261Q582 324 582 404Q582 459 563.5 502Q545 545 510.5 574Q476 603 427.5 618Q379 633 319 633H237L139 67ZM662 399Q662 313 634.5 240Q607 167 556 114Q505 61 432 30.5Q359 0 268 0H48L169 700H344Q419 700 478 677.5Q537 655 578 615Q619 575 640.5 519.5Q662 464 662 399Z" glyph-name="Dcaron" horiz-adv-x="681" unicode="&#270;" /><glyph d="M398 730H470L375 605H287L238 730H304L337 654ZM137 560H284Q344 560 392 541.5Q440 523 473.5 491Q507 459 524.5 414.5Q542 370 542 318Q542 247 519.5 188.5Q497 130 455 88Q413 46 354 23Q295 0 222 0H41ZM212 66Q267 66 313 82.5Q359 99 392.5 131Q426 163 444.5 210Q463 257 463 318Q463 403 410 448.5Q357 494 267 494H203L130 66Z" glyph-name="Dcaron.smcp" horiz-adv-x="574" unicode="&#62324;" /><glyph d="M254 67Q329 67 390 89.5Q451 112 494.5 155Q538 198 561.5 261Q585 324 585 404Q585 459 566.5 502Q548 545 513.5 574Q479 603 430.5 618Q382 633 322 633H240L198 391H415L402 323H186L142 67ZM23 391H118L172 700H347Q422 700 481 677.5Q540 655 581 615Q622 575 643.5 519.5Q665 464 665 399Q665 313 637.5 240Q610 167 559 114Q508 61 435 30.5Q362 0 271 0H51L107 323H11Z" glyph-name="Dcroat" horiz-adv-x="684" unicode="&#272;" /><glyph d="M213 66Q268 66 314 82.5Q360 99 393.5 131Q427 163 445.5 210Q464 257 464 318Q464 403 411 448.5Q358 494 268 494H204L174 319H337L324 252H162L131 66ZM29 319H96L138 560H285Q345 560 393 541.5Q441 523 474.5 491Q508 459 525.5 414.5Q543 370 543 318Q543 247 520.5 188.5Q498 130 456 88Q414 46 355 23Q296 0 223 0H42L85 252H17Z" glyph-name="Dcroat.smcp" horiz-adv-x="574" unicode="&#62497;" /><glyph d="M392 615 98 75H503ZM-6 0 7 75 354 700H456L589 75L576 0Z" glyph-name="Delta" horiz-adv-x="648" unicode="&#8710;" /><glyph d="M626 630H236L195 391H446L434 323H183L139 69H529L517 0H48L169 700H638Z" glyph-name="E" horiz-adv-x="588" unicode="E" /><glyph d="M137 560H523L511 492H203L174 319H368L356 252H162L130 67H438L426 0H41Z" glyph-name="E.smcp" horiz-adv-x="501" unicode="&#62261;" /><glyph d="M462 952H566L447 788H375ZM626 630H236L195 391H446L434 323H183L139 69H529L517 0H48L169 700H638Z" glyph-name="Eacute" horiz-adv-x="588" unicode="&#201;" /><glyph d="M344 730H436L343 605H280ZM137 560H523L511 492H203L174 319H368L356 252H162L130 67H438L426 0H41Z" glyph-name="Eacute.smcp" horiz-adv-x="501" unicode="&#62514;" /><glyph d="M474 936H542L535 884Q527 825 492 798.5Q457 772 409 772Q385 772 364.5 779.5Q344 787 329 801.5Q314 816 307 838Q300 860 305 889L313 936H381L372 888Q368 865 378 851Q388 837 413 837Q438 837 449.5 851Q461 865 465 888ZM626 630H236L195 391H446L434 323H183L139 69H529L517 0H48L169 700H638Z" glyph-name="Ebreve" horiz-adv-x="588" unicode="&#276;" /><glyph d="M327 672Q370 672 380 721L382 731H442L439 714Q431 664 398 639.5Q365 615 321 615Q299 615 280 623Q261 631 248.5 645.5Q236 660 231 679Q226 698 232 720L235 731H292Q288 722 288 711Q288 693 298 682.5Q308 672 327 672ZM137 560H523L511 492H203L174 319H368L356 252H162L130 67H438L426 0H41Z" glyph-name="Ebreve.smcp" horiz-adv-x="501" unicode="&#62515;" /><glyph d="M293 952H369L409 844L487 952H568L452 788H353ZM626 630H236L195 391H446L434 323H183L139 69H529L517 0H48L169 700H638Z" glyph-name="Ecaron" horiz-adv-x="588" unicode="&#282;" /><glyph d="M403 730H475L380 605H292L243 730H309L342 654ZM137 560H523L511 492H203L174 319H368L356 252H162L130 67H438L426 0H41Z" glyph-name="Ecaron.smcp" horiz-adv-x="501" unicode="&#62516;" /><glyph d="M382 952H480L540 788H465L425 896L347 788H266ZM626 630H236L195 391H446L434 323H183L139 69H529L517 0H48L169 700H638Z" glyph-name="Ecircumflex" horiz-adv-x="588" unicode="&#202;" /><glyph d="M351 681 290 605H217L312 730H400L449 605H384ZM137 560H523L511 492H203L174 319H368L356 252H162L130 67H438L426 0H41Z" glyph-name="Ecircumflex.smcp" horiz-adv-x="501" unicode="&#62517;" /><glyph d="M438 836Q438 859 455.5 876.5Q473 894 496 894Q519 894 536.5 876.5Q554 859 554 836Q554 813 536.5 796Q519 779 496 779Q473 779 455.5 796Q438 813 438 836ZM274 836Q274 859 291 876.5Q308 894 331 894Q354 894 371 876.5Q388 859 388 836Q388 813 371 796Q354 779 331 779Q308 779 291 796Q274 813 274 836ZM626 630H236L195 391H446L434 323H183L139 69H529L517 0H48L169 700H638Z" glyph-name="Edieresis" horiz-adv-x="588" unicode="&#203;" /><glyph d="M351 673Q350 694 365.5 709Q381 724 403 724Q424 724 439.5 709Q455 694 456 673Q455 653 439.5 637.5Q424 622 403 622Q381 622 365.5 637.5Q350 653 351 673ZM219 673Q218 694 234 709Q250 724 271 724Q292 724 307.5 709Q323 694 324 673Q323 653 307.5 637.5Q292 622 271 622Q250 622 234 637.5Q218 653 219 673ZM137 560H523L511 492H203L174 319H368L356 252H162L130 67H438L426 0H41Z" glyph-name="Edieresis.smcp" horiz-adv-x="501" unicode="&#62518;" /><glyph d="M470 843Q470 820 453 803Q436 786 413 786Q390 786 372.5 803Q355 820 355 843Q355 866 372.5 883Q390 900 413 900Q436 900 453 883Q470 866 470 843ZM626 630H236L195 391H446L434 323H183L139 69H529L517 0H48L169 700H638Z" glyph-name="Edotaccent" horiz-adv-x="588" unicode="&#278;" /><glyph d="M285 673Q284 694 300 709Q316 724 337 724Q358 724 373.5 709Q389 694 390 673Q389 653 373.5 637.5Q358 622 337 622Q316 622 300 637.5Q284 653 285 673ZM137 560H523L511 492H203L174 319H368L356 252H162L130 67H438L426 0H41Z" glyph-name="Edotaccent.smcp" horiz-adv-x="501" unicode="&#62519;" /><glyph d="M475 788H404L302 952H406ZM626 630H236L195 391H446L434 323H183L139 69H529L517 0H48L169 700H638Z" glyph-name="Egrave" horiz-adv-x="588" unicode="&#200;" /><glyph d="M359 605H296L219 730H311ZM137 560H523L511 492H203L174 319H368L356 252H162L130 67H438L426 0H41Z" glyph-name="Egrave.smcp" horiz-adv-x="501" unicode="&#62520;" /><glyph d="M291 868H551L540 801H280ZM626 630H236L195 391H446L434 323H183L139 69H529L517 0H48L169 700H638Z" glyph-name="Emacron" horiz-adv-x="588" unicode="&#274;" /><glyph d="M230 700H457L446 639H219ZM137 560H523L511 492H203L174 319H368L356 252H162L130 67H438L426 0H41Z" glyph-name="Emacron.smcp" horiz-adv-x="501" unicode="&#62521;" /><glyph d="M128 0H48L169 700H272L478 117L579 700H659L530 -54Q525 -83 515 -105.5Q505 -128 488 -143.5Q471 -159 444.5 -167.5Q418 -176 380 -176H311L324 -106H367Q386 -106 400.5 -103.5Q415 -101 424.5 -93.5Q434 -86 440.5 -71Q447 -56 451 -32L456 0H444L231 594Z" glyph-name="Eng" horiz-adv-x="663" unicode="&#330;" /><glyph d="M269 -70H303Q329 -70 343 -59Q357 -48 363 -15L366 0H356L196 451L118 0H41L137 560H237L389 122L465 560H543L441 -32Q432 -84 403 -111.5Q374 -139 311 -139H257Z" glyph-name="Eng.smcp" horiz-adv-x="563" unicode="&#62487;" /><glyph d="M626 630H236L195 391H446L434 323H183L139 69H529L517 0H448Q405 -27 373.5 -53Q342 -79 342 -105Q342 -118 353.5 -126Q365 -134 384 -134Q400 -134 416.5 -131Q433 -128 456 -120L448 -173Q431 -181 413 -186Q395 -191 363 -191Q320 -191 296 -170.5Q272 -150 272 -116Q272 -92 281.5 -73.5Q291 -55 306.5 -41.5Q322 -28 342.5 -18Q363 -8 384 0H48L169 700H638Z" glyph-name="Eogonek" horiz-adv-x="588" unicode="&#280;" /><glyph d="M137 560H523L511 492H203L174 319H368L356 252H162L130 67H438L426 0H356Q331 -13 309.5 -30.5Q288 -48 288 -72Q288 -87 301 -94.5Q314 -102 329 -102Q342 -102 355 -100.5Q368 -99 376 -95L368 -139Q366 -140 347 -145.5Q328 -151 302 -151Q264 -151 242 -133Q220 -115 220 -90Q220 -59 242.5 -36Q265 -13 300 0H41Z" glyph-name="Eogonek.smcp" horiz-adv-x="501" unicode="&#62528;" /><glyph d="M258 67Q333 67 394 89.5Q455 112 498.5 155Q542 198 565.5 261Q589 324 589 404Q589 459 570.5 502Q552 545 517.5 574Q483 603 434.5 618Q386 633 326 633H244L202 392H414L402 322H190L146 67ZM61 392H122L176 700H351Q426 700 485 677.5Q544 655 585 615Q626 575 647.5 519.5Q669 464 669 399Q669 313 641.5 240Q614 167 563 114Q512 61 439 30.5Q366 0 275 0H55L110 322H49Z" glyph-name="Eth" horiz-adv-x="688" unicode="&#208;" /><glyph d="M213 66Q268 66 314 82.5Q360 99 393.5 131Q427 163 445.5 210Q464 257 464 318Q464 403 411 448.5Q358 494 268 494H205L175 319H333L320 252H163L132 66ZM25 319H97L139 560H285Q345 560 393 541.5Q441 523 474.5 491Q508 459 525.5 414.5Q543 370 543 318Q543 247 520.5 188.5Q498 130 456 88Q414 46 355 23Q296 0 223 0H43L86 252H13Z" glyph-name="Eth.smcp" horiz-adv-x="574" unicode="&#62498;" /><glyph d="M84 470H145Q163 525 192.5 570Q222 615 260 646.5Q298 678 344 695Q390 712 443 712Q495 712 540.5 697Q586 682 621 652.5Q656 623 679 581Q702 539 711 485H630Q625 518 611.5 547Q598 576 575.5 597Q553 618 520.5 630.5Q488 643 443 643Q366 643 311.5 595.5Q257 548 227 470H490L478 405H208Q203 379 199.5 350.5Q196 322 195 293H460L449 228H198Q208 152 254.5 104.5Q301 57 392 57Q466 57 516.5 101Q567 145 591 214H678Q661 161 632 119Q603 77 565.5 48Q528 19 483 3.5Q438 -12 388 -12Q328 -12 281 5.5Q234 23 200 54.5Q166 86 146 130.5Q126 175 119 228H43L55 293H116Q118 353 128 405H72Z" glyph-name="Euro" horiz-adv-x="720" unicode="&#8364;" /><glyph d="M67 378H121Q136 421 160 456.5Q184 492 215 517.5Q246 543 283.5 556.5Q321 570 364 570Q454 570 511.5 519Q569 468 581 379H499Q496 404 487 426Q478 448 461.5 464.5Q445 481 421 490.5Q397 500 363 500Q306 500 266 466.5Q226 433 203 378H400L389 319H185Q180 300 178 280Q176 260 175 240H376L365 181H178Q187 126 221.5 92Q256 58 323 58Q379 58 415.5 92Q452 126 471 179H559Q530 91 467.5 40.5Q405 -10 319 -10Q271 -10 233 4Q195 18 167.5 43.5Q140 69 123 104Q106 139 100 181H33L44 240H97Q97 279 105 319H57Z" glyph-name="Euro.smcp" horiz-adv-x="602" unicode="&#63111;" /><glyph d="M181 304 128 0H48L169 700H618L606 630H237L193 373H462L450 304Z" glyph-name="F" horiz-adv-x="552" unicode="F" /><glyph d="M137 560H508L496 492H203L171 304H386L373 237H159L119 0H41Z" glyph-name="F.smcp" horiz-adv-x="472" unicode="&#62262;" /><glyph d="M389 -12Q317 -12 258 13.5Q199 39 156 84Q113 129 89.5 191.5Q66 254 66 328Q66 412 95.5 482.5Q125 553 175.5 604Q226 655 292 683.5Q358 712 431 712Q489 712 540.5 695Q592 678 634 647.5Q676 617 705.5 574.5Q735 532 749 481H667Q644 554 582.5 598.5Q521 643 432 643Q371 643 318.5 619Q266 595 227 552.5Q188 510 166 452Q144 394 144 325Q144 270 161 221.5Q178 173 210 136.5Q242 100 289 78.5Q336 57 395 57Q449 57 492.5 76Q536 95 567.5 122.5Q599 150 618 181.5Q637 213 643 239H474L485 308H734L681 0H610L628 110Q613 87 591 65.5Q569 44 539 26.5Q509 9 471.5 -1.5Q434 -12 389 -12Z" glyph-name="G" horiz-adv-x="768" unicode="G" /><glyph d="M304 -10Q249 -10 203 9.5Q157 29 123.5 64.5Q90 100 71.5 149.5Q53 199 53 258Q53 326 77.5 383.5Q102 441 143 482.5Q184 524 237.5 547Q291 570 350 570Q397 570 438.5 555.5Q480 541 513 515.5Q546 490 569 454.5Q592 419 601 377H518Q501 432 459 466Q417 500 349 500Q303 500 263 481.5Q223 463 194 431Q165 399 148 354.5Q131 310 131 258Q131 218 143 181.5Q155 145 178 117.5Q201 90 234.5 74Q268 58 311 58Q351 58 384.5 71.5Q418 85 442.5 105Q467 125 482 147.5Q497 170 502 188H365L376 254H590L546 0H476L490 81Q478 64 460 48Q442 32 418 19Q394 6 365.5 -2Q337 -10 304 -10Z" glyph-name="G.smcp" horiz-adv-x="632" unicode="&#62263;" /><glyph d="M521 936H589L582 884Q574 825 539 798.5Q504 772 456 772Q432 772 411.5 779.5Q391 787 376 801.5Q361 816 354 838Q347 860 352 889L360 936H428L419 888Q415 865 425 851Q435 837 460 837Q485 837 496.5 851Q508 865 512 888ZM389 -12Q317 -12 258 13.5Q199 39 156 84Q113 129 89.5 191.5Q66 254 66 328Q66 412 95.5 482.5Q125 553 175.5 604Q226 655 292 683.5Q358 712 431 712Q489 712 540.5 695Q592 678 634 647.5Q676 617 705.5 574.5Q735 532 749 481H667Q644 554 582.5 598.5Q521 643 432 643Q371 643 318.5 619Q266 595 227 552.5Q188 510 166 452Q144 394 144 325Q144 270 161 221.5Q178 173 210 136.5Q242 100 289 78.5Q336 57 395 57Q449 57 492.5 76Q536 95 567.5 122.5Q599 150 618 181.5Q637 213 643 239H474L485 308H734L681 0H610L628 110Q613 87 591 65.5Q569 44 539 26.5Q509 9 471.5 -1.5Q434 -12 389 -12Z" glyph-name="Gbreve" horiz-adv-x="768" unicode="&#286;" /><glyph d="M372 672Q415 672 425 721L427 731H487L484 714Q476 664 443 639.5Q410 615 366 615Q344 615 325 623Q306 631 293.5 645.5Q281 660 276 679Q271 698 277 720L280 731H337Q333 722 333 711Q333 693 343 682.5Q353 672 372 672ZM304 -10Q249 -10 203 9.5Q157 29 123.5 64.5Q90 100 71.5 149.5Q53 199 53 258Q53 326 77.5 383.5Q102 441 143 482.5Q184 524 237.5 547Q291 570 350 570Q397 570 438.5 555.5Q480 541 513 515.5Q546 490 569 454.5Q592 419 601 377H518Q501 432 459 466Q417 500 349 500Q303 500 263 481.5Q223 463 194 431Q165 399 148 354.5Q131 310 131 258Q131 218 143 181.5Q155 145 178 117.5Q201 90 234.5 74Q268 58 311 58Q351 58 384.5 71.5Q418 85 442.5 105Q467 125 482 147.5Q497 170 502 188H365L376 254H590L546 0H476L490 81Q478 64 460 48Q442 32 418 19Q394 6 365.5 -2Q337 -10 304 -10Z" glyph-name="Gbreve.smcp" horiz-adv-x="632" unicode="&#62325;" /><glyph d="M435 952H533L593 788H518L478 896L400 788H319ZM389 -12Q317 -12 258 13.5Q199 39 156 84Q113 129 89.5 191.5Q66 254 66 328Q66 412 95.5 482.5Q125 553 175.5 604Q226 655 292 683.5Q358 712 431 712Q489 712 540.5 695Q592 678 634 647.5Q676 617 705.5 574.5Q735 532 749 481H667Q644 554 582.5 598.5Q521 643 432 643Q371 643 318.5 619Q266 595 227 552.5Q188 510 166 452Q144 394 144 325Q144 270 161 221.5Q178 173 210 136.5Q242 100 289 78.5Q336 57 395 57Q449 57 492.5 76Q536 95 567.5 122.5Q599 150 618 181.5Q637 213 643 239H474L485 308H734L681 0H610L628 110Q613 87 591 65.5Q569 44 539 26.5Q509 9 471.5 -1.5Q434 -12 389 -12Z" glyph-name="Gcircumflex" horiz-adv-x="768" unicode="&#284;" /><glyph d="M371 681 310 605H237L332 730H420L469 605H404ZM304 -10Q249 -10 203 9.5Q157 29 123.5 64.5Q90 100 71.5 149.5Q53 199 53 258Q53 326 77.5 383.5Q102 441 143 482.5Q184 524 237.5 547Q291 570 350 570Q397 570 438.5 555.5Q480 541 513 515.5Q546 490 569 454.5Q592 419 601 377H518Q501 432 459 466Q417 500 349 500Q303 500 263 481.5Q223 463 194 431Q165 399 148 354.5Q131 310 131 258Q131 218 143 181.5Q155 145 178 117.5Q201 90 234.5 74Q268 58 311 58Q351 58 384.5 71.5Q418 85 442.5 105Q467 125 482 147.5Q497 170 502 188H365L376 254H590L546 0H476L490 81Q478 64 460 48Q442 32 418 19Q394 6 365.5 -2Q337 -10 304 -10Z" glyph-name="Gcircumflex.smcp" horiz-adv-x="632" unicode="&#62326;" /><glyph d="M241 -107Q241 -83 258 -65Q275 -47 301 -47Q325 -47 342.5 -64.5Q360 -82 360 -105Q360 -118 354.5 -130Q349 -142 342 -150L260 -252L208 -243L266 -155Q255 -147 248 -134.5Q241 -122 241 -107ZM389 -12Q317 -12 258 13.5Q199 39 156 84Q113 129 89.5 191.5Q66 254 66 328Q66 412 95.5 482.5Q125 553 175.5 604Q226 655 292 683.5Q358 712 431 712Q489 712 540.5 695Q592 678 634 647.5Q676 617 705.5 574.5Q735 532 749 481H667Q644 554 582.5 598.5Q521 643 432 643Q371 643 318.5 619Q266 595 227 552.5Q188 510 166 452Q144 394 144 325Q144 270 161 221.5Q178 173 210 136.5Q242 100 289 78.5Q336 57 395 57Q449 57 492.5 76Q536 95 567.5 122.5Q599 150 618 181.5Q637 213 643 239H474L485 308H734L681 0H610L628 110Q613 87 591 65.5Q569 44 539 26.5Q509 9 471.5 -1.5Q434 -12 389 -12Z" glyph-name="Gcommaaccent" horiz-adv-x="768" unicode="&#290;" /><glyph d="M215 -93Q215 -72 230 -56Q245 -40 268 -40Q290 -40 305 -55.5Q320 -71 320 -92Q320 -103 315 -113.5Q310 -124 305 -132L232 -222L185 -214L237 -136Q227 -129 221 -118Q215 -107 215 -93ZM304 -10Q249 -10 203 9.5Q157 29 123.5 64.5Q90 100 71.5 149.5Q53 199 53 258Q53 326 77.5 383.5Q102 441 143 482.5Q184 524 237.5 547Q291 570 350 570Q397 570 438.5 555.5Q480 541 513 515.5Q546 490 569 454.5Q592 419 601 377H518Q501 432 459 466Q417 500 349 500Q303 500 263 481.5Q223 463 194 431Q165 399 148 354.5Q131 310 131 258Q131 218 143 181.5Q155 145 178 117.5Q201 90 234.5 74Q268 58 311 58Q351 58 384.5 71.5Q418 85 442.5 105Q467 125 482 147.5Q497 170 502 188H365L376 254H590L546 0H476L490 81Q478 64 460 48Q442 32 418 19Q394 6 365.5 -2Q337 -10 304 -10Z" glyph-name="Gcommaaccent.smcp" horiz-adv-x="632" unicode="&#62484;" /><glyph d="M518 843Q518 820 501 803Q484 786 461 786Q438 786 420.5 803Q403 820 403 843Q403 866 420.5 883Q438 900 461 900Q484 900 501 883Q518 866 518 843ZM389 -12Q317 -12 258 13.5Q199 39 156 84Q113 129 89.5 191.5Q66 254 66 328Q66 412 95.5 482.5Q125 553 175.5 604Q226 655 292 683.5Q358 712 431 712Q489 712 540.5 695Q592 678 634 647.5Q676 617 705.5 574.5Q735 532 749 481H667Q644 554 582.5 598.5Q521 643 432 643Q371 643 318.5 619Q266 595 227 552.5Q188 510 166 452Q144 394 144 325Q144 270 161 221.5Q178 173 210 136.5Q242 100 289 78.5Q336 57 395 57Q449 57 492.5 76Q536 95 567.5 122.5Q599 150 618 181.5Q637 213 643 239H474L485 308H734L681 0H610L628 110Q613 87 591 65.5Q569 44 539 26.5Q509 9 471.5 -1.5Q434 -12 389 -12Z" glyph-name="Gdotaccent" horiz-adv-x="768" unicode="&#288;" /><glyph d="M319 673Q318 694 334 709Q350 724 371 724Q392 724 407.5 709Q423 694 424 673Q423 653 407.5 637.5Q392 622 371 622Q350 622 334 637.5Q318 653 319 673ZM304 -10Q249 -10 203 9.5Q157 29 123.5 64.5Q90 100 71.5 149.5Q53 199 53 258Q53 326 77.5 383.5Q102 441 143 482.5Q184 524 237.5 547Q291 570 350 570Q397 570 438.5 555.5Q480 541 513 515.5Q546 490 569 454.5Q592 419 601 377H518Q501 432 459 466Q417 500 349 500Q303 500 263 481.5Q223 463 194 431Q165 399 148 354.5Q131 310 131 258Q131 218 143 181.5Q155 145 178 117.5Q201 90 234.5 74Q268 58 311 58Q351 58 384.5 71.5Q418 85 442.5 105Q467 125 482 147.5Q497 170 502 188H365L376 254H590L546 0H476L490 81Q478 64 460 48Q442 32 418 19Q394 6 365.5 -2Q337 -10 304 -10Z" glyph-name="Gdotaccent.smcp" horiz-adv-x="632" unicode="&#62327;" /><glyph d="M538 0H458L514 323H184L128 0H48L169 700H249L196 391H525L579 700H659Z" glyph-name="H" horiz-adv-x="662" unicode="H" /><glyph d="M422 319 464 560H542L446 0H368L411 252H162L119 0H41L137 560H215L174 319Z" glyph-name="H.smcp" horiz-adv-x="562" unicode="&#62264;" /><glyph d="M528 391 548 507H219L199 391ZM640 573H732L720 507H628L541 0H461L517 323H187L131 0H51L138 507H49L60 573H150L172 700H252L230 573H560L582 700H662Z" glyph-name="Hbar" horiz-adv-x="667" unicode="&#294;" /><glyph d="M428 319 442 401H194L180 319ZM58 468H127L143 560H221L205 468H454L470 560H548L532 468H603L590 401H520L452 0H374L417 252H168L125 0H47L115 401H46Z" glyph-name="Hbar.smcp" horiz-adv-x="568" unicode="&#62499;" /><glyph d="M396 952H494L554 788H479L439 896L361 788H280ZM538 0H458L514 323H184L128 0H48L169 700H249L196 391H525L579 700H659Z" glyph-name="Hcircumflex" horiz-adv-x="662" unicode="&#292;" /><glyph d="M361 681 300 605H227L322 730H410L459 605H394ZM422 319 464 560H542L446 0H368L411 252H162L119 0H41L137 560H215L174 319Z" glyph-name="Hcircumflex.smcp" horiz-adv-x="562" unicode="&#62328;" /><glyph d="M128 0H48L169 700H249Z" glyph-name="I" horiz-adv-x="252" unicode="I" /><glyph d="M137 560H215L119 0H41Z" glyph-name="I.smcp" horiz-adv-x="235" unicode="&#62265;" /><glyph d="M364 277 359 245Q353 209 358.5 175.5Q364 142 381.5 115.5Q399 89 428.5 73.5Q458 58 500 58Q537 58 566 71Q595 84 615.5 106Q636 128 648.5 157Q661 186 666 217L750 700H830L745 207Q737 160 717 120Q697 80 666 51Q635 22 592.5 5Q550 -12 497 -12Q441 -12 397 7.5Q353 27 324 62Q295 97 283.5 146.5Q272 196 282 255L286 277ZM128 0H48L169 700H249Z" glyph-name="IJ" horiz-adv-x="826" unicode="&#306;" /><glyph d="M224 -43Q245 -43 259 -39Q273 -35 282 -26Q291 -17 296.5 -2Q302 13 306 34L421 700H501L383 19Q377 -13 368 -38Q359 -63 343 -79.5Q327 -96 302.5 -104.5Q278 -113 242 -113H170L182 -43ZM128 0H48L169 700H249Z" glyph-name="IJ.alt" horiz-adv-x="504" unicode="&#59530;" /><glyph d="M339 228 334 198Q329 171 333 146Q337 121 350 101.5Q363 82 385.5 70.5Q408 59 440 59Q467 59 488 68.5Q509 78 524 94.5Q539 111 548.5 132.5Q558 154 562 178L628 560H706L639 166Q633 128 616.5 96Q600 64 574.5 40.5Q549 17 514 3.5Q479 -10 436 -10Q391 -10 354.5 5Q318 20 294 48Q270 76 260 115.5Q250 155 258 204L262 228ZM137 560H215L119 0H41Z" glyph-name="IJ.smcp" horiz-adv-x="720" unicode="&#62341;" /><glyph d="M245 952H349L230 788H158ZM128 0H48L169 700H249Z" glyph-name="Iacute" horiz-adv-x="252" unicode="&#205;" /><glyph d="M216 730H308L215 605H152ZM137 560H215L119 0H41Z" glyph-name="Iacute.smcp" horiz-adv-x="235" unicode="&#62329;" /><glyph d="M286 936H354L347 884Q339 825 304 798.5Q269 772 221 772Q197 772 176.5 779.5Q156 787 141 801.5Q126 816 119 838Q112 860 117 889L125 936H193L184 888Q180 865 190 851Q200 837 225 837Q250 837 261.5 851Q273 865 277 888ZM128 0H48L169 700H249Z" glyph-name="Ibreve" horiz-adv-x="252" unicode="&#300;" /><glyph d="M185 672Q228 672 238 721L240 731H300L297 714Q289 664 256 639.5Q223 615 179 615Q157 615 138 623Q119 631 106.5 645.5Q94 660 89 679Q84 698 90 720L93 731H150Q146 722 146 711Q146 693 156 682.5Q166 672 185 672ZM137 560H215L119 0H41Z" glyph-name="Ibreve.smcp" horiz-adv-x="235" unicode="&#62336;" /><glyph d="M194 952H292L352 788H277L237 896L159 788H78ZM128 0H48L169 700H249Z" glyph-name="Icircumflex" horiz-adv-x="252" unicode="&#206;" /><glyph d="M197 681 136 605H63L158 730H246L295 605H230ZM137 560H215L119 0H41Z" glyph-name="Icircumflex.smcp" horiz-adv-x="235" unicode="&#62337;" /><glyph d="M255 836Q255 859 272.5 876.5Q290 894 313 894Q336 894 353.5 876.5Q371 859 371 836Q371 813 353.5 796Q336 779 313 779Q290 779 272.5 796Q255 813 255 836ZM91 836Q91 859 108 876.5Q125 894 148 894Q171 894 188 876.5Q205 859 205 836Q205 813 188 796Q171 779 148 779Q125 779 108 796Q91 813 91 836ZM128 0H48L169 700H249Z" glyph-name="Idieresis" horiz-adv-x="252" unicode="&#207;" /><glyph d="M203 673Q202 694 217.5 709Q233 724 255 724Q276 724 291.5 709Q307 694 308 673Q307 653 291.5 637.5Q276 622 255 622Q233 622 217.5 637.5Q202 653 203 673ZM71 673Q70 694 86 709Q102 724 123 724Q144 724 159.5 709Q175 694 176 673Q175 653 159.5 637.5Q144 622 123 622Q102 622 86 637.5Q70 653 71 673ZM137 560H215L119 0H41Z" glyph-name="Idieresis.smcp" horiz-adv-x="235" unicode="&#62338;" /><glyph d="M290 843Q290 820 273 803Q256 786 233 786Q210 786 192.5 803Q175 820 175 843Q175 866 192.5 883Q210 900 233 900Q256 900 273 883Q290 866 290 843ZM128 0H48L169 700H249Z" glyph-name="Idotaccent" horiz-adv-x="252" unicode="&#304;" /><glyph d="M136 673Q135 694 151 709Q167 724 188 724Q209 724 224.5 709Q240 694 241 673Q240 653 224.5 637.5Q209 622 188 622Q167 622 151 637.5Q135 653 136 673ZM137 560H215L119 0H41Z" glyph-name="Idotaccent.smcp" horiz-adv-x="235" unicode="&#62339;" /><glyph d="M238 788H167L65 952H169ZM128 0H48L169 700H249Z" glyph-name="Igrave" horiz-adv-x="252" unicode="&#204;" /><glyph d="M202 605H139L62 730H154ZM137 560H215L119 0H41Z" glyph-name="Igrave.smcp" horiz-adv-x="235" unicode="&#62340;" /><glyph d="M105 868H365L354 801H94ZM128 0H48L169 700H249Z" glyph-name="Imacron" horiz-adv-x="252" unicode="&#298;" /><glyph d="M80 700H307L296 639H69ZM137 560H215L119 0H41Z" glyph-name="Imacron.smcp" horiz-adv-x="235" unicode="&#62489;" /><glyph d="M128 0H111Q68 -27 36.5 -53Q5 -79 5 -105Q5 -118 16.5 -126Q28 -134 47 -134Q63 -134 79.5 -131Q96 -128 119 -120L111 -173Q94 -181 76 -186Q58 -191 26 -191Q-17 -191 -41 -170.5Q-65 -150 -65 -116Q-65 -92 -55.5 -73.5Q-46 -55 -30 -41Q-14 -27 6.5 -17.5Q27 -8 48 0L169 700H249Z" glyph-name="Iogonek" horiz-adv-x="252" unicode="&#302;" /><glyph d="M137 560H215L119 0H103Q78 -13 56.5 -30.5Q35 -48 35 -72Q35 -87 48 -94.5Q61 -102 76 -102Q89 -102 102 -100.5Q115 -99 123 -95L115 -139Q113 -140 94 -145.5Q75 -151 49 -151Q11 -151 -11 -133Q-33 -115 -33 -90Q-33 -59 -10.5 -36Q12 -13 47 0H41Z" glyph-name="Iogonek.smcp" horiz-adv-x="235" unicode="&#62342;" /><glyph d="M75 791Q76 800 79 819Q82 838 91 858Q100 878 119 893Q138 908 173 908Q189 908 206 901Q223 894 239 885Q255 876 269.5 869Q284 862 295 862Q308 862 313.5 872Q319 882 322 896L324 906H391Q389 897 387.5 878Q386 859 377.5 839Q369 819 350.5 804Q332 789 298 789Q283 789 266 796Q249 803 232.5 812Q216 821 201.5 828Q187 835 177 835Q163 835 155 825Q147 815 144 801L142 791ZM128 0H48L169 700H249Z" glyph-name="Itilde" horiz-adv-x="252" unicode="&#296;" /><glyph d="M232 623Q220 623 207.5 628Q195 633 184 639Q173 645 163.5 650Q154 655 147 655Q138 655 133.5 650Q129 645 125 632L123 625H64L66 637Q67 646 70.5 660Q74 674 82.5 686.5Q91 699 106 708.5Q121 718 145 718Q157 718 170 713Q183 708 194.5 702Q206 696 215.5 691Q225 686 232 686Q241 686 245.5 691.5Q250 697 253 709L255 716H313L311 702Q309 693 306 679.5Q303 666 294.5 653.5Q286 641 271 632Q256 623 232 623ZM137 560H215L119 0H41Z" glyph-name="Itilde.smcp" horiz-adv-x="235" unicode="&#62343;" /><glyph d="M112 277 107 245Q101 209 106.5 175.5Q112 142 129.5 115.5Q147 89 176.5 73.5Q206 58 248 58Q285 58 314 71Q343 84 363.5 106Q384 128 396.5 157Q409 186 414 217L498 700H578L493 207Q485 160 465 120Q445 80 414 51Q383 22 340.5 5Q298 -12 245 -12Q189 -12 145 7.5Q101 27 72 62Q43 97 31.5 146.5Q20 196 30 255L34 277Z" glyph-name="J" horiz-adv-x="574" unicode="J" /><glyph d="M-28 -43Q-7 -43 7 -39Q21 -35 30 -26Q39 -17 44.5 -2Q50 13 54 34L169 700H249L131 19Q125 -13 116 -38Q107 -63 91 -79.5Q75 -96 50.5 -104.5Q26 -113 -10 -113H-82L-70 -43Z" glyph-name="J.alt" horiz-adv-x="252" unicode="&#58505;" /><glyph d="M104 228 99 198Q94 171 98 146Q102 121 115 101.5Q128 82 150.5 70.5Q173 59 205 59Q232 59 253 68.5Q274 78 289 94.5Q304 111 313.5 132.5Q323 154 327 178L393 560H471L404 166Q398 128 381.5 96Q365 64 339.5 40.5Q314 17 279 3.5Q244 -10 201 -10Q156 -10 119.5 5Q83 20 59 48Q35 76 25 115.5Q15 155 23 204L27 228Z" glyph-name="J.smcp" horiz-adv-x="485" unicode="&#62272;" /><glyph d="M367 952H465L525 788H450L410 896L332 788H251ZM112 277 107 245Q101 209 106.5 175.5Q112 142 129.5 115.5Q147 89 176.5 73.5Q206 58 248 58Q285 58 314 71Q343 84 363.5 106Q384 128 396.5 157Q409 186 414 217L498 700H578L493 207Q485 160 465 120Q445 80 414 51Q383 22 340.5 5Q298 -12 245 -12Q189 -12 145 7.5Q101 27 72 62Q43 97 31.5 146.5Q20 196 30 255L34 277Z" glyph-name="Jcircumflex" horiz-adv-x="574" unicode="&#308;" /><glyph d="M321 681 260 605H187L282 730H370L419 605H354ZM104 228 99 198Q94 171 98 146Q102 121 115 101.5Q128 82 150.5 70.5Q173 59 205 59Q232 59 253 68.5Q274 78 289 94.5Q304 111 313.5 132.5Q323 154 327 178L393 560H471L404 166Q398 128 381.5 96Q365 64 339.5 40.5Q314 17 279 3.5Q244 -10 201 -10Q156 -10 119.5 5Q83 20 59 48Q35 76 25 115.5Q15 155 23 204L27 228Z" glyph-name="Jcircumflex.smcp" horiz-adv-x="485" unicode="&#62344;" /><glyph d="M198 401H228L567 700H672L287 366L543 0H449L221 333H186L128 0H48L169 700H249Z" glyph-name="K" horiz-adv-x="587" unicode="K" /><glyph d="M137 560H215L175 326H199L450 560H554L259 292L450 0H357L194 259H163L119 0H41Z" glyph-name="K.smcp" horiz-adv-x="504" unicode="&#62273;" /><glyph d="M193 -107Q193 -83 210 -65Q227 -47 253 -47Q277 -47 294.5 -64.5Q312 -82 312 -105Q312 -118 306.5 -130Q301 -142 294 -150L212 -252L160 -243L218 -155Q207 -147 200 -134.5Q193 -122 193 -107ZM198 401H228L567 700H672L287 366L543 0H449L221 333H186L128 0H48L169 700H249Z" glyph-name="Kcommaaccent" horiz-adv-x="587" unicode="&#310;" /><glyph d="M166 -93Q166 -72 181 -56Q196 -40 219 -40Q241 -40 256 -55.5Q271 -71 271 -92Q271 -103 266 -113.5Q261 -124 256 -132L183 -222L136 -214L188 -136Q178 -129 172 -118Q166 -107 166 -93ZM137 560H215L175 326H199L450 560H554L259 292L450 0H357L194 259H163L119 0H41Z" glyph-name="Kcommaaccent.smcp" horiz-adv-x="504" unicode="&#62345;" /><glyph d="M48 0 169 700H249L140 69H443L431 0Z" glyph-name="L" horiz-adv-x="479" unicode="L" /><glyph d="M137 560H215L130 67H369L357 0H41Z" glyph-name="L.smcp" horiz-adv-x="412" unicode="&#62274;" /><glyph d="M320 952H424L305 788H233ZM48 0 169 700H249L140 69H443L431 0Z" glyph-name="Lacute" horiz-adv-x="479" unicode="&#313;" /><glyph d="M255 730H347L254 605H191ZM137 560H215L130 67H369L357 0H41Z" glyph-name="Lacute.smcp" horiz-adv-x="412" unicode="&#62352;" /><glyph d="M374 652Q374 676 391 694Q408 712 434 712Q458 712 475.5 694.5Q493 677 493 654Q493 641 487.5 629Q482 617 475 609L393 507L341 516L399 604Q388 612 381 624.5Q374 637 374 652ZM48 0 169 700H249L140 69H443L431 0Z" glyph-name="Lcaron" horiz-adv-x="480" unicode="&#317;" /><glyph d="M323 517Q323 538 338 554Q353 570 376 570Q398 570 413 554.5Q428 539 428 518Q428 507 423 496.5Q418 486 413 478L340 388L293 396L345 474Q335 481 329 492Q323 503 323 517ZM137 560H215L130 67H369L357 0H41Z" glyph-name="Lcaron.smcp" horiz-adv-x="414" unicode="&#62496;" /><glyph d="M154 -107Q154 -83 171 -65Q188 -47 214 -47Q238 -47 255.5 -64.5Q273 -82 273 -105Q273 -118 267.5 -130Q262 -142 255 -150L173 -252L121 -243L179 -155Q168 -147 161 -134.5Q154 -122 154 -107ZM48 0 169 700H249L140 69H443L431 0Z" glyph-name="Lcommaaccent" horiz-adv-x="479" unicode="&#315;" /><glyph d="M127 -93Q127 -72 142 -56Q157 -40 180 -40Q202 -40 217 -55.5Q232 -71 232 -92Q232 -103 227 -113.5Q222 -124 217 -132L144 -222L97 -214L149 -136Q139 -129 133 -118Q127 -107 127 -93ZM137 560H215L130 67H369L357 0H41Z" glyph-name="Lcommaaccent.smcp" horiz-adv-x="412" unicode="&#62488;" /><glyph d="M324 355Q324 383 343 402.5Q362 422 390 422Q418 422 437.5 402.5Q457 383 457 355Q457 327 437.5 308Q418 289 390 289Q362 289 343 308Q324 327 324 355ZM48 0 169 700H249L140 69H443L431 0Z" glyph-name="Ldot" horiz-adv-x="480" unicode="&#319;" /><glyph d="M405 300Q405 277 388 260Q371 243 348 243Q325 243 307.5 260Q290 277 290 300Q290 323 307.5 340Q325 357 348 357Q371 357 388 340Q405 323 405 300ZM137 560H215L130 67H369L357 0H41Z" glyph-name="Ldot.smcp" horiz-adv-x="415" unicode="&#62501;" /><glyph d="M22 318 110 348 171 700H251L195 376L392 443L379 373L183 307L142 69H445L433 0H50L98 278L9 248Z" glyph-name="Lslash" horiz-adv-x="480" unicode="&#321;" /><glyph d="M5 237 91 264 142 560H220L173 290L342 343L331 279L162 226L135 67H374L362 0H46L80 200L-6 173Z" glyph-name="Lslash.smcp" horiz-adv-x="416" unicode="&#62502;" /><glyph d="M350 121 231 617 124 0H48L169 700H286L404 201L690 700H813L692 0H612L719 617L432 121Z" glyph-name="M" horiz-adv-x="816" unicode="M" /><glyph d="M137 560H250L331 179L543 560H660L564 0H486L565 463L372 117H272L196 463L117 0H41Z" glyph-name="M.smcp" horiz-adv-x="680" unicode="&#62275;" /><glyph d="M128 0H48L169 700H272L478 117L579 700H659L538 0H444L231 594Z" glyph-name="N" horiz-adv-x="662" unicode="N" /><glyph d="M137 560H238L389 122L464 560H542L447 0H357L196 451L119 0H41Z" glyph-name="N.smcp" horiz-adv-x="562" unicode="&#62276;" /><glyph d="M483 952H587L468 788H396ZM128 0H48L169 700H272L478 117L579 700H659L538 0H444L231 594Z" glyph-name="Nacute" horiz-adv-x="662" unicode="&#323;" /><glyph d="M376 730H468L375 605H312ZM137 560H238L389 122L464 560H542L447 0H357L196 451L119 0H41Z" glyph-name="Nacute.smcp" horiz-adv-x="562" unicode="&#62353;" /><glyph d="M323 952H399L439 844L517 952H598L482 788H383ZM128 0H48L169 700H272L478 117L579 700H659L538 0H444L231 594Z" glyph-name="Ncaron" horiz-adv-x="662" unicode="&#327;" /><glyph d="M408 730H480L385 605H297L248 730H314L347 654ZM137 560H238L389 122L464 560H542L447 0H357L196 451L119 0H41Z" glyph-name="Ncaron.smcp" horiz-adv-x="562" unicode="&#62354;" /><glyph d="M210 -107Q210 -83 227 -65Q244 -47 270 -47Q294 -47 311.5 -64.5Q329 -82 329 -105Q329 -118 323.5 -130Q318 -142 311 -150L229 -252L177 -243L235 -155Q224 -147 217 -134.5Q210 -122 210 -107ZM128 0H48L169 700H272L478 117L579 700H659L538 0H444L231 594Z" glyph-name="Ncommaaccent" horiz-adv-x="662" unicode="&#325;" /><glyph d="M172 -93Q172 -72 187 -56Q202 -40 225 -40Q247 -40 262 -55.5Q277 -71 277 -92Q277 -103 272 -113.5Q267 -124 262 -132L189 -222L142 -214L194 -136Q184 -129 178 -118Q172 -107 172 -93ZM137 560H238L389 122L464 560H542L447 0H357L196 451L119 0H41Z" glyph-name="Ncommaaccent.smcp" horiz-adv-x="562" unicode="&#62355;" /><glyph d="M271 791Q272 800 275 819Q278 838 287 858Q296 878 315 893Q334 908 369 908Q385 908 402 901Q419 894 435 885Q451 876 465.5 869Q480 862 491 862Q504 862 509.5 872Q515 882 518 896L520 906H587Q585 897 583.5 878Q582 859 573.5 839Q565 819 546.5 804Q528 789 494 789Q479 789 462 796Q445 803 428.5 812Q412 821 397.5 828Q383 835 373 835Q359 835 351 825Q343 815 340 801L338 791ZM128 0H48L169 700H272L478 117L579 700H659L538 0H444L231 594Z" glyph-name="Ntilde" horiz-adv-x="662" unicode="&#209;" /><glyph d="M397 623Q385 623 372.5 628Q360 633 349 639Q338 645 328.5 650Q319 655 312 655Q303 655 298.5 650Q294 645 290 632L288 625H229L231 637Q232 646 235.5 660Q239 674 247.5 686.5Q256 699 271 708.5Q286 718 310 718Q322 718 335 713Q348 708 359.5 702Q371 696 380.5 691Q390 686 397 686Q406 686 410.5 691.5Q415 697 418 709L420 716H478L476 702Q474 693 471 679.5Q468 666 459.5 653.5Q451 641 436 632Q421 623 397 623ZM137 560H238L389 122L464 560H542L447 0H357L196 451L119 0H41Z" glyph-name="Ntilde.smcp" horiz-adv-x="562" unicode="&#62356;" /><glyph d="M144 325Q144 270 161.5 221.5Q179 173 211.5 136.5Q244 100 290.5 78.5Q337 57 396 57Q457 57 510 81Q563 105 601 147.5Q639 190 661 248Q683 306 683 375Q683 430 666 478.5Q649 527 616.5 563.5Q584 600 537.5 621.5Q491 643 432 643Q370 643 317.5 619Q265 595 226.5 552.5Q188 510 166 452Q144 394 144 325ZM762 372Q762 288 732 217.5Q702 147 652 96Q602 45 535.5 16.5Q469 -12 397 -12Q325 -12 264.5 14Q204 40 160 85.5Q116 131 91 193Q66 255 66 328Q66 412 96 482.5Q126 553 176 604Q226 655 292.5 683.5Q359 712 431 712Q503 712 563.5 686Q624 660 668 614.5Q712 569 737 507Q762 445 762 372Z" glyph-name="O" horiz-adv-x="782" unicode="O" /><glyph d="M317 -10Q259 -10 210.5 10.5Q162 31 126.5 67Q91 103 71.5 152Q52 201 52 258Q52 326 76.5 383.5Q101 441 142.5 482.5Q184 524 238 547Q292 570 351 570Q408 570 456.5 550Q505 530 540.5 494Q576 458 596.5 408.5Q617 359 617 301Q617 232 592 175Q567 118 525.5 77Q484 36 429.5 13Q375 -10 317 -10ZM319 59Q365 59 405 77.5Q445 96 474 128Q503 160 520 204.5Q537 249 537 301Q537 342 524 378.5Q511 415 487 442Q463 469 428 484.5Q393 500 349 500Q302 500 262.5 481.5Q223 463 193.5 431Q164 399 147.5 354Q131 309 131 257Q131 216 143.5 180Q156 144 180 117Q204 90 239 74.5Q274 59 319 59Z" glyph-name="O.smcp" horiz-adv-x="648" unicode="&#62277;" /><glyph d="M495 631Q420 631 356 608.5Q292 586 245 542.5Q198 499 171.5 435.5Q145 372 145 291Q145 237 162.5 195.5Q180 154 213 126Q246 98 293 83.5Q340 69 398 69H490L587 631ZM373 0Q299 0 241.5 22Q184 44 144.5 83.5Q105 123 84.5 177Q64 231 64 295Q64 383 94.5 457.5Q125 532 180.5 586Q236 640 313.5 670Q391 700 484 700H1069L1057 630H666L625 391H876L864 323H613L569 69H960L948 0Z" glyph-name="OE" horiz-adv-x="1019" unicode="&#338;" /><glyph d="M388 67 461 492H393Q336 492 288 474.5Q240 457 205 423.5Q170 390 150 341.5Q130 293 130 232Q130 150 180 108.5Q230 67 316 67ZM295 0Q236 0 190 18Q144 36 113 68Q82 100 66 143.5Q50 187 50 238Q50 305 73.5 364Q97 423 140.5 466.5Q184 510 245 535Q306 560 381 560H859L847 492H539L510 319H703L692 252H498L466 67H773L762 0Z" glyph-name="OE.smcp" horiz-adv-x="837" unicode="&#62295;" /><glyph d="M514 952H618L499 788H427ZM144 325Q144 270 161.5 221.5Q179 173 211.5 136.5Q244 100 290.5 78.5Q337 57 396 57Q457 57 510 81Q563 105 601 147.5Q639 190 661 248Q683 306 683 375Q683 430 666 478.5Q649 527 616.5 563.5Q584 600 537.5 621.5Q491 643 432 643Q370 643 317.5 619Q265 595 226.5 552.5Q188 510 166 452Q144 394 144 325ZM762 372Q762 288 732 217.5Q702 147 652 96Q602 45 535.5 16.5Q469 -12 397 -12Q325 -12 264.5 14Q204 40 160 85.5Q116 131 91 193Q66 255 66 328Q66 412 96 482.5Q126 553 176 604Q226 655 292.5 683.5Q359 712 431 712Q503 712 563.5 686Q624 660 668 614.5Q712 569 737 507Q762 445 762 372Z" glyph-name="Oacute" horiz-adv-x="782" unicode="&#211;" /><glyph d="M410 730H502L409 605H346ZM317 -10Q259 -10 210.5 10.5Q162 31 126.5 67Q91 103 71.5 152Q52 201 52 258Q52 326 76.5 383.5Q101 441 142.5 482.5Q184 524 238 547Q292 570 351 570Q408 570 456.5 550Q505 530 540.5 494Q576 458 596.5 408.5Q617 359 617 301Q617 232 592 175Q567 118 525.5 77Q484 36 429.5 13Q375 -10 317 -10ZM319 59Q365 59 405 77.5Q445 96 474 128Q503 160 520 204.5Q537 249 537 301Q537 342 524 378.5Q511 415 487 442Q463 469 428 484.5Q393 500 349 500Q302 500 262.5 481.5Q223 463 193.5 431Q164 399 147.5 354Q131 309 131 257Q131 216 143.5 180Q156 144 180 117Q204 90 239 74.5Q274 59 319 59Z" glyph-name="Oacute.smcp" horiz-adv-x="648" unicode="&#62357;" /><glyph d="M519 936H587L580 884Q572 825 537 798.5Q502 772 454 772Q430 772 409.5 779.5Q389 787 374 801.5Q359 816 352 838Q345 860 350 889L358 936H426L417 888Q413 865 423 851Q433 837 458 837Q483 837 494.5 851Q506 865 510 888ZM144 325Q144 270 161.5 221.5Q179 173 211.5 136.5Q244 100 290.5 78.5Q337 57 396 57Q457 57 510 81Q563 105 601 147.5Q639 190 661 248Q683 306 683 375Q683 430 666 478.5Q649 527 616.5 563.5Q584 600 537.5 621.5Q491 643 432 643Q370 643 317.5 619Q265 595 226.5 552.5Q188 510 166 452Q144 394 144 325ZM762 372Q762 288 732 217.5Q702 147 652 96Q602 45 535.5 16.5Q469 -12 397 -12Q325 -12 264.5 14Q204 40 160 85.5Q116 131 91 193Q66 255 66 328Q66 412 96 482.5Q126 553 176 604Q226 655 292.5 683.5Q359 712 431 712Q503 712 563.5 686Q624 660 668 614.5Q712 569 737 507Q762 445 762 372Z" glyph-name="Obreve" horiz-adv-x="782" unicode="&#334;" /><glyph d="M383 672Q426 672 436 721L438 731H498L495 714Q487 664 454 639.5Q421 615 377 615Q355 615 336 623Q317 631 304.5 645.5Q292 660 287 679Q282 698 288 720L291 731H348Q344 722 344 711Q344 693 354 682.5Q364 672 383 672ZM317 -10Q259 -10 210.5 10.5Q162 31 126.5 67Q91 103 71.5 152Q52 201 52 258Q52 326 76.5 383.5Q101 441 142.5 482.5Q184 524 238 547Q292 570 351 570Q408 570 456.5 550Q505 530 540.5 494Q576 458 596.5 408.5Q617 359 617 301Q617 232 592 175Q567 118 525.5 77Q484 36 429.5 13Q375 -10 317 -10ZM319 59Q365 59 405 77.5Q445 96 474 128Q503 160 520 204.5Q537 249 537 301Q537 342 524 378.5Q511 415 487 442Q463 469 428 484.5Q393 500 349 500Q302 500 262.5 481.5Q223 463 193.5 431Q164 399 147.5 354Q131 309 131 257Q131 216 143.5 180Q156 144 180 117Q204 90 239 74.5Q274 59 319 59Z" glyph-name="Obreve.smcp" horiz-adv-x="648" unicode="&#62534;" /><glyph d="M429 952H527L587 788H512L472 896L394 788H313ZM144 325Q144 270 161.5 221.5Q179 173 211.5 136.5Q244 100 290.5 78.5Q337 57 396 57Q457 57 510 81Q563 105 601 147.5Q639 190 661 248Q683 306 683 375Q683 430 666 478.5Q649 527 616.5 563.5Q584 600 537.5 621.5Q491 643 432 643Q370 643 317.5 619Q265 595 226.5 552.5Q188 510 166 452Q144 394 144 325ZM762 372Q762 288 732 217.5Q702 147 652 96Q602 45 535.5 16.5Q469 -12 397 -12Q325 -12 264.5 14Q204 40 160 85.5Q116 131 91 193Q66 255 66 328Q66 412 96 482.5Q126 553 176 604Q226 655 292.5 683.5Q359 712 431 712Q503 712 563.5 686Q624 660 668 614.5Q712 569 737 507Q762 445 762 372Z" glyph-name="Ocircumflex" horiz-adv-x="782" unicode="&#212;" /><glyph d="M392 681 331 605H258L353 730H441L490 605H425ZM317 -10Q259 -10 210.5 10.5Q162 31 126.5 67Q91 103 71.5 152Q52 201 52 258Q52 326 76.5 383.5Q101 441 142.5 482.5Q184 524 238 547Q292 570 351 570Q408 570 456.5 550Q505 530 540.5 494Q576 458 596.5 408.5Q617 359 617 301Q617 232 592 175Q567 118 525.5 77Q484 36 429.5 13Q375 -10 317 -10ZM319 59Q365 59 405 77.5Q445 96 474 128Q503 160 520 204.5Q537 249 537 301Q537 342 524 378.5Q511 415 487 442Q463 469 428 484.5Q393 500 349 500Q302 500 262.5 481.5Q223 463 193.5 431Q164 399 147.5 354Q131 309 131 257Q131 216 143.5 180Q156 144 180 117Q204 90 239 74.5Q274 59 319 59Z" glyph-name="Ocircumflex.smcp" horiz-adv-x="648" unicode="&#62535;" /><glyph d="M481 836Q481 859 498.5 876.5Q516 894 539 894Q562 894 579.5 876.5Q597 859 597 836Q597 813 579.5 796Q562 779 539 779Q516 779 498.5 796Q481 813 481 836ZM317 836Q317 859 334 876.5Q351 894 374 894Q397 894 414 876.5Q431 859 431 836Q431 813 414 796Q397 779 374 779Q351 779 334 796Q317 813 317 836ZM144 325Q144 270 161.5 221.5Q179 173 211.5 136.5Q244 100 290.5 78.5Q337 57 396 57Q457 57 510 81Q563 105 601 147.5Q639 190 661 248Q683 306 683 375Q683 430 666 478.5Q649 527 616.5 563.5Q584 600 537.5 621.5Q491 643 432 643Q370 643 317.5 619Q265 595 226.5 552.5Q188 510 166 452Q144 394 144 325ZM762 372Q762 288 732 217.5Q702 147 652 96Q602 45 535.5 16.5Q469 -12 397 -12Q325 -12 264.5 14Q204 40 160 85.5Q116 131 91 193Q66 255 66 328Q66 412 96 482.5Q126 553 176 604Q226 655 292.5 683.5Q359 712 431 712Q503 712 563.5 686Q624 660 668 614.5Q712 569 737 507Q762 445 762 372Z" glyph-name="Odieresis" horiz-adv-x="782" unicode="&#214;" /><glyph d="M397 673Q396 694 411.5 709Q427 724 449 724Q470 724 485.5 709Q501 694 502 673Q501 653 485.5 637.5Q470 622 449 622Q427 622 411.5 637.5Q396 653 397 673ZM265 673Q264 694 280 709Q296 724 317 724Q338 724 353.5 709Q369 694 370 673Q369 653 353.5 637.5Q338 622 317 622Q296 622 280 637.5Q264 653 265 673ZM317 -10Q259 -10 210.5 10.5Q162 31 126.5 67Q91 103 71.5 152Q52 201 52 258Q52 326 76.5 383.5Q101 441 142.5 482.5Q184 524 238 547Q292 570 351 570Q408 570 456.5 550Q505 530 540.5 494Q576 458 596.5 408.5Q617 359 617 301Q617 232 592 175Q567 118 525.5 77Q484 36 429.5 13Q375 -10 317 -10ZM319 59Q365 59 405 77.5Q445 96 474 128Q503 160 520 204.5Q537 249 537 301Q537 342 524 378.5Q511 415 487 442Q463 469 428 484.5Q393 500 349 500Q302 500 262.5 481.5Q223 463 193.5 431Q164 399 147.5 354Q131 309 131 257Q131 216 143.5 180Q156 144 180 117Q204 90 239 74.5Q274 59 319 59Z" glyph-name="Odieresis.smcp" horiz-adv-x="648" unicode="&#62536;" /><glyph d="M496 788H425L323 952H427ZM144 325Q144 270 161.5 221.5Q179 173 211.5 136.5Q244 100 290.5 78.5Q337 57 396 57Q457 57 510 81Q563 105 601 147.5Q639 190 661 248Q683 306 683 375Q683 430 666 478.5Q649 527 616.5 563.5Q584 600 537.5 621.5Q491 643 432 643Q370 643 317.5 619Q265 595 226.5 552.5Q188 510 166 452Q144 394 144 325ZM762 372Q762 288 732 217.5Q702 147 652 96Q602 45 535.5 16.5Q469 -12 397 -12Q325 -12 264.5 14Q204 40 160 85.5Q116 131 91 193Q66 255 66 328Q66 412 96 482.5Q126 553 176 604Q226 655 292.5 683.5Q359 712 431 712Q503 712 563.5 686Q624 660 668 614.5Q712 569 737 507Q762 445 762 372Z" glyph-name="Ograve" horiz-adv-x="782" unicode="&#210;" /><glyph d="M401 605H338L261 730H353ZM317 -10Q259 -10 210.5 10.5Q162 31 126.5 67Q91 103 71.5 152Q52 201 52 258Q52 326 76.5 383.5Q101 441 142.5 482.5Q184 524 238 547Q292 570 351 570Q408 570 456.5 550Q505 530 540.5 494Q576 458 596.5 408.5Q617 359 617 301Q617 232 592 175Q567 118 525.5 77Q484 36 429.5 13Q375 -10 317 -10ZM319 59Q365 59 405 77.5Q445 96 474 128Q503 160 520 204.5Q537 249 537 301Q537 342 524 378.5Q511 415 487 442Q463 469 428 484.5Q393 500 349 500Q302 500 262.5 481.5Q223 463 193.5 431Q164 399 147.5 354Q131 309 131 257Q131 216 143.5 180Q156 144 180 117Q204 90 239 74.5Q274 59 319 59Z" glyph-name="Ograve.smcp" horiz-adv-x="648" unicode="&#62358;" /><glyph d="M590 952H684L575 788H493ZM432 952H526L416 788H335ZM144 325Q144 270 161.5 221.5Q179 173 211.5 136.5Q244 100 290.5 78.5Q337 57 396 57Q457 57 510 81Q563 105 601 147.5Q639 190 661 248Q683 306 683 375Q683 430 666 478.5Q649 527 616.5 563.5Q584 600 537.5 621.5Q491 643 432 643Q370 643 317.5 619Q265 595 226.5 552.5Q188 510 166 452Q144 394 144 325ZM762 372Q762 288 732 217.5Q702 147 652 96Q602 45 535.5 16.5Q469 -12 397 -12Q325 -12 264.5 14Q204 40 160 85.5Q116 131 91 193Q66 255 66 328Q66 412 96 482.5Q126 553 176 604Q226 655 292.5 683.5Q359 712 431 712Q503 712 563.5 686Q624 660 668 614.5Q712 569 737 507Q762 445 762 372Z" glyph-name="Ohungarumlaut" horiz-adv-x="782" unicode="&#336;" /><glyph d="M474 730H564L471 605H409ZM340 730H430L337 605H275ZM317 -10Q259 -10 210.5 10.5Q162 31 126.5 67Q91 103 71.5 152Q52 201 52 258Q52 326 76.5 383.5Q101 441 142.5 482.5Q184 524 238 547Q292 570 351 570Q408 570 456.5 550Q505 530 540.5 494Q576 458 596.5 408.5Q617 359 617 301Q617 232 592 175Q567 118 525.5 77Q484 36 429.5 13Q375 -10 317 -10ZM319 59Q365 59 405 77.5Q445 96 474 128Q503 160 520 204.5Q537 249 537 301Q537 342 524 378.5Q511 415 487 442Q463 469 428 484.5Q393 500 349 500Q302 500 262.5 481.5Q223 463 193.5 431Q164 399 147.5 354Q131 309 131 257Q131 216 143.5 180Q156 144 180 117Q204 90 239 74.5Q274 59 319 59Z" glyph-name="Ohungarumlaut.smcp" horiz-adv-x="648" unicode="&#62485;" /><glyph d="M347 868H607L596 801H336ZM144 325Q144 270 161.5 221.5Q179 173 211.5 136.5Q244 100 290.5 78.5Q337 57 396 57Q457 57 510 81Q563 105 601 147.5Q639 190 661 248Q683 306 683 375Q683 430 666 478.5Q649 527 616.5 563.5Q584 600 537.5 621.5Q491 643 432 643Q370 643 317.5 619Q265 595 226.5 552.5Q188 510 166 452Q144 394 144 325ZM762 372Q762 288 732 217.5Q702 147 652 96Q602 45 535.5 16.5Q469 -12 397 -12Q325 -12 264.5 14Q204 40 160 85.5Q116 131 91 193Q66 255 66 328Q66 412 96 482.5Q126 553 176 604Q226 655 292.5 683.5Q359 712 431 712Q503 712 563.5 686Q624 660 668 614.5Q712 569 737 507Q762 445 762 372Z" glyph-name="Omacron" horiz-adv-x="782" unicode="&#332;" /><glyph d="M286 700H513L502 639H275ZM317 -10Q259 -10 210.5 10.5Q162 31 126.5 67Q91 103 71.5 152Q52 201 52 258Q52 326 76.5 383.5Q101 441 142.5 482.5Q184 524 238 547Q292 570 351 570Q408 570 456.5 550Q505 530 540.5 494Q576 458 596.5 408.5Q617 359 617 301Q617 232 592 175Q567 118 525.5 77Q484 36 429.5 13Q375 -10 317 -10ZM319 59Q365 59 405 77.5Q445 96 474 128Q503 160 520 204.5Q537 249 537 301Q537 342 524 378.5Q511 415 487 442Q463 469 428 484.5Q393 500 349 500Q302 500 262.5 481.5Q223 463 193.5 431Q164 399 147.5 354Q131 309 131 257Q131 216 143.5 180Q156 144 180 117Q204 90 239 74.5Q274 59 319 59Z" glyph-name="Omacron.smcp" horiz-adv-x="648" unicode="&#62537;" /><glyph d="M573 462Q573 502 558 535.5Q543 569 516.5 593Q490 617 454 630.5Q418 644 377 644Q336 644 297 629Q258 614 227 583.5Q196 553 177 505.5Q158 458 158 394Q158 323 193 283Q228 243 285 225L249 0H44L56 65H185L206 191Q183 200 160.5 218.5Q138 237 120 263.5Q102 290 91 325Q80 360 80 404Q80 476 104.5 533Q129 590 170 630Q211 670 265 691Q319 712 378 712Q436 712 486 693.5Q536 675 572.5 642Q609 609 629.5 563Q650 517 650 461Q650 409 635.5 362Q621 315 594 276.5Q567 238 527.5 210Q488 182 438 170L421 65H553L541 0H338L372 217Q466 230 519.5 295.5Q573 361 573 462Z" glyph-name="Omega" horiz-adv-x="657" unicode="&#937;" /><glyph d="M683 375Q683 452 650 514L240 109Q271 84 309.5 70.5Q348 57 396 57Q457 57 510 81Q563 105 601 147.5Q639 190 661 248Q683 306 683 375ZM144 325Q144 278 156.5 236Q169 194 193 159L610 571Q578 604 533 623.5Q488 643 432 643Q370 643 317.5 619Q265 595 226.5 552.5Q188 510 166 452Q144 394 144 325ZM762 372Q762 288 732 217.5Q702 147 652 96Q602 45 535.5 16.5Q469 -12 397 -12Q336 -12 283.5 6.5Q231 25 189 58L118 -12H19L140 107Q105 152 85.5 207.5Q66 263 66 328Q66 412 96 482.5Q126 553 176 604Q226 655 292.5 683.5Q359 712 431 712Q500 712 558 688Q616 664 661 621L753 712H850L705 568Q732 526 747 477Q762 428 762 372Z" glyph-name="Oslash" horiz-adv-x="782" unicode="&#216;" /><glyph d="M319 59Q365 59 405 77.5Q445 96 474 128Q503 160 520 204.5Q537 249 537 301Q537 331 530 358.5Q523 386 510 409L198 100Q221 80 251.5 69.5Q282 59 319 59ZM131 257Q131 196 158 148L470 458Q447 478 416.5 489Q386 500 349 500Q302 500 262.5 481.5Q223 463 193.5 431Q164 399 147.5 354Q131 309 131 257ZM317 -10Q266 -10 223.5 5.5Q181 21 147 48L88 -10H-2L103 94Q79 128 65.5 169Q52 210 52 258Q52 326 76.5 383.5Q101 441 142.5 482.5Q184 524 238 547Q292 570 351 570Q401 570 444 554Q487 538 522 510L583 570H672L565 464Q590 431 603.5 390Q617 349 617 301Q617 232 592 175Q567 118 525.5 77Q484 36 429.5 13Q375 -10 317 -10Z" glyph-name="Oslash.smcp" horiz-adv-x="648" unicode="&#62500;" /><glyph d="M293 791Q294 800 297 819Q300 838 309 858Q318 878 337 893Q356 908 391 908Q407 908 424 901Q441 894 457 885Q473 876 487.5 869Q502 862 513 862Q526 862 531.5 872Q537 882 540 896L542 906H609Q607 897 605.5 878Q604 859 595.5 839Q587 819 568.5 804Q550 789 516 789Q501 789 484 796Q467 803 450.5 812Q434 821 419.5 828Q405 835 395 835Q381 835 373 825Q365 815 362 801L360 791ZM144 325Q144 270 161.5 221.5Q179 173 211.5 136.5Q244 100 290.5 78.5Q337 57 396 57Q457 57 510 81Q563 105 601 147.5Q639 190 661 248Q683 306 683 375Q683 430 666 478.5Q649 527 616.5 563.5Q584 600 537.5 621.5Q491 643 432 643Q370 643 317.5 619Q265 595 226.5 552.5Q188 510 166 452Q144 394 144 325ZM762 372Q762 288 732 217.5Q702 147 652 96Q602 45 535.5 16.5Q469 -12 397 -12Q325 -12 264.5 14Q204 40 160 85.5Q116 131 91 193Q66 255 66 328Q66 412 96 482.5Q126 553 176 604Q226 655 292.5 683.5Q359 712 431 712Q503 712 563.5 686Q624 660 668 614.5Q712 569 737 507Q762 445 762 372Z" glyph-name="Otilde" horiz-adv-x="782" unicode="&#213;" /><glyph d="M437 623Q425 623 412.5 628Q400 633 389 639Q378 645 368.5 650Q359 655 352 655Q343 655 338.5 650Q334 645 330 632L328 625H269L271 637Q272 646 275.5 660Q279 674 287.5 686.5Q296 699 311 708.5Q326 718 350 718Q362 718 375 713Q388 708 399.5 702Q411 696 420.5 691Q430 686 437 686Q446 686 450.5 691.5Q455 697 458 709L460 716H518L516 702Q514 693 511 679.5Q508 666 499.5 653.5Q491 641 476 632Q461 623 437 623ZM317 -10Q259 -10 210.5 10.5Q162 31 126.5 67Q91 103 71.5 152Q52 201 52 258Q52 326 76.5 383.5Q101 441 142.5 482.5Q184 524 238 547Q292 570 351 570Q408 570 456.5 550Q505 530 540.5 494Q576 458 596.5 408.5Q617 359 617 301Q617 232 592 175Q567 118 525.5 77Q484 36 429.5 13Q375 -10 317 -10ZM319 59Q365 59 405 77.5Q445 96 474 128Q503 160 520 204.5Q537 249 537 301Q537 342 524 378.5Q511 415 487 442Q463 469 428 484.5Q393 500 349 500Q302 500 262.5 481.5Q223 463 193.5 431Q164 399 147.5 354Q131 309 131 257Q131 216 143.5 180Q156 144 180 117Q204 90 239 74.5Q274 59 319 59Z" glyph-name="Otilde.smcp" horiz-adv-x="648" unicode="&#62359;" /><glyph d="M237 631 187 340H306Q343 340 376.5 348.5Q410 357 435 375.5Q460 394 475 424.5Q490 455 490 499Q490 529 479 553.5Q468 578 447.5 595Q427 612 399 621.5Q371 631 337 631ZM128 0H48L169 700H341Q390 700 432 685.5Q474 671 504.5 645.5Q535 620 552.5 584.5Q570 549 570 507Q570 455 553 412Q536 369 502 337.5Q468 306 418 288.5Q368 271 302 271H175Z" glyph-name="P" horiz-adv-x="552" unicode="P" /><glyph d="M252 277Q279 277 303.5 283.5Q328 290 347 304Q366 318 377 341Q388 364 388 396Q388 441 356.5 466.5Q325 492 275 492H203L166 277ZM137 560H285Q325 560 358.5 547.5Q392 535 416 513.5Q440 492 453.5 463Q467 434 467 401Q467 359 453 323.5Q439 288 411.5 262.5Q384 237 344 223Q304 209 252 209H154L119 0H41Z" glyph-name="P.smcp" horiz-adv-x="470" unicode="&#62278;" /><glyph d="M144 325Q144 270 161.5 221.5Q179 173 211.5 136.5Q244 100 290.5 78.5Q337 57 396 57Q443 57 487 72L422 172L482 214L553 105Q613 147 648 217Q683 287 683 375Q683 430 666 478.5Q649 527 616.5 563.5Q584 600 537.5 621.5Q491 643 432 643Q370 643 317.5 619Q265 595 226.5 552.5Q188 510 166 452Q144 394 144 325ZM762 372Q762 264 714.5 180Q667 96 591 46L621 2Q637 -22 655.5 -36Q674 -50 700 -50Q714 -50 723.5 -50Q733 -50 741 -49Q749 -48 756 -47V-117Q748 -118 738 -119Q730 -120 719 -120.5Q708 -121 694 -121Q654 -121 623 -105Q592 -89 566 -49L526 12Q495 1 462.5 -5.5Q430 -12 397 -12Q325 -12 264.5 14Q204 40 160 85.5Q116 131 91 193Q66 255 66 328Q66 412 96 482.5Q126 553 176 604Q226 655 292.5 683.5Q359 712 431 712Q503 712 563.5 686Q624 660 668 614.5Q712 569 737 507Q762 445 762 372Z" glyph-name="Q" horiz-adv-x="782" unicode="Q" /><glyph d="M319 59Q332 59 344 60Q356 61 368 64L318 153L381 191L437 95Q482 127 509.5 180Q537 233 537 301Q537 342 524 378.5Q511 415 487 442Q463 469 428 484.5Q393 500 349 500Q302 500 262.5 481.5Q223 463 193.5 431Q164 399 147.5 354Q131 309 131 257Q131 216 143.5 180Q156 144 180 117Q204 90 239 74.5Q274 59 319 59ZM317 -10Q259 -10 210.5 10.5Q162 31 126.5 67Q91 103 71.5 152Q52 201 52 258Q52 326 76.5 383.5Q101 441 142.5 482.5Q184 524 238 547Q292 570 351 570Q408 570 456.5 550Q505 530 540.5 494Q576 458 596.5 408.5Q617 359 617 301Q617 256 606 216.5Q595 177 576 143Q557 109 530 81.5Q503 54 472 35L483 16Q493 -2 505 -15.5Q517 -29 546 -29Q555 -29 562.5 -29Q570 -29 576 -28Q583 -28 589 -27L583 -95Q576 -96 567 -97Q559 -98 549.5 -98.5Q540 -99 529 -99Q491 -99 467.5 -83.5Q444 -68 424 -33L403 3Q382 -3 360.5 -6.5Q339 -10 317 -10Z" glyph-name="Q.smcp" horiz-adv-x="648" unicode="&#62279;" /><glyph d="M310 375Q346 375 380 383Q414 391 440 408Q466 425 481.5 452.5Q497 480 497 518Q497 570 458.5 600.5Q420 631 354 631H237L193 375ZM308 306H181L128 0H48L169 700H364Q416 700 456.5 685.5Q497 671 524 647Q551 623 565 590.5Q579 558 579 522Q579 495 570.5 463Q562 431 540 401.5Q518 372 481 349Q444 326 386 317L563 0H474Z" glyph-name="R" horiz-adv-x="595" unicode="R" /><glyph d="M262 304Q288 304 312.5 310Q337 316 356.5 328.5Q376 341 387.5 361Q399 381 399 409Q399 447 369.5 469.5Q340 492 292 492H203L171 304ZM137 560H302Q343 560 375.5 548.5Q408 537 431 517.5Q454 498 466.5 471.5Q479 445 479 415Q479 391 472 365Q465 339 447.5 316Q430 293 401.5 274.5Q373 256 330 247L466 0H380L253 236H160L119 0H41Z" glyph-name="R.smcp" horiz-adv-x="509" unicode="&#62280;" /><glyph d="M420 952H524L405 788H333ZM310 375Q346 375 380 383Q414 391 440 408Q466 425 481.5 452.5Q497 480 497 518Q497 570 458.5 600.5Q420 631 354 631H237L193 375ZM308 306H181L128 0H48L169 700H364Q416 700 456.5 685.5Q497 671 524 647Q551 623 565 590.5Q579 558 579 522Q579 495 570.5 463Q562 431 540 401.5Q518 372 481 349Q444 326 386 317L563 0H474Z" glyph-name="Racute" horiz-adv-x="595" unicode="&#340;" /><glyph d="M338 730H430L337 605H274ZM262 304Q288 304 312.5 310Q337 316 356.5 328.5Q376 341 387.5 361Q399 381 399 409Q399 447 369.5 469.5Q340 492 292 492H203L171 304ZM137 560H302Q343 560 375.5 548.5Q408 537 431 517.5Q454 498 466.5 471.5Q479 445 479 415Q479 391 472 365Q465 339 447.5 316Q430 293 401.5 274.5Q373 256 330 247L466 0H380L253 236H160L119 0H41Z" glyph-name="Racute.smcp" horiz-adv-x="509" unicode="&#62360;" /><glyph d="M260 952H336L376 844L454 952H535L419 788H320ZM310 375Q346 375 380 383Q414 391 440 408Q466 425 481.5 452.5Q497 480 497 518Q497 570 458.5 600.5Q420 631 354 631H237L193 375ZM308 306H181L128 0H48L169 700H364Q416 700 456.5 685.5Q497 671 524 647Q551 623 565 590.5Q579 558 579 522Q579 495 570.5 463Q562 431 540 401.5Q518 372 481 349Q444 326 386 317L563 0H474Z" glyph-name="Rcaron" horiz-adv-x="595" unicode="&#344;" /><glyph d="M375 730H447L352 605H264L215 730H281L314 654ZM262 304Q288 304 312.5 310Q337 316 356.5 328.5Q376 341 387.5 361Q399 381 399 409Q399 447 369.5 469.5Q340 492 292 492H203L171 304ZM137 560H302Q343 560 375.5 548.5Q408 537 431 517.5Q454 498 466.5 471.5Q479 445 479 415Q479 391 472 365Q465 339 447.5 316Q430 293 401.5 274.5Q373 256 330 247L466 0H380L253 236H160L119 0H41Z" glyph-name="Rcaron.smcp" horiz-adv-x="509" unicode="&#62361;" /><glyph d="M194 -107Q194 -83 211 -65Q228 -47 254 -47Q278 -47 295.5 -64.5Q313 -82 313 -105Q313 -118 307.5 -130Q302 -142 295 -150L213 -252L161 -243L219 -155Q208 -147 201 -134.5Q194 -122 194 -107ZM310 375Q346 375 380 383Q414 391 440 408Q466 425 481.5 452.5Q497 480 497 518Q497 570 458.5 600.5Q420 631 354 631H237L193 375ZM308 306H181L128 0H48L169 700H364Q416 700 456.5 685.5Q497 671 524 647Q551 623 565 590.5Q579 558 579 522Q579 495 570.5 463Q562 431 540 401.5Q518 372 481 349Q444 326 386 317L563 0H474Z" glyph-name="Rcommaaccent" horiz-adv-x="595" unicode="&#342;" /><glyph d="M170 -93Q170 -72 185 -56Q200 -40 223 -40Q245 -40 260 -55.5Q275 -71 275 -92Q275 -103 270 -113.5Q265 -124 260 -132L187 -222L140 -214L192 -136Q182 -129 176 -118Q170 -107 170 -93ZM262 304Q288 304 312.5 310Q337 316 356.5 328.5Q376 341 387.5 361Q399 381 399 409Q399 447 369.5 469.5Q340 492 292 492H203L171 304ZM137 560H302Q343 560 375.5 548.5Q408 537 431 517.5Q454 498 466.5 471.5Q479 445 479 415Q479 391 472 365Q465 339 447.5 316Q430 293 401.5 274.5Q373 256 330 247L466 0H380L253 236H160L119 0H41Z" glyph-name="Rcommaaccent.smcp" horiz-adv-x="509" unicode="&#62464;" /><glyph d="M469 563Q440 600 399.5 622.5Q359 645 311 645Q251 645 218 614Q185 583 185 537Q185 508 201 483.5Q217 459 256 428L326 373Q363 344 387.5 319.5Q412 295 426.5 271.5Q441 248 447 224.5Q453 201 453 174Q453 138 439 104.5Q425 71 398.5 45Q372 19 333 3.5Q294 -12 244 -12Q197 -12 160 -0.5Q123 11 94.5 28Q66 45 45.5 65.5Q25 86 11 104L61 156Q73 139 91 121.5Q109 104 132 89Q155 74 182 64.5Q209 55 238 55Q272 55 297.5 65Q323 75 340.5 92Q358 109 366.5 130.5Q375 152 375 176Q375 209 354 240.5Q333 272 277 316L221 359Q169 399 138 440.5Q107 482 107 534Q107 578 124 611.5Q141 645 169.5 667.5Q198 690 234 701Q270 712 309 712Q368 712 425 686Q482 660 518 612Z" glyph-name="S" horiz-adv-x="501" unicode="S" /><glyph d="M200 -10Q164 -10 134.5 -1Q105 8 81 22Q57 36 39 53Q21 70 8 87L60 142Q80 111 116 85Q152 59 200 59Q248 59 273.5 84.5Q299 110 299 146Q299 170 282 193Q265 216 224 246L179 279Q136 311 112 343.5Q88 376 88 418Q88 455 102.5 483.5Q117 512 140.5 531.5Q164 551 194 560.5Q224 570 256 570Q306 570 351.5 548Q397 526 426 481L375 432Q355 464 324.5 482.5Q294 501 257 501Q211 501 189 477Q167 453 167 423Q167 403 178 385Q189 367 218 346L274 304Q302 283 322 264Q342 245 354 226.5Q366 208 372 189Q378 170 378 148Q378 114 365 85Q352 56 328.5 35Q305 14 272.5 2Q240 -10 200 -10Z" glyph-name="S.smcp" horiz-adv-x="431" unicode="&#62281;" /><glyph d="M392 952H496L377 788H305ZM469 563Q440 600 399.5 622.5Q359 645 311 645Q251 645 218 614Q185 583 185 537Q185 508 201 483.5Q217 459 256 428L326 373Q363 344 387.5 319.5Q412 295 426.5 271.5Q441 248 447 224.5Q453 201 453 174Q453 138 439 104.5Q425 71 398.5 45Q372 19 333 3.5Q294 -12 244 -12Q197 -12 160 -0.5Q123 11 94.5 28Q66 45 45.5 65.5Q25 86 11 104L61 156Q73 139 91 121.5Q109 104 132 89Q155 74 182 64.5Q209 55 238 55Q272 55 297.5 65Q323 75 340.5 92Q358 109 366.5 130.5Q375 152 375 176Q375 209 354 240.5Q333 272 277 316L221 359Q169 399 138 440.5Q107 482 107 534Q107 578 124 611.5Q141 645 169.5 667.5Q198 690 234 701Q270 712 309 712Q368 712 425 686Q482 660 518 612Z" glyph-name="Sacute" horiz-adv-x="501" unicode="&#346;" /><glyph d="M298 730H390L297 605H234ZM200 -10Q164 -10 134.5 -1Q105 8 81 22Q57 36 39 53Q21 70 8 87L60 142Q80 111 116 85Q152 59 200 59Q248 59 273.5 84.5Q299 110 299 146Q299 170 282 193Q265 216 224 246L179 279Q136 311 112 343.5Q88 376 88 418Q88 455 102.5 483.5Q117 512 140.5 531.5Q164 551 194 560.5Q224 570 256 570Q306 570 351.5 548Q397 526 426 481L375 432Q355 464 324.5 482.5Q294 501 257 501Q211 501 189 477Q167 453 167 423Q167 403 178 385Q189 367 218 346L274 304Q302 283 322 264Q342 245 354 226.5Q366 208 372 189Q378 170 378 148Q378 114 365 85Q352 56 328.5 35Q305 14 272.5 2Q240 -10 200 -10Z" glyph-name="Sacute.smcp" horiz-adv-x="431" unicode="&#62465;" /><glyph d="M225 952H301L341 844L419 952H500L384 788H285ZM469 563Q440 600 399.5 622.5Q359 645 311 645Q251 645 218 614Q185 583 185 537Q185 508 201 483.5Q217 459 256 428L326 373Q363 344 387.5 319.5Q412 295 426.5 271.5Q441 248 447 224.5Q453 201 453 174Q453 138 439 104.5Q425 71 398.5 45Q372 19 333 3.5Q294 -12 244 -12Q197 -12 160 -0.5Q123 11 94.5 28Q66 45 45.5 65.5Q25 86 11 104L61 156Q73 139 91 121.5Q109 104 132 89Q155 74 182 64.5Q209 55 238 55Q272 55 297.5 65Q323 75 340.5 92Q358 109 366.5 130.5Q375 152 375 176Q375 209 354 240.5Q333 272 277 316L221 359Q169 399 138 440.5Q107 482 107 534Q107 578 124 611.5Q141 645 169.5 667.5Q198 690 234 701Q270 712 309 712Q368 712 425 686Q482 660 518 612Z" glyph-name="Scaron" horiz-adv-x="501" unicode="&#352;" /><glyph d="M344 730H416L321 605H233L184 730H250L283 654ZM200 -10Q164 -10 134.5 -1Q105 8 81 22Q57 36 39 53Q21 70 8 87L60 142Q80 111 116 85Q152 59 200 59Q248 59 273.5 84.5Q299 110 299 146Q299 170 282 193Q265 216 224 246L179 279Q136 311 112 343.5Q88 376 88 418Q88 455 102.5 483.5Q117 512 140.5 531.5Q164 551 194 560.5Q224 570 256 570Q306 570 351.5 548Q397 526 426 481L375 432Q355 464 324.5 482.5Q294 501 257 501Q211 501 189 477Q167 453 167 423Q167 403 178 385Q189 367 218 346L274 304Q302 283 322 264Q342 245 354 226.5Q366 208 372 189Q378 170 378 148Q378 114 365 85Q352 56 328.5 35Q305 14 272.5 2Q240 -10 200 -10Z" glyph-name="Scaron.smcp" horiz-adv-x="431" unicode="&#62466;" /><glyph d="M168 -2Q139 5 115 17.5Q91 30 72 44.5Q53 59 38 74.5Q23 90 13 104L63 156Q75 139 93 121.5Q111 104 134 89Q157 74 184 64.5Q211 55 240 55Q274 55 299.5 65Q325 75 342.5 92Q360 109 368.5 130.5Q377 152 377 176Q377 209 356 240.5Q335 272 279 316L223 359Q171 399 140 440.5Q109 482 109 534Q109 578 126 611.5Q143 645 171.5 667.5Q200 690 236 701Q272 712 311 712Q370 712 427 686Q484 660 520 612L471 563Q442 600 401.5 622.5Q361 645 313 645Q253 645 220 614Q187 583 187 537Q187 508 203 483.5Q219 459 258 428L328 373Q365 344 389.5 319.5Q414 295 428.5 271.5Q443 248 449 224.5Q455 201 455 174Q455 139 442 106.5Q429 74 403.5 48Q378 22 341 6Q304 -10 256 -12L175 -136H94Z" glyph-name="Scedilla" horiz-adv-x="502" unicode="&#350;" /><glyph d="M147 -4Q98 7 63.5 33.5Q29 60 9 87L61 142Q81 111 117 85Q153 59 201 59Q249 59 274.5 84.5Q300 110 300 146Q300 170 283 193Q266 216 225 246L180 279Q137 311 113 343.5Q89 376 89 418Q89 455 103.5 483.5Q118 512 141.5 531.5Q165 551 195 560.5Q225 570 257 570Q307 570 352.5 548Q398 526 427 481L376 432Q356 464 325.5 482.5Q295 501 258 501Q212 501 190 477Q168 453 168 423Q168 403 179 385Q190 367 219 346L275 304Q303 283 323 264Q343 245 355 226.5Q367 208 373 189Q379 170 379 148Q379 85 337 41.5Q295 -2 225 -9L153 -129H90Z" glyph-name="Scedilla.smcp" horiz-adv-x="432" unicode="&#62467;" /><glyph d="M321 952H419L479 788H404L364 896L286 788H205ZM469 563Q440 600 399.5 622.5Q359 645 311 645Q251 645 218 614Q185 583 185 537Q185 508 201 483.5Q217 459 256 428L326 373Q363 344 387.5 319.5Q412 295 426.5 271.5Q441 248 447 224.5Q453 201 453 174Q453 138 439 104.5Q425 71 398.5 45Q372 19 333 3.5Q294 -12 244 -12Q197 -12 160 -0.5Q123 11 94.5 28Q66 45 45.5 65.5Q25 86 11 104L61 156Q73 139 91 121.5Q109 104 132 89Q155 74 182 64.5Q209 55 238 55Q272 55 297.5 65Q323 75 340.5 92Q358 109 366.5 130.5Q375 152 375 176Q375 209 354 240.5Q333 272 277 316L221 359Q169 399 138 440.5Q107 482 107 534Q107 578 124 611.5Q141 645 169.5 667.5Q198 690 234 701Q270 712 309 712Q368 712 425 686Q482 660 518 612Z" glyph-name="Scircumflex" horiz-adv-x="501" unicode="&#348;" /><glyph d="M306 681 245 605H172L267 730H355L404 605H339ZM200 -10Q164 -10 134.5 -1Q105 8 81 22Q57 36 39 53Q21 70 8 87L60 142Q80 111 116 85Q152 59 200 59Q248 59 273.5 84.5Q299 110 299 146Q299 170 282 193Q265 216 224 246L179 279Q136 311 112 343.5Q88 376 88 418Q88 455 102.5 483.5Q117 512 140.5 531.5Q164 551 194 560.5Q224 570 256 570Q306 570 351.5 548Q397 526 426 481L375 432Q355 464 324.5 482.5Q294 501 257 501Q211 501 189 477Q167 453 167 423Q167 403 178 385Q189 367 218 346L274 304Q302 283 322 264Q342 245 354 226.5Q366 208 372 189Q378 170 378 148Q378 114 365 85Q352 56 328.5 35Q305 14 272.5 2Q240 -10 200 -10Z" glyph-name="Scircumflex.smcp" horiz-adv-x="431" unicode="&#62468;" /><glyph d="M123 -107Q123 -83 140 -65Q157 -47 183 -47Q207 -47 224.5 -64.5Q242 -82 242 -105Q242 -118 236.5 -130Q231 -142 224 -150L142 -252L90 -243L148 -155Q137 -147 130 -134.5Q123 -122 123 -107ZM469 563Q440 600 399.5 622.5Q359 645 311 645Q251 645 218 614Q185 583 185 537Q185 508 201 483.5Q217 459 256 428L326 373Q363 344 387.5 319.5Q412 295 426.5 271.5Q441 248 447 224.5Q453 201 453 174Q453 138 439 104.5Q425 71 398.5 45Q372 19 333 3.5Q294 -12 244 -12Q197 -12 160 -0.5Q123 11 94.5 28Q66 45 45.5 65.5Q25 86 11 104L61 156Q73 139 91 121.5Q109 104 132 89Q155 74 182 64.5Q209 55 238 55Q272 55 297.5 65Q323 75 340.5 92Q358 109 366.5 130.5Q375 152 375 176Q375 209 354 240.5Q333 272 277 316L221 359Q169 399 138 440.5Q107 482 107 534Q107 578 124 611.5Q141 645 169.5 667.5Q198 690 234 701Q270 712 309 712Q368 712 425 686Q482 660 518 612Z" glyph-name="Scommaaccent" horiz-adv-x="501" unicode="&#536;" /><glyph d="M103 -93Q103 -72 118 -56Q133 -40 156 -40Q178 -40 193 -55.5Q208 -71 208 -92Q208 -103 203 -113.5Q198 -124 193 -132L120 -222L73 -214L125 -136Q115 -129 109 -118Q103 -107 103 -93ZM200 -10Q164 -10 134.5 -1Q105 8 81 22Q57 36 39 53Q21 70 8 87L60 142Q80 111 116 85Q152 59 200 59Q248 59 273.5 84.5Q299 110 299 146Q299 170 282 193Q265 216 224 246L179 279Q136 311 112 343.5Q88 376 88 418Q88 455 102.5 483.5Q117 512 140.5 531.5Q164 551 194 560.5Q224 570 256 570Q306 570 351.5 548Q397 526 426 481L375 432Q355 464 324.5 482.5Q294 501 257 501Q211 501 189 477Q167 453 167 423Q167 403 178 385Q189 367 218 346L274 304Q302 283 322 264Q342 245 354 226.5Q366 208 372 189Q378 170 378 148Q378 114 365 85Q352 56 328.5 35Q305 14 272.5 2Q240 -10 200 -10Z" glyph-name="Scommaaccent.smcp" horiz-adv-x="431" unicode="&#62469;" /><glyph d="M605 700 593 631H380L271 0H191L300 631H86L98 700Z" glyph-name="T" horiz-adv-x="534" unicode="T" /><glyph d="M234 491H66L78 560H492L480 491H312L228 0H150Z" glyph-name="T.smcp" horiz-adv-x="452" unicode="&#62288;" /><glyph d="M612 700 600 631H387L345 391H489L478 323H334L278 0H198L254 323H112L123 391H265L307 631H93L105 700Z" glyph-name="Tbar" horiz-adv-x="549" unicode="&#358;" /><glyph d="M104 319H208L238 491H70L82 560H496L484 491H316L286 319H393L382 252H275L232 0H154L197 252H93Z" glyph-name="Tbar.smcp" horiz-adv-x="462" unicode="&#62470;" /><glyph d="M257 952H333L373 844L451 952H532L416 788H317ZM605 700 593 631H380L271 0H191L300 631H86L98 700Z" glyph-name="Tcaron" horiz-adv-x="534" unicode="&#356;" /><glyph d="M358 730H430L335 605H247L198 730H264L297 654ZM234 491H66L78 560H492L480 491H312L228 0H150Z" glyph-name="Tcaron.smcp" horiz-adv-x="452" unicode="&#62471;" /><glyph d="M153 -107Q153 -83 170 -65Q187 -47 213 -47Q237 -47 254.5 -64.5Q272 -82 272 -105Q272 -118 266.5 -130Q261 -142 254 -150L172 -252L120 -243L178 -155Q167 -147 160 -134.5Q153 -122 153 -107ZM605 700 593 631H380L271 0H191L300 631H86L98 700Z" glyph-name="Tcommaaccent" horiz-adv-x="534" unicode="&#354;" /><glyph d="M121 -93Q121 -72 136 -56Q151 -40 174 -40Q196 -40 211 -55.5Q226 -71 226 -92Q226 -103 221 -113.5Q216 -124 211 -132L138 -222L91 -214L143 -136Q133 -129 127 -118Q121 -107 121 -93ZM234 491H66L78 560H492L480 491H312L228 0H150Z" glyph-name="Tcommaaccent.smcp" horiz-adv-x="452" unicode="&#62308;" /><glyph d="M164 207H283Q320 207 353.5 215.5Q387 224 412.5 242.5Q438 261 453 291.5Q468 322 468 366Q468 396 456.5 420.5Q445 445 425 462Q405 479 377 488.5Q349 498 315 498H214ZM319 567Q368 567 409.5 553Q451 539 481.5 513Q512 487 529.5 451.5Q547 416 547 374Q547 322 530 279Q513 236 479 204.5Q445 173 395 155.5Q345 138 279 138L152 137L128 0H48L169 700H249L226 567Z" glyph-name="Thorn" horiz-adv-x="554" unicode="&#222;" /><glyph d="M234 174Q261 174 286 180.5Q311 187 330 201.5Q349 216 360 238.5Q371 261 371 293Q371 338 339.5 363.5Q308 389 258 389H186L149 174ZM137 560H215L197 457H268Q308 457 341.5 445Q375 433 399 411.5Q423 390 436.5 361Q450 332 450 299Q450 257 436 221.5Q422 186 394.5 160.5Q367 135 326.5 121Q286 107 234 107H137L118 0H40Z" glyph-name="Thorn.smcp" horiz-adv-x="473" unicode="&#62472;" /><glyph d="M240 700 162 245Q156 209 161.5 175.5Q167 142 184 115.5Q201 89 231 73.5Q261 58 303 58Q340 58 369 71Q398 84 418.5 106Q439 128 451.5 157Q464 186 469 217L553 700H628L544 206Q536 159 516.5 119.5Q497 80 467 50.5Q437 21 395 4.5Q353 -12 300 -12Q244 -12 200 7.5Q156 27 127 62Q98 97 86.5 146.5Q75 196 85 255L161 700Z" glyph-name="U" horiz-adv-x="624" unicode="U" /><glyph d="M248 -10Q203 -10 166.5 5Q130 20 106 48Q82 76 72 115.5Q62 155 70 204L130 560H208L146 198Q141 171 145 146Q149 121 162 101.5Q175 82 197.5 70.5Q220 59 252 59Q279 59 300.5 68.5Q322 78 337 94.5Q352 111 361 132.5Q370 154 374 178L440 560H516L448 166Q441 128 425 96Q409 64 384 40.5Q359 17 325 3.5Q291 -10 248 -10Z" glyph-name="U.smcp" horiz-adv-x="530" unicode="&#62289;" /><glyph d="M442 952H546L427 788H355ZM240 700 162 245Q156 209 161.5 175.5Q167 142 184 115.5Q201 89 231 73.5Q261 58 303 58Q340 58 369 71Q398 84 418.5 106Q439 128 451.5 157Q464 186 469 217L553 700H628L544 206Q536 159 516.5 119.5Q497 80 467 50.5Q437 21 395 4.5Q353 -12 300 -12Q244 -12 200 7.5Q156 27 127 62Q98 97 86.5 146.5Q75 196 85 255L161 700Z" glyph-name="Uacute" horiz-adv-x="624" unicode="&#218;" /><glyph d="M357 730H449L356 605H293ZM248 -10Q203 -10 166.5 5Q130 20 106 48Q82 76 72 115.5Q62 155 70 204L130 560H208L146 198Q141 171 145 146Q149 121 162 101.5Q175 82 197.5 70.5Q220 59 252 59Q279 59 300.5 68.5Q322 78 337 94.5Q352 111 361 132.5Q370 154 374 178L440 560H516L448 166Q441 128 425 96Q409 64 384 40.5Q359 17 325 3.5Q291 -10 248 -10Z" glyph-name="Uacute.smcp" horiz-adv-x="530" unicode="&#62473;" /><glyph d="M470 936H538L531 884Q523 825 488 798.5Q453 772 405 772Q381 772 360.5 779.5Q340 787 325 801.5Q310 816 303 838Q296 860 301 889L309 936H377L368 888Q364 865 374 851Q384 837 409 837Q434 837 445.5 851Q457 865 461 888ZM240 700 162 245Q156 209 161.5 175.5Q167 142 184 115.5Q201 89 231 73.5Q261 58 303 58Q340 58 369 71Q398 84 418.5 106Q439 128 451.5 157Q464 186 469 217L553 700H628L544 206Q536 159 516.5 119.5Q497 80 467 50.5Q437 21 395 4.5Q353 -12 300 -12Q244 -12 200 7.5Q156 27 127 62Q98 97 86.5 146.5Q75 196 85 255L161 700Z" glyph-name="Ubreve" horiz-adv-x="624" unicode="&#364;" /><glyph d="M334 672Q377 672 387 721L389 731H449L446 714Q438 664 405 639.5Q372 615 328 615Q306 615 287 623Q268 631 255.5 645.5Q243 660 238 679Q233 698 239 720L242 731H299Q295 722 295 711Q295 693 305 682.5Q315 672 334 672ZM248 -10Q203 -10 166.5 5Q130 20 106 48Q82 76 72 115.5Q62 155 70 204L130 560H208L146 198Q141 171 145 146Q149 121 162 101.5Q175 82 197.5 70.5Q220 59 252 59Q279 59 300.5 68.5Q322 78 337 94.5Q352 111 361 132.5Q370 154 374 178L440 560H516L448 166Q441 128 425 96Q409 64 384 40.5Q359 17 325 3.5Q291 -10 248 -10Z" glyph-name="Ubreve.smcp" horiz-adv-x="530" unicode="&#62480;" /><glyph d="M382 952H480L540 788H465L425 896L347 788H266ZM240 700 162 245Q156 209 161.5 175.5Q167 142 184 115.5Q201 89 231 73.5Q261 58 303 58Q340 58 369 71Q398 84 418.5 106Q439 128 451.5 157Q464 186 469 217L553 700H628L544 206Q536 159 516.5 119.5Q497 80 467 50.5Q437 21 395 4.5Q353 -12 300 -12Q244 -12 200 7.5Q156 27 127 62Q98 97 86.5 146.5Q75 196 85 255L161 700Z" glyph-name="Ucircumflex" horiz-adv-x="624" unicode="&#219;" /><glyph d="M347 681 286 605H213L308 730H396L445 605H380ZM248 -10Q203 -10 166.5 5Q130 20 106 48Q82 76 72 115.5Q62 155 70 204L130 560H208L146 198Q141 171 145 146Q149 121 162 101.5Q175 82 197.5 70.5Q220 59 252 59Q279 59 300.5 68.5Q322 78 337 94.5Q352 111 361 132.5Q370 154 374 178L440 560H516L448 166Q441 128 425 96Q409 64 384 40.5Q359 17 325 3.5Q291 -10 248 -10Z" glyph-name="Ucircumflex.smcp" horiz-adv-x="530" unicode="&#62481;" /><glyph d="M427 836Q427 859 444.5 876.5Q462 894 485 894Q508 894 525.5 876.5Q543 859 543 836Q543 813 525.5 796Q508 779 485 779Q462 779 444.5 796Q427 813 427 836ZM263 836Q263 859 280 876.5Q297 894 320 894Q343 894 360 876.5Q377 859 377 836Q377 813 360 796Q343 779 320 779Q297 779 280 796Q263 813 263 836ZM240 700 162 245Q156 209 161.5 175.5Q167 142 184 115.5Q201 89 231 73.5Q261 58 303 58Q340 58 369 71Q398 84 418.5 106Q439 128 451.5 157Q464 186 469 217L553 700H628L544 206Q536 159 516.5 119.5Q497 80 467 50.5Q437 21 395 4.5Q353 -12 300 -12Q244 -12 200 7.5Q156 27 127 62Q98 97 86.5 146.5Q75 196 85 255L161 700Z" glyph-name="Udieresis" horiz-adv-x="624" unicode="&#220;" /><glyph d="M342 673Q341 694 356.5 709Q372 724 394 724Q415 724 430.5 709Q446 694 447 673Q446 653 430.5 637.5Q415 622 394 622Q372 622 356.5 637.5Q341 653 342 673ZM210 673Q209 694 225 709Q241 724 262 724Q283 724 298.5 709Q314 694 315 673Q314 653 298.5 637.5Q283 622 262 622Q241 622 225 637.5Q209 653 210 673ZM248 -10Q203 -10 166.5 5Q130 20 106 48Q82 76 72 115.5Q62 155 70 204L130 560H208L146 198Q141 171 145 146Q149 121 162 101.5Q175 82 197.5 70.5Q220 59 252 59Q279 59 300.5 68.5Q322 78 337 94.5Q352 111 361 132.5Q370 154 374 178L440 560H516L448 166Q441 128 425 96Q409 64 384 40.5Q359 17 325 3.5Q291 -10 248 -10Z" glyph-name="Udieresis.smcp" horiz-adv-x="530" unicode="&#62529;" /><glyph d="M433 788H362L260 952H364ZM240 700 162 245Q156 209 161.5 175.5Q167 142 184 115.5Q201 89 231 73.5Q261 58 303 58Q340 58 369 71Q398 84 418.5 106Q439 128 451.5 157Q464 186 469 217L553 700H628L544 206Q536 159 516.5 119.5Q497 80 467 50.5Q437 21 395 4.5Q353 -12 300 -12Q244 -12 200 7.5Q156 27 127 62Q98 97 86.5 146.5Q75 196 85 255L161 700Z" glyph-name="Ugrave" horiz-adv-x="624" unicode="&#217;" /><glyph d="M355 605H292L215 730H307ZM248 -10Q203 -10 166.5 5Q130 20 106 48Q82 76 72 115.5Q62 155 70 204L130 560H208L146 198Q141 171 145 146Q149 121 162 101.5Q175 82 197.5 70.5Q220 59 252 59Q279 59 300.5 68.5Q322 78 337 94.5Q352 111 361 132.5Q370 154 374 178L440 560H516L448 166Q441 128 425 96Q409 64 384 40.5Q359 17 325 3.5Q291 -10 248 -10Z" glyph-name="Ugrave.smcp" horiz-adv-x="530" unicode="&#62530;" /><glyph d="M523 952H617L508 788H426ZM365 952H459L349 788H268ZM240 700 162 245Q156 209 161.5 175.5Q167 142 184 115.5Q201 89 231 73.5Q261 58 303 58Q340 58 369 71Q398 84 418.5 106Q439 128 451.5 157Q464 186 469 217L553 700H628L544 206Q536 159 516.5 119.5Q497 80 467 50.5Q437 21 395 4.5Q353 -12 300 -12Q244 -12 200 7.5Q156 27 127 62Q98 97 86.5 146.5Q75 196 85 255L161 700Z" glyph-name="Uhungarumlaut" horiz-adv-x="624" unicode="&#368;" /><glyph d="M421 730H511L418 605H356ZM287 730H377L284 605H222ZM248 -10Q203 -10 166.5 5Q130 20 106 48Q82 76 72 115.5Q62 155 70 204L130 560H208L146 198Q141 171 145 146Q149 121 162 101.5Q175 82 197.5 70.5Q220 59 252 59Q279 59 300.5 68.5Q322 78 337 94.5Q352 111 361 132.5Q370 154 374 178L440 560H516L448 166Q441 128 425 96Q409 64 384 40.5Q359 17 325 3.5Q291 -10 248 -10Z" glyph-name="Uhungarumlaut.smcp" horiz-adv-x="530" unicode="&#62486;" /><glyph d="M277 868H537L526 801H266ZM240 700 162 245Q156 209 161.5 175.5Q167 142 184 115.5Q201 89 231 73.5Q261 58 303 58Q340 58 369 71Q398 84 418.5 106Q439 128 451.5 157Q464 186 469 217L553 700H628L544 206Q536 159 516.5 119.5Q497 80 467 50.5Q437 21 395 4.5Q353 -12 300 -12Q244 -12 200 7.5Q156 27 127 62Q98 97 86.5 146.5Q75 196 85 255L161 700Z" glyph-name="Umacron" horiz-adv-x="624" unicode="&#362;" /><glyph d="M233 700H460L449 639H222ZM248 -10Q203 -10 166.5 5Q130 20 106 48Q82 76 72 115.5Q62 155 70 204L130 560H208L146 198Q141 171 145 146Q149 121 162 101.5Q175 82 197.5 70.5Q220 59 252 59Q279 59 300.5 68.5Q322 78 337 94.5Q352 111 361 132.5Q370 154 374 178L440 560H516L448 166Q441 128 425 96Q409 64 384 40.5Q359 17 325 3.5Q291 -10 248 -10Z" glyph-name="Umacron.smcp" horiz-adv-x="530" unicode="&#62531;" /><glyph d="M241 700 163 245Q157 209 162.5 175.5Q168 142 185 115.5Q202 89 232 73.5Q262 58 304 58Q341 58 370 71Q399 84 419.5 106Q440 128 452.5 157Q465 186 470 217L554 700H629L545 206Q537 160 518 121Q499 82 469.5 52.5Q440 23 399.5 6Q359 -11 307 -12Q270 -36 244.5 -59Q219 -82 219 -105Q219 -118 230.5 -126Q242 -134 261 -134Q277 -134 293.5 -131Q310 -128 333 -120L325 -173Q308 -181 290 -186Q272 -191 240 -191Q197 -191 173 -170.5Q149 -150 149 -116Q149 -94 157 -77Q165 -60 178 -47Q191 -34 208.5 -24Q226 -14 245 -6Q202 3 168.5 25.5Q135 48 114 82Q93 116 85 160Q77 204 86 255L162 700Z" glyph-name="Uogonek" horiz-adv-x="626" unicode="&#370;" /><glyph d="M249 -10Q229 -22 214 -37Q199 -52 199 -72Q199 -87 212 -94.5Q225 -102 240 -102Q253 -102 266 -100.5Q279 -99 287 -95L279 -139Q277 -140 258 -145.5Q239 -151 213 -151Q175 -151 153 -133Q131 -115 131 -90Q131 -61 150.5 -40Q170 -19 199 -5Q130 10 93.5 64.5Q57 119 71 204L131 560H209L147 198Q142 171 146 146Q150 121 163 101.5Q176 82 198.5 70.5Q221 59 253 59Q280 59 301.5 68.5Q323 78 338 94.5Q353 111 362 132.5Q371 154 375 178L441 560H517L449 166Q442 128 426 96Q410 64 385 40.5Q360 17 326 3.5Q292 -10 249 -10Z" glyph-name="Uogonek.smcp" horiz-adv-x="531" unicode="&#62532;" /><glyph d="M400 808Q421 808 435 822Q449 836 449 859Q449 882 435 896Q421 910 400 910Q379 910 365 896Q351 882 351 859Q351 836 365 822Q379 808 400 808ZM400 964Q421 964 440.5 956Q460 948 475 934Q490 920 498.5 900.5Q507 881 507 859Q507 836 498.5 817Q490 798 475 784Q460 770 440.5 762Q421 754 400 754Q379 754 359.5 762Q340 770 325 784Q310 798 301.5 817Q293 836 293 859Q293 881 301.5 900.5Q310 920 325 934Q340 948 359.5 956Q379 964 400 964ZM240 700 162 245Q156 209 161.5 175.5Q167 142 184 115.5Q201 89 231 73.5Q261 58 303 58Q340 58 369 71Q398 84 418.5 106Q439 128 451.5 157Q464 186 469 217L553 700H628L544 206Q536 159 516.5 119.5Q497 80 467 50.5Q437 21 395 4.5Q353 -12 300 -12Q244 -12 200 7.5Q156 27 127 62Q98 97 86.5 146.5Q75 196 85 255L161 700Z" glyph-name="Uring" horiz-adv-x="624" unicode="&#366;" /><glyph d="M338 634Q356 634 367.5 647Q379 660 379 679Q379 698 367.5 710.5Q356 723 338 723Q319 723 307 710.5Q295 698 295 679Q295 660 307 647Q319 634 338 634ZM338 591Q300 591 273.5 616Q247 641 247 679Q247 717 273.5 741.5Q300 766 338 766Q375 766 401.5 741.5Q428 717 428 679Q428 641 401.5 616Q375 591 338 591ZM248 -10Q203 -10 166.5 5Q130 20 106 48Q82 76 72 115.5Q62 155 70 204L130 560H208L146 198Q141 171 145 146Q149 121 162 101.5Q175 82 197.5 70.5Q220 59 252 59Q279 59 300.5 68.5Q322 78 337 94.5Q352 111 361 132.5Q370 154 374 178L440 560H516L448 166Q441 128 425 96Q409 64 384 40.5Q359 17 325 3.5Q291 -10 248 -10Z" glyph-name="Uring.smcp" horiz-adv-x="530" unicode="&#62533;" /><glyph d="M255 791Q256 800 259 819Q262 838 271 858Q280 878 299 893Q318 908 353 908Q369 908 386 901Q403 894 419 885Q435 876 449.5 869Q464 862 475 862Q488 862 493.5 872Q499 882 502 896L504 906H571Q569 897 567.5 878Q566 859 557.5 839Q549 819 530.5 804Q512 789 478 789Q463 789 446 796Q429 803 412.5 812Q396 821 381.5 828Q367 835 357 835Q343 835 335 825Q327 815 324 801L322 791ZM240 700 162 245Q156 209 161.5 175.5Q167 142 184 115.5Q201 89 231 73.5Q261 58 303 58Q340 58 369 71Q398 84 418.5 106Q439 128 451.5 157Q464 186 469 217L553 700H628L544 206Q536 159 516.5 119.5Q497 80 467 50.5Q437 21 395 4.5Q353 -12 300 -12Q244 -12 200 7.5Q156 27 127 62Q98 97 86.5 146.5Q75 196 85 255L161 700Z" glyph-name="Utilde" horiz-adv-x="624" unicode="&#360;" /><glyph d="M384 623Q372 623 359.5 628Q347 633 336 639Q325 645 315.5 650Q306 655 299 655Q290 655 285.5 650Q281 645 277 632L275 625H216L218 637Q219 646 222.5 660Q226 674 234.5 686.5Q243 699 258 708.5Q273 718 297 718Q309 718 322 713Q335 708 346.5 702Q358 696 367.5 691Q377 686 384 686Q393 686 397.5 691.5Q402 697 405 709L407 716H465L463 702Q461 693 458 679.5Q455 666 446.5 653.5Q438 641 423 632Q408 623 384 623ZM248 -10Q203 -10 166.5 5Q130 20 106 48Q82 76 72 115.5Q62 155 70 204L130 560H208L146 198Q141 171 145 146Q149 121 162 101.5Q175 82 197.5 70.5Q220 59 252 59Q279 59 300.5 68.5Q322 78 337 94.5Q352 111 361 132.5Q370 154 374 178L440 560H516L448 166Q441 128 425 96Q409 64 384 40.5Q359 17 325 3.5Q291 -10 248 -10Z" glyph-name="Utilde.smcp" horiz-adv-x="530" unicode="&#62544;" /><glyph d="M112 700H193L254 83H255L593 700H677L289 0H194Z" glyph-name="V" horiz-adv-x="607" unicode="V" /><glyph d="M88 560H169L212 93H213L467 560H552L238 0H149Z" glyph-name="V.smcp" horiz-adv-x="507" unicode="&#62290;" /><glyph d="M598 700 630 83H631L909 700H992L664 0H560L533 615L233 0H132L116 700H193L201 83H202L503 700Z" glyph-name="W" horiz-adv-x="936" unicode="W" /><glyph d="M94 560H172L175 96L403 560H495L511 96H512L718 560H801L541 0H442L428 466L200 0H104Z" glyph-name="W.smcp" horiz-adv-x="772" unicode="&#62291;" /><glyph d="M620 952H724L605 788H533ZM598 700 630 83H631L909 700H992L664 0H560L533 615L233 0H132L116 700H193L201 83H202L503 700Z" glyph-name="Wacute" horiz-adv-x="936" unicode="&#7810;" /><glyph d="M488 730H580L487 605H424ZM94 560H172L175 96L403 560H495L511 96H512L718 560H801L541 0H442L428 466L200 0H104Z" glyph-name="Wacute.smcp" horiz-adv-x="772" unicode="&#62297;" /><glyph d="M538 952H636L696 788H621L581 896L503 788H422ZM598 700 630 83H631L909 700H992L664 0H560L533 615L233 0H132L116 700H193L201 83H202L503 700Z" glyph-name="Wcircumflex" horiz-adv-x="936" unicode="&#372;" /><glyph d="M468 681 407 605H334L429 730H517L566 605H501ZM94 560H172L175 96L403 560H495L511 96H512L718 560H801L541 0H442L428 466L200 0H104Z" glyph-name="Wcircumflex.smcp" horiz-adv-x="772" unicode="&#62545;" /><glyph d="M584 836Q584 859 601.5 876.5Q619 894 642 894Q665 894 682.5 876.5Q700 859 700 836Q700 813 682.5 796Q665 779 642 779Q619 779 601.5 796Q584 813 584 836ZM420 836Q420 859 437 876.5Q454 894 477 894Q500 894 517 876.5Q534 859 534 836Q534 813 517 796Q500 779 477 779Q454 779 437 796Q420 813 420 836ZM598 700 630 83H631L909 700H992L664 0H560L533 615L233 0H132L116 700H193L201 83H202L503 700Z" glyph-name="Wdieresis" horiz-adv-x="936" unicode="&#7812;" /><glyph d="M347 673Q346 694 362 709Q378 724 399 724Q420 724 435.5 709Q451 694 452 673Q451 653 435.5 637.5Q420 622 399 622Q378 622 362 637.5Q346 653 347 673ZM479 673Q478 694 493.5 709Q509 724 531 724Q552 724 567.5 709Q583 694 584 673Q583 653 567.5 637.5Q552 622 531 622Q509 622 493.5 637.5Q478 653 479 673ZM94 560H172L175 96L403 560H495L511 96H512L718 560H801L541 0H442L428 466L200 0H104Z" glyph-name="Wdieresis.smcp" horiz-adv-x="772" unicode="&#62304;" /><glyph d="M569 788H498L396 952H500ZM598 700 630 83H631L909 700H992L664 0H560L533 615L233 0H132L116 700H193L201 83H202L503 700Z" glyph-name="Wgrave" horiz-adv-x="936" unicode="&#7808;" /><glyph d="M483 605H420L343 730H435ZM94 560H172L175 96L403 560H495L511 96H512L718 560H801L541 0H442L428 466L200 0H104Z" glyph-name="Wgrave.smcp" horiz-adv-x="772" unicode="&#62305;" /><glyph d="M358 349 537 0H449L304 295L63 0H-30L265 354L99 700H184L319 408L557 700H650Z" glyph-name="X" horiz-adv-x="581" unicode="X" /><glyph d="M213 283 81 560H167L267 337L444 560H537L305 279L446 0H358L252 225L73 0H-21Z" glyph-name="X.smcp" horiz-adv-x="499" unicode="&#62292;" /><glyph d="M87 700H175L334 380H335L606 700H700L367 313L312 0H233L287 310Z" glyph-name="Y" horiz-adv-x="625" unicode="Y" /><glyph d="M233 246 74 560H164L279 317H281L481 560H577L311 249L268 0H190Z" glyph-name="Y.smcp" horiz-adv-x="538" unicode="&#62293;" /><glyph d="M446 952H550L431 788H359ZM87 700H175L334 380H335L606 700H700L367 313L312 0H233L287 310Z" glyph-name="Yacute" horiz-adv-x="625" unicode="&#221;" /><glyph d="M351 730H443L350 605H287ZM233 246 74 560H164L279 317H281L481 560H577L311 249L268 0H190Z" glyph-name="Yacute.smcp" horiz-adv-x="538" unicode="&#62482;" /><glyph d="M369 952H467L527 788H452L412 896L334 788H253ZM87 700H175L334 380H335L606 700H700L367 313L312 0H233L287 310Z" glyph-name="Ycircumflex" horiz-adv-x="625" unicode="&#374;" /><glyph d="M347 681 286 605H213L308 730H396L445 605H380ZM233 246 74 560H164L279 317H281L481 560H577L311 249L268 0H190Z" glyph-name="Ycircumflex.smcp" horiz-adv-x="538" unicode="&#62546;" /><glyph d="M416 836Q416 859 433.5 876.5Q451 894 474 894Q497 894 514.5 876.5Q532 859 532 836Q532 813 514.5 796Q497 779 474 779Q451 779 433.5 796Q416 813 416 836ZM252 836Q252 859 269 876.5Q286 894 309 894Q332 894 349 876.5Q366 859 366 836Q366 813 349 796Q332 779 309 779Q286 779 269 796Q252 813 252 836ZM87 700H175L334 380H335L606 700H700L367 313L312 0H233L287 310Z" glyph-name="Ydieresis" horiz-adv-x="625" unicode="&#376;" /><glyph d="M345 673Q344 694 359.5 709Q375 724 397 724Q418 724 433.5 709Q449 694 450 673Q449 653 433.5 637.5Q418 622 397 622Q375 622 359.5 637.5Q344 653 345 673ZM213 673Q212 694 228 709Q244 724 265 724Q286 724 301.5 709Q317 694 318 673Q317 653 301.5 637.5Q286 622 265 622Q244 622 228 637.5Q212 653 213 673ZM233 246 74 560H164L279 317H281L481 560H577L311 249L268 0H190Z" glyph-name="Ydieresis.smcp" horiz-adv-x="538" unicode="&#62547;" /><glyph d="M430 788H359L257 952H361ZM87 700H175L334 380H335L606 700H700L367 313L312 0H233L287 310Z" glyph-name="Ygrave" horiz-adv-x="625" unicode="&#7922;" /><glyph d="M348 605H285L208 730H300ZM233 246 74 560H164L279 317H281L481 560H577L311 249L268 0H190Z" glyph-name="Ygrave.smcp" horiz-adv-x="538" unicode="&#62306;" /><glyph d="M110 631 122 700H626L614 630L96 69H517L505 0H-8L4 70L518 631Z" glyph-name="Z" horiz-adv-x="576" unicode="Z" /><glyph d="M9 66 405 491H89L101 560H513L502 492L104 69H428L416 0H-3Z" glyph-name="Z.smcp" horiz-adv-x="493" unicode="&#62294;" /><glyph d="M420 952H524L405 788H333ZM110 631 122 700H626L614 630L96 69H517L505 0H-8L4 70L518 631Z" glyph-name="Zacute" horiz-adv-x="576" unicode="&#377;" /><glyph d="M320 730H412L319 605H256ZM9 66 405 491H89L101 560H513L502 492L104 69H428L416 0H-3Z" glyph-name="Zacute.smcp" horiz-adv-x="493" unicode="&#62483;" /><glyph d="M272 952H348L388 844L466 952H547L431 788H332ZM110 631 122 700H626L614 630L96 69H517L505 0H-8L4 70L518 631Z" glyph-name="Zcaron" horiz-adv-x="576" unicode="&#381;" /><glyph d="M380 730H452L357 605H269L220 730H286L319 654ZM9 66 405 491H89L101 560H513L502 492L104 69H428L416 0H-3Z" glyph-name="Zcaron.smcp" horiz-adv-x="493" unicode="&#62549;" /><glyph d="M443 843Q443 820 426 803Q409 786 386 786Q363 786 345.5 803Q328 820 328 843Q328 866 345.5 883Q363 900 386 900Q409 900 426 883Q443 866 443 843ZM110 631 122 700H626L614 630L96 69H517L505 0H-8L4 70L518 631Z" glyph-name="Zdotaccent" horiz-adv-x="576" unicode="&#379;" /><glyph d="M253 673Q252 694 268 709Q284 724 305 724Q326 724 341.5 709Q357 694 358 673Q357 653 341.5 637.5Q326 622 305 622Q284 622 268 637.5Q252 653 253 673ZM9 66 405 491H89L101 560H513L502 492L104 69H428L416 0H-3Z" glyph-name="Zdotaccent.smcp" horiz-adv-x="493" unicode="&#62548;" /><glyph d="M276 391Q241 391 211.5 376.5Q182 362 160.5 336.5Q139 311 126.5 277.5Q114 244 114 206Q114 174 123.5 146.5Q133 119 151 99Q169 79 195 67.5Q221 56 254 56Q288 56 317 70Q346 84 368 108.5Q390 133 402.5 167Q415 201 415 241Q415 272 405.5 299.5Q396 327 378 347.5Q360 368 334 379.5Q308 391 276 391ZM528 448 451 0H374L386 56Q363 26 325.5 7Q288 -12 241 -12Q195 -12 157.5 4.5Q120 21 93.5 49.5Q67 78 52.5 117Q38 156 38 202Q38 258 57 305.5Q76 353 107.5 387.5Q139 422 181 441Q223 460 270 460Q294 460 319 454Q344 448 366 435Q388 422 406 403Q424 384 434 358L440 391L450 448Z" glyph-name="a" horiz-adv-x="557" unicode="a" /><glyph d="M370 700H474L355 536H283ZM276 391Q241 391 211.5 376.5Q182 362 160.5 336.5Q139 311 126.5 277.5Q114 244 114 206Q114 174 123.5 146.5Q133 119 151 99Q169 79 195 67.5Q221 56 254 56Q288 56 317 70Q346 84 368 108.5Q390 133 402.5 167Q415 201 415 241Q415 272 405.5 299.5Q396 327 378 347.5Q360 368 334 379.5Q308 391 276 391ZM528 448 451 0H374L386 56Q363 26 325.5 7Q288 -12 241 -12Q195 -12 157.5 4.5Q120 21 93.5 49.5Q67 78 52.5 117Q38 156 38 202Q38 258 57 305.5Q76 353 107.5 387.5Q139 422 181 441Q223 460 270 460Q294 460 319 454Q344 448 366 435Q388 422 406 403Q424 384 434 358L440 391L450 448Z" glyph-name="aacute" horiz-adv-x="557" unicode="&#225;" /><glyph d="M380 684H448L441 632Q433 573 398 546.5Q363 520 315 520Q291 520 270.5 527.5Q250 535 235 549.5Q220 564 213 586Q206 608 211 637L219 684H287L278 636Q274 613 284 599Q294 585 319 585Q344 585 355.5 599Q367 613 371 636ZM276 391Q241 391 211.5 376.5Q182 362 160.5 336.5Q139 311 126.5 277.5Q114 244 114 206Q114 174 123.5 146.5Q133 119 151 99Q169 79 195 67.5Q221 56 254 56Q288 56 317 70Q346 84 368 108.5Q390 133 402.5 167Q415 201 415 241Q415 272 405.5 299.5Q396 327 378 347.5Q360 368 334 379.5Q308 391 276 391ZM528 448 451 0H374L386 56Q363 26 325.5 7Q288 -12 241 -12Q195 -12 157.5 4.5Q120 21 93.5 49.5Q67 78 52.5 117Q38 156 38 202Q38 258 57 305.5Q76 353 107.5 387.5Q139 422 181 441Q223 460 270 460Q294 460 319 454Q344 448 366 435Q388 422 406 403Q424 384 434 358L440 391L450 448Z" glyph-name="abreve" horiz-adv-x="557" unicode="&#259;" /><glyph d="M296 700H394L454 536H379L339 644L261 536H180ZM276 391Q241 391 211.5 376.5Q182 362 160.5 336.5Q139 311 126.5 277.5Q114 244 114 206Q114 174 123.5 146.5Q133 119 151 99Q169 79 195 67.5Q221 56 254 56Q288 56 317 70Q346 84 368 108.5Q390 133 402.5 167Q415 201 415 241Q415 272 405.5 299.5Q396 327 378 347.5Q360 368 334 379.5Q308 391 276 391ZM528 448 451 0H374L386 56Q363 26 325.5 7Q288 -12 241 -12Q195 -12 157.5 4.5Q120 21 93.5 49.5Q67 78 52.5 117Q38 156 38 202Q38 258 57 305.5Q76 353 107.5 387.5Q139 422 181 441Q223 460 270 460Q294 460 319 454Q344 448 366 435Q388 422 406 403Q424 384 434 358L440 391L450 448Z" glyph-name="acircumflex" horiz-adv-x="557" unicode="&#226;" /><glyph d="M169 700H273L154 536H82Z" glyph-name="acute" horiz-adv-x="216" unicode="&#180;" /><glyph d="M220 730H312L219 605H156Z" glyph-name="acute.smcp" horiz-adv-x="350" unicode="&#63412;" /><glyph d="M350 584Q350 607 367.5 624.5Q385 642 408 642Q431 642 448.5 624.5Q466 607 466 584Q466 561 448.5 544Q431 527 408 527Q385 527 367.5 544Q350 561 350 584ZM186 584Q186 607 203 624.5Q220 642 243 642Q266 642 283 624.5Q300 607 300 584Q300 561 283 544Q266 527 243 527Q220 527 203 544Q186 561 186 584ZM276 391Q241 391 211.5 376.5Q182 362 160.5 336.5Q139 311 126.5 277.5Q114 244 114 206Q114 174 123.5 146.5Q133 119 151 99Q169 79 195 67.5Q221 56 254 56Q288 56 317 70Q346 84 368 108.5Q390 133 402.5 167Q415 201 415 241Q415 272 405.5 299.5Q396 327 378 347.5Q360 368 334 379.5Q308 391 276 391ZM528 448 451 0H374L386 56Q363 26 325.5 7Q288 -12 241 -12Q195 -12 157.5 4.5Q120 21 93.5 49.5Q67 78 52.5 117Q38 156 38 202Q38 258 57 305.5Q76 353 107.5 387.5Q139 422 181 441Q223 460 270 460Q294 460 319 454Q344 448 366 435Q388 422 406 403Q424 384 434 358L440 391L450 448Z" glyph-name="adieresis" horiz-adv-x="557" unicode="&#228;" /><glyph d="M562 391Q534 391 509 382.5Q484 374 464 357.5Q444 341 430.5 317.5Q417 294 411 264H690Q685 319 652 355Q619 391 562 391ZM193 54Q245 54 280.5 91.5Q316 129 323 213Q315 205 298.5 202.5Q282 200 269 200H212Q188 200 168 197Q148 194 133.5 186.5Q119 179 110.5 165Q102 151 102 130Q102 98 126.5 76Q151 54 193 54ZM768 200H403Q403 169 413.5 143Q424 117 442 98Q460 79 485 68Q510 57 541 57Q576 57 605 72.5Q634 88 654 114H749Q719 58 662.5 23Q606 -12 538 -12Q472 -12 425.5 17Q379 46 352 97Q346 76 332.5 56.5Q319 37 297.5 21.5Q276 6 246.5 -3Q217 -12 181 -12Q145 -12 115.5 -0.5Q86 11 65 30.5Q44 50 32.5 75.5Q21 101 21 129Q21 164 33.5 190Q46 216 68.5 232.5Q91 249 122.5 257Q154 265 191 265H291Q343 265 343 320Q343 355 314.5 373Q286 391 245 391Q203 391 168 377.5Q133 364 104 344L75 410Q105 431 149.5 445.5Q194 460 251 460Q302 460 340.5 441.5Q379 423 396 388Q425 423 468 441.5Q511 460 562 460Q608 460 645.5 444Q683 428 710 399.5Q737 371 752 331.5Q767 292 768 246Z" glyph-name="ae" horiz-adv-x="802" unicode="&#230;" /><glyph d="M192 360Q246 414 275.5 472.5Q305 531 305 594Q305 609 302 626Q299 643 291.5 657.5Q284 672 272 681Q260 690 243 690Q224 690 208 675Q192 660 192 620ZM331 588Q331 548 319.5 512.5Q308 477 289.5 445Q271 413 246 384.5Q221 356 194 330V99Q194 77 200 61.5Q206 46 215.5 36.5Q225 27 237.5 22.5Q250 18 263 18Q324 18 335 91H355Q351 59 337 39Q323 19 305.5 8Q288 -3 269.5 -7Q251 -11 238 -11Q211 -11 186 -3Q161 5 141.5 25Q122 45 110 79Q98 113 98 164V250Q89 242 79 235Q71 229 62 222Q53 215 46 210L29 229Q42 238 54 247Q66 256 76 264Q86 272 92 276.5Q98 281 98 281V541Q98 620 131 666.5Q164 713 229 713Q280 713 305.5 680Q331 647 331 588Z" glyph-name="afii61289" horiz-adv-x="404" unicode="&#8467;" /><glyph d="M348 536H277L175 700H279ZM276 391Q241 391 211.5 376.5Q182 362 160.5 336.5Q139 311 126.5 277.5Q114 244 114 206Q114 174 123.5 146.5Q133 119 151 99Q169 79 195 67.5Q221 56 254 56Q288 56 317 70Q346 84 368 108.5Q390 133 402.5 167Q415 201 415 241Q415 272 405.5 299.5Q396 327 378 347.5Q360 368 334 379.5Q308 391 276 391ZM528 448 451 0H374L386 56Q363 26 325.5 7Q288 -12 241 -12Q195 -12 157.5 4.5Q120 21 93.5 49.5Q67 78 52.5 117Q38 156 38 202Q38 258 57 305.5Q76 353 107.5 387.5Q139 422 181 441Q223 460 270 460Q294 460 319 454Q344 448 366 435Q388 422 406 403Q424 384 434 358L440 391L450 448Z" glyph-name="agrave" horiz-adv-x="557" unicode="&#224;" /><glyph d="M218 616H478L467 549H207ZM276 391Q241 391 211.5 376.5Q182 362 160.5 336.5Q139 311 126.5 277.5Q114 244 114 206Q114 174 123.5 146.5Q133 119 151 99Q169 79 195 67.5Q221 56 254 56Q288 56 317 70Q346 84 368 108.5Q390 133 402.5 167Q415 201 415 241Q415 272 405.5 299.5Q396 327 378 347.5Q360 368 334 379.5Q308 391 276 391ZM528 448 451 0H374L386 56Q363 26 325.5 7Q288 -12 241 -12Q195 -12 157.5 4.5Q120 21 93.5 49.5Q67 78 52.5 117Q38 156 38 202Q38 258 57 305.5Q76 353 107.5 387.5Q139 422 181 441Q223 460 270 460Q294 460 319 454Q344 448 366 435Q388 422 406 403Q424 384 434 358L440 391L450 448Z" glyph-name="amacron" horiz-adv-x="557" unicode="&#257;" /><glyph d="M231 342Q201 316 179 295Q157 274 143.5 254Q130 234 123.5 212.5Q117 191 117 166Q117 143 126 123Q135 103 150 89Q165 75 184 67Q203 59 223 59Q253 59 276 66.5Q299 74 317 86Q335 98 349.5 113.5Q364 129 378 146ZM37 164Q37 200 47.5 230.5Q58 261 78.5 288Q99 315 128 341Q157 367 194 395Q168 433 158.5 467.5Q149 502 149 531Q149 568 161.5 600.5Q174 633 197 658Q220 683 253 697.5Q286 712 328 712Q365 712 395 701Q425 690 446.5 670.5Q468 651 479.5 625Q491 599 491 570Q491 548 483 521Q475 494 456 469L390 486Q403 508 410 525.5Q417 543 417 563Q417 601 392 622.5Q367 644 329 644Q303 644 283.5 634.5Q264 625 251.5 609Q239 593 233 572Q227 551 227 529Q227 510 233.5 486.5Q240 463 255 440Q263 427 275 410Q287 393 300.5 374Q314 355 328.5 335Q343 315 357 297Q390 253 426 207Q440 226 453.5 248Q467 270 479.5 291.5Q492 313 502 333Q512 353 520 369H607Q578 313 543 255Q508 197 470 149L582 5L580 0H490L421 89Q338 -12 221 -12Q177 -12 143 2.5Q109 17 85.5 41.5Q62 66 49.5 98Q37 130 37 164Z" glyph-name="ampersand" horiz-adv-x="631" unicode="&amp;" /><glyph d="M189 58Q228 58 252 76Q276 94 299 120L193 262Q151 226 131.5 198.5Q112 171 112 136Q112 101 136 79.5Q160 58 189 58ZM185 -10Q150 -10 122 1.5Q94 13 74.5 33Q55 53 44.5 79Q34 105 34 134Q34 191 66.5 233Q99 275 157 315Q138 340 129.5 369.5Q121 399 121 422Q121 450 130.5 476.5Q140 503 159 524Q178 545 206 557.5Q234 570 271 570Q302 570 327 560.5Q352 551 369.5 535Q387 519 396.5 498Q406 477 406 454Q406 437 400 414.5Q394 392 377 372L314 386Q335 419 335 442Q335 469 317 486Q299 503 272 503Q236 503 216 479Q196 455 196 421Q196 382 230 336L343 181Q363 211 380 243.5Q397 276 407 299H492Q470 253 443.5 206.5Q417 160 388 122L480 3L479 0H388L340 63Q304 22 264 6Q224 -10 185 -10Z" glyph-name="ampersand.smcp" horiz-adv-x="518" unicode="&#58369;" /><glyph d="M276 391Q241 391 211.5 376.5Q182 362 160.5 336.5Q139 311 126.5 277.5Q114 244 114 206Q114 174 123.5 146.5Q133 119 151 99Q169 79 195 67.5Q221 56 254 56Q288 56 317 70Q346 84 368 108.5Q390 133 402.5 167Q415 201 415 241Q415 272 405.5 299.5Q396 327 378 347.5Q360 368 334 379.5Q308 391 276 391ZM528 448 451 0H434Q391 -27 359.5 -53Q328 -79 328 -105Q328 -118 339.5 -126Q351 -134 370 -134Q386 -134 402.5 -131Q419 -128 442 -120L434 -173Q417 -181 399 -186Q381 -191 349 -191Q306 -191 282 -170.5Q258 -150 258 -116Q258 -91 268 -72.5Q278 -54 294.5 -40Q311 -26 331.5 -16Q352 -6 374 1L386 56Q363 26 325.5 7Q288 -12 241 -12Q195 -12 157.5 4.5Q120 21 93.5 49.5Q67 78 52.5 117Q38 156 38 202Q38 258 57 305.5Q76 353 107.5 387.5Q139 422 181 441Q223 460 270 460Q294 460 319 454Q344 448 366 435Q388 422 406 403Q424 384 434 358L440 391L450 448Z" glyph-name="aogonek" horiz-adv-x="557" unicode="&#261;" /><glyph d="M293 652Q293 676 310 694Q327 712 353 712Q377 712 394.5 694.5Q412 677 412 654Q412 641 406.5 629Q401 617 394 609L312 507L260 516L318 604Q307 612 300 624.5Q293 637 293 652Z" glyph-name="apostrophe" horiz-adv-x="534" unicode="&#700;" /><glyph d="M460 655Q460 641 468.5 631.5Q477 622 491 622Q505 622 514 632Q523 642 523 654Q523 668 514 677.5Q505 687 491 687Q477 687 468.5 677.5Q460 668 460 655ZM604 3Q604 -11 613 -20.5Q622 -30 636 -30Q650 -30 659 -20Q668 -10 668 2Q668 16 659 25.5Q650 35 636 35Q622 35 613 25.5Q604 16 604 3ZM861 613 920 645 945 595Q951 583 945 571Q939 559 928 553Q916 548 904.5 549Q893 550 887 561ZM264 412 378 372Q386 369 392.5 372Q399 375 401 383Q404 390 401 397Q398 404 390 406L275 447L290 494Q292 502 289 508.5Q286 515 278 517Q271 519 264.5 516Q258 513 256 505L213 373Q211 366 213.5 359Q216 352 224 350Q232 348 238.5 351Q245 354 247 362ZM292 575Q284 573 280 567Q276 561 278 553Q280 545 286 541Q292 537 300 539L404 562L413 540Q411 536 408.5 531.5Q406 527 406 522Q406 511 413.5 503.5Q421 496 432 496Q443 496 449 504Q457 511 456.5 520.5Q456 530 453 538L390 697Q387 704 380.5 707Q374 710 366 707Q360 704 356.5 697.5Q353 691 356 683L390 597ZM636 506Q588 506 544 520Q564 555 587.5 588.5Q611 622 638 650Q663 624 686 591Q709 558 731 521Q687 506 636 506ZM1029 492Q1026 499 1018 502Q1011 504 1005 501L876 439Q859 431 866 415L913 310Q916 303 923 300.5Q930 298 937 301Q945 304 947.5 311Q950 318 947 324L907 414L940 429L955 396Q958 389 965 386.5Q972 384 979 387Q995 394 988 411L973 445L1004 460L1036 388Q1039 381 1046 378.5Q1053 376 1060 379Q1066 382 1069 389Q1072 396 1068 403ZM855 545Q866 523 890 515Q919 507 945 522Q971 536 980 562Q989 588 977 611L944 678Q941 686 933 687.5Q925 689 919 686L784 612Q777 608 775 601Q773 594 777 587Q781 580 788 578Q795 576 802 580L829 595ZM785 97Q785 105 780 110Q775 115 767 115H588Q613 128 643.5 146Q674 164 700 187.5Q726 211 743.5 240Q761 269 761 304Q761 327 753 349Q745 371 729.5 388.5Q714 406 691 417Q668 428 638 428Q611 428 587 419.5Q563 411 545 396Q527 381 517 359.5Q507 338 507 312Q507 295 513 278.5Q519 262 530.5 248.5Q542 235 558 227Q574 219 594 219Q607 219 621 223Q635 227 646 236Q657 245 664.5 259Q672 273 672 292Q672 318 659 327Q646 336 636 336Q622 336 612.5 326.5Q603 317 603 304Q603 287 618 277Q619 275 615 265Q611 255 592 255Q569 255 557 274.5Q545 294 545 313Q545 349 570 371Q595 393 636 393Q679 393 700 365.5Q721 338 721 305Q721 282 711.5 262.5Q702 243 686.5 225.5Q671 208 651.5 193.5Q632 179 613 166Q575 142 545 127.5Q515 113 513 110Q503 100 508 90Q514 79 525 79H766Q785 79 785 97ZM856 751Q959 751 1028 682Q1068 643 1089.5 588Q1111 533 1111 473Q1111 402 1086.5 339Q1062 276 1027 223Q965 133 862 53Q824 23 787.5 -1.5Q751 -26 720.5 -44Q690 -62 667.5 -74Q645 -86 636 -90Q627 -86 604.5 -74Q582 -62 552 -44Q522 -26 485.5 -1Q449 24 411 54Q308 135 247 226Q208 283 186 346.5Q164 410 164 474Q164 535 186 590Q208 645 248 684Q319 752 420 752Q477 752 526 729.5Q575 707 613 675Q558 619 513 540Q487 495 467 449.5Q447 404 432 361.5Q417 319 406.5 282.5Q396 246 390 221L340 231Q333 233 327 229Q321 225 319 218Q317 211 321 205.5Q325 200 333 198L468 169Q475 167 480.5 171Q486 175 488 182Q491 199 475 203L427 213Q432 234 440.5 264.5Q449 295 461.5 331Q474 367 490 407Q506 447 527 487Q579 468 636 468Q694 468 748 488Q768 449 784 409Q800 369 812 333Q824 297 832.5 265.5Q841 234 846 212L798 202Q782 198 784 182Q786 174 792 170Q798 166 805 168L940 196Q947 198 951 203.5Q955 209 953 216Q952 224 946 228Q940 232 933 230L884 220Q884 221 883.5 221.5Q883 222 883 223Q876 248 865.5 284.5Q855 321 840 363.5Q825 406 805 452Q785 498 760 543Q717 621 665 674Q707 710 755 730.5Q803 751 856 751ZM1148 474Q1148 541 1123.5 602Q1099 663 1054 708Q972 787 856 787Q790 787 735.5 762.5Q681 738 638 700Q588 743 533 765.5Q478 788 417 788Q303 788 222 710Q177 665 152 603.5Q127 542 127 473Q127 400 152 331.5Q177 263 217 205Q250 157 292 112Q334 67 388 25Q433 -11 475 -38.5Q517 -66 550 -85Q583 -104 604 -113.5Q625 -123 627 -124Q636 -128 645 -124Q647 -123 668 -113.5Q689 -104 722.5 -85Q756 -66 798.5 -39Q841 -12 886 24Q940 66 982 110.5Q1024 155 1057 203Q1099 266 1123.5 334.5Q1148 403 1148 474ZM1091 734Q1139 684 1165.5 615.5Q1192 547 1192 473Q1192 400 1169.5 332Q1147 264 1108.5 202Q1070 140 1018.5 85.5Q967 31 909 -15Q851 -61 789 -98Q727 -135 667 -162Q649 -170 636 -170Q623 -170 605 -162Q543 -134 480 -96Q417 -58 359 -11Q301 36 250.5 91Q200 146 163 207.5Q126 269 104.5 336.5Q83 404 83 475Q83 550 110 618.5Q137 687 185 737Q231 784 291.5 807Q352 830 420 830Q487 830 542.5 806Q598 782 642 744Q690 787 744.5 807.5Q799 828 859 828Q926 828 986 804.5Q1046 781 1091 734Z" glyph-name="apple" horiz-adv-x="1200" unicode="&#63743;" /><glyph d="M23 209 24 214Q26 226 31 245.5Q36 265 48 284.5Q60 304 81.5 318Q103 332 138 332Q157 332 192 324Q227 316 263 306.5Q299 297 329 289Q359 281 370 281Q387 281 394 294Q401 307 406 330H478L477 325Q475 313 469.5 293.5Q464 274 452 254.5Q440 235 418.5 221Q397 207 362 207Q343 207 308 215Q273 223 237 232Q201 241 170.5 249Q140 257 130 257Q113 257 106 244.5Q99 232 94 209ZM53 383 54 388Q56 400 61.5 419.5Q67 439 79 458.5Q91 478 112.5 492Q134 506 169 506Q188 506 223 498Q258 490 294 480.5Q330 471 360 463Q390 455 401 455Q418 455 425 468Q432 481 437 504H509L508 499Q506 487 500.5 467.5Q495 448 483 428.5Q471 409 449.5 395Q428 381 393 381Q374 381 339 389Q304 397 268 406Q232 415 201.5 423Q171 431 161 431Q144 431 137 418.5Q130 406 125 383Z" glyph-name="approxequal" horiz-adv-x="480" unicode="&#8776;" /><glyph d="M325 304Q310 304 283.5 310Q257 316 229.5 323Q202 330 179 336Q156 342 149 342Q136 342 130.5 333Q125 324 121 306H53L56 319Q57 326 61.5 342Q66 358 76 374.5Q86 391 104 403Q122 415 151 415Q166 415 192.5 409Q219 403 246.5 395.5Q274 388 297 382Q320 376 328 376Q340 376 345.5 385Q351 394 354 414H423L420 400Q418 392 414.5 376Q411 360 401 344Q391 328 373 316Q355 304 325 304ZM295 155Q280 155 253.5 161Q227 167 199.5 174Q172 181 149 187Q126 193 119 193Q106 193 100.5 184Q95 175 91 157H23L26 170Q27 178 31.5 194Q36 210 46 226Q56 242 74 254Q92 266 121 266Q136 266 162.5 260Q189 254 216.5 246.5Q244 239 266.5 233Q289 227 297 227Q310 227 315 236Q320 245 324 265H393L390 251Q388 243 384.5 227Q381 211 371 195Q361 179 343 167Q325 155 295 155Z" glyph-name="approxequal.smcp" horiz-adv-x="424" unicode="&#62005;" /><glyph d="M317 556Q338 556 352 570Q366 584 366 607Q366 630 352 644Q338 658 317 658Q296 658 282 644Q268 630 268 607Q268 584 282 570Q296 556 317 556ZM317 712Q338 712 357.5 704Q377 696 392 682Q407 668 415.5 648.5Q424 629 424 607Q424 584 415.5 565Q407 546 392 532Q377 518 357.5 510Q338 502 317 502Q296 502 276.5 510Q257 518 242 532Q227 546 218.5 565Q210 584 210 607Q210 629 218.5 648.5Q227 668 242 682Q257 696 276.5 704Q296 712 317 712ZM276 391Q241 391 211.5 376.5Q182 362 160.5 336.5Q139 311 126.5 277.5Q114 244 114 206Q114 174 123.5 146.5Q133 119 151 99Q169 79 195 67.5Q221 56 254 56Q288 56 317 70Q346 84 368 108.5Q390 133 402.5 167Q415 201 415 241Q415 272 405.5 299.5Q396 327 378 347.5Q360 368 334 379.5Q308 391 276 391ZM528 448 451 0H374L386 56Q363 26 325.5 7Q288 -12 241 -12Q195 -12 157.5 4.5Q120 21 93.5 49.5Q67 78 52.5 117Q38 156 38 202Q38 258 57 305.5Q76 353 107.5 387.5Q139 422 181 441Q223 460 270 460Q294 460 319 454Q344 448 366 435Q388 422 406 403Q424 384 434 358L440 391L450 448Z" glyph-name="aring" horiz-adv-x="557" unicode="&#229;" /><glyph d="M328 632 329 253 494 421 540 374 295 126 50 374 95 422 262 253V632Z" glyph-name="arrow.down" horiz-adv-x="590" unicode="&#62245;" /><glyph d="M262 126V505L95 336L50 384L295 632L540 384L494 337L329 505L328 126Z" glyph-name="arrow.up" horiz-adv-x="590" unicode="&#62244;" /><glyph d="M485 512 218 243 453 245V179L104 177L106 526L172 528L171 290L439 558Z" glyph-name="arrowdown.left" horiz-adv-x="590" unicode="&#62248;" /><glyph d="M150 558 418 290 417 528 483 526 485 177 136 179V245L371 243L104 512Z" glyph-name="arrowdown.right" horiz-adv-x="590" unicode="&#62249;" /><glyph d="M439 177 171 445 172 207 106 209 104 558 453 556V490L218 492L485 223Z" glyph-name="arrowup.left" horiz-adv-x="590" unicode="&#62246;" /><glyph d="M104 223 371 492 136 490V556L485 558L483 209L417 207L418 445L150 177Z" glyph-name="arrowup.right" horiz-adv-x="590" unicode="&#62247;" /><glyph d="M271 700H375L442 225H362L313 627L116 225H34Z" glyph-name="asciicircum" horiz-adv-x="472" unicode="^" /><glyph d="M38 297 39 302Q41 314 46 333.5Q51 353 63.5 372.5Q76 392 97.5 406Q119 420 154 420Q173 420 208 412Q243 404 279 394.5Q315 385 345 377Q375 369 386 369Q403 369 409.5 382Q416 395 421 418H493L492 413Q490 401 485 381.5Q480 362 467.5 342.5Q455 323 433.5 309Q412 295 377 295Q358 295 323 303Q288 311 252 320Q216 329 185.5 337Q155 345 145 345Q128 345 121.5 332.5Q115 320 110 297Z" glyph-name="asciitilde" horiz-adv-x="480" unicode="~" /><glyph d="M181 629Q190 622 203 608Q216 594 230 577.5Q244 561 256 545.5Q268 530 276 521L262 502Q251 506 233 513.5Q215 521 195 529.5Q175 538 157 546.5Q139 555 130 563Q117 573 114.5 590Q112 607 122 621Q133 635 150 637.5Q167 640 181 629ZM452 581Q469 586 484 578.5Q499 571 504 554Q509 537 501 522Q493 507 477 502Q466 499 446 496.5Q426 494 405 492.5Q384 491 364 490.5Q344 490 333 490L325 512Q335 518 352.5 528.5Q370 539 388.5 549.5Q407 560 424 569Q441 578 452 581ZM292 528Q291 539 289 559.5Q287 580 286 602Q285 624 284.5 644Q284 664 286 676Q289 692 303.5 702Q318 712 336 708Q352 706 362 692Q372 678 369 661Q367 649 359.5 630.5Q352 612 343.5 591.5Q335 571 326.5 553Q318 535 313 525ZM140 398Q123 393 108 400.5Q93 408 88 425Q83 442 91.5 457Q100 472 115 477Q126 481 146 483Q166 485 187.5 486.5Q209 488 228.5 488.5Q248 489 259 489L267 467Q256 461 239 450.5Q222 440 203.5 429.5Q185 419 168 410Q151 401 140 398ZM411 350Q402 357 389 371Q376 385 362.5 401.5Q349 418 336 433.5Q323 449 316 458L330 477Q341 473 359.5 465.5Q378 458 397.5 449.5Q417 441 435 432Q453 423 462 416Q475 405 477.5 388.5Q480 372 470 358Q459 344 442 341.5Q425 339 411 350ZM300 451Q301 440 303 419.5Q305 399 306 377Q307 355 307.5 335Q308 315 306 303Q303 287 289 277Q275 267 258 270Q241 273 230.5 287Q220 301 223 318Q225 330 232.5 348.5Q240 367 248.5 387.5Q257 408 265.5 426Q274 444 279 454Z" glyph-name="asterisk" horiz-adv-x="503" unicode="*" /><glyph d="M460 391Q425 391 395.5 376.5Q366 362 344.5 336.5Q323 311 310.5 277.5Q298 244 298 206Q298 174 307.5 146.5Q317 119 335 99Q353 79 379 67.5Q405 56 438 56Q472 56 501 70Q530 84 552 108.5Q574 133 586.5 167Q599 201 599 241Q599 272 589.5 299.5Q580 327 562 347.5Q544 368 518 379.5Q492 391 460 391ZM681 -12Q656 -12 638.5 -5.5Q621 1 609 12Q597 23 590.5 36Q584 49 581 63Q556 31 514.5 9.5Q473 -12 425 -12Q379 -12 341.5 4.5Q304 21 277.5 49.5Q251 78 236.5 117Q222 156 222 202Q222 258 241 305.5Q260 353 291.5 387.5Q323 422 365 441Q407 460 454 460Q478 460 503 454Q528 448 550 435Q572 422 590 403Q608 384 618 358L634 448H712L658 133Q651 93 656 71.5Q661 50 686 50Q714 50 738.5 68Q763 86 780 118Q797 150 807 194.5Q817 239 817 292Q817 355 792.5 409Q768 463 724.5 502.5Q681 542 622.5 564.5Q564 587 496 587Q424 587 356 559Q288 531 235.5 478.5Q183 426 151 351.5Q119 277 119 184Q119 111 143.5 51Q168 -9 212.5 -52.5Q257 -96 318 -120Q379 -144 452 -144Q497 -144 546.5 -131.5Q596 -119 630 -93L735 -107Q677 -154 603 -180.5Q529 -207 450 -207Q358 -207 283.5 -177Q209 -147 156 -94.5Q103 -42 74.5 29Q46 100 46 181Q46 284 80.5 370Q115 456 175.5 518.5Q236 581 319 615.5Q402 650 499 650Q575 650 645 623.5Q715 597 768 549.5Q821 502 853 436Q885 370 885 291Q885 216 867.5 159Q850 102 821.5 64Q793 26 756.5 7Q720 -12 681 -12Z" glyph-name="at" horiz-adv-x="918" unicode="@" /><glyph d="M479 522Q444 522 414.5 507.5Q385 493 363.5 467.5Q342 442 329.5 408.5Q317 375 317 337Q317 305 326.5 277.5Q336 250 354 230Q372 210 398 198.5Q424 187 457 187Q491 187 520 201Q549 215 571 239.5Q593 264 605.5 298Q618 332 618 372Q618 403 608.5 430.5Q599 458 581 478.5Q563 499 537 510.5Q511 522 479 522ZM700 119Q675 119 657.5 125.5Q640 132 628 143Q616 154 609.5 167Q603 180 600 194Q575 162 533.5 140.5Q492 119 444 119Q398 119 360.5 135.5Q323 152 296.5 180.5Q270 209 255.5 248Q241 287 241 333Q241 389 260 436.5Q279 484 310.5 518.5Q342 553 384 572Q426 591 473 591Q497 591 522 585Q547 579 569 566Q591 553 609 534Q627 515 637 489L653 579H731L677 264Q670 224 675 202.5Q680 181 705 181Q733 181 757.5 199Q782 217 799 249Q816 281 826 325.5Q836 370 836 423Q836 486 811.5 540Q787 594 743.5 633.5Q700 673 641.5 695.5Q583 718 515 718Q443 718 375 690Q307 662 254.5 609.5Q202 557 170 482.5Q138 408 138 315Q138 242 162.5 182Q187 122 231.5 78.5Q276 35 337 11Q398 -13 471 -13Q516 -13 565.5 -0.5Q615 12 649 38L754 24Q696 -23 622 -49.5Q548 -76 469 -76Q377 -76 302.5 -46Q228 -16 175 36.5Q122 89 93.5 160Q65 231 65 312Q65 415 99.5 501Q134 587 194.5 649.5Q255 712 338 746.5Q421 781 518 781Q594 781 664 754.5Q734 728 787 680.5Q840 633 872 567Q904 501 904 422Q904 347 886.5 290Q869 233 840.5 195Q812 157 775.5 138Q739 119 700 119Z" glyph-name="at.alt" horiz-adv-x="905" unicode="&#62208;" /><glyph d="M161 539Q162 548 165 567Q168 586 177 606Q186 626 205 641Q224 656 259 656Q275 656 292 649Q309 642 325 633Q341 624 355.5 617Q370 610 381 610Q394 610 399.5 620Q405 630 408 644L410 654H477Q475 645 473.5 626Q472 607 463.5 587Q455 567 436.5 552Q418 537 384 537Q369 537 352 544Q335 551 318.5 560Q302 569 287.5 576Q273 583 263 583Q249 583 241 573Q233 563 230 549L228 539ZM276 391Q241 391 211.5 376.5Q182 362 160.5 336.5Q139 311 126.5 277.5Q114 244 114 206Q114 174 123.5 146.5Q133 119 151 99Q169 79 195 67.5Q221 56 254 56Q288 56 317 70Q346 84 368 108.5Q390 133 402.5 167Q415 201 415 241Q415 272 405.5 299.5Q396 327 378 347.5Q360 368 334 379.5Q308 391 276 391ZM528 448 451 0H374L386 56Q363 26 325.5 7Q288 -12 241 -12Q195 -12 157.5 4.5Q120 21 93.5 49.5Q67 78 52.5 117Q38 156 38 202Q38 258 57 305.5Q76 353 107.5 387.5Q139 422 181 441Q223 460 270 460Q294 460 319 454Q344 448 366 435Q388 422 406 403Q424 384 434 358L440 391L450 448Z" glyph-name="atilde" horiz-adv-x="557" unicode="&#227;" /><glyph d="M281 57Q315 57 345 71.5Q375 86 396.5 111.5Q418 137 430.5 170.5Q443 204 443 242Q443 274 433.5 301.5Q424 329 406 349Q388 369 362 380.5Q336 392 303 392Q269 392 239.5 378Q210 364 188.5 339Q167 314 154.5 280.5Q142 247 142 207Q142 175 151.5 148Q161 121 179 100.5Q197 80 223 68.5Q249 57 281 57ZM29 0 151 700H228L186 457L175 392Q195 421 232 440.5Q269 460 316 460Q362 460 399.5 443.5Q437 427 463.5 398.5Q490 370 504.5 331Q519 292 519 246Q519 190 500 142.5Q481 95 449.5 60.5Q418 26 375.5 7Q333 -12 287 -12Q263 -12 238 -6Q213 0 191 13Q169 26 151 45Q133 64 123 90L106 0Z" glyph-name="b" horiz-adv-x="556" unicode="b" /><glyph d="M297 0H228L118 700H185Z" glyph-name="backslash" horiz-adv-x="371" unicode="\" /><glyph d="M99 560H166L256 0H188Z" glyph-name="backslash.smcp" horiz-adv-x="335" unicode="&#58472;" /><glyph d="M175 760H247L99 -93H27Z" glyph-name="bar" horiz-adv-x="234" unicode="|" /><glyph d="M148 608H214L95 -74H29Z" glyph-name="bar.smcp" horiz-adv-x="227" unicode="&#58473;" /><glyph d="M54 332H131L195 700H413L400 630H262L218 375Q214 351 200.5 328.5Q187 306 157 297Q183 286 190 267Q197 248 193 225L140 -83H278L265 -153H47L120 268H43Z" glyph-name="braceleft" horiz-adv-x="367" unicode="{" /><glyph d="M65 407H142L206 775H424L411 705H273L229 450Q225 426 211.5 403.5Q198 381 168 372Q194 361 201 342Q208 323 204 300L151 -8H289L276 -78H58L131 343H54Z" glyph-name="braceleft.cap" horiz-adv-x="367" unicode="&#58517;" /><glyph d="M42 -67Q47 -36 54.5 7.5Q62 51 70.5 97Q79 143 86.5 186.5Q94 230 99 261H39L49 325H110L160 615H343L331 547H225L196 376Q194 366 191.5 354Q189 342 183 330Q177 318 167 308Q157 298 141 293Q159 286 166.5 268Q174 250 171 230L131 0H237L225 -67Z" glyph-name="braceleft.smcp" horiz-adv-x="308" unicode="&#58525;" /><glyph d="M341 268H264L190 -153H-27L-14 -83H123L176 225Q180 249 193 270Q206 291 236 300Q210 311 203.5 331.5Q197 352 201 375L245 630H107L120 700H338L275 332H352Z" glyph-name="braceright" horiz-adv-x="367" unicode="}" /><glyph d="M356 343H279L205 -78H-12L1 -8H138L191 300Q195 324 208 345Q221 366 251 375Q225 386 218.5 406.5Q212 427 216 450L260 705H122L135 775H353L290 407H367Z" glyph-name="braceright.cap" horiz-adv-x="366" unicode="&#58518;" /><glyph d="M-4 0H100Q103 19 108 47Q113 75 118 105Q123 135 128.5 163Q134 191 137 210Q141 236 150.5 258Q160 280 191 293Q169 301 164 320.5Q159 340 162 360L194 547H89L101 615H284L234 325H294L283 261H223L166 -67H-16Z" glyph-name="braceright.smcp" horiz-adv-x="308" unicode="&#58526;" /><glyph d="M230 630 107 -84H246L234 -153H16L164 700H382L370 630Z" glyph-name="bracketleft" horiz-adv-x="336" unicode="[" /><glyph d="M247 705 124 -9H263L251 -78H33L181 775H399L387 705Z" glyph-name="bracketleft.cap" horiz-adv-x="342" unicode="&#58515;" /><glyph d="M149 615H334L323 547H214L119 -1H228L216 -67H31Z" glyph-name="bracketleft.smcp" horiz-adv-x="298" unicode="&#58523;" /><glyph d="M-15 -84H124L247 630H108L121 700H339L191 -153H-26Z" glyph-name="bracketright" horiz-adv-x="336" unicode="]" /><glyph d="M0 -9H139L262 705H123L136 775H354L206 -78H-11Z" glyph-name="bracketright.cap" horiz-adv-x="342" unicode="&#58516;" /><glyph d="M-6 -1H102L197 547H88L100 615H286L167 -67H-17Z" glyph-name="bracketright.smcp" horiz-adv-x="298" unicode="&#58524;" /><glyph d="M202 684H270L263 632Q255 573 220 546.5Q185 520 137 520Q113 520 92.5 527.5Q72 535 57 549.5Q42 564 35 586Q28 608 33 637L41 684H109L100 636Q96 613 106 599Q116 585 141 585Q166 585 177.5 599Q189 613 193 636Z" glyph-name="breve" horiz-adv-x="284" unicode="&#728;" /><glyph d="M233 672Q276 672 286 721L288 731H348L345 714Q337 664 304 639.5Q271 615 227 615Q205 615 186 623Q167 631 154.5 645.5Q142 660 137 679Q132 698 138 720L141 731H198Q194 722 194 711Q194 693 204 682.5Q214 672 233 672Z" glyph-name="breve.smcp" horiz-adv-x="350" unicode="&#63220;" /><glyph d="M26 -93 88 261H161L99 -93ZM112 406 174 760H247L185 406Z" glyph-name="brokenbar" horiz-adv-x="234" unicode="&#166;" /><glyph d="M148 608H214L165 320H97ZM79 213H146L96 -74H30Z" glyph-name="brokenbar.smcp" horiz-adv-x="228" unicode="&#58475;" /><glyph d="M100 359Q100 381 108.5 401Q117 421 132 436Q147 451 166.5 459.5Q186 468 209 468Q231 468 251 459.5Q271 451 286 436Q301 421 309.5 401Q318 381 318 359Q318 336 309.5 316.5Q301 297 286 282Q271 267 251 258.5Q231 250 209 250Q186 250 166.5 258.5Q147 267 132 282Q117 297 108.5 316.5Q100 336 100 359Z" glyph-name="bullet" horiz-adv-x="372" unicode="&#8226;" /><glyph d="M445 90Q413 44 365 16Q317 -12 252 -12Q205 -12 165.5 4.5Q126 21 97.5 50.5Q69 80 53.5 120.5Q38 161 38 209Q38 260 55.5 305.5Q73 351 104.5 385.5Q136 420 179 440Q222 460 273 460Q334 460 381 435.5Q428 411 457 362L392 321Q373 353 344 372Q315 391 277 391Q242 391 213 376.5Q184 362 162 336.5Q140 311 128 277Q116 243 116 203Q116 172 126 145Q136 118 154 98.5Q172 79 197.5 68Q223 57 254 57Q296 57 329 80Q362 103 382 131Z" glyph-name="c" horiz-adv-x="483" unicode="c" /><glyph d="M336 700H440L321 536H249ZM445 90Q413 44 365 16Q317 -12 252 -12Q205 -12 165.5 4.5Q126 21 97.5 50.5Q69 80 53.5 120.5Q38 161 38 209Q38 260 55.5 305.5Q73 351 104.5 385.5Q136 420 179 440Q222 460 273 460Q334 460 381 435.5Q428 411 457 362L392 321Q373 353 344 372Q315 391 277 391Q242 391 213 376.5Q184 362 162 336.5Q140 311 128 277Q116 243 116 203Q116 172 126 145Q136 118 154 98.5Q172 79 197.5 68Q223 57 254 57Q296 57 329 80Q362 103 382 131Z" glyph-name="cacute" horiz-adv-x="483" unicode="&#263;" /><glyph d="M108 700H184L224 592L302 700H383L267 536H168Z" glyph-name="caron" horiz-adv-x="336" unicode="&#711;" /><glyph d="M290 730H362L267 605H179L130 730H196L229 654Z" glyph-name="caron.smcp" horiz-adv-x="350" unicode="&#63221;" /><glyph d="M191 700H267L307 592L385 700H466L350 536H251ZM445 90Q413 44 365 16Q317 -12 252 -12Q205 -12 165.5 4.5Q126 21 97.5 50.5Q69 80 53.5 120.5Q38 161 38 209Q38 260 55.5 305.5Q73 351 104.5 385.5Q136 420 179 440Q222 460 273 460Q334 460 381 435.5Q428 411 457 362L392 321Q373 353 344 372Q315 391 277 391Q242 391 213 376.5Q184 362 162 336.5Q140 311 128 277Q116 243 116 203Q116 172 126 145Q136 118 154 98.5Q172 79 197.5 68Q223 57 254 57Q296 57 329 80Q362 103 382 131Z" glyph-name="ccaron" horiz-adv-x="483" unicode="&#269;" /><glyph d="M189 -3Q120 17 79.5 73.5Q39 130 39 209Q39 260 56.5 305.5Q74 351 105.5 385.5Q137 420 180 440Q223 460 274 460Q335 460 382 435.5Q429 411 458 362L393 321Q374 353 345 372Q316 391 278 391Q243 391 214 376.5Q185 362 163 336.5Q141 311 129 277Q117 243 117 203Q117 172 127 145Q137 118 155 98.5Q173 79 198.5 68Q224 57 255 57Q297 57 330 80Q363 103 383 131L446 90Q417 48 375 21Q333 -6 278 -11L196 -136H115Z" glyph-name="ccedilla" horiz-adv-x="485" unicode="&#231;" /><glyph d="M283 700H381L441 536H366L326 644L248 536H167ZM445 90Q413 44 365 16Q317 -12 252 -12Q205 -12 165.5 4.5Q126 21 97.5 50.5Q69 80 53.5 120.5Q38 161 38 209Q38 260 55.5 305.5Q73 351 104.5 385.5Q136 420 179 440Q222 460 273 460Q334 460 381 435.5Q428 411 457 362L392 321Q373 353 344 372Q315 391 277 391Q242 391 213 376.5Q184 362 162 336.5Q140 311 128 277Q116 243 116 203Q116 172 126 145Q136 118 154 98.5Q172 79 197.5 68Q223 57 254 57Q296 57 329 80Q362 103 382 131Z" glyph-name="ccircumflex" horiz-adv-x="483" unicode="&#265;" /><glyph d="M366 591Q366 568 349 551Q332 534 309 534Q286 534 268.5 551Q251 568 251 591Q251 614 268.5 631Q286 648 309 648Q332 648 349 631Q366 614 366 591ZM445 90Q413 44 365 16Q317 -12 252 -12Q205 -12 165.5 4.5Q126 21 97.5 50.5Q69 80 53.5 120.5Q38 161 38 209Q38 260 55.5 305.5Q73 351 104.5 385.5Q136 420 179 440Q222 460 273 460Q334 460 381 435.5Q428 411 457 362L392 321Q373 353 344 372Q315 391 277 391Q242 391 213 376.5Q184 362 162 336.5Q140 311 128 277Q116 243 116 203Q116 172 126 145Q136 118 154 98.5Q172 79 197.5 68Q223 57 254 57Q296 57 329 80Q362 103 382 131Z" glyph-name="cdotaccent" horiz-adv-x="483" unicode="&#267;" /><glyph d="M32 0H126L37 -136H-44Z" glyph-name="cedilla" horiz-adv-x="216" unicode="&#184;" /><glyph d="M104 4H186L106 -129H43Z" glyph-name="cedilla.smcp" horiz-adv-x="350" unicode="&#63416;" /><glyph d="M144 337Q144 295 161.5 261.5Q179 228 210 210L304 525Q269 525 240 510Q211 495 189.5 470Q168 445 156 410.5Q144 376 144 337ZM473 224Q441 178 393 150Q345 122 280 122Q272 122 264.5 122Q257 122 249 124L212 0H148L189 140Q132 165 99 218.5Q66 272 66 343Q66 394 83.5 439.5Q101 485 132.5 519.5Q164 554 207 574Q250 594 301 594Q307 594 312.5 593.5Q318 593 324 593L356 700H420L384 580Q450 555 485 496L420 455Q409 473 395 487.5Q381 502 364 511L269 191H282Q324 191 357 214Q390 237 410 265Z" glyph-name="cent" horiz-adv-x="508" unicode="&#162;" /><glyph d="M130 268Q130 241 139.5 218.5Q149 196 167 182L236 406Q213 403 193.5 391.5Q174 380 160 362Q146 344 138 320Q130 296 130 268ZM228 95Q221 95 215 95Q209 95 203 96L173 0H111L146 113Q104 135 79.5 176Q55 217 55 271Q55 312 69 349Q83 386 108.5 413.5Q134 441 169 457.5Q204 474 246 474H257L284 560H346L315 462Q373 441 400 385L334 352Q327 366 317.5 377Q308 388 295 395L223 161H231Q262 161 286.5 176.5Q311 192 325 217L389 182Q378 165 363 149.5Q348 134 328.5 122Q309 110 284 102.5Q259 95 228 95Z" glyph-name="cent.smcp" horiz-adv-x="428" unicode="&#63109;" /><glyph d="M132 700H230L290 536H215L175 644L97 536H16Z" glyph-name="circumflex" horiz-adv-x="336" unicode="&#710;" /><glyph d="M241 681 180 605H107L202 730H290L339 605H274Z" glyph-name="circumflex.smcp" horiz-adv-x="350" unicode="&#63222;" /><glyph d="M157 318Q131 318 111 337Q91 356 91 383Q91 410 111 429Q131 448 157 448Q183 448 203 429Q223 410 223 383Q223 356 203 337Q183 318 157 318ZM97 -12Q71 -12 51 7Q31 26 31 53Q31 80 51 99Q71 118 97 118Q123 118 143 99Q163 80 163 53Q163 26 143 7Q123 -12 97 -12Z" glyph-name="colon" horiz-adv-x="257" unicode=":" /><glyph d="M33 52Q33 78 51.5 98Q70 118 99 118Q126 118 145 99Q164 80 164 54Q164 40 158 26.5Q152 13 145 4L54 -108L-4 -98L61 -1Q48 7 40.5 21Q33 35 33 52Z" glyph-name="comma" horiz-adv-x="251" unicode="," /><glyph d="M-1 -107Q-1 -83 16 -65Q33 -47 59 -47Q83 -47 100.5 -64.5Q118 -82 118 -105Q118 -118 112.5 -130Q107 -142 100 -150L18 -252L-34 -243L24 -155Q13 -147 6 -134.5Q-1 -122 -1 -107Z" glyph-name="commaaccent" horiz-adv-x="228" unicode="&#58388;" /><glyph d="M57 -93Q57 -72 72 -56Q87 -40 110 -40Q132 -40 147 -55.5Q162 -71 162 -92Q162 -103 157 -113.5Q152 -124 147 -132L74 -222L27 -214L79 -136Q69 -129 63 -118Q57 -107 57 -93Z" glyph-name="commaaccent.smcp" horiz-adv-x="350" unicode="&#63080;" /><glyph d="M437 41Q504 41 559.5 64Q615 87 655 128.5Q695 170 717 226.5Q739 283 739 350Q739 417 717 473.5Q695 530 655 571.5Q615 613 559.5 636Q504 659 437 659Q370 659 314 636Q258 613 218 571.5Q178 530 156 473.5Q134 417 134 350Q134 283 156 226.5Q178 170 218 128.5Q258 87 314 64Q370 41 437 41ZM437 712Q512 712 578.5 685Q645 658 694.5 610Q744 562 772.5 495.5Q801 429 801 350Q801 271 772.5 204.5Q744 138 694.5 90Q645 42 578.5 15Q512 -12 437 -12Q362 -12 295.5 15Q229 42 179.5 90Q130 138 101.5 204.5Q73 271 73 350Q73 429 101.5 495.5Q130 562 179.5 610Q229 658 295.5 685Q362 712 437 712ZM437 564Q506 564 556 526Q606 488 625 423H562Q548 464 516.5 487.5Q485 511 437 511Q404 511 376 499Q348 487 328.5 465.5Q309 444 298 415Q287 386 287 353Q287 320 298 291Q309 262 328.5 241Q348 220 376 208Q404 196 437 196Q485 196 516.5 219.5Q548 243 562 283H625Q606 218 556 180.5Q506 143 437 143Q393 143 354.5 158.5Q316 174 287.5 202Q259 230 242.5 268.5Q226 307 226 353Q226 399 242 438Q258 477 286.5 505Q315 533 353.5 548.5Q392 564 437 564Z" glyph-name="copyright" horiz-adv-x="828" unicode="&#169;" /><glyph d="M446 90Q414 44 366 16Q318 -12 253 -12Q206 -12 166.5 4.5Q127 21 98.5 50.5Q70 80 54.5 120.5Q39 161 39 209Q39 257 55 300.5Q71 344 99.5 378Q128 412 167.5 433.5Q207 455 254 459Q238 490 238 524Q238 540 245 564.5Q252 589 272 611.5Q292 634 327.5 650Q363 666 420 666H730L691 448H799L787 383H680L632 104Q630 91 632 83.5Q634 76 640 72Q646 68 654 66.5Q662 65 672 65H717Q727 65 734 66L722 0Q710 -1 698 -2Q687 -3 673.5 -3.5Q660 -4 646 -4Q628 -4 609.5 -1Q591 2 576.5 11.5Q562 21 554.5 39.5Q547 58 552 90L602 383H528L540 448H614L641 601H423Q365 601 333.5 575.5Q302 550 302 506Q302 478 317 456Q363 448 399 425Q435 402 458 362L393 321Q374 353 345 372Q316 391 278 391Q243 391 214 376.5Q185 362 163 336.5Q141 311 129 277Q117 243 117 203Q117 172 127 145Q137 118 155 98.5Q173 79 198.5 68Q224 57 255 57Q297 57 330 80Q363 103 383 131Z" glyph-name="ct" horiz-adv-x="785" unicode="&#62211;" /><glyph d="M356 135Q401 131 441.5 144.5Q482 158 513.5 185Q545 212 566.5 249.5Q588 287 596 331Q604 376 596 416.5Q588 457 566 488.5Q544 520 510 540Q476 560 431 564Q386 568 345.5 554.5Q305 541 273.5 514Q242 487 220 449.5Q198 412 191 367Q183 323 191 282.5Q199 242 221 210.5Q243 179 277 159Q311 139 356 135ZM444 641Q531 634 606 569L709 648L755 585L650 506Q674 463 680.5 415Q687 367 679 324Q671 281 648.5 235.5Q626 190 588 153L664 58L596 5L525 100Q479 76 432 64.5Q385 53 342 57Q299 61 258 79.5Q217 98 180 130L78 51L31 114L137 193Q113 235 106.5 283Q100 331 108 374Q116 417 138.5 462.5Q161 508 199 546L124 641L191 694L263 599Q309 623 355 634Q401 645 444 641Z" glyph-name="currency" horiz-adv-x="743" unicode="&#164;" /><glyph d="M277 391Q242 391 212.5 376.5Q183 362 161 336.5Q139 311 127 277.5Q115 244 115 206Q115 174 124.5 146.5Q134 119 152 99Q170 79 196 67.5Q222 56 254 56Q288 56 317.5 70Q347 84 369 108.5Q391 133 403.5 167Q416 201 416 241Q416 272 406.5 299.5Q397 327 379 347.5Q361 368 335 379.5Q309 391 277 391ZM375 0 385 56Q363 26 325.5 7Q288 -12 241 -12Q196 -12 158.5 4.5Q121 21 94 49.5Q67 78 52.5 117Q38 156 38 202Q38 258 57 305.5Q76 353 108 387.5Q140 422 182 441Q224 460 271 460Q295 460 320 454Q345 448 367.5 435Q390 422 407.5 403Q425 384 435 358L465 531L494 700H572L451 0Z" glyph-name="d" horiz-adv-x="557" unicode="d" /><glyph d="M57 418 69 486H250L288 700H360L322 486H503L491 418H310L237 0H165L238 418Z" glyph-name="dagger" horiz-adv-x="480" unicode="&#8224;" /><glyph d="M69 486H250L288 700H360L322 486H503L491 418H310L289 296H470L458 228H277L237 0H165L205 228H24L36 296H217L238 418H57Z" glyph-name="daggerdbl" horiz-adv-x="480" unicode="&#8225;" /><glyph d="M627 652Q627 676 644 694Q661 712 687 712Q711 712 728.5 694.5Q746 677 746 654Q746 641 740.5 629Q735 617 728 609L646 507L594 516L652 604Q641 612 634 624.5Q627 637 627 652ZM277 391Q242 391 212.5 376.5Q183 362 161 336.5Q139 311 127 277.5Q115 244 115 206Q115 174 124.5 146.5Q134 119 152 99Q170 79 196 67.5Q222 56 254 56Q288 56 317.5 70Q347 84 369 108.5Q391 133 403.5 167Q416 201 416 241Q416 272 406.5 299.5Q397 327 379 347.5Q361 368 335 379.5Q309 391 277 391ZM375 0 385 56Q363 26 325.5 7Q288 -12 241 -12Q196 -12 158.5 4.5Q121 21 94 49.5Q67 78 52.5 117Q38 156 38 202Q38 258 57 305.5Q76 353 108 387.5Q140 422 182 441Q224 460 271 460Q295 460 320 454Q345 448 367.5 435Q390 422 407.5 403Q425 384 435 358L465 531L494 700H572L451 0Z" glyph-name="dcaron" horiz-adv-x="557" unicode="&#271;" /><glyph d="M277 391Q242 391 212.5 376.5Q183 362 161 336.5Q139 311 127 277.5Q115 244 115 206Q115 174 124.5 146.5Q134 119 152 99Q170 79 196 67.5Q222 56 254 56Q288 56 317.5 70Q347 84 369 108.5Q391 133 403.5 167Q416 201 416 241Q416 272 406.5 299.5Q397 327 379 347.5Q361 368 335 379.5Q309 391 277 391ZM362 609H478L494 700H572L556 609H639L628 544H545L451 0H375L385 56Q363 26 325.5 7Q288 -12 241 -12Q196 -12 158.5 4.5Q121 21 94 49.5Q67 78 52.5 117Q38 156 38 202Q38 258 57 305.5Q76 353 108 387.5Q140 422 182 441Q224 460 271 460Q295 460 320 454Q345 448 367.5 435Q390 422 407.5 403Q425 384 435 358L465 531L467 544H351Z" glyph-name="dcroat" horiz-adv-x="557" unicode="&#273;" /><glyph d="M174 554Q174 535 180.5 518Q187 501 198.5 488.5Q210 476 225.5 468.5Q241 461 259 461Q277 461 292.5 468.5Q308 476 320 488.5Q332 501 339 518Q346 535 346 554Q346 573 339 590Q332 607 320 619.5Q308 632 292.5 639.5Q277 647 259 647Q241 647 225.5 639.5Q210 632 198.5 619.5Q187 607 180.5 590Q174 573 174 554ZM105 554Q105 587 117 615.5Q129 644 150 665.5Q171 687 199 699.5Q227 712 259 712Q291 712 319 699.5Q347 687 368.5 665.5Q390 644 402.5 615.5Q415 587 415 554Q415 521 402.5 492.5Q390 464 368.5 442.5Q347 421 319 408.5Q291 396 259 396Q227 396 199 408.5Q171 421 150 442.5Q129 464 117 492.5Q105 521 105 554Z" glyph-name="degree" horiz-adv-x="403" unicode="&#176;" /><glyph d="M221 584Q221 607 238.5 624.5Q256 642 279 642Q302 642 319.5 624.5Q337 607 337 584Q337 561 319.5 544Q302 527 279 527Q256 527 238.5 544Q221 561 221 584ZM57 584Q57 607 74 624.5Q91 642 114 642Q137 642 154 624.5Q171 607 171 584Q171 561 154 544Q137 527 114 527Q91 527 74 544Q57 561 57 584Z" glyph-name="dieresis" horiz-adv-x="296" unicode="&#168;" /><glyph d="M248 673Q247 694 262.5 709Q278 724 300 724Q321 724 336.5 709Q352 694 353 673Q352 653 336.5 637.5Q321 622 300 622Q278 622 262.5 637.5Q247 653 248 673ZM116 673Q115 694 131 709Q147 724 168 724Q189 724 204.5 709Q220 694 221 673Q220 653 204.5 637.5Q189 622 168 622Q147 622 131 637.5Q115 653 116 673Z" glyph-name="dieresis.smcp" horiz-adv-x="350" unicode="&#63400;" /><glyph d="M169 194Q169 222 188 241.5Q207 261 235 261Q263 261 282.5 241.5Q302 222 302 194Q302 166 282 147Q262 128 234 128Q206 128 187.5 147Q169 166 169 194ZM52 391H486L475 323H41ZM226 519Q226 547 245 566.5Q264 586 292 586Q320 586 339.5 566.5Q359 547 359 519Q359 491 339 472Q319 453 291 453Q263 453 244.5 472Q226 491 226 519Z" glyph-name="divide" horiz-adv-x="480" unicode="&#247;" /><glyph d="M246 367Q222 367 205.5 383.5Q189 400 189 424Q188 448 205 465Q222 482 246 482Q270 482 287 465Q304 448 304 424Q304 400 287 383.5Q270 367 246 367ZM53 319H403L392 252H42ZM197 88Q173 88 156 105Q139 122 140 146Q139 170 156 187Q173 204 197 204Q221 204 237.5 187Q254 170 255 146Q255 122 238 105Q221 88 197 88Z" glyph-name="divide.smcp" horiz-adv-x="424" unicode="&#62003;" /><glyph d="M191 537Q191 508 207 483.5Q223 459 262 428L272 420L338 643Q333 644 327.5 644.5Q322 645 317 645Q257 645 224 614Q191 583 191 537ZM381 176Q381 206 364 234.5Q347 263 301 301L229 56Q234 55 244 55Q278 55 303.5 65Q329 75 346.5 92Q364 109 372.5 130.5Q381 152 381 176ZM475 563Q442 603 397 626L324 379L332 373Q369 344 393.5 319.5Q418 295 432.5 271.5Q447 248 453 224.5Q459 201 459 174Q459 138 445 104.5Q431 71 404.5 45Q378 19 339 3.5Q300 -12 250 -12Q228 -12 209 -9L185 -93H120L149 5Q100 22 68 50.5Q36 79 17 104L67 156Q82 134 108.5 110.5Q135 87 169 72L249 342L227 359Q175 399 144 440.5Q113 482 113 534Q113 578 130 611.5Q147 645 175.5 667.5Q204 690 240 701Q276 712 315 712Q338 712 357 708L379 780H443L417 691Q449 678 476.5 658Q504 638 524 612Z" glyph-name="dollar" horiz-adv-x="511" unicode="$" /><glyph d="M169 423Q169 403 180 385Q191 367 220 346L223 344L271 500Q267 501 259 501Q213 501 191 477Q169 453 169 423ZM301 146Q301 166 289 185.5Q277 205 249 228L197 59H202Q250 59 275.5 84.5Q301 110 301 146ZM202 -10Q195 -10 188.5 -9.5Q182 -9 176 -8L156 -74H94L118 5Q81 19 54 41.5Q27 64 10 87L62 142Q74 122 93.5 103.5Q113 85 139 73L199 266L181 279Q138 311 114 343.5Q90 376 90 418Q90 455 104.5 483.5Q119 512 142.5 531.5Q166 551 196 560.5Q226 570 258 570Q274 570 291 567L309 624H371L348 550Q372 539 392.5 521.5Q413 504 428 481L377 432Q357 464 327 482L273 306L276 304Q304 283 324 264Q344 245 356 226.5Q368 208 374 189Q380 170 380 148Q380 114 367 85Q354 56 330.5 35Q307 14 274.5 2Q242 -10 202 -10Z" glyph-name="dollar.smcp" horiz-adv-x="436" unicode="&#63110;" /><glyph d="M225 591Q225 568 208 551Q191 534 168 534Q145 534 127.5 551Q110 568 110 591Q110 614 127.5 631Q145 648 168 648Q191 648 208 631Q225 614 225 591Z" glyph-name="dotaccent" horiz-adv-x="215" unicode="&#729;" /><glyph d="M182 673Q181 694 197 709Q213 724 234 724Q255 724 270.5 709Q286 694 287 673Q286 653 270.5 637.5Q255 622 234 622Q213 622 197 637.5Q181 653 182 673Z" glyph-name="dotaccent.smcp" horiz-adv-x="350" unicode="&#63223;" /><glyph d="M124 0H47L113 383H44L55 448H202Z" glyph-name="dotlessi" horiz-adv-x="230" unicode="&#305;" /><glyph d="M113 383H44L55 448H202L110 -82Q104 -114 92 -132.5Q80 -151 64 -160.5Q48 -170 30 -173Q12 -176 -6 -176H-72L-61 -111H-19Q1 -111 15 -104.5Q29 -98 34 -72Z" glyph-name="dotlessj" horiz-adv-x="230" unicode="&#567;" /><glyph d="M274 391Q218 391 177.5 356Q137 321 123 264H402Q400 319 365.5 355Q331 391 274 391ZM480 200H115Q115 169 125.5 143Q136 117 154 98Q172 79 197 68Q222 57 253 57Q288 57 317 72.5Q346 88 366 114H461Q431 58 377 23Q323 -12 255 -12Q208 -12 168.5 4.5Q129 21 100 50.5Q71 80 54.5 120.5Q38 161 38 209Q38 260 55.5 305.5Q73 351 104.5 385.5Q136 420 179.5 440Q223 460 274 460Q320 460 358 444Q396 428 423 399.5Q450 371 465 331.5Q480 292 480 246Z" glyph-name="e" horiz-adv-x="514" unicode="e" /><glyph d="M332 700H436L317 536H245ZM274 391Q218 391 177.5 356Q137 321 123 264H402Q400 319 365.5 355Q331 391 274 391ZM480 200H115Q115 169 125.5 143Q136 117 154 98Q172 79 197 68Q222 57 253 57Q288 57 317 72.5Q346 88 366 114H461Q431 58 377 23Q323 -12 255 -12Q208 -12 168.5 4.5Q129 21 100 50.5Q71 80 54.5 120.5Q38 161 38 209Q38 260 55.5 305.5Q73 351 104.5 385.5Q136 420 179.5 440Q223 460 274 460Q320 460 358 444Q396 428 423 399.5Q450 371 465 331.5Q480 292 480 246Z" glyph-name="eacute" horiz-adv-x="514" unicode="&#233;" /><glyph d="M364 684H432L425 632Q417 573 382 546.5Q347 520 299 520Q275 520 254.5 527.5Q234 535 219 549.5Q204 564 197 586Q190 608 195 637L203 684H271L262 636Q258 613 268 599Q278 585 303 585Q328 585 339.5 599Q351 613 355 636ZM274 391Q218 391 177.5 356Q137 321 123 264H402Q400 319 365.5 355Q331 391 274 391ZM480 200H115Q115 169 125.5 143Q136 117 154 98Q172 79 197 68Q222 57 253 57Q288 57 317 72.5Q346 88 366 114H461Q431 58 377 23Q323 -12 255 -12Q208 -12 168.5 4.5Q129 21 100 50.5Q71 80 54.5 120.5Q38 161 38 209Q38 260 55.5 305.5Q73 351 104.5 385.5Q136 420 179.5 440Q223 460 274 460Q320 460 358 444Q396 428 423 399.5Q450 371 465 331.5Q480 292 480 246Z" glyph-name="ebreve" horiz-adv-x="514" unicode="&#277;" /><glyph d="M184 700H260L300 592L378 700H459L343 536H244ZM274 391Q218 391 177.5 356Q137 321 123 264H402Q400 319 365.5 355Q331 391 274 391ZM480 200H115Q115 169 125.5 143Q136 117 154 98Q172 79 197 68Q222 57 253 57Q288 57 317 72.5Q346 88 366 114H461Q431 58 377 23Q323 -12 255 -12Q208 -12 168.5 4.5Q129 21 100 50.5Q71 80 54.5 120.5Q38 161 38 209Q38 260 55.5 305.5Q73 351 104.5 385.5Q136 420 179.5 440Q223 460 274 460Q320 460 358 444Q396 428 423 399.5Q450 371 465 331.5Q480 292 480 246Z" glyph-name="ecaron" horiz-adv-x="514" unicode="&#283;" /><glyph d="M267 700H365L425 536H350L310 644L232 536H151ZM274 391Q218 391 177.5 356Q137 321 123 264H402Q400 319 365.5 355Q331 391 274 391ZM480 200H115Q115 169 125.5 143Q136 117 154 98Q172 79 197 68Q222 57 253 57Q288 57 317 72.5Q346 88 366 114H461Q431 58 377 23Q323 -12 255 -12Q208 -12 168.5 4.5Q129 21 100 50.5Q71 80 54.5 120.5Q38 161 38 209Q38 260 55.5 305.5Q73 351 104.5 385.5Q136 420 179.5 440Q223 460 274 460Q320 460 358 444Q396 428 423 399.5Q450 371 465 331.5Q480 292 480 246Z" glyph-name="ecircumflex" horiz-adv-x="514" unicode="&#234;" /><glyph d="M329 584Q329 607 346.5 624.5Q364 642 387 642Q410 642 427.5 624.5Q445 607 445 584Q445 561 427.5 544Q410 527 387 527Q364 527 346.5 544Q329 561 329 584ZM165 584Q165 607 182 624.5Q199 642 222 642Q245 642 262 624.5Q279 607 279 584Q279 561 262 544Q245 527 222 527Q199 527 182 544Q165 561 165 584ZM274 391Q218 391 177.5 356Q137 321 123 264H402Q400 319 365.5 355Q331 391 274 391ZM480 200H115Q115 169 125.5 143Q136 117 154 98Q172 79 197 68Q222 57 253 57Q288 57 317 72.5Q346 88 366 114H461Q431 58 377 23Q323 -12 255 -12Q208 -12 168.5 4.5Q129 21 100 50.5Q71 80 54.5 120.5Q38 161 38 209Q38 260 55.5 305.5Q73 351 104.5 385.5Q136 420 179.5 440Q223 460 274 460Q320 460 358 444Q396 428 423 399.5Q450 371 465 331.5Q480 292 480 246Z" glyph-name="edieresis" horiz-adv-x="514" unicode="&#235;" /><glyph d="M367 591Q367 568 350 551Q333 534 310 534Q287 534 269.5 551Q252 568 252 591Q252 614 269.5 631Q287 648 310 648Q333 648 350 631Q367 614 367 591ZM274 391Q218 391 177.5 356Q137 321 123 264H402Q400 319 365.5 355Q331 391 274 391ZM480 200H115Q115 169 125.5 143Q136 117 154 98Q172 79 197 68Q222 57 253 57Q288 57 317 72.5Q346 88 366 114H461Q431 58 377 23Q323 -12 255 -12Q208 -12 168.5 4.5Q129 21 100 50.5Q71 80 54.5 120.5Q38 161 38 209Q38 260 55.5 305.5Q73 351 104.5 385.5Q136 420 179.5 440Q223 460 274 460Q320 460 358 444Q396 428 423 399.5Q450 371 465 331.5Q480 292 480 246Z" glyph-name="edotaccent" horiz-adv-x="514" unicode="&#279;" /><glyph d="M306 536H235L133 700H237ZM274 391Q218 391 177.5 356Q137 321 123 264H402Q400 319 365.5 355Q331 391 274 391ZM480 200H115Q115 169 125.5 143Q136 117 154 98Q172 79 197 68Q222 57 253 57Q288 57 317 72.5Q346 88 366 114H461Q431 58 377 23Q323 -12 255 -12Q208 -12 168.5 4.5Q129 21 100 50.5Q71 80 54.5 120.5Q38 161 38 209Q38 260 55.5 305.5Q73 351 104.5 385.5Q136 420 179.5 440Q223 460 274 460Q320 460 358 444Q396 428 423 399.5Q450 371 465 331.5Q480 292 480 246Z" glyph-name="egrave" horiz-adv-x="514" unicode="&#232;" /><glyph d="M252 325Q223 325 197 313.5Q171 302 151 282Q131 262 119 235.5Q107 209 107 178Q107 154 115 132Q123 110 139.5 92.5Q156 75 180.5 64.5Q205 54 239 54Q273 54 299.5 66.5Q326 79 345 100Q364 121 374 148Q384 175 384 203Q384 227 376 249Q368 271 351.5 288Q335 305 310 315Q285 325 252 325ZM293 389Q324 389 348.5 401Q373 413 390 433Q407 453 416 479Q425 505 425 534Q425 579 397 611Q369 643 306 643Q274 643 250 631.5Q226 620 209.5 600.5Q193 581 184.5 555Q176 529 176 500Q176 454 203 421.5Q230 389 293 389ZM308 712Q348 712 383.5 700.5Q419 689 445.5 666.5Q472 644 487.5 611.5Q503 579 503 537Q503 507 493.5 478.5Q484 450 466.5 425.5Q449 401 425.5 382Q402 363 375 353Q394 343 410.5 327Q427 311 439 291.5Q451 272 457.5 249Q464 226 464 202Q464 152 445.5 112.5Q427 73 395.5 45.5Q364 18 323.5 3Q283 -12 239 -12Q192 -12 154 1.5Q116 15 88 39Q60 63 45 97Q30 131 30 172Q30 210 42 242Q54 274 73.5 299.5Q93 325 119 343Q145 361 173 371Q140 391 119.5 428Q99 465 99 507Q99 552 115.5 590Q132 628 160.5 655Q189 682 227 697Q265 712 308 712Z" glyph-name="eight" horiz-adv-x="503" unicode="8" /><glyph d="M268 325Q239 325 213 313.5Q187 302 167 282Q147 262 135 235.5Q123 209 123 178Q123 154 131 132Q139 110 155.5 92.5Q172 75 196.5 64.5Q221 54 255 54Q289 54 315.5 66.5Q342 79 361 100Q380 121 390 148Q400 175 400 203Q400 227 392 249Q384 271 367.5 288Q351 305 326 315Q301 325 268 325ZM309 389Q340 389 364.5 401Q389 413 406 433Q423 453 432 479Q441 505 441 534Q441 579 413 611Q385 643 322 643Q290 643 266 631.5Q242 620 225.5 600.5Q209 581 200.5 555Q192 529 192 500Q192 454 219 421.5Q246 389 309 389ZM324 712Q364 712 399.5 700.5Q435 689 461.5 666.5Q488 644 503.5 611.5Q519 579 519 537Q519 507 509.5 478.5Q500 450 482.5 425.5Q465 401 441.5 382Q418 363 391 353Q410 343 426.5 327Q443 311 455 291.5Q467 272 473.5 249Q480 226 480 202Q480 152 461.5 112.5Q443 73 411.5 45.5Q380 18 339.5 3Q299 -12 255 -12Q208 -12 170 1.5Q132 15 104 39Q76 63 61 97Q46 131 46 172Q46 210 58 242Q70 274 89.5 299.5Q109 325 135 343Q161 361 189 371Q156 391 135.5 428Q115 465 115 507Q115 552 131.5 590Q148 628 176.5 655Q205 682 243 697Q281 712 324 712Z" glyph-name="eight.alt" horiz-adv-x="534" unicode="&#62032;" /><glyph d="M311 582Q280 582 256.5 571.5Q233 561 217 543Q201 525 193 501.5Q185 478 185 452Q185 410 213.5 381Q242 352 299 352Q330 352 353.5 362.5Q377 373 393 391Q409 409 417 432.5Q425 456 425 482Q425 524 396.5 553Q368 582 311 582ZM259 293Q232 293 207 283.5Q182 274 162.5 257Q143 240 131 215.5Q119 191 119 161Q119 140 126.5 120Q134 100 150 84.5Q166 69 189.5 60Q213 51 246 51Q279 51 305 62Q331 73 349.5 92Q368 111 377.5 134.5Q387 158 387 184Q387 206 379 225.5Q371 245 355 260Q339 275 315 284Q291 293 259 293ZM311 644Q350 644 384.5 633Q419 622 444.5 601.5Q470 581 485 551Q500 521 500 483Q500 456 491 430.5Q482 405 465.5 383Q449 361 427 344.5Q405 328 378 319Q415 300 439.5 263.5Q464 227 464 182Q464 137 446 101Q428 65 398 40Q368 15 328.5 1.5Q289 -12 246 -12Q201 -12 164 0Q127 12 100 34Q73 56 58.5 86.5Q44 117 44 155Q44 190 55 219.5Q66 249 85 272Q104 295 129 310Q154 325 182 332Q150 348 130.5 384Q111 420 111 458Q111 499 126.5 533.5Q142 568 169 592.5Q196 617 232.5 630.5Q269 644 311 644Z" glyph-name="eight.posf" horiz-adv-x="525" unicode="&#62048;" /><glyph d="M193 64Q223 64 240 84.5Q257 105 257 133Q257 156 243.5 172Q230 188 198 188Q167 188 151 168Q135 148 135 119Q135 96 149.5 80Q164 64 193 64ZM165 -122Q197 -122 216 -100Q235 -78 235 -49Q235 -25 219 -7Q203 11 170 11Q140 11 120 -10.5Q100 -32 100 -61Q100 -84 115.5 -103Q131 -122 165 -122ZM165 -176Q110 -176 72.5 -146.5Q35 -117 35 -64Q35 -24 58 6Q81 36 116 47Q96 58 84 80Q72 102 72 127Q72 152 82 173.5Q92 195 109 210.5Q126 226 149.5 235Q173 244 200 244Q225 244 246.5 237Q268 230 284.5 216.5Q301 203 310.5 183.5Q320 164 320 139Q320 105 301.5 76.5Q283 48 248 35Q271 24 285.5 0Q300 -24 300 -52Q300 -81 289 -104Q278 -127 259.5 -143Q241 -159 216.5 -167.5Q192 -176 165 -176Z" glyph-name="eight.sinf" horiz-adv-x="430" unicode="&#62080;" /><glyph d="M253 318Q275 318 293 326.5Q311 335 323 349Q335 363 341.5 381.5Q348 400 348 421Q348 454 327.5 479Q307 504 260 504Q237 504 219.5 495.5Q202 487 190 473Q178 459 172 440.5Q166 422 166 401Q166 366 187.5 342Q209 318 253 318ZM216 55Q240 55 259.5 64Q279 73 292.5 88Q306 103 313 122.5Q320 142 320 162Q320 199 296.5 226.5Q273 254 223 254Q201 254 182 245.5Q163 237 148.5 222.5Q134 208 126 188.5Q118 169 118 147Q118 130 124 113.5Q130 97 142 84Q154 71 172.5 63Q191 55 216 55ZM215 -10Q177 -10 145.5 1Q114 12 90.5 32Q67 52 54 80.5Q41 109 41 144Q41 201 72.5 241.5Q104 282 152 297Q125 314 108.5 344.5Q92 375 92 409Q92 443 105 472.5Q118 502 141.5 524Q165 546 196 558Q227 570 263 570Q295 570 324 560.5Q353 551 375 533Q397 515 410 488Q423 461 423 426Q423 378 397 338.5Q371 299 325 282Q357 267 377.5 233Q398 199 398 161Q398 121 383 89.5Q368 58 343 36Q318 14 284.5 2Q251 -10 215 -10Z" glyph-name="eight.smcp" horiz-adv-x="457" unicode="&#58881;" /><glyph d="M299 663Q329 663 346 683.5Q363 704 363 732Q363 755 349.5 771Q336 787 304 787Q273 787 257 767Q241 747 241 718Q241 695 255.5 679Q270 663 299 663ZM271 477Q303 477 322 499Q341 521 341 550Q341 574 325 592Q309 610 276 610Q246 610 226 588.5Q206 567 206 538Q206 515 221.5 496Q237 477 271 477ZM271 423Q216 423 178.5 452.5Q141 482 141 535Q141 575 164 605Q187 635 222 646Q202 657 190 679Q178 701 178 726Q178 751 188 772.5Q198 794 215 809.5Q232 825 255.5 834Q279 843 306 843Q331 843 352.5 836Q374 829 390.5 815.5Q407 802 416.5 782.5Q426 763 426 738Q426 704 407.5 675.5Q389 647 354 634Q377 623 391.5 599Q406 575 406 547Q406 518 395 495Q384 472 365.5 456Q347 440 322.5 431.5Q298 423 271 423Z" glyph-name="eight.sups" horiz-adv-x="430" unicode="&#62064;" /><glyph d="M223 233Q253 233 270 253.5Q287 274 287 302Q287 325 273.5 341Q260 357 228 357Q197 357 181 337Q165 317 165 288Q165 265 179.5 249Q194 233 223 233ZM195 47Q227 47 246 69Q265 91 265 120Q265 144 249 162Q233 180 200 180Q170 180 150 158.5Q130 137 130 108Q130 85 145.5 66Q161 47 195 47ZM195 -7Q140 -7 102.5 22.5Q65 52 65 105Q65 145 88 175Q111 205 146 216Q126 227 114 249Q102 271 102 296Q102 321 112 342.5Q122 364 139 379.5Q156 395 179.5 404Q203 413 230 413Q255 413 276.5 406Q298 399 314.5 385.5Q331 372 340.5 352.5Q350 333 350 308Q350 274 331.5 245.5Q313 217 278 204Q301 193 315.5 169Q330 145 330 117Q330 88 319 65Q308 42 289.5 26Q271 10 246.5 1.5Q222 -7 195 -7Z" glyph-name="eightinferior" horiz-adv-x="430" unicode="&#8328;" /><glyph d="M260 527Q290 527 307 547.5Q324 568 324 596Q324 619 310.5 635Q297 651 265 651Q234 651 218 631Q202 611 202 582Q202 559 216.5 543Q231 527 260 527ZM232 341Q264 341 283 363Q302 385 302 414Q302 438 286 456Q270 474 237 474Q207 474 187 452.5Q167 431 167 402Q167 379 182.5 360Q198 341 232 341ZM232 287Q177 287 139.5 316.5Q102 346 102 399Q102 439 125 469Q148 499 183 510Q163 521 151 543Q139 565 139 590Q139 615 149 636.5Q159 658 176 673.5Q193 689 216.5 698Q240 707 267 707Q292 707 313.5 700Q335 693 351.5 679.5Q368 666 377.5 646.5Q387 627 387 602Q387 568 368.5 539.5Q350 511 315 498Q338 487 352.5 463Q367 439 367 411Q367 382 356 359Q345 336 326.5 320Q308 304 283.5 295.5Q259 287 232 287ZM873 357Q839 357 820 331.5Q801 306 801 272Q801 245 816 225.5Q831 206 863 206Q880 206 893 213.5Q906 221 915 233Q924 245 929 260.5Q934 276 934 292Q934 318 919.5 337.5Q905 357 873 357ZM872 413Q932 413 965.5 378Q999 343 999 288Q999 239 979.5 195.5Q960 152 932 115Q904 78 873 48.5Q842 19 819 0H727Q736 7 756.5 24.5Q777 42 802.5 65Q828 88 855 115.5Q882 143 903 171L900 173Q891 165 876 159.5Q861 154 843 154Q823 154 803.5 161.5Q784 169 769 183Q754 197 744.5 218.5Q735 240 735 267Q735 300 745.5 327Q756 354 774.5 373Q793 392 818 402.5Q843 413 872 413ZM989 697 190 -26 155 12 954 735Z" glyph-name="eightninths" horiz-adv-x="1080" unicode="&#62105;" /><glyph d="M275 527Q305 527 322 547.5Q339 568 339 596Q339 619 325.5 635Q312 651 280 651Q249 651 233 631Q217 611 217 582Q217 559 231.5 543Q246 527 275 527ZM247 341Q279 341 298 363Q317 385 317 414Q317 438 301 456Q285 474 252 474Q222 474 202 452.5Q182 431 182 402Q182 379 197.5 360Q213 341 247 341ZM247 287Q192 287 154.5 316.5Q117 346 117 399Q117 439 140 469Q163 499 198 510Q178 521 166 543Q154 565 154 590Q154 615 164 636.5Q174 658 191 673.5Q208 689 231.5 698Q255 707 282 707Q307 707 328.5 700Q350 693 366.5 679.5Q383 666 392.5 646.5Q402 627 402 602Q402 568 383.5 539.5Q365 511 330 498Q353 487 367.5 463Q382 439 382 411Q382 382 371 359Q360 336 341.5 320Q323 304 298.5 295.5Q274 287 247 287Z" glyph-name="eightsuperior" horiz-adv-x="430" unicode="&#8312;" /><glyph d="M716 -12Q690 -12 670 7Q650 26 650 53Q650 80 670 99Q690 118 716 118Q742 118 762 99Q782 80 782 53Q782 26 762 7Q742 -12 716 -12ZM407 -12Q381 -12 361 7Q341 26 341 53Q341 80 361 99Q381 118 407 118Q433 118 453 99Q473 80 473 53Q473 26 453 7Q433 -12 407 -12ZM97 -12Q71 -12 51 7Q31 26 31 53Q31 80 51 99Q71 118 97 118Q123 118 143 99Q163 80 163 53Q163 26 143 7Q123 -12 97 -12Z" glyph-name="ellipsis" horiz-adv-x="868" unicode="&#8230;" /><glyph d="M181 616H441L430 549H170ZM274 391Q218 391 177.5 356Q137 321 123 264H402Q400 319 365.5 355Q331 391 274 391ZM480 200H115Q115 169 125.5 143Q136 117 154 98Q172 79 197 68Q222 57 253 57Q288 57 317 72.5Q346 88 366 114H461Q431 58 377 23Q323 -12 255 -12Q208 -12 168.5 4.5Q129 21 100 50.5Q71 80 54.5 120.5Q38 161 38 209Q38 260 55.5 305.5Q73 351 104.5 385.5Q136 420 179.5 440Q223 460 274 460Q320 460 358 444Q396 428 423 399.5Q450 371 465 331.5Q480 292 480 246Z" glyph-name="emacron" horiz-adv-x="514" unicode="&#275;" /><glyph d="M52 295H972L961 230H42Z" glyph-name="emdash" horiz-adv-x="1000" unicode="&#8212;" /><glyph d="M67 391H987L976 323H57Z" glyph-name="emdash.alt" horiz-adv-x="1000" unicode="&#62217;" /><glyph d="M52 295H472L461 230H42Z" glyph-name="endash" horiz-adv-x="500" unicode="&#8211;" /><glyph d="M67 391H487L476 323H57Z" glyph-name="endash.alt" horiz-adv-x="500" unicode="&#62216;" /><glyph d="M392 288Q400 334 381 363Q362 392 317 392Q299 392 278 385.5Q257 379 236 368.5Q215 358 195.5 343.5Q176 329 161 314L107 0H30L107 448H184L173 390Q209 422 246 441Q283 460 333 460Q370 460 398 447Q426 434 444 410.5Q462 387 468.5 355Q475 323 469 285L406 -82Q401 -114 388.5 -132.5Q376 -151 360 -160.5Q344 -170 326 -173Q308 -176 290 -176H224L235 -111H277Q297 -111 311 -104.5Q325 -98 330 -72Z" glyph-name="eng" horiz-adv-x="520" unicode="&#331;" /><glyph d="M276 391Q220 391 179.5 356Q139 321 125 264H404Q402 319 367.5 355Q333 391 276 391ZM482 200H117Q117 169 127.5 143Q138 117 156 98Q174 79 199 68Q224 57 255 57Q290 57 319 72.5Q348 88 368 114H463Q435 63 387 29Q339 -5 278 -11Q240 -35 214.5 -58.5Q189 -82 189 -105Q189 -118 200.5 -126Q212 -134 231 -134Q247 -134 263.5 -131Q280 -128 303 -120L295 -173Q278 -181 260 -186Q242 -191 210 -191Q167 -191 143 -170.5Q119 -150 119 -116Q119 -73 146.5 -48Q174 -23 212 -7Q174 0 142 19Q110 38 87.5 66.5Q65 95 52.5 131Q40 167 40 209Q40 260 57.5 305.5Q75 351 106.5 385.5Q138 420 181.5 440Q225 460 276 460Q322 460 360 444Q398 428 425 399.5Q452 371 467 331.5Q482 292 482 246Z" glyph-name="eogonek" horiz-adv-x="518" unicode="&#281;" /><glyph d="M35 296H469L457 228H23ZM68 486H502L490 418H56Z" glyph-name="equal" horiz-adv-x="480" unicode="=" /><glyph d="M67 398H417L405 331H55ZM39 240H390L378 173H28Z" glyph-name="equal.smcp" horiz-adv-x="424" unicode="&#62999;" /><glyph d="M709 375Q718 375 718 384V552Q718 585 691.5 609.5Q665 634 627 650Q589 666 546 674Q503 682 470 682Q440 682 397.5 674Q355 666 316.5 650Q278 634 250.5 609.5Q223 585 223 552V384Q223 375 232 375ZM223 160Q223 128 250 102Q277 76 315.5 58Q354 40 396.5 30Q439 20 470 20Q548 20 617.5 48Q687 76 735 131H782Q728 63 648 26Q568 -11 470 -11Q389 -11 317 17.5Q245 46 191.5 95.5Q138 145 106.5 211Q75 277 75 353Q75 427 106 492.5Q137 558 190 606.5Q243 655 315 683.5Q387 712 470 712Q561 712 634 683Q707 654 759 604.5Q811 555 839 487.5Q867 420 867 344H232Q223 344 223 332Z" glyph-name="estimated" horiz-adv-x="881" unicode="&#8494;" /><glyph d="M253 57Q287 57 317 71.5Q347 86 368.5 111.5Q390 137 402.5 171Q415 205 415 245Q415 276 405 303Q395 330 377 349.5Q359 369 333.5 380Q308 391 277 391Q242 391 212.5 376.5Q183 362 161.5 336.5Q140 311 127.5 277Q115 243 115 203Q115 172 125 145Q135 118 153 98.5Q171 79 196.5 68Q222 57 253 57ZM197 569 280 614Q254 643 232.5 665.5Q211 688 200 700H292Q313 683 345 648L442 701L465 652L380 605Q402 575 424 538.5Q446 502 463 461Q480 420 490.5 376Q501 332 501 286Q501 216 482 161Q463 106 429 67.5Q395 29 349.5 8.5Q304 -12 252 -12Q205 -12 166 4.5Q127 21 98.5 50.5Q70 80 54 120.5Q38 161 38 209Q38 260 56 305.5Q74 351 106 385.5Q138 420 181.5 440Q225 460 276 460Q309 460 346.5 448Q384 436 406 405H411Q396 448 370.5 490Q345 532 316 570L221 518Z" glyph-name="eth" horiz-adv-x="537" unicode="&#240;" /><glyph d="M102 -12Q76 -12 56 7Q36 26 36 53Q36 80 56 99Q76 118 102 118Q128 118 148 99Q168 80 168 53Q168 26 148 7Q128 -12 102 -12ZM87 224 168 700H246L161 224Z" glyph-name="exclam" horiz-adv-x="258" unicode="!" /><glyph d="M140 560H218L148 180H78ZM95 -10Q70 -10 53.5 7Q37 24 37 47Q37 71 53.5 88Q70 105 95 105Q118 105 135 88Q152 71 152 47Q152 24 135 7Q118 -10 95 -10Z" glyph-name="exclam.smcp" horiz-adv-x="246" unicode="&#58434;" /><glyph d="M144 460Q170 460 190 441Q210 422 210 395Q210 368 190 349Q170 330 144 330Q118 330 98 349Q78 368 78 395Q78 422 98 441Q118 460 144 460ZM159 224 78 -252H0L85 224Z" glyph-name="exclamdown" horiz-adv-x="232" unicode="&#161;" /><glyph d="M205 712Q231 712 251 693Q271 674 271 647Q271 620 251 601Q231 582 205 582Q179 582 159 601Q139 620 139 647Q139 674 159 693Q179 712 205 712ZM220 476 139 0H61L146 476Z" glyph-name="exclamdown.alt" horiz-adv-x="265" unicode="&#62214;" /><glyph d="M126 0H48L118 380H188ZM171 570Q196 570 212.5 553Q229 536 229 513Q229 489 212.5 472Q196 455 171 455Q148 455 131 472Q114 489 114 513Q114 536 131 553Q148 570 171 570Z" glyph-name="exclamdown.smcp" horiz-adv-x="245" unicode="&#58435;" /><glyph d="M158 595Q164 626 175.5 647Q187 668 203 680.5Q219 693 237 698Q255 703 273 703Q287 703 301 702.5Q315 702 326 701Q339 700 352 699L340 630Q333 631 325 632Q318 633 310.5 634Q303 635 295 635Q268 635 253.5 625.5Q239 616 233 582L211 448H303L291 383H199L133 0H56L122 383H47L59 448H133Z" glyph-name="f" horiz-adv-x="289" unicode="f" /><glyph d="M425 595Q431 626 442.5 647Q454 668 470 680.5Q486 693 504 698Q522 703 540 703Q554 703 568 702.5Q582 702 593 701Q606 700 619 699L607 630Q600 631 592 632Q585 633 577.5 634Q570 635 562 635Q535 635 520.5 625.5Q506 616 500 582L478 448H570L558 383H466L400 0H323L389 383H199L133 0H56L122 383H47L59 448H133L158 595Q164 626 175.5 647Q187 668 203 680.5Q219 693 237 698Q255 703 273 703Q287 703 301 702.5Q315 702 326 701Q339 700 352 699L340 630Q333 631 325 632Q318 633 310.5 634Q303 635 295 635Q268 635 253.5 625.5Q239 616 233 582L211 448H400Z" glyph-name="f_f" horiz-adv-x="556" unicode="&#64256;" /><glyph d="M425 595Q431 626 442.5 647Q454 668 470 680.5Q486 693 504 698Q522 703 540 703Q554 703 568 702.5Q582 702 593 701Q606 700 619 699L607 630Q600 631 592 632Q585 633 577.5 634Q570 635 562 635Q535 635 520.5 625.5Q506 616 500 582L478 448H667L692 595Q698 626 709.5 647Q721 668 737 680.5Q753 693 771 698Q789 703 807 703Q821 703 835 702.5Q849 702 860 701Q873 700 886 699L874 630Q867 631 859 632Q852 633 844.5 634Q837 635 829 635Q802 635 787.5 625.5Q773 616 767 582L745 448H837L825 383H733L667 0H590L656 383H466L400 0H323L389 383H199L133 0H56L122 383H47L59 448H133L158 595Q164 626 175.5 647Q187 668 203 680.5Q219 693 237 698Q255 703 273 703Q287 703 301 702.5Q315 702 326 701Q339 700 352 699L340 630Q333 631 325 632Q318 633 310.5 634Q303 635 295 635Q268 635 253.5 625.5Q239 616 233 582L211 448H400Z" glyph-name="f_f_f" horiz-adv-x="823" unicode="&#62210;" /><glyph d="M400 611Q400 637 417.5 654.5Q435 672 461 672Q487 672 504.5 654.5Q522 637 522 611Q522 585 504.5 567.5Q487 550 461 550Q435 550 417.5 567.5Q400 585 400 611ZM400 0H323L389 383H199L133 0H56L122 383H47L59 448H133L158 595Q164 626 175.5 647Q187 668 203 680.5Q219 693 237 698Q255 703 273 703Q287 703 301 702.5Q315 702 326 701Q339 700 352 699L340 630Q333 631 325 632Q318 633 310.5 634Q303 635 295 635Q268 635 253.5 625.5Q239 616 233 582L211 448H478Z" glyph-name="f_i" horiz-adv-x="505" unicode="&#62209;" /><glyph d="M399 611Q399 637 416.5 654.5Q434 672 460 672Q486 672 503.5 654.5Q521 637 521 611Q521 585 503.5 567.5Q486 550 460 550Q434 550 416.5 567.5Q399 585 399 611ZM389 383H199L133 0H56L122 383H47L59 448H133L158 595Q164 626 175.5 647Q187 668 203 680.5Q219 693 237 698Q255 703 273 703Q287 703 301 702.5Q315 702 326 701Q339 700 352 699L340 630Q333 631 325 632Q318 633 310.5 634Q303 635 295 635Q268 635 253.5 625.5Q239 616 233 582L211 448H478L386 -82Q380 -114 368 -132.5Q356 -151 340 -160.5Q324 -170 306 -173Q288 -176 270 -176H204L215 -111H257Q277 -111 291 -104.5Q305 -98 310 -72Z" glyph-name="f_j" horiz-adv-x="505" unicode="&#58247;" /><glyph d="M425 595Q431 626 442.5 647Q454 668 470 680.5Q486 693 504 698Q522 703 540 703Q554 703 568 702.5Q582 702 593 701Q606 700 619 699L607 630Q600 631 592 632Q585 633 577.5 634Q570 635 562 635Q535 635 520.5 625.5Q506 616 500 582L478 448H570L558 383H466L400 0H323L389 383H199L133 0H56L122 383H47L59 448H133L158 595Q164 626 175.5 647Q187 668 203 680.5Q219 693 237 698Q255 703 273 703Q287 703 301 702.5Q315 702 326 701Q339 700 352 699L340 630Q333 631 325 632Q318 633 310.5 634Q303 635 295 635Q268 635 253.5 625.5Q239 616 233 582L211 448H400Z" glyph-name="ff" horiz-adv-x="556" unicode="&#58249;" /><glyph d="M667 611Q667 637 684.5 654.5Q702 672 728 672Q754 672 771.5 654.5Q789 637 789 611Q789 585 771.5 567.5Q754 550 728 550Q702 550 684.5 567.5Q667 585 667 611ZM667 0H590L656 383H466L400 0H323L389 383H199L133 0H56L122 383H47L59 448H133L158 595Q164 626 175.5 647Q187 668 203 680.5Q219 693 237 698Q255 703 273 703Q287 703 301 702.5Q315 702 326 701Q339 700 352 699L340 630Q333 631 325 632Q318 633 310.5 634Q303 635 295 635Q268 635 253.5 625.5Q239 616 233 582L211 448H400L425 595Q431 626 442.5 647Q454 668 470 680.5Q486 693 504 698Q522 703 540 703Q554 703 568 702.5Q582 702 593 701Q606 700 619 699L607 630Q600 631 592 632Q585 633 577.5 634Q570 635 562 635Q535 635 520.5 625.5Q506 616 500 582L478 448H745Z" glyph-name="ffi" horiz-adv-x="772" unicode="&#64259;" /><glyph d="M667 0H590L656 383H466L400 0H323L389 383H199L133 0H56L122 383H47L59 448H133L158 595Q164 626 175.5 647Q187 668 203 680.5Q219 693 237 698Q255 703 273 703Q287 703 301 702.5Q315 702 326 701Q339 700 352 699L340 630Q333 631 325 632Q318 633 310.5 634Q303 635 295 635Q268 635 253.5 625.5Q239 616 233 582L211 448H400L425 595Q431 626 442.5 647Q454 668 470 680.5Q486 693 504 698Q522 703 540 703Q554 703 568 702.5Q582 702 593 701Q606 700 619 699L607 630Q600 631 592 632Q585 633 577.5 634Q570 635 562 635Q535 635 520.5 625.5Q506 616 500 582L478 448H667L711 700H788Z" glyph-name="ffl" horiz-adv-x="773" unicode="&#58251;" /><glyph d="M400 611Q400 637 417.5 654.5Q435 672 461 672Q487 672 504.5 654.5Q522 637 522 611Q522 585 504.5 567.5Q487 550 461 550Q435 550 417.5 567.5Q400 585 400 611ZM400 0H323L389 383H199L133 0H56L122 383H47L59 448H133L158 595Q164 626 175.5 647Q187 668 203 680.5Q219 693 237 698Q255 703 273 703Q287 703 301 702.5Q315 702 326 701Q339 700 352 699L340 630Q333 631 325 632Q318 633 310.5 634Q303 635 295 635Q268 635 253.5 625.5Q239 616 233 582L211 448H478Z" glyph-name="fi" horiz-adv-x="505" unicode="&#64257;" /><glyph d="M122 222Q116 198 115 186.5Q114 175 114 166Q114 120 142 88Q170 56 233 56Q267 56 295 72Q323 88 342.5 115.5Q362 143 372.5 179.5Q383 216 383 257Q383 312 356 347Q329 382 265 382Q236 382 209 370Q182 358 165 341L93 350L164 700H512L499 627H217L174 419L176 418Q218 451 281 451Q327 451 361.5 436Q396 421 418 395Q440 369 451 333.5Q462 298 462 257Q462 198 445.5 148.5Q429 99 399 63.5Q369 28 326.5 8Q284 -12 233 -12Q187 -12 150 1Q113 14 87.5 37Q62 60 48.5 93Q35 126 35 165Q35 179 37 194Q39 209 42 222Z" glyph-name="five" horiz-adv-x="503" unicode="5" /><glyph d="M124 222Q118 198 117 186.5Q116 175 116 166Q116 120 144 88Q172 56 235 56Q269 56 297 72Q325 88 344.5 115.5Q364 143 374.5 179.5Q385 216 385 257Q385 312 358 347Q331 382 267 382Q238 382 211 370Q184 358 167 341L95 350L166 700H514L501 627H219L176 419L178 418Q220 451 283 451Q329 451 363.5 436Q398 421 420 395Q442 369 453 333.5Q464 298 464 257Q464 198 447.5 148.5Q431 99 401 63.5Q371 28 328.5 8Q286 -12 235 -12Q189 -12 152 1Q115 14 89.5 37Q64 60 50.5 93Q37 126 37 165Q37 179 39 194Q41 209 44 222Z" glyph-name="five.alt" horiz-adv-x="506" unicode="&#62023;" /><glyph d="M176 -96Q213 -96 240.5 -81Q268 -66 286.5 -41Q305 -16 314.5 16Q324 48 324 82Q324 101 318.5 122Q313 143 300 160.5Q287 178 266 189Q245 200 214 200Q187 200 160.5 187.5Q134 175 120 164L53 169L113 486H440L428 418H169L134 236Q150 247 174 255Q198 263 224 263Q270 263 303.5 247.5Q337 232 358 207.5Q379 183 389 151Q399 119 399 86Q399 33 383 -11.5Q367 -56 338 -89Q309 -122 268 -140.5Q227 -159 177 -159Q136 -159 104 -147Q72 -135 49.5 -114Q27 -93 15 -63.5Q3 -34 3 1Q3 29 10 56H82Q76 35 76 14Q76 -34 100.5 -65Q125 -96 176 -96Z" glyph-name="five.posf" horiz-adv-x="463" unicode="&#62039;" /><glyph d="M160 -121Q193 -121 212 -92Q231 -63 231 -21Q231 6 217.5 23.5Q204 41 173 41Q159 41 146.5 35Q134 29 126 21L70 31L110 237H327L317 178H155L136 81L138 80Q148 88 162 91.5Q176 95 190 95Q244 95 271 62Q298 29 298 -19Q298 -54 288 -82.5Q278 -111 260 -132Q242 -153 217 -164.5Q192 -176 161 -176Q101 -176 69.5 -146.5Q38 -117 38 -69Q38 -62 38.5 -54.5Q39 -47 41 -37H106Q103 -51 103 -57Q103 -63 103 -68Q103 -89 116 -105Q129 -121 160 -121Z" glyph-name="five.sinf" horiz-adv-x="430" unicode="&#62071;" /><glyph d="M213 -10Q135 -10 91 30.5Q47 71 47 136Q47 146 48.5 156.5Q50 167 52 181H131Q126 161 125.5 152.5Q125 144 125 137Q125 104 145 80Q165 56 212 56Q237 56 257 67.5Q277 79 291 99.5Q305 120 312.5 147Q320 174 320 204Q320 246 300 271.5Q280 297 232 297Q210 297 192 288Q174 279 162 268L95 279L149 560H440L428 489H202L173 341L175 340Q190 351 210 357Q230 363 252 363Q289 363 316.5 351Q344 339 362.5 318Q381 297 390 268.5Q399 240 399 207Q399 159 385.5 119.5Q372 80 347.5 51Q323 22 288.5 6Q254 -10 213 -10Z" glyph-name="five.smcp" horiz-adv-x="457" unicode="&#58432;" /><glyph d="M266 478Q299 478 318 507Q337 536 337 578Q337 605 323.5 622.5Q310 640 279 640Q265 640 252.5 634Q240 628 232 620L176 630L216 836H433L423 777H261L242 680L244 679Q254 687 268 690.5Q282 694 296 694Q350 694 377 661Q404 628 404 580Q404 545 394 516.5Q384 488 366 467Q348 446 323 434.5Q298 423 267 423Q207 423 175.5 452.5Q144 482 144 530Q144 537 144.5 544.5Q145 552 147 562H212Q209 548 209 542Q209 536 209 531Q209 510 222 494Q235 478 266 478Z" glyph-name="five.sups" horiz-adv-x="430" unicode="&#62055;" /><glyph d="M875 233Q905 233 922 253.5Q939 274 939 302Q939 325 925.5 341Q912 357 880 357Q849 357 833 337Q817 317 817 288Q817 265 831.5 249Q846 233 875 233ZM847 47Q879 47 898 69Q917 91 917 120Q917 144 901 162Q885 180 852 180Q822 180 802 158.5Q782 137 782 108Q782 85 797.5 66Q813 47 847 47ZM243 342Q276 342 295 371Q314 400 314 442Q314 469 300.5 486.5Q287 504 256 504Q242 504 229.5 498Q217 492 209 484L153 494L193 700H410L400 641H238L219 544L221 543Q231 551 245 554.5Q259 558 273 558Q327 558 354 525Q381 492 381 444Q381 409 371 380.5Q361 352 343 331Q325 310 300 298.5Q275 287 244 287Q184 287 152.5 316.5Q121 346 121 394Q121 401 121.5 408.5Q122 416 124 426H189Q186 412 186 406Q186 400 186 395Q186 374 199 358Q212 342 243 342ZM989 697 190 -26 155 12 954 735ZM847 -7Q792 -7 754.5 22.5Q717 52 717 105Q717 145 740 175Q763 205 798 216Q778 227 766 249Q754 271 754 296Q754 321 764 342.5Q774 364 791 379.5Q808 395 831.5 404Q855 413 882 413Q907 413 928.5 406Q950 399 966.5 385.5Q983 372 992.5 352.5Q1002 333 1002 308Q1002 274 983.5 245.5Q965 217 930 204Q953 193 967.5 169Q982 145 982 117Q982 88 971 65Q960 42 941.5 26Q923 10 898.5 1.5Q874 -7 847 -7Z" glyph-name="fiveeighths" horiz-adv-x="1080" unicode="&#8541;" /><glyph d="M191 48Q224 48 243 77Q262 106 262 148Q262 175 248.5 192.5Q235 210 204 210Q190 210 177.5 204Q165 198 157 190L101 200L141 406H358L348 347H186L167 250L169 249Q179 257 193 260.5Q207 264 221 264Q275 264 302 231Q329 198 329 150Q329 115 319 86.5Q309 58 291 37Q273 16 248 4.5Q223 -7 192 -7Q132 -7 100.5 22.5Q69 52 69 100Q69 107 69.5 114.5Q70 122 72 132H137Q134 118 134 112Q134 106 134 101Q134 80 147 64Q160 48 191 48Z" glyph-name="fiveinferior" horiz-adv-x="430" unicode="&#8325;" /><glyph d="M873 357Q839 357 820 331.5Q801 306 801 272Q801 245 816 225.5Q831 206 863 206Q880 206 893 213.5Q906 221 915 233Q924 245 929 260.5Q934 276 934 292Q934 318 919.5 337.5Q905 357 873 357ZM243 342Q276 342 295 371Q314 400 314 442Q314 469 300.5 486.5Q287 504 256 504Q242 504 229.5 498Q217 492 209 484L153 494L193 700H410L400 641H238L219 544L221 543Q231 551 245 554.5Q259 558 273 558Q327 558 354 525Q381 492 381 444Q381 409 371 380.5Q361 352 343 331Q325 310 300 298.5Q275 287 244 287Q184 287 152.5 316.5Q121 346 121 394Q121 401 121.5 408.5Q122 416 124 426H189Q186 412 186 406Q186 400 186 395Q186 374 199 358Q212 342 243 342ZM989 697 190 -26 155 12 954 735ZM872 413Q932 413 965.5 378Q999 343 999 288Q999 239 979.5 195.5Q960 152 932 115Q904 78 873 48.5Q842 19 819 0H727Q736 7 756.5 24.5Q777 42 802.5 65Q828 88 855 115.5Q882 143 903 171L900 173Q891 165 876 159.5Q861 154 843 154Q823 154 803.5 161.5Q784 169 769 183Q754 197 744.5 218.5Q735 240 735 267Q735 300 745.5 327Q756 354 774.5 373Q793 392 818 402.5Q843 413 872 413Z" glyph-name="fiveninths" horiz-adv-x="1080" unicode="&#62103;" /><glyph d="M945 344H759L771 406H1024L1014 349L824 0H744ZM243 342Q276 342 295 371Q314 400 314 442Q314 469 300.5 486.5Q287 504 256 504Q242 504 229.5 498Q217 492 209 484L153 494L193 700H410L400 641H238L219 544L221 543Q231 551 245 554.5Q259 558 273 558Q327 558 354 525Q381 492 381 444Q381 409 371 380.5Q361 352 343 331Q325 310 300 298.5Q275 287 244 287Q184 287 152.5 316.5Q121 346 121 394Q121 401 121.5 408.5Q122 416 124 426H189Q186 412 186 406Q186 400 186 395Q186 374 199 358Q212 342 243 342ZM989 697 190 -26 155 12 954 735Z" glyph-name="fivesevenths" horiz-adv-x="1080" unicode="&#62098;" /><glyph d="M858 49Q892 49 911 74.5Q930 100 930 134Q930 161 915 180.5Q900 200 868 200Q851 200 838 192.5Q825 185 816 173Q807 161 802 145.5Q797 130 797 114Q797 88 811.5 68.5Q826 49 858 49ZM243 342Q276 342 295 371Q314 400 314 442Q314 469 300.5 486.5Q287 504 256 504Q242 504 229.5 498Q217 492 209 484L153 494L193 700H410L400 641H238L219 544L221 543Q231 551 245 554.5Q259 558 273 558Q327 558 354 525Q381 492 381 444Q381 409 371 380.5Q361 352 343 331Q325 310 300 298.5Q275 287 244 287Q184 287 152.5 316.5Q121 346 121 394Q121 401 121.5 408.5Q122 416 124 426H189Q186 412 186 406Q186 400 186 395Q186 374 199 358Q212 342 243 342ZM989 697 190 -26 155 12 954 735ZM859 -7Q799 -7 765.5 28Q732 63 732 118Q732 167 751.5 210.5Q771 254 799 291Q827 328 858 357Q889 386 912 406H1004Q995 398 974.5 381Q954 364 928.5 341Q903 318 876 290.5Q849 263 828 235L831 233Q840 241 855 246.5Q870 252 888 252Q908 252 927.5 244.5Q947 237 962 223Q977 209 986.5 187.5Q996 166 996 139Q996 106 985.5 79Q975 52 956.5 33Q938 14 913 3.5Q888 -7 859 -7Z" glyph-name="fivesixths" horiz-adv-x="1080" unicode="&#62087;" /><glyph d="M242 342Q275 342 294 371Q313 400 313 442Q313 469 299.5 486.5Q286 504 255 504Q241 504 228.5 498Q216 492 208 484L152 494L192 700H409L399 641H237L218 544L220 543Q230 551 244 554.5Q258 558 272 558Q326 558 353 525Q380 492 380 444Q380 409 370 380.5Q360 352 342 331Q324 310 299 298.5Q274 287 243 287Q183 287 151.5 316.5Q120 346 120 394Q120 401 120.5 408.5Q121 416 123 426H188Q185 412 185 406Q185 400 185 395Q185 374 198 358Q211 342 242 342Z" glyph-name="fivesuperior" horiz-adv-x="430" unicode="&#8309;" /><glyph d="M400 0H323L389 383H199L133 0H56L122 383H47L59 448H133L158 595Q164 626 175.5 647Q187 668 203 680.5Q219 693 237 698Q255 703 273 703Q287 703 301 702.5Q315 702 326 701Q339 700 352 699L340 630Q333 631 325 632Q318 633 310.5 634Q303 635 295 635Q268 635 253.5 625.5Q239 616 233 582L211 448H400L444 700H521Z" glyph-name="fl" horiz-adv-x="506" unicode="&#64258;" /><glyph d="M195 565Q199 591 208.5 615.5Q218 640 235 658.5Q252 677 278 688.5Q304 700 342 700H397L385 635H351Q339 635 326.5 633Q314 631 303.5 624.5Q293 618 285 607Q277 596 274 578L234 347H322L311 282H223L167 -41Q163 -67 153.5 -91.5Q144 -116 127 -134.5Q110 -153 84 -164.5Q58 -176 21 -176H-34L-22 -111H12Q35 -111 58 -100.5Q81 -90 88 -54L146 282H58L68 347H157Z" glyph-name="florin" horiz-adv-x="351" unicode="&#402;" /><glyph d="M-18 -74H10Q19 -74 28.5 -72.5Q38 -71 46 -66.5Q54 -62 60.5 -53.5Q67 -45 70 -31L111 207H42L52 272H122L154 452Q158 473 165 492.5Q172 512 185.5 527Q199 542 220 551Q241 560 273 560H329L317 493H289Q270 493 251.5 486Q233 479 228 450L198 272H267L256 207H187L143 -41Q140 -61 132 -79Q124 -97 110 -110.5Q96 -124 75.5 -132.5Q55 -141 26 -141H-29Z" glyph-name="florin.smcp" horiz-adv-x="322" unicode="&#61840;" /><glyph d="M104 277H309L375 649ZM27 277 340 700H465L388 277H496L483 212H377L338 0H258L296 212H14Z" glyph-name="four" horiz-adv-x="503" unicode="4" /><glyph d="M115 277H320L386 649ZM38 277 351 700H476L399 277H507L494 212H388L349 0H269L307 212H25Z" glyph-name="four.alt" horiz-adv-x="525" unicode="&#62022;" /><glyph d="M78 107H272L329 426H328ZM2 106 305 486H415L348 107H445L434 44H337L304 -147H228L261 44H-7Z" glyph-name="four.posf" horiz-adv-x="490" unicode="&#62038;" /><glyph d="M91 0H196L228 177ZM30 0 213 239H303L261 0H316L305 -55H251L231 -167H166L186 -55H20Z" glyph-name="four.sinf" horiz-adv-x="430" unicode="&#62070;" /><glyph d="M257 227 303 495 106 227ZM245 162H21L34 227L281 560H393L334 227H415L403 162H323L293 0H216Z" glyph-name="four.smcp" horiz-adv-x="457" unicode="&#58431;" /><glyph d="M197 599H302L334 776ZM136 599 319 838H409L367 599H422L411 544H357L337 432H272L292 544H126Z" glyph-name="four.sups" horiz-adv-x="430" unicode="&#62054;" /><glyph d="M176 461H281L313 638ZM862 48Q895 48 914 77Q933 106 933 148Q933 175 919.5 192.5Q906 210 875 210Q861 210 848.5 204Q836 198 828 190L772 200L812 406H1029L1019 347H857L838 250L840 249Q850 257 864 260.5Q878 264 892 264Q946 264 973 231Q1000 198 1000 150Q1000 115 990 86.5Q980 58 962 37Q944 16 919 4.5Q894 -7 863 -7Q803 -7 771.5 22.5Q740 52 740 100Q740 107 740.5 114.5Q741 122 743 132H808Q805 118 805 112Q805 106 805 101Q805 80 818 64Q831 48 862 48ZM989 697 190 -26 155 12 954 735ZM115 461 298 700H388L346 461H401L390 406H336L316 294H251L271 406H105Z" glyph-name="fourfifths" horiz-adv-x="1080" unicode="&#62085;" /><glyph d="M121 167H226L258 344ZM60 167 243 406H333L291 167H346L335 112H281L261 0H196L216 112H50Z" glyph-name="fourinferior" horiz-adv-x="430" unicode="&#8324;" /><glyph d="M873 357Q839 357 820 331.5Q801 306 801 272Q801 245 816 225.5Q831 206 863 206Q880 206 893 213.5Q906 221 915 233Q924 245 929 260.5Q934 276 934 292Q934 318 919.5 337.5Q905 357 873 357ZM872 413Q932 413 965.5 378Q999 343 999 288Q999 239 979.5 195.5Q960 152 932 115Q904 78 873 48.5Q842 19 819 0H727Q736 7 756.5 24.5Q777 42 802.5 65Q828 88 855 115.5Q882 143 903 171L900 173Q891 165 876 159.5Q861 154 843 154Q823 154 803.5 161.5Q784 169 769 183Q754 197 744.5 218.5Q735 240 735 267Q735 300 745.5 327Q756 354 774.5 373Q793 392 818 402.5Q843 413 872 413ZM176 461H281L313 638ZM115 461 298 700H388L346 461H401L390 406H336L316 294H251L271 406H105ZM989 697 190 -26 155 12 954 735Z" glyph-name="fourninths" horiz-adv-x="1080" unicode="&#62102;" /><glyph d="M945 344H759L771 406H1024L1014 349L824 0H744ZM176 461H281L313 638ZM115 461 298 700H388L346 461H401L390 406H336L316 294H251L271 406H105ZM989 697 190 -26 155 12 954 735Z" glyph-name="foursevenths" horiz-adv-x="1080" unicode="&#62097;" /><glyph d="M173 461H278L310 638ZM112 461 295 700H385L343 461H398L387 406H333L313 294H248L268 406H102Z" glyph-name="foursuperior" horiz-adv-x="430" unicode="&#8308;" /><glyph d="M550 697 -249 -26 -284 12 515 735Z" glyph-name="fraction" horiz-adv-x="220" unicode="&#8260;" /><glyph d="M276 391Q241 391 211.5 376.5Q182 362 160.5 336.5Q139 311 126.5 277.5Q114 244 114 206Q114 174 123.5 146.5Q133 119 151 99Q169 79 195 67.5Q221 56 254 56Q288 56 317 70Q346 84 368 108.5Q390 133 402.5 167Q415 201 415 241Q415 272 405.5 299.5Q396 327 378 347.5Q360 368 334 379.5Q308 391 276 391ZM443 -41Q438 -67 429.5 -91.5Q421 -116 404.5 -134.5Q388 -153 362.5 -164.5Q337 -176 299 -176H121L133 -111H276Q314 -111 335.5 -96.5Q357 -82 365 -44L385 56Q363 26 325.5 7Q288 -12 241 -12Q195 -12 157.5 4.5Q120 21 93.5 49.5Q67 78 52.5 117Q38 156 38 202Q38 258 57 305.5Q76 353 107.5 387.5Q139 422 181 441Q223 460 270 460Q294 460 319 454Q344 448 366 435Q388 422 406 403Q424 384 434 358L450 448H528Z" glyph-name="g" horiz-adv-x="556" unicode="g" /><glyph d="M375 684H443L436 632Q428 573 393 546.5Q358 520 310 520Q286 520 265.5 527.5Q245 535 230 549.5Q215 564 208 586Q201 608 206 637L214 684H282L273 636Q269 613 279 599Q289 585 314 585Q339 585 350.5 599Q362 613 366 636ZM276 391Q241 391 211.5 376.5Q182 362 160.5 336.5Q139 311 126.5 277.5Q114 244 114 206Q114 174 123.5 146.5Q133 119 151 99Q169 79 195 67.5Q221 56 254 56Q288 56 317 70Q346 84 368 108.5Q390 133 402.5 167Q415 201 415 241Q415 272 405.5 299.5Q396 327 378 347.5Q360 368 334 379.5Q308 391 276 391ZM443 -41Q438 -67 429.5 -91.5Q421 -116 404.5 -134.5Q388 -153 362.5 -164.5Q337 -176 299 -176H121L133 -111H276Q314 -111 335.5 -96.5Q357 -82 365 -44L385 56Q363 26 325.5 7Q288 -12 241 -12Q195 -12 157.5 4.5Q120 21 93.5 49.5Q67 78 52.5 117Q38 156 38 202Q38 258 57 305.5Q76 353 107.5 387.5Q139 422 181 441Q223 460 270 460Q294 460 319 454Q344 448 366 435Q388 422 406 403Q424 384 434 358L450 448H528Z" glyph-name="gbreve" horiz-adv-x="556" unicode="&#287;" /><glyph d="M287 700H385L445 536H370L330 644L252 536H171ZM276 391Q241 391 211.5 376.5Q182 362 160.5 336.5Q139 311 126.5 277.5Q114 244 114 206Q114 174 123.5 146.5Q133 119 151 99Q169 79 195 67.5Q221 56 254 56Q288 56 317 70Q346 84 368 108.5Q390 133 402.5 167Q415 201 415 241Q415 272 405.5 299.5Q396 327 378 347.5Q360 368 334 379.5Q308 391 276 391ZM443 -41Q438 -67 429.5 -91.5Q421 -116 404.5 -134.5Q388 -153 362.5 -164.5Q337 -176 299 -176H121L133 -111H276Q314 -111 335.5 -96.5Q357 -82 365 -44L385 56Q363 26 325.5 7Q288 -12 241 -12Q195 -12 157.5 4.5Q120 21 93.5 49.5Q67 78 52.5 117Q38 156 38 202Q38 258 57 305.5Q76 353 107.5 387.5Q139 422 181 441Q223 460 270 460Q294 460 319 454Q344 448 366 435Q388 422 406 403Q424 384 434 358L450 448H528Z" glyph-name="gcircumflex" horiz-adv-x="556" unicode="&#285;" /><glyph d="M389 587Q389 563 372 545Q355 527 329 527Q305 527 287.5 544.5Q270 562 270 585Q270 598 275.5 610Q281 622 288 630L370 732L422 723L364 635Q375 627 382 614.5Q389 602 389 587ZM276 391Q241 391 211.5 376.5Q182 362 160.5 336.5Q139 311 126.5 277.5Q114 244 114 206Q114 174 123.5 146.5Q133 119 151 99Q169 79 195 67.5Q221 56 254 56Q288 56 317 70Q346 84 368 108.5Q390 133 402.5 167Q415 201 415 241Q415 272 405.5 299.5Q396 327 378 347.5Q360 368 334 379.5Q308 391 276 391ZM443 -41Q438 -67 429.5 -91.5Q421 -116 404.5 -134.5Q388 -153 362.5 -164.5Q337 -176 299 -176H121L133 -111H276Q314 -111 335.5 -96.5Q357 -82 365 -44L385 56Q363 26 325.5 7Q288 -12 241 -12Q195 -12 157.5 4.5Q120 21 93.5 49.5Q67 78 52.5 117Q38 156 38 202Q38 258 57 305.5Q76 353 107.5 387.5Q139 422 181 441Q223 460 270 460Q294 460 319 454Q344 448 366 435Q388 422 406 403Q424 384 434 358L450 448H528Z" glyph-name="gcommaaccent" horiz-adv-x="556" unicode="&#291;" /><glyph d="M367 591Q367 568 350 551Q333 534 310 534Q287 534 269.5 551Q252 568 252 591Q252 614 269.5 631Q287 648 310 648Q333 648 350 631Q367 614 367 591ZM276 391Q241 391 211.5 376.5Q182 362 160.5 336.5Q139 311 126.5 277.5Q114 244 114 206Q114 174 123.5 146.5Q133 119 151 99Q169 79 195 67.5Q221 56 254 56Q288 56 317 70Q346 84 368 108.5Q390 133 402.5 167Q415 201 415 241Q415 272 405.5 299.5Q396 327 378 347.5Q360 368 334 379.5Q308 391 276 391ZM443 -41Q438 -67 429.5 -91.5Q421 -116 404.5 -134.5Q388 -153 362.5 -164.5Q337 -176 299 -176H121L133 -111H276Q314 -111 335.5 -96.5Q357 -82 365 -44L385 56Q363 26 325.5 7Q288 -12 241 -12Q195 -12 157.5 4.5Q120 21 93.5 49.5Q67 78 52.5 117Q38 156 38 202Q38 258 57 305.5Q76 353 107.5 387.5Q139 422 181 441Q223 460 270 460Q294 460 319 454Q344 448 366 435Q388 422 406 403Q424 384 434 358L450 448H528Z" glyph-name="gdotaccent" horiz-adv-x="556" unicode="&#289;" /><glyph d="M318 700Q346 700 374.5 690.5Q403 681 426 662.5Q449 644 463 617Q477 590 477 555Q477 513 454.5 479Q432 445 405.5 418Q379 391 356.5 369Q334 347 334 329Q334 309 353 290.5Q372 272 395 249.5Q418 227 437 198.5Q456 170 456 130Q456 95 443.5 68Q431 41 409 22Q387 3 357.5 -7Q328 -17 294 -17Q281 -17 254.5 -14Q228 -11 205 1L236 63Q249 58 264.5 54.5Q280 51 294 51Q310 51 325.5 55.5Q341 60 353 69Q365 78 372.5 93Q380 108 380 129Q380 156 361 177.5Q342 199 318.5 220.5Q295 242 276 266.5Q257 291 257 324Q257 355 280 382.5Q303 410 330.5 436.5Q358 463 381 490.5Q404 518 404 549Q404 591 378.5 611Q353 631 314 631Q273 631 239.5 603Q206 575 195 514L107 0H29L118 513Q127 568 149 604.5Q171 641 198.5 662Q226 683 257.5 691.5Q289 700 318 700Z" glyph-name="germandbls" horiz-adv-x="498" unicode="&#223;" /><glyph d="M244 536H173L71 700H175Z" glyph-name="grave" horiz-adv-x="216" unicode="`" /><glyph d="M289 605H226L149 730H241Z" glyph-name="grave.smcp" horiz-adv-x="350" unicode="&#63328;" /><glyph d="M86 400H458L315 566L366 613L577 365L317 122L271 171L446 335H76Z" glyph-name="greater" horiz-adv-x="586" unicode="&gt;" /><glyph d="M78 251 421 357 115 463 129 544 536 391 523 317 62 164Z" glyph-name="greater.alt" horiz-adv-x="547" unicode="&#62550;" /><glyph d="M217 129 348 252H59L69 319H363L259 447L310 492L478 281L259 79Z" glyph-name="greater.smcp" horiz-adv-x="523" unicode="&#62007;" /><glyph d="M34 247 377 353 71 459 85 540 492 387 479 313 18 160ZM424 0H-9L3 68H436Z" glyph-name="greaterequal" horiz-adv-x="480" unicode="&#8805;" /><glyph d="M15 67H365L353 0H3ZM39 207 311 290 68 373 82 451 410 327 397 252 25 127Z" glyph-name="greaterequal.smcp" horiz-adv-x="424" unicode="&#62009;" /><glyph d="M170 393H262L136 234L209 85H126L51 239ZM329 393H421L295 234L367 85H285L210 239Z" glyph-name="guillemotleft" horiz-adv-x="447" unicode="&#171;" /><glyph d="M214 512H306L180 353L253 204H170L95 358ZM373 512H465L339 353L411 204H329L254 358Z" glyph-name="guillemotleft.alt" horiz-adv-x="483" unicode="&#62224;" /><glyph d="M201 286 303 410H386L283 280L336 155H263ZM64 286 165 410H249L146 280L199 155H126Z" glyph-name="guillemotleft.smcp" horiz-adv-x="426" unicode="&#62993;" /><glyph d="M282 85H190L316 244L243 393H326L401 239ZM123 85H31L157 244L85 393H167L242 239Z" glyph-name="guillemotright" horiz-adv-x="445" unicode="&#187;" /><glyph d="M317 204H225L351 363L278 512H361L436 358ZM158 204H66L192 363L120 512H202L277 358Z" glyph-name="guillemotright.alt" horiz-adv-x="483" unicode="&#62225;" /><glyph d="M302 285 249 410H322L384 280L283 155H199ZM165 285 112 410H184L247 280L145 155H62Z" glyph-name="guillemotright.smcp" horiz-adv-x="427" unicode="&#62994;" /><glyph d="M171 393H263L136 234L209 85H127L51 239Z" glyph-name="guilsinglleft" horiz-adv-x="289" unicode="&#8249;" /><glyph d="M215 512H307L180 353L253 204H171L95 358Z" glyph-name="guilsinglleft.alt" horiz-adv-x="330" unicode="&#62226;" /><glyph d="M64 286 166 410H249L146 280L199 155H127Z" glyph-name="guilsinglleft.smcp" horiz-adv-x="289" unicode="&#62992;" /><glyph d="M123 85H31L158 244L85 393H167L243 239Z" glyph-name="guilsinglright" horiz-adv-x="287" unicode="&#8250;" /><glyph d="M163 204H71L198 363L125 512H207L283 358Z" glyph-name="guilsinglright.alt" horiz-adv-x="330" unicode="&#62227;" /><glyph d="M165 285 112 410H184L247 280L145 155H62Z" glyph-name="guilsinglright.smcp" horiz-adv-x="290" unicode="&#62995;" /><glyph d="M107 0H30L150 700H228L200 540L173 390Q209 422 248 441Q287 460 337 460Q374 460 401.5 447Q429 434 446 410.5Q463 387 469 355Q475 323 469 285L420 0H342L392 288Q400 334 381 363Q362 392 317 392Q299 392 278 385.5Q257 379 236 368.5Q215 358 195.5 343.5Q176 329 161 314Z" glyph-name="h" horiz-adv-x="520" unicode="h" /><glyph d="M62 609H134L150 700H228L212 609H339L328 544H200V540L173 390Q209 422 248 441Q287 460 337 460Q374 460 401.5 447Q429 434 446 410.5Q463 387 469 355Q475 323 469 285L420 0H342L392 288Q400 334 381 363Q362 392 317 392Q299 392 278 385.5Q257 379 236 368.5Q215 358 195.5 343.5Q176 329 161 314L107 0H30L123 544H51Z" glyph-name="hbar" horiz-adv-x="520" unicode="&#295;" /><glyph d="M317 952H415L475 788H400L360 896L282 788H201ZM107 0H30L150 700H228L200 540L173 390Q209 422 248 441Q287 460 337 460Q374 460 401.5 447Q429 434 446 410.5Q463 387 469 355Q475 323 469 285L420 0H342L392 288Q400 334 381 363Q362 392 317 392Q299 392 278 385.5Q257 379 236 368.5Q215 358 195.5 343.5Q176 329 161 314Z" glyph-name="hcircumflex" horiz-adv-x="520" unicode="&#293;" /><glyph d="M329 700H423L314 536H232ZM171 700H265L155 536H74Z" glyph-name="hungarumlaut" horiz-adv-x="378" unicode="&#733;" /><glyph d="M288 730H378L285 605H223ZM154 730H244L151 605H89Z" glyph-name="hungarumlaut.smcp" horiz-adv-x="350" unicode="&#63224;" /><glyph d="M42 295H232L221 230H31Z" glyph-name="hyphen" horiz-adv-x="250" unicode="-" /><glyph d="M57 391H247L236 323H46Z" glyph-name="hyphen.alt" horiz-adv-x="250" unicode="&#62215;" /><glyph d="M124 611Q124 637 141.5 654.5Q159 672 185 672Q211 672 228.5 654.5Q246 637 246 611Q246 585 228.5 567.5Q211 550 185 550Q159 550 141.5 567.5Q124 585 124 611ZM124 0H47L113 383H44L55 448H202Z" glyph-name="i" horiz-adv-x="230" unicode="i" /><glyph d="M124 611Q124 637 141.5 654.5Q159 672 185 672Q211 672 228.5 654.5Q246 637 246 611Q246 585 228.5 567.5Q211 550 185 550Q159 550 141.5 567.5Q124 585 124 611ZM124 0H47L113 383H44L55 448H202Z" glyph-name="i.locl" horiz-adv-x="230" unicode="&#62212;" /><glyph d="M219 700H323L204 536H132ZM124 0H47L113 383H44L55 448H202Z" glyph-name="iacute" horiz-adv-x="230" unicode="&#237;" /><glyph d="M236 684H304L297 632Q289 573 254 546.5Q219 520 171 520Q147 520 126.5 527.5Q106 535 91 549.5Q76 564 69 586Q62 608 67 637L75 684H143L134 636Q130 613 140 599Q150 585 175 585Q200 585 211.5 599Q223 613 227 636ZM124 0H47L113 383H44L55 448H202Z" glyph-name="ibreve" horiz-adv-x="230" unicode="&#301;" /><glyph d="M144 700H242L302 536H227L187 644L109 536H28ZM124 0H47L113 383H44L55 448H202Z" glyph-name="icircumflex" horiz-adv-x="230" unicode="&#238;" /><glyph d="M196 584Q196 607 213.5 624.5Q231 642 254 642Q277 642 294.5 624.5Q312 607 312 584Q312 561 294.5 544Q277 527 254 527Q231 527 213.5 544Q196 561 196 584ZM32 584Q32 607 49 624.5Q66 642 89 642Q112 642 129 624.5Q146 607 146 584Q146 561 129 544Q112 527 89 527Q66 527 49 544Q32 561 32 584ZM124 0H47L113 383H44L55 448H202Z" glyph-name="idieresis" horiz-adv-x="230" unicode="&#239;" /><glyph d="M197 536H126L24 700H128ZM124 0H47L113 383H44L55 448H202Z" glyph-name="igrave" horiz-adv-x="230" unicode="&#236;" /><glyph d="M353 611Q353 637 370.5 654.5Q388 672 414 672Q440 672 457.5 654.5Q475 637 475 611Q475 585 457.5 567.5Q440 550 414 550Q388 550 370.5 567.5Q353 585 353 611ZM343 383H274L285 448H432L340 -82Q334 -114 322 -132.5Q310 -151 294 -160.5Q278 -170 260 -173Q242 -176 224 -176H158L169 -111H211Q231 -111 245 -104.5Q259 -98 264 -72ZM124 611Q124 637 141.5 654.5Q159 672 185 672Q211 672 228.5 654.5Q246 637 246 611Q246 585 228.5 567.5Q211 550 185 550Q159 550 141.5 567.5Q124 585 124 611ZM124 0H47L113 383H44L55 448H202Z" glyph-name="ij" horiz-adv-x="460" unicode="&#307;" /><glyph d="M34 616H294L283 549H23ZM124 0H47L113 383H44L55 448H202Z" glyph-name="imacron" horiz-adv-x="230" unicode="&#299;" /><glyph d="M526 350Q546 306 565 279.5Q584 253 603 238Q622 223 641.5 218Q661 213 684 213Q703 213 724.5 219Q746 225 764.5 241Q783 257 795 284Q807 311 807 352Q807 392 794.5 418Q782 444 763.5 459.5Q745 475 723.5 481Q702 487 684 487Q661 487 641.5 482Q622 477 603 462Q584 447 565 420Q546 393 526 350ZM487 406Q516 480 568 517.5Q620 555 689 555Q727 555 762 542Q797 529 823.5 503Q850 477 866 439Q882 401 882 350Q882 299 866 261Q850 223 823.5 197Q797 171 762 158Q727 145 689 145Q620 145 568 182.5Q516 220 487 294Q458 220 406 182.5Q354 145 285 145Q247 145 212 158Q177 171 150.5 197Q124 223 108 261Q92 299 92 350Q92 401 108 439Q124 477 150.5 503Q177 529 212 542Q247 555 285 555Q354 555 406 517.5Q458 480 487 406ZM448 350Q428 393 409 420Q390 447 371 462Q352 477 332 482Q312 487 290 487Q272 487 250.5 481Q229 475 210.5 459.5Q192 444 179.5 418Q167 392 167 352Q167 311 179 284Q191 257 209.5 241Q228 225 249.5 219Q271 213 290 213Q312 213 332 218Q352 223 371 238Q390 253 409 279.5Q428 306 448 350Z" glyph-name="infinity" horiz-adv-x="929" unicode="&#8734;" /><glyph d="M154 -41Q150 -67 140.5 -91.5Q131 -116 114 -134.5Q97 -153 71 -164.5Q45 -176 8 -176H-47L-35 -111H-1Q22 -111 45 -100.5Q68 -90 75 -54L182 565Q186 591 195.5 615.5Q205 640 222 658.5Q239 677 265 688.5Q291 700 329 700H384L372 635H338Q326 635 313.5 633Q301 631 290.5 624.5Q280 618 272 607Q264 596 261 578Z" glyph-name="integral" horiz-adv-x="322" unicode="&#8747;" /><glyph d="M124 611Q124 637 141.5 654.5Q159 672 185 672Q211 672 228.5 654.5Q246 637 246 611Q246 585 228.5 567.5Q211 550 185 550Q159 550 141.5 567.5Q124 585 124 611ZM124 0H113Q70 -27 38.5 -53Q7 -79 7 -105Q7 -118 18.5 -126Q30 -134 49 -134Q65 -134 81.5 -131Q98 -128 121 -120L113 -173Q96 -181 78 -186Q60 -191 28 -191Q-15 -191 -39 -170.5Q-63 -150 -63 -116Q-63 -92 -53.5 -73.5Q-44 -55 -28 -41.5Q-12 -28 8 -18Q28 -8 49 0H47L113 383H44L55 448H202Z" glyph-name="iogonek" horiz-adv-x="230" unicode="&#303;" /><glyph d="M15 539Q16 548 19 567Q22 586 31 606Q40 626 59 641Q78 656 113 656Q129 656 146 649Q163 642 179 633Q195 624 209.5 617Q224 610 235 610Q248 610 253.5 620Q259 630 262 644L264 654H331Q329 645 327.5 626Q326 607 317.5 587Q309 567 290.5 552Q272 537 238 537Q223 537 206 544Q189 551 172.5 560Q156 569 141.5 576Q127 583 117 583Q103 583 95 573Q87 563 84 549L82 539ZM124 0H47L113 383H44L55 448H202Z" glyph-name="itilde" horiz-adv-x="230" unicode="&#297;" /><glyph d="M123 611Q123 637 140.5 654.5Q158 672 184 672Q210 672 227.5 654.5Q245 637 245 611Q245 585 227.5 567.5Q210 550 184 550Q158 550 140.5 567.5Q123 585 123 611ZM113 383H44L55 448H202L110 -82Q104 -114 92 -132.5Q80 -151 64 -160.5Q48 -170 30 -173Q12 -176 -6 -176H-72L-61 -111H-19Q1 -111 15 -104.5Q29 -98 34 -72Z" glyph-name="j" horiz-adv-x="230" unicode="j" /><glyph d="M137 700H235L295 536H220L180 644L102 536H21ZM113 383H44L55 448H202L110 -82Q104 -114 92 -132.5Q80 -151 64 -160.5Q48 -170 30 -173Q12 -176 -6 -176H-72L-61 -111H-19Q1 -111 15 -104.5Q29 -98 34 -72Z" glyph-name="jcircumflex" horiz-adv-x="230" unicode="&#309;" /><glyph d="M155 278H200L379 448H482L261 246L415 0H328L196 213H143L107 0H30L150 700H228Z" glyph-name="k" horiz-adv-x="463" unicode="k" /><glyph d="M136 -107Q136 -83 153 -65Q170 -47 196 -47Q220 -47 237.5 -64.5Q255 -82 255 -105Q255 -118 249.5 -130Q244 -142 237 -150L155 -252L103 -243L161 -155Q150 -147 143 -134.5Q136 -122 136 -107ZM155 278H200L379 448H482L261 246L415 0H328L196 213H143L107 0H30L150 700H228Z" glyph-name="kcommaaccent" horiz-adv-x="463" unicode="&#311;" /><glyph d="M153 258H199L412 448H521L266 227L449 0H349L198 193H142L108 0H29L108 448H187Z" glyph-name="kgreenlandic" horiz-adv-x="499" unicode="&#312;" /><glyph d="M107 0H30L151 700H228Z" glyph-name="l" horiz-adv-x="213" unicode="l" /><glyph d="M256 952H360L241 788H169ZM107 0H30L151 700H228Z" glyph-name="lacute" horiz-adv-x="213" unicode="&#314;" /><glyph d="M283 652Q283 676 300 694Q317 712 343 712Q367 712 384.5 694.5Q402 677 402 654Q402 641 396.5 629Q391 617 384 609L302 507L250 516L308 604Q297 612 290 624.5Q283 637 283 652ZM107 0H30L151 700H228Z" glyph-name="lcaron" horiz-adv-x="213" unicode="&#318;" /><glyph d="M-14 -107Q-14 -83 3 -65Q20 -47 46 -47Q70 -47 87.5 -64.5Q105 -82 105 -105Q105 -118 99.5 -130Q94 -142 87 -150L5 -252L-47 -243L11 -155Q0 -147 -7 -134.5Q-14 -122 -14 -107ZM107 0H30L151 700H228Z" glyph-name="lcommaaccent" horiz-adv-x="213" unicode="&#316;" /><glyph d="M243 370Q243 398 262 417.5Q281 437 309 437Q337 437 356.5 417.5Q376 398 376 370Q376 342 356.5 323Q337 304 309 304Q281 304 262 323Q243 342 243 370ZM107 0H30L151 700H228Z" glyph-name="ldot" horiz-adv-x="354" unicode="&#320;" /><glyph d="M550 335H178L321 169L270 122L59 370L319 613L365 564L190 400H560Z" glyph-name="less" horiz-adv-x="584" unicode="&lt;" /><glyph d="M467 170 60 323 73 397 534 550 519 463 177 357 482 251Z" glyph-name="less.alt" horiz-adv-x="549" unicode="&#62551;" /><glyph d="M66 290 285 492 327 442 196 319H485L475 252H182L285 124L234 79Z" glyph-name="less.smcp" horiz-adv-x="521" unicode="&#62006;" /><glyph d="M-8 68H425L413 0H-20ZM441 160 34 313 47 387 508 540 493 453 151 347 456 241Z" glyph-name="lessequal" horiz-adv-x="480" unicode="&#8804;" /><glyph d="M6 67H356L344 0H-6ZM38 252 51 327 423 451 409 372 138 289 380 206 366 127Z" glyph-name="lessequal.smcp" horiz-adv-x="424" unicode="&#62008;" /><glyph d="M63 491H497L450 223H374L409 423H51Z" glyph-name="logicalnot" horiz-adv-x="480" unicode="&#172;" /><glyph d="M133 0H56L122 383H47L59 448H133L158 595Q163 626 175 647Q187 668 202.5 680.5Q218 693 236.5 698Q255 703 273 703Q287 703 301 702.5Q315 702 326 701Q339 700 352 699L340 630Q333 631 325 632Q318 633 310.5 634Q303 635 295 635Q268 635 253.5 625.5Q239 616 233 582Z" glyph-name="longs" horiz-adv-x="259" unicode="&#383;" /><glyph d="M320 634 141 342 213 63 384 362ZM276 700H380L468 350L259 0H155L59 350Z" glyph-name="lozenge" horiz-adv-x="481" unicode="&#9674;" /><glyph d="M180 384 262 430 249 356 167 310 114 0H37L82 261L7 219L19 293L95 336L158 700H235Z" glyph-name="lslash" horiz-adv-x="232" unicode="&#322;" /><glyph d="M684 288Q692 334 674.5 363Q657 392 612 392Q590 392 568.5 384Q547 376 527.5 364Q508 352 491.5 338.5Q475 325 463 314L459 285L410 0H332L382 288Q390 334 372.5 363Q355 392 310 392Q288 392 266.5 384Q245 376 225.5 364Q206 352 189.5 338.5Q173 325 161 314L107 0H30L107 448H184L173 390Q203 421 240.5 440.5Q278 460 326 460Q375 460 409 437Q443 414 453 376Q501 421 540 440.5Q579 460 627 460Q664 460 692 447Q720 434 737.5 410.5Q755 387 761 355Q767 323 761 285L712 0H634Z" glyph-name="m" horiz-adv-x="812" unicode="m" /><glyph d="M88 616H348L337 549H77Z" glyph-name="macron" horiz-adv-x="316" unicode="&#175;" /><glyph d="M126 700H353L342 639H115Z" glyph-name="macron.smcp" horiz-adv-x="350" unicode="&#63407;" /><glyph d="M50 391H484L473 323H39Z" glyph-name="minus" horiz-adv-x="480" unicode="&#8722;" /><glyph d="M54 319H404L393 252H43Z" glyph-name="minus.smcp" horiz-adv-x="424" unicode="&#62998;" /><glyph d="M190 448 144 182Q139 156 142.5 133.5Q146 111 158.5 94Q171 77 192.5 67Q214 57 246 57Q291 57 324 82Q357 107 367 161L417 448H494L442 144Q436 111 419.5 82.5Q403 54 377.5 33Q352 12 317.5 0Q283 -12 241 -12Q222 -12 202.5 -8Q183 -4 166 3.5Q149 11 135.5 22Q122 33 114 47L76 -176H5L113 448Z" glyph-name="mu" horiz-adv-x="495" unicode="&#181;" /><glyph d="M32 230 216 377 89 550 143 591 269 419 450 563 490 510 310 366 435 193 381 152 254 323 72 177Z" glyph-name="multiply" horiz-adv-x="472" unicode="&#215;" /><glyph d="M217 248 76 134 36 185 179 300 80 435 134 476 232 342 373 454 413 402 272 290 370 155 316 114Z" glyph-name="multiply.smcp" horiz-adv-x="424" unicode="&#62002;" /><glyph d="M173 390Q209 422 246 441Q283 460 333 460Q370 460 398 447Q426 434 444 410.5Q462 387 468.5 355Q475 323 469 285L420 0H342L392 288Q400 334 381 363Q362 392 317 392Q299 392 278 385.5Q257 379 236 368.5Q215 358 195.5 343.5Q176 329 161 314L107 0H30L107 448H184Z" glyph-name="n" horiz-adv-x="520" unicode="n" /><glyph d="M354 700H458L339 536H267ZM173 390Q209 422 246 441Q283 460 333 460Q370 460 398 447Q426 434 444 410.5Q462 387 468.5 355Q475 323 469 285L420 0H342L392 288Q400 334 381 363Q362 392 317 392Q299 392 278 385.5Q257 379 236 368.5Q215 358 195.5 343.5Q176 329 161 314L107 0H30L107 448H184Z" glyph-name="nacute" horiz-adv-x="520" unicode="&#324;" /><glyph d="M125 652Q125 676 142 694Q159 712 185 712Q209 712 226.5 694.5Q244 677 244 654Q244 641 238.5 629Q233 617 226 609L144 507L92 516L150 604Q139 612 132 624.5Q125 637 125 652ZM173 390Q209 422 246 441Q283 460 333 460Q370 460 398 447Q426 434 444 410.5Q462 387 468.5 355Q475 323 469 285L420 0H342L392 288Q400 334 381 363Q362 392 317 392Q299 392 278 385.5Q257 379 236 368.5Q215 358 195.5 343.5Q176 329 161 314L107 0H30L107 448H184Z" glyph-name="napostrophe" horiz-adv-x="520" unicode="&#329;" /></font>
</defs>
</svg>
